<?xml version="1.0" encoding="utf-8" standalone="no"?>
<!DOCTYPE svg PUBLIC "-//W3C//DTD SVG 1.1//EN"
  "http://www.w3.org/Graphics/SVG/1.1/DTD/svg11.dtd">
<svg xmlns:xlink="http://www.w3.org/1999/xlink" width="854.712031pt" height="351.664687pt" viewBox="0 0 854.712031 351.664687" xmlns="http://www.w3.org/2000/svg" version="1.1">
 <metadata>
  <rdf:RDF xmlns:dc="http://purl.org/dc/elements/1.1/" xmlns:cc="http://creativecommons.org/ns#" xmlns:rdf="http://www.w3.org/1999/02/22-rdf-syntax-ns#">
   <cc:Work>
    <dc:type rdf:resource="http://purl.org/dc/dcmitype/StillImage"/>
    <dc:date>2026-04-13T22:31:58.767799</dc:date>
    <dc:format>image/svg+xml</dc:format>
    <dc:creator>
     <cc:Agent>
      <dc:title>Matplotlib v3.10.8, https://matplotlib.org/</dc:title>
     </cc:Agent>
    </dc:creator>
   </cc:Work>
  </rdf:RDF>
 </metadata>
 <defs>
  <style type="text/css">*{stroke-linejoin: round; stroke-linecap: butt}</style>
 </defs>
 <g id="figure_1">
  <g id="patch_1">
   <path d="M 0 351.664687 
L 854.712031 351.664687 
L 854.712031 0 
L 0 0 
z
" style="fill: #ffffff"/>
  </g>
  <g id="axes_1">
   <g id="patch_2">
    <path d="M 35.432031 312.143594 
L 413.802031 312.143594 
L 413.802031 22.663594 
L 35.432031 22.663594 
z
" style="fill: #ffffff"/>
   </g>
   <g id="patch_3">
    <path d="M 54.062225 312.143594 
L 60.913048 312.143594 
L 60.913048 293.921274 
L 54.062225 293.921274 
z
" clip-path="url(#p4434cef19d)" style="fill: #059669; opacity: 0.6"/>
   </g>
   <g id="patch_4">
    <path d="M 60.913048 312.143594 
L 67.763871 312.143594 
L 67.763871 249.161596 
L 60.913048 249.161596 
z
" clip-path="url(#p4434cef19d)" style="fill: #059669; opacity: 0.6"/>
   </g>
   <g id="patch_5">
    <path d="M 67.763871 312.143594 
L 74.614695 312.143594 
L 74.614695 224.039563 
L 67.763871 224.039563 
z
" clip-path="url(#p4434cef19d)" style="fill: #059669; opacity: 0.6"/>
   </g>
   <g id="patch_6">
    <path d="M 74.614695 312.143594 
L 81.465518 312.143594 
L 81.465518 230.585445 
L 74.614695 230.585445 
z
" clip-path="url(#p4434cef19d)" style="fill: #059669; opacity: 0.6"/>
   </g>
   <g id="patch_7">
    <path d="M 81.465518 312.143594 
L 88.316342 312.143594 
L 88.316342 260.130371 
L 81.465518 260.130371 
z
" clip-path="url(#p4434cef19d)" style="fill: #059669; opacity: 0.6"/>
   </g>
   <g id="patch_8">
    <path d="M 88.316342 312.143594 
L 95.167165 312.143594 
L 95.167165 224.924141 
L 88.316342 224.924141 
z
" clip-path="url(#p4434cef19d)" style="fill: #059669; opacity: 0.6"/>
   </g>
   <g id="patch_9">
    <path d="M 95.167165 312.143594 
L 102.017988 312.143594 
L 102.017988 268.091578 
L 95.167165 268.091578 
z
" clip-path="url(#p4434cef19d)" style="fill: #059669; opacity: 0.6"/>
   </g>
   <g id="patch_10">
    <path d="M 102.017988 312.143594 
L 108.868812 312.143594 
L 108.868812 258.891961 
L 102.017988 258.891961 
z
" clip-path="url(#p4434cef19d)" style="fill: #059669; opacity: 0.6"/>
   </g>
   <g id="patch_11">
    <path d="M 108.868812 312.143594 
L 115.719635 312.143594 
L 115.719635 261.545696 
L 108.868812 261.545696 
z
" clip-path="url(#p4434cef19d)" style="fill: #059669; opacity: 0.6"/>
   </g>
   <g id="patch_12">
    <path d="M 115.719635 312.143594 
L 122.570459 312.143594 
L 122.570459 237.485158 
L 115.719635 237.485158 
z
" clip-path="url(#p4434cef19d)" style="fill: #059669; opacity: 0.6"/>
   </g>
   <g id="patch_13">
    <path d="M 122.570459 312.143594 
L 129.421282 312.143594 
L 129.421282 293.036695 
L 122.570459 293.036695 
z
" clip-path="url(#p4434cef19d)" style="fill: #059669; opacity: 0.6"/>
   </g>
   <g id="patch_14">
    <path d="M 129.421282 312.143594 
L 136.272105 312.143594 
L 136.272105 279.944932 
L 129.421282 279.944932 
z
" clip-path="url(#p4434cef19d)" style="fill: #059669; opacity: 0.6"/>
   </g>
   <g id="patch_15">
    <path d="M 136.272105 312.143594 
L 143.122929 312.143594 
L 143.122929 290.913707 
L 136.272105 290.913707 
z
" clip-path="url(#p4434cef19d)" style="fill: #059669; opacity: 0.6"/>
   </g>
   <g id="patch_16">
    <path d="M 143.122929 312.143594 
L 149.973752 312.143594 
L 149.973752 276.583533 
L 143.122929 276.583533 
z
" clip-path="url(#p4434cef19d)" style="fill: #059669; opacity: 0.6"/>
   </g>
   <g id="patch_17">
    <path d="M 149.973752 312.143594 
L 156.824576 312.143594 
L 156.824576 268.976157 
L 149.973752 268.976157 
z
" clip-path="url(#p4434cef19d)" style="fill: #059669; opacity: 0.6"/>
   </g>
   <g id="patch_18">
    <path d="M 156.824576 312.143594 
L 163.675399 312.143594 
L 163.675399 274.63746 
L 156.824576 274.63746 
z
" clip-path="url(#p4434cef19d)" style="fill: #059669; opacity: 0.6"/>
   </g>
   <g id="patch_19">
    <path d="M 163.675399 312.143594 
L 170.526222 312.143594 
L 170.526222 258.007382 
L 163.675399 258.007382 
z
" clip-path="url(#p4434cef19d)" style="fill: #059669; opacity: 0.6"/>
   </g>
   <g id="patch_20">
    <path d="M 170.526222 312.143594 
L 177.377046 312.143594 
L 177.377046 224.924141 
L 170.526222 224.924141 
z
" clip-path="url(#p4434cef19d)" style="fill: #059669; opacity: 0.6"/>
   </g>
   <g id="patch_21">
    <path d="M 177.377046 312.143594 
L 184.227869 312.143594 
L 184.227869 295.3366 
L 177.377046 295.3366 
z
" clip-path="url(#p4434cef19d)" style="fill: #059669; opacity: 0.6"/>
   </g>
   <g id="patch_22">
    <path d="M 184.227869 312.143594 
L 191.078693 312.143594 
L 191.078693 176.803064 
L 184.227869 176.803064 
z
" clip-path="url(#p4434cef19d)" style="fill: #059669; opacity: 0.6"/>
   </g>
   <g id="patch_23">
    <path d="M 191.078693 312.143594 
L 197.929516 312.143594 
L 197.929516 284.013993 
L 191.078693 284.013993 
z
" clip-path="url(#p4434cef19d)" style="fill: #059669; opacity: 0.6"/>
   </g>
   <g id="patch_24">
    <path d="M 197.929516 312.143594 
L 204.780339 312.143594 
L 204.780339 287.021561 
L 197.929516 287.021561 
z
" clip-path="url(#p4434cef19d)" style="fill: #059669; opacity: 0.6"/>
   </g>
   <g id="patch_25">
    <path d="M 204.780339 312.143594 
L 211.631163 312.143594 
L 211.631163 297.282673 
L 204.780339 297.282673 
z
" clip-path="url(#p4434cef19d)" style="fill: #059669; opacity: 0.6"/>
   </g>
   <g id="patch_26">
    <path d="M 211.631163 312.143594 
L 218.481986 312.143594 
L 218.481986 267.914663 
L 211.631163 267.914663 
z
" clip-path="url(#p4434cef19d)" style="fill: #059669; opacity: 0.6"/>
   </g>
   <g id="patch_27">
    <path d="M 218.481986 312.143594 
L 225.33281 312.143594 
L 225.33281 141.419919 
L 218.481986 141.419919 
z
" clip-path="url(#p4434cef19d)" style="fill: #059669; opacity: 0.6"/>
   </g>
   <g id="patch_28">
    <path d="M 225.33281 312.143594 
L 232.183633 312.143594 
L 232.183633 287.198477 
L 225.33281 287.198477 
z
" clip-path="url(#p4434cef19d)" style="fill: #059669; opacity: 0.6"/>
   </g>
   <g id="patch_29">
    <path d="M 232.183633 312.143594 
L 239.034457 312.143594 
L 239.034457 270.214567 
L 232.183633 270.214567 
z
" clip-path="url(#p4434cef19d)" style="fill: #059669; opacity: 0.6"/>
   </g>
   <g id="patch_30">
    <path d="M 239.034457 312.143594 
L 245.88528 312.143594 
L 245.88528 295.159684 
L 239.034457 295.159684 
z
" clip-path="url(#p4434cef19d)" style="fill: #059669; opacity: 0.6"/>
   </g>
   <g id="patch_31">
    <path d="M 245.88528 312.143594 
L 252.736103 312.143594 
L 252.736103 287.729224 
L 245.88528 287.729224 
z
" clip-path="url(#p4434cef19d)" style="fill: #059669; opacity: 0.6"/>
   </g>
   <g id="patch_32">
    <path d="M 252.736103 312.143594 
L 259.586927 312.143594 
L 259.586927 218.201344 
L 252.736103 218.201344 
z
" clip-path="url(#p4434cef19d)" style="fill: #059669; opacity: 0.6"/>
   </g>
   <g id="patch_33">
    <path d="M 259.586927 312.143594 
L 266.43775 312.143594 
L 266.43775 294.628937 
L 259.586927 294.628937 
z
" clip-path="url(#p4434cef19d)" style="fill: #059669; opacity: 0.6"/>
   </g>
   <g id="patch_34">
    <path d="M 266.43775 312.143594 
L 273.288574 312.143594 
L 273.288574 294.628937 
L 266.43775 294.628937 
z
" clip-path="url(#p4434cef19d)" style="fill: #059669; opacity: 0.6"/>
   </g>
   <g id="patch_35">
    <path d="M 273.288574 312.143594 
L 280.139397 312.143594 
L 280.139397 239.077399 
L 273.288574 239.077399 
z
" clip-path="url(#p4434cef19d)" style="fill: #059669; opacity: 0.6"/>
   </g>
   <g id="patch_36">
    <path d="M 280.139397 312.143594 
L 286.99022 312.143594 
L 286.99022 267.030084 
L 280.139397 267.030084 
z
" clip-path="url(#p4434cef19d)" style="fill: #059669; opacity: 0.6"/>
   </g>
   <g id="patch_37">
    <path d="M 286.99022 312.143594 
L 293.841044 312.143594 
L 293.841044 284.013993 
L 286.99022 284.013993 
z
" clip-path="url(#p4434cef19d)" style="fill: #059669; opacity: 0.6"/>
   </g>
   <g id="patch_38">
    <path d="M 293.841044 312.143594 
L 300.691867 312.143594 
L 300.691867 275.522039 
L 293.841044 275.522039 
z
" clip-path="url(#p4434cef19d)" style="fill: #059669; opacity: 0.6"/>
   </g>
   <g id="patch_39">
    <path d="M 300.691867 312.143594 
L 307.542691 312.143594 
L 307.542691 294.452021 
L 300.691867 294.452021 
z
" clip-path="url(#p4434cef19d)" style="fill: #059669; opacity: 0.6"/>
   </g>
   <g id="patch_40">
    <path d="M 307.542691 312.143594 
L 314.393514 312.143594 
L 314.393514 293.921274 
L 307.542691 293.921274 
z
" clip-path="url(#p4434cef19d)" style="fill: #059669; opacity: 0.6"/>
   </g>
   <g id="patch_41">
    <path d="M 314.393514 312.143594 
L 321.244337 312.143594 
L 321.244337 304.890049 
L 314.393514 304.890049 
z
" clip-path="url(#p4434cef19d)" style="fill: #059669; opacity: 0.6"/>
   </g>
   <g id="patch_42">
    <path d="M 321.244337 312.143594 
L 328.095161 312.143594 
L 328.095161 269.153073 
L 321.244337 269.153073 
z
" clip-path="url(#p4434cef19d)" style="fill: #059669; opacity: 0.6"/>
   </g>
   <g id="patch_43">
    <path d="M 328.095161 312.143594 
L 334.945984 312.143594 
L 334.945984 300.113324 
L 328.095161 300.113324 
z
" clip-path="url(#p4434cef19d)" style="fill: #059669; opacity: 0.6"/>
   </g>
   <g id="patch_44">
    <path d="M 334.945984 312.143594 
L 341.796808 312.143594 
L 341.796808 273.222134 
L 334.945984 273.222134 
z
" clip-path="url(#p4434cef19d)" style="fill: #059669; opacity: 0.6"/>
   </g>
   <g id="patch_45">
    <path d="M 341.796808 312.143594 
L 348.647631 312.143594 
L 348.647631 294.275106 
L 341.796808 294.275106 
z
" clip-path="url(#p4434cef19d)" style="fill: #059669; opacity: 0.6"/>
   </g>
   <g id="patch_46">
    <path d="M 348.647631 312.143594 
L 355.498454 312.143594 
L 355.498454 296.928841 
L 348.647631 296.928841 
z
" clip-path="url(#p4434cef19d)" style="fill: #059669; opacity: 0.6"/>
   </g>
   <g id="patch_47">
    <path d="M 355.498454 312.143594 
L 362.349278 312.143594 
L 362.349278 267.030084 
L 355.498454 267.030084 
z
" clip-path="url(#p4434cef19d)" style="fill: #059669; opacity: 0.6"/>
   </g>
   <g id="patch_48">
    <path d="M 362.349278 312.143594 
L 369.200101 312.143594 
L 369.200101 284.721656 
L 362.349278 284.721656 
z
" clip-path="url(#p4434cef19d)" style="fill: #059669; opacity: 0.6"/>
   </g>
   <g id="patch_49">
    <path d="M 369.200101 312.143594 
L 376.050925 312.143594 
L 376.050925 276.052786 
L 369.200101 276.052786 
z
" clip-path="url(#p4434cef19d)" style="fill: #059669; opacity: 0.6"/>
   </g>
   <g id="patch_50">
    <path d="M 376.050925 312.143594 
L 382.901748 312.143594 
L 382.901748 281.537173 
L 376.050925 281.537173 
z
" clip-path="url(#p4434cef19d)" style="fill: #059669; opacity: 0.6"/>
   </g>
   <g id="patch_51">
    <path d="M 382.901748 312.143594 
L 389.752571 312.143594 
L 389.752571 290.559875 
L 382.901748 290.559875 
z
" clip-path="url(#p4434cef19d)" style="fill: #059669; opacity: 0.6"/>
   </g>
   <g id="patch_52">
    <path d="M 389.752571 312.143594 
L 396.603395 312.143594 
L 396.603395 80.914741 
L 389.752571 80.914741 
z
" clip-path="url(#p4434cef19d)" style="fill: #059669; opacity: 0.6"/>
   </g>
   <g id="patch_53">
    <path d="M 52.630668 312.143594 
L 59.510122 312.143594 
L 59.510122 95.953076 
L 52.630668 95.953076 
z
" clip-path="url(#p4434cef19d)" style="fill: #dc2626; opacity: 0.6"/>
   </g>
   <g id="patch_54">
    <path d="M 59.510122 312.143594 
L 66.389577 312.143594 
L 66.389577 36.448356 
L 59.510122 36.448356 
z
" clip-path="url(#p4434cef19d)" style="fill: #dc2626; opacity: 0.6"/>
   </g>
   <g id="patch_55">
    <path d="M 66.389577 312.143594 
L 73.269031 312.143594 
L 73.269031 81.899198 
L 66.389577 81.899198 
z
" clip-path="url(#p4434cef19d)" style="fill: #dc2626; opacity: 0.6"/>
   </g>
   <g id="patch_56">
    <path d="M 73.269031 312.143594 
L 80.148486 312.143594 
L 80.148486 115.987329 
L 73.269031 115.987329 
z
" clip-path="url(#p4434cef19d)" style="fill: #dc2626; opacity: 0.6"/>
   </g>
   <g id="patch_57">
    <path d="M 80.148486 312.143594 
L 87.02794 312.143594 
L 87.02794 183.266536 
L 80.148486 183.266536 
z
" clip-path="url(#p4434cef19d)" style="fill: #dc2626; opacity: 0.6"/>
   </g>
   <g id="patch_58">
    <path d="M 87.02794 312.143594 
L 93.907395 312.143594 
L 93.907395 199.712564 
L 87.02794 199.712564 
z
" clip-path="url(#p4434cef19d)" style="fill: #dc2626; opacity: 0.6"/>
   </g>
   <g id="patch_59">
    <path d="M 93.907395 312.143594 
L 100.786849 312.143594 
L 100.786849 242.173219 
L 93.907395 242.173219 
z
" clip-path="url(#p4434cef19d)" style="fill: #dc2626; opacity: 0.6"/>
   </g>
   <g id="patch_60">
    <path d="M 100.786849 312.143594 
L 107.666304 312.143594 
L 107.666304 249.050649 
L 100.786849 249.050649 
z
" clip-path="url(#p4434cef19d)" style="fill: #dc2626; opacity: 0.6"/>
   </g>
   <g id="patch_61">
    <path d="M 107.666304 312.143594 
L 114.545759 312.143594 
L 114.545759 241.8742 
L 107.666304 241.8742 
z
" clip-path="url(#p4434cef19d)" style="fill: #dc2626; opacity: 0.6"/>
   </g>
   <g id="patch_62">
    <path d="M 114.545759 312.143594 
L 121.425213 312.143594 
L 121.425213 266.991771 
L 114.545759 266.991771 
z
" clip-path="url(#p4434cef19d)" style="fill: #dc2626; opacity: 0.6"/>
   </g>
   <g id="patch_63">
    <path d="M 121.425213 312.143594 
L 128.304668 312.143594 
L 128.304668 280.746631 
L 121.425213 280.746631 
z
" clip-path="url(#p4434cef19d)" style="fill: #dc2626; opacity: 0.6"/>
   </g>
   <g id="patch_64">
    <path d="M 128.304668 312.143594 
L 135.184122 312.143594 
L 135.184122 283.13878 
L 128.304668 283.13878 
z
" clip-path="url(#p4434cef19d)" style="fill: #dc2626; opacity: 0.6"/>
   </g>
   <g id="patch_65">
    <path d="M 135.184122 312.143594 
L 142.063577 312.143594 
L 142.063577 259.217284 
L 135.184122 259.217284 
z
" clip-path="url(#p4434cef19d)" style="fill: #dc2626; opacity: 0.6"/>
   </g>
   <g id="patch_66">
    <path d="M 142.063577 312.143594 
L 148.943031 312.143594 
L 148.943031 262.805509 
L 142.063577 262.805509 
z
" clip-path="url(#p4434cef19d)" style="fill: #dc2626; opacity: 0.6"/>
   </g>
   <g id="patch_67">
    <path d="M 148.943031 312.143594 
L 155.822486 312.143594 
L 155.822486 271.477051 
L 148.943031 271.477051 
z
" clip-path="url(#p4434cef19d)" style="fill: #dc2626; opacity: 0.6"/>
   </g>
   <g id="patch_68">
    <path d="M 155.822486 312.143594 
L 162.70194 312.143594 
L 162.70194 270.280976 
L 155.822486 270.280976 
z
" clip-path="url(#p4434cef19d)" style="fill: #dc2626; opacity: 0.6"/>
   </g>
   <g id="patch_69">
    <path d="M 162.70194 312.143594 
L 169.581395 312.143594 
L 169.581395 256.825135 
L 162.70194 256.825135 
z
" clip-path="url(#p4434cef19d)" style="fill: #dc2626; opacity: 0.6"/>
   </g>
   <g id="patch_70">
    <path d="M 169.581395 312.143594 
L 176.460849 312.143594 
L 176.460849 246.359481 
L 169.581395 246.359481 
z
" clip-path="url(#p4434cef19d)" style="fill: #dc2626; opacity: 0.6"/>
   </g>
   <g id="patch_71">
    <path d="M 176.460849 312.143594 
L 183.340304 312.143594 
L 183.340304 290.913266 
L 176.460849 290.913266 
z
" clip-path="url(#p4434cef19d)" style="fill: #dc2626; opacity: 0.6"/>
   </g>
   <g id="patch_72">
    <path d="M 183.340304 312.143594 
L 190.219759 312.143594 
L 190.219759 255.62906 
L 183.340304 255.62906 
z
" clip-path="url(#p4434cef19d)" style="fill: #dc2626; opacity: 0.6"/>
   </g>
   <g id="patch_73">
    <path d="M 190.219759 312.143594 
L 197.099213 312.143594 
L 197.099213 291.810322 
L 190.219759 291.810322 
z
" clip-path="url(#p4434cef19d)" style="fill: #dc2626; opacity: 0.6"/>
   </g>
   <g id="patch_74">
    <path d="M 197.099213 312.143594 
L 203.978668 312.143594 
L 203.978668 293.903453 
L 197.099213 293.903453 
z
" clip-path="url(#p4434cef19d)" style="fill: #dc2626; opacity: 0.6"/>
   </g>
   <g id="patch_75">
    <path d="M 203.978668 312.143594 
L 210.858122 312.143594 
L 210.858122 295.697565 
L 203.978668 295.697565 
z
" clip-path="url(#p4434cef19d)" style="fill: #dc2626; opacity: 0.6"/>
   </g>
   <g id="patch_76">
    <path d="M 210.858122 312.143594 
L 217.737577 312.143594 
L 217.737577 292.40836 
L 210.858122 292.40836 
z
" clip-path="url(#p4434cef19d)" style="fill: #dc2626; opacity: 0.6"/>
   </g>
   <g id="patch_77">
    <path d="M 217.737577 312.143594 
L 224.617031 312.143594 
L 224.617031 275.065275 
L 217.737577 275.065275 
z
" clip-path="url(#p4434cef19d)" style="fill: #dc2626; opacity: 0.6"/>
   </g>
   <g id="patch_78">
    <path d="M 224.617031 312.143594 
L 231.496486 312.143594 
L 231.496486 298.388734 
L 224.617031 298.388734 
z
" clip-path="url(#p4434cef19d)" style="fill: #dc2626; opacity: 0.6"/>
   </g>
   <g id="patch_79">
    <path d="M 231.496486 312.143594 
L 238.37594 312.143594 
L 238.37594 291.810322 
L 231.496486 291.810322 
z
" clip-path="url(#p4434cef19d)" style="fill: #dc2626; opacity: 0.6"/>
   </g>
   <g id="patch_80">
    <path d="M 238.37594 312.143594 
L 245.255395 312.143594 
L 245.255395 298.388734 
L 238.37594 298.388734 
z
" clip-path="url(#p4434cef19d)" style="fill: #dc2626; opacity: 0.6"/>
   </g>
   <g id="patch_81">
    <path d="M 245.255395 312.143594 
L 252.134849 312.143594 
L 252.134849 295.996584 
L 245.255395 295.996584 
z
" clip-path="url(#p4434cef19d)" style="fill: #dc2626; opacity: 0.6"/>
   </g>
   <g id="patch_82">
    <path d="M 252.134849 312.143594 
L 259.014304 312.143594 
L 259.014304 286.128967 
L 252.134849 286.128967 
z
" clip-path="url(#p4434cef19d)" style="fill: #dc2626; opacity: 0.6"/>
   </g>
   <g id="patch_83">
    <path d="M 259.014304 312.143594 
L 265.893759 312.143594 
L 265.893759 297.790696 
L 259.014304 297.790696 
z
" clip-path="url(#p4434cef19d)" style="fill: #dc2626; opacity: 0.6"/>
   </g>
   <g id="patch_84">
    <path d="M 265.893759 312.143594 
L 272.773213 312.143594 
L 272.773213 298.388734 
L 265.893759 298.388734 
z
" clip-path="url(#p4434cef19d)" style="fill: #dc2626; opacity: 0.6"/>
   </g>
   <g id="patch_85">
    <path d="M 272.773213 312.143594 
L 279.652668 312.143594 
L 279.652668 298.687752 
L 272.773213 298.687752 
z
" clip-path="url(#p4434cef19d)" style="fill: #dc2626; opacity: 0.6"/>
   </g>
   <g id="patch_86">
    <path d="M 279.652668 312.143594 
L 286.532122 312.143594 
L 286.532122 298.986771 
L 279.652668 298.986771 
z
" clip-path="url(#p4434cef19d)" style="fill: #dc2626; opacity: 0.6"/>
   </g>
   <g id="patch_87">
    <path d="M 286.532122 312.143594 
L 293.411577 312.143594 
L 293.411577 297.192659 
L 286.532122 297.192659 
z
" clip-path="url(#p4434cef19d)" style="fill: #dc2626; opacity: 0.6"/>
   </g>
   <g id="patch_88">
    <path d="M 293.411577 312.143594 
L 300.291031 312.143594 
L 300.291031 295.697565 
L 293.411577 295.697565 
z
" clip-path="url(#p4434cef19d)" style="fill: #dc2626; opacity: 0.6"/>
   </g>
   <g id="patch_89">
    <path d="M 300.291031 312.143594 
L 307.170486 312.143594 
L 307.170486 302.574995 
L 300.291031 302.574995 
z
" clip-path="url(#p4434cef19d)" style="fill: #dc2626; opacity: 0.6"/>
   </g>
   <g id="patch_90">
    <path d="M 307.170486 312.143594 
L 314.04994 312.143594 
L 314.04994 299.28579 
L 307.170486 299.28579 
z
" clip-path="url(#p4434cef19d)" style="fill: #dc2626; opacity: 0.6"/>
   </g>
   <g id="patch_91">
    <path d="M 314.04994 312.143594 
L 320.929395 312.143594 
L 320.929395 306.16322 
L 314.04994 306.16322 
z
" clip-path="url(#p4434cef19d)" style="fill: #dc2626; opacity: 0.6"/>
   </g>
   <g id="patch_92">
    <path d="M 320.929395 312.143594 
L 327.808849 312.143594 
L 327.808849 302.874014 
L 320.929395 302.874014 
z
" clip-path="url(#p4434cef19d)" style="fill: #dc2626; opacity: 0.6"/>
   </g>
   <g id="patch_93">
    <path d="M 327.808849 312.143594 
L 334.688304 312.143594 
L 334.688304 300.780883 
L 327.808849 300.780883 
z
" clip-path="url(#p4434cef19d)" style="fill: #dc2626; opacity: 0.6"/>
   </g>
   <g id="patch_94">
    <path d="M 334.688304 312.143594 
L 341.567759 312.143594 
L 341.567759 299.28579 
L 334.688304 299.28579 
z
" clip-path="url(#p4434cef19d)" style="fill: #dc2626; opacity: 0.6"/>
   </g>
   <g id="patch_95">
    <path d="M 341.567759 312.143594 
L 348.447213 312.143594 
L 348.447213 301.677939 
L 341.567759 301.677939 
z
" clip-path="url(#p4434cef19d)" style="fill: #dc2626; opacity: 0.6"/>
   </g>
   <g id="patch_96">
    <path d="M 348.447213 312.143594 
L 355.326668 312.143594 
L 355.326668 301.976958 
L 348.447213 301.976958 
z
" clip-path="url(#p4434cef19d)" style="fill: #dc2626; opacity: 0.6"/>
   </g>
   <g id="patch_97">
    <path d="M 355.326668 312.143594 
L 362.206122 312.143594 
L 362.206122 301.677939 
L 355.326668 301.677939 
z
" clip-path="url(#p4434cef19d)" style="fill: #dc2626; opacity: 0.6"/>
   </g>
   <g id="patch_98">
    <path d="M 362.206122 312.143594 
L 369.085577 312.143594 
L 369.085577 300.780883 
L 362.206122 300.780883 
z
" clip-path="url(#p4434cef19d)" style="fill: #dc2626; opacity: 0.6"/>
   </g>
   <g id="patch_99">
    <path d="M 369.085577 312.143594 
L 375.965031 312.143594 
L 375.965031 296.89364 
L 369.085577 296.89364 
z
" clip-path="url(#p4434cef19d)" style="fill: #dc2626; opacity: 0.6"/>
   </g>
   <g id="patch_100">
    <path d="M 375.965031 312.143594 
L 382.844486 312.143594 
L 382.844486 301.677939 
L 375.965031 301.677939 
z
" clip-path="url(#p4434cef19d)" style="fill: #dc2626; opacity: 0.6"/>
   </g>
   <g id="patch_101">
    <path d="M 382.844486 312.143594 
L 389.72394 312.143594 
L 389.72394 304.369108 
L 382.844486 304.369108 
z
" clip-path="url(#p4434cef19d)" style="fill: #dc2626; opacity: 0.6"/>
   </g>
   <g id="patch_102">
    <path d="M 389.72394 312.143594 
L 396.603395 312.143594 
L 396.603395 239.482051 
L 389.72394 239.482051 
z
" clip-path="url(#p4434cef19d)" style="fill: #dc2626; opacity: 0.6"/>
   </g>
   <g id="matplotlib.axis_1">
    <g id="xtick_1">
     <g id="line2d_1">
      <defs>
       <path id="meb15192d28" d="M 0 0 
L 0 3.5 
" style="stroke: #000000; stroke-width: 0.8"/>
      </defs>
      <g>
       <use xlink:href="#meb15192d28" x="51.945703" y="312.143594" style="stroke: #000000; stroke-width: 0.8"/>
      </g>
     </g>
     <g id="text_1">
      <!-- 0.0 -->
      <g transform="translate(44.300703 327.017187) scale(0.11 -0.11)">
       <defs>
        <path id="ArialMT-30" d="M 266 2259 
Q 266 3072 433 3567 
Q 600 4063 929 4331 
Q 1259 4600 1759 4600 
Q 2128 4600 2406 4451 
Q 2684 4303 2865 4023 
Q 3047 3744 3150 3342 
Q 3253 2941 3253 2259 
Q 3253 1453 3087 958 
Q 2922 463 2592 192 
Q 2263 -78 1759 -78 
Q 1097 -78 719 397 
Q 266 969 266 2259 
z
M 844 2259 
Q 844 1131 1108 757 
Q 1372 384 1759 384 
Q 2147 384 2411 759 
Q 2675 1134 2675 2259 
Q 2675 3391 2411 3762 
Q 2147 4134 1753 4134 
Q 1366 4134 1134 3806 
Q 844 3388 844 2259 
z
" transform="scale(0.015625)"/>
        <path id="ArialMT-2e" d="M 581 0 
L 581 641 
L 1222 641 
L 1222 0 
L 581 0 
z
" transform="scale(0.015625)"/>
       </defs>
       <use xlink:href="#ArialMT-30"/>
       <use xlink:href="#ArialMT-2e" transform="translate(55.615234 0)"/>
       <use xlink:href="#ArialMT-30" transform="translate(83.398438 0)"/>
      </g>
     </g>
    </g>
    <g id="xtick_2">
     <g id="line2d_2">
      <g>
       <use xlink:href="#meb15192d28" x="120.877241" y="312.143594" style="stroke: #000000; stroke-width: 0.8"/>
      </g>
     </g>
     <g id="text_2">
      <!-- 0.2 -->
      <g transform="translate(113.232241 327.017187) scale(0.11 -0.11)">
       <defs>
        <path id="ArialMT-32" d="M 3222 541 
L 3222 0 
L 194 0 
Q 188 203 259 391 
Q 375 700 629 1000 
Q 884 1300 1366 1694 
Q 2113 2306 2375 2664 
Q 2638 3022 2638 3341 
Q 2638 3675 2398 3904 
Q 2159 4134 1775 4134 
Q 1369 4134 1125 3890 
Q 881 3647 878 3216 
L 300 3275 
Q 359 3922 746 4261 
Q 1134 4600 1788 4600 
Q 2447 4600 2831 4234 
Q 3216 3869 3216 3328 
Q 3216 3053 3103 2787 
Q 2991 2522 2730 2228 
Q 2469 1934 1863 1422 
Q 1356 997 1212 845 
Q 1069 694 975 541 
L 3222 541 
z
" transform="scale(0.015625)"/>
       </defs>
       <use xlink:href="#ArialMT-30"/>
       <use xlink:href="#ArialMT-2e" transform="translate(55.615234 0)"/>
       <use xlink:href="#ArialMT-32" transform="translate(83.398438 0)"/>
      </g>
     </g>
    </g>
    <g id="xtick_3">
     <g id="line2d_3">
      <g>
       <use xlink:href="#meb15192d28" x="189.80878" y="312.143594" style="stroke: #000000; stroke-width: 0.8"/>
      </g>
     </g>
     <g id="text_3">
      <!-- 0.4 -->
      <g transform="translate(182.16378 327.017187) scale(0.11 -0.11)">
       <defs>
        <path id="ArialMT-34" d="M 2069 0 
L 2069 1097 
L 81 1097 
L 81 1613 
L 2172 4581 
L 2631 4581 
L 2631 1613 
L 3250 1613 
L 3250 1097 
L 2631 1097 
L 2631 0 
L 2069 0 
z
M 2069 1613 
L 2069 3678 
L 634 1613 
L 2069 1613 
z
" transform="scale(0.015625)"/>
       </defs>
       <use xlink:href="#ArialMT-30"/>
       <use xlink:href="#ArialMT-2e" transform="translate(55.615234 0)"/>
       <use xlink:href="#ArialMT-34" transform="translate(83.398438 0)"/>
      </g>
     </g>
    </g>
    <g id="xtick_4">
     <g id="line2d_4">
      <g>
       <use xlink:href="#meb15192d28" x="258.740318" y="312.143594" style="stroke: #000000; stroke-width: 0.8"/>
      </g>
     </g>
     <g id="text_4">
      <!-- 0.6 -->
      <g transform="translate(251.095318 327.017187) scale(0.11 -0.11)">
       <defs>
        <path id="ArialMT-36" d="M 3184 3459 
L 2625 3416 
Q 2550 3747 2413 3897 
Q 2184 4138 1850 4138 
Q 1581 4138 1378 3988 
Q 1113 3794 959 3422 
Q 806 3050 800 2363 
Q 1003 2672 1297 2822 
Q 1591 2972 1913 2972 
Q 2475 2972 2870 2558 
Q 3266 2144 3266 1488 
Q 3266 1056 3080 686 
Q 2894 316 2569 119 
Q 2244 -78 1831 -78 
Q 1128 -78 684 439 
Q 241 956 241 2144 
Q 241 3472 731 4075 
Q 1159 4600 1884 4600 
Q 2425 4600 2770 4297 
Q 3116 3994 3184 3459 
z
M 888 1484 
Q 888 1194 1011 928 
Q 1134 663 1356 523 
Q 1578 384 1822 384 
Q 2178 384 2434 671 
Q 2691 959 2691 1453 
Q 2691 1928 2437 2201 
Q 2184 2475 1800 2475 
Q 1419 2475 1153 2201 
Q 888 1928 888 1484 
z
" transform="scale(0.015625)"/>
       </defs>
       <use xlink:href="#ArialMT-30"/>
       <use xlink:href="#ArialMT-2e" transform="translate(55.615234 0)"/>
       <use xlink:href="#ArialMT-36" transform="translate(83.398438 0)"/>
      </g>
     </g>
    </g>
    <g id="xtick_5">
     <g id="line2d_5">
      <g>
       <use xlink:href="#meb15192d28" x="327.671856" y="312.143594" style="stroke: #000000; stroke-width: 0.8"/>
      </g>
     </g>
     <g id="text_5">
      <!-- 0.8 -->
      <g transform="translate(320.026856 327.017187) scale(0.11 -0.11)">
       <defs>
        <path id="ArialMT-38" d="M 1131 2484 
Q 781 2613 612 2850 
Q 444 3088 444 3419 
Q 444 3919 803 4259 
Q 1163 4600 1759 4600 
Q 2359 4600 2725 4251 
Q 3091 3903 3091 3403 
Q 3091 3084 2923 2848 
Q 2756 2613 2416 2484 
Q 2838 2347 3058 2040 
Q 3278 1734 3278 1309 
Q 3278 722 2862 322 
Q 2447 -78 1769 -78 
Q 1091 -78 675 323 
Q 259 725 259 1325 
Q 259 1772 486 2073 
Q 713 2375 1131 2484 
z
M 1019 3438 
Q 1019 3113 1228 2906 
Q 1438 2700 1772 2700 
Q 2097 2700 2305 2904 
Q 2513 3109 2513 3406 
Q 2513 3716 2298 3927 
Q 2084 4138 1766 4138 
Q 1444 4138 1231 3931 
Q 1019 3725 1019 3438 
z
M 838 1322 
Q 838 1081 952 856 
Q 1066 631 1291 507 
Q 1516 384 1775 384 
Q 2178 384 2440 643 
Q 2703 903 2703 1303 
Q 2703 1709 2433 1975 
Q 2163 2241 1756 2241 
Q 1359 2241 1098 1978 
Q 838 1716 838 1322 
z
" transform="scale(0.015625)"/>
       </defs>
       <use xlink:href="#ArialMT-30"/>
       <use xlink:href="#ArialMT-2e" transform="translate(55.615234 0)"/>
       <use xlink:href="#ArialMT-38" transform="translate(83.398438 0)"/>
      </g>
     </g>
    </g>
    <g id="xtick_6">
     <g id="line2d_6">
      <g>
       <use xlink:href="#meb15192d28" x="396.603395" y="312.143594" style="stroke: #000000; stroke-width: 0.8"/>
      </g>
     </g>
     <g id="text_6">
      <!-- 1.0 -->
      <g transform="translate(388.958395 327.017187) scale(0.11 -0.11)">
       <defs>
        <path id="ArialMT-31" d="M 2384 0 
L 1822 0 
L 1822 3584 
Q 1619 3391 1289 3197 
Q 959 3003 697 2906 
L 697 3450 
Q 1169 3672 1522 3987 
Q 1875 4303 2022 4600 
L 2384 4600 
L 2384 0 
z
" transform="scale(0.015625)"/>
       </defs>
       <use xlink:href="#ArialMT-31"/>
       <use xlink:href="#ArialMT-2e" transform="translate(55.615234 0)"/>
       <use xlink:href="#ArialMT-30" transform="translate(83.398438 0)"/>
      </g>
     </g>
    </g>
    <g id="text_7">
     <!-- Fractional Authorship Credit (GH) -->
     <g transform="translate(135.922031 341.939062) scale(0.12 -0.12)">
      <defs>
       <path id="ArialMT-46" d="M 525 0 
L 525 4581 
L 3616 4581 
L 3616 4041 
L 1131 4041 
L 1131 2622 
L 3281 2622 
L 3281 2081 
L 1131 2081 
L 1131 0 
L 525 0 
z
" transform="scale(0.015625)"/>
       <path id="ArialMT-72" d="M 416 0 
L 416 3319 
L 922 3319 
L 922 2816 
Q 1116 3169 1280 3281 
Q 1444 3394 1641 3394 
Q 1925 3394 2219 3213 
L 2025 2691 
Q 1819 2813 1613 2813 
Q 1428 2813 1281 2702 
Q 1134 2591 1072 2394 
Q 978 2094 978 1738 
L 978 0 
L 416 0 
z
" transform="scale(0.015625)"/>
       <path id="ArialMT-61" d="M 2588 409 
Q 2275 144 1986 34 
Q 1697 -75 1366 -75 
Q 819 -75 525 192 
Q 231 459 231 875 
Q 231 1119 342 1320 
Q 453 1522 633 1644 
Q 813 1766 1038 1828 
Q 1203 1872 1538 1913 
Q 2219 1994 2541 2106 
Q 2544 2222 2544 2253 
Q 2544 2597 2384 2738 
Q 2169 2928 1744 2928 
Q 1347 2928 1158 2789 
Q 969 2650 878 2297 
L 328 2372 
Q 403 2725 575 2942 
Q 747 3159 1072 3276 
Q 1397 3394 1825 3394 
Q 2250 3394 2515 3294 
Q 2781 3194 2906 3042 
Q 3031 2891 3081 2659 
Q 3109 2516 3109 2141 
L 3109 1391 
Q 3109 606 3145 398 
Q 3181 191 3288 0 
L 2700 0 
Q 2613 175 2588 409 
z
M 2541 1666 
Q 2234 1541 1622 1453 
Q 1275 1403 1131 1340 
Q 988 1278 909 1158 
Q 831 1038 831 891 
Q 831 666 1001 516 
Q 1172 366 1500 366 
Q 1825 366 2078 508 
Q 2331 650 2450 897 
Q 2541 1088 2541 1459 
L 2541 1666 
z
" transform="scale(0.015625)"/>
       <path id="ArialMT-63" d="M 2588 1216 
L 3141 1144 
Q 3050 572 2676 248 
Q 2303 -75 1759 -75 
Q 1078 -75 664 370 
Q 250 816 250 1647 
Q 250 2184 428 2587 
Q 606 2991 970 3192 
Q 1334 3394 1763 3394 
Q 2303 3394 2647 3120 
Q 2991 2847 3088 2344 
L 2541 2259 
Q 2463 2594 2264 2762 
Q 2066 2931 1784 2931 
Q 1359 2931 1093 2626 
Q 828 2322 828 1663 
Q 828 994 1084 691 
Q 1341 388 1753 388 
Q 2084 388 2306 591 
Q 2528 794 2588 1216 
z
" transform="scale(0.015625)"/>
       <path id="ArialMT-74" d="M 1650 503 
L 1731 6 
Q 1494 -44 1306 -44 
Q 1000 -44 831 53 
Q 663 150 594 308 
Q 525 466 525 972 
L 525 2881 
L 113 2881 
L 113 3319 
L 525 3319 
L 525 4141 
L 1084 4478 
L 1084 3319 
L 1650 3319 
L 1650 2881 
L 1084 2881 
L 1084 941 
Q 1084 700 1114 631 
Q 1144 563 1211 522 
Q 1278 481 1403 481 
Q 1497 481 1650 503 
z
" transform="scale(0.015625)"/>
       <path id="ArialMT-69" d="M 425 3934 
L 425 4581 
L 988 4581 
L 988 3934 
L 425 3934 
z
M 425 0 
L 425 3319 
L 988 3319 
L 988 0 
L 425 0 
z
" transform="scale(0.015625)"/>
       <path id="ArialMT-6f" d="M 213 1659 
Q 213 2581 725 3025 
Q 1153 3394 1769 3394 
Q 2453 3394 2887 2945 
Q 3322 2497 3322 1706 
Q 3322 1066 3130 698 
Q 2938 331 2570 128 
Q 2203 -75 1769 -75 
Q 1072 -75 642 372 
Q 213 819 213 1659 
z
M 791 1659 
Q 791 1022 1069 705 
Q 1347 388 1769 388 
Q 2188 388 2466 706 
Q 2744 1025 2744 1678 
Q 2744 2294 2464 2611 
Q 2184 2928 1769 2928 
Q 1347 2928 1069 2612 
Q 791 2297 791 1659 
z
" transform="scale(0.015625)"/>
       <path id="ArialMT-6e" d="M 422 0 
L 422 3319 
L 928 3319 
L 928 2847 
Q 1294 3394 1984 3394 
Q 2284 3394 2536 3286 
Q 2788 3178 2913 3003 
Q 3038 2828 3088 2588 
Q 3119 2431 3119 2041 
L 3119 0 
L 2556 0 
L 2556 2019 
Q 2556 2363 2490 2533 
Q 2425 2703 2258 2804 
Q 2091 2906 1866 2906 
Q 1506 2906 1245 2678 
Q 984 2450 984 1813 
L 984 0 
L 422 0 
z
" transform="scale(0.015625)"/>
       <path id="ArialMT-6c" d="M 409 0 
L 409 4581 
L 972 4581 
L 972 0 
L 409 0 
z
" transform="scale(0.015625)"/>
       <path id="ArialMT-20" transform="scale(0.015625)"/>
       <path id="ArialMT-41" d="M -9 0 
L 1750 4581 
L 2403 4581 
L 4278 0 
L 3588 0 
L 3053 1388 
L 1138 1388 
L 634 0 
L -9 0 
z
M 1313 1881 
L 2866 1881 
L 2388 3150 
Q 2169 3728 2063 4100 
Q 1975 3659 1816 3225 
L 1313 1881 
z
" transform="scale(0.015625)"/>
       <path id="ArialMT-75" d="M 2597 0 
L 2597 488 
Q 2209 -75 1544 -75 
Q 1250 -75 995 37 
Q 741 150 617 320 
Q 494 491 444 738 
Q 409 903 409 1263 
L 409 3319 
L 972 3319 
L 972 1478 
Q 972 1038 1006 884 
Q 1059 663 1231 536 
Q 1403 409 1656 409 
Q 1909 409 2131 539 
Q 2353 669 2445 892 
Q 2538 1116 2538 1541 
L 2538 3319 
L 3100 3319 
L 3100 0 
L 2597 0 
z
" transform="scale(0.015625)"/>
       <path id="ArialMT-68" d="M 422 0 
L 422 4581 
L 984 4581 
L 984 2938 
Q 1378 3394 1978 3394 
Q 2347 3394 2619 3248 
Q 2891 3103 3008 2847 
Q 3125 2591 3125 2103 
L 3125 0 
L 2563 0 
L 2563 2103 
Q 2563 2525 2380 2717 
Q 2197 2909 1863 2909 
Q 1613 2909 1392 2779 
Q 1172 2650 1078 2428 
Q 984 2206 984 1816 
L 984 0 
L 422 0 
z
" transform="scale(0.015625)"/>
       <path id="ArialMT-73" d="M 197 991 
L 753 1078 
Q 800 744 1014 566 
Q 1228 388 1613 388 
Q 2000 388 2187 545 
Q 2375 703 2375 916 
Q 2375 1106 2209 1216 
Q 2094 1291 1634 1406 
Q 1016 1563 777 1677 
Q 538 1791 414 1992 
Q 291 2194 291 2438 
Q 291 2659 392 2848 
Q 494 3038 669 3163 
Q 800 3259 1026 3326 
Q 1253 3394 1513 3394 
Q 1903 3394 2198 3281 
Q 2494 3169 2634 2976 
Q 2775 2784 2828 2463 
L 2278 2388 
Q 2241 2644 2061 2787 
Q 1881 2931 1553 2931 
Q 1166 2931 1000 2803 
Q 834 2675 834 2503 
Q 834 2394 903 2306 
Q 972 2216 1119 2156 
Q 1203 2125 1616 2013 
Q 2213 1853 2448 1751 
Q 2684 1650 2818 1456 
Q 2953 1263 2953 975 
Q 2953 694 2789 445 
Q 2625 197 2315 61 
Q 2006 -75 1616 -75 
Q 969 -75 630 194 
Q 291 463 197 991 
z
" transform="scale(0.015625)"/>
       <path id="ArialMT-70" d="M 422 -1272 
L 422 3319 
L 934 3319 
L 934 2888 
Q 1116 3141 1344 3267 
Q 1572 3394 1897 3394 
Q 2322 3394 2647 3175 
Q 2972 2956 3137 2557 
Q 3303 2159 3303 1684 
Q 3303 1175 3120 767 
Q 2938 359 2589 142 
Q 2241 -75 1856 -75 
Q 1575 -75 1351 44 
Q 1128 163 984 344 
L 984 -1272 
L 422 -1272 
z
M 931 1641 
Q 931 1000 1190 694 
Q 1450 388 1819 388 
Q 2194 388 2461 705 
Q 2728 1022 2728 1688 
Q 2728 2322 2467 2637 
Q 2206 2953 1844 2953 
Q 1484 2953 1207 2617 
Q 931 2281 931 1641 
z
" transform="scale(0.015625)"/>
       <path id="ArialMT-43" d="M 3763 1606 
L 4369 1453 
Q 4178 706 3683 314 
Q 3188 -78 2472 -78 
Q 1731 -78 1267 223 
Q 803 525 561 1097 
Q 319 1669 319 2325 
Q 319 3041 592 3573 
Q 866 4106 1370 4382 
Q 1875 4659 2481 4659 
Q 3169 4659 3637 4309 
Q 4106 3959 4291 3325 
L 3694 3184 
Q 3534 3684 3231 3912 
Q 2928 4141 2469 4141 
Q 1941 4141 1586 3887 
Q 1231 3634 1087 3207 
Q 944 2781 944 2328 
Q 944 1744 1114 1308 
Q 1284 872 1643 656 
Q 2003 441 2422 441 
Q 2931 441 3284 734 
Q 3638 1028 3763 1606 
z
" transform="scale(0.015625)"/>
       <path id="ArialMT-65" d="M 2694 1069 
L 3275 997 
Q 3138 488 2766 206 
Q 2394 -75 1816 -75 
Q 1088 -75 661 373 
Q 234 822 234 1631 
Q 234 2469 665 2931 
Q 1097 3394 1784 3394 
Q 2450 3394 2872 2941 
Q 3294 2488 3294 1666 
Q 3294 1616 3291 1516 
L 816 1516 
Q 847 969 1125 678 
Q 1403 388 1819 388 
Q 2128 388 2347 550 
Q 2566 713 2694 1069 
z
M 847 1978 
L 2700 1978 
Q 2663 2397 2488 2606 
Q 2219 2931 1791 2931 
Q 1403 2931 1139 2672 
Q 875 2413 847 1978 
z
" transform="scale(0.015625)"/>
       <path id="ArialMT-64" d="M 2575 0 
L 2575 419 
Q 2259 -75 1647 -75 
Q 1250 -75 917 144 
Q 584 363 401 755 
Q 219 1147 219 1656 
Q 219 2153 384 2558 
Q 550 2963 881 3178 
Q 1213 3394 1622 3394 
Q 1922 3394 2156 3267 
Q 2391 3141 2538 2938 
L 2538 4581 
L 3097 4581 
L 3097 0 
L 2575 0 
z
M 797 1656 
Q 797 1019 1065 703 
Q 1334 388 1700 388 
Q 2069 388 2326 689 
Q 2584 991 2584 1609 
Q 2584 2291 2321 2609 
Q 2059 2928 1675 2928 
Q 1300 2928 1048 2622 
Q 797 2316 797 1656 
z
" transform="scale(0.015625)"/>
       <path id="ArialMT-28" d="M 1497 -1347 
Q 1031 -759 709 28 
Q 388 816 388 1659 
Q 388 2403 628 3084 
Q 909 3875 1497 4659 
L 1900 4659 
Q 1522 4009 1400 3731 
Q 1209 3300 1100 2831 
Q 966 2247 966 1656 
Q 966 153 1900 -1347 
L 1497 -1347 
z
" transform="scale(0.015625)"/>
       <path id="ArialMT-47" d="M 2638 1797 
L 2638 2334 
L 4578 2338 
L 4578 638 
Q 4131 281 3656 101 
Q 3181 -78 2681 -78 
Q 2006 -78 1454 211 
Q 903 500 622 1047 
Q 341 1594 341 2269 
Q 341 2938 620 3517 
Q 900 4097 1425 4378 
Q 1950 4659 2634 4659 
Q 3131 4659 3532 4498 
Q 3934 4338 4162 4050 
Q 4391 3763 4509 3300 
L 3963 3150 
Q 3859 3500 3706 3700 
Q 3553 3900 3268 4020 
Q 2984 4141 2638 4141 
Q 2222 4141 1919 4014 
Q 1616 3888 1430 3681 
Q 1244 3475 1141 3228 
Q 966 2803 966 2306 
Q 966 1694 1177 1281 
Q 1388 869 1791 669 
Q 2194 469 2647 469 
Q 3041 469 3416 620 
Q 3791 772 3984 944 
L 3984 1797 
L 2638 1797 
z
" transform="scale(0.015625)"/>
       <path id="ArialMT-48" d="M 513 0 
L 513 4581 
L 1119 4581 
L 1119 2700 
L 3500 2700 
L 3500 4581 
L 4106 4581 
L 4106 0 
L 3500 0 
L 3500 2159 
L 1119 2159 
L 1119 0 
L 513 0 
z
" transform="scale(0.015625)"/>
       <path id="ArialMT-29" d="M 791 -1347 
L 388 -1347 
Q 1322 153 1322 1656 
Q 1322 2244 1188 2822 
Q 1081 3291 891 3722 
Q 769 4003 388 4659 
L 791 4659 
Q 1378 3875 1659 3084 
Q 1900 2403 1900 1659 
Q 1900 816 1576 28 
Q 1253 -759 791 -1347 
z
" transform="scale(0.015625)"/>
      </defs>
      <use xlink:href="#ArialMT-46"/>
      <use xlink:href="#ArialMT-72" transform="translate(61.083984 0)"/>
      <use xlink:href="#ArialMT-61" transform="translate(94.384766 0)"/>
      <use xlink:href="#ArialMT-63" transform="translate(150 0)"/>
      <use xlink:href="#ArialMT-74" transform="translate(200 0)"/>
      <use xlink:href="#ArialMT-69" transform="translate(227.783203 0)"/>
      <use xlink:href="#ArialMT-6f" transform="translate(250 0)"/>
      <use xlink:href="#ArialMT-6e" transform="translate(305.615234 0)"/>
      <use xlink:href="#ArialMT-61" transform="translate(361.230469 0)"/>
      <use xlink:href="#ArialMT-6c" transform="translate(416.845703 0)"/>
      <use xlink:href="#ArialMT-20" transform="translate(439.0625 0)"/>
      <use xlink:href="#ArialMT-41" transform="translate(461.345703 0)"/>
      <use xlink:href="#ArialMT-75" transform="translate(528.044922 0)"/>
      <use xlink:href="#ArialMT-74" transform="translate(583.660156 0)"/>
      <use xlink:href="#ArialMT-68" transform="translate(611.443359 0)"/>
      <use xlink:href="#ArialMT-6f" transform="translate(667.058594 0)"/>
      <use xlink:href="#ArialMT-72" transform="translate(722.673828 0)"/>
      <use xlink:href="#ArialMT-73" transform="translate(755.974609 0)"/>
      <use xlink:href="#ArialMT-68" transform="translate(805.974609 0)"/>
      <use xlink:href="#ArialMT-69" transform="translate(861.589844 0)"/>
      <use xlink:href="#ArialMT-70" transform="translate(883.806641 0)"/>
      <use xlink:href="#ArialMT-20" transform="translate(939.421875 0)"/>
      <use xlink:href="#ArialMT-43" transform="translate(967.205078 0)"/>
      <use xlink:href="#ArialMT-72" transform="translate(1039.421875 0)"/>
      <use xlink:href="#ArialMT-65" transform="translate(1072.722656 0)"/>
      <use xlink:href="#ArialMT-64" transform="translate(1128.337891 0)"/>
      <use xlink:href="#ArialMT-69" transform="translate(1183.953125 0)"/>
      <use xlink:href="#ArialMT-74" transform="translate(1206.169922 0)"/>
      <use xlink:href="#ArialMT-20" transform="translate(1233.953125 0)"/>
      <use xlink:href="#ArialMT-28" transform="translate(1261.736328 0)"/>
      <use xlink:href="#ArialMT-47" transform="translate(1295.037109 0)"/>
      <use xlink:href="#ArialMT-48" transform="translate(1372.820312 0)"/>
      <use xlink:href="#ArialMT-29" transform="translate(1445.037109 0)"/>
     </g>
    </g>
   </g>
   <g id="matplotlib.axis_2">
    <g id="ytick_1">
     <g id="line2d_7">
      <defs>
       <path id="me803e810af" d="M 0 0 
L -3.5 0 
" style="stroke: #000000; stroke-width: 0.8"/>
      </defs>
      <g>
       <use xlink:href="#me803e810af" x="35.432031" y="312.143594" style="stroke: #000000; stroke-width: 0.8"/>
      </g>
     </g>
     <g id="text_8">
      <!-- 0 -->
      <g transform="translate(22.315 316.080391) scale(0.11 -0.11)">
       <use xlink:href="#ArialMT-30"/>
      </g>
     </g>
    </g>
    <g id="ytick_2">
     <g id="line2d_8">
      <g>
       <use xlink:href="#me803e810af" x="35.432031" y="265.225304" style="stroke: #000000; stroke-width: 0.8"/>
      </g>
     </g>
     <g id="text_9">
      <!-- 1 -->
      <g transform="translate(22.315 269.162101) scale(0.11 -0.11)">
       <use xlink:href="#ArialMT-31"/>
      </g>
     </g>
    </g>
    <g id="ytick_3">
     <g id="line2d_9">
      <g>
       <use xlink:href="#me803e810af" x="35.432031" y="218.307015" style="stroke: #000000; stroke-width: 0.8"/>
      </g>
     </g>
     <g id="text_10">
      <!-- 2 -->
      <g transform="translate(22.315 222.243812) scale(0.11 -0.11)">
       <use xlink:href="#ArialMT-32"/>
      </g>
     </g>
    </g>
    <g id="ytick_4">
     <g id="line2d_10">
      <g>
       <use xlink:href="#me803e810af" x="35.432031" y="171.388726" style="stroke: #000000; stroke-width: 0.8"/>
      </g>
     </g>
     <g id="text_11">
      <!-- 3 -->
      <g transform="translate(22.315 175.325522) scale(0.11 -0.11)">
       <defs>
        <path id="ArialMT-33" d="M 269 1209 
L 831 1284 
Q 928 806 1161 595 
Q 1394 384 1728 384 
Q 2125 384 2398 659 
Q 2672 934 2672 1341 
Q 2672 1728 2419 1979 
Q 2166 2231 1775 2231 
Q 1616 2231 1378 2169 
L 1441 2663 
Q 1497 2656 1531 2656 
Q 1891 2656 2178 2843 
Q 2466 3031 2466 3422 
Q 2466 3731 2256 3934 
Q 2047 4138 1716 4138 
Q 1388 4138 1169 3931 
Q 950 3725 888 3313 
L 325 3413 
Q 428 3978 793 4289 
Q 1159 4600 1703 4600 
Q 2078 4600 2393 4439 
Q 2709 4278 2876 4000 
Q 3044 3722 3044 3409 
Q 3044 3113 2884 2869 
Q 2725 2625 2413 2481 
Q 2819 2388 3044 2092 
Q 3269 1797 3269 1353 
Q 3269 753 2831 336 
Q 2394 -81 1725 -81 
Q 1122 -81 723 278 
Q 325 638 269 1209 
z
" transform="scale(0.015625)"/>
       </defs>
       <use xlink:href="#ArialMT-33"/>
      </g>
     </g>
    </g>
    <g id="ytick_5">
     <g id="line2d_11">
      <g>
       <use xlink:href="#me803e810af" x="35.432031" y="124.470436" style="stroke: #000000; stroke-width: 0.8"/>
      </g>
     </g>
     <g id="text_12">
      <!-- 4 -->
      <g transform="translate(22.315 128.407233) scale(0.11 -0.11)">
       <use xlink:href="#ArialMT-34"/>
      </g>
     </g>
    </g>
    <g id="ytick_6">
     <g id="line2d_12">
      <g>
       <use xlink:href="#me803e810af" x="35.432031" y="77.552147" style="stroke: #000000; stroke-width: 0.8"/>
      </g>
     </g>
     <g id="text_13">
      <!-- 5 -->
      <g transform="translate(22.315 81.488944) scale(0.11 -0.11)">
       <defs>
        <path id="ArialMT-35" d="M 266 1200 
L 856 1250 
Q 922 819 1161 601 
Q 1400 384 1738 384 
Q 2144 384 2425 690 
Q 2706 997 2706 1503 
Q 2706 1984 2436 2262 
Q 2166 2541 1728 2541 
Q 1456 2541 1237 2417 
Q 1019 2294 894 2097 
L 366 2166 
L 809 4519 
L 3088 4519 
L 3088 3981 
L 1259 3981 
L 1013 2750 
Q 1425 3038 1878 3038 
Q 2478 3038 2890 2622 
Q 3303 2206 3303 1553 
Q 3303 931 2941 478 
Q 2500 -78 1738 -78 
Q 1113 -78 717 272 
Q 322 622 266 1200 
z
" transform="scale(0.015625)"/>
       </defs>
       <use xlink:href="#ArialMT-35"/>
      </g>
     </g>
    </g>
    <g id="ytick_7">
     <g id="line2d_13">
      <g>
       <use xlink:href="#me803e810af" x="35.432031" y="30.633857" style="stroke: #000000; stroke-width: 0.8"/>
      </g>
     </g>
     <g id="text_14">
      <!-- 6 -->
      <g transform="translate(22.315 34.570654) scale(0.11 -0.11)">
       <use xlink:href="#ArialMT-36"/>
      </g>
     </g>
    </g>
    <g id="text_15">
     <!-- Density -->
     <g transform="translate(15.789375 187.409844) rotate(-90) scale(0.12 -0.12)">
      <defs>
       <path id="ArialMT-44" d="M 494 0 
L 494 4581 
L 2072 4581 
Q 2606 4581 2888 4516 
Q 3281 4425 3559 4188 
Q 3922 3881 4101 3404 
Q 4281 2928 4281 2316 
Q 4281 1794 4159 1391 
Q 4038 988 3847 723 
Q 3656 459 3429 307 
Q 3203 156 2883 78 
Q 2563 0 2147 0 
L 494 0 
z
M 1100 541 
L 2078 541 
Q 2531 541 2789 625 
Q 3047 709 3200 863 
Q 3416 1078 3536 1442 
Q 3656 1806 3656 2325 
Q 3656 3044 3420 3430 
Q 3184 3816 2847 3947 
Q 2603 4041 2063 4041 
L 1100 4041 
L 1100 541 
z
" transform="scale(0.015625)"/>
       <path id="ArialMT-79" d="M 397 -1278 
L 334 -750 
Q 519 -800 656 -800 
Q 844 -800 956 -737 
Q 1069 -675 1141 -563 
Q 1194 -478 1313 -144 
Q 1328 -97 1363 -6 
L 103 3319 
L 709 3319 
L 1400 1397 
Q 1534 1031 1641 628 
Q 1738 1016 1872 1384 
L 2581 3319 
L 3144 3319 
L 1881 -56 
Q 1678 -603 1566 -809 
Q 1416 -1088 1222 -1217 
Q 1028 -1347 759 -1347 
Q 597 -1347 397 -1278 
z
" transform="scale(0.015625)"/>
      </defs>
      <use xlink:href="#ArialMT-44"/>
      <use xlink:href="#ArialMT-65" transform="translate(72.216797 0)"/>
      <use xlink:href="#ArialMT-6e" transform="translate(127.832031 0)"/>
      <use xlink:href="#ArialMT-73" transform="translate(183.447266 0)"/>
      <use xlink:href="#ArialMT-69" transform="translate(233.447266 0)"/>
      <use xlink:href="#ArialMT-74" transform="translate(255.664062 0)"/>
      <use xlink:href="#ArialMT-79" transform="translate(283.447266 0)"/>
     </g>
    </g>
   </g>
   <g id="line2d_14">
    <path d="M 214.137558 312.143594 
L 214.137558 22.663594 
" clip-path="url(#p4434cef19d)" style="fill: none; stroke-dasharray: 7.4,3.2; stroke-dashoffset: 0; stroke: #059669; stroke-width: 2"/>
   </g>
   <g id="line2d_15">
    <path d="M 95.113565 312.143594 
L 95.113565 22.663594 
" clip-path="url(#p4434cef19d)" style="fill: none; stroke-dasharray: 7.4,3.2; stroke-dashoffset: 0; stroke: #dc2626; stroke-width: 2"/>
   </g>
   <g id="patch_103">
    <path d="M 35.432031 312.143594 
L 35.432031 22.663594 
" style="fill: none; stroke: #000000; stroke-width: 0.8; stroke-linejoin: miter; stroke-linecap: square"/>
   </g>
   <g id="patch_104">
    <path d="M 35.432031 312.143594 
L 413.802031 312.143594 
" style="fill: none; stroke: #000000; stroke-width: 0.8; stroke-linejoin: miter; stroke-linecap: square"/>
   </g>
   <g id="text_16">
    <!-- Distribution of GH Fractional Credit -->
    <g transform="translate(123.837578 16.663594) scale(0.13 -0.13)">
     <defs>
      <path id="ArialMT-62" d="M 941 0 
L 419 0 
L 419 4581 
L 981 4581 
L 981 2947 
Q 1338 3394 1891 3394 
Q 2197 3394 2470 3270 
Q 2744 3147 2920 2923 
Q 3097 2700 3197 2384 
Q 3297 2069 3297 1709 
Q 3297 856 2875 390 
Q 2453 -75 1863 -75 
Q 1275 -75 941 416 
L 941 0 
z
M 934 1684 
Q 934 1088 1097 822 
Q 1363 388 1816 388 
Q 2184 388 2453 708 
Q 2722 1028 2722 1663 
Q 2722 2313 2464 2622 
Q 2206 2931 1841 2931 
Q 1472 2931 1203 2611 
Q 934 2291 934 1684 
z
" transform="scale(0.015625)"/>
      <path id="ArialMT-66" d="M 556 0 
L 556 2881 
L 59 2881 
L 59 3319 
L 556 3319 
L 556 3672 
Q 556 4006 616 4169 
Q 697 4388 901 4523 
Q 1106 4659 1475 4659 
Q 1713 4659 2000 4603 
L 1916 4113 
Q 1741 4144 1584 4144 
Q 1328 4144 1222 4034 
Q 1116 3925 1116 3625 
L 1116 3319 
L 1763 3319 
L 1763 2881 
L 1116 2881 
L 1116 0 
L 556 0 
z
" transform="scale(0.015625)"/>
     </defs>
     <use xlink:href="#ArialMT-44"/>
     <use xlink:href="#ArialMT-69" transform="translate(72.216797 0)"/>
     <use xlink:href="#ArialMT-73" transform="translate(94.433594 0)"/>
     <use xlink:href="#ArialMT-74" transform="translate(144.433594 0)"/>
     <use xlink:href="#ArialMT-72" transform="translate(172.216797 0)"/>
     <use xlink:href="#ArialMT-69" transform="translate(205.517578 0)"/>
     <use xlink:href="#ArialMT-62" transform="translate(227.734375 0)"/>
     <use xlink:href="#ArialMT-75" transform="translate(283.349609 0)"/>
     <use xlink:href="#ArialMT-74" transform="translate(338.964844 0)"/>
     <use xlink:href="#ArialMT-69" transform="translate(366.748047 0)"/>
     <use xlink:href="#ArialMT-6f" transform="translate(388.964844 0)"/>
     <use xlink:href="#ArialMT-6e" transform="translate(444.580078 0)"/>
     <use xlink:href="#ArialMT-20" transform="translate(500.195312 0)"/>
     <use xlink:href="#ArialMT-6f" transform="translate(527.978516 0)"/>
     <use xlink:href="#ArialMT-66" transform="translate(583.59375 0)"/>
     <use xlink:href="#ArialMT-20" transform="translate(611.376953 0)"/>
     <use xlink:href="#ArialMT-47" transform="translate(639.160156 0)"/>
     <use xlink:href="#ArialMT-48" transform="translate(716.943359 0)"/>
     <use xlink:href="#ArialMT-20" transform="translate(789.160156 0)"/>
     <use xlink:href="#ArialMT-46" transform="translate(816.943359 0)"/>
     <use xlink:href="#ArialMT-72" transform="translate(878.027344 0)"/>
     <use xlink:href="#ArialMT-61" transform="translate(911.328125 0)"/>
     <use xlink:href="#ArialMT-63" transform="translate(966.943359 0)"/>
     <use xlink:href="#ArialMT-74" transform="translate(1016.943359 0)"/>
     <use xlink:href="#ArialMT-69" transform="translate(1044.726562 0)"/>
     <use xlink:href="#ArialMT-6f" transform="translate(1066.943359 0)"/>
     <use xlink:href="#ArialMT-6e" transform="translate(1122.558594 0)"/>
     <use xlink:href="#ArialMT-61" transform="translate(1178.173828 0)"/>
     <use xlink:href="#ArialMT-6c" transform="translate(1233.789062 0)"/>
     <use xlink:href="#ArialMT-20" transform="translate(1256.005859 0)"/>
     <use xlink:href="#ArialMT-43" transform="translate(1283.789062 0)"/>
     <use xlink:href="#ArialMT-72" transform="translate(1356.005859 0)"/>
     <use xlink:href="#ArialMT-65" transform="translate(1389.306641 0)"/>
     <use xlink:href="#ArialMT-64" transform="translate(1444.921875 0)"/>
     <use xlink:href="#ArialMT-69" transform="translate(1500.537109 0)"/>
     <use xlink:href="#ArialMT-74" transform="translate(1522.753906 0)"/>
    </g>
   </g>
   <g id="legend_1">
    <g id="patch_105">
     <path d="M 323.8375 62.583281 
L 406.102031 62.583281 
Q 408.302031 62.583281 408.302031 60.383281 
L 408.302031 30.363594 
Q 408.302031 28.163594 406.102031 28.163594 
L 323.8375 28.163594 
Q 321.6375 28.163594 321.6375 30.363594 
L 321.6375 60.383281 
Q 321.6375 62.583281 323.8375 62.583281 
z
" style="fill: #ffffff; opacity: 0.8; stroke: #cccccc; stroke-linejoin: miter"/>
    </g>
    <g id="patch_106">
     <path d="M 326.0375 40.437187 
L 348.0375 40.437187 
L 348.0375 32.737187 
L 326.0375 32.737187 
z
" style="fill: #059669; opacity: 0.6"/>
    </g>
    <g id="text_17">
     <!-- Bilateral -->
     <g transform="translate(356.8375 40.437187) scale(0.11 -0.11)">
      <defs>
       <path id="ArialMT-42" d="M 469 0 
L 469 4581 
L 2188 4581 
Q 2713 4581 3030 4442 
Q 3347 4303 3526 4014 
Q 3706 3725 3706 3409 
Q 3706 3116 3547 2856 
Q 3388 2597 3066 2438 
Q 3481 2316 3704 2022 
Q 3928 1728 3928 1328 
Q 3928 1006 3792 729 
Q 3656 453 3456 303 
Q 3256 153 2954 76 
Q 2653 0 2216 0 
L 469 0 
z
M 1075 2656 
L 2066 2656 
Q 2469 2656 2644 2709 
Q 2875 2778 2992 2937 
Q 3109 3097 3109 3338 
Q 3109 3566 3000 3739 
Q 2891 3913 2687 3977 
Q 2484 4041 1991 4041 
L 1075 4041 
L 1075 2656 
z
M 1075 541 
L 2216 541 
Q 2509 541 2628 563 
Q 2838 600 2978 687 
Q 3119 775 3209 942 
Q 3300 1109 3300 1328 
Q 3300 1584 3169 1773 
Q 3038 1963 2805 2039 
Q 2572 2116 2134 2116 
L 1075 2116 
L 1075 541 
z
" transform="scale(0.015625)"/>
      </defs>
      <use xlink:href="#ArialMT-42"/>
      <use xlink:href="#ArialMT-69" transform="translate(66.699219 0)"/>
      <use xlink:href="#ArialMT-6c" transform="translate(88.916016 0)"/>
      <use xlink:href="#ArialMT-61" transform="translate(111.132812 0)"/>
      <use xlink:href="#ArialMT-74" transform="translate(166.748047 0)"/>
      <use xlink:href="#ArialMT-65" transform="translate(194.53125 0)"/>
      <use xlink:href="#ArialMT-72" transform="translate(250.146484 0)"/>
      <use xlink:href="#ArialMT-61" transform="translate(283.447266 0)"/>
      <use xlink:href="#ArialMT-6c" transform="translate(339.0625 0)"/>
     </g>
    </g>
    <g id="patch_107">
     <path d="M 326.0375 55.997031 
L 348.0375 55.997031 
L 348.0375 48.297031 
L 326.0375 48.297031 
z
" style="fill: #dc2626; opacity: 0.6"/>
    </g>
    <g id="text_18">
     <!-- Multi-bloc -->
     <g transform="translate(356.8375 55.997031) scale(0.11 -0.11)">
      <defs>
       <path id="ArialMT-4d" d="M 475 0 
L 475 4581 
L 1388 4581 
L 2472 1338 
Q 2622 884 2691 659 
Q 2769 909 2934 1394 
L 4031 4581 
L 4847 4581 
L 4847 0 
L 4263 0 
L 4263 3834 
L 2931 0 
L 2384 0 
L 1059 3900 
L 1059 0 
L 475 0 
z
" transform="scale(0.015625)"/>
       <path id="ArialMT-2d" d="M 203 1375 
L 203 1941 
L 1931 1941 
L 1931 1375 
L 203 1375 
z
" transform="scale(0.015625)"/>
      </defs>
      <use xlink:href="#ArialMT-4d"/>
      <use xlink:href="#ArialMT-75" transform="translate(83.300781 0)"/>
      <use xlink:href="#ArialMT-6c" transform="translate(138.916016 0)"/>
      <use xlink:href="#ArialMT-74" transform="translate(161.132812 0)"/>
      <use xlink:href="#ArialMT-69" transform="translate(188.916016 0)"/>
      <use xlink:href="#ArialMT-2d" transform="translate(211.132812 0)"/>
      <use xlink:href="#ArialMT-62" transform="translate(244.433594 0)"/>
      <use xlink:href="#ArialMT-6c" transform="translate(300.048828 0)"/>
      <use xlink:href="#ArialMT-6f" transform="translate(322.265625 0)"/>
      <use xlink:href="#ArialMT-63" transform="translate(377.880859 0)"/>
     </g>
    </g>
   </g>
  </g>
  <g id="axes_2">
   <g id="patch_108">
    <path d="M 469.142031 312.143594 
L 847.512031 312.143594 
L 847.512031 22.663594 
L 469.142031 22.663594 
z
" style="fill: #ffffff"/>
   </g>
   <g id="matplotlib.axis_3">
    <g id="xtick_7">
     <g id="line2d_16">
      <g>
       <use xlink:href="#meb15192d28" x="486.340668" y="312.143594" style="stroke: #000000; stroke-width: 0.8"/>
      </g>
     </g>
     <g id="text_19">
      <!-- 2000 -->
      <g transform="translate(474.106605 327.017187) scale(0.11 -0.11)">
       <use xlink:href="#ArialMT-32"/>
       <use xlink:href="#ArialMT-30" transform="translate(55.615234 0)"/>
       <use xlink:href="#ArialMT-30" transform="translate(111.230469 0)"/>
       <use xlink:href="#ArialMT-30" transform="translate(166.845703 0)"/>
      </g>
     </g>
    </g>
    <g id="xtick_8">
     <g id="line2d_17">
      <g>
       <use xlink:href="#meb15192d28" x="555.135213" y="312.143594" style="stroke: #000000; stroke-width: 0.8"/>
      </g>
     </g>
     <g id="text_20">
      <!-- 2005 -->
      <g transform="translate(542.901151 327.017187) scale(0.11 -0.11)">
       <use xlink:href="#ArialMT-32"/>
       <use xlink:href="#ArialMT-30" transform="translate(55.615234 0)"/>
       <use xlink:href="#ArialMT-30" transform="translate(111.230469 0)"/>
       <use xlink:href="#ArialMT-35" transform="translate(166.845703 0)"/>
      </g>
     </g>
    </g>
    <g id="xtick_9">
     <g id="line2d_18">
      <g>
       <use xlink:href="#meb15192d28" x="623.929759" y="312.143594" style="stroke: #000000; stroke-width: 0.8"/>
      </g>
     </g>
     <g id="text_21">
      <!-- 2010 -->
      <g transform="translate(611.695696 327.017187) scale(0.11 -0.11)">
       <use xlink:href="#ArialMT-32"/>
       <use xlink:href="#ArialMT-30" transform="translate(55.615234 0)"/>
       <use xlink:href="#ArialMT-31" transform="translate(111.230469 0)"/>
       <use xlink:href="#ArialMT-30" transform="translate(166.845703 0)"/>
      </g>
     </g>
    </g>
    <g id="xtick_10">
     <g id="line2d_19">
      <g>
       <use xlink:href="#meb15192d28" x="692.724304" y="312.143594" style="stroke: #000000; stroke-width: 0.8"/>
      </g>
     </g>
     <g id="text_22">
      <!-- 2015 -->
      <g transform="translate(680.490241 327.017187) scale(0.11 -0.11)">
       <use xlink:href="#ArialMT-32"/>
       <use xlink:href="#ArialMT-30" transform="translate(55.615234 0)"/>
       <use xlink:href="#ArialMT-31" transform="translate(111.230469 0)"/>
       <use xlink:href="#ArialMT-35" transform="translate(166.845703 0)"/>
      </g>
     </g>
    </g>
    <g id="xtick_11">
     <g id="line2d_20">
      <g>
       <use xlink:href="#meb15192d28" x="761.518849" y="312.143594" style="stroke: #000000; stroke-width: 0.8"/>
      </g>
     </g>
     <g id="text_23">
      <!-- 2020 -->
      <g transform="translate(749.284787 327.017187) scale(0.11 -0.11)">
       <use xlink:href="#ArialMT-32"/>
       <use xlink:href="#ArialMT-30" transform="translate(55.615234 0)"/>
       <use xlink:href="#ArialMT-32" transform="translate(111.230469 0)"/>
       <use xlink:href="#ArialMT-30" transform="translate(166.845703 0)"/>
      </g>
     </g>
    </g>
    <g id="xtick_12">
     <g id="line2d_21">
      <g>
       <use xlink:href="#meb15192d28" x="830.313395" y="312.143594" style="stroke: #000000; stroke-width: 0.8"/>
      </g>
     </g>
     <g id="text_24">
      <!-- 2025 -->
      <g transform="translate(818.079332 327.017187) scale(0.11 -0.11)">
       <use xlink:href="#ArialMT-32"/>
       <use xlink:href="#ArialMT-30" transform="translate(55.615234 0)"/>
       <use xlink:href="#ArialMT-32" transform="translate(111.230469 0)"/>
       <use xlink:href="#ArialMT-35" transform="translate(166.845703 0)"/>
      </g>
     </g>
    </g>
    <g id="text_25">
     <!-- Year -->
     <g transform="translate(646.201406 341.792812) scale(0.12 -0.12)">
      <defs>
       <path id="ArialMT-59" d="M 1784 0 
L 1784 1941 
L 19 4581 
L 756 4581 
L 1659 3200 
Q 1909 2813 2125 2425 
Q 2331 2784 2625 3234 
L 3513 4581 
L 4219 4581 
L 2391 1941 
L 2391 0 
L 1784 0 
z
" transform="scale(0.015625)"/>
      </defs>
      <use xlink:href="#ArialMT-59"/>
      <use xlink:href="#ArialMT-65" transform="translate(57.574219 0)"/>
      <use xlink:href="#ArialMT-61" transform="translate(113.189453 0)"/>
      <use xlink:href="#ArialMT-72" transform="translate(168.804688 0)"/>
     </g>
    </g>
   </g>
   <g id="matplotlib.axis_4">
    <g id="ytick_8">
     <g id="line2d_22">
      <g>
       <use xlink:href="#me803e810af" x="469.142031" y="310.383327" style="stroke: #000000; stroke-width: 0.8"/>
      </g>
     </g>
     <g id="text_26">
      <!-- 0.36 -->
      <g transform="translate(440.735 314.320124) scale(0.11 -0.11)">
       <use xlink:href="#ArialMT-30"/>
       <use xlink:href="#ArialMT-2e" transform="translate(55.615234 0)"/>
       <use xlink:href="#ArialMT-33" transform="translate(83.398438 0)"/>
       <use xlink:href="#ArialMT-36" transform="translate(139.013672 0)"/>
      </g>
     </g>
    </g>
    <g id="ytick_9">
     <g id="line2d_23">
      <g>
       <use xlink:href="#me803e810af" x="469.142031" y="265.368192" style="stroke: #000000; stroke-width: 0.8"/>
      </g>
     </g>
     <g id="text_27">
      <!-- 0.38 -->
      <g transform="translate(440.735 269.304989) scale(0.11 -0.11)">
       <use xlink:href="#ArialMT-30"/>
       <use xlink:href="#ArialMT-2e" transform="translate(55.615234 0)"/>
       <use xlink:href="#ArialMT-33" transform="translate(83.398438 0)"/>
       <use xlink:href="#ArialMT-38" transform="translate(139.013672 0)"/>
      </g>
     </g>
    </g>
    <g id="ytick_10">
     <g id="line2d_24">
      <g>
       <use xlink:href="#me803e810af" x="469.142031" y="220.353057" style="stroke: #000000; stroke-width: 0.8"/>
      </g>
     </g>
     <g id="text_28">
      <!-- 0.40 -->
      <g transform="translate(440.735 224.289854) scale(0.11 -0.11)">
       <use xlink:href="#ArialMT-30"/>
       <use xlink:href="#ArialMT-2e" transform="translate(55.615234 0)"/>
       <use xlink:href="#ArialMT-34" transform="translate(83.398438 0)"/>
       <use xlink:href="#ArialMT-30" transform="translate(139.013672 0)"/>
      </g>
     </g>
    </g>
    <g id="ytick_11">
     <g id="line2d_25">
      <g>
       <use xlink:href="#me803e810af" x="469.142031" y="175.337922" style="stroke: #000000; stroke-width: 0.8"/>
      </g>
     </g>
     <g id="text_29">
      <!-- 0.42 -->
      <g transform="translate(440.735 179.274719) scale(0.11 -0.11)">
       <use xlink:href="#ArialMT-30"/>
       <use xlink:href="#ArialMT-2e" transform="translate(55.615234 0)"/>
       <use xlink:href="#ArialMT-34" transform="translate(83.398438 0)"/>
       <use xlink:href="#ArialMT-32" transform="translate(139.013672 0)"/>
      </g>
     </g>
    </g>
    <g id="ytick_12">
     <g id="line2d_26">
      <g>
       <use xlink:href="#me803e810af" x="469.142031" y="130.322787" style="stroke: #000000; stroke-width: 0.8"/>
      </g>
     </g>
     <g id="text_30">
      <!-- 0.44 -->
      <g transform="translate(440.735 134.259584) scale(0.11 -0.11)">
       <use xlink:href="#ArialMT-30"/>
       <use xlink:href="#ArialMT-2e" transform="translate(55.615234 0)"/>
       <use xlink:href="#ArialMT-34" transform="translate(83.398438 0)"/>
       <use xlink:href="#ArialMT-34" transform="translate(139.013672 0)"/>
      </g>
     </g>
    </g>
    <g id="ytick_13">
     <g id="line2d_27">
      <g>
       <use xlink:href="#me803e810af" x="469.142031" y="85.307652" style="stroke: #000000; stroke-width: 0.8"/>
      </g>
     </g>
     <g id="text_31">
      <!-- 0.46 -->
      <g transform="translate(440.735 89.244449) scale(0.11 -0.11)">
       <use xlink:href="#ArialMT-30"/>
       <use xlink:href="#ArialMT-2e" transform="translate(55.615234 0)"/>
       <use xlink:href="#ArialMT-34" transform="translate(83.398438 0)"/>
       <use xlink:href="#ArialMT-36" transform="translate(139.013672 0)"/>
      </g>
     </g>
    </g>
    <g id="ytick_14">
     <g id="line2d_28">
      <g>
       <use xlink:href="#me803e810af" x="469.142031" y="40.292517" style="stroke: #000000; stroke-width: 0.8"/>
      </g>
     </g>
     <g id="text_32">
      <!-- 0.48 -->
      <g transform="translate(440.735 44.229313) scale(0.11 -0.11)">
       <use xlink:href="#ArialMT-30"/>
       <use xlink:href="#ArialMT-2e" transform="translate(55.615234 0)"/>
       <use xlink:href="#ArialMT-34" transform="translate(83.398438 0)"/>
       <use xlink:href="#ArialMT-38" transform="translate(139.013672 0)"/>
      </g>
     </g>
    </g>
    <g id="text_33">
     <!-- Mean Fractional Credit (GH) -->
     <g transform="translate(434.209375 242.753281) rotate(-90) scale(0.12 -0.12)">
      <use xlink:href="#ArialMT-4d"/>
      <use xlink:href="#ArialMT-65" transform="translate(83.300781 0)"/>
      <use xlink:href="#ArialMT-61" transform="translate(138.916016 0)"/>
      <use xlink:href="#ArialMT-6e" transform="translate(194.53125 0)"/>
      <use xlink:href="#ArialMT-20" transform="translate(250.146484 0)"/>
      <use xlink:href="#ArialMT-46" transform="translate(277.929688 0)"/>
      <use xlink:href="#ArialMT-72" transform="translate(339.013672 0)"/>
      <use xlink:href="#ArialMT-61" transform="translate(372.314453 0)"/>
      <use xlink:href="#ArialMT-63" transform="translate(427.929688 0)"/>
      <use xlink:href="#ArialMT-74" transform="translate(477.929688 0)"/>
      <use xlink:href="#ArialMT-69" transform="translate(505.712891 0)"/>
      <use xlink:href="#ArialMT-6f" transform="translate(527.929688 0)"/>
      <use xlink:href="#ArialMT-6e" transform="translate(583.544922 0)"/>
      <use xlink:href="#ArialMT-61" transform="translate(639.160156 0)"/>
      <use xlink:href="#ArialMT-6c" transform="translate(694.775391 0)"/>
      <use xlink:href="#ArialMT-20" transform="translate(716.992188 0)"/>
      <use xlink:href="#ArialMT-43" transform="translate(744.775391 0)"/>
      <use xlink:href="#ArialMT-72" transform="translate(816.992188 0)"/>
      <use xlink:href="#ArialMT-65" transform="translate(850.292969 0)"/>
      <use xlink:href="#ArialMT-64" transform="translate(905.908203 0)"/>
      <use xlink:href="#ArialMT-69" transform="translate(961.523438 0)"/>
      <use xlink:href="#ArialMT-74" transform="translate(983.740234 0)"/>
      <use xlink:href="#ArialMT-20" transform="translate(1011.523438 0)"/>
      <use xlink:href="#ArialMT-28" transform="translate(1039.306641 0)"/>
      <use xlink:href="#ArialMT-47" transform="translate(1072.607422 0)"/>
      <use xlink:href="#ArialMT-48" transform="translate(1150.390625 0)"/>
      <use xlink:href="#ArialMT-29" transform="translate(1222.607422 0)"/>
     </g>
    </g>
   </g>
   <g id="line2d_29">
    <path d="M 486.340668 117.879048 
L 500.099577 184.745055 
L 513.858486 178.11788 
L 527.617395 35.821776 
L 541.376304 180.86165 
L 555.135213 285.577454 
L 568.894122 179.064588 
L 582.653031 242.169015 
L 596.41194 218.655018 
L 610.170849 233.88539 
L 623.929759 298.985412 
L 637.688668 225.621647 
L 651.447577 264.841581 
L 665.206486 275.837995 
L 678.965395 190.416133 
L 692.724304 250.279185 
L 706.483213 236.435339 
L 720.242122 268.705345 
L 734.001031 254.201605 
L 747.75994 200.189123 
L 761.518849 204.762732 
L 775.277759 242.990138 
L 789.036668 254.017909 
L 802.795577 193.177934 
L 816.554486 217.43676 
L 830.313395 240.695946 
" clip-path="url(#pe436efe3d1)" style="fill: none; stroke: #2563eb; stroke-width: 1.5; stroke-linecap: square"/>
    <defs>
     <path id="m8804386235" d="M 0 2 
C 0.530406 2 1.03916 1.789267 1.414214 1.414214 
C 1.789267 1.03916 2 0.530406 2 0 
C 2 -0.530406 1.789267 -1.03916 1.414214 -1.414214 
C 1.03916 -1.789267 0.530406 -2 0 -2 
C -0.530406 -2 -1.03916 -1.789267 -1.414214 -1.414214 
C -1.789267 -1.03916 -2 -0.530406 -2 0 
C -2 0.530406 -1.789267 1.03916 -1.414214 1.414214 
C -1.03916 1.789267 -0.530406 2 0 2 
z
" style="stroke: #2563eb"/>
    </defs>
    <g clip-path="url(#pe436efe3d1)">
     <use xlink:href="#m8804386235" x="486.340668" y="117.879048" style="fill: #2563eb; stroke: #2563eb"/>
     <use xlink:href="#m8804386235" x="500.099577" y="184.745055" style="fill: #2563eb; stroke: #2563eb"/>
     <use xlink:href="#m8804386235" x="513.858486" y="178.11788" style="fill: #2563eb; stroke: #2563eb"/>
     <use xlink:href="#m8804386235" x="527.617395" y="35.821776" style="fill: #2563eb; stroke: #2563eb"/>
     <use xlink:href="#m8804386235" x="541.376304" y="180.86165" style="fill: #2563eb; stroke: #2563eb"/>
     <use xlink:href="#m8804386235" x="555.135213" y="285.577454" style="fill: #2563eb; stroke: #2563eb"/>
     <use xlink:href="#m8804386235" x="568.894122" y="179.064588" style="fill: #2563eb; stroke: #2563eb"/>
     <use xlink:href="#m8804386235" x="582.653031" y="242.169015" style="fill: #2563eb; stroke: #2563eb"/>
     <use xlink:href="#m8804386235" x="596.41194" y="218.655018" style="fill: #2563eb; stroke: #2563eb"/>
     <use xlink:href="#m8804386235" x="610.170849" y="233.88539" style="fill: #2563eb; stroke: #2563eb"/>
     <use xlink:href="#m8804386235" x="623.929759" y="298.985412" style="fill: #2563eb; stroke: #2563eb"/>
     <use xlink:href="#m8804386235" x="637.688668" y="225.621647" style="fill: #2563eb; stroke: #2563eb"/>
     <use xlink:href="#m8804386235" x="651.447577" y="264.841581" style="fill: #2563eb; stroke: #2563eb"/>
     <use xlink:href="#m8804386235" x="665.206486" y="275.837995" style="fill: #2563eb; stroke: #2563eb"/>
     <use xlink:href="#m8804386235" x="678.965395" y="190.416133" style="fill: #2563eb; stroke: #2563eb"/>
     <use xlink:href="#m8804386235" x="692.724304" y="250.279185" style="fill: #2563eb; stroke: #2563eb"/>
     <use xlink:href="#m8804386235" x="706.483213" y="236.435339" style="fill: #2563eb; stroke: #2563eb"/>
     <use xlink:href="#m8804386235" x="720.242122" y="268.705345" style="fill: #2563eb; stroke: #2563eb"/>
     <use xlink:href="#m8804386235" x="734.001031" y="254.201605" style="fill: #2563eb; stroke: #2563eb"/>
     <use xlink:href="#m8804386235" x="747.75994" y="200.189123" style="fill: #2563eb; stroke: #2563eb"/>
     <use xlink:href="#m8804386235" x="761.518849" y="204.762732" style="fill: #2563eb; stroke: #2563eb"/>
     <use xlink:href="#m8804386235" x="775.277759" y="242.990138" style="fill: #2563eb; stroke: #2563eb"/>
     <use xlink:href="#m8804386235" x="789.036668" y="254.017909" style="fill: #2563eb; stroke: #2563eb"/>
     <use xlink:href="#m8804386235" x="802.795577" y="193.177934" style="fill: #2563eb; stroke: #2563eb"/>
     <use xlink:href="#m8804386235" x="816.554486" y="217.43676" style="fill: #2563eb; stroke: #2563eb"/>
     <use xlink:href="#m8804386235" x="830.313395" y="240.695946" style="fill: #2563eb; stroke: #2563eb"/>
    </g>
   </g>
   <g id="patch_109">
    <path d="M 469.142031 312.143594 
L 469.142031 22.663594 
" style="fill: none; stroke: #000000; stroke-width: 0.8; stroke-linejoin: miter; stroke-linecap: square"/>
   </g>
   <g id="patch_110">
    <path d="M 469.142031 312.143594 
L 847.512031 312.143594 
" style="fill: none; stroke: #000000; stroke-width: 0.8; stroke-linejoin: miter; stroke-linecap: square"/>
   </g>
   <g id="text_34">
    <!-- Temporal Trend in GH Fractional Credit -->
    <g transform="translate(545.265625 16.663594) scale(0.13 -0.13)">
     <defs>
      <path id="ArialMT-54" d="M 1659 0 
L 1659 4041 
L 150 4041 
L 150 4581 
L 3781 4581 
L 3781 4041 
L 2266 4041 
L 2266 0 
L 1659 0 
z
" transform="scale(0.015625)"/>
      <path id="ArialMT-6d" d="M 422 0 
L 422 3319 
L 925 3319 
L 925 2853 
Q 1081 3097 1340 3245 
Q 1600 3394 1931 3394 
Q 2300 3394 2536 3241 
Q 2772 3088 2869 2813 
Q 3263 3394 3894 3394 
Q 4388 3394 4653 3120 
Q 4919 2847 4919 2278 
L 4919 0 
L 4359 0 
L 4359 2091 
Q 4359 2428 4304 2576 
Q 4250 2725 4106 2815 
Q 3963 2906 3769 2906 
Q 3419 2906 3187 2673 
Q 2956 2441 2956 1928 
L 2956 0 
L 2394 0 
L 2394 2156 
Q 2394 2531 2256 2718 
Q 2119 2906 1806 2906 
Q 1569 2906 1367 2781 
Q 1166 2656 1075 2415 
Q 984 2175 984 1722 
L 984 0 
L 422 0 
z
" transform="scale(0.015625)"/>
     </defs>
     <use xlink:href="#ArialMT-54"/>
     <use xlink:href="#ArialMT-65" transform="translate(49.958984 0)"/>
     <use xlink:href="#ArialMT-6d" transform="translate(105.574219 0)"/>
     <use xlink:href="#ArialMT-70" transform="translate(188.875 0)"/>
     <use xlink:href="#ArialMT-6f" transform="translate(244.490234 0)"/>
     <use xlink:href="#ArialMT-72" transform="translate(300.105469 0)"/>
     <use xlink:href="#ArialMT-61" transform="translate(333.40625 0)"/>
     <use xlink:href="#ArialMT-6c" transform="translate(389.021484 0)"/>
     <use xlink:href="#ArialMT-20" transform="translate(411.238281 0)"/>
     <use xlink:href="#ArialMT-54" transform="translate(437.271484 0)"/>
     <use xlink:href="#ArialMT-72" transform="translate(494.605469 0)"/>
     <use xlink:href="#ArialMT-65" transform="translate(527.90625 0)"/>
     <use xlink:href="#ArialMT-6e" transform="translate(583.521484 0)"/>
     <use xlink:href="#ArialMT-64" transform="translate(639.136719 0)"/>
     <use xlink:href="#ArialMT-20" transform="translate(694.751953 0)"/>
     <use xlink:href="#ArialMT-69" transform="translate(722.535156 0)"/>
     <use xlink:href="#ArialMT-6e" transform="translate(744.751953 0)"/>
     <use xlink:href="#ArialMT-20" transform="translate(800.367188 0)"/>
     <use xlink:href="#ArialMT-47" transform="translate(828.150391 0)"/>
     <use xlink:href="#ArialMT-48" transform="translate(905.933594 0)"/>
     <use xlink:href="#ArialMT-20" transform="translate(978.150391 0)"/>
     <use xlink:href="#ArialMT-46" transform="translate(1005.933594 0)"/>
     <use xlink:href="#ArialMT-72" transform="translate(1067.017578 0)"/>
     <use xlink:href="#ArialMT-61" transform="translate(1100.318359 0)"/>
     <use xlink:href="#ArialMT-63" transform="translate(1155.933594 0)"/>
     <use xlink:href="#ArialMT-74" transform="translate(1205.933594 0)"/>
     <use xlink:href="#ArialMT-69" transform="translate(1233.716797 0)"/>
     <use xlink:href="#ArialMT-6f" transform="translate(1255.933594 0)"/>
     <use xlink:href="#ArialMT-6e" transform="translate(1311.548828 0)"/>
     <use xlink:href="#ArialMT-61" transform="translate(1367.164062 0)"/>
     <use xlink:href="#ArialMT-6c" transform="translate(1422.779297 0)"/>
     <use xlink:href="#ArialMT-20" transform="translate(1444.996094 0)"/>
     <use xlink:href="#ArialMT-43" transform="translate(1472.779297 0)"/>
     <use xlink:href="#ArialMT-72" transform="translate(1544.996094 0)"/>
     <use xlink:href="#ArialMT-65" transform="translate(1578.296875 0)"/>
     <use xlink:href="#ArialMT-64" transform="translate(1633.912109 0)"/>
     <use xlink:href="#ArialMT-69" transform="translate(1689.527344 0)"/>
     <use xlink:href="#ArialMT-74" transform="translate(1711.744141 0)"/>
    </g>
   </g>
  </g>
 </g>
 <defs>
  <clipPath id="p4434cef19d">
   <rect x="35.432031" y="22.663594" width="378.37" height="289.48"/>
  </clipPath>
  <clipPath id="pe436efe3d1">
   <rect x="469.142031" y="22.663594" width="378.37" height="289.48"/>
  </clipPath>
 </defs>
</svg>
