<?xml version="1.0" encoding="utf-8" standalone="no"?>
<!DOCTYPE svg PUBLIC "-//W3C//DTD SVG 1.1//EN"
  "http://www.w3.org/Graphics/SVG/1.1/DTD/svg11.dtd">
<svg xmlns:xlink="http://www.w3.org/1999/xlink" width="460.8pt" height="307.063594pt" viewBox="0 0 460.8 307.063594" xmlns="http://www.w3.org/2000/svg" version="1.1">
 <metadata>
  <rdf:RDF xmlns:dc="http://purl.org/dc/elements/1.1/" xmlns:cc="http://creativecommons.org/ns#" xmlns:rdf="http://www.w3.org/1999/02/22-rdf-syntax-ns#">
   <cc:Work>
    <dc:type rdf:resource="http://purl.org/dc/dcmitype/StillImage"/>
    <dc:date>2026-04-13T22:31:34.217512</dc:date>
    <dc:format>image/svg+xml</dc:format>
    <dc:creator>
     <cc:Agent>
      <dc:title>Matplotlib v3.10.8, https://matplotlib.org/</dc:title>
     </cc:Agent>
    </dc:creator>
   </cc:Work>
  </rdf:RDF>
 </metadata>
 <defs>
  <style type="text/css">*{stroke-linejoin: round; stroke-linecap: butt}</style>
 </defs>
 <g id="figure_1">
  <g id="patch_1">
   <path d="M 0 307.063594 
L 460.8 307.063594 
L 460.8 0 
L 0 0 
z
" style="fill: #ffffff"/>
  </g>
  <g id="axes_1">
   <g id="patch_2">
    <path d="M 42.912 184.363594 
L 150.048 184.363594 
L 150.048 138.163594 
L 42.912 138.163594 
z
" clip-path="url(#p00388d30d2)" style="fill: #f0f4ff; stroke: #1e40af; stroke-width: 1.5; stroke-linejoin: miter"/>
   </g>
   <g id="patch_3">
    <path d="M 310.752 184.363594 
L 417.888 184.363594 
L 417.888 138.163594 
L 310.752 138.163594 
z
" clip-path="url(#p00388d30d2)" style="fill: #f0f4ff; stroke: #1e40af; stroke-width: 1.5; stroke-linejoin: miter"/>
   </g>
   <g id="patch_4">
    <path d="M 176.832 68.863594 
L 283.968 68.863594 
L 283.968 22.663594 
L 176.832 22.663594 
z
" clip-path="url(#p00388d30d2)" style="fill: #f0f4ff; stroke: #1e40af; stroke-width: 1.5; stroke-linejoin: miter"/>
   </g>
   <g id="text_1">
    <!-- Multi-bloc -->
    <g transform="translate(72.876094 158.574375) scale(0.1 -0.1)">
     <defs>
      <path id="Arial-BoldMT-4d" d="M 453 0 
L 453 4581 
L 1838 4581 
L 2669 1456 
L 3491 4581 
L 4878 4581 
L 4878 0 
L 4019 0 
L 4019 3606 
L 3109 0 
L 2219 0 
L 1313 3606 
L 1313 0 
L 453 0 
z
" transform="scale(0.015625)"/>
      <path id="Arial-BoldMT-75" d="M 2644 0 
L 2644 497 
Q 2463 231 2167 78 
Q 1872 -75 1544 -75 
Q 1209 -75 943 72 
Q 678 219 559 484 
Q 441 750 441 1219 
L 441 3319 
L 1319 3319 
L 1319 1794 
Q 1319 1094 1367 936 
Q 1416 778 1544 686 
Q 1672 594 1869 594 
Q 2094 594 2272 717 
Q 2450 841 2515 1023 
Q 2581 1206 2581 1919 
L 2581 3319 
L 3459 3319 
L 3459 0 
L 2644 0 
z
" transform="scale(0.015625)"/>
      <path id="Arial-BoldMT-6c" d="M 459 0 
L 459 4581 
L 1338 4581 
L 1338 0 
L 459 0 
z
" transform="scale(0.015625)"/>
      <path id="Arial-BoldMT-74" d="M 1981 3319 
L 1981 2619 
L 1381 2619 
L 1381 1281 
Q 1381 875 1398 808 
Q 1416 741 1477 697 
Q 1538 653 1625 653 
Q 1747 653 1978 738 
L 2053 56 
Q 1747 -75 1359 -75 
Q 1122 -75 931 4 
Q 741 84 652 211 
Q 563 338 528 553 
Q 500 706 500 1172 
L 500 2619 
L 97 2619 
L 97 3319 
L 500 3319 
L 500 3978 
L 1381 4491 
L 1381 3319 
L 1981 3319 
z
" transform="scale(0.015625)"/>
      <path id="Arial-BoldMT-69" d="M 459 3769 
L 459 4581 
L 1338 4581 
L 1338 3769 
L 459 3769 
z
M 459 0 
L 459 3319 
L 1338 3319 
L 1338 0 
L 459 0 
z
" transform="scale(0.015625)"/>
      <path id="Arial-BoldMT-2d" d="M 359 1222 
L 359 2100 
L 2084 2100 
L 2084 1222 
L 359 1222 
z
" transform="scale(0.015625)"/>
      <path id="Arial-BoldMT-62" d="M 422 0 
L 422 4581 
L 1300 4581 
L 1300 2931 
Q 1706 3394 2263 3394 
Q 2869 3394 3266 2955 
Q 3663 2516 3663 1694 
Q 3663 844 3258 384 
Q 2853 -75 2275 -75 
Q 1991 -75 1714 67 
Q 1438 209 1238 488 
L 1238 0 
L 422 0 
z
M 1294 1731 
Q 1294 1216 1456 969 
Q 1684 619 2063 619 
Q 2353 619 2558 867 
Q 2763 1116 2763 1650 
Q 2763 2219 2556 2470 
Q 2350 2722 2028 2722 
Q 1713 2722 1503 2476 
Q 1294 2231 1294 1731 
z
" transform="scale(0.015625)"/>
      <path id="Arial-BoldMT-6f" d="M 256 1706 
Q 256 2144 472 2553 
Q 688 2963 1083 3178 
Q 1478 3394 1966 3394 
Q 2719 3394 3200 2905 
Q 3681 2416 3681 1669 
Q 3681 916 3195 420 
Q 2709 -75 1972 -75 
Q 1516 -75 1102 131 
Q 688 338 472 736 
Q 256 1134 256 1706 
z
M 1156 1659 
Q 1156 1166 1390 903 
Q 1625 641 1969 641 
Q 2313 641 2545 903 
Q 2778 1166 2778 1666 
Q 2778 2153 2545 2415 
Q 2313 2678 1969 2678 
Q 1625 2678 1390 2415 
Q 1156 2153 1156 1659 
z
" transform="scale(0.015625)"/>
      <path id="Arial-BoldMT-63" d="M 3353 2338 
L 2488 2181 
Q 2444 2441 2289 2572 
Q 2134 2703 1888 2703 
Q 1559 2703 1364 2476 
Q 1169 2250 1169 1719 
Q 1169 1128 1367 884 
Q 1566 641 1900 641 
Q 2150 641 2309 783 
Q 2469 925 2534 1272 
L 3397 1125 
Q 3263 531 2881 228 
Q 2500 -75 1859 -75 
Q 1131 -75 698 384 
Q 266 844 266 1656 
Q 266 2478 700 2936 
Q 1134 3394 1875 3394 
Q 2481 3394 2839 3133 
Q 3197 2872 3353 2338 
z
" transform="scale(0.015625)"/>
     </defs>
     <use xlink:href="#Arial-BoldMT-4d"/>
     <use xlink:href="#Arial-BoldMT-75" transform="translate(83.300781 0)"/>
     <use xlink:href="#Arial-BoldMT-6c" transform="translate(144.384766 0)"/>
     <use xlink:href="#Arial-BoldMT-74" transform="translate(172.167969 0)"/>
     <use xlink:href="#Arial-BoldMT-69" transform="translate(205.46875 0)"/>
     <use xlink:href="#Arial-BoldMT-2d" transform="translate(233.251953 0)"/>
     <use xlink:href="#Arial-BoldMT-62" transform="translate(266.552734 0)"/>
     <use xlink:href="#Arial-BoldMT-6c" transform="translate(327.636719 0)"/>
     <use xlink:href="#Arial-BoldMT-6f" transform="translate(355.419922 0)"/>
     <use xlink:href="#Arial-BoldMT-63" transform="translate(416.503906 0)"/>
    </g>
    <!-- Partnership -->
    <g transform="translate(68.695625 169.137187) scale(0.1 -0.1)">
     <defs>
      <path id="Arial-BoldMT-50" d="M 466 0 
L 466 4581 
L 1950 4581 
Q 2794 4581 3050 4513 
Q 3444 4409 3709 4064 
Q 3975 3719 3975 3172 
Q 3975 2750 3822 2462 
Q 3669 2175 3433 2011 
Q 3197 1847 2953 1794 
Q 2622 1728 1994 1728 
L 1391 1728 
L 1391 0 
L 466 0 
z
M 1391 3806 
L 1391 2506 
L 1897 2506 
Q 2444 2506 2628 2578 
Q 2813 2650 2917 2803 
Q 3022 2956 3022 3159 
Q 3022 3409 2875 3571 
Q 2728 3734 2503 3775 
Q 2338 3806 1838 3806 
L 1391 3806 
z
" transform="scale(0.015625)"/>
      <path id="Arial-BoldMT-61" d="M 1116 2306 
L 319 2450 
Q 453 2931 781 3162 
Q 1109 3394 1756 3394 
Q 2344 3394 2631 3255 
Q 2919 3116 3036 2902 
Q 3153 2688 3153 2116 
L 3144 1091 
Q 3144 653 3186 445 
Q 3228 238 3344 0 
L 2475 0 
Q 2441 88 2391 259 
Q 2369 338 2359 363 
Q 2134 144 1878 34 
Q 1622 -75 1331 -75 
Q 819 -75 523 203 
Q 228 481 228 906 
Q 228 1188 362 1408 
Q 497 1628 739 1745 
Q 981 1863 1438 1950 
Q 2053 2066 2291 2166 
L 2291 2253 
Q 2291 2506 2166 2614 
Q 2041 2722 1694 2722 
Q 1459 2722 1328 2630 
Q 1197 2538 1116 2306 
z
M 2291 1594 
Q 2122 1538 1756 1459 
Q 1391 1381 1278 1306 
Q 1106 1184 1106 997 
Q 1106 813 1243 678 
Q 1381 544 1594 544 
Q 1831 544 2047 700 
Q 2206 819 2256 991 
Q 2291 1103 2291 1419 
L 2291 1594 
z
" transform="scale(0.015625)"/>
      <path id="Arial-BoldMT-72" d="M 1300 0 
L 422 0 
L 422 3319 
L 1238 3319 
L 1238 2847 
Q 1447 3181 1614 3287 
Q 1781 3394 1994 3394 
Q 2294 3394 2572 3228 
L 2300 2463 
Q 2078 2606 1888 2606 
Q 1703 2606 1575 2504 
Q 1447 2403 1373 2137 
Q 1300 1872 1300 1025 
L 1300 0 
z
" transform="scale(0.015625)"/>
      <path id="Arial-BoldMT-6e" d="M 3478 0 
L 2600 0 
L 2600 1694 
Q 2600 2231 2544 2389 
Q 2488 2547 2361 2634 
Q 2234 2722 2056 2722 
Q 1828 2722 1647 2597 
Q 1466 2472 1398 2265 
Q 1331 2059 1331 1503 
L 1331 0 
L 453 0 
L 453 3319 
L 1269 3319 
L 1269 2831 
Q 1703 3394 2363 3394 
Q 2653 3394 2893 3289 
Q 3134 3184 3257 3021 
Q 3381 2859 3429 2653 
Q 3478 2447 3478 2063 
L 3478 0 
z
" transform="scale(0.015625)"/>
      <path id="Arial-BoldMT-65" d="M 2381 1056 
L 3256 909 
Q 3088 428 2723 176 
Q 2359 -75 1813 -75 
Q 947 -75 531 491 
Q 203 944 203 1634 
Q 203 2459 634 2926 
Q 1066 3394 1725 3394 
Q 2466 3394 2894 2905 
Q 3322 2416 3303 1406 
L 1103 1406 
Q 1113 1016 1316 798 
Q 1519 581 1822 581 
Q 2028 581 2168 693 
Q 2309 806 2381 1056 
z
M 2431 1944 
Q 2422 2325 2234 2523 
Q 2047 2722 1778 2722 
Q 1491 2722 1303 2513 
Q 1116 2303 1119 1944 
L 2431 1944 
z
" transform="scale(0.015625)"/>
      <path id="Arial-BoldMT-73" d="M 150 947 
L 1031 1081 
Q 1088 825 1259 692 
Q 1431 559 1741 559 
Q 2081 559 2253 684 
Q 2369 772 2369 919 
Q 2369 1019 2306 1084 
Q 2241 1147 2013 1200 
Q 950 1434 666 1628 
Q 272 1897 272 2375 
Q 272 2806 612 3100 
Q 953 3394 1669 3394 
Q 2350 3394 2681 3172 
Q 3013 2950 3138 2516 
L 2309 2363 
Q 2256 2556 2107 2659 
Q 1959 2763 1684 2763 
Q 1338 2763 1188 2666 
Q 1088 2597 1088 2488 
Q 1088 2394 1175 2328 
Q 1294 2241 1995 2081 
Q 2697 1922 2975 1691 
Q 3250 1456 3250 1038 
Q 3250 581 2869 253 
Q 2488 -75 1741 -75 
Q 1063 -75 667 200 
Q 272 475 150 947 
z
" transform="scale(0.015625)"/>
      <path id="Arial-BoldMT-68" d="M 1334 4581 
L 1334 2897 
Q 1759 3394 2350 3394 
Q 2653 3394 2897 3281 
Q 3141 3169 3264 2994 
Q 3388 2819 3433 2606 
Q 3478 2394 3478 1947 
L 3478 0 
L 2600 0 
L 2600 1753 
Q 2600 2275 2550 2415 
Q 2500 2556 2373 2639 
Q 2247 2722 2056 2722 
Q 1838 2722 1666 2615 
Q 1494 2509 1414 2295 
Q 1334 2081 1334 1663 
L 1334 0 
L 456 0 
L 456 4581 
L 1334 4581 
z
" transform="scale(0.015625)"/>
      <path id="Arial-BoldMT-70" d="M 434 3319 
L 1253 3319 
L 1253 2831 
Q 1413 3081 1684 3237 
Q 1956 3394 2288 3394 
Q 2866 3394 3269 2941 
Q 3672 2488 3672 1678 
Q 3672 847 3265 386 
Q 2859 -75 2281 -75 
Q 2006 -75 1782 34 
Q 1559 144 1313 409 
L 1313 -1263 
L 434 -1263 
L 434 3319 
z
M 1303 1716 
Q 1303 1156 1525 889 
Q 1747 622 2066 622 
Q 2372 622 2575 867 
Q 2778 1113 2778 1672 
Q 2778 2194 2568 2447 
Q 2359 2700 2050 2700 
Q 1728 2700 1515 2451 
Q 1303 2203 1303 1716 
z
" transform="scale(0.015625)"/>
     </defs>
     <use xlink:href="#Arial-BoldMT-50"/>
     <use xlink:href="#Arial-BoldMT-61" transform="translate(66.699219 0)"/>
     <use xlink:href="#Arial-BoldMT-72" transform="translate(122.314453 0)"/>
     <use xlink:href="#Arial-BoldMT-74" transform="translate(161.230469 0)"/>
     <use xlink:href="#Arial-BoldMT-6e" transform="translate(194.53125 0)"/>
     <use xlink:href="#Arial-BoldMT-65" transform="translate(255.615234 0)"/>
     <use xlink:href="#Arial-BoldMT-72" transform="translate(311.230469 0)"/>
     <use xlink:href="#Arial-BoldMT-73" transform="translate(350.146484 0)"/>
     <use xlink:href="#Arial-BoldMT-68" transform="translate(405.761719 0)"/>
     <use xlink:href="#Arial-BoldMT-69" transform="translate(466.845703 0)"/>
     <use xlink:href="#Arial-BoldMT-70" transform="translate(494.628906 0)"/>
    </g>
   </g>
   <g id="text_2">
    <!-- GH First -->
    <g transform="translate(344.596563 158.574375) scale(0.1 -0.1)">
     <defs>
      <path id="Arial-BoldMT-47" d="M 2597 1684 
L 2597 2456 
L 4591 2456 
L 4591 631 
Q 4300 350 3748 136 
Q 3197 -78 2631 -78 
Q 1913 -78 1378 223 
Q 844 525 575 1086 
Q 306 1647 306 2306 
Q 306 3022 606 3578 
Q 906 4134 1484 4431 
Q 1925 4659 2581 4659 
Q 3434 4659 3914 4301 
Q 4394 3944 4531 3313 
L 3613 3141 
Q 3516 3478 3248 3673 
Q 2981 3869 2581 3869 
Q 1975 3869 1617 3484 
Q 1259 3100 1259 2344 
Q 1259 1528 1621 1120 
Q 1984 713 2572 713 
Q 2863 713 3155 827 
Q 3447 941 3656 1103 
L 3656 1684 
L 2597 1684 
z
" transform="scale(0.015625)"/>
      <path id="Arial-BoldMT-48" d="M 469 0 
L 469 4581 
L 1394 4581 
L 1394 2778 
L 3206 2778 
L 3206 4581 
L 4131 4581 
L 4131 0 
L 3206 0 
L 3206 2003 
L 1394 2003 
L 1394 0 
L 469 0 
z
" transform="scale(0.015625)"/>
      <path id="Arial-BoldMT-20" transform="scale(0.015625)"/>
      <path id="Arial-BoldMT-46" d="M 472 0 
L 472 4581 
L 3613 4581 
L 3613 3806 
L 1397 3806 
L 1397 2722 
L 3309 2722 
L 3309 1947 
L 1397 1947 
L 1397 0 
L 472 0 
z
" transform="scale(0.015625)"/>
     </defs>
     <use xlink:href="#Arial-BoldMT-47"/>
     <use xlink:href="#Arial-BoldMT-48" transform="translate(77.783203 0)"/>
     <use xlink:href="#Arial-BoldMT-20" transform="translate(150 0)"/>
     <use xlink:href="#Arial-BoldMT-46" transform="translate(177.783203 0)"/>
     <use xlink:href="#Arial-BoldMT-69" transform="translate(238.867188 0)"/>
     <use xlink:href="#Arial-BoldMT-72" transform="translate(266.650391 0)"/>
     <use xlink:href="#Arial-BoldMT-73" transform="translate(305.566406 0)"/>
     <use xlink:href="#Arial-BoldMT-74" transform="translate(361.181641 0)"/>
    </g>
    <!-- Authorship -->
    <g transform="translate(337.659063 169.137187) scale(0.1 -0.1)">
     <defs>
      <path id="Arial-BoldMT-41" d="M 4597 0 
L 3591 0 
L 3191 1041 
L 1359 1041 
L 981 0 
L 0 0 
L 1784 4581 
L 2763 4581 
L 4597 0 
z
M 2894 1813 
L 2263 3513 
L 1644 1813 
L 2894 1813 
z
" transform="scale(0.015625)"/>
     </defs>
     <use xlink:href="#Arial-BoldMT-41"/>
     <use xlink:href="#Arial-BoldMT-75" transform="translate(72.216797 0)"/>
     <use xlink:href="#Arial-BoldMT-74" transform="translate(133.300781 0)"/>
     <use xlink:href="#Arial-BoldMT-68" transform="translate(166.601562 0)"/>
     <use xlink:href="#Arial-BoldMT-6f" transform="translate(227.685547 0)"/>
     <use xlink:href="#Arial-BoldMT-72" transform="translate(288.769531 0)"/>
     <use xlink:href="#Arial-BoldMT-73" transform="translate(327.685547 0)"/>
     <use xlink:href="#Arial-BoldMT-68" transform="translate(383.300781 0)"/>
     <use xlink:href="#Arial-BoldMT-69" transform="translate(444.384766 0)"/>
     <use xlink:href="#Arial-BoldMT-70" transform="translate(472.167969 0)"/>
    </g>
   </g>
   <g id="text_3">
    <!-- Team Size -->
    <g transform="translate(206.314062 42.935625) scale(0.1 -0.1)">
     <defs>
      <path id="Arial-BoldMT-54" d="M 1497 0 
L 1497 3806 
L 138 3806 
L 138 4581 
L 3778 4581 
L 3778 3806 
L 2422 3806 
L 2422 0 
L 1497 0 
z
" transform="scale(0.015625)"/>
      <path id="Arial-BoldMT-6d" d="M 394 3319 
L 1203 3319 
L 1203 2866 
Q 1638 3394 2238 3394 
Q 2556 3394 2790 3262 
Q 3025 3131 3175 2866 
Q 3394 3131 3647 3262 
Q 3900 3394 4188 3394 
Q 4553 3394 4806 3245 
Q 5059 3097 5184 2809 
Q 5275 2597 5275 2122 
L 5275 0 
L 4397 0 
L 4397 1897 
Q 4397 2391 4306 2534 
Q 4184 2722 3931 2722 
Q 3747 2722 3584 2609 
Q 3422 2497 3350 2280 
Q 3278 2063 3278 1594 
L 3278 0 
L 2400 0 
L 2400 1819 
Q 2400 2303 2353 2443 
Q 2306 2584 2207 2653 
Q 2109 2722 1941 2722 
Q 1738 2722 1575 2612 
Q 1413 2503 1342 2297 
Q 1272 2091 1272 1613 
L 1272 0 
L 394 0 
L 394 3319 
z
" transform="scale(0.015625)"/>
      <path id="Arial-BoldMT-53" d="M 231 1491 
L 1131 1578 
Q 1213 1125 1461 912 
Q 1709 700 2131 700 
Q 2578 700 2804 889 
Q 3031 1078 3031 1331 
Q 3031 1494 2936 1608 
Q 2841 1722 2603 1806 
Q 2441 1863 1863 2006 
Q 1119 2191 819 2459 
Q 397 2838 397 3381 
Q 397 3731 595 4036 
Q 794 4341 1167 4500 
Q 1541 4659 2069 4659 
Q 2931 4659 3367 4281 
Q 3803 3903 3825 3272 
L 2900 3231 
Q 2841 3584 2645 3739 
Q 2450 3894 2059 3894 
Q 1656 3894 1428 3728 
Q 1281 3622 1281 3444 
Q 1281 3281 1419 3166 
Q 1594 3019 2269 2859 
Q 2944 2700 3267 2529 
Q 3591 2359 3773 2064 
Q 3956 1769 3956 1334 
Q 3956 941 3737 597 
Q 3519 253 3119 86 
Q 2719 -81 2122 -81 
Q 1253 -81 787 320 
Q 322 722 231 1491 
z
" transform="scale(0.015625)"/>
      <path id="Arial-BoldMT-7a" d="M 106 0 
L 106 684 
L 1350 2113 
Q 1656 2463 1803 2609 
Q 1650 2600 1400 2597 
L 228 2591 
L 228 3319 
L 2972 3319 
L 2972 2697 
L 1703 1234 
L 1256 750 
Q 1622 772 1709 772 
L 3069 772 
L 3069 0 
L 106 0 
z
" transform="scale(0.015625)"/>
     </defs>
     <use xlink:href="#Arial-BoldMT-54"/>
     <use xlink:href="#Arial-BoldMT-65" transform="translate(53.708984 0)"/>
     <use xlink:href="#Arial-BoldMT-61" transform="translate(109.324219 0)"/>
     <use xlink:href="#Arial-BoldMT-6d" transform="translate(164.939453 0)"/>
     <use xlink:href="#Arial-BoldMT-20" transform="translate(253.855469 0)"/>
     <use xlink:href="#Arial-BoldMT-53" transform="translate(281.638672 0)"/>
     <use xlink:href="#Arial-BoldMT-69" transform="translate(348.337891 0)"/>
     <use xlink:href="#Arial-BoldMT-7a" transform="translate(376.121094 0)"/>
     <use xlink:href="#Arial-BoldMT-65" transform="translate(426.121094 0)"/>
    </g>
    <!-- (log) -->
    <g transform="translate(219.573437 53.644687) scale(0.1 -0.1)">
     <defs>
      <path id="Arial-BoldMT-28" d="M 1916 -1347 
L 1313 -1347 
Q 834 -625 584 153 
Q 334 931 334 1659 
Q 334 2563 644 3369 
Q 913 4069 1325 4659 
L 1925 4659 
Q 1497 3713 1336 3048 
Q 1175 2384 1175 1641 
Q 1175 1128 1270 590 
Q 1366 53 1531 -431 
Q 1641 -750 1916 -1347 
z
" transform="scale(0.015625)"/>
      <path id="Arial-BoldMT-67" d="M 378 -219 
L 1381 -341 
Q 1406 -516 1497 -581 
Q 1622 -675 1891 -675 
Q 2234 -675 2406 -572 
Q 2522 -503 2581 -350 
Q 2622 -241 2622 53 
L 2622 538 
Q 2228 0 1628 0 
Q 959 0 569 566 
Q 263 1013 263 1678 
Q 263 2513 664 2953 
Q 1066 3394 1663 3394 
Q 2278 3394 2678 2853 
L 2678 3319 
L 3500 3319 
L 3500 341 
Q 3500 -247 3403 -537 
Q 3306 -828 3131 -993 
Q 2956 -1159 2664 -1253 
Q 2372 -1347 1925 -1347 
Q 1081 -1347 728 -1058 
Q 375 -769 375 -325 
Q 375 -281 378 -219 
z
M 1163 1728 
Q 1163 1200 1367 954 
Q 1572 709 1872 709 
Q 2194 709 2416 961 
Q 2638 1213 2638 1706 
Q 2638 2222 2425 2472 
Q 2213 2722 1888 2722 
Q 1572 2722 1367 2476 
Q 1163 2231 1163 1728 
z
" transform="scale(0.015625)"/>
      <path id="Arial-BoldMT-29" d="M 216 -1347 
Q 475 -791 581 -494 
Q 688 -197 778 190 
Q 869 578 912 926 
Q 956 1275 956 1641 
Q 956 2384 797 3048 
Q 638 3713 209 4659 
L 806 4659 
Q 1278 3988 1539 3234 
Q 1800 2481 1800 1706 
Q 1800 1053 1594 306 
Q 1359 -531 822 -1347 
L 216 -1347 
z
" transform="scale(0.015625)"/>
     </defs>
     <use xlink:href="#Arial-BoldMT-28"/>
     <use xlink:href="#Arial-BoldMT-6c" transform="translate(33.300781 0)"/>
     <use xlink:href="#Arial-BoldMT-6f" transform="translate(61.083984 0)"/>
     <use xlink:href="#Arial-BoldMT-67" transform="translate(122.167969 0)"/>
     <use xlink:href="#Arial-BoldMT-29" transform="translate(183.251953 0)"/>
    </g>
   </g>
   <g id="patch_5">
    <path d="M 150.604638 136.243293 
Q 163.440181 91.962968 175.653183 49.830302 
" style="fill: none; stroke: #059669; stroke-width: 2; stroke-linecap: round"/>
    <path d="M 172.315164 53.443836 
L 175.653183 49.830302 
L 176.541199 54.668838 
" style="fill: none; stroke: #059669; stroke-width: 2; stroke-linecap: round"/>
   </g>
   <g id="text_4">
    <!-- a = 0.550*** -->
    <g style="fill: #059669" transform="translate(132.192 78.103594) scale(0.09 -0.09)">
     <defs>
      <path id="Arial-BoldMT-3d" d="M 266 2550 
L 266 3356 
L 3469 3356 
L 3469 2550 
L 266 2550 
z
M 266 1163 
L 266 1972 
L 3469 1972 
L 3469 1163 
L 266 1163 
z
" transform="scale(0.015625)"/>
      <path id="Arial-BoldMT-30" d="M 1756 4600 
Q 2422 4600 2797 4125 
Q 3244 3563 3244 2259 
Q 3244 959 2794 391 
Q 2422 -78 1756 -78 
Q 1088 -78 678 436 
Q 269 950 269 2269 
Q 269 3563 719 4131 
Q 1091 4600 1756 4600 
z
M 1756 3872 
Q 1597 3872 1472 3770 
Q 1347 3669 1278 3406 
Q 1188 3066 1188 2259 
Q 1188 1453 1269 1151 
Q 1350 850 1473 750 
Q 1597 650 1756 650 
Q 1916 650 2041 751 
Q 2166 853 2234 1116 
Q 2325 1453 2325 2259 
Q 2325 3066 2244 3367 
Q 2163 3669 2039 3770 
Q 1916 3872 1756 3872 
z
" transform="scale(0.015625)"/>
      <path id="Arial-BoldMT-2e" d="M 459 0 
L 459 878 
L 1338 878 
L 1338 0 
L 459 0 
z
" transform="scale(0.015625)"/>
      <path id="Arial-BoldMT-35" d="M 284 1178 
L 1159 1269 
Q 1197 972 1381 798 
Q 1566 625 1806 625 
Q 2081 625 2272 848 
Q 2463 1072 2463 1522 
Q 2463 1944 2273 2155 
Q 2084 2366 1781 2366 
Q 1403 2366 1103 2031 
L 391 2134 
L 841 4519 
L 3163 4519 
L 3163 3697 
L 1506 3697 
L 1369 2919 
Q 1663 3066 1969 3066 
Q 2553 3066 2959 2641 
Q 3366 2216 3366 1538 
Q 3366 972 3038 528 
Q 2591 -78 1797 -78 
Q 1163 -78 763 262 
Q 363 603 284 1178 
z
" transform="scale(0.015625)"/>
      <path id="Arial-BoldMT-2a" d="M 766 2475 
L 294 2841 
Q 519 3094 763 3325 
Q 859 3419 884 3444 
Q 806 3456 438 3547 
Q 172 3613 88 3644 
L 272 4194 
Q 681 4028 1003 3828 
Q 928 4338 928 4659 
L 1484 4659 
Q 1484 4431 1400 3822 
Q 1463 3847 1669 3944 
Q 1950 4072 2188 4163 
L 2353 3597 
Q 2006 3519 1550 3444 
L 1925 3022 
Q 2038 2894 2103 2813 
L 1625 2497 
L 1203 3194 
Q 1013 2856 766 2475 
z
" transform="scale(0.015625)"/>
     </defs>
     <use xlink:href="#Arial-BoldMT-61"/>
     <use xlink:href="#Arial-BoldMT-20" transform="translate(55.615234 0)"/>
     <use xlink:href="#Arial-BoldMT-3d" transform="translate(83.398438 0)"/>
     <use xlink:href="#Arial-BoldMT-20" transform="translate(141.796875 0)"/>
     <use xlink:href="#Arial-BoldMT-30" transform="translate(169.580078 0)"/>
     <use xlink:href="#Arial-BoldMT-2e" transform="translate(225.195312 0)"/>
     <use xlink:href="#Arial-BoldMT-35" transform="translate(252.978516 0)"/>
     <use xlink:href="#Arial-BoldMT-35" transform="translate(308.59375 0)"/>
     <use xlink:href="#Arial-BoldMT-30" transform="translate(364.208984 0)"/>
     <use xlink:href="#Arial-BoldMT-2a" transform="translate(419.824219 0)"/>
     <use xlink:href="#Arial-BoldMT-2a" transform="translate(458.740234 0)"/>
     <use xlink:href="#Arial-BoldMT-2a" transform="translate(497.65625 0)"/>
    </g>
   </g>
   <g id="patch_6">
    <path d="M 284.524638 47.683894 
Q 297.360181 91.964219 309.573183 134.096886 
" style="fill: none; stroke: #059669; stroke-width: 2; stroke-linecap: round"/>
    <path d="M 310.461199 129.25835 
L 309.573183 134.096886 
L 306.235164 130.483351 
" style="fill: none; stroke: #059669; stroke-width: 2; stroke-linecap: round"/>
   </g>
   <g id="text_5">
    <!-- b = -0.656*** -->
    <g style="fill: #059669" transform="translate(315.216 78.103594) scale(0.09 -0.09)">
     <defs>
      <path id="Arial-BoldMT-36" d="M 3247 3459 
L 2397 3366 
Q 2366 3628 2234 3753 
Q 2103 3878 1894 3878 
Q 1616 3878 1423 3628 
Q 1231 3378 1181 2588 
Q 1509 2975 1997 2975 
Q 2547 2975 2939 2556 
Q 3331 2138 3331 1475 
Q 3331 772 2918 347 
Q 2506 -78 1859 -78 
Q 1166 -78 719 461 
Q 272 1000 272 2228 
Q 272 3488 737 4044 
Q 1203 4600 1947 4600 
Q 2469 4600 2811 4308 
Q 3153 4016 3247 3459 
z
M 1256 1544 
Q 1256 1116 1453 883 
Q 1650 650 1903 650 
Q 2147 650 2309 840 
Q 2472 1031 2472 1466 
Q 2472 1913 2297 2120 
Q 2122 2328 1859 2328 
Q 1606 2328 1431 2129 
Q 1256 1931 1256 1544 
z
" transform="scale(0.015625)"/>
     </defs>
     <use xlink:href="#Arial-BoldMT-62"/>
     <use xlink:href="#Arial-BoldMT-20" transform="translate(61.083984 0)"/>
     <use xlink:href="#Arial-BoldMT-3d" transform="translate(88.867188 0)"/>
     <use xlink:href="#Arial-BoldMT-20" transform="translate(147.265625 0)"/>
     <use xlink:href="#Arial-BoldMT-2d" transform="translate(175.048828 0)"/>
     <use xlink:href="#Arial-BoldMT-30" transform="translate(208.349609 0)"/>
     <use xlink:href="#Arial-BoldMT-2e" transform="translate(263.964844 0)"/>
     <use xlink:href="#Arial-BoldMT-36" transform="translate(291.748047 0)"/>
     <use xlink:href="#Arial-BoldMT-35" transform="translate(347.363281 0)"/>
     <use xlink:href="#Arial-BoldMT-36" transform="translate(402.978516 0)"/>
     <use xlink:href="#Arial-BoldMT-2a" transform="translate(458.59375 0)"/>
     <use xlink:href="#Arial-BoldMT-2a" transform="translate(497.509766 0)"/>
     <use xlink:href="#Arial-BoldMT-2a" transform="translate(536.425781 0)"/>
    </g>
   </g>
   <g id="patch_7">
    <path d="M 152.044049 161.263594 
Q 230.397866 161.263594 306.515615 161.263594 
" style="fill: none; stroke: #dc2626; stroke-width: 2; stroke-linecap: round"/>
    <path d="M 302.115615 159.063594 
L 306.515615 161.263594 
L 302.115615 163.463594 
" style="fill: none; stroke: #dc2626; stroke-width: 2; stroke-linecap: round"/>
   </g>
   <g id="text_6">
    <!-- c' = -0.862*** -->
    <g style="fill: #dc2626" transform="translate(203.686172 183.965437) scale(0.09 -0.09)">
     <defs>
      <path id="Arial-BoldMT-27" d="M 453 2953 
L 288 3806 
L 288 4581 
L 1244 4581 
L 1244 3806 
L 1100 2953 
L 453 2953 
z
" transform="scale(0.015625)"/>
      <path id="Arial-BoldMT-38" d="M 1025 2472 
Q 684 2616 529 2867 
Q 375 3119 375 3419 
Q 375 3931 733 4265 
Q 1091 4600 1750 4600 
Q 2403 4600 2764 4265 
Q 3125 3931 3125 3419 
Q 3125 3100 2959 2851 
Q 2794 2603 2494 2472 
Q 2875 2319 3073 2025 
Q 3272 1731 3272 1347 
Q 3272 713 2867 316 
Q 2463 -81 1791 -81 
Q 1166 -81 750 247 
Q 259 634 259 1309 
Q 259 1681 443 1992 
Q 628 2303 1025 2472 
z
M 1206 3356 
Q 1206 3094 1354 2947 
Q 1503 2800 1750 2800 
Q 2000 2800 2150 2948 
Q 2300 3097 2300 3359 
Q 2300 3606 2151 3754 
Q 2003 3903 1759 3903 
Q 1506 3903 1356 3753 
Q 1206 3603 1206 3356 
z
M 1125 1394 
Q 1125 1031 1311 828 
Q 1497 625 1775 625 
Q 2047 625 2225 820 
Q 2403 1016 2403 1384 
Q 2403 1706 2222 1901 
Q 2041 2097 1763 2097 
Q 1441 2097 1283 1875 
Q 1125 1653 1125 1394 
z
" transform="scale(0.015625)"/>
      <path id="Arial-BoldMT-32" d="M 3238 816 
L 3238 0 
L 159 0 
Q 209 463 459 877 
Q 709 1291 1447 1975 
Q 2041 2528 2175 2725 
Q 2356 2997 2356 3263 
Q 2356 3556 2198 3714 
Q 2041 3872 1763 3872 
Q 1488 3872 1325 3706 
Q 1163 3541 1138 3156 
L 263 3244 
Q 341 3969 753 4284 
Q 1166 4600 1784 4600 
Q 2463 4600 2850 4234 
Q 3238 3869 3238 3325 
Q 3238 3016 3127 2736 
Q 3016 2456 2775 2150 
Q 2616 1947 2200 1565 
Q 1784 1184 1673 1059 
Q 1563 934 1494 816 
L 3238 816 
z
" transform="scale(0.015625)"/>
     </defs>
     <use xlink:href="#Arial-BoldMT-63"/>
     <use xlink:href="#Arial-BoldMT-27" transform="translate(55.615234 0)"/>
     <use xlink:href="#Arial-BoldMT-20" transform="translate(79.394531 0)"/>
     <use xlink:href="#Arial-BoldMT-3d" transform="translate(107.177734 0)"/>
     <use xlink:href="#Arial-BoldMT-20" transform="translate(165.576172 0)"/>
     <use xlink:href="#Arial-BoldMT-2d" transform="translate(193.359375 0)"/>
     <use xlink:href="#Arial-BoldMT-30" transform="translate(226.660156 0)"/>
     <use xlink:href="#Arial-BoldMT-2e" transform="translate(282.275391 0)"/>
     <use xlink:href="#Arial-BoldMT-38" transform="translate(310.058594 0)"/>
     <use xlink:href="#Arial-BoldMT-36" transform="translate(365.673828 0)"/>
     <use xlink:href="#Arial-BoldMT-32" transform="translate(421.289062 0)"/>
     <use xlink:href="#Arial-BoldMT-2a" transform="translate(476.904297 0)"/>
     <use xlink:href="#Arial-BoldMT-2a" transform="translate(515.820312 0)"/>
     <use xlink:href="#Arial-BoldMT-2a" transform="translate(554.736328 0)"/>
    </g>
    <!-- (total c = -1.167) -->
    <g style="fill: #dc2626" transform="translate(196.266094 193.603594) scale(0.09 -0.09)">
     <defs>
      <path id="Arial-BoldMT-31" d="M 2519 0 
L 1641 0 
L 1641 3309 
Q 1159 2859 506 2644 
L 506 3441 
Q 850 3553 1253 3867 
Q 1656 4181 1806 4600 
L 2519 4600 
L 2519 0 
z
" transform="scale(0.015625)"/>
      <path id="Arial-BoldMT-37" d="M 272 3703 
L 272 4519 
L 3275 4519 
L 3275 3881 
Q 2903 3516 2518 2831 
Q 2134 2147 1932 1376 
Q 1731 606 1734 0 
L 888 0 
Q 909 950 1279 1937 
Q 1650 2925 2269 3703 
L 272 3703 
z
" transform="scale(0.015625)"/>
     </defs>
     <use xlink:href="#Arial-BoldMT-28"/>
     <use xlink:href="#Arial-BoldMT-74" transform="translate(33.300781 0)"/>
     <use xlink:href="#Arial-BoldMT-6f" transform="translate(66.601562 0)"/>
     <use xlink:href="#Arial-BoldMT-74" transform="translate(127.685547 0)"/>
     <use xlink:href="#Arial-BoldMT-61" transform="translate(160.986328 0)"/>
     <use xlink:href="#Arial-BoldMT-6c" transform="translate(216.601562 0)"/>
     <use xlink:href="#Arial-BoldMT-20" transform="translate(244.384766 0)"/>
     <use xlink:href="#Arial-BoldMT-63" transform="translate(272.167969 0)"/>
     <use xlink:href="#Arial-BoldMT-20" transform="translate(327.783203 0)"/>
     <use xlink:href="#Arial-BoldMT-3d" transform="translate(355.566406 0)"/>
     <use xlink:href="#Arial-BoldMT-20" transform="translate(413.964844 0)"/>
     <use xlink:href="#Arial-BoldMT-2d" transform="translate(441.748047 0)"/>
     <use xlink:href="#Arial-BoldMT-31" transform="translate(475.048828 0)"/>
     <use xlink:href="#Arial-BoldMT-2e" transform="translate(530.664062 0)"/>
     <use xlink:href="#Arial-BoldMT-31" transform="translate(558.447266 0)"/>
     <use xlink:href="#Arial-BoldMT-36" transform="translate(614.0625 0)"/>
     <use xlink:href="#Arial-BoldMT-37" transform="translate(669.677734 0)"/>
     <use xlink:href="#Arial-BoldMT-29" transform="translate(725.292969 0)"/>
    </g>
   </g>
   <g id="text_7">
    <g id="patch_8">
     <path d="M 142.595312 249.397031 
L 318.204687 249.397031 
Q 321.204687 249.397031 321.204687 246.397031 
L 321.204687 226.172344 
Q 321.204687 223.172344 318.204687 223.172344 
L 142.595312 223.172344 
Q 139.595312 223.172344 139.595312 226.172344 
L 139.595312 246.397031 
Q 139.595312 249.397031 142.595312 249.397031 
z
" style="fill: #fef3c7; stroke: #f59e0b; stroke-linejoin: miter"/>
    </g>
    <!-- Indirect (a×b): -0.305 = 26% mediated -->
    <g transform="translate(142.595312 233.583281) scale(0.1 -0.1)">
     <defs>
      <path id="Arial-BoldMT-49" d="M 438 0 
L 438 4581 
L 1363 4581 
L 1363 0 
L 438 0 
z
" transform="scale(0.015625)"/>
      <path id="Arial-BoldMT-64" d="M 3503 0 
L 2688 0 
L 2688 488 
Q 2484 203 2207 64 
Q 1931 -75 1650 -75 
Q 1078 -75 670 386 
Q 263 847 263 1672 
Q 263 2516 659 2955 
Q 1056 3394 1663 3394 
Q 2219 3394 2625 2931 
L 2625 4581 
L 3503 4581 
L 3503 0 
z
M 1159 1731 
Q 1159 1200 1306 963 
Q 1519 619 1900 619 
Q 2203 619 2415 876 
Q 2628 1134 2628 1647 
Q 2628 2219 2422 2470 
Q 2216 2722 1894 2722 
Q 1581 2722 1370 2473 
Q 1159 2225 1159 1731 
z
" transform="scale(0.015625)"/>
      <path id="Arial-BoldMT-d7" d="M 347 1313 
L 1291 2256 
L 341 3203 
L 922 3784 
L 1872 2838 
L 2816 3781 
L 3381 3213 
L 2438 2269 
L 3391 1316 
L 2809 734 
L 1856 1688 
L 913 744 
L 347 1313 
z
" transform="scale(0.015625)"/>
      <path id="Arial-BoldMT-3a" d="M 628 2441 
L 628 3319 
L 1506 3319 
L 1506 2441 
L 628 2441 
z
M 628 0 
L 628 878 
L 1506 878 
L 1506 0 
L 628 0 
z
" transform="scale(0.015625)"/>
      <path id="Arial-BoldMT-33" d="M 241 1216 
L 1091 1319 
Q 1131 994 1309 822 
Q 1488 650 1741 650 
Q 2013 650 2198 856 
Q 2384 1063 2384 1413 
Q 2384 1744 2206 1937 
Q 2028 2131 1772 2131 
Q 1603 2131 1369 2066 
L 1466 2781 
Q 1822 2772 2009 2936 
Q 2197 3100 2197 3372 
Q 2197 3603 2059 3740 
Q 1922 3878 1694 3878 
Q 1469 3878 1309 3722 
Q 1150 3566 1116 3266 
L 306 3403 
Q 391 3819 561 4067 
Q 731 4316 1036 4458 
Q 1341 4600 1719 4600 
Q 2366 4600 2756 4188 
Q 3078 3850 3078 3425 
Q 3078 2822 2419 2463 
Q 2813 2378 3048 2084 
Q 3284 1791 3284 1375 
Q 3284 772 2843 347 
Q 2403 -78 1747 -78 
Q 1125 -78 715 280 
Q 306 638 241 1216 
z
" transform="scale(0.015625)"/>
      <path id="Arial-BoldMT-25" d="M 278 3450 
Q 278 4066 548 4362 
Q 819 4659 1281 4659 
Q 1759 4659 2029 4364 
Q 2300 4069 2300 3450 
Q 2300 2834 2029 2537 
Q 1759 2241 1297 2241 
Q 819 2241 548 2536 
Q 278 2831 278 3450 
z
M 963 3456 
Q 963 3009 1066 2856 
Q 1144 2744 1281 2744 
Q 1422 2744 1500 2856 
Q 1600 3009 1600 3456 
Q 1600 3903 1500 4053 
Q 1422 4169 1281 4169 
Q 1144 4169 1066 4056 
Q 963 3903 963 3456 
z
M 1950 -175 
L 1300 -175 
L 3741 4659 
L 4372 4659 
L 1950 -175 
z
M 3369 1028 
Q 3369 1644 3639 1941 
Q 3909 2238 4378 2238 
Q 4850 2238 5120 1941 
Q 5391 1644 5391 1028 
Q 5391 409 5120 112 
Q 4850 -184 4388 -184 
Q 3909 -184 3639 112 
Q 3369 409 3369 1028 
z
M 4053 1031 
Q 4053 584 4156 434 
Q 4234 319 4372 319 
Q 4513 319 4588 431 
Q 4691 584 4691 1031 
Q 4691 1478 4591 1631 
Q 4513 1744 4372 1744 
Q 4231 1744 4156 1631 
Q 4053 1478 4053 1031 
z
" transform="scale(0.015625)"/>
     </defs>
     <use xlink:href="#Arial-BoldMT-49"/>
     <use xlink:href="#Arial-BoldMT-6e" transform="translate(27.783203 0)"/>
     <use xlink:href="#Arial-BoldMT-64" transform="translate(88.867188 0)"/>
     <use xlink:href="#Arial-BoldMT-69" transform="translate(149.951172 0)"/>
     <use xlink:href="#Arial-BoldMT-72" transform="translate(177.734375 0)"/>
     <use xlink:href="#Arial-BoldMT-65" transform="translate(216.650391 0)"/>
     <use xlink:href="#Arial-BoldMT-63" transform="translate(272.265625 0)"/>
     <use xlink:href="#Arial-BoldMT-74" transform="translate(327.880859 0)"/>
     <use xlink:href="#Arial-BoldMT-20" transform="translate(361.181641 0)"/>
     <use xlink:href="#Arial-BoldMT-28" transform="translate(388.964844 0)"/>
     <use xlink:href="#Arial-BoldMT-61" transform="translate(422.265625 0)"/>
     <use xlink:href="#Arial-BoldMT-d7" transform="translate(477.880859 0)"/>
     <use xlink:href="#Arial-BoldMT-62" transform="translate(536.279297 0)"/>
     <use xlink:href="#Arial-BoldMT-29" transform="translate(597.363281 0)"/>
     <use xlink:href="#Arial-BoldMT-3a" transform="translate(630.664062 0)"/>
     <use xlink:href="#Arial-BoldMT-20" transform="translate(663.964844 0)"/>
     <use xlink:href="#Arial-BoldMT-2d" transform="translate(691.748047 0)"/>
     <use xlink:href="#Arial-BoldMT-30" transform="translate(725.048828 0)"/>
     <use xlink:href="#Arial-BoldMT-2e" transform="translate(780.664062 0)"/>
     <use xlink:href="#Arial-BoldMT-33" transform="translate(808.447266 0)"/>
     <use xlink:href="#Arial-BoldMT-30" transform="translate(864.0625 0)"/>
     <use xlink:href="#Arial-BoldMT-35" transform="translate(919.677734 0)"/>
     <use xlink:href="#Arial-BoldMT-20" transform="translate(975.292969 0)"/>
     <use xlink:href="#Arial-BoldMT-3d" transform="translate(1003.076172 0)"/>
     <use xlink:href="#Arial-BoldMT-20" transform="translate(1061.474609 0)"/>
     <use xlink:href="#Arial-BoldMT-32" transform="translate(1089.257812 0)"/>
     <use xlink:href="#Arial-BoldMT-36" transform="translate(1144.873047 0)"/>
     <use xlink:href="#Arial-BoldMT-25" transform="translate(1200.488281 0)"/>
     <use xlink:href="#Arial-BoldMT-20" transform="translate(1289.404297 0)"/>
     <use xlink:href="#Arial-BoldMT-6d" transform="translate(1317.1875 0)"/>
     <use xlink:href="#Arial-BoldMT-65" transform="translate(1406.103516 0)"/>
     <use xlink:href="#Arial-BoldMT-64" transform="translate(1461.71875 0)"/>
     <use xlink:href="#Arial-BoldMT-69" transform="translate(1522.802734 0)"/>
     <use xlink:href="#Arial-BoldMT-61" transform="translate(1550.585938 0)"/>
     <use xlink:href="#Arial-BoldMT-74" transform="translate(1606.201172 0)"/>
     <use xlink:href="#Arial-BoldMT-65" transform="translate(1639.501953 0)"/>
     <use xlink:href="#Arial-BoldMT-64" transform="translate(1695.117188 0)"/>
    </g>
    <!-- Sobel z = -23.41, p &lt; 0.001 -->
    <g transform="translate(168.982812 244.423594) scale(0.1 -0.1)">
     <defs>
      <path id="Arial-BoldMT-34" d="M 1994 0 
L 1994 922 
L 119 922 
L 119 1691 
L 2106 4600 
L 2844 4600 
L 2844 1694 
L 3413 1694 
L 3413 922 
L 2844 922 
L 2844 0 
L 1994 0 
z
M 1994 1694 
L 1994 3259 
L 941 1694 
L 1994 1694 
z
" transform="scale(0.015625)"/>
      <path id="Arial-BoldMT-2c" d="M 438 878 
L 1316 878 
L 1316 250 
Q 1316 -131 1250 -351 
Q 1184 -572 1001 -747 
Q 819 -922 538 -1022 
L 366 -659 
Q 631 -572 743 -419 
Q 856 -266 863 0 
L 438 0 
L 438 878 
z
" transform="scale(0.015625)"/>
      <path id="Arial-BoldMT-3c" d="M 3438 522 
L 297 1888 
L 297 2644 
L 3438 4003 
L 3438 3113 
L 1247 2275 
L 3438 1406 
L 3438 522 
z
" transform="scale(0.015625)"/>
     </defs>
     <use xlink:href="#Arial-BoldMT-53"/>
     <use xlink:href="#Arial-BoldMT-6f" transform="translate(66.699219 0)"/>
     <use xlink:href="#Arial-BoldMT-62" transform="translate(127.783203 0)"/>
     <use xlink:href="#Arial-BoldMT-65" transform="translate(188.867188 0)"/>
     <use xlink:href="#Arial-BoldMT-6c" transform="translate(244.482422 0)"/>
     <use xlink:href="#Arial-BoldMT-20" transform="translate(272.265625 0)"/>
     <use xlink:href="#Arial-BoldMT-7a" transform="translate(300.048828 0)"/>
     <use xlink:href="#Arial-BoldMT-20" transform="translate(350.048828 0)"/>
     <use xlink:href="#Arial-BoldMT-3d" transform="translate(377.832031 0)"/>
     <use xlink:href="#Arial-BoldMT-20" transform="translate(436.230469 0)"/>
     <use xlink:href="#Arial-BoldMT-2d" transform="translate(464.013672 0)"/>
     <use xlink:href="#Arial-BoldMT-32" transform="translate(497.314453 0)"/>
     <use xlink:href="#Arial-BoldMT-33" transform="translate(552.929688 0)"/>
     <use xlink:href="#Arial-BoldMT-2e" transform="translate(608.544922 0)"/>
     <use xlink:href="#Arial-BoldMT-34" transform="translate(636.328125 0)"/>
     <use xlink:href="#Arial-BoldMT-31" transform="translate(691.943359 0)"/>
     <use xlink:href="#Arial-BoldMT-2c" transform="translate(747.558594 0)"/>
     <use xlink:href="#Arial-BoldMT-20" transform="translate(775.341797 0)"/>
     <use xlink:href="#Arial-BoldMT-70" transform="translate(803.125 0)"/>
     <use xlink:href="#Arial-BoldMT-20" transform="translate(864.208984 0)"/>
     <use xlink:href="#Arial-BoldMT-3c" transform="translate(891.992188 0)"/>
     <use xlink:href="#Arial-BoldMT-20" transform="translate(950.390625 0)"/>
     <use xlink:href="#Arial-BoldMT-30" transform="translate(978.173828 0)"/>
     <use xlink:href="#Arial-BoldMT-2e" transform="translate(1033.789062 0)"/>
     <use xlink:href="#Arial-BoldMT-30" transform="translate(1061.572266 0)"/>
     <use xlink:href="#Arial-BoldMT-30" transform="translate(1117.1875 0)"/>
     <use xlink:href="#Arial-BoldMT-31" transform="translate(1172.802734 0)"/>
    </g>
   </g>
   <g id="text_8">
    <!-- Mediation Analysis: Team Size as Mediator -->
    <g transform="translate(98.567812 16.663594) scale(0.13 -0.13)">
     <defs>
      <path id="Arial-BoldMT-79" d="M 44 3319 
L 978 3319 
L 1772 963 
L 2547 3319 
L 3456 3319 
L 2284 125 
L 2075 -453 
Q 1959 -744 1854 -897 
Q 1750 -1050 1614 -1145 
Q 1478 -1241 1279 -1294 
Q 1081 -1347 831 -1347 
Q 578 -1347 334 -1294 
L 256 -606 
Q 463 -647 628 -647 
Q 934 -647 1081 -467 
Q 1228 -288 1306 -9 
L 44 3319 
z
" transform="scale(0.015625)"/>
     </defs>
     <use xlink:href="#Arial-BoldMT-4d"/>
     <use xlink:href="#Arial-BoldMT-65" transform="translate(83.300781 0)"/>
     <use xlink:href="#Arial-BoldMT-64" transform="translate(138.916016 0)"/>
     <use xlink:href="#Arial-BoldMT-69" transform="translate(200 0)"/>
     <use xlink:href="#Arial-BoldMT-61" transform="translate(227.783203 0)"/>
     <use xlink:href="#Arial-BoldMT-74" transform="translate(283.398438 0)"/>
     <use xlink:href="#Arial-BoldMT-69" transform="translate(316.699219 0)"/>
     <use xlink:href="#Arial-BoldMT-6f" transform="translate(344.482422 0)"/>
     <use xlink:href="#Arial-BoldMT-6e" transform="translate(405.566406 0)"/>
     <use xlink:href="#Arial-BoldMT-20" transform="translate(466.650391 0)"/>
     <use xlink:href="#Arial-BoldMT-41" transform="translate(490.683594 0)"/>
     <use xlink:href="#Arial-BoldMT-6e" transform="translate(562.900391 0)"/>
     <use xlink:href="#Arial-BoldMT-61" transform="translate(623.984375 0)"/>
     <use xlink:href="#Arial-BoldMT-6c" transform="translate(679.599609 0)"/>
     <use xlink:href="#Arial-BoldMT-79" transform="translate(707.382812 0)"/>
     <use xlink:href="#Arial-BoldMT-73" transform="translate(762.998047 0)"/>
     <use xlink:href="#Arial-BoldMT-69" transform="translate(818.613281 0)"/>
     <use xlink:href="#Arial-BoldMT-73" transform="translate(846.396484 0)"/>
     <use xlink:href="#Arial-BoldMT-3a" transform="translate(902.011719 0)"/>
     <use xlink:href="#Arial-BoldMT-20" transform="translate(935.3125 0)"/>
     <use xlink:href="#Arial-BoldMT-54" transform="translate(963.095703 0)"/>
     <use xlink:href="#Arial-BoldMT-65" transform="translate(1016.804688 0)"/>
     <use xlink:href="#Arial-BoldMT-61" transform="translate(1072.419922 0)"/>
     <use xlink:href="#Arial-BoldMT-6d" transform="translate(1128.035156 0)"/>
     <use xlink:href="#Arial-BoldMT-20" transform="translate(1216.951172 0)"/>
     <use xlink:href="#Arial-BoldMT-53" transform="translate(1244.734375 0)"/>
     <use xlink:href="#Arial-BoldMT-69" transform="translate(1311.433594 0)"/>
     <use xlink:href="#Arial-BoldMT-7a" transform="translate(1339.216797 0)"/>
     <use xlink:href="#Arial-BoldMT-65" transform="translate(1389.216797 0)"/>
     <use xlink:href="#Arial-BoldMT-20" transform="translate(1444.832031 0)"/>
     <use xlink:href="#Arial-BoldMT-61" transform="translate(1472.615234 0)"/>
     <use xlink:href="#Arial-BoldMT-73" transform="translate(1528.230469 0)"/>
     <use xlink:href="#Arial-BoldMT-20" transform="translate(1583.845703 0)"/>
     <use xlink:href="#Arial-BoldMT-4d" transform="translate(1611.628906 0)"/>
     <use xlink:href="#Arial-BoldMT-65" transform="translate(1694.929688 0)"/>
     <use xlink:href="#Arial-BoldMT-64" transform="translate(1750.544922 0)"/>
     <use xlink:href="#Arial-BoldMT-69" transform="translate(1811.628906 0)"/>
     <use xlink:href="#Arial-BoldMT-61" transform="translate(1839.412109 0)"/>
     <use xlink:href="#Arial-BoldMT-74" transform="translate(1895.027344 0)"/>
     <use xlink:href="#Arial-BoldMT-6f" transform="translate(1928.328125 0)"/>
     <use xlink:href="#Arial-BoldMT-72" transform="translate(1989.412109 0)"/>
    </g>
   </g>
  </g>
 </g>
 <defs>
  <clipPath id="p00388d30d2">
   <rect x="7.2" y="22.663594" width="446.4" height="277.2"/>
  </clipPath>
 </defs>
</svg>
