<?xml version="1.0" encoding="utf-8" standalone="no"?>
<!DOCTYPE svg PUBLIC "-//W3C//DTD SVG 1.1//EN"
  "http://www.w3.org/Graphics/SVG/1.1/DTD/svg11.dtd">
<svg xmlns:xlink="http://www.w3.org/1999/xlink" width="854.705pt" height="351.664687pt" viewBox="0 0 854.705 351.664687" xmlns="http://www.w3.org/2000/svg" version="1.1">
 <metadata>
  <rdf:RDF xmlns:dc="http://purl.org/dc/elements/1.1/" xmlns:cc="http://creativecommons.org/ns#" xmlns:rdf="http://www.w3.org/1999/02/22-rdf-syntax-ns#">
   <cc:Work>
    <dc:type rdf:resource="http://purl.org/dc/dcmitype/StillImage"/>
    <dc:date>2026-04-13T22:31:32.595395</dc:date>
    <dc:format>image/svg+xml</dc:format>
    <dc:creator>
     <cc:Agent>
      <dc:title>Matplotlib v3.10.8, https://matplotlib.org/</dc:title>
     </cc:Agent>
    </dc:creator>
   </cc:Work>
  </rdf:RDF>
 </metadata>
 <defs>
  <style type="text/css">*{stroke-linejoin: round; stroke-linecap: butt}</style>
 </defs>
 <g id="figure_1">
  <g id="patch_1">
   <path d="M 0 351.664687 
L 854.705 351.664687 
L 854.705 0 
L 0 0 
z
" style="fill: #ffffff"/>
  </g>
  <g id="axes_1">
   <g id="patch_2">
    <path d="M 44.605 312.143594 
L 421.445 312.143594 
L 421.445 22.663594 
L 44.605 22.663594 
z
" style="fill: #ffffff"/>
   </g>
   <g id="patch_3">
    <path d="M 44.605 312.143594 
L 52.1418 312.143594 
L 52.1418 85.403971 
L 44.605 85.403971 
z
" clip-path="url(#p0022f7127c)" style="fill: #dc2626; opacity: 0.6"/>
   </g>
   <g id="patch_4">
    <path d="M 52.1418 312.143594 
L 59.6786 312.143594 
L 59.6786 231.535005 
L 52.1418 231.535005 
z
" clip-path="url(#p0022f7127c)" style="fill: #dc2626; opacity: 0.6"/>
   </g>
   <g id="patch_5">
    <path d="M 59.6786 312.143594 
L 67.2154 312.143594 
L 67.2154 240.867958 
L 59.6786 240.867958 
z
" clip-path="url(#p0022f7127c)" style="fill: #dc2626; opacity: 0.6"/>
   </g>
   <g id="patch_6">
    <path d="M 67.2154 312.143594 
L 74.7522 312.143594 
L 74.7522 258.447151 
L 67.2154 258.447151 
z
" clip-path="url(#p0022f7127c)" style="fill: #dc2626; opacity: 0.6"/>
   </g>
   <g id="patch_7">
    <path d="M 74.7522 312.143594 
L 82.289 312.143594 
L 82.289 270.52885 
L 74.7522 270.52885 
z
" clip-path="url(#p0022f7127c)" style="fill: #dc2626; opacity: 0.6"/>
   </g>
   <g id="patch_8">
    <path d="M 82.289 312.143594 
L 89.8258 312.143594 
L 89.8258 279.286485 
L 82.289 279.286485 
z
" clip-path="url(#p0022f7127c)" style="fill: #dc2626; opacity: 0.6"/>
   </g>
   <g id="patch_9">
    <path d="M 89.8258 312.143594 
L 97.3626 312.143594 
L 97.3626 282.802323 
L 89.8258 282.802323 
z
" clip-path="url(#p0022f7127c)" style="fill: #dc2626; opacity: 0.6"/>
   </g>
   <g id="patch_10">
    <path d="M 97.3626 312.143594 
L 104.8994 312.143594 
L 104.8994 289.322605 
L 97.3626 289.322605 
z
" clip-path="url(#p0022f7127c)" style="fill: #dc2626; opacity: 0.6"/>
   </g>
   <g id="patch_11">
    <path d="M 104.8994 312.143594 
L 112.4362 312.143594 
L 112.4362 295.075796 
L 104.8994 295.075796 
z
" clip-path="url(#p0022f7127c)" style="fill: #dc2626; opacity: 0.6"/>
   </g>
   <g id="patch_12">
    <path d="M 112.4362 312.143594 
L 119.973 312.143594 
L 119.973 297.888467 
L 112.4362 297.888467 
z
" clip-path="url(#p0022f7127c)" style="fill: #dc2626; opacity: 0.6"/>
   </g>
   <g id="patch_13">
    <path d="M 119.973 312.143594 
L 127.5098 312.143594 
L 127.5098 298.335937 
L 119.973 298.335937 
z
" clip-path="url(#p0022f7127c)" style="fill: #dc2626; opacity: 0.6"/>
   </g>
   <g id="patch_14">
    <path d="M 127.5098 312.143594 
L 135.0466 312.143594 
L 135.0466 300.828986 
L 127.5098 300.828986 
z
" clip-path="url(#p0022f7127c)" style="fill: #dc2626; opacity: 0.6"/>
   </g>
   <g id="patch_15">
    <path d="M 135.0466 312.143594 
L 142.5834 312.143594 
L 142.5834 303.066338 
L 135.0466 303.066338 
z
" clip-path="url(#p0022f7127c)" style="fill: #dc2626; opacity: 0.6"/>
   </g>
   <g id="patch_16">
    <path d="M 142.5834 312.143594 
L 150.1202 312.143594 
L 150.1202 304.344825 
L 142.5834 304.344825 
z
" clip-path="url(#p0022f7127c)" style="fill: #dc2626; opacity: 0.6"/>
   </g>
   <g id="patch_17">
    <path d="M 150.1202 312.143594 
L 157.657 312.143594 
L 157.657 305.942933 
L 150.1202 305.942933 
z
" clip-path="url(#p0022f7127c)" style="fill: #dc2626; opacity: 0.6"/>
   </g>
   <g id="patch_18">
    <path d="M 157.657 312.143594 
L 165.1938 312.143594 
L 165.1938 305.815084 
L 157.657 305.815084 
z
" clip-path="url(#p0022f7127c)" style="fill: #dc2626; opacity: 0.6"/>
   </g>
   <g id="patch_19">
    <path d="M 165.1938 312.143594 
L 172.7306 312.143594 
L 172.7306 306.070782 
L 165.1938 306.070782 
z
" clip-path="url(#p0022f7127c)" style="fill: #dc2626; opacity: 0.6"/>
   </g>
   <g id="patch_20">
    <path d="M 172.7306 312.143594 
L 180.2674 312.143594 
L 180.2674 306.901798 
L 172.7306 306.901798 
z
" clip-path="url(#p0022f7127c)" style="fill: #dc2626; opacity: 0.6"/>
   </g>
   <g id="patch_21">
    <path d="M 180.2674 312.143594 
L 187.8042 312.143594 
L 187.8042 308.627755 
L 180.2674 308.627755 
z
" clip-path="url(#p0022f7127c)" style="fill: #dc2626; opacity: 0.6"/>
   </g>
   <g id="patch_22">
    <path d="M 187.8042 312.143594 
L 195.341 312.143594 
L 195.341 309.075226 
L 187.8042 309.075226 
z
" clip-path="url(#p0022f7127c)" style="fill: #dc2626; opacity: 0.6"/>
   </g>
   <g id="patch_23">
    <path d="M 195.341 312.143594 
L 202.8778 312.143594 
L 202.8778 308.947377 
L 195.341 308.947377 
z
" clip-path="url(#p0022f7127c)" style="fill: #dc2626; opacity: 0.6"/>
   </g>
   <g id="patch_24">
    <path d="M 202.8778 312.143594 
L 210.4146 312.143594 
L 210.4146 308.372058 
L 202.8778 308.372058 
z
" clip-path="url(#p0022f7127c)" style="fill: #dc2626; opacity: 0.6"/>
   </g>
   <g id="patch_25">
    <path d="M 210.4146 312.143594 
L 217.9514 312.143594 
L 217.9514 309.714469 
L 210.4146 309.714469 
z
" clip-path="url(#p0022f7127c)" style="fill: #dc2626; opacity: 0.6"/>
   </g>
   <g id="patch_26">
    <path d="M 217.9514 312.143594 
L 225.4882 312.143594 
L 225.4882 309.778393 
L 217.9514 309.778393 
z
" clip-path="url(#p0022f7127c)" style="fill: #dc2626; opacity: 0.6"/>
   </g>
   <g id="patch_27">
    <path d="M 225.4882 312.143594 
L 233.025 312.143594 
L 233.025 309.970166 
L 225.4882 309.970166 
z
" clip-path="url(#p0022f7127c)" style="fill: #dc2626; opacity: 0.6"/>
   </g>
   <g id="patch_28">
    <path d="M 233.025 312.143594 
L 240.5618 312.143594 
L 240.5618 309.842318 
L 233.025 309.842318 
z
" clip-path="url(#p0022f7127c)" style="fill: #dc2626; opacity: 0.6"/>
   </g>
   <g id="patch_29">
    <path d="M 240.5618 312.143594 
L 248.0986 312.143594 
L 248.0986 310.801183 
L 240.5618 310.801183 
z
" clip-path="url(#p0022f7127c)" style="fill: #dc2626; opacity: 0.6"/>
   </g>
   <g id="patch_30">
    <path d="M 248.0986 312.143594 
L 255.6354 312.143594 
L 255.6354 310.225864 
L 248.0986 310.225864 
z
" clip-path="url(#p0022f7127c)" style="fill: #dc2626; opacity: 0.6"/>
   </g>
   <g id="patch_31">
    <path d="M 255.6354 312.143594 
L 263.1722 312.143594 
L 263.1722 310.801183 
L 255.6354 310.801183 
z
" clip-path="url(#p0022f7127c)" style="fill: #dc2626; opacity: 0.6"/>
   </g>
   <g id="patch_32">
    <path d="M 263.1722 312.143594 
L 270.709 312.143594 
L 270.709 310.801183 
L 263.1722 310.801183 
z
" clip-path="url(#p0022f7127c)" style="fill: #dc2626; opacity: 0.6"/>
   </g>
   <g id="patch_33">
    <path d="M 270.709 312.143594 
L 278.2458 312.143594 
L 278.2458 310.60941 
L 270.709 310.60941 
z
" clip-path="url(#p0022f7127c)" style="fill: #dc2626; opacity: 0.6"/>
   </g>
   <g id="patch_34">
    <path d="M 278.2458 312.143594 
L 285.7826 312.143594 
L 285.7826 310.929031 
L 278.2458 310.929031 
z
" clip-path="url(#p0022f7127c)" style="fill: #dc2626; opacity: 0.6"/>
   </g>
   <g id="patch_35">
    <path d="M 285.7826 312.143594 
L 293.3194 312.143594 
L 293.3194 311.120804 
L 285.7826 311.120804 
z
" clip-path="url(#p0022f7127c)" style="fill: #dc2626; opacity: 0.6"/>
   </g>
   <g id="patch_36">
    <path d="M 293.3194 312.143594 
L 300.8562 312.143594 
L 300.8562 311.50435 
L 293.3194 311.50435 
z
" clip-path="url(#p0022f7127c)" style="fill: #dc2626; opacity: 0.6"/>
   </g>
   <g id="patch_37">
    <path d="M 300.8562 312.143594 
L 308.393 312.143594 
L 308.393 311.376502 
L 300.8562 311.376502 
z
" clip-path="url(#p0022f7127c)" style="fill: #dc2626; opacity: 0.6"/>
   </g>
   <g id="patch_38">
    <path d="M 308.393 312.143594 
L 315.9298 312.143594 
L 315.9298 311.823972 
L 308.393 311.823972 
z
" clip-path="url(#p0022f7127c)" style="fill: #dc2626; opacity: 0.6"/>
   </g>
   <g id="patch_39">
    <path d="M 315.9298 312.143594 
L 323.4666 312.143594 
L 323.4666 311.05688 
L 315.9298 311.05688 
z
" clip-path="url(#p0022f7127c)" style="fill: #dc2626; opacity: 0.6"/>
   </g>
   <g id="patch_40">
    <path d="M 323.4666 312.143594 
L 331.0034 312.143594 
L 331.0034 311.248653 
L 323.4666 311.248653 
z
" clip-path="url(#p0022f7127c)" style="fill: #dc2626; opacity: 0.6"/>
   </g>
   <g id="patch_41">
    <path d="M 331.0034 312.143594 
L 338.5402 312.143594 
L 338.5402 311.632199 
L 331.0034 311.632199 
z
" clip-path="url(#p0022f7127c)" style="fill: #dc2626; opacity: 0.6"/>
   </g>
   <g id="patch_42">
    <path d="M 338.5402 312.143594 
L 346.077 312.143594 
L 346.077 311.696123 
L 338.5402 311.696123 
z
" clip-path="url(#p0022f7127c)" style="fill: #dc2626; opacity: 0.6"/>
   </g>
   <g id="patch_43">
    <path d="M 346.077 312.143594 
L 353.6138 312.143594 
L 353.6138 311.823972 
L 346.077 311.823972 
z
" clip-path="url(#p0022f7127c)" style="fill: #dc2626; opacity: 0.6"/>
   </g>
   <g id="patch_44">
    <path d="M 353.6138 312.143594 
L 361.1506 312.143594 
L 361.1506 311.568275 
L 353.6138 311.568275 
z
" clip-path="url(#p0022f7127c)" style="fill: #dc2626; opacity: 0.6"/>
   </g>
   <g id="patch_45">
    <path d="M 361.1506 312.143594 
L 368.6874 312.143594 
L 368.6874 311.568275 
L 361.1506 311.568275 
z
" clip-path="url(#p0022f7127c)" style="fill: #dc2626; opacity: 0.6"/>
   </g>
   <g id="patch_46">
    <path d="M 368.6874 312.143594 
L 376.2242 312.143594 
L 376.2242 311.951821 
L 368.6874 311.951821 
z
" clip-path="url(#p0022f7127c)" style="fill: #dc2626; opacity: 0.6"/>
   </g>
   <g id="patch_47">
    <path d="M 376.2242 312.143594 
L 383.761 312.143594 
L 383.761 311.887896 
L 376.2242 311.887896 
z
" clip-path="url(#p0022f7127c)" style="fill: #dc2626; opacity: 0.6"/>
   </g>
   <g id="patch_48">
    <path d="M 383.761 312.143594 
L 391.2978 312.143594 
L 391.2978 311.887896 
L 383.761 311.887896 
z
" clip-path="url(#p0022f7127c)" style="fill: #dc2626; opacity: 0.6"/>
   </g>
   <g id="patch_49">
    <path d="M 391.2978 312.143594 
L 398.8346 312.143594 
L 398.8346 311.696123 
L 391.2978 311.696123 
z
" clip-path="url(#p0022f7127c)" style="fill: #dc2626; opacity: 0.6"/>
   </g>
   <g id="patch_50">
    <path d="M 398.8346 312.143594 
L 406.3714 312.143594 
L 406.3714 311.823972 
L 398.8346 311.823972 
z
" clip-path="url(#p0022f7127c)" style="fill: #dc2626; opacity: 0.6"/>
   </g>
   <g id="patch_51">
    <path d="M 406.3714 312.143594 
L 413.9082 312.143594 
L 413.9082 311.951821 
L 406.3714 311.951821 
z
" clip-path="url(#p0022f7127c)" style="fill: #dc2626; opacity: 0.6"/>
   </g>
   <g id="patch_52">
    <path d="M 413.9082 312.143594 
L 421.445 312.143594 
L 421.445 300.89291 
L 413.9082 300.89291 
z
" clip-path="url(#p0022f7127c)" style="fill: #dc2626; opacity: 0.6"/>
   </g>
   <g id="patch_53">
    <path d="M 44.605 312.143594 
L 52.1418 312.143594 
L 52.1418 36.448356 
L 44.605 36.448356 
z
" clip-path="url(#p0022f7127c)" style="fill: #059669; opacity: 0.6"/>
   </g>
   <g id="patch_54">
    <path d="M 52.1418 312.143594 
L 59.6786 312.143594 
L 59.6786 218.988255 
L 52.1418 218.988255 
z
" clip-path="url(#p0022f7127c)" style="fill: #059669; opacity: 0.6"/>
   </g>
   <g id="patch_55">
    <path d="M 59.6786 312.143594 
L 67.2154 312.143594 
L 67.2154 238.270639 
L 59.6786 238.270639 
z
" clip-path="url(#p0022f7127c)" style="fill: #059669; opacity: 0.6"/>
   </g>
   <g id="patch_56">
    <path d="M 67.2154 312.143594 
L 74.7522 312.143594 
L 74.7522 260.295406 
L 67.2154 260.295406 
z
" clip-path="url(#p0022f7127c)" style="fill: #059669; opacity: 0.6"/>
   </g>
   <g id="patch_57">
    <path d="M 74.7522 312.143594 
L 82.289 312.143594 
L 82.289 274.950018 
L 74.7522 274.950018 
z
" clip-path="url(#p0022f7127c)" style="fill: #059669; opacity: 0.6"/>
   </g>
   <g id="patch_58">
    <path d="M 82.289 312.143594 
L 89.8258 312.143594 
L 89.8258 281.805977 
L 82.289 281.805977 
z
" clip-path="url(#p0022f7127c)" style="fill: #059669; opacity: 0.6"/>
   </g>
   <g id="patch_59">
    <path d="M 89.8258 312.143594 
L 97.3626 312.143594 
L 97.3626 288.147738 
L 89.8258 288.147738 
z
" clip-path="url(#p0022f7127c)" style="fill: #059669; opacity: 0.6"/>
   </g>
   <g id="patch_60">
    <path d="M 97.3626 312.143594 
L 104.8994 312.143594 
L 104.8994 292.689811 
L 97.3626 292.689811 
z
" clip-path="url(#p0022f7127c)" style="fill: #059669; opacity: 0.6"/>
   </g>
   <g id="patch_61">
    <path d="M 104.8994 312.143594 
L 112.4362 312.143594 
L 112.4362 295.860692 
L 104.8994 295.860692 
z
" clip-path="url(#p0022f7127c)" style="fill: #059669; opacity: 0.6"/>
   </g>
   <g id="patch_62">
    <path d="M 112.4362 312.143594 
L 119.973 312.143594 
L 119.973 299.46007 
L 112.4362 299.46007 
z
" clip-path="url(#p0022f7127c)" style="fill: #059669; opacity: 0.6"/>
   </g>
   <g id="patch_63">
    <path d="M 119.973 312.143594 
L 127.5098 312.143594 
L 127.5098 300.831262 
L 119.973 300.831262 
z
" clip-path="url(#p0022f7127c)" style="fill: #059669; opacity: 0.6"/>
   </g>
   <g id="patch_64">
    <path d="M 127.5098 312.143594 
L 135.0466 312.143594 
L 135.0466 302.545252 
L 127.5098 302.545252 
z
" clip-path="url(#p0022f7127c)" style="fill: #059669; opacity: 0.6"/>
   </g>
   <g id="patch_65">
    <path d="M 135.0466 312.143594 
L 142.5834 312.143594 
L 142.5834 304.51634 
L 135.0466 304.51634 
z
" clip-path="url(#p0022f7127c)" style="fill: #059669; opacity: 0.6"/>
   </g>
   <g id="patch_66">
    <path d="M 142.5834 312.143594 
L 150.1202 312.143594 
L 150.1202 305.801832 
L 142.5834 305.801832 
z
" clip-path="url(#p0022f7127c)" style="fill: #059669; opacity: 0.6"/>
   </g>
   <g id="patch_67">
    <path d="M 150.1202 312.143594 
L 157.657 312.143594 
L 157.657 307.77292 
L 150.1202 307.77292 
z
" clip-path="url(#p0022f7127c)" style="fill: #059669; opacity: 0.6"/>
   </g>
   <g id="patch_68">
    <path d="M 157.657 312.143594 
L 165.1938 312.143594 
L 165.1938 308.372816 
L 157.657 308.372816 
z
" clip-path="url(#p0022f7127c)" style="fill: #059669; opacity: 0.6"/>
   </g>
   <g id="patch_69">
    <path d="M 165.1938 312.143594 
L 172.7306 312.143594 
L 172.7306 308.201418 
L 165.1938 308.201418 
z
" clip-path="url(#p0022f7127c)" style="fill: #059669; opacity: 0.6"/>
   </g>
   <g id="patch_70">
    <path d="M 172.7306 312.143594 
L 180.2674 312.143594 
L 180.2674 309.48691 
L 172.7306 309.48691 
z
" clip-path="url(#p0022f7127c)" style="fill: #059669; opacity: 0.6"/>
   </g>
   <g id="patch_71">
    <path d="M 180.2674 312.143594 
L 187.8042 312.143594 
L 187.8042 310.001107 
L 180.2674 310.001107 
z
" clip-path="url(#p0022f7127c)" style="fill: #059669; opacity: 0.6"/>
   </g>
   <g id="patch_72">
    <path d="M 187.8042 312.143594 
L 195.341 312.143594 
L 195.341 310.258205 
L 187.8042 310.258205 
z
" clip-path="url(#p0022f7127c)" style="fill: #059669; opacity: 0.6"/>
   </g>
   <g id="patch_73">
    <path d="M 195.341 312.143594 
L 202.8778 312.143594 
L 202.8778 310.001107 
L 195.341 310.001107 
z
" clip-path="url(#p0022f7127c)" style="fill: #059669; opacity: 0.6"/>
   </g>
   <g id="patch_74">
    <path d="M 202.8778 312.143594 
L 210.4146 312.143594 
L 210.4146 310.601003 
L 202.8778 310.601003 
z
" clip-path="url(#p0022f7127c)" style="fill: #059669; opacity: 0.6"/>
   </g>
   <g id="patch_75">
    <path d="M 210.4146 312.143594 
L 217.9514 312.143594 
L 217.9514 310.772402 
L 210.4146 310.772402 
z
" clip-path="url(#p0022f7127c)" style="fill: #059669; opacity: 0.6"/>
   </g>
   <g id="patch_76">
    <path d="M 217.9514 312.143594 
L 225.4882 312.143594 
L 225.4882 310.772402 
L 217.9514 310.772402 
z
" clip-path="url(#p0022f7127c)" style="fill: #059669; opacity: 0.6"/>
   </g>
   <g id="patch_77">
    <path d="M 225.4882 312.143594 
L 233.025 312.143594 
L 233.025 311.0295 
L 225.4882 311.0295 
z
" clip-path="url(#p0022f7127c)" style="fill: #059669; opacity: 0.6"/>
   </g>
   <g id="patch_78">
    <path d="M 233.025 312.143594 
L 240.5618 312.143594 
L 240.5618 310.686703 
L 233.025 310.686703 
z
" clip-path="url(#p0022f7127c)" style="fill: #059669; opacity: 0.6"/>
   </g>
   <g id="patch_79">
    <path d="M 240.5618 312.143594 
L 248.0986 312.143594 
L 248.0986 311.715096 
L 240.5618 311.715096 
z
" clip-path="url(#p0022f7127c)" style="fill: #059669; opacity: 0.6"/>
   </g>
   <g id="patch_80">
    <path d="M 248.0986 312.143594 
L 255.6354 312.143594 
L 255.6354 311.543697 
L 248.0986 311.543697 
z
" clip-path="url(#p0022f7127c)" style="fill: #059669; opacity: 0.6"/>
   </g>
   <g id="patch_81">
    <path d="M 255.6354 312.143594 
L 263.1722 312.143594 
L 263.1722 311.286599 
L 255.6354 311.286599 
z
" clip-path="url(#p0022f7127c)" style="fill: #059669; opacity: 0.6"/>
   </g>
   <g id="patch_82">
    <path d="M 263.1722 312.143594 
L 270.709 312.143594 
L 270.709 311.715096 
L 263.1722 311.715096 
z
" clip-path="url(#p0022f7127c)" style="fill: #059669; opacity: 0.6"/>
   </g>
   <g id="patch_83">
    <path d="M 270.709 312.143594 
L 278.2458 312.143594 
L 278.2458 311.372298 
L 270.709 311.372298 
z
" clip-path="url(#p0022f7127c)" style="fill: #059669; opacity: 0.6"/>
   </g>
   <g id="patch_84">
    <path d="M 278.2458 312.143594 
L 285.7826 312.143594 
L 285.7826 311.372298 
L 278.2458 311.372298 
z
" clip-path="url(#p0022f7127c)" style="fill: #059669; opacity: 0.6"/>
   </g>
   <g id="patch_85">
    <path d="M 285.7826 312.143594 
L 293.3194 312.143594 
L 293.3194 311.715096 
L 285.7826 311.715096 
z
" clip-path="url(#p0022f7127c)" style="fill: #059669; opacity: 0.6"/>
   </g>
   <g id="patch_86">
    <path d="M 293.3194 312.143594 
L 300.8562 312.143594 
L 300.8562 311.372298 
L 293.3194 311.372298 
z
" clip-path="url(#p0022f7127c)" style="fill: #059669; opacity: 0.6"/>
   </g>
   <g id="patch_87">
    <path d="M 300.8562 312.143594 
L 308.393 312.143594 
L 308.393 311.800796 
L 300.8562 311.800796 
z
" clip-path="url(#p0022f7127c)" style="fill: #059669; opacity: 0.6"/>
   </g>
   <g id="patch_88">
    <path d="M 308.393 312.143594 
L 315.9298 312.143594 
L 315.9298 311.629397 
L 308.393 311.629397 
z
" clip-path="url(#p0022f7127c)" style="fill: #059669; opacity: 0.6"/>
   </g>
   <g id="patch_89">
    <path d="M 315.9298 312.143594 
L 323.4666 312.143594 
L 323.4666 312.057894 
L 315.9298 312.057894 
z
" clip-path="url(#p0022f7127c)" style="fill: #059669; opacity: 0.6"/>
   </g>
   <g id="patch_90">
    <path d="M 323.4666 312.143594 
L 331.0034 312.143594 
L 331.0034 311.629397 
L 323.4666 311.629397 
z
" clip-path="url(#p0022f7127c)" style="fill: #059669; opacity: 0.6"/>
   </g>
   <g id="patch_91">
    <path d="M 331.0034 312.143594 
L 338.5402 312.143594 
L 338.5402 312.057894 
L 331.0034 312.057894 
z
" clip-path="url(#p0022f7127c)" style="fill: #059669; opacity: 0.6"/>
   </g>
   <g id="patch_92">
    <path d="M 338.5402 312.143594 
L 346.077 312.143594 
L 346.077 311.886495 
L 338.5402 311.886495 
z
" clip-path="url(#p0022f7127c)" style="fill: #059669; opacity: 0.6"/>
   </g>
   <g id="patch_93">
    <path d="M 346.077 312.143594 
L 353.6138 312.143594 
L 353.6138 312.057894 
L 346.077 312.057894 
z
" clip-path="url(#p0022f7127c)" style="fill: #059669; opacity: 0.6"/>
   </g>
   <g id="patch_94">
    <path d="M 353.6138 312.143594 
L 361.1506 312.143594 
L 361.1506 311.800796 
L 353.6138 311.800796 
z
" clip-path="url(#p0022f7127c)" style="fill: #059669; opacity: 0.6"/>
   </g>
   <g id="patch_95">
    <path d="M 361.1506 312.143594 
L 368.6874 312.143594 
L 368.6874 311.800796 
L 361.1506 311.800796 
z
" clip-path="url(#p0022f7127c)" style="fill: #059669; opacity: 0.6"/>
   </g>
   <g id="patch_96">
    <path d="M 368.6874 312.143594 
L 376.2242 312.143594 
L 376.2242 312.057894 
L 368.6874 312.057894 
z
" clip-path="url(#p0022f7127c)" style="fill: #059669; opacity: 0.6"/>
   </g>
   <g id="patch_97">
    <path d="M 376.2242 312.143594 
L 383.761 312.143594 
L 383.761 311.972195 
L 376.2242 311.972195 
z
" clip-path="url(#p0022f7127c)" style="fill: #059669; opacity: 0.6"/>
   </g>
   <g id="patch_98">
    <path d="M 383.761 312.143594 
L 391.2978 312.143594 
L 391.2978 312.057894 
L 383.761 312.057894 
z
" clip-path="url(#p0022f7127c)" style="fill: #059669; opacity: 0.6"/>
   </g>
   <g id="patch_99">
    <path d="M 391.2978 312.143594 
L 398.8346 312.143594 
L 398.8346 312.143594 
L 391.2978 312.143594 
z
" clip-path="url(#p0022f7127c)" style="fill: #059669; opacity: 0.6"/>
   </g>
   <g id="patch_100">
    <path d="M 398.8346 312.143594 
L 406.3714 312.143594 
L 406.3714 311.800796 
L 398.8346 311.800796 
z
" clip-path="url(#p0022f7127c)" style="fill: #059669; opacity: 0.6"/>
   </g>
   <g id="patch_101">
    <path d="M 406.3714 312.143594 
L 413.9082 312.143594 
L 413.9082 312.057894 
L 406.3714 312.057894 
z
" clip-path="url(#p0022f7127c)" style="fill: #059669; opacity: 0.6"/>
   </g>
   <g id="patch_102">
    <path d="M 413.9082 312.143594 
L 421.445 312.143594 
L 421.445 310.001107 
L 413.9082 310.001107 
z
" clip-path="url(#p0022f7127c)" style="fill: #059669; opacity: 0.6"/>
   </g>
   <g id="matplotlib.axis_1">
    <g id="xtick_1">
     <g id="line2d_1">
      <defs>
       <path id="m7a141b15ac" d="M 0 0 
L 0 3.5 
" style="stroke: #000000; stroke-width: 0.8"/>
      </defs>
      <g>
       <use xlink:href="#m7a141b15ac" x="44.605" y="312.143594" style="stroke: #000000; stroke-width: 0.8"/>
      </g>
     </g>
     <g id="text_1">
      <!-- 0 -->
      <g transform="translate(41.546484 327.017187) scale(0.11 -0.11)">
       <defs>
        <path id="ArialMT-30" d="M 266 2259 
Q 266 3072 433 3567 
Q 600 4063 929 4331 
Q 1259 4600 1759 4600 
Q 2128 4600 2406 4451 
Q 2684 4303 2865 4023 
Q 3047 3744 3150 3342 
Q 3253 2941 3253 2259 
Q 3253 1453 3087 958 
Q 2922 463 2592 192 
Q 2263 -78 1759 -78 
Q 1097 -78 719 397 
Q 266 969 266 2259 
z
M 844 2259 
Q 844 1131 1108 757 
Q 1372 384 1759 384 
Q 2147 384 2411 759 
Q 2675 1134 2675 2259 
Q 2675 3391 2411 3762 
Q 2147 4134 1753 4134 
Q 1366 4134 1134 3806 
Q 844 3388 844 2259 
z
" transform="scale(0.015625)"/>
       </defs>
       <use xlink:href="#ArialMT-30"/>
      </g>
     </g>
    </g>
    <g id="xtick_2">
     <g id="line2d_2">
      <g>
       <use xlink:href="#m7a141b15ac" x="117.221116" y="312.143594" style="stroke: #000000; stroke-width: 0.8"/>
      </g>
     </g>
     <g id="text_2">
      <!-- 5 -->
      <g transform="translate(114.162601 327.017187) scale(0.11 -0.11)">
       <defs>
        <path id="ArialMT-35" d="M 266 1200 
L 856 1250 
Q 922 819 1161 601 
Q 1400 384 1738 384 
Q 2144 384 2425 690 
Q 2706 997 2706 1503 
Q 2706 1984 2436 2262 
Q 2166 2541 1728 2541 
Q 1456 2541 1237 2417 
Q 1019 2294 894 2097 
L 366 2166 
L 809 4519 
L 3088 4519 
L 3088 3981 
L 1259 3981 
L 1013 2750 
Q 1425 3038 1878 3038 
Q 2478 3038 2890 2622 
Q 3303 2206 3303 1553 
Q 3303 931 2941 478 
Q 2500 -78 1738 -78 
Q 1113 -78 717 272 
Q 322 622 266 1200 
z
" transform="scale(0.015625)"/>
       </defs>
       <use xlink:href="#ArialMT-35"/>
      </g>
     </g>
    </g>
    <g id="xtick_3">
     <g id="line2d_3">
      <g>
       <use xlink:href="#m7a141b15ac" x="189.837233" y="312.143594" style="stroke: #000000; stroke-width: 0.8"/>
      </g>
     </g>
     <g id="text_3">
      <!-- 10 -->
      <g transform="translate(183.720202 327.017187) scale(0.11 -0.11)">
       <defs>
        <path id="ArialMT-31" d="M 2384 0 
L 1822 0 
L 1822 3584 
Q 1619 3391 1289 3197 
Q 959 3003 697 2906 
L 697 3450 
Q 1169 3672 1522 3987 
Q 1875 4303 2022 4600 
L 2384 4600 
L 2384 0 
z
" transform="scale(0.015625)"/>
       </defs>
       <use xlink:href="#ArialMT-31"/>
       <use xlink:href="#ArialMT-30" transform="translate(55.615234 0)"/>
      </g>
     </g>
    </g>
    <g id="xtick_4">
     <g id="line2d_4">
      <g>
       <use xlink:href="#m7a141b15ac" x="262.453349" y="312.143594" style="stroke: #000000; stroke-width: 0.8"/>
      </g>
     </g>
     <g id="text_4">
      <!-- 15 -->
      <g transform="translate(256.336318 327.017187) scale(0.11 -0.11)">
       <use xlink:href="#ArialMT-31"/>
       <use xlink:href="#ArialMT-35" transform="translate(55.615234 0)"/>
      </g>
     </g>
    </g>
    <g id="xtick_5">
     <g id="line2d_5">
      <g>
       <use xlink:href="#m7a141b15ac" x="335.069466" y="312.143594" style="stroke: #000000; stroke-width: 0.8"/>
      </g>
     </g>
     <g id="text_5">
      <!-- 20 -->
      <g transform="translate(328.952434 327.017187) scale(0.11 -0.11)">
       <defs>
        <path id="ArialMT-32" d="M 3222 541 
L 3222 0 
L 194 0 
Q 188 203 259 391 
Q 375 700 629 1000 
Q 884 1300 1366 1694 
Q 2113 2306 2375 2664 
Q 2638 3022 2638 3341 
Q 2638 3675 2398 3904 
Q 2159 4134 1775 4134 
Q 1369 4134 1125 3890 
Q 881 3647 878 3216 
L 300 3275 
Q 359 3922 746 4261 
Q 1134 4600 1788 4600 
Q 2447 4600 2831 4234 
Q 3216 3869 3216 3328 
Q 3216 3053 3103 2787 
Q 2991 2522 2730 2228 
Q 2469 1934 1863 1422 
Q 1356 997 1212 845 
Q 1069 694 975 541 
L 3222 541 
z
" transform="scale(0.015625)"/>
       </defs>
       <use xlink:href="#ArialMT-32"/>
       <use xlink:href="#ArialMT-30" transform="translate(55.615234 0)"/>
      </g>
     </g>
    </g>
    <g id="xtick_6">
     <g id="line2d_6">
      <g>
       <use xlink:href="#m7a141b15ac" x="407.685582" y="312.143594" style="stroke: #000000; stroke-width: 0.8"/>
      </g>
     </g>
     <g id="text_6">
      <!-- 25 -->
      <g transform="translate(401.568551 327.017187) scale(0.11 -0.11)">
       <use xlink:href="#ArialMT-32"/>
       <use xlink:href="#ArialMT-35" transform="translate(55.615234 0)"/>
      </g>
     </g>
    </g>
    <g id="text_7">
     <!-- FWCI (winsorized) -->
     <g transform="translate(183.690937 341.939062) scale(0.12 -0.12)">
      <defs>
       <path id="ArialMT-46" d="M 525 0 
L 525 4581 
L 3616 4581 
L 3616 4041 
L 1131 4041 
L 1131 2622 
L 3281 2622 
L 3281 2081 
L 1131 2081 
L 1131 0 
L 525 0 
z
" transform="scale(0.015625)"/>
       <path id="ArialMT-57" d="M 1294 0 
L 78 4581 
L 700 4581 
L 1397 1578 
Q 1509 1106 1591 641 
Q 1766 1375 1797 1488 
L 2669 4581 
L 3400 4581 
L 4056 2263 
Q 4303 1400 4413 641 
Q 4500 1075 4641 1638 
L 5359 4581 
L 5969 4581 
L 4713 0 
L 4128 0 
L 3163 3491 
Q 3041 3928 3019 4028 
Q 2947 3713 2884 3491 
L 1913 0 
L 1294 0 
z
" transform="scale(0.015625)"/>
       <path id="ArialMT-43" d="M 3763 1606 
L 4369 1453 
Q 4178 706 3683 314 
Q 3188 -78 2472 -78 
Q 1731 -78 1267 223 
Q 803 525 561 1097 
Q 319 1669 319 2325 
Q 319 3041 592 3573 
Q 866 4106 1370 4382 
Q 1875 4659 2481 4659 
Q 3169 4659 3637 4309 
Q 4106 3959 4291 3325 
L 3694 3184 
Q 3534 3684 3231 3912 
Q 2928 4141 2469 4141 
Q 1941 4141 1586 3887 
Q 1231 3634 1087 3207 
Q 944 2781 944 2328 
Q 944 1744 1114 1308 
Q 1284 872 1643 656 
Q 2003 441 2422 441 
Q 2931 441 3284 734 
Q 3638 1028 3763 1606 
z
" transform="scale(0.015625)"/>
       <path id="ArialMT-49" d="M 597 0 
L 597 4581 
L 1203 4581 
L 1203 0 
L 597 0 
z
" transform="scale(0.015625)"/>
       <path id="ArialMT-20" transform="scale(0.015625)"/>
       <path id="ArialMT-28" d="M 1497 -1347 
Q 1031 -759 709 28 
Q 388 816 388 1659 
Q 388 2403 628 3084 
Q 909 3875 1497 4659 
L 1900 4659 
Q 1522 4009 1400 3731 
Q 1209 3300 1100 2831 
Q 966 2247 966 1656 
Q 966 153 1900 -1347 
L 1497 -1347 
z
" transform="scale(0.015625)"/>
       <path id="ArialMT-77" d="M 1034 0 
L 19 3319 
L 600 3319 
L 1128 1403 
L 1325 691 
Q 1338 744 1497 1375 
L 2025 3319 
L 2603 3319 
L 3100 1394 
L 3266 759 
L 3456 1400 
L 4025 3319 
L 4572 3319 
L 3534 0 
L 2950 0 
L 2422 1988 
L 2294 2553 
L 1622 0 
L 1034 0 
z
" transform="scale(0.015625)"/>
       <path id="ArialMT-69" d="M 425 3934 
L 425 4581 
L 988 4581 
L 988 3934 
L 425 3934 
z
M 425 0 
L 425 3319 
L 988 3319 
L 988 0 
L 425 0 
z
" transform="scale(0.015625)"/>
       <path id="ArialMT-6e" d="M 422 0 
L 422 3319 
L 928 3319 
L 928 2847 
Q 1294 3394 1984 3394 
Q 2284 3394 2536 3286 
Q 2788 3178 2913 3003 
Q 3038 2828 3088 2588 
Q 3119 2431 3119 2041 
L 3119 0 
L 2556 0 
L 2556 2019 
Q 2556 2363 2490 2533 
Q 2425 2703 2258 2804 
Q 2091 2906 1866 2906 
Q 1506 2906 1245 2678 
Q 984 2450 984 1813 
L 984 0 
L 422 0 
z
" transform="scale(0.015625)"/>
       <path id="ArialMT-73" d="M 197 991 
L 753 1078 
Q 800 744 1014 566 
Q 1228 388 1613 388 
Q 2000 388 2187 545 
Q 2375 703 2375 916 
Q 2375 1106 2209 1216 
Q 2094 1291 1634 1406 
Q 1016 1563 777 1677 
Q 538 1791 414 1992 
Q 291 2194 291 2438 
Q 291 2659 392 2848 
Q 494 3038 669 3163 
Q 800 3259 1026 3326 
Q 1253 3394 1513 3394 
Q 1903 3394 2198 3281 
Q 2494 3169 2634 2976 
Q 2775 2784 2828 2463 
L 2278 2388 
Q 2241 2644 2061 2787 
Q 1881 2931 1553 2931 
Q 1166 2931 1000 2803 
Q 834 2675 834 2503 
Q 834 2394 903 2306 
Q 972 2216 1119 2156 
Q 1203 2125 1616 2013 
Q 2213 1853 2448 1751 
Q 2684 1650 2818 1456 
Q 2953 1263 2953 975 
Q 2953 694 2789 445 
Q 2625 197 2315 61 
Q 2006 -75 1616 -75 
Q 969 -75 630 194 
Q 291 463 197 991 
z
" transform="scale(0.015625)"/>
       <path id="ArialMT-6f" d="M 213 1659 
Q 213 2581 725 3025 
Q 1153 3394 1769 3394 
Q 2453 3394 2887 2945 
Q 3322 2497 3322 1706 
Q 3322 1066 3130 698 
Q 2938 331 2570 128 
Q 2203 -75 1769 -75 
Q 1072 -75 642 372 
Q 213 819 213 1659 
z
M 791 1659 
Q 791 1022 1069 705 
Q 1347 388 1769 388 
Q 2188 388 2466 706 
Q 2744 1025 2744 1678 
Q 2744 2294 2464 2611 
Q 2184 2928 1769 2928 
Q 1347 2928 1069 2612 
Q 791 2297 791 1659 
z
" transform="scale(0.015625)"/>
       <path id="ArialMT-72" d="M 416 0 
L 416 3319 
L 922 3319 
L 922 2816 
Q 1116 3169 1280 3281 
Q 1444 3394 1641 3394 
Q 1925 3394 2219 3213 
L 2025 2691 
Q 1819 2813 1613 2813 
Q 1428 2813 1281 2702 
Q 1134 2591 1072 2394 
Q 978 2094 978 1738 
L 978 0 
L 416 0 
z
" transform="scale(0.015625)"/>
       <path id="ArialMT-7a" d="M 125 0 
L 125 456 
L 2238 2881 
Q 1878 2863 1603 2863 
L 250 2863 
L 250 3319 
L 2963 3319 
L 2963 2947 
L 1166 841 
L 819 456 
Q 1197 484 1528 484 
L 3063 484 
L 3063 0 
L 125 0 
z
" transform="scale(0.015625)"/>
       <path id="ArialMT-65" d="M 2694 1069 
L 3275 997 
Q 3138 488 2766 206 
Q 2394 -75 1816 -75 
Q 1088 -75 661 373 
Q 234 822 234 1631 
Q 234 2469 665 2931 
Q 1097 3394 1784 3394 
Q 2450 3394 2872 2941 
Q 3294 2488 3294 1666 
Q 3294 1616 3291 1516 
L 816 1516 
Q 847 969 1125 678 
Q 1403 388 1819 388 
Q 2128 388 2347 550 
Q 2566 713 2694 1069 
z
M 847 1978 
L 2700 1978 
Q 2663 2397 2488 2606 
Q 2219 2931 1791 2931 
Q 1403 2931 1139 2672 
Q 875 2413 847 1978 
z
" transform="scale(0.015625)"/>
       <path id="ArialMT-64" d="M 2575 0 
L 2575 419 
Q 2259 -75 1647 -75 
Q 1250 -75 917 144 
Q 584 363 401 755 
Q 219 1147 219 1656 
Q 219 2153 384 2558 
Q 550 2963 881 3178 
Q 1213 3394 1622 3394 
Q 1922 3394 2156 3267 
Q 2391 3141 2538 2938 
L 2538 4581 
L 3097 4581 
L 3097 0 
L 2575 0 
z
M 797 1656 
Q 797 1019 1065 703 
Q 1334 388 1700 388 
Q 2069 388 2326 689 
Q 2584 991 2584 1609 
Q 2584 2291 2321 2609 
Q 2059 2928 1675 2928 
Q 1300 2928 1048 2622 
Q 797 2316 797 1656 
z
" transform="scale(0.015625)"/>
       <path id="ArialMT-29" d="M 791 -1347 
L 388 -1347 
Q 1322 153 1322 1656 
Q 1322 2244 1188 2822 
Q 1081 3291 891 3722 
Q 769 4003 388 4659 
L 791 4659 
Q 1378 3875 1659 3084 
Q 1900 2403 1900 1659 
Q 1900 816 1576 28 
Q 1253 -759 791 -1347 
z
" transform="scale(0.015625)"/>
      </defs>
      <use xlink:href="#ArialMT-46"/>
      <use xlink:href="#ArialMT-57" transform="translate(61.083984 0)"/>
      <use xlink:href="#ArialMT-43" transform="translate(155.46875 0)"/>
      <use xlink:href="#ArialMT-49" transform="translate(227.685547 0)"/>
      <use xlink:href="#ArialMT-20" transform="translate(255.46875 0)"/>
      <use xlink:href="#ArialMT-28" transform="translate(283.251953 0)"/>
      <use xlink:href="#ArialMT-77" transform="translate(316.552734 0)"/>
      <use xlink:href="#ArialMT-69" transform="translate(388.769531 0)"/>
      <use xlink:href="#ArialMT-6e" transform="translate(410.986328 0)"/>
      <use xlink:href="#ArialMT-73" transform="translate(466.601562 0)"/>
      <use xlink:href="#ArialMT-6f" transform="translate(516.601562 0)"/>
      <use xlink:href="#ArialMT-72" transform="translate(572.216797 0)"/>
      <use xlink:href="#ArialMT-69" transform="translate(605.517578 0)"/>
      <use xlink:href="#ArialMT-7a" transform="translate(627.734375 0)"/>
      <use xlink:href="#ArialMT-65" transform="translate(677.734375 0)"/>
      <use xlink:href="#ArialMT-64" transform="translate(733.349609 0)"/>
      <use xlink:href="#ArialMT-29" transform="translate(788.964844 0)"/>
     </g>
    </g>
   </g>
   <g id="matplotlib.axis_2">
    <g id="ytick_1">
     <g id="line2d_7">
      <defs>
       <path id="m79451987ad" d="M 0 0 
L -3.5 0 
" style="stroke: #000000; stroke-width: 0.8"/>
      </defs>
      <g>
       <use xlink:href="#m79451987ad" x="44.605" y="312.143594" style="stroke: #000000; stroke-width: 0.8"/>
      </g>
     </g>
     <g id="text_8">
      <!-- 0.0 -->
      <g transform="translate(22.315 316.080391) scale(0.11 -0.11)">
       <defs>
        <path id="ArialMT-2e" d="M 581 0 
L 581 641 
L 1222 641 
L 1222 0 
L 581 0 
z
" transform="scale(0.015625)"/>
       </defs>
       <use xlink:href="#ArialMT-30"/>
       <use xlink:href="#ArialMT-2e" transform="translate(55.615234 0)"/>
       <use xlink:href="#ArialMT-30" transform="translate(83.398438 0)"/>
      </g>
     </g>
    </g>
    <g id="ytick_2">
     <g id="line2d_8">
      <g>
       <use xlink:href="#m79451987ad" x="44.605" y="275.417304" style="stroke: #000000; stroke-width: 0.8"/>
      </g>
     </g>
     <g id="text_9">
      <!-- 0.1 -->
      <g transform="translate(22.315 279.354101) scale(0.11 -0.11)">
       <use xlink:href="#ArialMT-30"/>
       <use xlink:href="#ArialMT-2e" transform="translate(55.615234 0)"/>
       <use xlink:href="#ArialMT-31" transform="translate(83.398438 0)"/>
      </g>
     </g>
    </g>
    <g id="ytick_3">
     <g id="line2d_9">
      <g>
       <use xlink:href="#m79451987ad" x="44.605" y="238.691014" style="stroke: #000000; stroke-width: 0.8"/>
      </g>
     </g>
     <g id="text_10">
      <!-- 0.2 -->
      <g transform="translate(22.315 242.627811) scale(0.11 -0.11)">
       <use xlink:href="#ArialMT-30"/>
       <use xlink:href="#ArialMT-2e" transform="translate(55.615234 0)"/>
       <use xlink:href="#ArialMT-32" transform="translate(83.398438 0)"/>
      </g>
     </g>
    </g>
    <g id="ytick_4">
     <g id="line2d_10">
      <g>
       <use xlink:href="#m79451987ad" x="44.605" y="201.964724" style="stroke: #000000; stroke-width: 0.8"/>
      </g>
     </g>
     <g id="text_11">
      <!-- 0.3 -->
      <g transform="translate(22.315 205.901521) scale(0.11 -0.11)">
       <defs>
        <path id="ArialMT-33" d="M 269 1209 
L 831 1284 
Q 928 806 1161 595 
Q 1394 384 1728 384 
Q 2125 384 2398 659 
Q 2672 934 2672 1341 
Q 2672 1728 2419 1979 
Q 2166 2231 1775 2231 
Q 1616 2231 1378 2169 
L 1441 2663 
Q 1497 2656 1531 2656 
Q 1891 2656 2178 2843 
Q 2466 3031 2466 3422 
Q 2466 3731 2256 3934 
Q 2047 4138 1716 4138 
Q 1388 4138 1169 3931 
Q 950 3725 888 3313 
L 325 3413 
Q 428 3978 793 4289 
Q 1159 4600 1703 4600 
Q 2078 4600 2393 4439 
Q 2709 4278 2876 4000 
Q 3044 3722 3044 3409 
Q 3044 3113 2884 2869 
Q 2725 2625 2413 2481 
Q 2819 2388 3044 2092 
Q 3269 1797 3269 1353 
Q 3269 753 2831 336 
Q 2394 -81 1725 -81 
Q 1122 -81 723 278 
Q 325 638 269 1209 
z
" transform="scale(0.015625)"/>
       </defs>
       <use xlink:href="#ArialMT-30"/>
       <use xlink:href="#ArialMT-2e" transform="translate(55.615234 0)"/>
       <use xlink:href="#ArialMT-33" transform="translate(83.398438 0)"/>
      </g>
     </g>
    </g>
    <g id="ytick_5">
     <g id="line2d_11">
      <g>
       <use xlink:href="#m79451987ad" x="44.605" y="165.238434" style="stroke: #000000; stroke-width: 0.8"/>
      </g>
     </g>
     <g id="text_12">
      <!-- 0.4 -->
      <g transform="translate(22.315 169.175231) scale(0.11 -0.11)">
       <defs>
        <path id="ArialMT-34" d="M 2069 0 
L 2069 1097 
L 81 1097 
L 81 1613 
L 2172 4581 
L 2631 4581 
L 2631 1613 
L 3250 1613 
L 3250 1097 
L 2631 1097 
L 2631 0 
L 2069 0 
z
M 2069 1613 
L 2069 3678 
L 634 1613 
L 2069 1613 
z
" transform="scale(0.015625)"/>
       </defs>
       <use xlink:href="#ArialMT-30"/>
       <use xlink:href="#ArialMT-2e" transform="translate(55.615234 0)"/>
       <use xlink:href="#ArialMT-34" transform="translate(83.398438 0)"/>
      </g>
     </g>
    </g>
    <g id="ytick_6">
     <g id="line2d_12">
      <g>
       <use xlink:href="#m79451987ad" x="44.605" y="128.512144" style="stroke: #000000; stroke-width: 0.8"/>
      </g>
     </g>
     <g id="text_13">
      <!-- 0.5 -->
      <g transform="translate(22.315 132.448941) scale(0.11 -0.11)">
       <use xlink:href="#ArialMT-30"/>
       <use xlink:href="#ArialMT-2e" transform="translate(55.615234 0)"/>
       <use xlink:href="#ArialMT-35" transform="translate(83.398438 0)"/>
      </g>
     </g>
    </g>
    <g id="ytick_7">
     <g id="line2d_13">
      <g>
       <use xlink:href="#m79451987ad" x="44.605" y="91.785854" style="stroke: #000000; stroke-width: 0.8"/>
      </g>
     </g>
     <g id="text_14">
      <!-- 0.6 -->
      <g transform="translate(22.315 95.722651) scale(0.11 -0.11)">
       <defs>
        <path id="ArialMT-36" d="M 3184 3459 
L 2625 3416 
Q 2550 3747 2413 3897 
Q 2184 4138 1850 4138 
Q 1581 4138 1378 3988 
Q 1113 3794 959 3422 
Q 806 3050 800 2363 
Q 1003 2672 1297 2822 
Q 1591 2972 1913 2972 
Q 2475 2972 2870 2558 
Q 3266 2144 3266 1488 
Q 3266 1056 3080 686 
Q 2894 316 2569 119 
Q 2244 -78 1831 -78 
Q 1128 -78 684 439 
Q 241 956 241 2144 
Q 241 3472 731 4075 
Q 1159 4600 1884 4600 
Q 2425 4600 2770 4297 
Q 3116 3994 3184 3459 
z
M 888 1484 
Q 888 1194 1011 928 
Q 1134 663 1356 523 
Q 1578 384 1822 384 
Q 2178 384 2434 671 
Q 2691 959 2691 1453 
Q 2691 1928 2437 2201 
Q 2184 2475 1800 2475 
Q 1419 2475 1153 2201 
Q 888 1928 888 1484 
z
" transform="scale(0.015625)"/>
       </defs>
       <use xlink:href="#ArialMT-30"/>
       <use xlink:href="#ArialMT-2e" transform="translate(55.615234 0)"/>
       <use xlink:href="#ArialMT-36" transform="translate(83.398438 0)"/>
      </g>
     </g>
    </g>
    <g id="ytick_8">
     <g id="line2d_14">
      <g>
       <use xlink:href="#m79451987ad" x="44.605" y="55.059564" style="stroke: #000000; stroke-width: 0.8"/>
      </g>
     </g>
     <g id="text_15">
      <!-- 0.7 -->
      <g transform="translate(22.315 58.996361) scale(0.11 -0.11)">
       <defs>
        <path id="ArialMT-37" d="M 303 3981 
L 303 4522 
L 3269 4522 
L 3269 4084 
Q 2831 3619 2401 2847 
Q 1972 2075 1738 1259 
Q 1569 684 1522 0 
L 944 0 
Q 953 541 1156 1306 
Q 1359 2072 1739 2783 
Q 2119 3494 2547 3981 
L 303 3981 
z
" transform="scale(0.015625)"/>
       </defs>
       <use xlink:href="#ArialMT-30"/>
       <use xlink:href="#ArialMT-2e" transform="translate(55.615234 0)"/>
       <use xlink:href="#ArialMT-37" transform="translate(83.398438 0)"/>
      </g>
     </g>
    </g>
    <g id="text_16">
     <!-- Density -->
     <g transform="translate(15.789375 187.409844) rotate(-90) scale(0.12 -0.12)">
      <defs>
       <path id="ArialMT-44" d="M 494 0 
L 494 4581 
L 2072 4581 
Q 2606 4581 2888 4516 
Q 3281 4425 3559 4188 
Q 3922 3881 4101 3404 
Q 4281 2928 4281 2316 
Q 4281 1794 4159 1391 
Q 4038 988 3847 723 
Q 3656 459 3429 307 
Q 3203 156 2883 78 
Q 2563 0 2147 0 
L 494 0 
z
M 1100 541 
L 2078 541 
Q 2531 541 2789 625 
Q 3047 709 3200 863 
Q 3416 1078 3536 1442 
Q 3656 1806 3656 2325 
Q 3656 3044 3420 3430 
Q 3184 3816 2847 3947 
Q 2603 4041 2063 4041 
L 1100 4041 
L 1100 541 
z
" transform="scale(0.015625)"/>
       <path id="ArialMT-74" d="M 1650 503 
L 1731 6 
Q 1494 -44 1306 -44 
Q 1000 -44 831 53 
Q 663 150 594 308 
Q 525 466 525 972 
L 525 2881 
L 113 2881 
L 113 3319 
L 525 3319 
L 525 4141 
L 1084 4478 
L 1084 3319 
L 1650 3319 
L 1650 2881 
L 1084 2881 
L 1084 941 
Q 1084 700 1114 631 
Q 1144 563 1211 522 
Q 1278 481 1403 481 
Q 1497 481 1650 503 
z
" transform="scale(0.015625)"/>
       <path id="ArialMT-79" d="M 397 -1278 
L 334 -750 
Q 519 -800 656 -800 
Q 844 -800 956 -737 
Q 1069 -675 1141 -563 
Q 1194 -478 1313 -144 
Q 1328 -97 1363 -6 
L 103 3319 
L 709 3319 
L 1400 1397 
Q 1534 1031 1641 628 
Q 1738 1016 1872 1384 
L 2581 3319 
L 3144 3319 
L 1881 -56 
Q 1678 -603 1566 -809 
Q 1416 -1088 1222 -1217 
Q 1028 -1347 759 -1347 
Q 597 -1347 397 -1278 
z
" transform="scale(0.015625)"/>
      </defs>
      <use xlink:href="#ArialMT-44"/>
      <use xlink:href="#ArialMT-65" transform="translate(72.216797 0)"/>
      <use xlink:href="#ArialMT-6e" transform="translate(127.832031 0)"/>
      <use xlink:href="#ArialMT-73" transform="translate(183.447266 0)"/>
      <use xlink:href="#ArialMT-69" transform="translate(233.447266 0)"/>
      <use xlink:href="#ArialMT-74" transform="translate(255.664062 0)"/>
      <use xlink:href="#ArialMT-79" transform="translate(283.447266 0)"/>
     </g>
    </g>
   </g>
   <g id="line2d_15">
    <path d="M 58.15081 312.143594 
L 58.15081 22.663594 
" clip-path="url(#p0022f7127c)" style="fill: none; stroke-dasharray: 7.4,3.2; stroke-dashoffset: 0; stroke: #059669; stroke-width: 2"/>
   </g>
   <g id="line2d_16">
    <path d="M 64.193924 312.143594 
L 64.193924 22.663594 
" clip-path="url(#p0022f7127c)" style="fill: none; stroke-dasharray: 7.4,3.2; stroke-dashoffset: 0; stroke: #dc2626; stroke-width: 2"/>
   </g>
   <g id="patch_103">
    <path d="M 44.605 312.143594 
L 44.605 22.663594 
" style="fill: none; stroke: #000000; stroke-width: 0.8; stroke-linejoin: miter; stroke-linecap: square"/>
   </g>
   <g id="patch_104">
    <path d="M 44.605 312.143594 
L 421.445 312.143594 
" style="fill: none; stroke: #000000; stroke-width: 0.8; stroke-linejoin: miter; stroke-linecap: square"/>
   </g>
   <g id="text_17">
    <!-- Citation Impact: GH vs Non-GH First Author -->
    <g transform="translate(107.327187 16.663594) scale(0.13 -0.13)">
     <defs>
      <path id="ArialMT-61" d="M 2588 409 
Q 2275 144 1986 34 
Q 1697 -75 1366 -75 
Q 819 -75 525 192 
Q 231 459 231 875 
Q 231 1119 342 1320 
Q 453 1522 633 1644 
Q 813 1766 1038 1828 
Q 1203 1872 1538 1913 
Q 2219 1994 2541 2106 
Q 2544 2222 2544 2253 
Q 2544 2597 2384 2738 
Q 2169 2928 1744 2928 
Q 1347 2928 1158 2789 
Q 969 2650 878 2297 
L 328 2372 
Q 403 2725 575 2942 
Q 747 3159 1072 3276 
Q 1397 3394 1825 3394 
Q 2250 3394 2515 3294 
Q 2781 3194 2906 3042 
Q 3031 2891 3081 2659 
Q 3109 2516 3109 2141 
L 3109 1391 
Q 3109 606 3145 398 
Q 3181 191 3288 0 
L 2700 0 
Q 2613 175 2588 409 
z
M 2541 1666 
Q 2234 1541 1622 1453 
Q 1275 1403 1131 1340 
Q 988 1278 909 1158 
Q 831 1038 831 891 
Q 831 666 1001 516 
Q 1172 366 1500 366 
Q 1825 366 2078 508 
Q 2331 650 2450 897 
Q 2541 1088 2541 1459 
L 2541 1666 
z
" transform="scale(0.015625)"/>
      <path id="ArialMT-6d" d="M 422 0 
L 422 3319 
L 925 3319 
L 925 2853 
Q 1081 3097 1340 3245 
Q 1600 3394 1931 3394 
Q 2300 3394 2536 3241 
Q 2772 3088 2869 2813 
Q 3263 3394 3894 3394 
Q 4388 3394 4653 3120 
Q 4919 2847 4919 2278 
L 4919 0 
L 4359 0 
L 4359 2091 
Q 4359 2428 4304 2576 
Q 4250 2725 4106 2815 
Q 3963 2906 3769 2906 
Q 3419 2906 3187 2673 
Q 2956 2441 2956 1928 
L 2956 0 
L 2394 0 
L 2394 2156 
Q 2394 2531 2256 2718 
Q 2119 2906 1806 2906 
Q 1569 2906 1367 2781 
Q 1166 2656 1075 2415 
Q 984 2175 984 1722 
L 984 0 
L 422 0 
z
" transform="scale(0.015625)"/>
      <path id="ArialMT-70" d="M 422 -1272 
L 422 3319 
L 934 3319 
L 934 2888 
Q 1116 3141 1344 3267 
Q 1572 3394 1897 3394 
Q 2322 3394 2647 3175 
Q 2972 2956 3137 2557 
Q 3303 2159 3303 1684 
Q 3303 1175 3120 767 
Q 2938 359 2589 142 
Q 2241 -75 1856 -75 
Q 1575 -75 1351 44 
Q 1128 163 984 344 
L 984 -1272 
L 422 -1272 
z
M 931 1641 
Q 931 1000 1190 694 
Q 1450 388 1819 388 
Q 2194 388 2461 705 
Q 2728 1022 2728 1688 
Q 2728 2322 2467 2637 
Q 2206 2953 1844 2953 
Q 1484 2953 1207 2617 
Q 931 2281 931 1641 
z
" transform="scale(0.015625)"/>
      <path id="ArialMT-63" d="M 2588 1216 
L 3141 1144 
Q 3050 572 2676 248 
Q 2303 -75 1759 -75 
Q 1078 -75 664 370 
Q 250 816 250 1647 
Q 250 2184 428 2587 
Q 606 2991 970 3192 
Q 1334 3394 1763 3394 
Q 2303 3394 2647 3120 
Q 2991 2847 3088 2344 
L 2541 2259 
Q 2463 2594 2264 2762 
Q 2066 2931 1784 2931 
Q 1359 2931 1093 2626 
Q 828 2322 828 1663 
Q 828 994 1084 691 
Q 1341 388 1753 388 
Q 2084 388 2306 591 
Q 2528 794 2588 1216 
z
" transform="scale(0.015625)"/>
      <path id="ArialMT-3a" d="M 578 2678 
L 578 3319 
L 1219 3319 
L 1219 2678 
L 578 2678 
z
M 578 0 
L 578 641 
L 1219 641 
L 1219 0 
L 578 0 
z
" transform="scale(0.015625)"/>
      <path id="ArialMT-47" d="M 2638 1797 
L 2638 2334 
L 4578 2338 
L 4578 638 
Q 4131 281 3656 101 
Q 3181 -78 2681 -78 
Q 2006 -78 1454 211 
Q 903 500 622 1047 
Q 341 1594 341 2269 
Q 341 2938 620 3517 
Q 900 4097 1425 4378 
Q 1950 4659 2634 4659 
Q 3131 4659 3532 4498 
Q 3934 4338 4162 4050 
Q 4391 3763 4509 3300 
L 3963 3150 
Q 3859 3500 3706 3700 
Q 3553 3900 3268 4020 
Q 2984 4141 2638 4141 
Q 2222 4141 1919 4014 
Q 1616 3888 1430 3681 
Q 1244 3475 1141 3228 
Q 966 2803 966 2306 
Q 966 1694 1177 1281 
Q 1388 869 1791 669 
Q 2194 469 2647 469 
Q 3041 469 3416 620 
Q 3791 772 3984 944 
L 3984 1797 
L 2638 1797 
z
" transform="scale(0.015625)"/>
      <path id="ArialMT-48" d="M 513 0 
L 513 4581 
L 1119 4581 
L 1119 2700 
L 3500 2700 
L 3500 4581 
L 4106 4581 
L 4106 0 
L 3500 0 
L 3500 2159 
L 1119 2159 
L 1119 0 
L 513 0 
z
" transform="scale(0.015625)"/>
      <path id="ArialMT-76" d="M 1344 0 
L 81 3319 
L 675 3319 
L 1388 1331 
Q 1503 1009 1600 663 
Q 1675 925 1809 1294 
L 2547 3319 
L 3125 3319 
L 1869 0 
L 1344 0 
z
" transform="scale(0.015625)"/>
      <path id="ArialMT-4e" d="M 488 0 
L 488 4581 
L 1109 4581 
L 3516 984 
L 3516 4581 
L 4097 4581 
L 4097 0 
L 3475 0 
L 1069 3600 
L 1069 0 
L 488 0 
z
" transform="scale(0.015625)"/>
      <path id="ArialMT-2d" d="M 203 1375 
L 203 1941 
L 1931 1941 
L 1931 1375 
L 203 1375 
z
" transform="scale(0.015625)"/>
      <path id="ArialMT-41" d="M -9 0 
L 1750 4581 
L 2403 4581 
L 4278 0 
L 3588 0 
L 3053 1388 
L 1138 1388 
L 634 0 
L -9 0 
z
M 1313 1881 
L 2866 1881 
L 2388 3150 
Q 2169 3728 2063 4100 
Q 1975 3659 1816 3225 
L 1313 1881 
z
" transform="scale(0.015625)"/>
      <path id="ArialMT-75" d="M 2597 0 
L 2597 488 
Q 2209 -75 1544 -75 
Q 1250 -75 995 37 
Q 741 150 617 320 
Q 494 491 444 738 
Q 409 903 409 1263 
L 409 3319 
L 972 3319 
L 972 1478 
Q 972 1038 1006 884 
Q 1059 663 1231 536 
Q 1403 409 1656 409 
Q 1909 409 2131 539 
Q 2353 669 2445 892 
Q 2538 1116 2538 1541 
L 2538 3319 
L 3100 3319 
L 3100 0 
L 2597 0 
z
" transform="scale(0.015625)"/>
      <path id="ArialMT-68" d="M 422 0 
L 422 4581 
L 984 4581 
L 984 2938 
Q 1378 3394 1978 3394 
Q 2347 3394 2619 3248 
Q 2891 3103 3008 2847 
Q 3125 2591 3125 2103 
L 3125 0 
L 2563 0 
L 2563 2103 
Q 2563 2525 2380 2717 
Q 2197 2909 1863 2909 
Q 1613 2909 1392 2779 
Q 1172 2650 1078 2428 
Q 984 2206 984 1816 
L 984 0 
L 422 0 
z
" transform="scale(0.015625)"/>
     </defs>
     <use xlink:href="#ArialMT-43"/>
     <use xlink:href="#ArialMT-69" transform="translate(72.216797 0)"/>
     <use xlink:href="#ArialMT-74" transform="translate(94.433594 0)"/>
     <use xlink:href="#ArialMT-61" transform="translate(122.216797 0)"/>
     <use xlink:href="#ArialMT-74" transform="translate(177.832031 0)"/>
     <use xlink:href="#ArialMT-69" transform="translate(205.615234 0)"/>
     <use xlink:href="#ArialMT-6f" transform="translate(227.832031 0)"/>
     <use xlink:href="#ArialMT-6e" transform="translate(283.447266 0)"/>
     <use xlink:href="#ArialMT-20" transform="translate(339.0625 0)"/>
     <use xlink:href="#ArialMT-49" transform="translate(366.845703 0)"/>
     <use xlink:href="#ArialMT-6d" transform="translate(394.628906 0)"/>
     <use xlink:href="#ArialMT-70" transform="translate(477.929688 0)"/>
     <use xlink:href="#ArialMT-61" transform="translate(533.544922 0)"/>
     <use xlink:href="#ArialMT-63" transform="translate(589.160156 0)"/>
     <use xlink:href="#ArialMT-74" transform="translate(639.160156 0)"/>
     <use xlink:href="#ArialMT-3a" transform="translate(666.943359 0)"/>
     <use xlink:href="#ArialMT-20" transform="translate(694.726562 0)"/>
     <use xlink:href="#ArialMT-47" transform="translate(722.509766 0)"/>
     <use xlink:href="#ArialMT-48" transform="translate(800.292969 0)"/>
     <use xlink:href="#ArialMT-20" transform="translate(872.509766 0)"/>
     <use xlink:href="#ArialMT-76" transform="translate(900.292969 0)"/>
     <use xlink:href="#ArialMT-73" transform="translate(950.292969 0)"/>
     <use xlink:href="#ArialMT-20" transform="translate(1000.292969 0)"/>
     <use xlink:href="#ArialMT-4e" transform="translate(1028.076172 0)"/>
     <use xlink:href="#ArialMT-6f" transform="translate(1100.292969 0)"/>
     <use xlink:href="#ArialMT-6e" transform="translate(1155.908203 0)"/>
     <use xlink:href="#ArialMT-2d" transform="translate(1211.523438 0)"/>
     <use xlink:href="#ArialMT-47" transform="translate(1244.824219 0)"/>
     <use xlink:href="#ArialMT-48" transform="translate(1322.607422 0)"/>
     <use xlink:href="#ArialMT-20" transform="translate(1394.824219 0)"/>
     <use xlink:href="#ArialMT-46" transform="translate(1422.607422 0)"/>
     <use xlink:href="#ArialMT-69" transform="translate(1483.691406 0)"/>
     <use xlink:href="#ArialMT-72" transform="translate(1505.908203 0)"/>
     <use xlink:href="#ArialMT-73" transform="translate(1539.208984 0)"/>
     <use xlink:href="#ArialMT-74" transform="translate(1589.208984 0)"/>
     <use xlink:href="#ArialMT-20" transform="translate(1616.992188 0)"/>
     <use xlink:href="#ArialMT-41" transform="translate(1639.275391 0)"/>
     <use xlink:href="#ArialMT-75" transform="translate(1705.974609 0)"/>
     <use xlink:href="#ArialMT-74" transform="translate(1761.589844 0)"/>
     <use xlink:href="#ArialMT-68" transform="translate(1789.373047 0)"/>
     <use xlink:href="#ArialMT-6f" transform="translate(1844.988281 0)"/>
     <use xlink:href="#ArialMT-72" transform="translate(1900.603516 0)"/>
    </g>
   </g>
   <g id="legend_1">
    <g id="patch_105">
     <path d="M 312.43375 74.328594 
L 415.845 74.328594 
Q 417.445 74.328594 417.445 72.728594 
L 417.445 28.263594 
Q 417.445 26.663594 415.845 26.663594 
L 312.43375 26.663594 
Q 310.83375 26.663594 310.83375 28.263594 
L 310.83375 72.728594 
Q 310.83375 74.328594 312.43375 74.328594 
z
" style="fill: #ffffff; opacity: 0.8; stroke: #cccccc; stroke-linejoin: miter"/>
    </g>
    <g id="patch_106">
     <path d="M 314.03375 35.589844 
L 330.03375 35.589844 
L 330.03375 29.989844 
L 314.03375 29.989844 
z
" style="fill: #dc2626; opacity: 0.6"/>
    </g>
    <g id="text_18">
     <!-- Non-GH First Author -->
     <g transform="translate(336.43375 35.589844) scale(0.08 -0.08)">
      <use xlink:href="#ArialMT-4e"/>
      <use xlink:href="#ArialMT-6f" transform="translate(72.216797 0)"/>
      <use xlink:href="#ArialMT-6e" transform="translate(127.832031 0)"/>
      <use xlink:href="#ArialMT-2d" transform="translate(183.447266 0)"/>
      <use xlink:href="#ArialMT-47" transform="translate(216.748047 0)"/>
      <use xlink:href="#ArialMT-48" transform="translate(294.53125 0)"/>
      <use xlink:href="#ArialMT-20" transform="translate(366.748047 0)"/>
      <use xlink:href="#ArialMT-46" transform="translate(394.53125 0)"/>
      <use xlink:href="#ArialMT-69" transform="translate(455.615234 0)"/>
      <use xlink:href="#ArialMT-72" transform="translate(477.832031 0)"/>
      <use xlink:href="#ArialMT-73" transform="translate(511.132812 0)"/>
      <use xlink:href="#ArialMT-74" transform="translate(561.132812 0)"/>
      <use xlink:href="#ArialMT-20" transform="translate(588.916016 0)"/>
      <use xlink:href="#ArialMT-41" transform="translate(611.199219 0)"/>
      <use xlink:href="#ArialMT-75" transform="translate(677.898438 0)"/>
      <use xlink:href="#ArialMT-74" transform="translate(733.513672 0)"/>
      <use xlink:href="#ArialMT-68" transform="translate(761.296875 0)"/>
      <use xlink:href="#ArialMT-6f" transform="translate(816.912109 0)"/>
      <use xlink:href="#ArialMT-72" transform="translate(872.527344 0)"/>
     </g>
    </g>
    <g id="patch_107">
     <path d="M 314.03375 46.906094 
L 330.03375 46.906094 
L 330.03375 41.306094 
L 314.03375 41.306094 
z
" style="fill: #059669; opacity: 0.6"/>
    </g>
    <g id="text_19">
     <!-- GH First Author -->
     <g transform="translate(336.43375 46.906094) scale(0.08 -0.08)">
      <use xlink:href="#ArialMT-47"/>
      <use xlink:href="#ArialMT-48" transform="translate(77.783203 0)"/>
      <use xlink:href="#ArialMT-20" transform="translate(150 0)"/>
      <use xlink:href="#ArialMT-46" transform="translate(177.783203 0)"/>
      <use xlink:href="#ArialMT-69" transform="translate(238.867188 0)"/>
      <use xlink:href="#ArialMT-72" transform="translate(261.083984 0)"/>
      <use xlink:href="#ArialMT-73" transform="translate(294.384766 0)"/>
      <use xlink:href="#ArialMT-74" transform="translate(344.384766 0)"/>
      <use xlink:href="#ArialMT-20" transform="translate(372.167969 0)"/>
      <use xlink:href="#ArialMT-41" transform="translate(394.451172 0)"/>
      <use xlink:href="#ArialMT-75" transform="translate(461.150391 0)"/>
      <use xlink:href="#ArialMT-74" transform="translate(516.765625 0)"/>
      <use xlink:href="#ArialMT-68" transform="translate(544.548828 0)"/>
      <use xlink:href="#ArialMT-6f" transform="translate(600.164062 0)"/>
      <use xlink:href="#ArialMT-72" transform="translate(655.779297 0)"/>
     </g>
    </g>
    <g id="line2d_17">
     <path d="M 314.03375 55.422344 
L 322.03375 55.422344 
L 330.03375 55.422344 
" style="fill: none; stroke-dasharray: 7.4,3.2; stroke-dashoffset: 0; stroke: #059669; stroke-width: 2"/>
    </g>
    <g id="text_20">
     <!-- GH median: 0.93 -->
     <g transform="translate(336.43375 58.222344) scale(0.08 -0.08)">
      <defs>
       <path id="ArialMT-39" d="M 350 1059 
L 891 1109 
Q 959 728 1153 556 
Q 1347 384 1650 384 
Q 1909 384 2104 503 
Q 2300 622 2425 820 
Q 2550 1019 2634 1356 
Q 2719 1694 2719 2044 
Q 2719 2081 2716 2156 
Q 2547 1888 2255 1720 
Q 1963 1553 1622 1553 
Q 1053 1553 659 1965 
Q 266 2378 266 3053 
Q 266 3750 677 4175 
Q 1088 4600 1706 4600 
Q 2153 4600 2523 4359 
Q 2894 4119 3086 3673 
Q 3278 3228 3278 2384 
Q 3278 1506 3087 986 
Q 2897 466 2520 194 
Q 2144 -78 1638 -78 
Q 1100 -78 759 220 
Q 419 519 350 1059 
z
M 2653 3081 
Q 2653 3566 2395 3850 
Q 2138 4134 1775 4134 
Q 1400 4134 1122 3828 
Q 844 3522 844 3034 
Q 844 2597 1108 2323 
Q 1372 2050 1759 2050 
Q 2150 2050 2401 2323 
Q 2653 2597 2653 3081 
z
" transform="scale(0.015625)"/>
      </defs>
      <use xlink:href="#ArialMT-47"/>
      <use xlink:href="#ArialMT-48" transform="translate(77.783203 0)"/>
      <use xlink:href="#ArialMT-20" transform="translate(150 0)"/>
      <use xlink:href="#ArialMT-6d" transform="translate(177.783203 0)"/>
      <use xlink:href="#ArialMT-65" transform="translate(261.083984 0)"/>
      <use xlink:href="#ArialMT-64" transform="translate(316.699219 0)"/>
      <use xlink:href="#ArialMT-69" transform="translate(372.314453 0)"/>
      <use xlink:href="#ArialMT-61" transform="translate(394.53125 0)"/>
      <use xlink:href="#ArialMT-6e" transform="translate(450.146484 0)"/>
      <use xlink:href="#ArialMT-3a" transform="translate(505.761719 0)"/>
      <use xlink:href="#ArialMT-20" transform="translate(533.544922 0)"/>
      <use xlink:href="#ArialMT-30" transform="translate(561.328125 0)"/>
      <use xlink:href="#ArialMT-2e" transform="translate(616.943359 0)"/>
      <use xlink:href="#ArialMT-39" transform="translate(644.726562 0)"/>
      <use xlink:href="#ArialMT-33" transform="translate(700.341797 0)"/>
     </g>
    </g>
    <g id="line2d_18">
     <path d="M 314.03375 66.738594 
L 322.03375 66.738594 
L 330.03375 66.738594 
" style="fill: none; stroke-dasharray: 7.4,3.2; stroke-dashoffset: 0; stroke: #dc2626; stroke-width: 2"/>
    </g>
    <g id="text_21">
     <!-- Non-GH median: 1.35 -->
     <g transform="translate(336.43375 69.538594) scale(0.08 -0.08)">
      <use xlink:href="#ArialMT-4e"/>
      <use xlink:href="#ArialMT-6f" transform="translate(72.216797 0)"/>
      <use xlink:href="#ArialMT-6e" transform="translate(127.832031 0)"/>
      <use xlink:href="#ArialMT-2d" transform="translate(183.447266 0)"/>
      <use xlink:href="#ArialMT-47" transform="translate(216.748047 0)"/>
      <use xlink:href="#ArialMT-48" transform="translate(294.53125 0)"/>
      <use xlink:href="#ArialMT-20" transform="translate(366.748047 0)"/>
      <use xlink:href="#ArialMT-6d" transform="translate(394.53125 0)"/>
      <use xlink:href="#ArialMT-65" transform="translate(477.832031 0)"/>
      <use xlink:href="#ArialMT-64" transform="translate(533.447266 0)"/>
      <use xlink:href="#ArialMT-69" transform="translate(589.0625 0)"/>
      <use xlink:href="#ArialMT-61" transform="translate(611.279297 0)"/>
      <use xlink:href="#ArialMT-6e" transform="translate(666.894531 0)"/>
      <use xlink:href="#ArialMT-3a" transform="translate(722.509766 0)"/>
      <use xlink:href="#ArialMT-20" transform="translate(750.292969 0)"/>
      <use xlink:href="#ArialMT-31" transform="translate(778.076172 0)"/>
      <use xlink:href="#ArialMT-2e" transform="translate(833.691406 0)"/>
      <use xlink:href="#ArialMT-33" transform="translate(861.474609 0)"/>
      <use xlink:href="#ArialMT-35" transform="translate(917.089844 0)"/>
     </g>
    </g>
   </g>
  </g>
  <g id="axes_2">
   <g id="patch_108">
    <path d="M 470.665 312.143594 
L 847.505 312.143594 
L 847.505 22.663594 
L 470.665 22.663594 
z
" style="fill: #ffffff"/>
   </g>
   <g id="patch_109">
    <path d="M 470.665 312.143594 
L 478.2018 312.143594 
L 478.2018 100.772064 
L 470.665 100.772064 
z
" clip-path="url(#pf3f802c507)" style="fill: #dc2626; opacity: 0.6"/>
   </g>
   <g id="patch_110">
    <path d="M 478.2018 312.143594 
L 485.7386 312.143594 
L 485.7386 233.852367 
L 478.2018 233.852367 
z
" clip-path="url(#pf3f802c507)" style="fill: #dc2626; opacity: 0.6"/>
   </g>
   <g id="patch_111">
    <path d="M 485.7386 312.143594 
L 493.2754 312.143594 
L 493.2754 243.460164 
L 485.7386 243.460164 
z
" clip-path="url(#pf3f802c507)" style="fill: #dc2626; opacity: 0.6"/>
   </g>
   <g id="patch_112">
    <path d="M 493.2754 312.143594 
L 500.8122 312.143594 
L 500.8122 261.54253 
L 493.2754 261.54253 
z
" clip-path="url(#pf3f802c507)" style="fill: #dc2626; opacity: 0.6"/>
   </g>
   <g id="patch_113">
    <path d="M 500.8122 312.143594 
L 508.349 312.143594 
L 508.349 273.121157 
L 500.8122 273.121157 
z
" clip-path="url(#pf3f802c507)" style="fill: #dc2626; opacity: 0.6"/>
   </g>
   <g id="patch_114">
    <path d="M 508.349 312.143594 
L 515.8858 312.143594 
L 515.8858 280.166875 
L 508.349 280.166875 
z
" clip-path="url(#pf3f802c507)" style="fill: #dc2626; opacity: 0.6"/>
   </g>
   <g id="patch_115">
    <path d="M 515.8858 312.143594 
L 523.4226 312.143594 
L 523.4226 284.699784 
L 515.8858 284.699784 
z
" clip-path="url(#pf3f802c507)" style="fill: #dc2626; opacity: 0.6"/>
   </g>
   <g id="patch_116">
    <path d="M 523.4226 312.143594 
L 530.9594 312.143594 
L 530.9594 290.415192 
L 523.4226 290.415192 
z
" clip-path="url(#pf3f802c507)" style="fill: #dc2626; opacity: 0.6"/>
   </g>
   <g id="patch_117">
    <path d="M 530.9594 312.143594 
L 538.4962 312.143594 
L 538.4962 295.884245 
L 530.9594 295.884245 
z
" clip-path="url(#pf3f802c507)" style="fill: #dc2626; opacity: 0.6"/>
   </g>
   <g id="patch_118">
    <path d="M 538.4962 312.143594 
L 546.033 312.143594 
L 546.033 299.530281 
L 538.4962 299.530281 
z
" clip-path="url(#pf3f802c507)" style="fill: #dc2626; opacity: 0.6"/>
   </g>
   <g id="patch_119">
    <path d="M 546.033 312.143594 
L 553.5698 312.143594 
L 553.5698 299.628823 
L 546.033 299.628823 
z
" clip-path="url(#pf3f802c507)" style="fill: #dc2626; opacity: 0.6"/>
   </g>
   <g id="patch_120">
    <path d="M 553.5698 312.143594 
L 561.1066 312.143594 
L 561.1066 301.698194 
L 553.5698 301.698194 
z
" clip-path="url(#pf3f802c507)" style="fill: #dc2626; opacity: 0.6"/>
   </g>
   <g id="patch_121">
    <path d="M 561.1066 312.143594 
L 568.6434 312.143594 
L 568.6434 303.42267 
L 561.1066 303.42267 
z
" clip-path="url(#pf3f802c507)" style="fill: #dc2626; opacity: 0.6"/>
   </g>
   <g id="patch_122">
    <path d="M 568.6434 312.143594 
L 576.1802 312.143594 
L 576.1802 304.900793 
L 568.6434 304.900793 
z
" clip-path="url(#pf3f802c507)" style="fill: #dc2626; opacity: 0.6"/>
   </g>
   <g id="patch_123">
    <path d="M 576.1802 312.143594 
L 583.717 312.143594 
L 583.717 306.477457 
L 576.1802 306.477457 
z
" clip-path="url(#pf3f802c507)" style="fill: #dc2626; opacity: 0.6"/>
   </g>
   <g id="patch_124">
    <path d="M 583.717 312.143594 
L 591.2538 312.143594 
L 591.2538 306.477457 
L 583.717 306.477457 
z
" clip-path="url(#pf3f802c507)" style="fill: #dc2626; opacity: 0.6"/>
   </g>
   <g id="patch_125">
    <path d="M 591.2538 312.143594 
L 598.7906 312.143594 
L 598.7906 306.575999 
L 591.2538 306.575999 
z
" clip-path="url(#pf3f802c507)" style="fill: #dc2626; opacity: 0.6"/>
   </g>
   <g id="patch_126">
    <path d="M 598.7906 312.143594 
L 606.3274 312.143594 
L 606.3274 307.512143 
L 598.7906 307.512143 
z
" clip-path="url(#pf3f802c507)" style="fill: #dc2626; opacity: 0.6"/>
   </g>
   <g id="patch_127">
    <path d="M 606.3274 312.143594 
L 613.8642 312.143594 
L 613.8642 308.891724 
L 606.3274 308.891724 
z
" clip-path="url(#pf3f802c507)" style="fill: #dc2626; opacity: 0.6"/>
   </g>
   <g id="patch_128">
    <path d="M 613.8642 312.143594 
L 621.401 312.143594 
L 621.401 309.532244 
L 613.8642 309.532244 
z
" clip-path="url(#pf3f802c507)" style="fill: #dc2626; opacity: 0.6"/>
   </g>
   <g id="patch_129">
    <path d="M 621.401 312.143594 
L 628.9378 312.143594 
L 628.9378 309.433702 
L 621.401 309.433702 
z
" clip-path="url(#pf3f802c507)" style="fill: #dc2626; opacity: 0.6"/>
   </g>
   <g id="patch_130">
    <path d="M 628.9378 312.143594 
L 636.4746 312.143594 
L 636.4746 309.433702 
L 628.9378 309.433702 
z
" clip-path="url(#pf3f802c507)" style="fill: #dc2626; opacity: 0.6"/>
   </g>
   <g id="patch_131">
    <path d="M 636.4746 312.143594 
L 644.0114 312.143594 
L 644.0114 309.92641 
L 636.4746 309.92641 
z
" clip-path="url(#pf3f802c507)" style="fill: #dc2626; opacity: 0.6"/>
   </g>
   <g id="patch_132">
    <path d="M 644.0114 312.143594 
L 651.5482 312.143594 
L 651.5482 310.172764 
L 644.0114 310.172764 
z
" clip-path="url(#pf3f802c507)" style="fill: #dc2626; opacity: 0.6"/>
   </g>
   <g id="patch_133">
    <path d="M 651.5482 312.143594 
L 659.085 312.143594 
L 659.085 310.222034 
L 651.5482 310.222034 
z
" clip-path="url(#pf3f802c507)" style="fill: #dc2626; opacity: 0.6"/>
   </g>
   <g id="patch_134">
    <path d="M 659.085 312.143594 
L 666.6218 312.143594 
L 666.6218 310.074222 
L 659.085 310.074222 
z
" clip-path="url(#pf3f802c507)" style="fill: #dc2626; opacity: 0.6"/>
   </g>
   <g id="patch_135">
    <path d="M 666.6218 312.143594 
L 674.1586 312.143594 
L 674.1586 310.911825 
L 666.6218 310.911825 
z
" clip-path="url(#pf3f802c507)" style="fill: #dc2626; opacity: 0.6"/>
   </g>
   <g id="patch_136">
    <path d="M 674.1586 312.143594 
L 681.6954 312.143594 
L 681.6954 310.6162 
L 674.1586 310.6162 
z
" clip-path="url(#pf3f802c507)" style="fill: #dc2626; opacity: 0.6"/>
   </g>
   <g id="patch_137">
    <path d="M 681.6954 312.143594 
L 689.2322 312.143594 
L 689.2322 311.059637 
L 681.6954 311.059637 
z
" clip-path="url(#pf3f802c507)" style="fill: #dc2626; opacity: 0.6"/>
   </g>
   <g id="patch_138">
    <path d="M 689.2322 312.143594 
L 696.769 312.143594 
L 696.769 311.010366 
L 689.2322 311.010366 
z
" clip-path="url(#pf3f802c507)" style="fill: #dc2626; opacity: 0.6"/>
   </g>
   <g id="patch_139">
    <path d="M 696.769 312.143594 
L 704.3058 312.143594 
L 704.3058 310.862554 
L 696.769 310.862554 
z
" clip-path="url(#pf3f802c507)" style="fill: #dc2626; opacity: 0.6"/>
   </g>
   <g id="patch_140">
    <path d="M 704.3058 312.143594 
L 711.8426 312.143594 
L 711.8426 311.158179 
L 704.3058 311.158179 
z
" clip-path="url(#pf3f802c507)" style="fill: #dc2626; opacity: 0.6"/>
   </g>
   <g id="patch_141">
    <path d="M 711.8426 312.143594 
L 719.3794 312.143594 
L 719.3794 311.25672 
L 711.8426 311.25672 
z
" clip-path="url(#pf3f802c507)" style="fill: #dc2626; opacity: 0.6"/>
   </g>
   <g id="patch_142">
    <path d="M 719.3794 312.143594 
L 726.9162 312.143594 
L 726.9162 311.552345 
L 719.3794 311.552345 
z
" clip-path="url(#pf3f802c507)" style="fill: #dc2626; opacity: 0.6"/>
   </g>
   <g id="patch_143">
    <path d="M 726.9162 312.143594 
L 734.453 312.143594 
L 734.453 311.503074 
L 726.9162 311.503074 
z
" clip-path="url(#pf3f802c507)" style="fill: #dc2626; opacity: 0.6"/>
   </g>
   <g id="patch_144">
    <path d="M 734.453 312.143594 
L 741.9898 312.143594 
L 741.9898 311.798698 
L 734.453 311.798698 
z
" clip-path="url(#pf3f802c507)" style="fill: #dc2626; opacity: 0.6"/>
   </g>
   <g id="patch_145">
    <path d="M 741.9898 312.143594 
L 749.5266 312.143594 
L 749.5266 311.503074 
L 741.9898 311.503074 
z
" clip-path="url(#pf3f802c507)" style="fill: #dc2626; opacity: 0.6"/>
   </g>
   <g id="patch_146">
    <path d="M 749.5266 312.143594 
L 757.0634 312.143594 
L 757.0634 311.601615 
L 749.5266 311.601615 
z
" clip-path="url(#pf3f802c507)" style="fill: #dc2626; opacity: 0.6"/>
   </g>
   <g id="patch_147">
    <path d="M 757.0634 312.143594 
L 764.6002 312.143594 
L 764.6002 311.749428 
L 757.0634 311.749428 
z
" clip-path="url(#pf3f802c507)" style="fill: #dc2626; opacity: 0.6"/>
   </g>
   <g id="patch_148">
    <path d="M 764.6002 312.143594 
L 772.137 312.143594 
L 772.137 311.847969 
L 764.6002 311.847969 
z
" clip-path="url(#pf3f802c507)" style="fill: #dc2626; opacity: 0.6"/>
   </g>
   <g id="patch_149">
    <path d="M 772.137 312.143594 
L 779.6738 312.143594 
L 779.6738 311.995781 
L 772.137 311.995781 
z
" clip-path="url(#pf3f802c507)" style="fill: #dc2626; opacity: 0.6"/>
   </g>
   <g id="patch_150">
    <path d="M 779.6738 312.143594 
L 787.2106 312.143594 
L 787.2106 311.650886 
L 779.6738 311.650886 
z
" clip-path="url(#pf3f802c507)" style="fill: #dc2626; opacity: 0.6"/>
   </g>
   <g id="patch_151">
    <path d="M 787.2106 312.143594 
L 794.7474 312.143594 
L 794.7474 311.601615 
L 787.2106 311.601615 
z
" clip-path="url(#pf3f802c507)" style="fill: #dc2626; opacity: 0.6"/>
   </g>
   <g id="patch_152">
    <path d="M 794.7474 312.143594 
L 802.2842 312.143594 
L 802.2842 311.995781 
L 794.7474 311.995781 
z
" clip-path="url(#pf3f802c507)" style="fill: #dc2626; opacity: 0.6"/>
   </g>
   <g id="patch_153">
    <path d="M 802.2842 312.143594 
L 809.821 312.143594 
L 809.821 311.89724 
L 802.2842 311.89724 
z
" clip-path="url(#pf3f802c507)" style="fill: #dc2626; opacity: 0.6"/>
   </g>
   <g id="patch_154">
    <path d="M 809.821 312.143594 
L 817.3578 312.143594 
L 817.3578 311.89724 
L 809.821 311.89724 
z
" clip-path="url(#pf3f802c507)" style="fill: #dc2626; opacity: 0.6"/>
   </g>
   <g id="patch_155">
    <path d="M 817.3578 312.143594 
L 824.8946 312.143594 
L 824.8946 311.89724 
L 817.3578 311.89724 
z
" clip-path="url(#pf3f802c507)" style="fill: #dc2626; opacity: 0.6"/>
   </g>
   <g id="patch_156">
    <path d="M 824.8946 312.143594 
L 832.4314 312.143594 
L 832.4314 311.89724 
L 824.8946 311.89724 
z
" clip-path="url(#pf3f802c507)" style="fill: #dc2626; opacity: 0.6"/>
   </g>
   <g id="patch_157">
    <path d="M 832.4314 312.143594 
L 839.9682 312.143594 
L 839.9682 311.995781 
L 832.4314 311.995781 
z
" clip-path="url(#pf3f802c507)" style="fill: #dc2626; opacity: 0.6"/>
   </g>
   <g id="patch_158">
    <path d="M 839.9682 312.143594 
L 847.505 312.143594 
L 847.505 303.718295 
L 839.9682 303.718295 
z
" clip-path="url(#pf3f802c507)" style="fill: #dc2626; opacity: 0.6"/>
   </g>
   <g id="patch_159">
    <path d="M 470.665 312.143594 
L 478.2018 312.143594 
L 478.2018 36.448356 
L 470.665 36.448356 
z
" clip-path="url(#pf3f802c507)" style="fill: #059669; opacity: 0.6"/>
   </g>
   <g id="patch_160">
    <path d="M 478.2018 312.143594 
L 485.7386 312.143594 
L 485.7386 227.56288 
L 478.2018 227.56288 
z
" clip-path="url(#pf3f802c507)" style="fill: #059669; opacity: 0.6"/>
   </g>
   <g id="patch_161">
    <path d="M 485.7386 312.143594 
L 493.2754 312.143594 
L 493.2754 247.175799 
L 485.7386 247.175799 
z
" clip-path="url(#pf3f802c507)" style="fill: #059669; opacity: 0.6"/>
   </g>
   <g id="patch_162">
    <path d="M 493.2754 312.143594 
L 500.8122 312.143594 
L 500.8122 265.562911 
L 493.2754 265.562911 
z
" clip-path="url(#pf3f802c507)" style="fill: #059669; opacity: 0.6"/>
   </g>
   <g id="patch_163">
    <path d="M 500.8122 312.143594 
L 508.349 312.143594 
L 508.349 279.492541 
L 500.8122 279.492541 
z
" clip-path="url(#pf3f802c507)" style="fill: #059669; opacity: 0.6"/>
   </g>
   <g id="patch_164">
    <path d="M 508.349 312.143594 
L 515.8858 312.143594 
L 515.8858 287.738882 
L 508.349 287.738882 
z
" clip-path="url(#pf3f802c507)" style="fill: #059669; opacity: 0.6"/>
   </g>
   <g id="patch_165">
    <path d="M 515.8858 312.143594 
L 523.4226 312.143594 
L 523.4226 291.862052 
L 515.8858 291.862052 
z
" clip-path="url(#pf3f802c507)" style="fill: #059669; opacity: 0.6"/>
   </g>
   <g id="patch_166">
    <path d="M 523.4226 312.143594 
L 530.9594 312.143594 
L 530.9594 296.208097 
L 523.4226 296.208097 
z
" clip-path="url(#pf3f802c507)" style="fill: #059669; opacity: 0.6"/>
   </g>
   <g id="patch_167">
    <path d="M 530.9594 312.143594 
L 538.4962 312.143594 
L 538.4962 297.99109 
L 530.9594 297.99109 
z
" clip-path="url(#pf3f802c507)" style="fill: #059669; opacity: 0.6"/>
   </g>
   <g id="patch_168">
    <path d="M 538.4962 312.143594 
L 546.033 312.143594 
L 546.033 299.328334 
L 538.4962 299.328334 
z
" clip-path="url(#pf3f802c507)" style="fill: #059669; opacity: 0.6"/>
   </g>
   <g id="patch_169">
    <path d="M 546.033 312.143594 
L 553.5698 312.143594 
L 553.5698 301.668512 
L 546.033 301.668512 
z
" clip-path="url(#pf3f802c507)" style="fill: #059669; opacity: 0.6"/>
   </g>
   <g id="patch_170">
    <path d="M 553.5698 312.143594 
L 561.1066 312.143594 
L 561.1066 303.562942 
L 553.5698 303.562942 
z
" clip-path="url(#pf3f802c507)" style="fill: #059669; opacity: 0.6"/>
   </g>
   <g id="patch_171">
    <path d="M 561.1066 312.143594 
L 568.6434 312.143594 
L 568.6434 306.125994 
L 561.1066 306.125994 
z
" clip-path="url(#pf3f802c507)" style="fill: #059669; opacity: 0.6"/>
   </g>
   <g id="patch_172">
    <path d="M 568.6434 312.143594 
L 576.1802 312.143594 
L 576.1802 306.683179 
L 568.6434 306.683179 
z
" clip-path="url(#pf3f802c507)" style="fill: #059669; opacity: 0.6"/>
   </g>
   <g id="patch_173">
    <path d="M 576.1802 312.143594 
L 583.717 312.143594 
L 583.717 308.466171 
L 576.1802 308.466171 
z
" clip-path="url(#pf3f802c507)" style="fill: #059669; opacity: 0.6"/>
   </g>
   <g id="patch_174">
    <path d="M 583.717 312.143594 
L 591.2538 312.143594 
L 591.2538 309.023357 
L 583.717 309.023357 
z
" clip-path="url(#pf3f802c507)" style="fill: #059669; opacity: 0.6"/>
   </g>
   <g id="patch_175">
    <path d="M 591.2538 312.143594 
L 598.7906 312.143594 
L 598.7906 309.023357 
L 591.2538 309.023357 
z
" clip-path="url(#pf3f802c507)" style="fill: #059669; opacity: 0.6"/>
   </g>
   <g id="patch_176">
    <path d="M 598.7906 312.143594 
L 606.3274 312.143594 
L 606.3274 310.02629 
L 598.7906 310.02629 
z
" clip-path="url(#pf3f802c507)" style="fill: #059669; opacity: 0.6"/>
   </g>
   <g id="patch_177">
    <path d="M 606.3274 312.143594 
L 613.8642 312.143594 
L 613.8642 310.583475 
L 606.3274 310.583475 
z
" clip-path="url(#pf3f802c507)" style="fill: #059669; opacity: 0.6"/>
   </g>
   <g id="patch_178">
    <path d="M 613.8642 312.143594 
L 621.401 312.143594 
L 621.401 310.249164 
L 613.8642 310.249164 
z
" clip-path="url(#pf3f802c507)" style="fill: #059669; opacity: 0.6"/>
   </g>
   <g id="patch_179">
    <path d="M 621.401 312.143594 
L 628.9378 312.143594 
L 628.9378 309.914853 
L 621.401 309.914853 
z
" clip-path="url(#pf3f802c507)" style="fill: #059669; opacity: 0.6"/>
   </g>
   <g id="patch_180">
    <path d="M 628.9378 312.143594 
L 636.4746 312.143594 
L 636.4746 309.691979 
L 628.9378 309.691979 
z
" clip-path="url(#pf3f802c507)" style="fill: #059669; opacity: 0.6"/>
   </g>
   <g id="patch_181">
    <path d="M 636.4746 312.143594 
L 644.0114 312.143594 
L 644.0114 311.14066 
L 636.4746 311.14066 
z
" clip-path="url(#pf3f802c507)" style="fill: #059669; opacity: 0.6"/>
   </g>
   <g id="patch_182">
    <path d="M 644.0114 312.143594 
L 651.5482 312.143594 
L 651.5482 310.694912 
L 644.0114 310.694912 
z
" clip-path="url(#pf3f802c507)" style="fill: #059669; opacity: 0.6"/>
   </g>
   <g id="patch_183">
    <path d="M 651.5482 312.143594 
L 659.085 312.143594 
L 659.085 311.252097 
L 651.5482 311.252097 
z
" clip-path="url(#pf3f802c507)" style="fill: #059669; opacity: 0.6"/>
   </g>
   <g id="patch_184">
    <path d="M 659.085 312.143594 
L 666.6218 312.143594 
L 666.6218 310.917786 
L 659.085 310.917786 
z
" clip-path="url(#pf3f802c507)" style="fill: #059669; opacity: 0.6"/>
   </g>
   <g id="patch_185">
    <path d="M 666.6218 312.143594 
L 674.1586 312.143594 
L 674.1586 312.032157 
L 666.6218 312.032157 
z
" clip-path="url(#pf3f802c507)" style="fill: #059669; opacity: 0.6"/>
   </g>
   <g id="patch_186">
    <path d="M 674.1586 312.143594 
L 681.6954 312.143594 
L 681.6954 311.474972 
L 674.1586 311.474972 
z
" clip-path="url(#pf3f802c507)" style="fill: #059669; opacity: 0.6"/>
   </g>
   <g id="patch_187">
    <path d="M 681.6954 312.143594 
L 689.2322 312.143594 
L 689.2322 311.14066 
L 681.6954 311.14066 
z
" clip-path="url(#pf3f802c507)" style="fill: #059669; opacity: 0.6"/>
   </g>
   <g id="patch_188">
    <path d="M 689.2322 312.143594 
L 696.769 312.143594 
L 696.769 311.809283 
L 689.2322 311.809283 
z
" clip-path="url(#pf3f802c507)" style="fill: #059669; opacity: 0.6"/>
   </g>
   <g id="patch_189">
    <path d="M 696.769 312.143594 
L 704.3058 312.143594 
L 704.3058 311.363534 
L 696.769 311.363534 
z
" clip-path="url(#pf3f802c507)" style="fill: #059669; opacity: 0.6"/>
   </g>
   <g id="patch_190">
    <path d="M 704.3058 312.143594 
L 711.8426 312.143594 
L 711.8426 311.252097 
L 704.3058 311.252097 
z
" clip-path="url(#pf3f802c507)" style="fill: #059669; opacity: 0.6"/>
   </g>
   <g id="patch_191">
    <path d="M 711.8426 312.143594 
L 719.3794 312.143594 
L 719.3794 311.809283 
L 711.8426 311.809283 
z
" clip-path="url(#pf3f802c507)" style="fill: #059669; opacity: 0.6"/>
   </g>
   <g id="patch_192">
    <path d="M 719.3794 312.143594 
L 726.9162 312.143594 
L 726.9162 311.363534 
L 719.3794 311.363534 
z
" clip-path="url(#pf3f802c507)" style="fill: #059669; opacity: 0.6"/>
   </g>
   <g id="patch_193">
    <path d="M 726.9162 312.143594 
L 734.453 312.143594 
L 734.453 311.809283 
L 726.9162 311.809283 
z
" clip-path="url(#pf3f802c507)" style="fill: #059669; opacity: 0.6"/>
   </g>
   <g id="patch_194">
    <path d="M 734.453 312.143594 
L 741.9898 312.143594 
L 741.9898 311.697846 
L 734.453 311.697846 
z
" clip-path="url(#pf3f802c507)" style="fill: #059669; opacity: 0.6"/>
   </g>
   <g id="patch_195">
    <path d="M 741.9898 312.143594 
L 749.5266 312.143594 
L 749.5266 311.586409 
L 741.9898 311.586409 
z
" clip-path="url(#pf3f802c507)" style="fill: #059669; opacity: 0.6"/>
   </g>
   <g id="patch_196">
    <path d="M 749.5266 312.143594 
L 757.0634 312.143594 
L 757.0634 311.14066 
L 749.5266 311.14066 
z
" clip-path="url(#pf3f802c507)" style="fill: #059669; opacity: 0.6"/>
   </g>
   <g id="patch_197">
    <path d="M 757.0634 312.143594 
L 764.6002 312.143594 
L 764.6002 312.032157 
L 757.0634 312.032157 
z
" clip-path="url(#pf3f802c507)" style="fill: #059669; opacity: 0.6"/>
   </g>
   <g id="patch_198">
    <path d="M 764.6002 312.143594 
L 772.137 312.143594 
L 772.137 311.697846 
L 764.6002 311.697846 
z
" clip-path="url(#pf3f802c507)" style="fill: #059669; opacity: 0.6"/>
   </g>
   <g id="patch_199">
    <path d="M 772.137 312.143594 
L 779.6738 312.143594 
L 779.6738 311.809283 
L 772.137 311.809283 
z
" clip-path="url(#pf3f802c507)" style="fill: #059669; opacity: 0.6"/>
   </g>
   <g id="patch_200">
    <path d="M 779.6738 312.143594 
L 787.2106 312.143594 
L 787.2106 311.809283 
L 779.6738 311.809283 
z
" clip-path="url(#pf3f802c507)" style="fill: #059669; opacity: 0.6"/>
   </g>
   <g id="patch_201">
    <path d="M 787.2106 312.143594 
L 794.7474 312.143594 
L 794.7474 311.92072 
L 787.2106 311.92072 
z
" clip-path="url(#pf3f802c507)" style="fill: #059669; opacity: 0.6"/>
   </g>
   <g id="patch_202">
    <path d="M 794.7474 312.143594 
L 802.2842 312.143594 
L 802.2842 312.032157 
L 794.7474 312.032157 
z
" clip-path="url(#pf3f802c507)" style="fill: #059669; opacity: 0.6"/>
   </g>
   <g id="patch_203">
    <path d="M 802.2842 312.143594 
L 809.821 312.143594 
L 809.821 312.032157 
L 802.2842 312.032157 
z
" clip-path="url(#pf3f802c507)" style="fill: #059669; opacity: 0.6"/>
   </g>
   <g id="patch_204">
    <path d="M 809.821 312.143594 
L 817.3578 312.143594 
L 817.3578 312.143594 
L 809.821 312.143594 
z
" clip-path="url(#pf3f802c507)" style="fill: #059669; opacity: 0.6"/>
   </g>
   <g id="patch_205">
    <path d="M 817.3578 312.143594 
L 824.8946 312.143594 
L 824.8946 311.92072 
L 817.3578 311.92072 
z
" clip-path="url(#pf3f802c507)" style="fill: #059669; opacity: 0.6"/>
   </g>
   <g id="patch_206">
    <path d="M 824.8946 312.143594 
L 832.4314 312.143594 
L 832.4314 311.697846 
L 824.8946 311.697846 
z
" clip-path="url(#pf3f802c507)" style="fill: #059669; opacity: 0.6"/>
   </g>
   <g id="patch_207">
    <path d="M 832.4314 312.143594 
L 839.9682 312.143594 
L 839.9682 312.032157 
L 832.4314 312.032157 
z
" clip-path="url(#pf3f802c507)" style="fill: #059669; opacity: 0.6"/>
   </g>
   <g id="patch_208">
    <path d="M 839.9682 312.143594 
L 847.505 312.143594 
L 847.505 308.800483 
L 839.9682 308.800483 
z
" clip-path="url(#pf3f802c507)" style="fill: #059669; opacity: 0.6"/>
   </g>
   <g id="matplotlib.axis_3">
    <g id="xtick_7">
     <g id="line2d_19">
      <g>
       <use xlink:href="#m7a141b15ac" x="470.665" y="312.143594" style="stroke: #000000; stroke-width: 0.8"/>
      </g>
     </g>
     <g id="text_22">
      <!-- 0 -->
      <g transform="translate(467.606484 327.017187) scale(0.11 -0.11)">
       <use xlink:href="#ArialMT-30"/>
      </g>
     </g>
    </g>
    <g id="xtick_8">
     <g id="line2d_20">
      <g>
       <use xlink:href="#m7a141b15ac" x="543.281116" y="312.143594" style="stroke: #000000; stroke-width: 0.8"/>
      </g>
     </g>
     <g id="text_23">
      <!-- 5 -->
      <g transform="translate(540.222601 327.017187) scale(0.11 -0.11)">
       <use xlink:href="#ArialMT-35"/>
      </g>
     </g>
    </g>
    <g id="xtick_9">
     <g id="line2d_21">
      <g>
       <use xlink:href="#m7a141b15ac" x="615.897233" y="312.143594" style="stroke: #000000; stroke-width: 0.8"/>
      </g>
     </g>
     <g id="text_24">
      <!-- 10 -->
      <g transform="translate(609.780202 327.017187) scale(0.11 -0.11)">
       <use xlink:href="#ArialMT-31"/>
       <use xlink:href="#ArialMT-30" transform="translate(55.615234 0)"/>
      </g>
     </g>
    </g>
    <g id="xtick_10">
     <g id="line2d_22">
      <g>
       <use xlink:href="#m7a141b15ac" x="688.513349" y="312.143594" style="stroke: #000000; stroke-width: 0.8"/>
      </g>
     </g>
     <g id="text_25">
      <!-- 15 -->
      <g transform="translate(682.396318 327.017187) scale(0.11 -0.11)">
       <use xlink:href="#ArialMT-31"/>
       <use xlink:href="#ArialMT-35" transform="translate(55.615234 0)"/>
      </g>
     </g>
    </g>
    <g id="xtick_11">
     <g id="line2d_23">
      <g>
       <use xlink:href="#m7a141b15ac" x="761.129466" y="312.143594" style="stroke: #000000; stroke-width: 0.8"/>
      </g>
     </g>
     <g id="text_26">
      <!-- 20 -->
      <g transform="translate(755.012434 327.017187) scale(0.11 -0.11)">
       <use xlink:href="#ArialMT-32"/>
       <use xlink:href="#ArialMT-30" transform="translate(55.615234 0)"/>
      </g>
     </g>
    </g>
    <g id="xtick_12">
     <g id="line2d_24">
      <g>
       <use xlink:href="#m7a141b15ac" x="833.745582" y="312.143594" style="stroke: #000000; stroke-width: 0.8"/>
      </g>
     </g>
     <g id="text_27">
      <!-- 25 -->
      <g transform="translate(827.628551 327.017187) scale(0.11 -0.11)">
       <use xlink:href="#ArialMT-32"/>
       <use xlink:href="#ArialMT-35" transform="translate(55.615234 0)"/>
      </g>
     </g>
    </g>
    <g id="text_28">
     <!-- FWCI (winsorized) -->
     <g transform="translate(609.750938 341.939062) scale(0.12 -0.12)">
      <use xlink:href="#ArialMT-46"/>
      <use xlink:href="#ArialMT-57" transform="translate(61.083984 0)"/>
      <use xlink:href="#ArialMT-43" transform="translate(155.46875 0)"/>
      <use xlink:href="#ArialMT-49" transform="translate(227.685547 0)"/>
      <use xlink:href="#ArialMT-20" transform="translate(255.46875 0)"/>
      <use xlink:href="#ArialMT-28" transform="translate(283.251953 0)"/>
      <use xlink:href="#ArialMT-77" transform="translate(316.552734 0)"/>
      <use xlink:href="#ArialMT-69" transform="translate(388.769531 0)"/>
      <use xlink:href="#ArialMT-6e" transform="translate(410.986328 0)"/>
      <use xlink:href="#ArialMT-73" transform="translate(466.601562 0)"/>
      <use xlink:href="#ArialMT-6f" transform="translate(516.601562 0)"/>
      <use xlink:href="#ArialMT-72" transform="translate(572.216797 0)"/>
      <use xlink:href="#ArialMT-69" transform="translate(605.517578 0)"/>
      <use xlink:href="#ArialMT-7a" transform="translate(627.734375 0)"/>
      <use xlink:href="#ArialMT-65" transform="translate(677.734375 0)"/>
      <use xlink:href="#ArialMT-64" transform="translate(733.349609 0)"/>
      <use xlink:href="#ArialMT-29" transform="translate(788.964844 0)"/>
     </g>
    </g>
   </g>
   <g id="matplotlib.axis_4">
    <g id="ytick_9">
     <g id="line2d_25">
      <g>
       <use xlink:href="#m79451987ad" x="470.665" y="312.143594" style="stroke: #000000; stroke-width: 0.8"/>
      </g>
     </g>
     <g id="text_29">
      <!-- 0.0 -->
      <g transform="translate(448.375 316.080391) scale(0.11 -0.11)">
       <use xlink:href="#ArialMT-30"/>
       <use xlink:href="#ArialMT-2e" transform="translate(55.615234 0)"/>
       <use xlink:href="#ArialMT-30" transform="translate(83.398438 0)"/>
      </g>
     </g>
    </g>
    <g id="ytick_10">
     <g id="line2d_26">
      <g>
       <use xlink:href="#m79451987ad" x="470.665" y="277.873508" style="stroke: #000000; stroke-width: 0.8"/>
      </g>
     </g>
     <g id="text_30">
      <!-- 0.1 -->
      <g transform="translate(448.375 281.810305) scale(0.11 -0.11)">
       <use xlink:href="#ArialMT-30"/>
       <use xlink:href="#ArialMT-2e" transform="translate(55.615234 0)"/>
       <use xlink:href="#ArialMT-31" transform="translate(83.398438 0)"/>
      </g>
     </g>
    </g>
    <g id="ytick_11">
     <g id="line2d_27">
      <g>
       <use xlink:href="#m79451987ad" x="470.665" y="243.603422" style="stroke: #000000; stroke-width: 0.8"/>
      </g>
     </g>
     <g id="text_31">
      <!-- 0.2 -->
      <g transform="translate(448.375 247.540219) scale(0.11 -0.11)">
       <use xlink:href="#ArialMT-30"/>
       <use xlink:href="#ArialMT-2e" transform="translate(55.615234 0)"/>
       <use xlink:href="#ArialMT-32" transform="translate(83.398438 0)"/>
      </g>
     </g>
    </g>
    <g id="ytick_12">
     <g id="line2d_28">
      <g>
       <use xlink:href="#m79451987ad" x="470.665" y="209.333336" style="stroke: #000000; stroke-width: 0.8"/>
      </g>
     </g>
     <g id="text_32">
      <!-- 0.3 -->
      <g transform="translate(448.375 213.270133) scale(0.11 -0.11)">
       <use xlink:href="#ArialMT-30"/>
       <use xlink:href="#ArialMT-2e" transform="translate(55.615234 0)"/>
       <use xlink:href="#ArialMT-33" transform="translate(83.398438 0)"/>
      </g>
     </g>
    </g>
    <g id="ytick_13">
     <g id="line2d_29">
      <g>
       <use xlink:href="#m79451987ad" x="470.665" y="175.06325" style="stroke: #000000; stroke-width: 0.8"/>
      </g>
     </g>
     <g id="text_33">
      <!-- 0.4 -->
      <g transform="translate(448.375 179.000047) scale(0.11 -0.11)">
       <use xlink:href="#ArialMT-30"/>
       <use xlink:href="#ArialMT-2e" transform="translate(55.615234 0)"/>
       <use xlink:href="#ArialMT-34" transform="translate(83.398438 0)"/>
      </g>
     </g>
    </g>
    <g id="ytick_14">
     <g id="line2d_30">
      <g>
       <use xlink:href="#m79451987ad" x="470.665" y="140.793164" style="stroke: #000000; stroke-width: 0.8"/>
      </g>
     </g>
     <g id="text_34">
      <!-- 0.5 -->
      <g transform="translate(448.375 144.729961) scale(0.11 -0.11)">
       <use xlink:href="#ArialMT-30"/>
       <use xlink:href="#ArialMT-2e" transform="translate(55.615234 0)"/>
       <use xlink:href="#ArialMT-35" transform="translate(83.398438 0)"/>
      </g>
     </g>
    </g>
    <g id="ytick_15">
     <g id="line2d_31">
      <g>
       <use xlink:href="#m79451987ad" x="470.665" y="106.523078" style="stroke: #000000; stroke-width: 0.8"/>
      </g>
     </g>
     <g id="text_35">
      <!-- 0.6 -->
      <g transform="translate(448.375 110.459875) scale(0.11 -0.11)">
       <use xlink:href="#ArialMT-30"/>
       <use xlink:href="#ArialMT-2e" transform="translate(55.615234 0)"/>
       <use xlink:href="#ArialMT-36" transform="translate(83.398438 0)"/>
      </g>
     </g>
    </g>
    <g id="ytick_16">
     <g id="line2d_32">
      <g>
       <use xlink:href="#m79451987ad" x="470.665" y="72.252992" style="stroke: #000000; stroke-width: 0.8"/>
      </g>
     </g>
     <g id="text_36">
      <!-- 0.7 -->
      <g transform="translate(448.375 76.189789) scale(0.11 -0.11)">
       <use xlink:href="#ArialMT-30"/>
       <use xlink:href="#ArialMT-2e" transform="translate(55.615234 0)"/>
       <use xlink:href="#ArialMT-37" transform="translate(83.398438 0)"/>
      </g>
     </g>
    </g>
    <g id="ytick_17">
     <g id="line2d_33">
      <g>
       <use xlink:href="#m79451987ad" x="470.665" y="37.982906" style="stroke: #000000; stroke-width: 0.8"/>
      </g>
     </g>
     <g id="text_37">
      <!-- 0.8 -->
      <g transform="translate(448.375 41.919703) scale(0.11 -0.11)">
       <defs>
        <path id="ArialMT-38" d="M 1131 2484 
Q 781 2613 612 2850 
Q 444 3088 444 3419 
Q 444 3919 803 4259 
Q 1163 4600 1759 4600 
Q 2359 4600 2725 4251 
Q 3091 3903 3091 3403 
Q 3091 3084 2923 2848 
Q 2756 2613 2416 2484 
Q 2838 2347 3058 2040 
Q 3278 1734 3278 1309 
Q 3278 722 2862 322 
Q 2447 -78 1769 -78 
Q 1091 -78 675 323 
Q 259 725 259 1325 
Q 259 1772 486 2073 
Q 713 2375 1131 2484 
z
M 1019 3438 
Q 1019 3113 1228 2906 
Q 1438 2700 1772 2700 
Q 2097 2700 2305 2904 
Q 2513 3109 2513 3406 
Q 2513 3716 2298 3927 
Q 2084 4138 1766 4138 
Q 1444 4138 1231 3931 
Q 1019 3725 1019 3438 
z
M 838 1322 
Q 838 1081 952 856 
Q 1066 631 1291 507 
Q 1516 384 1775 384 
Q 2178 384 2440 643 
Q 2703 903 2703 1303 
Q 2703 1709 2433 1975 
Q 2163 2241 1756 2241 
Q 1359 2241 1098 1978 
Q 838 1716 838 1322 
z
" transform="scale(0.015625)"/>
       </defs>
       <use xlink:href="#ArialMT-30"/>
       <use xlink:href="#ArialMT-2e" transform="translate(55.615234 0)"/>
       <use xlink:href="#ArialMT-38" transform="translate(83.398438 0)"/>
      </g>
     </g>
    </g>
    <g id="text_38">
     <!-- Density -->
     <g transform="translate(441.849375 187.409844) rotate(-90) scale(0.12 -0.12)">
      <use xlink:href="#ArialMT-44"/>
      <use xlink:href="#ArialMT-65" transform="translate(72.216797 0)"/>
      <use xlink:href="#ArialMT-6e" transform="translate(127.832031 0)"/>
      <use xlink:href="#ArialMT-73" transform="translate(183.447266 0)"/>
      <use xlink:href="#ArialMT-69" transform="translate(233.447266 0)"/>
      <use xlink:href="#ArialMT-74" transform="translate(255.664062 0)"/>
      <use xlink:href="#ArialMT-79" transform="translate(283.447266 0)"/>
     </g>
    </g>
   </g>
   <g id="line2d_34">
    <path d="M 483.008287 312.143594 
L 483.008287 22.663594 
" clip-path="url(#pf3f802c507)" style="fill: none; stroke-dasharray: 7.4,3.2; stroke-dashoffset: 0; stroke: #059669; stroke-width: 2"/>
   </g>
   <g id="line2d_35">
    <path d="M 489.658471 312.143594 
L 489.658471 22.663594 
" clip-path="url(#pf3f802c507)" style="fill: none; stroke-dasharray: 7.4,3.2; stroke-dashoffset: 0; stroke: #dc2626; stroke-width: 2"/>
   </g>
   <g id="patch_209">
    <path d="M 470.665 312.143594 
L 470.665 22.663594 
" style="fill: none; stroke: #000000; stroke-width: 0.8; stroke-linejoin: miter; stroke-linecap: square"/>
   </g>
   <g id="patch_210">
    <path d="M 470.665 312.143594 
L 847.505 312.143594 
" style="fill: none; stroke: #000000; stroke-width: 0.8; stroke-linejoin: miter; stroke-linecap: square"/>
   </g>
   <g id="text_39">
    <!-- Citation Impact: GH vs Non-GH Last Author -->
    <g transform="translate(533.736562 16.663594) scale(0.13 -0.13)">
     <defs>
      <path id="ArialMT-4c" d="M 469 0 
L 469 4581 
L 1075 4581 
L 1075 541 
L 3331 541 
L 3331 0 
L 469 0 
z
" transform="scale(0.015625)"/>
     </defs>
     <use xlink:href="#ArialMT-43"/>
     <use xlink:href="#ArialMT-69" transform="translate(72.216797 0)"/>
     <use xlink:href="#ArialMT-74" transform="translate(94.433594 0)"/>
     <use xlink:href="#ArialMT-61" transform="translate(122.216797 0)"/>
     <use xlink:href="#ArialMT-74" transform="translate(177.832031 0)"/>
     <use xlink:href="#ArialMT-69" transform="translate(205.615234 0)"/>
     <use xlink:href="#ArialMT-6f" transform="translate(227.832031 0)"/>
     <use xlink:href="#ArialMT-6e" transform="translate(283.447266 0)"/>
     <use xlink:href="#ArialMT-20" transform="translate(339.0625 0)"/>
     <use xlink:href="#ArialMT-49" transform="translate(366.845703 0)"/>
     <use xlink:href="#ArialMT-6d" transform="translate(394.628906 0)"/>
     <use xlink:href="#ArialMT-70" transform="translate(477.929688 0)"/>
     <use xlink:href="#ArialMT-61" transform="translate(533.544922 0)"/>
     <use xlink:href="#ArialMT-63" transform="translate(589.160156 0)"/>
     <use xlink:href="#ArialMT-74" transform="translate(639.160156 0)"/>
     <use xlink:href="#ArialMT-3a" transform="translate(666.943359 0)"/>
     <use xlink:href="#ArialMT-20" transform="translate(694.726562 0)"/>
     <use xlink:href="#ArialMT-47" transform="translate(722.509766 0)"/>
     <use xlink:href="#ArialMT-48" transform="translate(800.292969 0)"/>
     <use xlink:href="#ArialMT-20" transform="translate(872.509766 0)"/>
     <use xlink:href="#ArialMT-76" transform="translate(900.292969 0)"/>
     <use xlink:href="#ArialMT-73" transform="translate(950.292969 0)"/>
     <use xlink:href="#ArialMT-20" transform="translate(1000.292969 0)"/>
     <use xlink:href="#ArialMT-4e" transform="translate(1028.076172 0)"/>
     <use xlink:href="#ArialMT-6f" transform="translate(1100.292969 0)"/>
     <use xlink:href="#ArialMT-6e" transform="translate(1155.908203 0)"/>
     <use xlink:href="#ArialMT-2d" transform="translate(1211.523438 0)"/>
     <use xlink:href="#ArialMT-47" transform="translate(1244.824219 0)"/>
     <use xlink:href="#ArialMT-48" transform="translate(1322.607422 0)"/>
     <use xlink:href="#ArialMT-20" transform="translate(1394.824219 0)"/>
     <use xlink:href="#ArialMT-4c" transform="translate(1422.607422 0)"/>
     <use xlink:href="#ArialMT-61" transform="translate(1478.222656 0)"/>
     <use xlink:href="#ArialMT-73" transform="translate(1533.837891 0)"/>
     <use xlink:href="#ArialMT-74" transform="translate(1583.837891 0)"/>
     <use xlink:href="#ArialMT-20" transform="translate(1611.621094 0)"/>
     <use xlink:href="#ArialMT-41" transform="translate(1633.904297 0)"/>
     <use xlink:href="#ArialMT-75" transform="translate(1700.603516 0)"/>
     <use xlink:href="#ArialMT-74" transform="translate(1756.21875 0)"/>
     <use xlink:href="#ArialMT-68" transform="translate(1784.001953 0)"/>
     <use xlink:href="#ArialMT-6f" transform="translate(1839.617188 0)"/>
     <use xlink:href="#ArialMT-72" transform="translate(1895.232422 0)"/>
    </g>
   </g>
   <g id="legend_2">
    <g id="patch_211">
     <path d="M 738.49375 74.328594 
L 841.905 74.328594 
Q 843.505 74.328594 843.505 72.728594 
L 843.505 28.263594 
Q 843.505 26.663594 841.905 26.663594 
L 738.49375 26.663594 
Q 736.89375 26.663594 736.89375 28.263594 
L 736.89375 72.728594 
Q 736.89375 74.328594 738.49375 74.328594 
z
" style="fill: #ffffff; opacity: 0.8; stroke: #cccccc; stroke-linejoin: miter"/>
    </g>
    <g id="patch_212">
     <path d="M 740.09375 35.589844 
L 756.09375 35.589844 
L 756.09375 29.989844 
L 740.09375 29.989844 
z
" style="fill: #dc2626; opacity: 0.6"/>
    </g>
    <g id="text_40">
     <!-- Non-GH Last Author -->
     <g transform="translate(762.49375 35.589844) scale(0.08 -0.08)">
      <use xlink:href="#ArialMT-4e"/>
      <use xlink:href="#ArialMT-6f" transform="translate(72.216797 0)"/>
      <use xlink:href="#ArialMT-6e" transform="translate(127.832031 0)"/>
      <use xlink:href="#ArialMT-2d" transform="translate(183.447266 0)"/>
      <use xlink:href="#ArialMT-47" transform="translate(216.748047 0)"/>
      <use xlink:href="#ArialMT-48" transform="translate(294.53125 0)"/>
      <use xlink:href="#ArialMT-20" transform="translate(366.748047 0)"/>
      <use xlink:href="#ArialMT-4c" transform="translate(394.53125 0)"/>
      <use xlink:href="#ArialMT-61" transform="translate(450.146484 0)"/>
      <use xlink:href="#ArialMT-73" transform="translate(505.761719 0)"/>
      <use xlink:href="#ArialMT-74" transform="translate(555.761719 0)"/>
      <use xlink:href="#ArialMT-20" transform="translate(583.544922 0)"/>
      <use xlink:href="#ArialMT-41" transform="translate(605.828125 0)"/>
      <use xlink:href="#ArialMT-75" transform="translate(672.527344 0)"/>
      <use xlink:href="#ArialMT-74" transform="translate(728.142578 0)"/>
      <use xlink:href="#ArialMT-68" transform="translate(755.925781 0)"/>
      <use xlink:href="#ArialMT-6f" transform="translate(811.541016 0)"/>
      <use xlink:href="#ArialMT-72" transform="translate(867.15625 0)"/>
     </g>
    </g>
    <g id="patch_213">
     <path d="M 740.09375 46.906094 
L 756.09375 46.906094 
L 756.09375 41.306094 
L 740.09375 41.306094 
z
" style="fill: #059669; opacity: 0.6"/>
    </g>
    <g id="text_41">
     <!-- GH Last Author -->
     <g transform="translate(762.49375 46.906094) scale(0.08 -0.08)">
      <use xlink:href="#ArialMT-47"/>
      <use xlink:href="#ArialMT-48" transform="translate(77.783203 0)"/>
      <use xlink:href="#ArialMT-20" transform="translate(150 0)"/>
      <use xlink:href="#ArialMT-4c" transform="translate(177.783203 0)"/>
      <use xlink:href="#ArialMT-61" transform="translate(233.398438 0)"/>
      <use xlink:href="#ArialMT-73" transform="translate(289.013672 0)"/>
      <use xlink:href="#ArialMT-74" transform="translate(339.013672 0)"/>
      <use xlink:href="#ArialMT-20" transform="translate(366.796875 0)"/>
      <use xlink:href="#ArialMT-41" transform="translate(389.080078 0)"/>
      <use xlink:href="#ArialMT-75" transform="translate(455.779297 0)"/>
      <use xlink:href="#ArialMT-74" transform="translate(511.394531 0)"/>
      <use xlink:href="#ArialMT-68" transform="translate(539.177734 0)"/>
      <use xlink:href="#ArialMT-6f" transform="translate(594.792969 0)"/>
      <use xlink:href="#ArialMT-72" transform="translate(650.408203 0)"/>
     </g>
    </g>
    <g id="line2d_36">
     <path d="M 740.09375 55.422344 
L 748.09375 55.422344 
L 756.09375 55.422344 
" style="fill: none; stroke-dasharray: 7.4,3.2; stroke-dashoffset: 0; stroke: #059669; stroke-width: 2"/>
    </g>
    <g id="text_42">
     <!-- GH median: 0.85 -->
     <g transform="translate(762.49375 58.222344) scale(0.08 -0.08)">
      <use xlink:href="#ArialMT-47"/>
      <use xlink:href="#ArialMT-48" transform="translate(77.783203 0)"/>
      <use xlink:href="#ArialMT-20" transform="translate(150 0)"/>
      <use xlink:href="#ArialMT-6d" transform="translate(177.783203 0)"/>
      <use xlink:href="#ArialMT-65" transform="translate(261.083984 0)"/>
      <use xlink:href="#ArialMT-64" transform="translate(316.699219 0)"/>
      <use xlink:href="#ArialMT-69" transform="translate(372.314453 0)"/>
      <use xlink:href="#ArialMT-61" transform="translate(394.53125 0)"/>
      <use xlink:href="#ArialMT-6e" transform="translate(450.146484 0)"/>
      <use xlink:href="#ArialMT-3a" transform="translate(505.761719 0)"/>
      <use xlink:href="#ArialMT-20" transform="translate(533.544922 0)"/>
      <use xlink:href="#ArialMT-30" transform="translate(561.328125 0)"/>
      <use xlink:href="#ArialMT-2e" transform="translate(616.943359 0)"/>
      <use xlink:href="#ArialMT-38" transform="translate(644.726562 0)"/>
      <use xlink:href="#ArialMT-35" transform="translate(700.341797 0)"/>
     </g>
    </g>
    <g id="line2d_37">
     <path d="M 740.09375 66.738594 
L 748.09375 66.738594 
L 756.09375 66.738594 
" style="fill: none; stroke-dasharray: 7.4,3.2; stroke-dashoffset: 0; stroke: #dc2626; stroke-width: 2"/>
    </g>
    <g id="text_43">
     <!-- Non-GH median: 1.31 -->
     <g transform="translate(762.49375 69.538594) scale(0.08 -0.08)">
      <use xlink:href="#ArialMT-4e"/>
      <use xlink:href="#ArialMT-6f" transform="translate(72.216797 0)"/>
      <use xlink:href="#ArialMT-6e" transform="translate(127.832031 0)"/>
      <use xlink:href="#ArialMT-2d" transform="translate(183.447266 0)"/>
      <use xlink:href="#ArialMT-47" transform="translate(216.748047 0)"/>
      <use xlink:href="#ArialMT-48" transform="translate(294.53125 0)"/>
      <use xlink:href="#ArialMT-20" transform="translate(366.748047 0)"/>
      <use xlink:href="#ArialMT-6d" transform="translate(394.53125 0)"/>
      <use xlink:href="#ArialMT-65" transform="translate(477.832031 0)"/>
      <use xlink:href="#ArialMT-64" transform="translate(533.447266 0)"/>
      <use xlink:href="#ArialMT-69" transform="translate(589.0625 0)"/>
      <use xlink:href="#ArialMT-61" transform="translate(611.279297 0)"/>
      <use xlink:href="#ArialMT-6e" transform="translate(666.894531 0)"/>
      <use xlink:href="#ArialMT-3a" transform="translate(722.509766 0)"/>
      <use xlink:href="#ArialMT-20" transform="translate(750.292969 0)"/>
      <use xlink:href="#ArialMT-31" transform="translate(778.076172 0)"/>
      <use xlink:href="#ArialMT-2e" transform="translate(833.691406 0)"/>
      <use xlink:href="#ArialMT-33" transform="translate(861.474609 0)"/>
      <use xlink:href="#ArialMT-31" transform="translate(917.089844 0)"/>
     </g>
    </g>
   </g>
  </g>
 </g>
 <defs>
  <clipPath id="p0022f7127c">
   <rect x="44.605" y="22.663594" width="376.84" height="289.48"/>
  </clipPath>
  <clipPath id="pf3f802c507">
   <rect x="470.665" y="22.663594" width="376.84" height="289.48"/>
  </clipPath>
 </defs>
</svg>
