<?xml version="1.0" encoding="utf-8" standalone="no"?>
<!DOCTYPE svg PUBLIC "-//W3C//DTD SVG 1.1//EN"
  "http://www.w3.org/Graphics/SVG/1.1/DTD/svg11.dtd">
<svg xmlns:xlink="http://www.w3.org/1999/xlink" width="568.93625pt" height="352.351687pt" viewBox="0 0 568.93625 352.351687" xmlns="http://www.w3.org/2000/svg" version="1.1">
 <metadata>
  <rdf:RDF xmlns:dc="http://purl.org/dc/elements/1.1/" xmlns:cc="http://creativecommons.org/ns#" xmlns:rdf="http://www.w3.org/1999/02/22-rdf-syntax-ns#">
   <cc:Work>
    <dc:type rdf:resource="http://purl.org/dc/dcmitype/StillImage"/>
    <dc:date>2026-04-10T02:04:45.191292</dc:date>
    <dc:format>image/svg+xml</dc:format>
    <dc:creator>
     <cc:Agent>
      <dc:title>Matplotlib v3.10.8, https://matplotlib.org/</dc:title>
     </cc:Agent>
    </dc:creator>
   </cc:Work>
  </rdf:RDF>
 </metadata>
 <defs>
  <style type="text/css">*{stroke-linejoin: round; stroke-linecap: butt}</style>
 </defs>
 <g id="figure_1">
  <g id="patch_1">
   <path d="M 0 352.351687 
L 568.93625 352.351687 
L 568.93625 0 
L 0 0 
z
" style="fill: #ffffff"/>
  </g>
  <g id="axes_1">
   <g id="patch_2">
    <path d="M 40.29625 314.032 
L 561.73625 314.032 
L 561.73625 38.568 
L 40.29625 38.568 
z
" style="fill: #ffffff"/>
   </g>
   <g id="matplotlib.axis_1">
    <g id="xtick_1">
     <g id="line2d_1">
      <defs>
       <path id="m7f9489b3c7" d="M 0 0 
L 0 3.5 
" style="stroke: #000000; stroke-width: 0.8"/>
      </defs>
      <g>
       <use xlink:href="#m7f9489b3c7" x="63.998068" y="314.032" style="stroke: #000000; stroke-width: 0.8"/>
      </g>
     </g>
     <g id="text_1">
      <!-- 2000 -->
      <g transform="translate(52.876193 328.189812) scale(0.1 -0.1)">
       <defs>
        <path id="ArialMT-32" d="M 3222 541 
L 3222 0 
L 194 0 
Q 188 203 259 391 
Q 375 700 629 1000 
Q 884 1300 1366 1694 
Q 2113 2306 2375 2664 
Q 2638 3022 2638 3341 
Q 2638 3675 2398 3904 
Q 2159 4134 1775 4134 
Q 1369 4134 1125 3890 
Q 881 3647 878 3216 
L 300 3275 
Q 359 3922 746 4261 
Q 1134 4600 1788 4600 
Q 2447 4600 2831 4234 
Q 3216 3869 3216 3328 
Q 3216 3053 3103 2787 
Q 2991 2522 2730 2228 
Q 2469 1934 1863 1422 
Q 1356 997 1212 845 
Q 1069 694 975 541 
L 3222 541 
z
" transform="scale(0.015625)"/>
        <path id="ArialMT-30" d="M 266 2259 
Q 266 3072 433 3567 
Q 600 4063 929 4331 
Q 1259 4600 1759 4600 
Q 2128 4600 2406 4451 
Q 2684 4303 2865 4023 
Q 3047 3744 3150 3342 
Q 3253 2941 3253 2259 
Q 3253 1453 3087 958 
Q 2922 463 2592 192 
Q 2263 -78 1759 -78 
Q 1097 -78 719 397 
Q 266 969 266 2259 
z
M 844 2259 
Q 844 1131 1108 757 
Q 1372 384 1759 384 
Q 2147 384 2411 759 
Q 2675 1134 2675 2259 
Q 2675 3391 2411 3762 
Q 2147 4134 1753 4134 
Q 1366 4134 1134 3806 
Q 844 3388 844 2259 
z
" transform="scale(0.015625)"/>
       </defs>
       <use xlink:href="#ArialMT-32"/>
       <use xlink:href="#ArialMT-30" transform="translate(55.615234 0)"/>
       <use xlink:href="#ArialMT-30" transform="translate(111.230469 0)"/>
       <use xlink:href="#ArialMT-30" transform="translate(166.845703 0)"/>
      </g>
     </g>
    </g>
    <g id="xtick_2">
     <g id="line2d_2">
      <g>
       <use xlink:href="#m7f9489b3c7" x="158.805341" y="314.032" style="stroke: #000000; stroke-width: 0.8"/>
      </g>
     </g>
     <g id="text_2">
      <!-- 2005 -->
      <g transform="translate(147.683466 328.189812) scale(0.1 -0.1)">
       <defs>
        <path id="ArialMT-35" d="M 266 1200 
L 856 1250 
Q 922 819 1161 601 
Q 1400 384 1738 384 
Q 2144 384 2425 690 
Q 2706 997 2706 1503 
Q 2706 1984 2436 2262 
Q 2166 2541 1728 2541 
Q 1456 2541 1237 2417 
Q 1019 2294 894 2097 
L 366 2166 
L 809 4519 
L 3088 4519 
L 3088 3981 
L 1259 3981 
L 1013 2750 
Q 1425 3038 1878 3038 
Q 2478 3038 2890 2622 
Q 3303 2206 3303 1553 
Q 3303 931 2941 478 
Q 2500 -78 1738 -78 
Q 1113 -78 717 272 
Q 322 622 266 1200 
z
" transform="scale(0.015625)"/>
       </defs>
       <use xlink:href="#ArialMT-32"/>
       <use xlink:href="#ArialMT-30" transform="translate(55.615234 0)"/>
       <use xlink:href="#ArialMT-30" transform="translate(111.230469 0)"/>
       <use xlink:href="#ArialMT-35" transform="translate(166.845703 0)"/>
      </g>
     </g>
    </g>
    <g id="xtick_3">
     <g id="line2d_3">
      <g>
       <use xlink:href="#m7f9489b3c7" x="253.612614" y="314.032" style="stroke: #000000; stroke-width: 0.8"/>
      </g>
     </g>
     <g id="text_3">
      <!-- 2010 -->
      <g transform="translate(242.490739 328.189812) scale(0.1 -0.1)">
       <defs>
        <path id="ArialMT-31" d="M 2384 0 
L 1822 0 
L 1822 3584 
Q 1619 3391 1289 3197 
Q 959 3003 697 2906 
L 697 3450 
Q 1169 3672 1522 3987 
Q 1875 4303 2022 4600 
L 2384 4600 
L 2384 0 
z
" transform="scale(0.015625)"/>
       </defs>
       <use xlink:href="#ArialMT-32"/>
       <use xlink:href="#ArialMT-30" transform="translate(55.615234 0)"/>
       <use xlink:href="#ArialMT-31" transform="translate(111.230469 0)"/>
       <use xlink:href="#ArialMT-30" transform="translate(166.845703 0)"/>
      </g>
     </g>
    </g>
    <g id="xtick_4">
     <g id="line2d_4">
      <g>
       <use xlink:href="#m7f9489b3c7" x="348.419886" y="314.032" style="stroke: #000000; stroke-width: 0.8"/>
      </g>
     </g>
     <g id="text_4">
      <!-- 2015 -->
      <g transform="translate(337.298011 328.189812) scale(0.1 -0.1)">
       <use xlink:href="#ArialMT-32"/>
       <use xlink:href="#ArialMT-30" transform="translate(55.615234 0)"/>
       <use xlink:href="#ArialMT-31" transform="translate(111.230469 0)"/>
       <use xlink:href="#ArialMT-35" transform="translate(166.845703 0)"/>
      </g>
     </g>
    </g>
    <g id="xtick_5">
     <g id="line2d_5">
      <g>
       <use xlink:href="#m7f9489b3c7" x="443.227159" y="314.032" style="stroke: #000000; stroke-width: 0.8"/>
      </g>
     </g>
     <g id="text_5">
      <!-- 2020 -->
      <g transform="translate(432.105284 328.189812) scale(0.1 -0.1)">
       <use xlink:href="#ArialMT-32"/>
       <use xlink:href="#ArialMT-30" transform="translate(55.615234 0)"/>
       <use xlink:href="#ArialMT-32" transform="translate(111.230469 0)"/>
       <use xlink:href="#ArialMT-30" transform="translate(166.845703 0)"/>
      </g>
     </g>
    </g>
    <g id="xtick_6">
     <g id="line2d_6">
      <g>
       <use xlink:href="#m7f9489b3c7" x="538.034432" y="314.032" style="stroke: #000000; stroke-width: 0.8"/>
      </g>
     </g>
     <g id="text_6">
      <!-- 2025 -->
      <g transform="translate(526.912557 328.189812) scale(0.1 -0.1)">
       <use xlink:href="#ArialMT-32"/>
       <use xlink:href="#ArialMT-30" transform="translate(55.615234 0)"/>
       <use xlink:href="#ArialMT-32" transform="translate(111.230469 0)"/>
       <use xlink:href="#ArialMT-35" transform="translate(166.845703 0)"/>
      </g>
     </g>
    </g>
    <g id="text_7">
     <!-- Year -->
     <g transform="translate(288.890625 342.766687) scale(0.12 -0.12)">
      <defs>
       <path id="ArialMT-59" d="M 1784 0 
L 1784 1941 
L 19 4581 
L 756 4581 
L 1659 3200 
Q 1909 2813 2125 2425 
Q 2331 2784 2625 3234 
L 3513 4581 
L 4219 4581 
L 2391 1941 
L 2391 0 
L 1784 0 
z
" transform="scale(0.015625)"/>
       <path id="ArialMT-65" d="M 2694 1069 
L 3275 997 
Q 3138 488 2766 206 
Q 2394 -75 1816 -75 
Q 1088 -75 661 373 
Q 234 822 234 1631 
Q 234 2469 665 2931 
Q 1097 3394 1784 3394 
Q 2450 3394 2872 2941 
Q 3294 2488 3294 1666 
Q 3294 1616 3291 1516 
L 816 1516 
Q 847 969 1125 678 
Q 1403 388 1819 388 
Q 2128 388 2347 550 
Q 2566 713 2694 1069 
z
M 847 1978 
L 2700 1978 
Q 2663 2397 2488 2606 
Q 2219 2931 1791 2931 
Q 1403 2931 1139 2672 
Q 875 2413 847 1978 
z
" transform="scale(0.015625)"/>
       <path id="ArialMT-61" d="M 2588 409 
Q 2275 144 1986 34 
Q 1697 -75 1366 -75 
Q 819 -75 525 192 
Q 231 459 231 875 
Q 231 1119 342 1320 
Q 453 1522 633 1644 
Q 813 1766 1038 1828 
Q 1203 1872 1538 1913 
Q 2219 1994 2541 2106 
Q 2544 2222 2544 2253 
Q 2544 2597 2384 2738 
Q 2169 2928 1744 2928 
Q 1347 2928 1158 2789 
Q 969 2650 878 2297 
L 328 2372 
Q 403 2725 575 2942 
Q 747 3159 1072 3276 
Q 1397 3394 1825 3394 
Q 2250 3394 2515 3294 
Q 2781 3194 2906 3042 
Q 3031 2891 3081 2659 
Q 3109 2516 3109 2141 
L 3109 1391 
Q 3109 606 3145 398 
Q 3181 191 3288 0 
L 2700 0 
Q 2613 175 2588 409 
z
M 2541 1666 
Q 2234 1541 1622 1453 
Q 1275 1403 1131 1340 
Q 988 1278 909 1158 
Q 831 1038 831 891 
Q 831 666 1001 516 
Q 1172 366 1500 366 
Q 1825 366 2078 508 
Q 2331 650 2450 897 
Q 2541 1088 2541 1459 
L 2541 1666 
z
" transform="scale(0.015625)"/>
       <path id="ArialMT-72" d="M 416 0 
L 416 3319 
L 922 3319 
L 922 2816 
Q 1116 3169 1280 3281 
Q 1444 3394 1641 3394 
Q 1925 3394 2219 3213 
L 2025 2691 
Q 1819 2813 1613 2813 
Q 1428 2813 1281 2702 
Q 1134 2591 1072 2394 
Q 978 2094 978 1738 
L 978 0 
L 416 0 
z
" transform="scale(0.015625)"/>
      </defs>
      <use xlink:href="#ArialMT-59"/>
      <use xlink:href="#ArialMT-65" transform="translate(57.574219 0)"/>
      <use xlink:href="#ArialMT-61" transform="translate(113.189453 0)"/>
      <use xlink:href="#ArialMT-72" transform="translate(168.804688 0)"/>
     </g>
    </g>
   </g>
   <g id="matplotlib.axis_2">
    <g id="ytick_1">
     <g id="line2d_7">
      <path d="M 40.29625 303.64686 
L 561.73625 303.64686 
" clip-path="url(#p5b815bdc83)" style="fill: none; stroke: #e0e0e0; stroke-width: 0.5; stroke-linecap: square"/>
     </g>
     <g id="line2d_8">
      <defs>
       <path id="m2df8af47b6" d="M 0 0 
L -3.5 0 
" style="stroke: #000000; stroke-width: 0.8"/>
      </defs>
      <g>
       <use xlink:href="#m2df8af47b6" x="40.29625" y="303.64686" style="stroke: #000000; stroke-width: 0.8"/>
      </g>
     </g>
     <g id="text_8">
      <!-- 30 -->
      <g transform="translate(22.174375 307.225766) scale(0.1 -0.1)">
       <defs>
        <path id="ArialMT-33" d="M 269 1209 
L 831 1284 
Q 928 806 1161 595 
Q 1394 384 1728 384 
Q 2125 384 2398 659 
Q 2672 934 2672 1341 
Q 2672 1728 2419 1979 
Q 2166 2231 1775 2231 
Q 1616 2231 1378 2169 
L 1441 2663 
Q 1497 2656 1531 2656 
Q 1891 2656 2178 2843 
Q 2466 3031 2466 3422 
Q 2466 3731 2256 3934 
Q 2047 4138 1716 4138 
Q 1388 4138 1169 3931 
Q 950 3725 888 3313 
L 325 3413 
Q 428 3978 793 4289 
Q 1159 4600 1703 4600 
Q 2078 4600 2393 4439 
Q 2709 4278 2876 4000 
Q 3044 3722 3044 3409 
Q 3044 3113 2884 2869 
Q 2725 2625 2413 2481 
Q 2819 2388 3044 2092 
Q 3269 1797 3269 1353 
Q 3269 753 2831 336 
Q 2394 -81 1725 -81 
Q 1122 -81 723 278 
Q 325 638 269 1209 
z
" transform="scale(0.015625)"/>
       </defs>
       <use xlink:href="#ArialMT-33"/>
       <use xlink:href="#ArialMT-30" transform="translate(55.615234 0)"/>
      </g>
     </g>
    </g>
    <g id="ytick_2">
     <g id="line2d_9">
      <path d="M 40.29625 261.885339 
L 561.73625 261.885339 
" clip-path="url(#p5b815bdc83)" style="fill: none; stroke: #e0e0e0; stroke-width: 0.5; stroke-linecap: square"/>
     </g>
     <g id="line2d_10">
      <g>
       <use xlink:href="#m2df8af47b6" x="40.29625" y="261.885339" style="stroke: #000000; stroke-width: 0.8"/>
      </g>
     </g>
     <g id="text_9">
      <!-- 40 -->
      <g transform="translate(22.174375 265.464245) scale(0.1 -0.1)">
       <defs>
        <path id="ArialMT-34" d="M 2069 0 
L 2069 1097 
L 81 1097 
L 81 1613 
L 2172 4581 
L 2631 4581 
L 2631 1613 
L 3250 1613 
L 3250 1097 
L 2631 1097 
L 2631 0 
L 2069 0 
z
M 2069 1613 
L 2069 3678 
L 634 1613 
L 2069 1613 
z
" transform="scale(0.015625)"/>
       </defs>
       <use xlink:href="#ArialMT-34"/>
       <use xlink:href="#ArialMT-30" transform="translate(55.615234 0)"/>
      </g>
     </g>
    </g>
    <g id="ytick_3">
     <g id="line2d_11">
      <path d="M 40.29625 220.123818 
L 561.73625 220.123818 
" clip-path="url(#p5b815bdc83)" style="fill: none; stroke: #e0e0e0; stroke-width: 0.5; stroke-linecap: square"/>
     </g>
     <g id="line2d_12">
      <g>
       <use xlink:href="#m2df8af47b6" x="40.29625" y="220.123818" style="stroke: #000000; stroke-width: 0.8"/>
      </g>
     </g>
     <g id="text_10">
      <!-- 50 -->
      <g transform="translate(22.174375 223.702724) scale(0.1 -0.1)">
       <use xlink:href="#ArialMT-35"/>
       <use xlink:href="#ArialMT-30" transform="translate(55.615234 0)"/>
      </g>
     </g>
    </g>
    <g id="ytick_4">
     <g id="line2d_13">
      <path d="M 40.29625 178.362297 
L 561.73625 178.362297 
" clip-path="url(#p5b815bdc83)" style="fill: none; stroke: #e0e0e0; stroke-width: 0.5; stroke-linecap: square"/>
     </g>
     <g id="line2d_14">
      <g>
       <use xlink:href="#m2df8af47b6" x="40.29625" y="178.362297" style="stroke: #000000; stroke-width: 0.8"/>
      </g>
     </g>
     <g id="text_11">
      <!-- 60 -->
      <g transform="translate(22.174375 181.941204) scale(0.1 -0.1)">
       <defs>
        <path id="ArialMT-36" d="M 3184 3459 
L 2625 3416 
Q 2550 3747 2413 3897 
Q 2184 4138 1850 4138 
Q 1581 4138 1378 3988 
Q 1113 3794 959 3422 
Q 806 3050 800 2363 
Q 1003 2672 1297 2822 
Q 1591 2972 1913 2972 
Q 2475 2972 2870 2558 
Q 3266 2144 3266 1488 
Q 3266 1056 3080 686 
Q 2894 316 2569 119 
Q 2244 -78 1831 -78 
Q 1128 -78 684 439 
Q 241 956 241 2144 
Q 241 3472 731 4075 
Q 1159 4600 1884 4600 
Q 2425 4600 2770 4297 
Q 3116 3994 3184 3459 
z
M 888 1484 
Q 888 1194 1011 928 
Q 1134 663 1356 523 
Q 1578 384 1822 384 
Q 2178 384 2434 671 
Q 2691 959 2691 1453 
Q 2691 1928 2437 2201 
Q 2184 2475 1800 2475 
Q 1419 2475 1153 2201 
Q 888 1928 888 1484 
z
" transform="scale(0.015625)"/>
       </defs>
       <use xlink:href="#ArialMT-36"/>
       <use xlink:href="#ArialMT-30" transform="translate(55.615234 0)"/>
      </g>
     </g>
    </g>
    <g id="ytick_5">
     <g id="line2d_15">
      <path d="M 40.29625 136.600776 
L 561.73625 136.600776 
" clip-path="url(#p5b815bdc83)" style="fill: none; stroke: #e0e0e0; stroke-width: 0.5; stroke-linecap: square"/>
     </g>
     <g id="line2d_16">
      <g>
       <use xlink:href="#m2df8af47b6" x="40.29625" y="136.600776" style="stroke: #000000; stroke-width: 0.8"/>
      </g>
     </g>
     <g id="text_12">
      <!-- 70 -->
      <g transform="translate(22.174375 140.179683) scale(0.1 -0.1)">
       <defs>
        <path id="ArialMT-37" d="M 303 3981 
L 303 4522 
L 3269 4522 
L 3269 4084 
Q 2831 3619 2401 2847 
Q 1972 2075 1738 1259 
Q 1569 684 1522 0 
L 944 0 
Q 953 541 1156 1306 
Q 1359 2072 1739 2783 
Q 2119 3494 2547 3981 
L 303 3981 
z
" transform="scale(0.015625)"/>
       </defs>
       <use xlink:href="#ArialMT-37"/>
       <use xlink:href="#ArialMT-30" transform="translate(55.615234 0)"/>
      </g>
     </g>
    </g>
    <g id="ytick_6">
     <g id="line2d_17">
      <path d="M 40.29625 94.839256 
L 561.73625 94.839256 
" clip-path="url(#p5b815bdc83)" style="fill: none; stroke: #e0e0e0; stroke-width: 0.5; stroke-linecap: square"/>
     </g>
     <g id="line2d_18">
      <g>
       <use xlink:href="#m2df8af47b6" x="40.29625" y="94.839256" style="stroke: #000000; stroke-width: 0.8"/>
      </g>
     </g>
     <g id="text_13">
      <!-- 80 -->
      <g transform="translate(22.174375 98.418162) scale(0.1 -0.1)">
       <defs>
        <path id="ArialMT-38" d="M 1131 2484 
Q 781 2613 612 2850 
Q 444 3088 444 3419 
Q 444 3919 803 4259 
Q 1163 4600 1759 4600 
Q 2359 4600 2725 4251 
Q 3091 3903 3091 3403 
Q 3091 3084 2923 2848 
Q 2756 2613 2416 2484 
Q 2838 2347 3058 2040 
Q 3278 1734 3278 1309 
Q 3278 722 2862 322 
Q 2447 -78 1769 -78 
Q 1091 -78 675 323 
Q 259 725 259 1325 
Q 259 1772 486 2073 
Q 713 2375 1131 2484 
z
M 1019 3438 
Q 1019 3113 1228 2906 
Q 1438 2700 1772 2700 
Q 2097 2700 2305 2904 
Q 2513 3109 2513 3406 
Q 2513 3716 2298 3927 
Q 2084 4138 1766 4138 
Q 1444 4138 1231 3931 
Q 1019 3725 1019 3438 
z
M 838 1322 
Q 838 1081 952 856 
Q 1066 631 1291 507 
Q 1516 384 1775 384 
Q 2178 384 2440 643 
Q 2703 903 2703 1303 
Q 2703 1709 2433 1975 
Q 2163 2241 1756 2241 
Q 1359 2241 1098 1978 
Q 838 1716 838 1322 
z
" transform="scale(0.015625)"/>
       </defs>
       <use xlink:href="#ArialMT-38"/>
       <use xlink:href="#ArialMT-30" transform="translate(55.615234 0)"/>
      </g>
     </g>
    </g>
    <g id="ytick_7">
     <g id="line2d_19">
      <path d="M 40.29625 53.077735 
L 561.73625 53.077735 
" clip-path="url(#p5b815bdc83)" style="fill: none; stroke: #e0e0e0; stroke-width: 0.5; stroke-linecap: square"/>
     </g>
     <g id="line2d_20">
      <g>
       <use xlink:href="#m2df8af47b6" x="40.29625" y="53.077735" style="stroke: #000000; stroke-width: 0.8"/>
      </g>
     </g>
     <g id="text_14">
      <!-- 90 -->
      <g transform="translate(22.174375 56.656641) scale(0.1 -0.1)">
       <defs>
        <path id="ArialMT-39" d="M 350 1059 
L 891 1109 
Q 959 728 1153 556 
Q 1347 384 1650 384 
Q 1909 384 2104 503 
Q 2300 622 2425 820 
Q 2550 1019 2634 1356 
Q 2719 1694 2719 2044 
Q 2719 2081 2716 2156 
Q 2547 1888 2255 1720 
Q 1963 1553 1622 1553 
Q 1053 1553 659 1965 
Q 266 2378 266 3053 
Q 266 3750 677 4175 
Q 1088 4600 1706 4600 
Q 2153 4600 2523 4359 
Q 2894 4119 3086 3673 
Q 3278 3228 3278 2384 
Q 3278 1506 3087 986 
Q 2897 466 2520 194 
Q 2144 -78 1638 -78 
Q 1100 -78 759 220 
Q 419 519 350 1059 
z
M 2653 3081 
Q 2653 3566 2395 3850 
Q 2138 4134 1775 4134 
Q 1400 4134 1122 3828 
Q 844 3522 844 3034 
Q 844 2597 1108 2323 
Q 1372 2050 1759 2050 
Q 2150 2050 2401 2323 
Q 2653 2597 2653 3081 
z
" transform="scale(0.015625)"/>
       </defs>
       <use xlink:href="#ArialMT-39"/>
       <use xlink:href="#ArialMT-30" transform="translate(55.615234 0)"/>
      </g>
     </g>
    </g>
    <g id="text_15">
     <!-- % Ghanaian or Dual-affiliated First Author -->
     <g transform="translate(15.789375 286.910937) rotate(-90) scale(0.12 -0.12)">
      <defs>
       <path id="ArialMT-25" d="M 372 3481 
Q 372 3972 619 4315 
Q 866 4659 1334 4659 
Q 1766 4659 2048 4351 
Q 2331 4044 2331 3447 
Q 2331 2866 2045 2552 
Q 1759 2238 1341 2238 
Q 925 2238 648 2547 
Q 372 2856 372 3481 
z
M 1350 4272 
Q 1141 4272 1002 4090 
Q 863 3909 863 3425 
Q 863 2984 1003 2804 
Q 1144 2625 1350 2625 
Q 1563 2625 1702 2806 
Q 1841 2988 1841 3469 
Q 1841 3913 1700 4092 
Q 1559 4272 1350 4272 
z
M 1353 -169 
L 3859 4659 
L 4316 4659 
L 1819 -169 
L 1353 -169 
z
M 3334 1075 
Q 3334 1569 3581 1911 
Q 3828 2253 4300 2253 
Q 4731 2253 5014 1945 
Q 5297 1638 5297 1041 
Q 5297 459 5011 145 
Q 4725 -169 4303 -169 
Q 3888 -169 3611 142 
Q 3334 453 3334 1075 
z
M 4316 1866 
Q 4103 1866 3964 1684 
Q 3825 1503 3825 1019 
Q 3825 581 3965 400 
Q 4106 219 4313 219 
Q 4528 219 4667 400 
Q 4806 581 4806 1063 
Q 4806 1506 4665 1686 
Q 4525 1866 4316 1866 
z
" transform="scale(0.015625)"/>
       <path id="ArialMT-20" transform="scale(0.015625)"/>
       <path id="ArialMT-47" d="M 2638 1797 
L 2638 2334 
L 4578 2338 
L 4578 638 
Q 4131 281 3656 101 
Q 3181 -78 2681 -78 
Q 2006 -78 1454 211 
Q 903 500 622 1047 
Q 341 1594 341 2269 
Q 341 2938 620 3517 
Q 900 4097 1425 4378 
Q 1950 4659 2634 4659 
Q 3131 4659 3532 4498 
Q 3934 4338 4162 4050 
Q 4391 3763 4509 3300 
L 3963 3150 
Q 3859 3500 3706 3700 
Q 3553 3900 3268 4020 
Q 2984 4141 2638 4141 
Q 2222 4141 1919 4014 
Q 1616 3888 1430 3681 
Q 1244 3475 1141 3228 
Q 966 2803 966 2306 
Q 966 1694 1177 1281 
Q 1388 869 1791 669 
Q 2194 469 2647 469 
Q 3041 469 3416 620 
Q 3791 772 3984 944 
L 3984 1797 
L 2638 1797 
z
" transform="scale(0.015625)"/>
       <path id="ArialMT-68" d="M 422 0 
L 422 4581 
L 984 4581 
L 984 2938 
Q 1378 3394 1978 3394 
Q 2347 3394 2619 3248 
Q 2891 3103 3008 2847 
Q 3125 2591 3125 2103 
L 3125 0 
L 2563 0 
L 2563 2103 
Q 2563 2525 2380 2717 
Q 2197 2909 1863 2909 
Q 1613 2909 1392 2779 
Q 1172 2650 1078 2428 
Q 984 2206 984 1816 
L 984 0 
L 422 0 
z
" transform="scale(0.015625)"/>
       <path id="ArialMT-6e" d="M 422 0 
L 422 3319 
L 928 3319 
L 928 2847 
Q 1294 3394 1984 3394 
Q 2284 3394 2536 3286 
Q 2788 3178 2913 3003 
Q 3038 2828 3088 2588 
Q 3119 2431 3119 2041 
L 3119 0 
L 2556 0 
L 2556 2019 
Q 2556 2363 2490 2533 
Q 2425 2703 2258 2804 
Q 2091 2906 1866 2906 
Q 1506 2906 1245 2678 
Q 984 2450 984 1813 
L 984 0 
L 422 0 
z
" transform="scale(0.015625)"/>
       <path id="ArialMT-69" d="M 425 3934 
L 425 4581 
L 988 4581 
L 988 3934 
L 425 3934 
z
M 425 0 
L 425 3319 
L 988 3319 
L 988 0 
L 425 0 
z
" transform="scale(0.015625)"/>
       <path id="ArialMT-6f" d="M 213 1659 
Q 213 2581 725 3025 
Q 1153 3394 1769 3394 
Q 2453 3394 2887 2945 
Q 3322 2497 3322 1706 
Q 3322 1066 3130 698 
Q 2938 331 2570 128 
Q 2203 -75 1769 -75 
Q 1072 -75 642 372 
Q 213 819 213 1659 
z
M 791 1659 
Q 791 1022 1069 705 
Q 1347 388 1769 388 
Q 2188 388 2466 706 
Q 2744 1025 2744 1678 
Q 2744 2294 2464 2611 
Q 2184 2928 1769 2928 
Q 1347 2928 1069 2612 
Q 791 2297 791 1659 
z
" transform="scale(0.015625)"/>
       <path id="ArialMT-44" d="M 494 0 
L 494 4581 
L 2072 4581 
Q 2606 4581 2888 4516 
Q 3281 4425 3559 4188 
Q 3922 3881 4101 3404 
Q 4281 2928 4281 2316 
Q 4281 1794 4159 1391 
Q 4038 988 3847 723 
Q 3656 459 3429 307 
Q 3203 156 2883 78 
Q 2563 0 2147 0 
L 494 0 
z
M 1100 541 
L 2078 541 
Q 2531 541 2789 625 
Q 3047 709 3200 863 
Q 3416 1078 3536 1442 
Q 3656 1806 3656 2325 
Q 3656 3044 3420 3430 
Q 3184 3816 2847 3947 
Q 2603 4041 2063 4041 
L 1100 4041 
L 1100 541 
z
" transform="scale(0.015625)"/>
       <path id="ArialMT-75" d="M 2597 0 
L 2597 488 
Q 2209 -75 1544 -75 
Q 1250 -75 995 37 
Q 741 150 617 320 
Q 494 491 444 738 
Q 409 903 409 1263 
L 409 3319 
L 972 3319 
L 972 1478 
Q 972 1038 1006 884 
Q 1059 663 1231 536 
Q 1403 409 1656 409 
Q 1909 409 2131 539 
Q 2353 669 2445 892 
Q 2538 1116 2538 1541 
L 2538 3319 
L 3100 3319 
L 3100 0 
L 2597 0 
z
" transform="scale(0.015625)"/>
       <path id="ArialMT-6c" d="M 409 0 
L 409 4581 
L 972 4581 
L 972 0 
L 409 0 
z
" transform="scale(0.015625)"/>
       <path id="ArialMT-2d" d="M 203 1375 
L 203 1941 
L 1931 1941 
L 1931 1375 
L 203 1375 
z
" transform="scale(0.015625)"/>
       <path id="ArialMT-66" d="M 556 0 
L 556 2881 
L 59 2881 
L 59 3319 
L 556 3319 
L 556 3672 
Q 556 4006 616 4169 
Q 697 4388 901 4523 
Q 1106 4659 1475 4659 
Q 1713 4659 2000 4603 
L 1916 4113 
Q 1741 4144 1584 4144 
Q 1328 4144 1222 4034 
Q 1116 3925 1116 3625 
L 1116 3319 
L 1763 3319 
L 1763 2881 
L 1116 2881 
L 1116 0 
L 556 0 
z
" transform="scale(0.015625)"/>
       <path id="ArialMT-74" d="M 1650 503 
L 1731 6 
Q 1494 -44 1306 -44 
Q 1000 -44 831 53 
Q 663 150 594 308 
Q 525 466 525 972 
L 525 2881 
L 113 2881 
L 113 3319 
L 525 3319 
L 525 4141 
L 1084 4478 
L 1084 3319 
L 1650 3319 
L 1650 2881 
L 1084 2881 
L 1084 941 
Q 1084 700 1114 631 
Q 1144 563 1211 522 
Q 1278 481 1403 481 
Q 1497 481 1650 503 
z
" transform="scale(0.015625)"/>
       <path id="ArialMT-64" d="M 2575 0 
L 2575 419 
Q 2259 -75 1647 -75 
Q 1250 -75 917 144 
Q 584 363 401 755 
Q 219 1147 219 1656 
Q 219 2153 384 2558 
Q 550 2963 881 3178 
Q 1213 3394 1622 3394 
Q 1922 3394 2156 3267 
Q 2391 3141 2538 2938 
L 2538 4581 
L 3097 4581 
L 3097 0 
L 2575 0 
z
M 797 1656 
Q 797 1019 1065 703 
Q 1334 388 1700 388 
Q 2069 388 2326 689 
Q 2584 991 2584 1609 
Q 2584 2291 2321 2609 
Q 2059 2928 1675 2928 
Q 1300 2928 1048 2622 
Q 797 2316 797 1656 
z
" transform="scale(0.015625)"/>
       <path id="ArialMT-46" d="M 525 0 
L 525 4581 
L 3616 4581 
L 3616 4041 
L 1131 4041 
L 1131 2622 
L 3281 2622 
L 3281 2081 
L 1131 2081 
L 1131 0 
L 525 0 
z
" transform="scale(0.015625)"/>
       <path id="ArialMT-73" d="M 197 991 
L 753 1078 
Q 800 744 1014 566 
Q 1228 388 1613 388 
Q 2000 388 2187 545 
Q 2375 703 2375 916 
Q 2375 1106 2209 1216 
Q 2094 1291 1634 1406 
Q 1016 1563 777 1677 
Q 538 1791 414 1992 
Q 291 2194 291 2438 
Q 291 2659 392 2848 
Q 494 3038 669 3163 
Q 800 3259 1026 3326 
Q 1253 3394 1513 3394 
Q 1903 3394 2198 3281 
Q 2494 3169 2634 2976 
Q 2775 2784 2828 2463 
L 2278 2388 
Q 2241 2644 2061 2787 
Q 1881 2931 1553 2931 
Q 1166 2931 1000 2803 
Q 834 2675 834 2503 
Q 834 2394 903 2306 
Q 972 2216 1119 2156 
Q 1203 2125 1616 2013 
Q 2213 1853 2448 1751 
Q 2684 1650 2818 1456 
Q 2953 1263 2953 975 
Q 2953 694 2789 445 
Q 2625 197 2315 61 
Q 2006 -75 1616 -75 
Q 969 -75 630 194 
Q 291 463 197 991 
z
" transform="scale(0.015625)"/>
       <path id="ArialMT-41" d="M -9 0 
L 1750 4581 
L 2403 4581 
L 4278 0 
L 3588 0 
L 3053 1388 
L 1138 1388 
L 634 0 
L -9 0 
z
M 1313 1881 
L 2866 1881 
L 2388 3150 
Q 2169 3728 2063 4100 
Q 1975 3659 1816 3225 
L 1313 1881 
z
" transform="scale(0.015625)"/>
      </defs>
      <use xlink:href="#ArialMT-25"/>
      <use xlink:href="#ArialMT-20" transform="translate(88.916016 0)"/>
      <use xlink:href="#ArialMT-47" transform="translate(116.699219 0)"/>
      <use xlink:href="#ArialMT-68" transform="translate(194.482422 0)"/>
      <use xlink:href="#ArialMT-61" transform="translate(250.097656 0)"/>
      <use xlink:href="#ArialMT-6e" transform="translate(305.712891 0)"/>
      <use xlink:href="#ArialMT-61" transform="translate(361.328125 0)"/>
      <use xlink:href="#ArialMT-69" transform="translate(416.943359 0)"/>
      <use xlink:href="#ArialMT-61" transform="translate(439.160156 0)"/>
      <use xlink:href="#ArialMT-6e" transform="translate(494.775391 0)"/>
      <use xlink:href="#ArialMT-20" transform="translate(550.390625 0)"/>
      <use xlink:href="#ArialMT-6f" transform="translate(578.173828 0)"/>
      <use xlink:href="#ArialMT-72" transform="translate(633.789062 0)"/>
      <use xlink:href="#ArialMT-20" transform="translate(667.089844 0)"/>
      <use xlink:href="#ArialMT-44" transform="translate(694.873047 0)"/>
      <use xlink:href="#ArialMT-75" transform="translate(767.089844 0)"/>
      <use xlink:href="#ArialMT-61" transform="translate(822.705078 0)"/>
      <use xlink:href="#ArialMT-6c" transform="translate(878.320312 0)"/>
      <use xlink:href="#ArialMT-2d" transform="translate(900.537109 0)"/>
      <use xlink:href="#ArialMT-61" transform="translate(933.837891 0)"/>
      <use xlink:href="#ArialMT-66" transform="translate(989.453125 0)"/>
      <use xlink:href="#ArialMT-66" transform="translate(1015.486328 0)"/>
      <use xlink:href="#ArialMT-69" transform="translate(1043.269531 0)"/>
      <use xlink:href="#ArialMT-6c" transform="translate(1065.486328 0)"/>
      <use xlink:href="#ArialMT-69" transform="translate(1087.703125 0)"/>
      <use xlink:href="#ArialMT-61" transform="translate(1109.919922 0)"/>
      <use xlink:href="#ArialMT-74" transform="translate(1165.535156 0)"/>
      <use xlink:href="#ArialMT-65" transform="translate(1193.318359 0)"/>
      <use xlink:href="#ArialMT-64" transform="translate(1248.933594 0)"/>
      <use xlink:href="#ArialMT-20" transform="translate(1304.548828 0)"/>
      <use xlink:href="#ArialMT-46" transform="translate(1332.332031 0)"/>
      <use xlink:href="#ArialMT-69" transform="translate(1393.416016 0)"/>
      <use xlink:href="#ArialMT-72" transform="translate(1415.632812 0)"/>
      <use xlink:href="#ArialMT-73" transform="translate(1448.933594 0)"/>
      <use xlink:href="#ArialMT-74" transform="translate(1498.933594 0)"/>
      <use xlink:href="#ArialMT-20" transform="translate(1526.716797 0)"/>
      <use xlink:href="#ArialMT-41" transform="translate(1549 0)"/>
      <use xlink:href="#ArialMT-75" transform="translate(1615.699219 0)"/>
      <use xlink:href="#ArialMT-74" transform="translate(1671.314453 0)"/>
      <use xlink:href="#ArialMT-68" transform="translate(1699.097656 0)"/>
      <use xlink:href="#ArialMT-6f" transform="translate(1754.712891 0)"/>
      <use xlink:href="#ArialMT-72" transform="translate(1810.328125 0)"/>
     </g>
    </g>
   </g>
   <g id="line2d_21">
    <path d="M 63.998068 216.12523 
L 82.959523 208.450706 
L 101.920977 212.072008 
L 120.882432 216.066293 
L 139.843886 235.742681 
L 158.805341 234.283452 
L 177.766795 234.914768 
L 196.72825 221.48923 
L 215.689705 217.14875 
L 234.651159 221.785788 
L 253.612614 227.326426 
L 272.574068 241.133328 
L 291.535523 234.318251 
L 310.496977 230.932399 
L 329.458432 214.073506 
L 348.419886 209.081281 
L 367.381341 203.244031 
L 386.342795 197.383837 
L 405.30425 195.195218 
L 424.265705 188.892168 
L 443.227159 188.119678 
L 462.188614 185.529986 
L 481.150068 183.614657 
L 500.111523 186.916579 
L 519.072977 192.71526 
L 538.034432 200.997052 
" clip-path="url(#p5b815bdc83)" style="fill: none; stroke: #1565c0; stroke-width: 2; stroke-linecap: square"/>
    <defs>
     <path id="m5e12e2ca04" d="M -2 2 
L 2 2 
L 2 -2 
L -2 -2 
z
" style="stroke: #1565c0; stroke-linejoin: miter"/>
    </defs>
    <g clip-path="url(#p5b815bdc83)">
     <use xlink:href="#m5e12e2ca04" x="63.998068" y="216.12523" style="fill: #1565c0; stroke: #1565c0; stroke-linejoin: miter"/>
     <use xlink:href="#m5e12e2ca04" x="82.959523" y="208.450706" style="fill: #1565c0; stroke: #1565c0; stroke-linejoin: miter"/>
     <use xlink:href="#m5e12e2ca04" x="101.920977" y="212.072008" style="fill: #1565c0; stroke: #1565c0; stroke-linejoin: miter"/>
     <use xlink:href="#m5e12e2ca04" x="120.882432" y="216.066293" style="fill: #1565c0; stroke: #1565c0; stroke-linejoin: miter"/>
     <use xlink:href="#m5e12e2ca04" x="139.843886" y="235.742681" style="fill: #1565c0; stroke: #1565c0; stroke-linejoin: miter"/>
     <use xlink:href="#m5e12e2ca04" x="158.805341" y="234.283452" style="fill: #1565c0; stroke: #1565c0; stroke-linejoin: miter"/>
     <use xlink:href="#m5e12e2ca04" x="177.766795" y="234.914768" style="fill: #1565c0; stroke: #1565c0; stroke-linejoin: miter"/>
     <use xlink:href="#m5e12e2ca04" x="196.72825" y="221.48923" style="fill: #1565c0; stroke: #1565c0; stroke-linejoin: miter"/>
     <use xlink:href="#m5e12e2ca04" x="215.689705" y="217.14875" style="fill: #1565c0; stroke: #1565c0; stroke-linejoin: miter"/>
     <use xlink:href="#m5e12e2ca04" x="234.651159" y="221.785788" style="fill: #1565c0; stroke: #1565c0; stroke-linejoin: miter"/>
     <use xlink:href="#m5e12e2ca04" x="253.612614" y="227.326426" style="fill: #1565c0; stroke: #1565c0; stroke-linejoin: miter"/>
     <use xlink:href="#m5e12e2ca04" x="272.574068" y="241.133328" style="fill: #1565c0; stroke: #1565c0; stroke-linejoin: miter"/>
     <use xlink:href="#m5e12e2ca04" x="291.535523" y="234.318251" style="fill: #1565c0; stroke: #1565c0; stroke-linejoin: miter"/>
     <use xlink:href="#m5e12e2ca04" x="310.496977" y="230.932399" style="fill: #1565c0; stroke: #1565c0; stroke-linejoin: miter"/>
     <use xlink:href="#m5e12e2ca04" x="329.458432" y="214.073506" style="fill: #1565c0; stroke: #1565c0; stroke-linejoin: miter"/>
     <use xlink:href="#m5e12e2ca04" x="348.419886" y="209.081281" style="fill: #1565c0; stroke: #1565c0; stroke-linejoin: miter"/>
     <use xlink:href="#m5e12e2ca04" x="367.381341" y="203.244031" style="fill: #1565c0; stroke: #1565c0; stroke-linejoin: miter"/>
     <use xlink:href="#m5e12e2ca04" x="386.342795" y="197.383837" style="fill: #1565c0; stroke: #1565c0; stroke-linejoin: miter"/>
     <use xlink:href="#m5e12e2ca04" x="405.30425" y="195.195218" style="fill: #1565c0; stroke: #1565c0; stroke-linejoin: miter"/>
     <use xlink:href="#m5e12e2ca04" x="424.265705" y="188.892168" style="fill: #1565c0; stroke: #1565c0; stroke-linejoin: miter"/>
     <use xlink:href="#m5e12e2ca04" x="443.227159" y="188.119678" style="fill: #1565c0; stroke: #1565c0; stroke-linejoin: miter"/>
     <use xlink:href="#m5e12e2ca04" x="462.188614" y="185.529986" style="fill: #1565c0; stroke: #1565c0; stroke-linejoin: miter"/>
     <use xlink:href="#m5e12e2ca04" x="481.150068" y="183.614657" style="fill: #1565c0; stroke: #1565c0; stroke-linejoin: miter"/>
     <use xlink:href="#m5e12e2ca04" x="500.111523" y="186.916579" style="fill: #1565c0; stroke: #1565c0; stroke-linejoin: miter"/>
     <use xlink:href="#m5e12e2ca04" x="519.072977" y="192.71526" style="fill: #1565c0; stroke: #1565c0; stroke-linejoin: miter"/>
     <use xlink:href="#m5e12e2ca04" x="538.034432" y="200.997052" style="fill: #1565c0; stroke: #1565c0; stroke-linejoin: miter"/>
    </g>
   </g>
   <g id="line2d_22">
    <path d="M 63.998068 232.778825 
L 82.959523 214.639982 
L 101.920977 185.638926 
L 139.843886 140.080903 
L 177.766795 149.907143 
L 196.72825 169.627862 
L 215.689705 179.885077 
L 234.651159 183.979344 
L 253.612614 230.381034 
L 272.574068 234.044325 
L 291.535523 224.55307 
L 310.496977 194.57044 
L 329.458432 190.907149 
L 348.419886 186.477897 
L 367.381341 186.823319 
L 386.342795 191.878661 
L 405.30425 202.899062 
L 424.265705 242.106619 
L 443.227159 252.202365 
L 462.188614 270.609771 
L 481.150068 257.577328 
L 500.111523 266.511831 
L 519.072977 262.280919 
L 538.034432 267.671852 
" clip-path="url(#p5b815bdc83)" style="fill: none; stroke: #e53935; stroke-width: 2; stroke-linecap: square"/>
    <defs>
     <path id="m0ad4e1abcd" d="M 0 2.828427 
L 2.828427 0 
L 0 -2.828427 
L -2.828427 0 
z
" style="stroke: #e53935; stroke-linejoin: miter"/>
    </defs>
    <g clip-path="url(#p5b815bdc83)">
     <use xlink:href="#m0ad4e1abcd" x="63.998068" y="232.778825" style="fill: #e53935; stroke: #e53935; stroke-linejoin: miter"/>
     <use xlink:href="#m0ad4e1abcd" x="82.959523" y="214.639982" style="fill: #e53935; stroke: #e53935; stroke-linejoin: miter"/>
     <use xlink:href="#m0ad4e1abcd" x="101.920977" y="185.638926" style="fill: #e53935; stroke: #e53935; stroke-linejoin: miter"/>
     <use xlink:href="#m0ad4e1abcd" x="139.843886" y="140.080903" style="fill: #e53935; stroke: #e53935; stroke-linejoin: miter"/>
     <use xlink:href="#m0ad4e1abcd" x="177.766795" y="149.907143" style="fill: #e53935; stroke: #e53935; stroke-linejoin: miter"/>
     <use xlink:href="#m0ad4e1abcd" x="196.72825" y="169.627862" style="fill: #e53935; stroke: #e53935; stroke-linejoin: miter"/>
     <use xlink:href="#m0ad4e1abcd" x="215.689705" y="179.885077" style="fill: #e53935; stroke: #e53935; stroke-linejoin: miter"/>
     <use xlink:href="#m0ad4e1abcd" x="234.651159" y="183.979344" style="fill: #e53935; stroke: #e53935; stroke-linejoin: miter"/>
     <use xlink:href="#m0ad4e1abcd" x="253.612614" y="230.381034" style="fill: #e53935; stroke: #e53935; stroke-linejoin: miter"/>
     <use xlink:href="#m0ad4e1abcd" x="272.574068" y="234.044325" style="fill: #e53935; stroke: #e53935; stroke-linejoin: miter"/>
     <use xlink:href="#m0ad4e1abcd" x="291.535523" y="224.55307" style="fill: #e53935; stroke: #e53935; stroke-linejoin: miter"/>
     <use xlink:href="#m0ad4e1abcd" x="310.496977" y="194.57044" style="fill: #e53935; stroke: #e53935; stroke-linejoin: miter"/>
     <use xlink:href="#m0ad4e1abcd" x="329.458432" y="190.907149" style="fill: #e53935; stroke: #e53935; stroke-linejoin: miter"/>
     <use xlink:href="#m0ad4e1abcd" x="348.419886" y="186.477897" style="fill: #e53935; stroke: #e53935; stroke-linejoin: miter"/>
     <use xlink:href="#m0ad4e1abcd" x="367.381341" y="186.823319" style="fill: #e53935; stroke: #e53935; stroke-linejoin: miter"/>
     <use xlink:href="#m0ad4e1abcd" x="386.342795" y="191.878661" style="fill: #e53935; stroke: #e53935; stroke-linejoin: miter"/>
     <use xlink:href="#m0ad4e1abcd" x="405.30425" y="202.899062" style="fill: #e53935; stroke: #e53935; stroke-linejoin: miter"/>
     <use xlink:href="#m0ad4e1abcd" x="424.265705" y="242.106619" style="fill: #e53935; stroke: #e53935; stroke-linejoin: miter"/>
     <use xlink:href="#m0ad4e1abcd" x="443.227159" y="252.202365" style="fill: #e53935; stroke: #e53935; stroke-linejoin: miter"/>
     <use xlink:href="#m0ad4e1abcd" x="462.188614" y="270.609771" style="fill: #e53935; stroke: #e53935; stroke-linejoin: miter"/>
     <use xlink:href="#m0ad4e1abcd" x="481.150068" y="257.577328" style="fill: #e53935; stroke: #e53935; stroke-linejoin: miter"/>
     <use xlink:href="#m0ad4e1abcd" x="500.111523" y="266.511831" style="fill: #e53935; stroke: #e53935; stroke-linejoin: miter"/>
     <use xlink:href="#m0ad4e1abcd" x="519.072977" y="262.280919" style="fill: #e53935; stroke: #e53935; stroke-linejoin: miter"/>
     <use xlink:href="#m0ad4e1abcd" x="538.034432" y="267.671852" style="fill: #e53935; stroke: #e53935; stroke-linejoin: miter"/>
    </g>
   </g>
   <g id="line2d_23">
    <path d="M 158.805341 141.240945 
L 329.458432 132.733969 
L 348.419886 169.855321 
L 367.381341 238.353053 
L 386.342795 301.510909 
L 405.30425 273.669895 
L 424.265705 248.480406 
L 443.227159 187.154196 
L 462.188614 197.594577 
L 481.150068 219.724613 
L 500.111523 250.519156 
L 519.072977 242.577328 
L 538.034432 213.648775 
" clip-path="url(#p5b815bdc83)" style="fill: none; stroke: #f9a825; stroke-width: 2; stroke-linecap: square"/>
    <defs>
     <path id="m83ee426dfc" d="M 0 -2 
L -2 2 
L 2 2 
z
" style="stroke: #f9a825; stroke-linejoin: miter"/>
    </defs>
    <g clip-path="url(#p5b815bdc83)">
     <use xlink:href="#m83ee426dfc" x="158.805341" y="141.240945" style="fill: #f9a825; stroke: #f9a825; stroke-linejoin: miter"/>
     <use xlink:href="#m83ee426dfc" x="329.458432" y="132.733969" style="fill: #f9a825; stroke: #f9a825; stroke-linejoin: miter"/>
     <use xlink:href="#m83ee426dfc" x="348.419886" y="169.855321" style="fill: #f9a825; stroke: #f9a825; stroke-linejoin: miter"/>
     <use xlink:href="#m83ee426dfc" x="367.381341" y="238.353053" style="fill: #f9a825; stroke: #f9a825; stroke-linejoin: miter"/>
     <use xlink:href="#m83ee426dfc" x="386.342795" y="301.510909" style="fill: #f9a825; stroke: #f9a825; stroke-linejoin: miter"/>
     <use xlink:href="#m83ee426dfc" x="405.30425" y="273.669895" style="fill: #f9a825; stroke: #f9a825; stroke-linejoin: miter"/>
     <use xlink:href="#m83ee426dfc" x="424.265705" y="248.480406" style="fill: #f9a825; stroke: #f9a825; stroke-linejoin: miter"/>
     <use xlink:href="#m83ee426dfc" x="443.227159" y="187.154196" style="fill: #f9a825; stroke: #f9a825; stroke-linejoin: miter"/>
     <use xlink:href="#m83ee426dfc" x="462.188614" y="197.594577" style="fill: #f9a825; stroke: #f9a825; stroke-linejoin: miter"/>
     <use xlink:href="#m83ee426dfc" x="481.150068" y="219.724613" style="fill: #f9a825; stroke: #f9a825; stroke-linejoin: miter"/>
     <use xlink:href="#m83ee426dfc" x="500.111523" y="250.519156" style="fill: #f9a825; stroke: #f9a825; stroke-linejoin: miter"/>
     <use xlink:href="#m83ee426dfc" x="519.072977" y="242.577328" style="fill: #f9a825; stroke: #f9a825; stroke-linejoin: miter"/>
     <use xlink:href="#m83ee426dfc" x="538.034432" y="213.648775" style="fill: #f9a825; stroke: #f9a825; stroke-linejoin: miter"/>
    </g>
   </g>
   <g id="line2d_24">
    <path d="M 120.882432 282.766099 
L 139.843886 232.055681 
L 158.805341 190.29416 
L 177.766795 51.089091 
L 196.72825 53.077735 
L 215.689705 99.479425 
L 234.651159 185.653991 
L 253.612614 192.614245 
L 272.574068 212.334963 
L 291.535523 173.49012 
L 310.496977 183.753545 
L 329.458432 174.6549 
L 348.419886 196.162848 
L 367.381341 191.23787 
L 386.342795 190.092198 
L 405.30425 173.132192 
L 424.265705 177.48351 
L 443.227159 172.225444 
L 462.188614 175.604752 
L 481.150068 166.465111 
L 500.111523 163.147779 
L 519.072977 164.393543 
L 538.034432 167.024361 
" clip-path="url(#p5b815bdc83)" style="fill: none; stroke: #2e7d32; stroke-width: 2; stroke-linecap: square"/>
    <defs>
     <path id="m9f4a085b64" d="M 0 2 
C 0.530406 2 1.03916 1.789267 1.414214 1.414214 
C 1.789267 1.03916 2 0.530406 2 0 
C 2 -0.530406 1.789267 -1.03916 1.414214 -1.414214 
C 1.03916 -1.789267 0.530406 -2 0 -2 
C -0.530406 -2 -1.03916 -1.789267 -1.414214 -1.414214 
C -1.789267 -1.03916 -2 -0.530406 -2 0 
C -2 0.530406 -1.789267 1.03916 -1.414214 1.414214 
C -1.03916 1.789267 -0.530406 2 0 2 
z
" style="stroke: #2e7d32"/>
    </defs>
    <g clip-path="url(#p5b815bdc83)">
     <use xlink:href="#m9f4a085b64" x="120.882432" y="282.766099" style="fill: #2e7d32; stroke: #2e7d32"/>
     <use xlink:href="#m9f4a085b64" x="139.843886" y="232.055681" style="fill: #2e7d32; stroke: #2e7d32"/>
     <use xlink:href="#m9f4a085b64" x="158.805341" y="190.29416" style="fill: #2e7d32; stroke: #2e7d32"/>
     <use xlink:href="#m9f4a085b64" x="177.766795" y="51.089091" style="fill: #2e7d32; stroke: #2e7d32"/>
     <use xlink:href="#m9f4a085b64" x="196.72825" y="53.077735" style="fill: #2e7d32; stroke: #2e7d32"/>
     <use xlink:href="#m9f4a085b64" x="215.689705" y="99.479425" style="fill: #2e7d32; stroke: #2e7d32"/>
     <use xlink:href="#m9f4a085b64" x="234.651159" y="185.653991" style="fill: #2e7d32; stroke: #2e7d32"/>
     <use xlink:href="#m9f4a085b64" x="253.612614" y="192.614245" style="fill: #2e7d32; stroke: #2e7d32"/>
     <use xlink:href="#m9f4a085b64" x="272.574068" y="212.334963" style="fill: #2e7d32; stroke: #2e7d32"/>
     <use xlink:href="#m9f4a085b64" x="291.535523" y="173.49012" style="fill: #2e7d32; stroke: #2e7d32"/>
     <use xlink:href="#m9f4a085b64" x="310.496977" y="183.753545" style="fill: #2e7d32; stroke: #2e7d32"/>
     <use xlink:href="#m9f4a085b64" x="329.458432" y="174.6549" style="fill: #2e7d32; stroke: #2e7d32"/>
     <use xlink:href="#m9f4a085b64" x="348.419886" y="196.162848" style="fill: #2e7d32; stroke: #2e7d32"/>
     <use xlink:href="#m9f4a085b64" x="367.381341" y="191.23787" style="fill: #2e7d32; stroke: #2e7d32"/>
     <use xlink:href="#m9f4a085b64" x="386.342795" y="190.092198" style="fill: #2e7d32; stroke: #2e7d32"/>
     <use xlink:href="#m9f4a085b64" x="405.30425" y="173.132192" style="fill: #2e7d32; stroke: #2e7d32"/>
     <use xlink:href="#m9f4a085b64" x="424.265705" y="177.48351" style="fill: #2e7d32; stroke: #2e7d32"/>
     <use xlink:href="#m9f4a085b64" x="443.227159" y="172.225444" style="fill: #2e7d32; stroke: #2e7d32"/>
     <use xlink:href="#m9f4a085b64" x="462.188614" y="175.604752" style="fill: #2e7d32; stroke: #2e7d32"/>
     <use xlink:href="#m9f4a085b64" x="481.150068" y="166.465111" style="fill: #2e7d32; stroke: #2e7d32"/>
     <use xlink:href="#m9f4a085b64" x="500.111523" y="163.147779" style="fill: #2e7d32; stroke: #2e7d32"/>
     <use xlink:href="#m9f4a085b64" x="519.072977" y="164.393543" style="fill: #2e7d32; stroke: #2e7d32"/>
     <use xlink:href="#m9f4a085b64" x="538.034432" y="167.024361" style="fill: #2e7d32; stroke: #2e7d32"/>
    </g>
   </g>
   <g id="patch_3">
    <path d="M 40.29625 314.032 
L 40.29625 38.568 
" style="fill: none; stroke: #000000; stroke-width: 0.8; stroke-linejoin: miter; stroke-linecap: square"/>
   </g>
   <g id="patch_4">
    <path d="M 40.29625 314.032 
L 561.73625 314.032 
" style="fill: none; stroke: #000000; stroke-width: 0.8; stroke-linejoin: miter; stroke-linecap: square"/>
   </g>
   <g id="text_16">
    <!-- Trends in Ghanaian first authorship by partner bloc, 2000-2025 -->
    <g transform="translate(92.918281 17.391562) scale(0.14 -0.14)">
     <defs>
      <path id="Arial-BoldMT-54" d="M 1497 0 
L 1497 3806 
L 138 3806 
L 138 4581 
L 3778 4581 
L 3778 3806 
L 2422 3806 
L 2422 0 
L 1497 0 
z
" transform="scale(0.015625)"/>
      <path id="Arial-BoldMT-72" d="M 1300 0 
L 422 0 
L 422 3319 
L 1238 3319 
L 1238 2847 
Q 1447 3181 1614 3287 
Q 1781 3394 1994 3394 
Q 2294 3394 2572 3228 
L 2300 2463 
Q 2078 2606 1888 2606 
Q 1703 2606 1575 2504 
Q 1447 2403 1373 2137 
Q 1300 1872 1300 1025 
L 1300 0 
z
" transform="scale(0.015625)"/>
      <path id="Arial-BoldMT-65" d="M 2381 1056 
L 3256 909 
Q 3088 428 2723 176 
Q 2359 -75 1813 -75 
Q 947 -75 531 491 
Q 203 944 203 1634 
Q 203 2459 634 2926 
Q 1066 3394 1725 3394 
Q 2466 3394 2894 2905 
Q 3322 2416 3303 1406 
L 1103 1406 
Q 1113 1016 1316 798 
Q 1519 581 1822 581 
Q 2028 581 2168 693 
Q 2309 806 2381 1056 
z
M 2431 1944 
Q 2422 2325 2234 2523 
Q 2047 2722 1778 2722 
Q 1491 2722 1303 2513 
Q 1116 2303 1119 1944 
L 2431 1944 
z
" transform="scale(0.015625)"/>
      <path id="Arial-BoldMT-6e" d="M 3478 0 
L 2600 0 
L 2600 1694 
Q 2600 2231 2544 2389 
Q 2488 2547 2361 2634 
Q 2234 2722 2056 2722 
Q 1828 2722 1647 2597 
Q 1466 2472 1398 2265 
Q 1331 2059 1331 1503 
L 1331 0 
L 453 0 
L 453 3319 
L 1269 3319 
L 1269 2831 
Q 1703 3394 2363 3394 
Q 2653 3394 2893 3289 
Q 3134 3184 3257 3021 
Q 3381 2859 3429 2653 
Q 3478 2447 3478 2063 
L 3478 0 
z
" transform="scale(0.015625)"/>
      <path id="Arial-BoldMT-64" d="M 3503 0 
L 2688 0 
L 2688 488 
Q 2484 203 2207 64 
Q 1931 -75 1650 -75 
Q 1078 -75 670 386 
Q 263 847 263 1672 
Q 263 2516 659 2955 
Q 1056 3394 1663 3394 
Q 2219 3394 2625 2931 
L 2625 4581 
L 3503 4581 
L 3503 0 
z
M 1159 1731 
Q 1159 1200 1306 963 
Q 1519 619 1900 619 
Q 2203 619 2415 876 
Q 2628 1134 2628 1647 
Q 2628 2219 2422 2470 
Q 2216 2722 1894 2722 
Q 1581 2722 1370 2473 
Q 1159 2225 1159 1731 
z
" transform="scale(0.015625)"/>
      <path id="Arial-BoldMT-73" d="M 150 947 
L 1031 1081 
Q 1088 825 1259 692 
Q 1431 559 1741 559 
Q 2081 559 2253 684 
Q 2369 772 2369 919 
Q 2369 1019 2306 1084 
Q 2241 1147 2013 1200 
Q 950 1434 666 1628 
Q 272 1897 272 2375 
Q 272 2806 612 3100 
Q 953 3394 1669 3394 
Q 2350 3394 2681 3172 
Q 3013 2950 3138 2516 
L 2309 2363 
Q 2256 2556 2107 2659 
Q 1959 2763 1684 2763 
Q 1338 2763 1188 2666 
Q 1088 2597 1088 2488 
Q 1088 2394 1175 2328 
Q 1294 2241 1995 2081 
Q 2697 1922 2975 1691 
Q 3250 1456 3250 1038 
Q 3250 581 2869 253 
Q 2488 -75 1741 -75 
Q 1063 -75 667 200 
Q 272 475 150 947 
z
" transform="scale(0.015625)"/>
      <path id="Arial-BoldMT-20" transform="scale(0.015625)"/>
      <path id="Arial-BoldMT-69" d="M 459 3769 
L 459 4581 
L 1338 4581 
L 1338 3769 
L 459 3769 
z
M 459 0 
L 459 3319 
L 1338 3319 
L 1338 0 
L 459 0 
z
" transform="scale(0.015625)"/>
      <path id="Arial-BoldMT-47" d="M 2597 1684 
L 2597 2456 
L 4591 2456 
L 4591 631 
Q 4300 350 3748 136 
Q 3197 -78 2631 -78 
Q 1913 -78 1378 223 
Q 844 525 575 1086 
Q 306 1647 306 2306 
Q 306 3022 606 3578 
Q 906 4134 1484 4431 
Q 1925 4659 2581 4659 
Q 3434 4659 3914 4301 
Q 4394 3944 4531 3313 
L 3613 3141 
Q 3516 3478 3248 3673 
Q 2981 3869 2581 3869 
Q 1975 3869 1617 3484 
Q 1259 3100 1259 2344 
Q 1259 1528 1621 1120 
Q 1984 713 2572 713 
Q 2863 713 3155 827 
Q 3447 941 3656 1103 
L 3656 1684 
L 2597 1684 
z
" transform="scale(0.015625)"/>
      <path id="Arial-BoldMT-68" d="M 1334 4581 
L 1334 2897 
Q 1759 3394 2350 3394 
Q 2653 3394 2897 3281 
Q 3141 3169 3264 2994 
Q 3388 2819 3433 2606 
Q 3478 2394 3478 1947 
L 3478 0 
L 2600 0 
L 2600 1753 
Q 2600 2275 2550 2415 
Q 2500 2556 2373 2639 
Q 2247 2722 2056 2722 
Q 1838 2722 1666 2615 
Q 1494 2509 1414 2295 
Q 1334 2081 1334 1663 
L 1334 0 
L 456 0 
L 456 4581 
L 1334 4581 
z
" transform="scale(0.015625)"/>
      <path id="Arial-BoldMT-61" d="M 1116 2306 
L 319 2450 
Q 453 2931 781 3162 
Q 1109 3394 1756 3394 
Q 2344 3394 2631 3255 
Q 2919 3116 3036 2902 
Q 3153 2688 3153 2116 
L 3144 1091 
Q 3144 653 3186 445 
Q 3228 238 3344 0 
L 2475 0 
Q 2441 88 2391 259 
Q 2369 338 2359 363 
Q 2134 144 1878 34 
Q 1622 -75 1331 -75 
Q 819 -75 523 203 
Q 228 481 228 906 
Q 228 1188 362 1408 
Q 497 1628 739 1745 
Q 981 1863 1438 1950 
Q 2053 2066 2291 2166 
L 2291 2253 
Q 2291 2506 2166 2614 
Q 2041 2722 1694 2722 
Q 1459 2722 1328 2630 
Q 1197 2538 1116 2306 
z
M 2291 1594 
Q 2122 1538 1756 1459 
Q 1391 1381 1278 1306 
Q 1106 1184 1106 997 
Q 1106 813 1243 678 
Q 1381 544 1594 544 
Q 1831 544 2047 700 
Q 2206 819 2256 991 
Q 2291 1103 2291 1419 
L 2291 1594 
z
" transform="scale(0.015625)"/>
      <path id="Arial-BoldMT-66" d="M 75 3319 
L 563 3319 
L 563 3569 
Q 563 3988 652 4194 
Q 741 4400 980 4529 
Q 1219 4659 1584 4659 
Q 1959 4659 2319 4547 
L 2200 3934 
Q 1991 3984 1797 3984 
Q 1606 3984 1523 3895 
Q 1441 3806 1441 3553 
L 1441 3319 
L 2097 3319 
L 2097 2628 
L 1441 2628 
L 1441 0 
L 563 0 
L 563 2628 
L 75 2628 
L 75 3319 
z
" transform="scale(0.015625)"/>
      <path id="Arial-BoldMT-74" d="M 1981 3319 
L 1981 2619 
L 1381 2619 
L 1381 1281 
Q 1381 875 1398 808 
Q 1416 741 1477 697 
Q 1538 653 1625 653 
Q 1747 653 1978 738 
L 2053 56 
Q 1747 -75 1359 -75 
Q 1122 -75 931 4 
Q 741 84 652 211 
Q 563 338 528 553 
Q 500 706 500 1172 
L 500 2619 
L 97 2619 
L 97 3319 
L 500 3319 
L 500 3978 
L 1381 4491 
L 1381 3319 
L 1981 3319 
z
" transform="scale(0.015625)"/>
      <path id="Arial-BoldMT-75" d="M 2644 0 
L 2644 497 
Q 2463 231 2167 78 
Q 1872 -75 1544 -75 
Q 1209 -75 943 72 
Q 678 219 559 484 
Q 441 750 441 1219 
L 441 3319 
L 1319 3319 
L 1319 1794 
Q 1319 1094 1367 936 
Q 1416 778 1544 686 
Q 1672 594 1869 594 
Q 2094 594 2272 717 
Q 2450 841 2515 1023 
Q 2581 1206 2581 1919 
L 2581 3319 
L 3459 3319 
L 3459 0 
L 2644 0 
z
" transform="scale(0.015625)"/>
      <path id="Arial-BoldMT-6f" d="M 256 1706 
Q 256 2144 472 2553 
Q 688 2963 1083 3178 
Q 1478 3394 1966 3394 
Q 2719 3394 3200 2905 
Q 3681 2416 3681 1669 
Q 3681 916 3195 420 
Q 2709 -75 1972 -75 
Q 1516 -75 1102 131 
Q 688 338 472 736 
Q 256 1134 256 1706 
z
M 1156 1659 
Q 1156 1166 1390 903 
Q 1625 641 1969 641 
Q 2313 641 2545 903 
Q 2778 1166 2778 1666 
Q 2778 2153 2545 2415 
Q 2313 2678 1969 2678 
Q 1625 2678 1390 2415 
Q 1156 2153 1156 1659 
z
" transform="scale(0.015625)"/>
      <path id="Arial-BoldMT-70" d="M 434 3319 
L 1253 3319 
L 1253 2831 
Q 1413 3081 1684 3237 
Q 1956 3394 2288 3394 
Q 2866 3394 3269 2941 
Q 3672 2488 3672 1678 
Q 3672 847 3265 386 
Q 2859 -75 2281 -75 
Q 2006 -75 1782 34 
Q 1559 144 1313 409 
L 1313 -1263 
L 434 -1263 
L 434 3319 
z
M 1303 1716 
Q 1303 1156 1525 889 
Q 1747 622 2066 622 
Q 2372 622 2575 867 
Q 2778 1113 2778 1672 
Q 2778 2194 2568 2447 
Q 2359 2700 2050 2700 
Q 1728 2700 1515 2451 
Q 1303 2203 1303 1716 
z
" transform="scale(0.015625)"/>
      <path id="Arial-BoldMT-62" d="M 422 0 
L 422 4581 
L 1300 4581 
L 1300 2931 
Q 1706 3394 2263 3394 
Q 2869 3394 3266 2955 
Q 3663 2516 3663 1694 
Q 3663 844 3258 384 
Q 2853 -75 2275 -75 
Q 1991 -75 1714 67 
Q 1438 209 1238 488 
L 1238 0 
L 422 0 
z
M 1294 1731 
Q 1294 1216 1456 969 
Q 1684 619 2063 619 
Q 2353 619 2558 867 
Q 2763 1116 2763 1650 
Q 2763 2219 2556 2470 
Q 2350 2722 2028 2722 
Q 1713 2722 1503 2476 
Q 1294 2231 1294 1731 
z
" transform="scale(0.015625)"/>
      <path id="Arial-BoldMT-79" d="M 44 3319 
L 978 3319 
L 1772 963 
L 2547 3319 
L 3456 3319 
L 2284 125 
L 2075 -453 
Q 1959 -744 1854 -897 
Q 1750 -1050 1614 -1145 
Q 1478 -1241 1279 -1294 
Q 1081 -1347 831 -1347 
Q 578 -1347 334 -1294 
L 256 -606 
Q 463 -647 628 -647 
Q 934 -647 1081 -467 
Q 1228 -288 1306 -9 
L 44 3319 
z
" transform="scale(0.015625)"/>
      <path id="Arial-BoldMT-6c" d="M 459 0 
L 459 4581 
L 1338 4581 
L 1338 0 
L 459 0 
z
" transform="scale(0.015625)"/>
      <path id="Arial-BoldMT-63" d="M 3353 2338 
L 2488 2181 
Q 2444 2441 2289 2572 
Q 2134 2703 1888 2703 
Q 1559 2703 1364 2476 
Q 1169 2250 1169 1719 
Q 1169 1128 1367 884 
Q 1566 641 1900 641 
Q 2150 641 2309 783 
Q 2469 925 2534 1272 
L 3397 1125 
Q 3263 531 2881 228 
Q 2500 -75 1859 -75 
Q 1131 -75 698 384 
Q 266 844 266 1656 
Q 266 2478 700 2936 
Q 1134 3394 1875 3394 
Q 2481 3394 2839 3133 
Q 3197 2872 3353 2338 
z
" transform="scale(0.015625)"/>
      <path id="Arial-BoldMT-2c" d="M 438 878 
L 1316 878 
L 1316 250 
Q 1316 -131 1250 -351 
Q 1184 -572 1001 -747 
Q 819 -922 538 -1022 
L 366 -659 
Q 631 -572 743 -419 
Q 856 -266 863 0 
L 438 0 
L 438 878 
z
" transform="scale(0.015625)"/>
      <path id="Arial-BoldMT-32" d="M 3238 816 
L 3238 0 
L 159 0 
Q 209 463 459 877 
Q 709 1291 1447 1975 
Q 2041 2528 2175 2725 
Q 2356 2997 2356 3263 
Q 2356 3556 2198 3714 
Q 2041 3872 1763 3872 
Q 1488 3872 1325 3706 
Q 1163 3541 1138 3156 
L 263 3244 
Q 341 3969 753 4284 
Q 1166 4600 1784 4600 
Q 2463 4600 2850 4234 
Q 3238 3869 3238 3325 
Q 3238 3016 3127 2736 
Q 3016 2456 2775 2150 
Q 2616 1947 2200 1565 
Q 1784 1184 1673 1059 
Q 1563 934 1494 816 
L 3238 816 
z
" transform="scale(0.015625)"/>
      <path id="Arial-BoldMT-30" d="M 1756 4600 
Q 2422 4600 2797 4125 
Q 3244 3563 3244 2259 
Q 3244 959 2794 391 
Q 2422 -78 1756 -78 
Q 1088 -78 678 436 
Q 269 950 269 2269 
Q 269 3563 719 4131 
Q 1091 4600 1756 4600 
z
M 1756 3872 
Q 1597 3872 1472 3770 
Q 1347 3669 1278 3406 
Q 1188 3066 1188 2259 
Q 1188 1453 1269 1151 
Q 1350 850 1473 750 
Q 1597 650 1756 650 
Q 1916 650 2041 751 
Q 2166 853 2234 1116 
Q 2325 1453 2325 2259 
Q 2325 3066 2244 3367 
Q 2163 3669 2039 3770 
Q 1916 3872 1756 3872 
z
" transform="scale(0.015625)"/>
      <path id="Arial-BoldMT-2d" d="M 359 1222 
L 359 2100 
L 2084 2100 
L 2084 1222 
L 359 1222 
z
" transform="scale(0.015625)"/>
      <path id="Arial-BoldMT-35" d="M 284 1178 
L 1159 1269 
Q 1197 972 1381 798 
Q 1566 625 1806 625 
Q 2081 625 2272 848 
Q 2463 1072 2463 1522 
Q 2463 1944 2273 2155 
Q 2084 2366 1781 2366 
Q 1403 2366 1103 2031 
L 391 2134 
L 841 4519 
L 3163 4519 
L 3163 3697 
L 1506 3697 
L 1369 2919 
Q 1663 3066 1969 3066 
Q 2553 3066 2959 2641 
Q 3366 2216 3366 1538 
Q 3366 972 3038 528 
Q 2591 -78 1797 -78 
Q 1163 -78 763 262 
Q 363 603 284 1178 
z
" transform="scale(0.015625)"/>
     </defs>
     <use xlink:href="#Arial-BoldMT-54"/>
     <use xlink:href="#Arial-BoldMT-72" transform="translate(55.583984 0)"/>
     <use xlink:href="#Arial-BoldMT-65" transform="translate(94.5 0)"/>
     <use xlink:href="#Arial-BoldMT-6e" transform="translate(150.115234 0)"/>
     <use xlink:href="#Arial-BoldMT-64" transform="translate(211.199219 0)"/>
     <use xlink:href="#Arial-BoldMT-73" transform="translate(272.283203 0)"/>
     <use xlink:href="#Arial-BoldMT-20" transform="translate(327.898438 0)"/>
     <use xlink:href="#Arial-BoldMT-69" transform="translate(355.681641 0)"/>
     <use xlink:href="#Arial-BoldMT-6e" transform="translate(383.464844 0)"/>
     <use xlink:href="#Arial-BoldMT-20" transform="translate(444.548828 0)"/>
     <use xlink:href="#Arial-BoldMT-47" transform="translate(472.332031 0)"/>
     <use xlink:href="#Arial-BoldMT-68" transform="translate(550.115234 0)"/>
     <use xlink:href="#Arial-BoldMT-61" transform="translate(611.199219 0)"/>
     <use xlink:href="#Arial-BoldMT-6e" transform="translate(666.814453 0)"/>
     <use xlink:href="#Arial-BoldMT-61" transform="translate(727.898438 0)"/>
     <use xlink:href="#Arial-BoldMT-69" transform="translate(783.513672 0)"/>
     <use xlink:href="#Arial-BoldMT-61" transform="translate(811.296875 0)"/>
     <use xlink:href="#Arial-BoldMT-6e" transform="translate(866.912109 0)"/>
     <use xlink:href="#Arial-BoldMT-20" transform="translate(927.996094 0)"/>
     <use xlink:href="#Arial-BoldMT-66" transform="translate(955.779297 0)"/>
     <use xlink:href="#Arial-BoldMT-69" transform="translate(989.080078 0)"/>
     <use xlink:href="#Arial-BoldMT-72" transform="translate(1016.863281 0)"/>
     <use xlink:href="#Arial-BoldMT-73" transform="translate(1055.779297 0)"/>
     <use xlink:href="#Arial-BoldMT-74" transform="translate(1111.394531 0)"/>
     <use xlink:href="#Arial-BoldMT-20" transform="translate(1144.695312 0)"/>
     <use xlink:href="#Arial-BoldMT-61" transform="translate(1172.478516 0)"/>
     <use xlink:href="#Arial-BoldMT-75" transform="translate(1228.09375 0)"/>
     <use xlink:href="#Arial-BoldMT-74" transform="translate(1289.177734 0)"/>
     <use xlink:href="#Arial-BoldMT-68" transform="translate(1322.478516 0)"/>
     <use xlink:href="#Arial-BoldMT-6f" transform="translate(1383.5625 0)"/>
     <use xlink:href="#Arial-BoldMT-72" transform="translate(1444.646484 0)"/>
     <use xlink:href="#Arial-BoldMT-73" transform="translate(1483.5625 0)"/>
     <use xlink:href="#Arial-BoldMT-68" transform="translate(1539.177734 0)"/>
     <use xlink:href="#Arial-BoldMT-69" transform="translate(1600.261719 0)"/>
     <use xlink:href="#Arial-BoldMT-70" transform="translate(1628.044922 0)"/>
     <use xlink:href="#Arial-BoldMT-20" transform="translate(1689.128906 0)"/>
     <use xlink:href="#Arial-BoldMT-62" transform="translate(1716.912109 0)"/>
     <use xlink:href="#Arial-BoldMT-79" transform="translate(1777.996094 0)"/>
     <use xlink:href="#Arial-BoldMT-20" transform="translate(1833.611328 0)"/>
     <use xlink:href="#Arial-BoldMT-70" transform="translate(1861.394531 0)"/>
     <use xlink:href="#Arial-BoldMT-61" transform="translate(1922.478516 0)"/>
     <use xlink:href="#Arial-BoldMT-72" transform="translate(1978.09375 0)"/>
     <use xlink:href="#Arial-BoldMT-74" transform="translate(2017.009766 0)"/>
     <use xlink:href="#Arial-BoldMT-6e" transform="translate(2050.310547 0)"/>
     <use xlink:href="#Arial-BoldMT-65" transform="translate(2111.394531 0)"/>
     <use xlink:href="#Arial-BoldMT-72" transform="translate(2167.009766 0)"/>
     <use xlink:href="#Arial-BoldMT-20" transform="translate(2205.925781 0)"/>
     <use xlink:href="#Arial-BoldMT-62" transform="translate(2233.708984 0)"/>
     <use xlink:href="#Arial-BoldMT-6c" transform="translate(2294.792969 0)"/>
     <use xlink:href="#Arial-BoldMT-6f" transform="translate(2322.576172 0)"/>
     <use xlink:href="#Arial-BoldMT-63" transform="translate(2383.660156 0)"/>
     <use xlink:href="#Arial-BoldMT-2c" transform="translate(2439.275391 0)"/>
     <use xlink:href="#Arial-BoldMT-20" transform="translate(2467.058594 0)"/>
     <use xlink:href="#Arial-BoldMT-32" transform="translate(2494.841797 0)"/>
     <use xlink:href="#Arial-BoldMT-30" transform="translate(2550.457031 0)"/>
     <use xlink:href="#Arial-BoldMT-30" transform="translate(2606.072266 0)"/>
     <use xlink:href="#Arial-BoldMT-30" transform="translate(2661.6875 0)"/>
     <use xlink:href="#Arial-BoldMT-2d" transform="translate(2717.302734 0)"/>
     <use xlink:href="#Arial-BoldMT-32" transform="translate(2750.603516 0)"/>
     <use xlink:href="#Arial-BoldMT-30" transform="translate(2806.21875 0)"/>
     <use xlink:href="#Arial-BoldMT-32" transform="translate(2861.833984 0)"/>
     <use xlink:href="#Arial-BoldMT-35" transform="translate(2917.449219 0)"/>
    </g>
    <!-- (3-year moving average) -->
    <g transform="translate(220.487812 32.568) scale(0.14 -0.14)">
     <defs>
      <path id="Arial-BoldMT-28" d="M 1916 -1347 
L 1313 -1347 
Q 834 -625 584 153 
Q 334 931 334 1659 
Q 334 2563 644 3369 
Q 913 4069 1325 4659 
L 1925 4659 
Q 1497 3713 1336 3048 
Q 1175 2384 1175 1641 
Q 1175 1128 1270 590 
Q 1366 53 1531 -431 
Q 1641 -750 1916 -1347 
z
" transform="scale(0.015625)"/>
      <path id="Arial-BoldMT-33" d="M 241 1216 
L 1091 1319 
Q 1131 994 1309 822 
Q 1488 650 1741 650 
Q 2013 650 2198 856 
Q 2384 1063 2384 1413 
Q 2384 1744 2206 1937 
Q 2028 2131 1772 2131 
Q 1603 2131 1369 2066 
L 1466 2781 
Q 1822 2772 2009 2936 
Q 2197 3100 2197 3372 
Q 2197 3603 2059 3740 
Q 1922 3878 1694 3878 
Q 1469 3878 1309 3722 
Q 1150 3566 1116 3266 
L 306 3403 
Q 391 3819 561 4067 
Q 731 4316 1036 4458 
Q 1341 4600 1719 4600 
Q 2366 4600 2756 4188 
Q 3078 3850 3078 3425 
Q 3078 2822 2419 2463 
Q 2813 2378 3048 2084 
Q 3284 1791 3284 1375 
Q 3284 772 2843 347 
Q 2403 -78 1747 -78 
Q 1125 -78 715 280 
Q 306 638 241 1216 
z
" transform="scale(0.015625)"/>
      <path id="Arial-BoldMT-6d" d="M 394 3319 
L 1203 3319 
L 1203 2866 
Q 1638 3394 2238 3394 
Q 2556 3394 2790 3262 
Q 3025 3131 3175 2866 
Q 3394 3131 3647 3262 
Q 3900 3394 4188 3394 
Q 4553 3394 4806 3245 
Q 5059 3097 5184 2809 
Q 5275 2597 5275 2122 
L 5275 0 
L 4397 0 
L 4397 1897 
Q 4397 2391 4306 2534 
Q 4184 2722 3931 2722 
Q 3747 2722 3584 2609 
Q 3422 2497 3350 2280 
Q 3278 2063 3278 1594 
L 3278 0 
L 2400 0 
L 2400 1819 
Q 2400 2303 2353 2443 
Q 2306 2584 2207 2653 
Q 2109 2722 1941 2722 
Q 1738 2722 1575 2612 
Q 1413 2503 1342 2297 
Q 1272 2091 1272 1613 
L 1272 0 
L 394 0 
L 394 3319 
z
" transform="scale(0.015625)"/>
      <path id="Arial-BoldMT-76" d="M 1372 0 
L 34 3319 
L 956 3319 
L 1581 1625 
L 1763 1059 
Q 1834 1275 1853 1344 
Q 1897 1484 1947 1625 
L 2578 3319 
L 3481 3319 
L 2163 0 
L 1372 0 
z
" transform="scale(0.015625)"/>
      <path id="Arial-BoldMT-67" d="M 378 -219 
L 1381 -341 
Q 1406 -516 1497 -581 
Q 1622 -675 1891 -675 
Q 2234 -675 2406 -572 
Q 2522 -503 2581 -350 
Q 2622 -241 2622 53 
L 2622 538 
Q 2228 0 1628 0 
Q 959 0 569 566 
Q 263 1013 263 1678 
Q 263 2513 664 2953 
Q 1066 3394 1663 3394 
Q 2278 3394 2678 2853 
L 2678 3319 
L 3500 3319 
L 3500 341 
Q 3500 -247 3403 -537 
Q 3306 -828 3131 -993 
Q 2956 -1159 2664 -1253 
Q 2372 -1347 1925 -1347 
Q 1081 -1347 728 -1058 
Q 375 -769 375 -325 
Q 375 -281 378 -219 
z
M 1163 1728 
Q 1163 1200 1367 954 
Q 1572 709 1872 709 
Q 2194 709 2416 961 
Q 2638 1213 2638 1706 
Q 2638 2222 2425 2472 
Q 2213 2722 1888 2722 
Q 1572 2722 1367 2476 
Q 1163 2231 1163 1728 
z
" transform="scale(0.015625)"/>
      <path id="Arial-BoldMT-29" d="M 216 -1347 
Q 475 -791 581 -494 
Q 688 -197 778 190 
Q 869 578 912 926 
Q 956 1275 956 1641 
Q 956 2384 797 3048 
Q 638 3713 209 4659 
L 806 4659 
Q 1278 3988 1539 3234 
Q 1800 2481 1800 1706 
Q 1800 1053 1594 306 
Q 1359 -531 822 -1347 
L 216 -1347 
z
" transform="scale(0.015625)"/>
     </defs>
     <use xlink:href="#Arial-BoldMT-28"/>
     <use xlink:href="#Arial-BoldMT-33" transform="translate(33.300781 0)"/>
     <use xlink:href="#Arial-BoldMT-2d" transform="translate(88.916016 0)"/>
     <use xlink:href="#Arial-BoldMT-79" transform="translate(122.216797 0)"/>
     <use xlink:href="#Arial-BoldMT-65" transform="translate(177.832031 0)"/>
     <use xlink:href="#Arial-BoldMT-61" transform="translate(233.447266 0)"/>
     <use xlink:href="#Arial-BoldMT-72" transform="translate(289.0625 0)"/>
     <use xlink:href="#Arial-BoldMT-20" transform="translate(327.978516 0)"/>
     <use xlink:href="#Arial-BoldMT-6d" transform="translate(355.761719 0)"/>
     <use xlink:href="#Arial-BoldMT-6f" transform="translate(444.677734 0)"/>
     <use xlink:href="#Arial-BoldMT-76" transform="translate(505.761719 0)"/>
     <use xlink:href="#Arial-BoldMT-69" transform="translate(561.376953 0)"/>
     <use xlink:href="#Arial-BoldMT-6e" transform="translate(589.160156 0)"/>
     <use xlink:href="#Arial-BoldMT-67" transform="translate(650.244141 0)"/>
     <use xlink:href="#Arial-BoldMT-20" transform="translate(711.328125 0)"/>
     <use xlink:href="#Arial-BoldMT-61" transform="translate(739.111328 0)"/>
     <use xlink:href="#Arial-BoldMT-76" transform="translate(794.726562 0)"/>
     <use xlink:href="#Arial-BoldMT-65" transform="translate(850.341797 0)"/>
     <use xlink:href="#Arial-BoldMT-72" transform="translate(905.957031 0)"/>
     <use xlink:href="#Arial-BoldMT-61" transform="translate(944.873047 0)"/>
     <use xlink:href="#Arial-BoldMT-67" transform="translate(1000.488281 0)"/>
     <use xlink:href="#Arial-BoldMT-65" transform="translate(1061.572266 0)"/>
     <use xlink:href="#Arial-BoldMT-29" transform="translate(1117.1875 0)"/>
    </g>
   </g>
   <g id="legend_1">
    <g id="patch_5">
     <path d="M 478.600156 96.691125 
L 555.43625 96.691125 
Q 557.23625 96.691125 557.23625 94.891125 
L 557.23625 44.868 
Q 557.23625 43.068 555.43625 43.068 
L 478.600156 43.068 
Q 476.800156 43.068 476.800156 44.868 
L 476.800156 94.891125 
Q 476.800156 96.691125 478.600156 96.691125 
z
" style="fill: #ffffff; opacity: 0.8; stroke: #cccccc; stroke-linejoin: miter"/>
    </g>
    <g id="line2d_25">
     <path d="M 480.400156 49.960031 
L 489.400156 49.960031 
L 498.400156 49.960031 
" style="fill: none; stroke: #1565c0; stroke-width: 2; stroke-linecap: square"/>
     <g>
      <use xlink:href="#m5e12e2ca04" x="489.400156" y="49.960031" style="fill: #1565c0; stroke: #1565c0; stroke-linejoin: miter"/>
     </g>
    </g>
    <g id="text_17">
     <!-- Western -->
     <g transform="translate(505.600156 53.110031) scale(0.09 -0.09)">
      <defs>
       <path id="ArialMT-57" d="M 1294 0 
L 78 4581 
L 700 4581 
L 1397 1578 
Q 1509 1106 1591 641 
Q 1766 1375 1797 1488 
L 2669 4581 
L 3400 4581 
L 4056 2263 
Q 4303 1400 4413 641 
Q 4500 1075 4641 1638 
L 5359 4581 
L 5969 4581 
L 4713 0 
L 4128 0 
L 3163 3491 
Q 3041 3928 3019 4028 
Q 2947 3713 2884 3491 
L 1913 0 
L 1294 0 
z
" transform="scale(0.015625)"/>
      </defs>
      <use xlink:href="#ArialMT-57"/>
      <use xlink:href="#ArialMT-65" transform="translate(92.634766 0)"/>
      <use xlink:href="#ArialMT-73" transform="translate(148.25 0)"/>
      <use xlink:href="#ArialMT-74" transform="translate(198.25 0)"/>
      <use xlink:href="#ArialMT-65" transform="translate(226.033203 0)"/>
      <use xlink:href="#ArialMT-72" transform="translate(281.648438 0)"/>
      <use xlink:href="#ArialMT-6e" transform="translate(314.949219 0)"/>
     </g>
    </g>
    <g id="line2d_26">
     <path d="M 480.400156 62.690812 
L 489.400156 62.690812 
L 498.400156 62.690812 
" style="fill: none; stroke: #e53935; stroke-width: 2; stroke-linecap: square"/>
     <g>
      <use xlink:href="#m0ad4e1abcd" x="489.400156" y="62.690812" style="fill: #e53935; stroke: #e53935; stroke-linejoin: miter"/>
     </g>
    </g>
    <g id="text_18">
     <!-- East Asian -->
     <g transform="translate(505.600156 65.840812) scale(0.09 -0.09)">
      <defs>
       <path id="ArialMT-45" d="M 506 0 
L 506 4581 
L 3819 4581 
L 3819 4041 
L 1113 4041 
L 1113 2638 
L 3647 2638 
L 3647 2100 
L 1113 2100 
L 1113 541 
L 3925 541 
L 3925 0 
L 506 0 
z
" transform="scale(0.015625)"/>
      </defs>
      <use xlink:href="#ArialMT-45"/>
      <use xlink:href="#ArialMT-61" transform="translate(66.699219 0)"/>
      <use xlink:href="#ArialMT-73" transform="translate(122.314453 0)"/>
      <use xlink:href="#ArialMT-74" transform="translate(172.314453 0)"/>
      <use xlink:href="#ArialMT-20" transform="translate(200.097656 0)"/>
      <use xlink:href="#ArialMT-41" transform="translate(222.380859 0)"/>
      <use xlink:href="#ArialMT-73" transform="translate(289.080078 0)"/>
      <use xlink:href="#ArialMT-69" transform="translate(339.080078 0)"/>
      <use xlink:href="#ArialMT-61" transform="translate(361.296875 0)"/>
      <use xlink:href="#ArialMT-6e" transform="translate(416.912109 0)"/>
     </g>
    </g>
    <g id="line2d_27">
     <path d="M 480.400156 75.421594 
L 489.400156 75.421594 
L 498.400156 75.421594 
" style="fill: none; stroke: #f9a825; stroke-width: 2; stroke-linecap: square"/>
     <g>
      <use xlink:href="#m83ee426dfc" x="489.400156" y="75.421594" style="fill: #f9a825; stroke: #f9a825; stroke-linejoin: miter"/>
     </g>
    </g>
    <g id="text_19">
     <!-- South Asian -->
     <g transform="translate(505.600156 78.571594) scale(0.09 -0.09)">
      <defs>
       <path id="ArialMT-53" d="M 288 1472 
L 859 1522 
Q 900 1178 1048 958 
Q 1197 738 1509 602 
Q 1822 466 2213 466 
Q 2559 466 2825 569 
Q 3091 672 3220 851 
Q 3350 1031 3350 1244 
Q 3350 1459 3225 1620 
Q 3100 1781 2813 1891 
Q 2628 1963 1997 2114 
Q 1366 2266 1113 2400 
Q 784 2572 623 2826 
Q 463 3081 463 3397 
Q 463 3744 659 4045 
Q 856 4347 1234 4503 
Q 1613 4659 2075 4659 
Q 2584 4659 2973 4495 
Q 3363 4331 3572 4012 
Q 3781 3694 3797 3291 
L 3216 3247 
Q 3169 3681 2898 3903 
Q 2628 4125 2100 4125 
Q 1550 4125 1298 3923 
Q 1047 3722 1047 3438 
Q 1047 3191 1225 3031 
Q 1400 2872 2139 2705 
Q 2878 2538 3153 2413 
Q 3553 2228 3743 1945 
Q 3934 1663 3934 1294 
Q 3934 928 3725 604 
Q 3516 281 3123 101 
Q 2731 -78 2241 -78 
Q 1619 -78 1198 103 
Q 778 284 539 648 
Q 300 1013 288 1472 
z
" transform="scale(0.015625)"/>
      </defs>
      <use xlink:href="#ArialMT-53"/>
      <use xlink:href="#ArialMT-6f" transform="translate(66.699219 0)"/>
      <use xlink:href="#ArialMT-75" transform="translate(122.314453 0)"/>
      <use xlink:href="#ArialMT-74" transform="translate(177.929688 0)"/>
      <use xlink:href="#ArialMT-68" transform="translate(205.712891 0)"/>
      <use xlink:href="#ArialMT-20" transform="translate(261.328125 0)"/>
      <use xlink:href="#ArialMT-41" transform="translate(283.611328 0)"/>
      <use xlink:href="#ArialMT-73" transform="translate(350.310547 0)"/>
      <use xlink:href="#ArialMT-69" transform="translate(400.310547 0)"/>
      <use xlink:href="#ArialMT-61" transform="translate(422.527344 0)"/>
      <use xlink:href="#ArialMT-6e" transform="translate(478.142578 0)"/>
     </g>
    </g>
    <g id="line2d_28">
     <path d="M 480.400156 88.152375 
L 489.400156 88.152375 
L 498.400156 88.152375 
" style="fill: none; stroke: #2e7d32; stroke-width: 2; stroke-linecap: square"/>
     <g>
      <use xlink:href="#m9f4a085b64" x="489.400156" y="88.152375" style="fill: #2e7d32; stroke: #2e7d32"/>
     </g>
    </g>
    <g id="text_20">
     <!-- African -->
     <g transform="translate(505.600156 91.302375) scale(0.09 -0.09)">
      <defs>
       <path id="ArialMT-63" d="M 2588 1216 
L 3141 1144 
Q 3050 572 2676 248 
Q 2303 -75 1759 -75 
Q 1078 -75 664 370 
Q 250 816 250 1647 
Q 250 2184 428 2587 
Q 606 2991 970 3192 
Q 1334 3394 1763 3394 
Q 2303 3394 2647 3120 
Q 2991 2847 3088 2344 
L 2541 2259 
Q 2463 2594 2264 2762 
Q 2066 2931 1784 2931 
Q 1359 2931 1093 2626 
Q 828 2322 828 1663 
Q 828 994 1084 691 
Q 1341 388 1753 388 
Q 2084 388 2306 591 
Q 2528 794 2588 1216 
z
" transform="scale(0.015625)"/>
      </defs>
      <use xlink:href="#ArialMT-41"/>
      <use xlink:href="#ArialMT-66" transform="translate(66.699219 0)"/>
      <use xlink:href="#ArialMT-72" transform="translate(94.482422 0)"/>
      <use xlink:href="#ArialMT-69" transform="translate(127.783203 0)"/>
      <use xlink:href="#ArialMT-63" transform="translate(150 0)"/>
      <use xlink:href="#ArialMT-61" transform="translate(200 0)"/>
      <use xlink:href="#ArialMT-6e" transform="translate(255.615234 0)"/>
     </g>
    </g>
   </g>
  </g>
 </g>
 <defs>
  <clipPath id="p5b815bdc83">
   <rect x="40.29625" y="38.568" width="521.44" height="275.464"/>
  </clipPath>
 </defs>
</svg>
