<?xml version="1.0" encoding="utf-8" standalone="no"?>
<!DOCTYPE svg PUBLIC "-//W3C//DTD SVG 1.1//EN"
  "http://www.w3.org/Graphics/SVG/1.1/DTD/svg11.dtd">
<svg xmlns:xlink="http://www.w3.org/1999/xlink" width="1142.641141pt" height="355.714219pt" viewBox="0 0 1142.641141 355.714219" xmlns="http://www.w3.org/2000/svg" version="1.1">
 <metadata>
  <rdf:RDF xmlns:dc="http://purl.org/dc/elements/1.1/" xmlns:cc="http://creativecommons.org/ns#" xmlns:rdf="http://www.w3.org/1999/02/22-rdf-syntax-ns#">
   <cc:Work>
    <dc:type rdf:resource="http://purl.org/dc/dcmitype/StillImage"/>
    <dc:date>2026-04-13T22:29:27.247453</dc:date>
    <dc:format>image/svg+xml</dc:format>
    <dc:creator>
     <cc:Agent>
      <dc:title>Matplotlib v3.10.8, https://matplotlib.org/</dc:title>
     </cc:Agent>
    </dc:creator>
   </cc:Work>
  </rdf:RDF>
 </metadata>
 <defs>
  <style type="text/css">*{stroke-linejoin: round; stroke-linecap: butt}</style>
 </defs>
 <g id="figure_1">
  <g id="patch_1">
   <path d="M 0 355.714219 
L 1142.641141 355.714219 
L 1142.641141 0 
L 0 0 
z
" style="fill: #ffffff"/>
  </g>
  <g id="axes_1">
   <g id="patch_2">
    <path d="M 41.695313 316.48 
L 385.387808 316.48 
L 385.387808 52.32 
L 41.695313 52.32 
z
" style="fill: #ffffff"/>
   </g>
   <g id="matplotlib.axis_1">
    <g id="xtick_1">
     <g id="line2d_1">
      <defs>
       <path id="m6989c52de0" d="M 0 0 
L 0 3.5 
" style="stroke: #000000; stroke-width: 0.8"/>
      </defs>
      <g>
       <use xlink:href="#m6989c52de0" x="57.317699" y="316.48" style="stroke: #000000; stroke-width: 0.8"/>
      </g>
     </g>
     <g id="text_1">
      <!-- 2000 -->
      <g transform="translate(45.083636 331.353594) scale(0.11 -0.11)">
       <defs>
        <path id="ArialMT-32" d="M 3222 541 
L 3222 0 
L 194 0 
Q 188 203 259 391 
Q 375 700 629 1000 
Q 884 1300 1366 1694 
Q 2113 2306 2375 2664 
Q 2638 3022 2638 3341 
Q 2638 3675 2398 3904 
Q 2159 4134 1775 4134 
Q 1369 4134 1125 3890 
Q 881 3647 878 3216 
L 300 3275 
Q 359 3922 746 4261 
Q 1134 4600 1788 4600 
Q 2447 4600 2831 4234 
Q 3216 3869 3216 3328 
Q 3216 3053 3103 2787 
Q 2991 2522 2730 2228 
Q 2469 1934 1863 1422 
Q 1356 997 1212 845 
Q 1069 694 975 541 
L 3222 541 
z
" transform="scale(0.015625)"/>
        <path id="ArialMT-30" d="M 266 2259 
Q 266 3072 433 3567 
Q 600 4063 929 4331 
Q 1259 4600 1759 4600 
Q 2128 4600 2406 4451 
Q 2684 4303 2865 4023 
Q 3047 3744 3150 3342 
Q 3253 2941 3253 2259 
Q 3253 1453 3087 958 
Q 2922 463 2592 192 
Q 2263 -78 1759 -78 
Q 1097 -78 719 397 
Q 266 969 266 2259 
z
M 844 2259 
Q 844 1131 1108 757 
Q 1372 384 1759 384 
Q 2147 384 2411 759 
Q 2675 1134 2675 2259 
Q 2675 3391 2411 3762 
Q 2147 4134 1753 4134 
Q 1366 4134 1134 3806 
Q 844 3388 844 2259 
z
" transform="scale(0.015625)"/>
       </defs>
       <use xlink:href="#ArialMT-32"/>
       <use xlink:href="#ArialMT-30" transform="translate(55.615234 0)"/>
       <use xlink:href="#ArialMT-30" transform="translate(111.230469 0)"/>
       <use xlink:href="#ArialMT-30" transform="translate(166.845703 0)"/>
      </g>
     </g>
    </g>
    <g id="xtick_2">
     <g id="line2d_2">
      <g>
       <use xlink:href="#m6989c52de0" x="119.807243" y="316.48" style="stroke: #000000; stroke-width: 0.8"/>
      </g>
     </g>
     <g id="text_2">
      <!-- 2005 -->
      <g transform="translate(107.573181 331.353594) scale(0.11 -0.11)">
       <defs>
        <path id="ArialMT-35" d="M 266 1200 
L 856 1250 
Q 922 819 1161 601 
Q 1400 384 1738 384 
Q 2144 384 2425 690 
Q 2706 997 2706 1503 
Q 2706 1984 2436 2262 
Q 2166 2541 1728 2541 
Q 1456 2541 1237 2417 
Q 1019 2294 894 2097 
L 366 2166 
L 809 4519 
L 3088 4519 
L 3088 3981 
L 1259 3981 
L 1013 2750 
Q 1425 3038 1878 3038 
Q 2478 3038 2890 2622 
Q 3303 2206 3303 1553 
Q 3303 931 2941 478 
Q 2500 -78 1738 -78 
Q 1113 -78 717 272 
Q 322 622 266 1200 
z
" transform="scale(0.015625)"/>
       </defs>
       <use xlink:href="#ArialMT-32"/>
       <use xlink:href="#ArialMT-30" transform="translate(55.615234 0)"/>
       <use xlink:href="#ArialMT-30" transform="translate(111.230469 0)"/>
       <use xlink:href="#ArialMT-35" transform="translate(166.845703 0)"/>
      </g>
     </g>
    </g>
    <g id="xtick_3">
     <g id="line2d_3">
      <g>
       <use xlink:href="#m6989c52de0" x="182.296788" y="316.48" style="stroke: #000000; stroke-width: 0.8"/>
      </g>
     </g>
     <g id="text_3">
      <!-- 2010 -->
      <g transform="translate(170.062725 331.353594) scale(0.11 -0.11)">
       <defs>
        <path id="ArialMT-31" d="M 2384 0 
L 1822 0 
L 1822 3584 
Q 1619 3391 1289 3197 
Q 959 3003 697 2906 
L 697 3450 
Q 1169 3672 1522 3987 
Q 1875 4303 2022 4600 
L 2384 4600 
L 2384 0 
z
" transform="scale(0.015625)"/>
       </defs>
       <use xlink:href="#ArialMT-32"/>
       <use xlink:href="#ArialMT-30" transform="translate(55.615234 0)"/>
       <use xlink:href="#ArialMT-31" transform="translate(111.230469 0)"/>
       <use xlink:href="#ArialMT-30" transform="translate(166.845703 0)"/>
      </g>
     </g>
    </g>
    <g id="xtick_4">
     <g id="line2d_4">
      <g>
       <use xlink:href="#m6989c52de0" x="244.786333" y="316.48" style="stroke: #000000; stroke-width: 0.8"/>
      </g>
     </g>
     <g id="text_4">
      <!-- 2015 -->
      <g transform="translate(232.55227 331.353594) scale(0.11 -0.11)">
       <use xlink:href="#ArialMT-32"/>
       <use xlink:href="#ArialMT-30" transform="translate(55.615234 0)"/>
       <use xlink:href="#ArialMT-31" transform="translate(111.230469 0)"/>
       <use xlink:href="#ArialMT-35" transform="translate(166.845703 0)"/>
      </g>
     </g>
    </g>
    <g id="xtick_5">
     <g id="line2d_5">
      <g>
       <use xlink:href="#m6989c52de0" x="307.275877" y="316.48" style="stroke: #000000; stroke-width: 0.8"/>
      </g>
     </g>
     <g id="text_5">
      <!-- 2020 -->
      <g transform="translate(295.041815 331.353594) scale(0.11 -0.11)">
       <use xlink:href="#ArialMT-32"/>
       <use xlink:href="#ArialMT-30" transform="translate(55.615234 0)"/>
       <use xlink:href="#ArialMT-32" transform="translate(111.230469 0)"/>
       <use xlink:href="#ArialMT-30" transform="translate(166.845703 0)"/>
      </g>
     </g>
    </g>
    <g id="xtick_6">
     <g id="line2d_6">
      <g>
       <use xlink:href="#m6989c52de0" x="369.765422" y="316.48" style="stroke: #000000; stroke-width: 0.8"/>
      </g>
     </g>
     <g id="text_6">
      <!-- 2025 -->
      <g transform="translate(357.531359 331.353594) scale(0.11 -0.11)">
       <use xlink:href="#ArialMT-32"/>
       <use xlink:href="#ArialMT-30" transform="translate(55.615234 0)"/>
       <use xlink:href="#ArialMT-32" transform="translate(111.230469 0)"/>
       <use xlink:href="#ArialMT-35" transform="translate(166.845703 0)"/>
      </g>
     </g>
    </g>
    <g id="text_7">
     <!-- Year -->
     <g transform="translate(201.415935 346.129219) scale(0.12 -0.12)">
      <defs>
       <path id="ArialMT-59" d="M 1784 0 
L 1784 1941 
L 19 4581 
L 756 4581 
L 1659 3200 
Q 1909 2813 2125 2425 
Q 2331 2784 2625 3234 
L 3513 4581 
L 4219 4581 
L 2391 1941 
L 2391 0 
L 1784 0 
z
" transform="scale(0.015625)"/>
       <path id="ArialMT-65" d="M 2694 1069 
L 3275 997 
Q 3138 488 2766 206 
Q 2394 -75 1816 -75 
Q 1088 -75 661 373 
Q 234 822 234 1631 
Q 234 2469 665 2931 
Q 1097 3394 1784 3394 
Q 2450 3394 2872 2941 
Q 3294 2488 3294 1666 
Q 3294 1616 3291 1516 
L 816 1516 
Q 847 969 1125 678 
Q 1403 388 1819 388 
Q 2128 388 2347 550 
Q 2566 713 2694 1069 
z
M 847 1978 
L 2700 1978 
Q 2663 2397 2488 2606 
Q 2219 2931 1791 2931 
Q 1403 2931 1139 2672 
Q 875 2413 847 1978 
z
" transform="scale(0.015625)"/>
       <path id="ArialMT-61" d="M 2588 409 
Q 2275 144 1986 34 
Q 1697 -75 1366 -75 
Q 819 -75 525 192 
Q 231 459 231 875 
Q 231 1119 342 1320 
Q 453 1522 633 1644 
Q 813 1766 1038 1828 
Q 1203 1872 1538 1913 
Q 2219 1994 2541 2106 
Q 2544 2222 2544 2253 
Q 2544 2597 2384 2738 
Q 2169 2928 1744 2928 
Q 1347 2928 1158 2789 
Q 969 2650 878 2297 
L 328 2372 
Q 403 2725 575 2942 
Q 747 3159 1072 3276 
Q 1397 3394 1825 3394 
Q 2250 3394 2515 3294 
Q 2781 3194 2906 3042 
Q 3031 2891 3081 2659 
Q 3109 2516 3109 2141 
L 3109 1391 
Q 3109 606 3145 398 
Q 3181 191 3288 0 
L 2700 0 
Q 2613 175 2588 409 
z
M 2541 1666 
Q 2234 1541 1622 1453 
Q 1275 1403 1131 1340 
Q 988 1278 909 1158 
Q 831 1038 831 891 
Q 831 666 1001 516 
Q 1172 366 1500 366 
Q 1825 366 2078 508 
Q 2331 650 2450 897 
Q 2541 1088 2541 1459 
L 2541 1666 
z
" transform="scale(0.015625)"/>
       <path id="ArialMT-72" d="M 416 0 
L 416 3319 
L 922 3319 
L 922 2816 
Q 1116 3169 1280 3281 
Q 1444 3394 1641 3394 
Q 1925 3394 2219 3213 
L 2025 2691 
Q 1819 2813 1613 2813 
Q 1428 2813 1281 2702 
Q 1134 2591 1072 2394 
Q 978 2094 978 1738 
L 978 0 
L 416 0 
z
" transform="scale(0.015625)"/>
      </defs>
      <use xlink:href="#ArialMT-59"/>
      <use xlink:href="#ArialMT-65" transform="translate(57.574219 0)"/>
      <use xlink:href="#ArialMT-61" transform="translate(113.189453 0)"/>
      <use xlink:href="#ArialMT-72" transform="translate(168.804688 0)"/>
     </g>
    </g>
   </g>
   <g id="matplotlib.axis_2">
    <g id="ytick_1">
     <g id="line2d_7">
      <defs>
       <path id="m49fb9b942f" d="M 0 0 
L -3.5 0 
" style="stroke: #000000; stroke-width: 0.8"/>
      </defs>
      <g>
       <use xlink:href="#m49fb9b942f" x="41.695313" y="316.48" style="stroke: #000000; stroke-width: 0.8"/>
      </g>
     </g>
     <g id="text_8">
      <!-- 0 -->
      <g transform="translate(28.578281 320.416797) scale(0.11 -0.11)">
       <use xlink:href="#ArialMT-30"/>
      </g>
     </g>
    </g>
    <g id="ytick_2">
     <g id="line2d_8">
      <g>
       <use xlink:href="#m49fb9b942f" x="41.695313" y="281.258667" style="stroke: #000000; stroke-width: 0.8"/>
      </g>
     </g>
     <g id="text_9">
      <!-- 10 -->
      <g transform="translate(22.46125 285.195464) scale(0.11 -0.11)">
       <use xlink:href="#ArialMT-31"/>
       <use xlink:href="#ArialMT-30" transform="translate(55.615234 0)"/>
      </g>
     </g>
    </g>
    <g id="ytick_3">
     <g id="line2d_9">
      <g>
       <use xlink:href="#m49fb9b942f" x="41.695313" y="246.037333" style="stroke: #000000; stroke-width: 0.8"/>
      </g>
     </g>
     <g id="text_10">
      <!-- 20 -->
      <g transform="translate(22.46125 249.97413) scale(0.11 -0.11)">
       <use xlink:href="#ArialMT-32"/>
       <use xlink:href="#ArialMT-30" transform="translate(55.615234 0)"/>
      </g>
     </g>
    </g>
    <g id="ytick_4">
     <g id="line2d_10">
      <g>
       <use xlink:href="#m49fb9b942f" x="41.695313" y="210.816" style="stroke: #000000; stroke-width: 0.8"/>
      </g>
     </g>
     <g id="text_11">
      <!-- 30 -->
      <g transform="translate(22.46125 214.752797) scale(0.11 -0.11)">
       <defs>
        <path id="ArialMT-33" d="M 269 1209 
L 831 1284 
Q 928 806 1161 595 
Q 1394 384 1728 384 
Q 2125 384 2398 659 
Q 2672 934 2672 1341 
Q 2672 1728 2419 1979 
Q 2166 2231 1775 2231 
Q 1616 2231 1378 2169 
L 1441 2663 
Q 1497 2656 1531 2656 
Q 1891 2656 2178 2843 
Q 2466 3031 2466 3422 
Q 2466 3731 2256 3934 
Q 2047 4138 1716 4138 
Q 1388 4138 1169 3931 
Q 950 3725 888 3313 
L 325 3413 
Q 428 3978 793 4289 
Q 1159 4600 1703 4600 
Q 2078 4600 2393 4439 
Q 2709 4278 2876 4000 
Q 3044 3722 3044 3409 
Q 3044 3113 2884 2869 
Q 2725 2625 2413 2481 
Q 2819 2388 3044 2092 
Q 3269 1797 3269 1353 
Q 3269 753 2831 336 
Q 2394 -81 1725 -81 
Q 1122 -81 723 278 
Q 325 638 269 1209 
z
" transform="scale(0.015625)"/>
       </defs>
       <use xlink:href="#ArialMT-33"/>
       <use xlink:href="#ArialMT-30" transform="translate(55.615234 0)"/>
      </g>
     </g>
    </g>
    <g id="ytick_5">
     <g id="line2d_11">
      <g>
       <use xlink:href="#m49fb9b942f" x="41.695313" y="175.594667" style="stroke: #000000; stroke-width: 0.8"/>
      </g>
     </g>
     <g id="text_12">
      <!-- 40 -->
      <g transform="translate(22.46125 179.531464) scale(0.11 -0.11)">
       <defs>
        <path id="ArialMT-34" d="M 2069 0 
L 2069 1097 
L 81 1097 
L 81 1613 
L 2172 4581 
L 2631 4581 
L 2631 1613 
L 3250 1613 
L 3250 1097 
L 2631 1097 
L 2631 0 
L 2069 0 
z
M 2069 1613 
L 2069 3678 
L 634 1613 
L 2069 1613 
z
" transform="scale(0.015625)"/>
       </defs>
       <use xlink:href="#ArialMT-34"/>
       <use xlink:href="#ArialMT-30" transform="translate(55.615234 0)"/>
      </g>
     </g>
    </g>
    <g id="ytick_6">
     <g id="line2d_12">
      <g>
       <use xlink:href="#m49fb9b942f" x="41.695313" y="140.373333" style="stroke: #000000; stroke-width: 0.8"/>
      </g>
     </g>
     <g id="text_13">
      <!-- 50 -->
      <g transform="translate(22.46125 144.31013) scale(0.11 -0.11)">
       <use xlink:href="#ArialMT-35"/>
       <use xlink:href="#ArialMT-30" transform="translate(55.615234 0)"/>
      </g>
     </g>
    </g>
    <g id="ytick_7">
     <g id="line2d_13">
      <g>
       <use xlink:href="#m49fb9b942f" x="41.695313" y="105.152" style="stroke: #000000; stroke-width: 0.8"/>
      </g>
     </g>
     <g id="text_14">
      <!-- 60 -->
      <g transform="translate(22.46125 109.088797) scale(0.11 -0.11)">
       <defs>
        <path id="ArialMT-36" d="M 3184 3459 
L 2625 3416 
Q 2550 3747 2413 3897 
Q 2184 4138 1850 4138 
Q 1581 4138 1378 3988 
Q 1113 3794 959 3422 
Q 806 3050 800 2363 
Q 1003 2672 1297 2822 
Q 1591 2972 1913 2972 
Q 2475 2972 2870 2558 
Q 3266 2144 3266 1488 
Q 3266 1056 3080 686 
Q 2894 316 2569 119 
Q 2244 -78 1831 -78 
Q 1128 -78 684 439 
Q 241 956 241 2144 
Q 241 3472 731 4075 
Q 1159 4600 1884 4600 
Q 2425 4600 2770 4297 
Q 3116 3994 3184 3459 
z
M 888 1484 
Q 888 1194 1011 928 
Q 1134 663 1356 523 
Q 1578 384 1822 384 
Q 2178 384 2434 671 
Q 2691 959 2691 1453 
Q 2691 1928 2437 2201 
Q 2184 2475 1800 2475 
Q 1419 2475 1153 2201 
Q 888 1928 888 1484 
z
" transform="scale(0.015625)"/>
       </defs>
       <use xlink:href="#ArialMT-36"/>
       <use xlink:href="#ArialMT-30" transform="translate(55.615234 0)"/>
      </g>
     </g>
    </g>
    <g id="ytick_8">
     <g id="line2d_14">
      <g>
       <use xlink:href="#m49fb9b942f" x="41.695313" y="69.930667" style="stroke: #000000; stroke-width: 0.8"/>
      </g>
     </g>
     <g id="text_15">
      <!-- 70 -->
      <g transform="translate(22.46125 73.867464) scale(0.11 -0.11)">
       <defs>
        <path id="ArialMT-37" d="M 303 3981 
L 303 4522 
L 3269 4522 
L 3269 4084 
Q 2831 3619 2401 2847 
Q 1972 2075 1738 1259 
Q 1569 684 1522 0 
L 944 0 
Q 953 541 1156 1306 
Q 1359 2072 1739 2783 
Q 2119 3494 2547 3981 
L 303 3981 
z
" transform="scale(0.015625)"/>
       </defs>
       <use xlink:href="#ArialMT-37"/>
       <use xlink:href="#ArialMT-30" transform="translate(55.615234 0)"/>
      </g>
     </g>
    </g>
    <g id="text_16">
     <!-- GH/Dual First Authorship (%) -->
     <g transform="translate(15.935625 261.753125) rotate(-90) scale(0.12 -0.12)">
      <defs>
       <path id="ArialMT-47" d="M 2638 1797 
L 2638 2334 
L 4578 2338 
L 4578 638 
Q 4131 281 3656 101 
Q 3181 -78 2681 -78 
Q 2006 -78 1454 211 
Q 903 500 622 1047 
Q 341 1594 341 2269 
Q 341 2938 620 3517 
Q 900 4097 1425 4378 
Q 1950 4659 2634 4659 
Q 3131 4659 3532 4498 
Q 3934 4338 4162 4050 
Q 4391 3763 4509 3300 
L 3963 3150 
Q 3859 3500 3706 3700 
Q 3553 3900 3268 4020 
Q 2984 4141 2638 4141 
Q 2222 4141 1919 4014 
Q 1616 3888 1430 3681 
Q 1244 3475 1141 3228 
Q 966 2803 966 2306 
Q 966 1694 1177 1281 
Q 1388 869 1791 669 
Q 2194 469 2647 469 
Q 3041 469 3416 620 
Q 3791 772 3984 944 
L 3984 1797 
L 2638 1797 
z
" transform="scale(0.015625)"/>
       <path id="ArialMT-48" d="M 513 0 
L 513 4581 
L 1119 4581 
L 1119 2700 
L 3500 2700 
L 3500 4581 
L 4106 4581 
L 4106 0 
L 3500 0 
L 3500 2159 
L 1119 2159 
L 1119 0 
L 513 0 
z
" transform="scale(0.015625)"/>
       <path id="ArialMT-2f" d="M 0 -78 
L 1328 4659 
L 1778 4659 
L 453 -78 
L 0 -78 
z
" transform="scale(0.015625)"/>
       <path id="ArialMT-44" d="M 494 0 
L 494 4581 
L 2072 4581 
Q 2606 4581 2888 4516 
Q 3281 4425 3559 4188 
Q 3922 3881 4101 3404 
Q 4281 2928 4281 2316 
Q 4281 1794 4159 1391 
Q 4038 988 3847 723 
Q 3656 459 3429 307 
Q 3203 156 2883 78 
Q 2563 0 2147 0 
L 494 0 
z
M 1100 541 
L 2078 541 
Q 2531 541 2789 625 
Q 3047 709 3200 863 
Q 3416 1078 3536 1442 
Q 3656 1806 3656 2325 
Q 3656 3044 3420 3430 
Q 3184 3816 2847 3947 
Q 2603 4041 2063 4041 
L 1100 4041 
L 1100 541 
z
" transform="scale(0.015625)"/>
       <path id="ArialMT-75" d="M 2597 0 
L 2597 488 
Q 2209 -75 1544 -75 
Q 1250 -75 995 37 
Q 741 150 617 320 
Q 494 491 444 738 
Q 409 903 409 1263 
L 409 3319 
L 972 3319 
L 972 1478 
Q 972 1038 1006 884 
Q 1059 663 1231 536 
Q 1403 409 1656 409 
Q 1909 409 2131 539 
Q 2353 669 2445 892 
Q 2538 1116 2538 1541 
L 2538 3319 
L 3100 3319 
L 3100 0 
L 2597 0 
z
" transform="scale(0.015625)"/>
       <path id="ArialMT-6c" d="M 409 0 
L 409 4581 
L 972 4581 
L 972 0 
L 409 0 
z
" transform="scale(0.015625)"/>
       <path id="ArialMT-20" transform="scale(0.015625)"/>
       <path id="ArialMT-46" d="M 525 0 
L 525 4581 
L 3616 4581 
L 3616 4041 
L 1131 4041 
L 1131 2622 
L 3281 2622 
L 3281 2081 
L 1131 2081 
L 1131 0 
L 525 0 
z
" transform="scale(0.015625)"/>
       <path id="ArialMT-69" d="M 425 3934 
L 425 4581 
L 988 4581 
L 988 3934 
L 425 3934 
z
M 425 0 
L 425 3319 
L 988 3319 
L 988 0 
L 425 0 
z
" transform="scale(0.015625)"/>
       <path id="ArialMT-73" d="M 197 991 
L 753 1078 
Q 800 744 1014 566 
Q 1228 388 1613 388 
Q 2000 388 2187 545 
Q 2375 703 2375 916 
Q 2375 1106 2209 1216 
Q 2094 1291 1634 1406 
Q 1016 1563 777 1677 
Q 538 1791 414 1992 
Q 291 2194 291 2438 
Q 291 2659 392 2848 
Q 494 3038 669 3163 
Q 800 3259 1026 3326 
Q 1253 3394 1513 3394 
Q 1903 3394 2198 3281 
Q 2494 3169 2634 2976 
Q 2775 2784 2828 2463 
L 2278 2388 
Q 2241 2644 2061 2787 
Q 1881 2931 1553 2931 
Q 1166 2931 1000 2803 
Q 834 2675 834 2503 
Q 834 2394 903 2306 
Q 972 2216 1119 2156 
Q 1203 2125 1616 2013 
Q 2213 1853 2448 1751 
Q 2684 1650 2818 1456 
Q 2953 1263 2953 975 
Q 2953 694 2789 445 
Q 2625 197 2315 61 
Q 2006 -75 1616 -75 
Q 969 -75 630 194 
Q 291 463 197 991 
z
" transform="scale(0.015625)"/>
       <path id="ArialMT-74" d="M 1650 503 
L 1731 6 
Q 1494 -44 1306 -44 
Q 1000 -44 831 53 
Q 663 150 594 308 
Q 525 466 525 972 
L 525 2881 
L 113 2881 
L 113 3319 
L 525 3319 
L 525 4141 
L 1084 4478 
L 1084 3319 
L 1650 3319 
L 1650 2881 
L 1084 2881 
L 1084 941 
Q 1084 700 1114 631 
Q 1144 563 1211 522 
Q 1278 481 1403 481 
Q 1497 481 1650 503 
z
" transform="scale(0.015625)"/>
       <path id="ArialMT-41" d="M -9 0 
L 1750 4581 
L 2403 4581 
L 4278 0 
L 3588 0 
L 3053 1388 
L 1138 1388 
L 634 0 
L -9 0 
z
M 1313 1881 
L 2866 1881 
L 2388 3150 
Q 2169 3728 2063 4100 
Q 1975 3659 1816 3225 
L 1313 1881 
z
" transform="scale(0.015625)"/>
       <path id="ArialMT-68" d="M 422 0 
L 422 4581 
L 984 4581 
L 984 2938 
Q 1378 3394 1978 3394 
Q 2347 3394 2619 3248 
Q 2891 3103 3008 2847 
Q 3125 2591 3125 2103 
L 3125 0 
L 2563 0 
L 2563 2103 
Q 2563 2525 2380 2717 
Q 2197 2909 1863 2909 
Q 1613 2909 1392 2779 
Q 1172 2650 1078 2428 
Q 984 2206 984 1816 
L 984 0 
L 422 0 
z
" transform="scale(0.015625)"/>
       <path id="ArialMT-6f" d="M 213 1659 
Q 213 2581 725 3025 
Q 1153 3394 1769 3394 
Q 2453 3394 2887 2945 
Q 3322 2497 3322 1706 
Q 3322 1066 3130 698 
Q 2938 331 2570 128 
Q 2203 -75 1769 -75 
Q 1072 -75 642 372 
Q 213 819 213 1659 
z
M 791 1659 
Q 791 1022 1069 705 
Q 1347 388 1769 388 
Q 2188 388 2466 706 
Q 2744 1025 2744 1678 
Q 2744 2294 2464 2611 
Q 2184 2928 1769 2928 
Q 1347 2928 1069 2612 
Q 791 2297 791 1659 
z
" transform="scale(0.015625)"/>
       <path id="ArialMT-70" d="M 422 -1272 
L 422 3319 
L 934 3319 
L 934 2888 
Q 1116 3141 1344 3267 
Q 1572 3394 1897 3394 
Q 2322 3394 2647 3175 
Q 2972 2956 3137 2557 
Q 3303 2159 3303 1684 
Q 3303 1175 3120 767 
Q 2938 359 2589 142 
Q 2241 -75 1856 -75 
Q 1575 -75 1351 44 
Q 1128 163 984 344 
L 984 -1272 
L 422 -1272 
z
M 931 1641 
Q 931 1000 1190 694 
Q 1450 388 1819 388 
Q 2194 388 2461 705 
Q 2728 1022 2728 1688 
Q 2728 2322 2467 2637 
Q 2206 2953 1844 2953 
Q 1484 2953 1207 2617 
Q 931 2281 931 1641 
z
" transform="scale(0.015625)"/>
       <path id="ArialMT-28" d="M 1497 -1347 
Q 1031 -759 709 28 
Q 388 816 388 1659 
Q 388 2403 628 3084 
Q 909 3875 1497 4659 
L 1900 4659 
Q 1522 4009 1400 3731 
Q 1209 3300 1100 2831 
Q 966 2247 966 1656 
Q 966 153 1900 -1347 
L 1497 -1347 
z
" transform="scale(0.015625)"/>
       <path id="ArialMT-25" d="M 372 3481 
Q 372 3972 619 4315 
Q 866 4659 1334 4659 
Q 1766 4659 2048 4351 
Q 2331 4044 2331 3447 
Q 2331 2866 2045 2552 
Q 1759 2238 1341 2238 
Q 925 2238 648 2547 
Q 372 2856 372 3481 
z
M 1350 4272 
Q 1141 4272 1002 4090 
Q 863 3909 863 3425 
Q 863 2984 1003 2804 
Q 1144 2625 1350 2625 
Q 1563 2625 1702 2806 
Q 1841 2988 1841 3469 
Q 1841 3913 1700 4092 
Q 1559 4272 1350 4272 
z
M 1353 -169 
L 3859 4659 
L 4316 4659 
L 1819 -169 
L 1353 -169 
z
M 3334 1075 
Q 3334 1569 3581 1911 
Q 3828 2253 4300 2253 
Q 4731 2253 5014 1945 
Q 5297 1638 5297 1041 
Q 5297 459 5011 145 
Q 4725 -169 4303 -169 
Q 3888 -169 3611 142 
Q 3334 453 3334 1075 
z
M 4316 1866 
Q 4103 1866 3964 1684 
Q 3825 1503 3825 1019 
Q 3825 581 3965 400 
Q 4106 219 4313 219 
Q 4528 219 4667 400 
Q 4806 581 4806 1063 
Q 4806 1506 4665 1686 
Q 4525 1866 4316 1866 
z
" transform="scale(0.015625)"/>
       <path id="ArialMT-29" d="M 791 -1347 
L 388 -1347 
Q 1322 153 1322 1656 
Q 1322 2244 1188 2822 
Q 1081 3291 891 3722 
Q 769 4003 388 4659 
L 791 4659 
Q 1378 3875 1659 3084 
Q 1900 2403 1900 1659 
Q 1900 816 1576 28 
Q 1253 -759 791 -1347 
z
" transform="scale(0.015625)"/>
      </defs>
      <use xlink:href="#ArialMT-47"/>
      <use xlink:href="#ArialMT-48" transform="translate(77.783203 0)"/>
      <use xlink:href="#ArialMT-2f" transform="translate(150 0)"/>
      <use xlink:href="#ArialMT-44" transform="translate(177.783203 0)"/>
      <use xlink:href="#ArialMT-75" transform="translate(250 0)"/>
      <use xlink:href="#ArialMT-61" transform="translate(305.615234 0)"/>
      <use xlink:href="#ArialMT-6c" transform="translate(361.230469 0)"/>
      <use xlink:href="#ArialMT-20" transform="translate(383.447266 0)"/>
      <use xlink:href="#ArialMT-46" transform="translate(411.230469 0)"/>
      <use xlink:href="#ArialMT-69" transform="translate(472.314453 0)"/>
      <use xlink:href="#ArialMT-72" transform="translate(494.53125 0)"/>
      <use xlink:href="#ArialMT-73" transform="translate(527.832031 0)"/>
      <use xlink:href="#ArialMT-74" transform="translate(577.832031 0)"/>
      <use xlink:href="#ArialMT-20" transform="translate(605.615234 0)"/>
      <use xlink:href="#ArialMT-41" transform="translate(627.898438 0)"/>
      <use xlink:href="#ArialMT-75" transform="translate(694.597656 0)"/>
      <use xlink:href="#ArialMT-74" transform="translate(750.212891 0)"/>
      <use xlink:href="#ArialMT-68" transform="translate(777.996094 0)"/>
      <use xlink:href="#ArialMT-6f" transform="translate(833.611328 0)"/>
      <use xlink:href="#ArialMT-72" transform="translate(889.226562 0)"/>
      <use xlink:href="#ArialMT-73" transform="translate(922.527344 0)"/>
      <use xlink:href="#ArialMT-68" transform="translate(972.527344 0)"/>
      <use xlink:href="#ArialMT-69" transform="translate(1028.142578 0)"/>
      <use xlink:href="#ArialMT-70" transform="translate(1050.359375 0)"/>
      <use xlink:href="#ArialMT-20" transform="translate(1105.974609 0)"/>
      <use xlink:href="#ArialMT-28" transform="translate(1133.757812 0)"/>
      <use xlink:href="#ArialMT-25" transform="translate(1167.058594 0)"/>
      <use xlink:href="#ArialMT-29" transform="translate(1255.974609 0)"/>
     </g>
    </g>
   </g>
   <g id="line2d_15">
    <path d="M 57.317699 150.266966 
L 69.815608 159.58497 
L 82.313517 140.373333 
L 94.811425 154.131667 
L 107.309334 155.46819 
L 119.807243 193.668772 
L 132.305152 171.325414 
L 144.803061 186.631767 
L 157.30097 156.652101 
L 169.798879 168.729492 
L 182.296788 192.302222 
L 194.794697 166.601986 
L 207.292606 183.536732 
L 219.790515 173.55285 
L 232.288424 156.546395 
L 244.786333 160.655281 
L 257.284242 162.56 
L 269.78215 160.366119 
L 282.280059 155.640645 
L 294.777968 147.904211 
L 307.275877 160.144568 
L 319.773786 159.207233 
L 332.271695 171.584317 
L 344.769604 157.925769 
L 357.267513 166.321959 
L 369.765422 174.764534 
" clip-path="url(#p49fc311fa8)" style="fill: none; stroke: #2563eb; stroke-width: 1.5; stroke-linecap: square"/>
    <defs>
     <path id="me4ad03b160" d="M 0 2 
C 0.530406 2 1.03916 1.789267 1.414214 1.414214 
C 1.789267 1.03916 2 0.530406 2 0 
C 2 -0.530406 1.789267 -1.03916 1.414214 -1.414214 
C 1.03916 -1.789267 0.530406 -2 0 -2 
C -0.530406 -2 -1.03916 -1.789267 -1.414214 -1.414214 
C -1.789267 -1.03916 -2 -0.530406 -2 0 
C -2 0.530406 -1.789267 1.03916 -1.414214 1.414214 
C -1.03916 1.789267 -0.530406 2 0 2 
z
" style="stroke: #2563eb"/>
    </defs>
    <g clip-path="url(#p49fc311fa8)">
     <use xlink:href="#me4ad03b160" x="57.317699" y="150.266966" style="fill: #2563eb; stroke: #2563eb"/>
     <use xlink:href="#me4ad03b160" x="69.815608" y="159.58497" style="fill: #2563eb; stroke: #2563eb"/>
     <use xlink:href="#me4ad03b160" x="82.313517" y="140.373333" style="fill: #2563eb; stroke: #2563eb"/>
     <use xlink:href="#me4ad03b160" x="94.811425" y="154.131667" style="fill: #2563eb; stroke: #2563eb"/>
     <use xlink:href="#me4ad03b160" x="107.309334" y="155.46819" style="fill: #2563eb; stroke: #2563eb"/>
     <use xlink:href="#me4ad03b160" x="119.807243" y="193.668772" style="fill: #2563eb; stroke: #2563eb"/>
     <use xlink:href="#me4ad03b160" x="132.305152" y="171.325414" style="fill: #2563eb; stroke: #2563eb"/>
     <use xlink:href="#me4ad03b160" x="144.803061" y="186.631767" style="fill: #2563eb; stroke: #2563eb"/>
     <use xlink:href="#me4ad03b160" x="157.30097" y="156.652101" style="fill: #2563eb; stroke: #2563eb"/>
     <use xlink:href="#me4ad03b160" x="169.798879" y="168.729492" style="fill: #2563eb; stroke: #2563eb"/>
     <use xlink:href="#me4ad03b160" x="182.296788" y="192.302222" style="fill: #2563eb; stroke: #2563eb"/>
     <use xlink:href="#me4ad03b160" x="194.794697" y="166.601986" style="fill: #2563eb; stroke: #2563eb"/>
     <use xlink:href="#me4ad03b160" x="207.292606" y="183.536732" style="fill: #2563eb; stroke: #2563eb"/>
     <use xlink:href="#me4ad03b160" x="219.790515" y="173.55285" style="fill: #2563eb; stroke: #2563eb"/>
     <use xlink:href="#me4ad03b160" x="232.288424" y="156.546395" style="fill: #2563eb; stroke: #2563eb"/>
     <use xlink:href="#me4ad03b160" x="244.786333" y="160.655281" style="fill: #2563eb; stroke: #2563eb"/>
     <use xlink:href="#me4ad03b160" x="257.284242" y="162.56" style="fill: #2563eb; stroke: #2563eb"/>
     <use xlink:href="#me4ad03b160" x="269.78215" y="160.366119" style="fill: #2563eb; stroke: #2563eb"/>
     <use xlink:href="#me4ad03b160" x="282.280059" y="155.640645" style="fill: #2563eb; stroke: #2563eb"/>
     <use xlink:href="#me4ad03b160" x="294.777968" y="147.904211" style="fill: #2563eb; stroke: #2563eb"/>
     <use xlink:href="#me4ad03b160" x="307.275877" y="160.144568" style="fill: #2563eb; stroke: #2563eb"/>
     <use xlink:href="#me4ad03b160" x="319.773786" y="159.207233" style="fill: #2563eb; stroke: #2563eb"/>
     <use xlink:href="#me4ad03b160" x="332.271695" y="171.584317" style="fill: #2563eb; stroke: #2563eb"/>
     <use xlink:href="#me4ad03b160" x="344.769604" y="157.925769" style="fill: #2563eb; stroke: #2563eb"/>
     <use xlink:href="#me4ad03b160" x="357.267513" y="166.321959" style="fill: #2563eb; stroke: #2563eb"/>
     <use xlink:href="#me4ad03b160" x="369.765422" y="174.764534" style="fill: #2563eb; stroke: #2563eb"/>
    </g>
   </g>
   <g id="line2d_16">
    <path d="M 57.317699 164.116491 
L 69.815608 164.176241 
L 82.313517 164.235991 
L 94.811425 164.295741 
L 107.309334 164.355491 
L 119.807243 164.415241 
L 132.305152 164.474991 
L 144.803061 164.534741 
L 157.30097 164.59449 
L 169.798879 164.65424 
L 182.296788 164.71399 
L 194.794697 164.77374 
L 207.292606 164.83349 
L 219.790515 164.89324 
L 232.288424 164.95299 
L 244.786333 165.01274 
L 257.284242 165.07249 
L 269.78215 165.13224 
L 282.280059 165.19199 
L 294.777968 165.251739 
L 307.275877 165.311489 
L 319.773786 165.371239 
L 332.271695 165.430989 
L 344.769604 165.490739 
L 357.267513 165.550489 
L 369.765422 165.610239 
" clip-path="url(#p49fc311fa8)" style="fill: none; stroke-dasharray: 5.55,2.4; stroke-dashoffset: 0; stroke: #dc2626; stroke-opacity: 0.5; stroke-width: 1.5"/>
   </g>
   <g id="patch_3">
    <path d="M 41.695313 316.48 
L 41.695313 52.32 
" style="fill: none; stroke: #000000; stroke-width: 0.8; stroke-linejoin: miter; stroke-linecap: square"/>
   </g>
   <g id="patch_4">
    <path d="M 41.695312 316.48 
L 385.387808 316.48 
" style="fill: none; stroke: #000000; stroke-width: 0.8; stroke-linejoin: miter; stroke-linecap: square"/>
   </g>
   <g id="text_17">
    <!-- Overall (MK: no trend, p=0.628) -->
    <g transform="translate(122.322185 46.32) scale(0.13 -0.13)">
     <defs>
      <path id="ArialMT-4f" d="M 309 2231 
Q 309 3372 921 4017 
Q 1534 4663 2503 4663 
Q 3138 4663 3647 4359 
Q 4156 4056 4423 3514 
Q 4691 2972 4691 2284 
Q 4691 1588 4409 1038 
Q 4128 488 3612 205 
Q 3097 -78 2500 -78 
Q 1853 -78 1343 234 
Q 834 547 571 1087 
Q 309 1628 309 2231 
z
M 934 2222 
Q 934 1394 1379 917 
Q 1825 441 2497 441 
Q 3181 441 3623 922 
Q 4066 1403 4066 2288 
Q 4066 2847 3877 3264 
Q 3688 3681 3323 3911 
Q 2959 4141 2506 4141 
Q 1863 4141 1398 3698 
Q 934 3256 934 2222 
z
" transform="scale(0.015625)"/>
      <path id="ArialMT-76" d="M 1344 0 
L 81 3319 
L 675 3319 
L 1388 1331 
Q 1503 1009 1600 663 
Q 1675 925 1809 1294 
L 2547 3319 
L 3125 3319 
L 1869 0 
L 1344 0 
z
" transform="scale(0.015625)"/>
      <path id="ArialMT-4d" d="M 475 0 
L 475 4581 
L 1388 4581 
L 2472 1338 
Q 2622 884 2691 659 
Q 2769 909 2934 1394 
L 4031 4581 
L 4847 4581 
L 4847 0 
L 4263 0 
L 4263 3834 
L 2931 0 
L 2384 0 
L 1059 3900 
L 1059 0 
L 475 0 
z
" transform="scale(0.015625)"/>
      <path id="ArialMT-4b" d="M 469 0 
L 469 4581 
L 1075 4581 
L 1075 2309 
L 3350 4581 
L 4172 4581 
L 2250 2725 
L 4256 0 
L 3456 0 
L 1825 2319 
L 1075 1588 
L 1075 0 
L 469 0 
z
" transform="scale(0.015625)"/>
      <path id="ArialMT-3a" d="M 578 2678 
L 578 3319 
L 1219 3319 
L 1219 2678 
L 578 2678 
z
M 578 0 
L 578 641 
L 1219 641 
L 1219 0 
L 578 0 
z
" transform="scale(0.015625)"/>
      <path id="ArialMT-6e" d="M 422 0 
L 422 3319 
L 928 3319 
L 928 2847 
Q 1294 3394 1984 3394 
Q 2284 3394 2536 3286 
Q 2788 3178 2913 3003 
Q 3038 2828 3088 2588 
Q 3119 2431 3119 2041 
L 3119 0 
L 2556 0 
L 2556 2019 
Q 2556 2363 2490 2533 
Q 2425 2703 2258 2804 
Q 2091 2906 1866 2906 
Q 1506 2906 1245 2678 
Q 984 2450 984 1813 
L 984 0 
L 422 0 
z
" transform="scale(0.015625)"/>
      <path id="ArialMT-64" d="M 2575 0 
L 2575 419 
Q 2259 -75 1647 -75 
Q 1250 -75 917 144 
Q 584 363 401 755 
Q 219 1147 219 1656 
Q 219 2153 384 2558 
Q 550 2963 881 3178 
Q 1213 3394 1622 3394 
Q 1922 3394 2156 3267 
Q 2391 3141 2538 2938 
L 2538 4581 
L 3097 4581 
L 3097 0 
L 2575 0 
z
M 797 1656 
Q 797 1019 1065 703 
Q 1334 388 1700 388 
Q 2069 388 2326 689 
Q 2584 991 2584 1609 
Q 2584 2291 2321 2609 
Q 2059 2928 1675 2928 
Q 1300 2928 1048 2622 
Q 797 2316 797 1656 
z
" transform="scale(0.015625)"/>
      <path id="ArialMT-2c" d="M 569 0 
L 569 641 
L 1209 641 
L 1209 0 
Q 1209 -353 1084 -570 
Q 959 -788 688 -906 
L 531 -666 
Q 709 -588 793 -436 
Q 878 -284 888 0 
L 569 0 
z
" transform="scale(0.015625)"/>
      <path id="ArialMT-3d" d="M 3381 2694 
L 356 2694 
L 356 3219 
L 3381 3219 
L 3381 2694 
z
M 3381 1303 
L 356 1303 
L 356 1828 
L 3381 1828 
L 3381 1303 
z
" transform="scale(0.015625)"/>
      <path id="ArialMT-2e" d="M 581 0 
L 581 641 
L 1222 641 
L 1222 0 
L 581 0 
z
" transform="scale(0.015625)"/>
      <path id="ArialMT-38" d="M 1131 2484 
Q 781 2613 612 2850 
Q 444 3088 444 3419 
Q 444 3919 803 4259 
Q 1163 4600 1759 4600 
Q 2359 4600 2725 4251 
Q 3091 3903 3091 3403 
Q 3091 3084 2923 2848 
Q 2756 2613 2416 2484 
Q 2838 2347 3058 2040 
Q 3278 1734 3278 1309 
Q 3278 722 2862 322 
Q 2447 -78 1769 -78 
Q 1091 -78 675 323 
Q 259 725 259 1325 
Q 259 1772 486 2073 
Q 713 2375 1131 2484 
z
M 1019 3438 
Q 1019 3113 1228 2906 
Q 1438 2700 1772 2700 
Q 2097 2700 2305 2904 
Q 2513 3109 2513 3406 
Q 2513 3716 2298 3927 
Q 2084 4138 1766 4138 
Q 1444 4138 1231 3931 
Q 1019 3725 1019 3438 
z
M 838 1322 
Q 838 1081 952 856 
Q 1066 631 1291 507 
Q 1516 384 1775 384 
Q 2178 384 2440 643 
Q 2703 903 2703 1303 
Q 2703 1709 2433 1975 
Q 2163 2241 1756 2241 
Q 1359 2241 1098 1978 
Q 838 1716 838 1322 
z
" transform="scale(0.015625)"/>
     </defs>
     <use xlink:href="#ArialMT-4f"/>
     <use xlink:href="#ArialMT-76" transform="translate(77.783203 0)"/>
     <use xlink:href="#ArialMT-65" transform="translate(127.783203 0)"/>
     <use xlink:href="#ArialMT-72" transform="translate(183.398438 0)"/>
     <use xlink:href="#ArialMT-61" transform="translate(216.699219 0)"/>
     <use xlink:href="#ArialMT-6c" transform="translate(272.314453 0)"/>
     <use xlink:href="#ArialMT-6c" transform="translate(294.53125 0)"/>
     <use xlink:href="#ArialMT-20" transform="translate(316.748047 0)"/>
     <use xlink:href="#ArialMT-28" transform="translate(344.53125 0)"/>
     <use xlink:href="#ArialMT-4d" transform="translate(377.832031 0)"/>
     <use xlink:href="#ArialMT-4b" transform="translate(461.132812 0)"/>
     <use xlink:href="#ArialMT-3a" transform="translate(527.832031 0)"/>
     <use xlink:href="#ArialMT-20" transform="translate(555.615234 0)"/>
     <use xlink:href="#ArialMT-6e" transform="translate(583.398438 0)"/>
     <use xlink:href="#ArialMT-6f" transform="translate(639.013672 0)"/>
     <use xlink:href="#ArialMT-20" transform="translate(694.628906 0)"/>
     <use xlink:href="#ArialMT-74" transform="translate(722.412109 0)"/>
     <use xlink:href="#ArialMT-72" transform="translate(750.195312 0)"/>
     <use xlink:href="#ArialMT-65" transform="translate(783.496094 0)"/>
     <use xlink:href="#ArialMT-6e" transform="translate(839.111328 0)"/>
     <use xlink:href="#ArialMT-64" transform="translate(894.726562 0)"/>
     <use xlink:href="#ArialMT-2c" transform="translate(950.341797 0)"/>
     <use xlink:href="#ArialMT-20" transform="translate(978.125 0)"/>
     <use xlink:href="#ArialMT-70" transform="translate(1005.908203 0)"/>
     <use xlink:href="#ArialMT-3d" transform="translate(1061.523438 0)"/>
     <use xlink:href="#ArialMT-30" transform="translate(1119.921875 0)"/>
     <use xlink:href="#ArialMT-2e" transform="translate(1175.537109 0)"/>
     <use xlink:href="#ArialMT-36" transform="translate(1203.320312 0)"/>
     <use xlink:href="#ArialMT-32" transform="translate(1258.935547 0)"/>
     <use xlink:href="#ArialMT-38" transform="translate(1314.550781 0)"/>
     <use xlink:href="#ArialMT-29" transform="translate(1370.166016 0)"/>
    </g>
   </g>
  </g>
  <g id="axes_2">
   <g id="patch_5">
    <path d="M 416.721979 316.48 
L 760.414475 316.48 
L 760.414475 52.32 
L 416.721979 52.32 
z
" style="fill: #ffffff"/>
   </g>
   <g id="matplotlib.axis_3">
    <g id="xtick_7">
     <g id="line2d_17">
      <g>
       <use xlink:href="#m6989c52de0" x="432.344365" y="316.48" style="stroke: #000000; stroke-width: 0.8"/>
      </g>
     </g>
     <g id="text_18">
      <!-- 2000 -->
      <g transform="translate(420.110303 331.353594) scale(0.11 -0.11)">
       <use xlink:href="#ArialMT-32"/>
       <use xlink:href="#ArialMT-30" transform="translate(55.615234 0)"/>
       <use xlink:href="#ArialMT-30" transform="translate(111.230469 0)"/>
       <use xlink:href="#ArialMT-30" transform="translate(166.845703 0)"/>
      </g>
     </g>
    </g>
    <g id="xtick_8">
     <g id="line2d_18">
      <g>
       <use xlink:href="#m6989c52de0" x="494.83391" y="316.48" style="stroke: #000000; stroke-width: 0.8"/>
      </g>
     </g>
     <g id="text_19">
      <!-- 2005 -->
      <g transform="translate(482.599847 331.353594) scale(0.11 -0.11)">
       <use xlink:href="#ArialMT-32"/>
       <use xlink:href="#ArialMT-30" transform="translate(55.615234 0)"/>
       <use xlink:href="#ArialMT-30" transform="translate(111.230469 0)"/>
       <use xlink:href="#ArialMT-35" transform="translate(166.845703 0)"/>
      </g>
     </g>
    </g>
    <g id="xtick_9">
     <g id="line2d_19">
      <g>
       <use xlink:href="#m6989c52de0" x="557.323455" y="316.48" style="stroke: #000000; stroke-width: 0.8"/>
      </g>
     </g>
     <g id="text_20">
      <!-- 2010 -->
      <g transform="translate(545.089392 331.353594) scale(0.11 -0.11)">
       <use xlink:href="#ArialMT-32"/>
       <use xlink:href="#ArialMT-30" transform="translate(55.615234 0)"/>
       <use xlink:href="#ArialMT-31" transform="translate(111.230469 0)"/>
       <use xlink:href="#ArialMT-30" transform="translate(166.845703 0)"/>
      </g>
     </g>
    </g>
    <g id="xtick_10">
     <g id="line2d_20">
      <g>
       <use xlink:href="#m6989c52de0" x="619.812999" y="316.48" style="stroke: #000000; stroke-width: 0.8"/>
      </g>
     </g>
     <g id="text_21">
      <!-- 2015 -->
      <g transform="translate(607.578937 331.353594) scale(0.11 -0.11)">
       <use xlink:href="#ArialMT-32"/>
       <use xlink:href="#ArialMT-30" transform="translate(55.615234 0)"/>
       <use xlink:href="#ArialMT-31" transform="translate(111.230469 0)"/>
       <use xlink:href="#ArialMT-35" transform="translate(166.845703 0)"/>
      </g>
     </g>
    </g>
    <g id="xtick_11">
     <g id="line2d_21">
      <g>
       <use xlink:href="#m6989c52de0" x="682.302544" y="316.48" style="stroke: #000000; stroke-width: 0.8"/>
      </g>
     </g>
     <g id="text_22">
      <!-- 2020 -->
      <g transform="translate(670.068481 331.353594) scale(0.11 -0.11)">
       <use xlink:href="#ArialMT-32"/>
       <use xlink:href="#ArialMT-30" transform="translate(55.615234 0)"/>
       <use xlink:href="#ArialMT-32" transform="translate(111.230469 0)"/>
       <use xlink:href="#ArialMT-30" transform="translate(166.845703 0)"/>
      </g>
     </g>
    </g>
    <g id="xtick_12">
     <g id="line2d_22">
      <g>
       <use xlink:href="#m6989c52de0" x="744.792089" y="316.48" style="stroke: #000000; stroke-width: 0.8"/>
      </g>
     </g>
     <g id="text_23">
      <!-- 2025 -->
      <g transform="translate(732.558026 331.353594) scale(0.11 -0.11)">
       <use xlink:href="#ArialMT-32"/>
       <use xlink:href="#ArialMT-30" transform="translate(55.615234 0)"/>
       <use xlink:href="#ArialMT-32" transform="translate(111.230469 0)"/>
       <use xlink:href="#ArialMT-35" transform="translate(166.845703 0)"/>
      </g>
     </g>
    </g>
    <g id="text_24">
     <!-- Year -->
     <g transform="translate(576.442602 346.129219) scale(0.12 -0.12)">
      <use xlink:href="#ArialMT-59"/>
      <use xlink:href="#ArialMT-65" transform="translate(57.574219 0)"/>
      <use xlink:href="#ArialMT-61" transform="translate(113.189453 0)"/>
      <use xlink:href="#ArialMT-72" transform="translate(168.804688 0)"/>
     </g>
    </g>
   </g>
   <g id="matplotlib.axis_4">
    <g id="ytick_9">
     <g id="line2d_23">
      <g>
       <use xlink:href="#m49fb9b942f" x="416.721979" y="316.48" style="stroke: #000000; stroke-width: 0.8"/>
      </g>
     </g>
     <g id="text_25">
      <!-- 0 -->
      <g transform="translate(403.604948 320.416797) scale(0.11 -0.11)">
       <use xlink:href="#ArialMT-30"/>
      </g>
     </g>
    </g>
    <g id="ytick_10">
     <g id="line2d_24">
      <g>
       <use xlink:href="#m49fb9b942f" x="416.721979" y="281.258667" style="stroke: #000000; stroke-width: 0.8"/>
      </g>
     </g>
     <g id="text_26">
      <!-- 10 -->
      <g transform="translate(397.487917 285.195464) scale(0.11 -0.11)">
       <use xlink:href="#ArialMT-31"/>
       <use xlink:href="#ArialMT-30" transform="translate(55.615234 0)"/>
      </g>
     </g>
    </g>
    <g id="ytick_11">
     <g id="line2d_25">
      <g>
       <use xlink:href="#m49fb9b942f" x="416.721979" y="246.037333" style="stroke: #000000; stroke-width: 0.8"/>
      </g>
     </g>
     <g id="text_27">
      <!-- 20 -->
      <g transform="translate(397.487917 249.97413) scale(0.11 -0.11)">
       <use xlink:href="#ArialMT-32"/>
       <use xlink:href="#ArialMT-30" transform="translate(55.615234 0)"/>
      </g>
     </g>
    </g>
    <g id="ytick_12">
     <g id="line2d_26">
      <g>
       <use xlink:href="#m49fb9b942f" x="416.721979" y="210.816" style="stroke: #000000; stroke-width: 0.8"/>
      </g>
     </g>
     <g id="text_28">
      <!-- 30 -->
      <g transform="translate(397.487917 214.752797) scale(0.11 -0.11)">
       <use xlink:href="#ArialMT-33"/>
       <use xlink:href="#ArialMT-30" transform="translate(55.615234 0)"/>
      </g>
     </g>
    </g>
    <g id="ytick_13">
     <g id="line2d_27">
      <g>
       <use xlink:href="#m49fb9b942f" x="416.721979" y="175.594667" style="stroke: #000000; stroke-width: 0.8"/>
      </g>
     </g>
     <g id="text_29">
      <!-- 40 -->
      <g transform="translate(397.487917 179.531464) scale(0.11 -0.11)">
       <use xlink:href="#ArialMT-34"/>
       <use xlink:href="#ArialMT-30" transform="translate(55.615234 0)"/>
      </g>
     </g>
    </g>
    <g id="ytick_14">
     <g id="line2d_28">
      <g>
       <use xlink:href="#m49fb9b942f" x="416.721979" y="140.373333" style="stroke: #000000; stroke-width: 0.8"/>
      </g>
     </g>
     <g id="text_30">
      <!-- 50 -->
      <g transform="translate(397.487917 144.31013) scale(0.11 -0.11)">
       <use xlink:href="#ArialMT-35"/>
       <use xlink:href="#ArialMT-30" transform="translate(55.615234 0)"/>
      </g>
     </g>
    </g>
    <g id="ytick_15">
     <g id="line2d_29">
      <g>
       <use xlink:href="#m49fb9b942f" x="416.721979" y="105.152" style="stroke: #000000; stroke-width: 0.8"/>
      </g>
     </g>
     <g id="text_31">
      <!-- 60 -->
      <g transform="translate(397.487917 109.088797) scale(0.11 -0.11)">
       <use xlink:href="#ArialMT-36"/>
       <use xlink:href="#ArialMT-30" transform="translate(55.615234 0)"/>
      </g>
     </g>
    </g>
    <g id="ytick_16">
     <g id="line2d_30">
      <g>
       <use xlink:href="#m49fb9b942f" x="416.721979" y="69.930667" style="stroke: #000000; stroke-width: 0.8"/>
      </g>
     </g>
     <g id="text_32">
      <!-- 70 -->
      <g transform="translate(397.487917 73.867464) scale(0.11 -0.11)">
       <use xlink:href="#ArialMT-37"/>
       <use xlink:href="#ArialMT-30" transform="translate(55.615234 0)"/>
      </g>
     </g>
    </g>
   </g>
   <g id="line2d_31">
    <path d="M 432.344365 128.311233 
L 444.842274 152.659845 
L 457.340183 130.854054 
L 469.838092 148.759365 
L 482.336001 140.373333 
L 494.83391 182.580716 
L 507.331819 154.309832 
L 519.829728 161.091765 
L 532.327637 130.905233 
L 544.825546 132.458427 
L 557.323455 178.657391 
L 569.821364 149.952357 
L 582.319272 170.736552 
L 594.817181 146.15594 
L 607.31509 136.380991 
L 619.812999 131.06537 
L 632.310908 135.539033 
L 644.808817 126.324007 
L 657.306726 115.899295 
L 669.804635 121.789213 
L 682.302544 127.816162 
L 694.800453 113.007581 
L 707.298362 126.144037 
L 719.796271 114.712495 
L 732.29418 119.639463 
L 744.792089 131.33423 
" clip-path="url(#p1a1cc5f68a)" style="fill: none; stroke: #059669; stroke-width: 1.5; stroke-linecap: square"/>
    <defs>
     <path id="m7fe3668c6b" d="M 0 2 
C 0.530406 2 1.03916 1.789267 1.414214 1.414214 
C 1.789267 1.03916 2 0.530406 2 0 
C 2 -0.530406 1.789267 -1.03916 1.414214 -1.414214 
C 1.03916 -1.789267 0.530406 -2 0 -2 
C -0.530406 -2 -1.03916 -1.789267 -1.414214 -1.414214 
C -1.789267 -1.03916 -2 -0.530406 -2 0 
C -2 0.530406 -1.789267 1.03916 -1.414214 1.414214 
C -1.03916 1.789267 -0.530406 2 0 2 
z
" style="stroke: #059669"/>
    </defs>
    <g clip-path="url(#p1a1cc5f68a)">
     <use xlink:href="#m7fe3668c6b" x="432.344365" y="128.311233" style="fill: #059669; stroke: #059669"/>
     <use xlink:href="#m7fe3668c6b" x="444.842274" y="152.659845" style="fill: #059669; stroke: #059669"/>
     <use xlink:href="#m7fe3668c6b" x="457.340183" y="130.854054" style="fill: #059669; stroke: #059669"/>
     <use xlink:href="#m7fe3668c6b" x="469.838092" y="148.759365" style="fill: #059669; stroke: #059669"/>
     <use xlink:href="#m7fe3668c6b" x="482.336001" y="140.373333" style="fill: #059669; stroke: #059669"/>
     <use xlink:href="#m7fe3668c6b" x="494.83391" y="182.580716" style="fill: #059669; stroke: #059669"/>
     <use xlink:href="#m7fe3668c6b" x="507.331819" y="154.309832" style="fill: #059669; stroke: #059669"/>
     <use xlink:href="#m7fe3668c6b" x="519.829728" y="161.091765" style="fill: #059669; stroke: #059669"/>
     <use xlink:href="#m7fe3668c6b" x="532.327637" y="130.905233" style="fill: #059669; stroke: #059669"/>
     <use xlink:href="#m7fe3668c6b" x="544.825546" y="132.458427" style="fill: #059669; stroke: #059669"/>
     <use xlink:href="#m7fe3668c6b" x="557.323455" y="178.657391" style="fill: #059669; stroke: #059669"/>
     <use xlink:href="#m7fe3668c6b" x="569.821364" y="149.952357" style="fill: #059669; stroke: #059669"/>
     <use xlink:href="#m7fe3668c6b" x="582.319272" y="170.736552" style="fill: #059669; stroke: #059669"/>
     <use xlink:href="#m7fe3668c6b" x="594.817181" y="146.15594" style="fill: #059669; stroke: #059669"/>
     <use xlink:href="#m7fe3668c6b" x="607.31509" y="136.380991" style="fill: #059669; stroke: #059669"/>
     <use xlink:href="#m7fe3668c6b" x="619.812999" y="131.06537" style="fill: #059669; stroke: #059669"/>
     <use xlink:href="#m7fe3668c6b" x="632.310908" y="135.539033" style="fill: #059669; stroke: #059669"/>
     <use xlink:href="#m7fe3668c6b" x="644.808817" y="126.324007" style="fill: #059669; stroke: #059669"/>
     <use xlink:href="#m7fe3668c6b" x="657.306726" y="115.899295" style="fill: #059669; stroke: #059669"/>
     <use xlink:href="#m7fe3668c6b" x="669.804635" y="121.789213" style="fill: #059669; stroke: #059669"/>
     <use xlink:href="#m7fe3668c6b" x="682.302544" y="127.816162" style="fill: #059669; stroke: #059669"/>
     <use xlink:href="#m7fe3668c6b" x="694.800453" y="113.007581" style="fill: #059669; stroke: #059669"/>
     <use xlink:href="#m7fe3668c6b" x="707.298362" y="126.144037" style="fill: #059669; stroke: #059669"/>
     <use xlink:href="#m7fe3668c6b" x="719.796271" y="114.712495" style="fill: #059669; stroke: #059669"/>
     <use xlink:href="#m7fe3668c6b" x="732.29418" y="119.639463" style="fill: #059669; stroke: #059669"/>
     <use xlink:href="#m7fe3668c6b" x="744.792089" y="131.33423" style="fill: #059669; stroke: #059669"/>
    </g>
   </g>
   <g id="line2d_32">
    <path d="M 432.344365 155.765692 
L 444.842274 154.404308 
L 457.340183 153.042923 
L 469.838092 151.681538 
L 482.336001 150.320153 
L 494.83391 148.958768 
L 507.331819 147.597383 
L 519.829728 146.235998 
L 532.327637 144.874613 
L 544.825546 143.513229 
L 557.323455 142.151844 
L 569.821364 140.790459 
L 582.319272 139.429074 
L 594.817181 138.067689 
L 607.31509 136.706304 
L 619.812999 135.344919 
L 632.310908 133.983535 
L 644.808817 132.62215 
L 657.306726 131.260765 
L 669.804635 129.89938 
L 682.302544 128.537995 
L 694.800453 127.17661 
L 707.298362 125.815225 
L 719.796271 124.45384 
L 732.29418 123.092456 
L 744.792089 121.731071 
" clip-path="url(#p1a1cc5f68a)" style="fill: none; stroke-dasharray: 5.55,2.4; stroke-dashoffset: 0; stroke: #dc2626; stroke-opacity: 0.5; stroke-width: 1.5"/>
   </g>
   <g id="patch_6">
    <path d="M 416.721979 316.48 
L 416.721979 52.32 
" style="fill: none; stroke: #000000; stroke-width: 0.8; stroke-linejoin: miter; stroke-linecap: square"/>
   </g>
   <g id="patch_7">
    <path d="M 416.721979 316.48 
L 760.414475 316.48 
" style="fill: none; stroke: #000000; stroke-width: 0.8; stroke-linejoin: miter; stroke-linecap: square"/>
   </g>
   <g id="text_33">
    <!-- Bilateral (MK: increasing, p=0.002) -->
    <g transform="translate(488.677446 46.32) scale(0.13 -0.13)">
     <defs>
      <path id="ArialMT-42" d="M 469 0 
L 469 4581 
L 2188 4581 
Q 2713 4581 3030 4442 
Q 3347 4303 3526 4014 
Q 3706 3725 3706 3409 
Q 3706 3116 3547 2856 
Q 3388 2597 3066 2438 
Q 3481 2316 3704 2022 
Q 3928 1728 3928 1328 
Q 3928 1006 3792 729 
Q 3656 453 3456 303 
Q 3256 153 2954 76 
Q 2653 0 2216 0 
L 469 0 
z
M 1075 2656 
L 2066 2656 
Q 2469 2656 2644 2709 
Q 2875 2778 2992 2937 
Q 3109 3097 3109 3338 
Q 3109 3566 3000 3739 
Q 2891 3913 2687 3977 
Q 2484 4041 1991 4041 
L 1075 4041 
L 1075 2656 
z
M 1075 541 
L 2216 541 
Q 2509 541 2628 563 
Q 2838 600 2978 687 
Q 3119 775 3209 942 
Q 3300 1109 3300 1328 
Q 3300 1584 3169 1773 
Q 3038 1963 2805 2039 
Q 2572 2116 2134 2116 
L 1075 2116 
L 1075 541 
z
" transform="scale(0.015625)"/>
      <path id="ArialMT-63" d="M 2588 1216 
L 3141 1144 
Q 3050 572 2676 248 
Q 2303 -75 1759 -75 
Q 1078 -75 664 370 
Q 250 816 250 1647 
Q 250 2184 428 2587 
Q 606 2991 970 3192 
Q 1334 3394 1763 3394 
Q 2303 3394 2647 3120 
Q 2991 2847 3088 2344 
L 2541 2259 
Q 2463 2594 2264 2762 
Q 2066 2931 1784 2931 
Q 1359 2931 1093 2626 
Q 828 2322 828 1663 
Q 828 994 1084 691 
Q 1341 388 1753 388 
Q 2084 388 2306 591 
Q 2528 794 2588 1216 
z
" transform="scale(0.015625)"/>
      <path id="ArialMT-67" d="M 319 -275 
L 866 -356 
Q 900 -609 1056 -725 
Q 1266 -881 1628 -881 
Q 2019 -881 2231 -725 
Q 2444 -569 2519 -288 
Q 2563 -116 2559 434 
Q 2191 0 1641 0 
Q 956 0 581 494 
Q 206 988 206 1678 
Q 206 2153 378 2554 
Q 550 2956 876 3175 
Q 1203 3394 1644 3394 
Q 2231 3394 2613 2919 
L 2613 3319 
L 3131 3319 
L 3131 450 
Q 3131 -325 2973 -648 
Q 2816 -972 2473 -1159 
Q 2131 -1347 1631 -1347 
Q 1038 -1347 672 -1080 
Q 306 -813 319 -275 
z
M 784 1719 
Q 784 1066 1043 766 
Q 1303 466 1694 466 
Q 2081 466 2343 764 
Q 2606 1063 2606 1700 
Q 2606 2309 2336 2618 
Q 2066 2928 1684 2928 
Q 1309 2928 1046 2623 
Q 784 2319 784 1719 
z
" transform="scale(0.015625)"/>
     </defs>
     <use xlink:href="#ArialMT-42"/>
     <use xlink:href="#ArialMT-69" transform="translate(66.699219 0)"/>
     <use xlink:href="#ArialMT-6c" transform="translate(88.916016 0)"/>
     <use xlink:href="#ArialMT-61" transform="translate(111.132812 0)"/>
     <use xlink:href="#ArialMT-74" transform="translate(166.748047 0)"/>
     <use xlink:href="#ArialMT-65" transform="translate(194.53125 0)"/>
     <use xlink:href="#ArialMT-72" transform="translate(250.146484 0)"/>
     <use xlink:href="#ArialMT-61" transform="translate(283.447266 0)"/>
     <use xlink:href="#ArialMT-6c" transform="translate(339.0625 0)"/>
     <use xlink:href="#ArialMT-20" transform="translate(361.279297 0)"/>
     <use xlink:href="#ArialMT-28" transform="translate(389.0625 0)"/>
     <use xlink:href="#ArialMT-4d" transform="translate(422.363281 0)"/>
     <use xlink:href="#ArialMT-4b" transform="translate(505.664062 0)"/>
     <use xlink:href="#ArialMT-3a" transform="translate(572.363281 0)"/>
     <use xlink:href="#ArialMT-20" transform="translate(600.146484 0)"/>
     <use xlink:href="#ArialMT-69" transform="translate(627.929688 0)"/>
     <use xlink:href="#ArialMT-6e" transform="translate(650.146484 0)"/>
     <use xlink:href="#ArialMT-63" transform="translate(705.761719 0)"/>
     <use xlink:href="#ArialMT-72" transform="translate(755.761719 0)"/>
     <use xlink:href="#ArialMT-65" transform="translate(789.0625 0)"/>
     <use xlink:href="#ArialMT-61" transform="translate(844.677734 0)"/>
     <use xlink:href="#ArialMT-73" transform="translate(900.292969 0)"/>
     <use xlink:href="#ArialMT-69" transform="translate(950.292969 0)"/>
     <use xlink:href="#ArialMT-6e" transform="translate(972.509766 0)"/>
     <use xlink:href="#ArialMT-67" transform="translate(1028.125 0)"/>
     <use xlink:href="#ArialMT-2c" transform="translate(1083.740234 0)"/>
     <use xlink:href="#ArialMT-20" transform="translate(1111.523438 0)"/>
     <use xlink:href="#ArialMT-70" transform="translate(1139.306641 0)"/>
     <use xlink:href="#ArialMT-3d" transform="translate(1194.921875 0)"/>
     <use xlink:href="#ArialMT-30" transform="translate(1253.320312 0)"/>
     <use xlink:href="#ArialMT-2e" transform="translate(1308.935547 0)"/>
     <use xlink:href="#ArialMT-30" transform="translate(1336.71875 0)"/>
     <use xlink:href="#ArialMT-30" transform="translate(1392.333984 0)"/>
     <use xlink:href="#ArialMT-32" transform="translate(1447.949219 0)"/>
     <use xlink:href="#ArialMT-29" transform="translate(1503.564453 0)"/>
    </g>
   </g>
  </g>
  <g id="axes_3">
   <g id="patch_8">
    <path d="M 791.748646 316.48 
L 1135.441141 316.48 
L 1135.441141 52.32 
L 791.748646 52.32 
z
" style="fill: #ffffff"/>
   </g>
   <g id="matplotlib.axis_5">
    <g id="xtick_13">
     <g id="line2d_33">
      <g>
       <use xlink:href="#m6989c52de0" x="807.371032" y="316.48" style="stroke: #000000; stroke-width: 0.8"/>
      </g>
     </g>
     <g id="text_34">
      <!-- 2000 -->
      <g transform="translate(795.136969 331.353594) scale(0.11 -0.11)">
       <use xlink:href="#ArialMT-32"/>
       <use xlink:href="#ArialMT-30" transform="translate(55.615234 0)"/>
       <use xlink:href="#ArialMT-30" transform="translate(111.230469 0)"/>
       <use xlink:href="#ArialMT-30" transform="translate(166.845703 0)"/>
      </g>
     </g>
    </g>
    <g id="xtick_14">
     <g id="line2d_34">
      <g>
       <use xlink:href="#m6989c52de0" x="869.860577" y="316.48" style="stroke: #000000; stroke-width: 0.8"/>
      </g>
     </g>
     <g id="text_35">
      <!-- 2005 -->
      <g transform="translate(857.626514 331.353594) scale(0.11 -0.11)">
       <use xlink:href="#ArialMT-32"/>
       <use xlink:href="#ArialMT-30" transform="translate(55.615234 0)"/>
       <use xlink:href="#ArialMT-30" transform="translate(111.230469 0)"/>
       <use xlink:href="#ArialMT-35" transform="translate(166.845703 0)"/>
      </g>
     </g>
    </g>
    <g id="xtick_15">
     <g id="line2d_35">
      <g>
       <use xlink:href="#m6989c52de0" x="932.350121" y="316.48" style="stroke: #000000; stroke-width: 0.8"/>
      </g>
     </g>
     <g id="text_36">
      <!-- 2010 -->
      <g transform="translate(920.116059 331.353594) scale(0.11 -0.11)">
       <use xlink:href="#ArialMT-32"/>
       <use xlink:href="#ArialMT-30" transform="translate(55.615234 0)"/>
       <use xlink:href="#ArialMT-31" transform="translate(111.230469 0)"/>
       <use xlink:href="#ArialMT-30" transform="translate(166.845703 0)"/>
      </g>
     </g>
    </g>
    <g id="xtick_16">
     <g id="line2d_36">
      <g>
       <use xlink:href="#m6989c52de0" x="994.839666" y="316.48" style="stroke: #000000; stroke-width: 0.8"/>
      </g>
     </g>
     <g id="text_37">
      <!-- 2015 -->
      <g transform="translate(982.605603 331.353594) scale(0.11 -0.11)">
       <use xlink:href="#ArialMT-32"/>
       <use xlink:href="#ArialMT-30" transform="translate(55.615234 0)"/>
       <use xlink:href="#ArialMT-31" transform="translate(111.230469 0)"/>
       <use xlink:href="#ArialMT-35" transform="translate(166.845703 0)"/>
      </g>
     </g>
    </g>
    <g id="xtick_17">
     <g id="line2d_37">
      <g>
       <use xlink:href="#m6989c52de0" x="1057.329211" y="316.48" style="stroke: #000000; stroke-width: 0.8"/>
      </g>
     </g>
     <g id="text_38">
      <!-- 2020 -->
      <g transform="translate(1045.095148 331.353594) scale(0.11 -0.11)">
       <use xlink:href="#ArialMT-32"/>
       <use xlink:href="#ArialMT-30" transform="translate(55.615234 0)"/>
       <use xlink:href="#ArialMT-32" transform="translate(111.230469 0)"/>
       <use xlink:href="#ArialMT-30" transform="translate(166.845703 0)"/>
      </g>
     </g>
    </g>
    <g id="xtick_18">
     <g id="line2d_38">
      <g>
       <use xlink:href="#m6989c52de0" x="1119.818755" y="316.48" style="stroke: #000000; stroke-width: 0.8"/>
      </g>
     </g>
     <g id="text_39">
      <!-- 2025 -->
      <g transform="translate(1107.584693 331.353594) scale(0.11 -0.11)">
       <use xlink:href="#ArialMT-32"/>
       <use xlink:href="#ArialMT-30" transform="translate(55.615234 0)"/>
       <use xlink:href="#ArialMT-32" transform="translate(111.230469 0)"/>
       <use xlink:href="#ArialMT-35" transform="translate(166.845703 0)"/>
      </g>
     </g>
    </g>
    <g id="text_40">
     <!-- Year -->
     <g transform="translate(951.469269 346.129219) scale(0.12 -0.12)">
      <use xlink:href="#ArialMT-59"/>
      <use xlink:href="#ArialMT-65" transform="translate(57.574219 0)"/>
      <use xlink:href="#ArialMT-61" transform="translate(113.189453 0)"/>
      <use xlink:href="#ArialMT-72" transform="translate(168.804688 0)"/>
     </g>
    </g>
   </g>
   <g id="matplotlib.axis_6">
    <g id="ytick_17">
     <g id="line2d_39">
      <g>
       <use xlink:href="#m49fb9b942f" x="791.748646" y="316.48" style="stroke: #000000; stroke-width: 0.8"/>
      </g>
     </g>
     <g id="text_41">
      <!-- 0 -->
      <g transform="translate(778.631615 320.416797) scale(0.11 -0.11)">
       <use xlink:href="#ArialMT-30"/>
      </g>
     </g>
    </g>
    <g id="ytick_18">
     <g id="line2d_40">
      <g>
       <use xlink:href="#m49fb9b942f" x="791.748646" y="281.258667" style="stroke: #000000; stroke-width: 0.8"/>
      </g>
     </g>
     <g id="text_42">
      <!-- 10 -->
      <g transform="translate(772.514583 285.195464) scale(0.11 -0.11)">
       <use xlink:href="#ArialMT-31"/>
       <use xlink:href="#ArialMT-30" transform="translate(55.615234 0)"/>
      </g>
     </g>
    </g>
    <g id="ytick_19">
     <g id="line2d_41">
      <g>
       <use xlink:href="#m49fb9b942f" x="791.748646" y="246.037333" style="stroke: #000000; stroke-width: 0.8"/>
      </g>
     </g>
     <g id="text_43">
      <!-- 20 -->
      <g transform="translate(772.514583 249.97413) scale(0.11 -0.11)">
       <use xlink:href="#ArialMT-32"/>
       <use xlink:href="#ArialMT-30" transform="translate(55.615234 0)"/>
      </g>
     </g>
    </g>
    <g id="ytick_20">
     <g id="line2d_42">
      <g>
       <use xlink:href="#m49fb9b942f" x="791.748646" y="210.816" style="stroke: #000000; stroke-width: 0.8"/>
      </g>
     </g>
     <g id="text_44">
      <!-- 30 -->
      <g transform="translate(772.514583 214.752797) scale(0.11 -0.11)">
       <use xlink:href="#ArialMT-33"/>
       <use xlink:href="#ArialMT-30" transform="translate(55.615234 0)"/>
      </g>
     </g>
    </g>
    <g id="ytick_21">
     <g id="line2d_43">
      <g>
       <use xlink:href="#m49fb9b942f" x="791.748646" y="175.594667" style="stroke: #000000; stroke-width: 0.8"/>
      </g>
     </g>
     <g id="text_45">
      <!-- 40 -->
      <g transform="translate(772.514583 179.531464) scale(0.11 -0.11)">
       <use xlink:href="#ArialMT-34"/>
       <use xlink:href="#ArialMT-30" transform="translate(55.615234 0)"/>
      </g>
     </g>
    </g>
    <g id="ytick_22">
     <g id="line2d_44">
      <g>
       <use xlink:href="#m49fb9b942f" x="791.748646" y="140.373333" style="stroke: #000000; stroke-width: 0.8"/>
      </g>
     </g>
     <g id="text_46">
      <!-- 50 -->
      <g transform="translate(772.514583 144.31013) scale(0.11 -0.11)">
       <use xlink:href="#ArialMT-35"/>
       <use xlink:href="#ArialMT-30" transform="translate(55.615234 0)"/>
      </g>
     </g>
    </g>
    <g id="ytick_23">
     <g id="line2d_45">
      <g>
       <use xlink:href="#m49fb9b942f" x="791.748646" y="105.152" style="stroke: #000000; stroke-width: 0.8"/>
      </g>
     </g>
     <g id="text_47">
      <!-- 60 -->
      <g transform="translate(772.514583 109.088797) scale(0.11 -0.11)">
       <use xlink:href="#ArialMT-36"/>
       <use xlink:href="#ArialMT-30" transform="translate(55.615234 0)"/>
      </g>
     </g>
    </g>
    <g id="ytick_24">
     <g id="line2d_46">
      <g>
       <use xlink:href="#m49fb9b942f" x="791.748646" y="69.930667" style="stroke: #000000; stroke-width: 0.8"/>
      </g>
     </g>
     <g id="text_48">
      <!-- 70 -->
      <g transform="translate(772.514583 73.867464) scale(0.11 -0.11)">
       <use xlink:href="#ArialMT-37"/>
       <use xlink:href="#ArialMT-30" transform="translate(55.615234 0)"/>
      </g>
     </g>
    </g>
   </g>
   <g id="line2d_47">
    <path d="M 807.371032 250.44 
L 819.868941 184.4 
L 832.36685 175.594667 
L 844.864759 178.657391 
L 857.362668 202.528627 
L 869.860577 236.947957 
L 882.358486 262.293333 
L 894.856394 279.010496 
L 907.354303 248.746667 
L 919.852212 280.044138 
L 932.350121 230.574309 
L 944.84803 210.816 
L 957.345939 214.994802 
L 969.843848 235.566126 
L 982.341757 198.460873 
L 994.839666 219.216067 
L 1007.337575 217.245291 
L 1019.835484 223.856424 
L 1032.333393 235.364202 
L 1044.831302 197.398349 
L 1057.329211 224.46579 
L 1069.82712 229.405037 
L 1082.325028 231.770464 
L 1094.822937 214.584221 
L 1107.320846 228.165897 
L 1119.818755 232.501292 
" clip-path="url(#p010cd0a378)" style="fill: none; stroke: #dc2626; stroke-width: 1.5; stroke-linecap: square"/>
    <defs>
     <path id="mc124b8965c" d="M 0 2 
C 0.530406 2 1.03916 1.789267 1.414214 1.414214 
C 1.789267 1.03916 2 0.530406 2 0 
C 2 -0.530406 1.789267 -1.03916 1.414214 -1.414214 
C 1.03916 -1.789267 0.530406 -2 0 -2 
C -0.530406 -2 -1.03916 -1.789267 -1.414214 -1.414214 
C -1.789267 -1.03916 -2 -0.530406 -2 0 
C -2 0.530406 -1.789267 1.03916 -1.414214 1.414214 
C -1.03916 1.789267 -0.530406 2 0 2 
z
" style="stroke: #dc2626"/>
    </defs>
    <g clip-path="url(#p010cd0a378)">
     <use xlink:href="#mc124b8965c" x="807.371032" y="250.44" style="fill: #dc2626; stroke: #dc2626"/>
     <use xlink:href="#mc124b8965c" x="819.868941" y="184.4" style="fill: #dc2626; stroke: #dc2626"/>
     <use xlink:href="#mc124b8965c" x="832.36685" y="175.594667" style="fill: #dc2626; stroke: #dc2626"/>
     <use xlink:href="#mc124b8965c" x="844.864759" y="178.657391" style="fill: #dc2626; stroke: #dc2626"/>
     <use xlink:href="#mc124b8965c" x="857.362668" y="202.528627" style="fill: #dc2626; stroke: #dc2626"/>
     <use xlink:href="#mc124b8965c" x="869.860577" y="236.947957" style="fill: #dc2626; stroke: #dc2626"/>
     <use xlink:href="#mc124b8965c" x="882.358486" y="262.293333" style="fill: #dc2626; stroke: #dc2626"/>
     <use xlink:href="#mc124b8965c" x="894.856394" y="279.010496" style="fill: #dc2626; stroke: #dc2626"/>
     <use xlink:href="#mc124b8965c" x="907.354303" y="248.746667" style="fill: #dc2626; stroke: #dc2626"/>
     <use xlink:href="#mc124b8965c" x="919.852212" y="280.044138" style="fill: #dc2626; stroke: #dc2626"/>
     <use xlink:href="#mc124b8965c" x="932.350121" y="230.574309" style="fill: #dc2626; stroke: #dc2626"/>
     <use xlink:href="#mc124b8965c" x="944.84803" y="210.816" style="fill: #dc2626; stroke: #dc2626"/>
     <use xlink:href="#mc124b8965c" x="957.345939" y="214.994802" style="fill: #dc2626; stroke: #dc2626"/>
     <use xlink:href="#mc124b8965c" x="969.843848" y="235.566126" style="fill: #dc2626; stroke: #dc2626"/>
     <use xlink:href="#mc124b8965c" x="982.341757" y="198.460873" style="fill: #dc2626; stroke: #dc2626"/>
     <use xlink:href="#mc124b8965c" x="994.839666" y="219.216067" style="fill: #dc2626; stroke: #dc2626"/>
     <use xlink:href="#mc124b8965c" x="1007.337575" y="217.245291" style="fill: #dc2626; stroke: #dc2626"/>
     <use xlink:href="#mc124b8965c" x="1019.835484" y="223.856424" style="fill: #dc2626; stroke: #dc2626"/>
     <use xlink:href="#mc124b8965c" x="1032.333393" y="235.364202" style="fill: #dc2626; stroke: #dc2626"/>
     <use xlink:href="#mc124b8965c" x="1044.831302" y="197.398349" style="fill: #dc2626; stroke: #dc2626"/>
     <use xlink:href="#mc124b8965c" x="1057.329211" y="224.46579" style="fill: #dc2626; stroke: #dc2626"/>
     <use xlink:href="#mc124b8965c" x="1069.82712" y="229.405037" style="fill: #dc2626; stroke: #dc2626"/>
     <use xlink:href="#mc124b8965c" x="1082.325028" y="231.770464" style="fill: #dc2626; stroke: #dc2626"/>
     <use xlink:href="#mc124b8965c" x="1094.822937" y="214.584221" style="fill: #dc2626; stroke: #dc2626"/>
     <use xlink:href="#mc124b8965c" x="1107.320846" y="228.165897" style="fill: #dc2626; stroke: #dc2626"/>
     <use xlink:href="#mc124b8965c" x="1119.818755" y="232.501292" style="fill: #dc2626; stroke: #dc2626"/>
    </g>
   </g>
   <g id="line2d_48">
    <path d="M 807.371032 222.189426 
L 819.868941 222.392883 
L 832.36685 222.596339 
L 844.864759 222.799796 
L 857.362668 223.003252 
L 869.860577 223.206709 
L 882.358486 223.410165 
L 894.856394 223.613621 
L 907.354303 223.817078 
L 919.852212 224.020534 
L 932.350121 224.223991 
L 944.84803 224.427447 
L 957.345939 224.630903 
L 969.843848 224.83436 
L 982.341757 225.037816 
L 994.839666 225.241273 
L 1007.337575 225.444729 
L 1019.835484 225.648185 
L 1032.333393 225.851642 
L 1044.831302 226.055098 
L 1057.329211 226.258555 
L 1069.82712 226.462011 
L 1082.325028 226.665467 
L 1094.822937 226.868924 
L 1107.320846 227.07238 
L 1119.818755 227.275837 
" clip-path="url(#p010cd0a378)" style="fill: none; stroke-dasharray: 5.55,2.4; stroke-dashoffset: 0; stroke: #dc2626; stroke-opacity: 0.5; stroke-width: 1.5"/>
   </g>
   <g id="patch_9">
    <path d="M 791.748646 316.48 
L 791.748646 52.32 
" style="fill: none; stroke: #000000; stroke-width: 0.8; stroke-linejoin: miter; stroke-linecap: square"/>
   </g>
   <g id="patch_10">
    <path d="M 791.748646 316.48 
L 1135.441141 316.48 
" style="fill: none; stroke: #000000; stroke-width: 0.8; stroke-linejoin: miter; stroke-linecap: square"/>
   </g>
   <g id="text_49">
    <!-- Multi-bloc (MK: no trend, p=0.791) -->
    <g transform="translate(865.152394 46.32) scale(0.13 -0.13)">
     <defs>
      <path id="ArialMT-2d" d="M 203 1375 
L 203 1941 
L 1931 1941 
L 1931 1375 
L 203 1375 
z
" transform="scale(0.015625)"/>
      <path id="ArialMT-62" d="M 941 0 
L 419 0 
L 419 4581 
L 981 4581 
L 981 2947 
Q 1338 3394 1891 3394 
Q 2197 3394 2470 3270 
Q 2744 3147 2920 2923 
Q 3097 2700 3197 2384 
Q 3297 2069 3297 1709 
Q 3297 856 2875 390 
Q 2453 -75 1863 -75 
Q 1275 -75 941 416 
L 941 0 
z
M 934 1684 
Q 934 1088 1097 822 
Q 1363 388 1816 388 
Q 2184 388 2453 708 
Q 2722 1028 2722 1663 
Q 2722 2313 2464 2622 
Q 2206 2931 1841 2931 
Q 1472 2931 1203 2611 
Q 934 2291 934 1684 
z
" transform="scale(0.015625)"/>
      <path id="ArialMT-39" d="M 350 1059 
L 891 1109 
Q 959 728 1153 556 
Q 1347 384 1650 384 
Q 1909 384 2104 503 
Q 2300 622 2425 820 
Q 2550 1019 2634 1356 
Q 2719 1694 2719 2044 
Q 2719 2081 2716 2156 
Q 2547 1888 2255 1720 
Q 1963 1553 1622 1553 
Q 1053 1553 659 1965 
Q 266 2378 266 3053 
Q 266 3750 677 4175 
Q 1088 4600 1706 4600 
Q 2153 4600 2523 4359 
Q 2894 4119 3086 3673 
Q 3278 3228 3278 2384 
Q 3278 1506 3087 986 
Q 2897 466 2520 194 
Q 2144 -78 1638 -78 
Q 1100 -78 759 220 
Q 419 519 350 1059 
z
M 2653 3081 
Q 2653 3566 2395 3850 
Q 2138 4134 1775 4134 
Q 1400 4134 1122 3828 
Q 844 3522 844 3034 
Q 844 2597 1108 2323 
Q 1372 2050 1759 2050 
Q 2150 2050 2401 2323 
Q 2653 2597 2653 3081 
z
" transform="scale(0.015625)"/>
     </defs>
     <use xlink:href="#ArialMT-4d"/>
     <use xlink:href="#ArialMT-75" transform="translate(83.300781 0)"/>
     <use xlink:href="#ArialMT-6c" transform="translate(138.916016 0)"/>
     <use xlink:href="#ArialMT-74" transform="translate(161.132812 0)"/>
     <use xlink:href="#ArialMT-69" transform="translate(188.916016 0)"/>
     <use xlink:href="#ArialMT-2d" transform="translate(211.132812 0)"/>
     <use xlink:href="#ArialMT-62" transform="translate(244.433594 0)"/>
     <use xlink:href="#ArialMT-6c" transform="translate(300.048828 0)"/>
     <use xlink:href="#ArialMT-6f" transform="translate(322.265625 0)"/>
     <use xlink:href="#ArialMT-63" transform="translate(377.880859 0)"/>
     <use xlink:href="#ArialMT-20" transform="translate(427.880859 0)"/>
     <use xlink:href="#ArialMT-28" transform="translate(455.664062 0)"/>
     <use xlink:href="#ArialMT-4d" transform="translate(488.964844 0)"/>
     <use xlink:href="#ArialMT-4b" transform="translate(572.265625 0)"/>
     <use xlink:href="#ArialMT-3a" transform="translate(638.964844 0)"/>
     <use xlink:href="#ArialMT-20" transform="translate(666.748047 0)"/>
     <use xlink:href="#ArialMT-6e" transform="translate(694.53125 0)"/>
     <use xlink:href="#ArialMT-6f" transform="translate(750.146484 0)"/>
     <use xlink:href="#ArialMT-20" transform="translate(805.761719 0)"/>
     <use xlink:href="#ArialMT-74" transform="translate(833.544922 0)"/>
     <use xlink:href="#ArialMT-72" transform="translate(861.328125 0)"/>
     <use xlink:href="#ArialMT-65" transform="translate(894.628906 0)"/>
     <use xlink:href="#ArialMT-6e" transform="translate(950.244141 0)"/>
     <use xlink:href="#ArialMT-64" transform="translate(1005.859375 0)"/>
     <use xlink:href="#ArialMT-2c" transform="translate(1061.474609 0)"/>
     <use xlink:href="#ArialMT-20" transform="translate(1089.257812 0)"/>
     <use xlink:href="#ArialMT-70" transform="translate(1117.041016 0)"/>
     <use xlink:href="#ArialMT-3d" transform="translate(1172.65625 0)"/>
     <use xlink:href="#ArialMT-30" transform="translate(1231.054688 0)"/>
     <use xlink:href="#ArialMT-2e" transform="translate(1286.669922 0)"/>
     <use xlink:href="#ArialMT-37" transform="translate(1314.453125 0)"/>
     <use xlink:href="#ArialMT-39" transform="translate(1370.068359 0)"/>
     <use xlink:href="#ArialMT-31" transform="translate(1425.683594 0)"/>
     <use xlink:href="#ArialMT-29" transform="translate(1481.298828 0)"/>
    </g>
   </g>
  </g>
  <g id="text_50">
   <!-- Temporal Trends in GH/Dual First Authorship -->
   <g transform="translate(421.8075 17.391562) scale(0.14 -0.14)">
    <defs>
     <path id="Arial-BoldMT-54" d="M 1497 0 
L 1497 3806 
L 138 3806 
L 138 4581 
L 3778 4581 
L 3778 3806 
L 2422 3806 
L 2422 0 
L 1497 0 
z
" transform="scale(0.015625)"/>
     <path id="Arial-BoldMT-65" d="M 2381 1056 
L 3256 909 
Q 3088 428 2723 176 
Q 2359 -75 1813 -75 
Q 947 -75 531 491 
Q 203 944 203 1634 
Q 203 2459 634 2926 
Q 1066 3394 1725 3394 
Q 2466 3394 2894 2905 
Q 3322 2416 3303 1406 
L 1103 1406 
Q 1113 1016 1316 798 
Q 1519 581 1822 581 
Q 2028 581 2168 693 
Q 2309 806 2381 1056 
z
M 2431 1944 
Q 2422 2325 2234 2523 
Q 2047 2722 1778 2722 
Q 1491 2722 1303 2513 
Q 1116 2303 1119 1944 
L 2431 1944 
z
" transform="scale(0.015625)"/>
     <path id="Arial-BoldMT-6d" d="M 394 3319 
L 1203 3319 
L 1203 2866 
Q 1638 3394 2238 3394 
Q 2556 3394 2790 3262 
Q 3025 3131 3175 2866 
Q 3394 3131 3647 3262 
Q 3900 3394 4188 3394 
Q 4553 3394 4806 3245 
Q 5059 3097 5184 2809 
Q 5275 2597 5275 2122 
L 5275 0 
L 4397 0 
L 4397 1897 
Q 4397 2391 4306 2534 
Q 4184 2722 3931 2722 
Q 3747 2722 3584 2609 
Q 3422 2497 3350 2280 
Q 3278 2063 3278 1594 
L 3278 0 
L 2400 0 
L 2400 1819 
Q 2400 2303 2353 2443 
Q 2306 2584 2207 2653 
Q 2109 2722 1941 2722 
Q 1738 2722 1575 2612 
Q 1413 2503 1342 2297 
Q 1272 2091 1272 1613 
L 1272 0 
L 394 0 
L 394 3319 
z
" transform="scale(0.015625)"/>
     <path id="Arial-BoldMT-70" d="M 434 3319 
L 1253 3319 
L 1253 2831 
Q 1413 3081 1684 3237 
Q 1956 3394 2288 3394 
Q 2866 3394 3269 2941 
Q 3672 2488 3672 1678 
Q 3672 847 3265 386 
Q 2859 -75 2281 -75 
Q 2006 -75 1782 34 
Q 1559 144 1313 409 
L 1313 -1263 
L 434 -1263 
L 434 3319 
z
M 1303 1716 
Q 1303 1156 1525 889 
Q 1747 622 2066 622 
Q 2372 622 2575 867 
Q 2778 1113 2778 1672 
Q 2778 2194 2568 2447 
Q 2359 2700 2050 2700 
Q 1728 2700 1515 2451 
Q 1303 2203 1303 1716 
z
" transform="scale(0.015625)"/>
     <path id="Arial-BoldMT-6f" d="M 256 1706 
Q 256 2144 472 2553 
Q 688 2963 1083 3178 
Q 1478 3394 1966 3394 
Q 2719 3394 3200 2905 
Q 3681 2416 3681 1669 
Q 3681 916 3195 420 
Q 2709 -75 1972 -75 
Q 1516 -75 1102 131 
Q 688 338 472 736 
Q 256 1134 256 1706 
z
M 1156 1659 
Q 1156 1166 1390 903 
Q 1625 641 1969 641 
Q 2313 641 2545 903 
Q 2778 1166 2778 1666 
Q 2778 2153 2545 2415 
Q 2313 2678 1969 2678 
Q 1625 2678 1390 2415 
Q 1156 2153 1156 1659 
z
" transform="scale(0.015625)"/>
     <path id="Arial-BoldMT-72" d="M 1300 0 
L 422 0 
L 422 3319 
L 1238 3319 
L 1238 2847 
Q 1447 3181 1614 3287 
Q 1781 3394 1994 3394 
Q 2294 3394 2572 3228 
L 2300 2463 
Q 2078 2606 1888 2606 
Q 1703 2606 1575 2504 
Q 1447 2403 1373 2137 
Q 1300 1872 1300 1025 
L 1300 0 
z
" transform="scale(0.015625)"/>
     <path id="Arial-BoldMT-61" d="M 1116 2306 
L 319 2450 
Q 453 2931 781 3162 
Q 1109 3394 1756 3394 
Q 2344 3394 2631 3255 
Q 2919 3116 3036 2902 
Q 3153 2688 3153 2116 
L 3144 1091 
Q 3144 653 3186 445 
Q 3228 238 3344 0 
L 2475 0 
Q 2441 88 2391 259 
Q 2369 338 2359 363 
Q 2134 144 1878 34 
Q 1622 -75 1331 -75 
Q 819 -75 523 203 
Q 228 481 228 906 
Q 228 1188 362 1408 
Q 497 1628 739 1745 
Q 981 1863 1438 1950 
Q 2053 2066 2291 2166 
L 2291 2253 
Q 2291 2506 2166 2614 
Q 2041 2722 1694 2722 
Q 1459 2722 1328 2630 
Q 1197 2538 1116 2306 
z
M 2291 1594 
Q 2122 1538 1756 1459 
Q 1391 1381 1278 1306 
Q 1106 1184 1106 997 
Q 1106 813 1243 678 
Q 1381 544 1594 544 
Q 1831 544 2047 700 
Q 2206 819 2256 991 
Q 2291 1103 2291 1419 
L 2291 1594 
z
" transform="scale(0.015625)"/>
     <path id="Arial-BoldMT-6c" d="M 459 0 
L 459 4581 
L 1338 4581 
L 1338 0 
L 459 0 
z
" transform="scale(0.015625)"/>
     <path id="Arial-BoldMT-20" transform="scale(0.015625)"/>
     <path id="Arial-BoldMT-6e" d="M 3478 0 
L 2600 0 
L 2600 1694 
Q 2600 2231 2544 2389 
Q 2488 2547 2361 2634 
Q 2234 2722 2056 2722 
Q 1828 2722 1647 2597 
Q 1466 2472 1398 2265 
Q 1331 2059 1331 1503 
L 1331 0 
L 453 0 
L 453 3319 
L 1269 3319 
L 1269 2831 
Q 1703 3394 2363 3394 
Q 2653 3394 2893 3289 
Q 3134 3184 3257 3021 
Q 3381 2859 3429 2653 
Q 3478 2447 3478 2063 
L 3478 0 
z
" transform="scale(0.015625)"/>
     <path id="Arial-BoldMT-64" d="M 3503 0 
L 2688 0 
L 2688 488 
Q 2484 203 2207 64 
Q 1931 -75 1650 -75 
Q 1078 -75 670 386 
Q 263 847 263 1672 
Q 263 2516 659 2955 
Q 1056 3394 1663 3394 
Q 2219 3394 2625 2931 
L 2625 4581 
L 3503 4581 
L 3503 0 
z
M 1159 1731 
Q 1159 1200 1306 963 
Q 1519 619 1900 619 
Q 2203 619 2415 876 
Q 2628 1134 2628 1647 
Q 2628 2219 2422 2470 
Q 2216 2722 1894 2722 
Q 1581 2722 1370 2473 
Q 1159 2225 1159 1731 
z
" transform="scale(0.015625)"/>
     <path id="Arial-BoldMT-73" d="M 150 947 
L 1031 1081 
Q 1088 825 1259 692 
Q 1431 559 1741 559 
Q 2081 559 2253 684 
Q 2369 772 2369 919 
Q 2369 1019 2306 1084 
Q 2241 1147 2013 1200 
Q 950 1434 666 1628 
Q 272 1897 272 2375 
Q 272 2806 612 3100 
Q 953 3394 1669 3394 
Q 2350 3394 2681 3172 
Q 3013 2950 3138 2516 
L 2309 2363 
Q 2256 2556 2107 2659 
Q 1959 2763 1684 2763 
Q 1338 2763 1188 2666 
Q 1088 2597 1088 2488 
Q 1088 2394 1175 2328 
Q 1294 2241 1995 2081 
Q 2697 1922 2975 1691 
Q 3250 1456 3250 1038 
Q 3250 581 2869 253 
Q 2488 -75 1741 -75 
Q 1063 -75 667 200 
Q 272 475 150 947 
z
" transform="scale(0.015625)"/>
     <path id="Arial-BoldMT-69" d="M 459 3769 
L 459 4581 
L 1338 4581 
L 1338 3769 
L 459 3769 
z
M 459 0 
L 459 3319 
L 1338 3319 
L 1338 0 
L 459 0 
z
" transform="scale(0.015625)"/>
     <path id="Arial-BoldMT-47" d="M 2597 1684 
L 2597 2456 
L 4591 2456 
L 4591 631 
Q 4300 350 3748 136 
Q 3197 -78 2631 -78 
Q 1913 -78 1378 223 
Q 844 525 575 1086 
Q 306 1647 306 2306 
Q 306 3022 606 3578 
Q 906 4134 1484 4431 
Q 1925 4659 2581 4659 
Q 3434 4659 3914 4301 
Q 4394 3944 4531 3313 
L 3613 3141 
Q 3516 3478 3248 3673 
Q 2981 3869 2581 3869 
Q 1975 3869 1617 3484 
Q 1259 3100 1259 2344 
Q 1259 1528 1621 1120 
Q 1984 713 2572 713 
Q 2863 713 3155 827 
Q 3447 941 3656 1103 
L 3656 1684 
L 2597 1684 
z
" transform="scale(0.015625)"/>
     <path id="Arial-BoldMT-48" d="M 469 0 
L 469 4581 
L 1394 4581 
L 1394 2778 
L 3206 2778 
L 3206 4581 
L 4131 4581 
L 4131 0 
L 3206 0 
L 3206 2003 
L 1394 2003 
L 1394 0 
L 469 0 
z
" transform="scale(0.015625)"/>
     <path id="Arial-BoldMT-2f" d="M -9 -78 
L 1125 4659 
L 1784 4659 
L 638 -78 
L -9 -78 
z
" transform="scale(0.015625)"/>
     <path id="Arial-BoldMT-44" d="M 463 4581 
L 2153 4581 
Q 2725 4581 3025 4494 
Q 3428 4375 3715 4072 
Q 4003 3769 4153 3330 
Q 4303 2891 4303 2247 
Q 4303 1681 4163 1272 
Q 3991 772 3672 463 
Q 3431 228 3022 97 
Q 2716 0 2203 0 
L 463 0 
L 463 4581 
z
M 1388 3806 
L 1388 772 
L 2078 772 
Q 2466 772 2638 816 
Q 2863 872 3011 1006 
Q 3159 1141 3253 1448 
Q 3347 1756 3347 2288 
Q 3347 2819 3253 3103 
Q 3159 3388 2990 3547 
Q 2822 3706 2563 3763 
Q 2369 3806 1803 3806 
L 1388 3806 
z
" transform="scale(0.015625)"/>
     <path id="Arial-BoldMT-75" d="M 2644 0 
L 2644 497 
Q 2463 231 2167 78 
Q 1872 -75 1544 -75 
Q 1209 -75 943 72 
Q 678 219 559 484 
Q 441 750 441 1219 
L 441 3319 
L 1319 3319 
L 1319 1794 
Q 1319 1094 1367 936 
Q 1416 778 1544 686 
Q 1672 594 1869 594 
Q 2094 594 2272 717 
Q 2450 841 2515 1023 
Q 2581 1206 2581 1919 
L 2581 3319 
L 3459 3319 
L 3459 0 
L 2644 0 
z
" transform="scale(0.015625)"/>
     <path id="Arial-BoldMT-46" d="M 472 0 
L 472 4581 
L 3613 4581 
L 3613 3806 
L 1397 3806 
L 1397 2722 
L 3309 2722 
L 3309 1947 
L 1397 1947 
L 1397 0 
L 472 0 
z
" transform="scale(0.015625)"/>
     <path id="Arial-BoldMT-74" d="M 1981 3319 
L 1981 2619 
L 1381 2619 
L 1381 1281 
Q 1381 875 1398 808 
Q 1416 741 1477 697 
Q 1538 653 1625 653 
Q 1747 653 1978 738 
L 2053 56 
Q 1747 -75 1359 -75 
Q 1122 -75 931 4 
Q 741 84 652 211 
Q 563 338 528 553 
Q 500 706 500 1172 
L 500 2619 
L 97 2619 
L 97 3319 
L 500 3319 
L 500 3978 
L 1381 4491 
L 1381 3319 
L 1981 3319 
z
" transform="scale(0.015625)"/>
     <path id="Arial-BoldMT-41" d="M 4597 0 
L 3591 0 
L 3191 1041 
L 1359 1041 
L 981 0 
L 0 0 
L 1784 4581 
L 2763 4581 
L 4597 0 
z
M 2894 1813 
L 2263 3513 
L 1644 1813 
L 2894 1813 
z
" transform="scale(0.015625)"/>
     <path id="Arial-BoldMT-68" d="M 1334 4581 
L 1334 2897 
Q 1759 3394 2350 3394 
Q 2653 3394 2897 3281 
Q 3141 3169 3264 2994 
Q 3388 2819 3433 2606 
Q 3478 2394 3478 1947 
L 3478 0 
L 2600 0 
L 2600 1753 
Q 2600 2275 2550 2415 
Q 2500 2556 2373 2639 
Q 2247 2722 2056 2722 
Q 1838 2722 1666 2615 
Q 1494 2509 1414 2295 
Q 1334 2081 1334 1663 
L 1334 0 
L 456 0 
L 456 4581 
L 1334 4581 
z
" transform="scale(0.015625)"/>
    </defs>
    <use xlink:href="#Arial-BoldMT-54"/>
    <use xlink:href="#Arial-BoldMT-65" transform="translate(53.708984 0)"/>
    <use xlink:href="#Arial-BoldMT-6d" transform="translate(109.324219 0)"/>
    <use xlink:href="#Arial-BoldMT-70" transform="translate(198.240234 0)"/>
    <use xlink:href="#Arial-BoldMT-6f" transform="translate(259.324219 0)"/>
    <use xlink:href="#Arial-BoldMT-72" transform="translate(320.408203 0)"/>
    <use xlink:href="#Arial-BoldMT-61" transform="translate(359.324219 0)"/>
    <use xlink:href="#Arial-BoldMT-6c" transform="translate(414.939453 0)"/>
    <use xlink:href="#Arial-BoldMT-20" transform="translate(442.722656 0)"/>
    <use xlink:href="#Arial-BoldMT-54" transform="translate(470.505859 0)"/>
    <use xlink:href="#Arial-BoldMT-72" transform="translate(526.089844 0)"/>
    <use xlink:href="#Arial-BoldMT-65" transform="translate(565.005859 0)"/>
    <use xlink:href="#Arial-BoldMT-6e" transform="translate(620.621094 0)"/>
    <use xlink:href="#Arial-BoldMT-64" transform="translate(681.705078 0)"/>
    <use xlink:href="#Arial-BoldMT-73" transform="translate(742.789062 0)"/>
    <use xlink:href="#Arial-BoldMT-20" transform="translate(798.404297 0)"/>
    <use xlink:href="#Arial-BoldMT-69" transform="translate(826.1875 0)"/>
    <use xlink:href="#Arial-BoldMT-6e" transform="translate(853.970703 0)"/>
    <use xlink:href="#Arial-BoldMT-20" transform="translate(915.054688 0)"/>
    <use xlink:href="#Arial-BoldMT-47" transform="translate(942.837891 0)"/>
    <use xlink:href="#Arial-BoldMT-48" transform="translate(1020.621094 0)"/>
    <use xlink:href="#Arial-BoldMT-2f" transform="translate(1092.837891 0)"/>
    <use xlink:href="#Arial-BoldMT-44" transform="translate(1120.621094 0)"/>
    <use xlink:href="#Arial-BoldMT-75" transform="translate(1192.837891 0)"/>
    <use xlink:href="#Arial-BoldMT-61" transform="translate(1253.921875 0)"/>
    <use xlink:href="#Arial-BoldMT-6c" transform="translate(1309.537109 0)"/>
    <use xlink:href="#Arial-BoldMT-20" transform="translate(1337.320312 0)"/>
    <use xlink:href="#Arial-BoldMT-46" transform="translate(1365.103516 0)"/>
    <use xlink:href="#Arial-BoldMT-69" transform="translate(1426.1875 0)"/>
    <use xlink:href="#Arial-BoldMT-72" transform="translate(1453.970703 0)"/>
    <use xlink:href="#Arial-BoldMT-73" transform="translate(1492.886719 0)"/>
    <use xlink:href="#Arial-BoldMT-74" transform="translate(1548.501953 0)"/>
    <use xlink:href="#Arial-BoldMT-20" transform="translate(1581.802734 0)"/>
    <use xlink:href="#Arial-BoldMT-41" transform="translate(1605.835938 0)"/>
    <use xlink:href="#Arial-BoldMT-75" transform="translate(1678.052734 0)"/>
    <use xlink:href="#Arial-BoldMT-74" transform="translate(1739.136719 0)"/>
    <use xlink:href="#Arial-BoldMT-68" transform="translate(1772.4375 0)"/>
    <use xlink:href="#Arial-BoldMT-6f" transform="translate(1833.521484 0)"/>
    <use xlink:href="#Arial-BoldMT-72" transform="translate(1894.605469 0)"/>
    <use xlink:href="#Arial-BoldMT-73" transform="translate(1933.521484 0)"/>
    <use xlink:href="#Arial-BoldMT-68" transform="translate(1989.136719 0)"/>
    <use xlink:href="#Arial-BoldMT-69" transform="translate(2050.220703 0)"/>
    <use xlink:href="#Arial-BoldMT-70" transform="translate(2078.003906 0)"/>
   </g>
  </g>
 </g>
 <defs>
  <clipPath id="p49fc311fa8">
   <rect x="41.695313" y="52.32" width="343.692496" height="264.16"/>
  </clipPath>
  <clipPath id="p1a1cc5f68a">
   <rect x="416.721979" y="52.32" width="343.692496" height="264.16"/>
  </clipPath>
  <clipPath id="p010cd0a378">
   <rect x="791.748646" y="52.32" width="343.692496" height="264.16"/>
  </clipPath>
 </defs>
</svg>
