<?xml version="1.0" encoding="utf-8" standalone="no"?>
<!DOCTYPE svg PUBLIC "-//W3C//DTD SVG 1.1//EN"
  "http://www.w3.org/Graphics/SVG/1.1/DTD/svg11.dtd">
<svg xmlns:xlink="http://www.w3.org/1999/xlink" width="569.495625pt" height="352.351687pt" viewBox="0 0 569.495625 352.351687" xmlns="http://www.w3.org/2000/svg" version="1.1">
 <metadata>
  <rdf:RDF xmlns:dc="http://purl.org/dc/elements/1.1/" xmlns:cc="http://creativecommons.org/ns#" xmlns:rdf="http://www.w3.org/1999/02/22-rdf-syntax-ns#">
   <cc:Work>
    <dc:type rdf:resource="http://purl.org/dc/dcmitype/StillImage"/>
    <dc:date>2026-04-09T22:54:50.912762</dc:date>
    <dc:format>image/svg+xml</dc:format>
    <dc:creator>
     <cc:Agent>
      <dc:title>Matplotlib v3.10.8, https://matplotlib.org/</dc:title>
     </cc:Agent>
    </dc:creator>
   </cc:Work>
  </rdf:RDF>
 </metadata>
 <defs>
  <style type="text/css">*{stroke-linejoin: round; stroke-linecap: butt}</style>
 </defs>
 <g id="figure_1">
  <g id="patch_1">
   <path d="M 0 352.351687 
L 569.495625 352.351687 
L 569.495625 0 
L 0 0 
z
" style="fill: #ffffff"/>
  </g>
  <g id="axes_1">
   <g id="patch_2">
    <path d="M 46.144063 314.032 
L 523.351562 314.032 
L 523.351562 38.568 
L 46.144063 38.568 
z
" style="fill: #ffffff"/>
   </g>
   <g id="matplotlib.axis_1">
    <g id="xtick_1">
     <g id="line2d_1">
      <defs>
       <path id="md4eb9307f6" d="M 0 0 
L 0 3.5 
" style="stroke: #000000; stroke-width: 0.8"/>
      </defs>
      <g>
       <use xlink:href="#md4eb9307f6" x="74.561281" y="314.032" style="stroke: #000000; stroke-width: 0.8"/>
      </g>
     </g>
     <g id="text_1">
      <!-- 2000 -->
      <g transform="translate(63.439406 328.189812) scale(0.1 -0.1)">
       <defs>
        <path id="ArialMT-32" d="M 3222 541 
L 3222 0 
L 194 0 
Q 188 203 259 391 
Q 375 700 629 1000 
Q 884 1300 1366 1694 
Q 2113 2306 2375 2664 
Q 2638 3022 2638 3341 
Q 2638 3675 2398 3904 
Q 2159 4134 1775 4134 
Q 1369 4134 1125 3890 
Q 881 3647 878 3216 
L 300 3275 
Q 359 3922 746 4261 
Q 1134 4600 1788 4600 
Q 2447 4600 2831 4234 
Q 3216 3869 3216 3328 
Q 3216 3053 3103 2787 
Q 2991 2522 2730 2228 
Q 2469 1934 1863 1422 
Q 1356 997 1212 845 
Q 1069 694 975 541 
L 3222 541 
z
" transform="scale(0.015625)"/>
        <path id="ArialMT-30" d="M 266 2259 
Q 266 3072 433 3567 
Q 600 4063 929 4331 
Q 1259 4600 1759 4600 
Q 2128 4600 2406 4451 
Q 2684 4303 2865 4023 
Q 3047 3744 3150 3342 
Q 3253 2941 3253 2259 
Q 3253 1453 3087 958 
Q 2922 463 2592 192 
Q 2263 -78 1759 -78 
Q 1097 -78 719 397 
Q 266 969 266 2259 
z
M 844 2259 
Q 844 1131 1108 757 
Q 1372 384 1759 384 
Q 2147 384 2411 759 
Q 2675 1134 2675 2259 
Q 2675 3391 2411 3762 
Q 2147 4134 1753 4134 
Q 1366 4134 1134 3806 
Q 844 3388 844 2259 
z
" transform="scale(0.015625)"/>
       </defs>
       <use xlink:href="#ArialMT-32"/>
       <use xlink:href="#ArialMT-30" transform="translate(55.615234 0)"/>
       <use xlink:href="#ArialMT-30" transform="translate(111.230469 0)"/>
       <use xlink:href="#ArialMT-30" transform="translate(166.845703 0)"/>
      </g>
     </g>
    </g>
    <g id="xtick_2">
     <g id="line2d_2">
      <g>
       <use xlink:href="#md4eb9307f6" x="158.635894" y="314.032" style="stroke: #000000; stroke-width: 0.8"/>
      </g>
     </g>
     <g id="text_2">
      <!-- 2005 -->
      <g transform="translate(147.514019 328.189812) scale(0.1 -0.1)">
       <defs>
        <path id="ArialMT-35" d="M 266 1200 
L 856 1250 
Q 922 819 1161 601 
Q 1400 384 1738 384 
Q 2144 384 2425 690 
Q 2706 997 2706 1503 
Q 2706 1984 2436 2262 
Q 2166 2541 1728 2541 
Q 1456 2541 1237 2417 
Q 1019 2294 894 2097 
L 366 2166 
L 809 4519 
L 3088 4519 
L 3088 3981 
L 1259 3981 
L 1013 2750 
Q 1425 3038 1878 3038 
Q 2478 3038 2890 2622 
Q 3303 2206 3303 1553 
Q 3303 931 2941 478 
Q 2500 -78 1738 -78 
Q 1113 -78 717 272 
Q 322 622 266 1200 
z
" transform="scale(0.015625)"/>
       </defs>
       <use xlink:href="#ArialMT-32"/>
       <use xlink:href="#ArialMT-30" transform="translate(55.615234 0)"/>
       <use xlink:href="#ArialMT-30" transform="translate(111.230469 0)"/>
       <use xlink:href="#ArialMT-35" transform="translate(166.845703 0)"/>
      </g>
     </g>
    </g>
    <g id="xtick_3">
     <g id="line2d_3">
      <g>
       <use xlink:href="#md4eb9307f6" x="242.710506" y="314.032" style="stroke: #000000; stroke-width: 0.8"/>
      </g>
     </g>
     <g id="text_3">
      <!-- 2010 -->
      <g transform="translate(231.588631 328.189812) scale(0.1 -0.1)">
       <defs>
        <path id="ArialMT-31" d="M 2384 0 
L 1822 0 
L 1822 3584 
Q 1619 3391 1289 3197 
Q 959 3003 697 2906 
L 697 3450 
Q 1169 3672 1522 3987 
Q 1875 4303 2022 4600 
L 2384 4600 
L 2384 0 
z
" transform="scale(0.015625)"/>
       </defs>
       <use xlink:href="#ArialMT-32"/>
       <use xlink:href="#ArialMT-30" transform="translate(55.615234 0)"/>
       <use xlink:href="#ArialMT-31" transform="translate(111.230469 0)"/>
       <use xlink:href="#ArialMT-30" transform="translate(166.845703 0)"/>
      </g>
     </g>
    </g>
    <g id="xtick_4">
     <g id="line2d_4">
      <g>
       <use xlink:href="#md4eb9307f6" x="326.785119" y="314.032" style="stroke: #000000; stroke-width: 0.8"/>
      </g>
     </g>
     <g id="text_4">
      <!-- 2015 -->
      <g transform="translate(315.663244 328.189812) scale(0.1 -0.1)">
       <use xlink:href="#ArialMT-32"/>
       <use xlink:href="#ArialMT-30" transform="translate(55.615234 0)"/>
       <use xlink:href="#ArialMT-31" transform="translate(111.230469 0)"/>
       <use xlink:href="#ArialMT-35" transform="translate(166.845703 0)"/>
      </g>
     </g>
    </g>
    <g id="xtick_5">
     <g id="line2d_5">
      <g>
       <use xlink:href="#md4eb9307f6" x="410.859731" y="314.032" style="stroke: #000000; stroke-width: 0.8"/>
      </g>
     </g>
     <g id="text_5">
      <!-- 2020 -->
      <g transform="translate(399.737856 328.189812) scale(0.1 -0.1)">
       <use xlink:href="#ArialMT-32"/>
       <use xlink:href="#ArialMT-30" transform="translate(55.615234 0)"/>
       <use xlink:href="#ArialMT-32" transform="translate(111.230469 0)"/>
       <use xlink:href="#ArialMT-30" transform="translate(166.845703 0)"/>
      </g>
     </g>
    </g>
    <g id="xtick_6">
     <g id="line2d_6">
      <g>
       <use xlink:href="#md4eb9307f6" x="494.934344" y="314.032" style="stroke: #000000; stroke-width: 0.8"/>
      </g>
     </g>
     <g id="text_6">
      <!-- 2025 -->
      <g transform="translate(483.812469 328.189812) scale(0.1 -0.1)">
       <use xlink:href="#ArialMT-32"/>
       <use xlink:href="#ArialMT-30" transform="translate(55.615234 0)"/>
       <use xlink:href="#ArialMT-32" transform="translate(111.230469 0)"/>
       <use xlink:href="#ArialMT-35" transform="translate(166.845703 0)"/>
      </g>
     </g>
    </g>
    <g id="text_7">
     <!-- Year -->
     <g transform="translate(272.622187 342.766687) scale(0.12 -0.12)">
      <defs>
       <path id="ArialMT-59" d="M 1784 0 
L 1784 1941 
L 19 4581 
L 756 4581 
L 1659 3200 
Q 1909 2813 2125 2425 
Q 2331 2784 2625 3234 
L 3513 4581 
L 4219 4581 
L 2391 1941 
L 2391 0 
L 1784 0 
z
" transform="scale(0.015625)"/>
       <path id="ArialMT-65" d="M 2694 1069 
L 3275 997 
Q 3138 488 2766 206 
Q 2394 -75 1816 -75 
Q 1088 -75 661 373 
Q 234 822 234 1631 
Q 234 2469 665 2931 
Q 1097 3394 1784 3394 
Q 2450 3394 2872 2941 
Q 3294 2488 3294 1666 
Q 3294 1616 3291 1516 
L 816 1516 
Q 847 969 1125 678 
Q 1403 388 1819 388 
Q 2128 388 2347 550 
Q 2566 713 2694 1069 
z
M 847 1978 
L 2700 1978 
Q 2663 2397 2488 2606 
Q 2219 2931 1791 2931 
Q 1403 2931 1139 2672 
Q 875 2413 847 1978 
z
" transform="scale(0.015625)"/>
       <path id="ArialMT-61" d="M 2588 409 
Q 2275 144 1986 34 
Q 1697 -75 1366 -75 
Q 819 -75 525 192 
Q 231 459 231 875 
Q 231 1119 342 1320 
Q 453 1522 633 1644 
Q 813 1766 1038 1828 
Q 1203 1872 1538 1913 
Q 2219 1994 2541 2106 
Q 2544 2222 2544 2253 
Q 2544 2597 2384 2738 
Q 2169 2928 1744 2928 
Q 1347 2928 1158 2789 
Q 969 2650 878 2297 
L 328 2372 
Q 403 2725 575 2942 
Q 747 3159 1072 3276 
Q 1397 3394 1825 3394 
Q 2250 3394 2515 3294 
Q 2781 3194 2906 3042 
Q 3031 2891 3081 2659 
Q 3109 2516 3109 2141 
L 3109 1391 
Q 3109 606 3145 398 
Q 3181 191 3288 0 
L 2700 0 
Q 2613 175 2588 409 
z
M 2541 1666 
Q 2234 1541 1622 1453 
Q 1275 1403 1131 1340 
Q 988 1278 909 1158 
Q 831 1038 831 891 
Q 831 666 1001 516 
Q 1172 366 1500 366 
Q 1825 366 2078 508 
Q 2331 650 2450 897 
Q 2541 1088 2541 1459 
L 2541 1666 
z
" transform="scale(0.015625)"/>
       <path id="ArialMT-72" d="M 416 0 
L 416 3319 
L 922 3319 
L 922 2816 
Q 1116 3169 1280 3281 
Q 1444 3394 1641 3394 
Q 1925 3394 2219 3213 
L 2025 2691 
Q 1819 2813 1613 2813 
Q 1428 2813 1281 2702 
Q 1134 2591 1072 2394 
Q 978 2094 978 1738 
L 978 0 
L 416 0 
z
" transform="scale(0.015625)"/>
      </defs>
      <use xlink:href="#ArialMT-59"/>
      <use xlink:href="#ArialMT-65" transform="translate(57.574219 0)"/>
      <use xlink:href="#ArialMT-61" transform="translate(113.189453 0)"/>
      <use xlink:href="#ArialMT-72" transform="translate(168.804688 0)"/>
     </g>
    </g>
   </g>
   <g id="matplotlib.axis_2">
    <g id="ytick_1">
     <g id="line2d_7">
      <path d="M 46.144063 314.032 
L 523.351562 314.032 
" clip-path="url(#p9907b7edab)" style="fill: none; stroke: #e0e0e0; stroke-width: 0.5; stroke-linecap: square"/>
     </g>
     <g id="line2d_8">
      <defs>
       <path id="m2254338ef4" d="M 0 0 
L -3.5 0 
" style="stroke: #000000; stroke-width: 0.8"/>
      </defs>
      <g>
       <use xlink:href="#m2254338ef4" x="46.144063" y="314.032" style="stroke: #000000; stroke-width: 0.8"/>
      </g>
     </g>
     <g id="text_8">
      <!-- 0 -->
      <g transform="translate(33.583125 317.610906) scale(0.1 -0.1)">
       <use xlink:href="#ArialMT-30"/>
      </g>
     </g>
    </g>
    <g id="ytick_2">
     <g id="line2d_9">
      <path d="M 46.144063 258.9392 
L 523.351562 258.9392 
" clip-path="url(#p9907b7edab)" style="fill: none; stroke: #e0e0e0; stroke-width: 0.5; stroke-linecap: square"/>
     </g>
     <g id="line2d_10">
      <g>
       <use xlink:href="#m2254338ef4" x="46.144063" y="258.9392" style="stroke: #000000; stroke-width: 0.8"/>
      </g>
     </g>
     <g id="text_9">
      <!-- 20 -->
      <g transform="translate(28.022188 262.518106) scale(0.1 -0.1)">
       <use xlink:href="#ArialMT-32"/>
       <use xlink:href="#ArialMT-30" transform="translate(55.615234 0)"/>
      </g>
     </g>
    </g>
    <g id="ytick_3">
     <g id="line2d_11">
      <path d="M 46.144063 203.8464 
L 523.351562 203.8464 
" clip-path="url(#p9907b7edab)" style="fill: none; stroke: #e0e0e0; stroke-width: 0.5; stroke-linecap: square"/>
     </g>
     <g id="line2d_12">
      <g>
       <use xlink:href="#m2254338ef4" x="46.144063" y="203.8464" style="stroke: #000000; stroke-width: 0.8"/>
      </g>
     </g>
     <g id="text_10">
      <!-- 40 -->
      <g transform="translate(28.022188 207.425306) scale(0.1 -0.1)">
       <defs>
        <path id="ArialMT-34" d="M 2069 0 
L 2069 1097 
L 81 1097 
L 81 1613 
L 2172 4581 
L 2631 4581 
L 2631 1613 
L 3250 1613 
L 3250 1097 
L 2631 1097 
L 2631 0 
L 2069 0 
z
M 2069 1613 
L 2069 3678 
L 634 1613 
L 2069 1613 
z
" transform="scale(0.015625)"/>
       </defs>
       <use xlink:href="#ArialMT-34"/>
       <use xlink:href="#ArialMT-30" transform="translate(55.615234 0)"/>
      </g>
     </g>
    </g>
    <g id="ytick_4">
     <g id="line2d_13">
      <path d="M 46.144063 148.7536 
L 523.351562 148.7536 
" clip-path="url(#p9907b7edab)" style="fill: none; stroke: #e0e0e0; stroke-width: 0.5; stroke-linecap: square"/>
     </g>
     <g id="line2d_14">
      <g>
       <use xlink:href="#m2254338ef4" x="46.144063" y="148.7536" style="stroke: #000000; stroke-width: 0.8"/>
      </g>
     </g>
     <g id="text_11">
      <!-- 60 -->
      <g transform="translate(28.022188 152.332506) scale(0.1 -0.1)">
       <defs>
        <path id="ArialMT-36" d="M 3184 3459 
L 2625 3416 
Q 2550 3747 2413 3897 
Q 2184 4138 1850 4138 
Q 1581 4138 1378 3988 
Q 1113 3794 959 3422 
Q 806 3050 800 2363 
Q 1003 2672 1297 2822 
Q 1591 2972 1913 2972 
Q 2475 2972 2870 2558 
Q 3266 2144 3266 1488 
Q 3266 1056 3080 686 
Q 2894 316 2569 119 
Q 2244 -78 1831 -78 
Q 1128 -78 684 439 
Q 241 956 241 2144 
Q 241 3472 731 4075 
Q 1159 4600 1884 4600 
Q 2425 4600 2770 4297 
Q 3116 3994 3184 3459 
z
M 888 1484 
Q 888 1194 1011 928 
Q 1134 663 1356 523 
Q 1578 384 1822 384 
Q 2178 384 2434 671 
Q 2691 959 2691 1453 
Q 2691 1928 2437 2201 
Q 2184 2475 1800 2475 
Q 1419 2475 1153 2201 
Q 888 1928 888 1484 
z
" transform="scale(0.015625)"/>
       </defs>
       <use xlink:href="#ArialMT-36"/>
       <use xlink:href="#ArialMT-30" transform="translate(55.615234 0)"/>
      </g>
     </g>
    </g>
    <g id="ytick_5">
     <g id="line2d_15">
      <path d="M 46.144063 93.6608 
L 523.351562 93.6608 
" clip-path="url(#p9907b7edab)" style="fill: none; stroke: #e0e0e0; stroke-width: 0.5; stroke-linecap: square"/>
     </g>
     <g id="line2d_16">
      <g>
       <use xlink:href="#m2254338ef4" x="46.144063" y="93.6608" style="stroke: #000000; stroke-width: 0.8"/>
      </g>
     </g>
     <g id="text_12">
      <!-- 80 -->
      <g transform="translate(28.022188 97.239706) scale(0.1 -0.1)">
       <defs>
        <path id="ArialMT-38" d="M 1131 2484 
Q 781 2613 612 2850 
Q 444 3088 444 3419 
Q 444 3919 803 4259 
Q 1163 4600 1759 4600 
Q 2359 4600 2725 4251 
Q 3091 3903 3091 3403 
Q 3091 3084 2923 2848 
Q 2756 2613 2416 2484 
Q 2838 2347 3058 2040 
Q 3278 1734 3278 1309 
Q 3278 722 2862 322 
Q 2447 -78 1769 -78 
Q 1091 -78 675 323 
Q 259 725 259 1325 
Q 259 1772 486 2073 
Q 713 2375 1131 2484 
z
M 1019 3438 
Q 1019 3113 1228 2906 
Q 1438 2700 1772 2700 
Q 2097 2700 2305 2904 
Q 2513 3109 2513 3406 
Q 2513 3716 2298 3927 
Q 2084 4138 1766 4138 
Q 1444 4138 1231 3931 
Q 1019 3725 1019 3438 
z
M 838 1322 
Q 838 1081 952 856 
Q 1066 631 1291 507 
Q 1516 384 1775 384 
Q 2178 384 2440 643 
Q 2703 903 2703 1303 
Q 2703 1709 2433 1975 
Q 2163 2241 1756 2241 
Q 1359 2241 1098 1978 
Q 838 1716 838 1322 
z
" transform="scale(0.015625)"/>
       </defs>
       <use xlink:href="#ArialMT-38"/>
       <use xlink:href="#ArialMT-30" transform="translate(55.615234 0)"/>
      </g>
     </g>
    </g>
    <g id="ytick_6">
     <g id="line2d_17">
      <path d="M 46.144063 38.568 
L 523.351562 38.568 
" clip-path="url(#p9907b7edab)" style="fill: none; stroke: #e0e0e0; stroke-width: 0.5; stroke-linecap: square"/>
     </g>
     <g id="line2d_18">
      <g>
       <use xlink:href="#m2254338ef4" x="46.144063" y="38.568" style="stroke: #000000; stroke-width: 0.8"/>
      </g>
     </g>
     <g id="text_13">
      <!-- 100 -->
      <g transform="translate(22.46125 42.146906) scale(0.1 -0.1)">
       <use xlink:href="#ArialMT-31"/>
       <use xlink:href="#ArialMT-30" transform="translate(55.615234 0)"/>
       <use xlink:href="#ArialMT-30" transform="translate(111.230469 0)"/>
      </g>
     </g>
    </g>
    <g id="text_14">
     <!-- Percentage (%) -->
     <g transform="translate(15.935625 217.984062) rotate(-90) scale(0.12 -0.12)">
      <defs>
       <path id="ArialMT-50" d="M 494 0 
L 494 4581 
L 2222 4581 
Q 2678 4581 2919 4538 
Q 3256 4481 3484 4323 
Q 3713 4166 3852 3881 
Q 3991 3597 3991 3256 
Q 3991 2672 3619 2267 
Q 3247 1863 2275 1863 
L 1100 1863 
L 1100 0 
L 494 0 
z
M 1100 2403 
L 2284 2403 
Q 2872 2403 3119 2622 
Q 3366 2841 3366 3238 
Q 3366 3525 3220 3729 
Q 3075 3934 2838 4000 
Q 2684 4041 2272 4041 
L 1100 4041 
L 1100 2403 
z
" transform="scale(0.015625)"/>
       <path id="ArialMT-63" d="M 2588 1216 
L 3141 1144 
Q 3050 572 2676 248 
Q 2303 -75 1759 -75 
Q 1078 -75 664 370 
Q 250 816 250 1647 
Q 250 2184 428 2587 
Q 606 2991 970 3192 
Q 1334 3394 1763 3394 
Q 2303 3394 2647 3120 
Q 2991 2847 3088 2344 
L 2541 2259 
Q 2463 2594 2264 2762 
Q 2066 2931 1784 2931 
Q 1359 2931 1093 2626 
Q 828 2322 828 1663 
Q 828 994 1084 691 
Q 1341 388 1753 388 
Q 2084 388 2306 591 
Q 2528 794 2588 1216 
z
" transform="scale(0.015625)"/>
       <path id="ArialMT-6e" d="M 422 0 
L 422 3319 
L 928 3319 
L 928 2847 
Q 1294 3394 1984 3394 
Q 2284 3394 2536 3286 
Q 2788 3178 2913 3003 
Q 3038 2828 3088 2588 
Q 3119 2431 3119 2041 
L 3119 0 
L 2556 0 
L 2556 2019 
Q 2556 2363 2490 2533 
Q 2425 2703 2258 2804 
Q 2091 2906 1866 2906 
Q 1506 2906 1245 2678 
Q 984 2450 984 1813 
L 984 0 
L 422 0 
z
" transform="scale(0.015625)"/>
       <path id="ArialMT-74" d="M 1650 503 
L 1731 6 
Q 1494 -44 1306 -44 
Q 1000 -44 831 53 
Q 663 150 594 308 
Q 525 466 525 972 
L 525 2881 
L 113 2881 
L 113 3319 
L 525 3319 
L 525 4141 
L 1084 4478 
L 1084 3319 
L 1650 3319 
L 1650 2881 
L 1084 2881 
L 1084 941 
Q 1084 700 1114 631 
Q 1144 563 1211 522 
Q 1278 481 1403 481 
Q 1497 481 1650 503 
z
" transform="scale(0.015625)"/>
       <path id="ArialMT-67" d="M 319 -275 
L 866 -356 
Q 900 -609 1056 -725 
Q 1266 -881 1628 -881 
Q 2019 -881 2231 -725 
Q 2444 -569 2519 -288 
Q 2563 -116 2559 434 
Q 2191 0 1641 0 
Q 956 0 581 494 
Q 206 988 206 1678 
Q 206 2153 378 2554 
Q 550 2956 876 3175 
Q 1203 3394 1644 3394 
Q 2231 3394 2613 2919 
L 2613 3319 
L 3131 3319 
L 3131 450 
Q 3131 -325 2973 -648 
Q 2816 -972 2473 -1159 
Q 2131 -1347 1631 -1347 
Q 1038 -1347 672 -1080 
Q 306 -813 319 -275 
z
M 784 1719 
Q 784 1066 1043 766 
Q 1303 466 1694 466 
Q 2081 466 2343 764 
Q 2606 1063 2606 1700 
Q 2606 2309 2336 2618 
Q 2066 2928 1684 2928 
Q 1309 2928 1046 2623 
Q 784 2319 784 1719 
z
" transform="scale(0.015625)"/>
       <path id="ArialMT-20" transform="scale(0.015625)"/>
       <path id="ArialMT-28" d="M 1497 -1347 
Q 1031 -759 709 28 
Q 388 816 388 1659 
Q 388 2403 628 3084 
Q 909 3875 1497 4659 
L 1900 4659 
Q 1522 4009 1400 3731 
Q 1209 3300 1100 2831 
Q 966 2247 966 1656 
Q 966 153 1900 -1347 
L 1497 -1347 
z
" transform="scale(0.015625)"/>
       <path id="ArialMT-25" d="M 372 3481 
Q 372 3972 619 4315 
Q 866 4659 1334 4659 
Q 1766 4659 2048 4351 
Q 2331 4044 2331 3447 
Q 2331 2866 2045 2552 
Q 1759 2238 1341 2238 
Q 925 2238 648 2547 
Q 372 2856 372 3481 
z
M 1350 4272 
Q 1141 4272 1002 4090 
Q 863 3909 863 3425 
Q 863 2984 1003 2804 
Q 1144 2625 1350 2625 
Q 1563 2625 1702 2806 
Q 1841 2988 1841 3469 
Q 1841 3913 1700 4092 
Q 1559 4272 1350 4272 
z
M 1353 -169 
L 3859 4659 
L 4316 4659 
L 1819 -169 
L 1353 -169 
z
M 3334 1075 
Q 3334 1569 3581 1911 
Q 3828 2253 4300 2253 
Q 4731 2253 5014 1945 
Q 5297 1638 5297 1041 
Q 5297 459 5011 145 
Q 4725 -169 4303 -169 
Q 3888 -169 3611 142 
Q 3334 453 3334 1075 
z
M 4316 1866 
Q 4103 1866 3964 1684 
Q 3825 1503 3825 1019 
Q 3825 581 3965 400 
Q 4106 219 4313 219 
Q 4528 219 4667 400 
Q 4806 581 4806 1063 
Q 4806 1506 4665 1686 
Q 4525 1866 4316 1866 
z
" transform="scale(0.015625)"/>
       <path id="ArialMT-29" d="M 791 -1347 
L 388 -1347 
Q 1322 153 1322 1656 
Q 1322 2244 1188 2822 
Q 1081 3291 891 3722 
Q 769 4003 388 4659 
L 791 4659 
Q 1378 3875 1659 3084 
Q 1900 2403 1900 1659 
Q 1900 816 1576 28 
Q 1253 -759 791 -1347 
z
" transform="scale(0.015625)"/>
      </defs>
      <use xlink:href="#ArialMT-50"/>
      <use xlink:href="#ArialMT-65" transform="translate(66.699219 0)"/>
      <use xlink:href="#ArialMT-72" transform="translate(122.314453 0)"/>
      <use xlink:href="#ArialMT-63" transform="translate(155.615234 0)"/>
      <use xlink:href="#ArialMT-65" transform="translate(205.615234 0)"/>
      <use xlink:href="#ArialMT-6e" transform="translate(261.230469 0)"/>
      <use xlink:href="#ArialMT-74" transform="translate(316.845703 0)"/>
      <use xlink:href="#ArialMT-61" transform="translate(344.628906 0)"/>
      <use xlink:href="#ArialMT-67" transform="translate(400.244141 0)"/>
      <use xlink:href="#ArialMT-65" transform="translate(455.859375 0)"/>
      <use xlink:href="#ArialMT-20" transform="translate(511.474609 0)"/>
      <use xlink:href="#ArialMT-28" transform="translate(539.257812 0)"/>
      <use xlink:href="#ArialMT-25" transform="translate(572.558594 0)"/>
      <use xlink:href="#ArialMT-29" transform="translate(661.474609 0)"/>
     </g>
    </g>
   </g>
   <g id="FillBetweenPolyCollection_1">
    <defs>
     <path id="md683a481d8" d="M 74.561281 -132.593176 
L 74.561281 -87.794213 
L 91.376204 -80.291376 
L 108.191126 -83.119082 
L 125.006049 -68.314539 
L 141.820971 -72.110545 
L 158.635894 -69.64502 
L 175.450816 -73.231877 
L 192.265739 -80.509437 
L 209.080661 -79.230046 
L 225.895584 -79.940546 
L 242.710506 -81.396726 
L 259.525429 -87.144531 
L 276.340351 -90.053931 
L 293.155274 -96.015971 
L 309.970196 -94.643567 
L 326.785119 -88.646336 
L 343.600041 -97.46997 
L 360.414964 -99.023814 
L 377.229886 -98.988886 
L 394.044809 -102.790769 
L 410.859731 -93.56634 
L 427.674654 -89.216841 
L 444.489576 -106.467035 
L 461.304499 -112.975666 
L 478.119421 -107.988325 
L 494.934344 -109.09658 
L 494.934344 -116.043545 
L 494.934344 -116.043545 
L 478.119421 -115.487636 
L 461.304499 -121.088303 
L 444.489576 -115.434577 
L 427.674654 -97.151324 
L 410.859731 -102.871054 
L 394.044809 -114.600909 
L 377.229886 -111.721841 
L 360.414964 -113.161042 
L 343.600041 -111.979499 
L 326.785119 -103.332512 
L 309.970196 -111.294326 
L 293.155274 -114.250591 
L 276.340351 -109.307492 
L 259.525429 -108.803632 
L 242.710506 -103.08789 
L 225.895584 -104.285358 
L 209.080661 -102.504643 
L 192.265739 -105.137495 
L 175.450816 -100.362648 
L 158.635894 -97.751056 
L 141.820971 -102.122509 
L 125.006049 -97.917216 
L 108.191126 -122.729236 
L 91.376204 -120.557709 
L 74.561281 -132.593176 
z
" style="stroke: #2e7d32; stroke-opacity: 0.15"/>
    </defs>
    <g clip-path="url(#p9907b7edab)">
     <use xlink:href="#md683a481d8" x="0" y="352.351687" style="fill: #2e7d32; fill-opacity: 0.15; stroke: #2e7d32; stroke-opacity: 0.15"/>
    </g>
   </g>
   <g id="line2d_19">
    <path d="M 74.561281 244.615072 
L 91.376204 254.256312 
L 108.191126 251.501672 
L 125.006049 271.33508 
L 141.820971 267.20312 
L 158.635894 270.508688 
L 175.450816 267.20312 
L 192.265739 260.591984 
L 209.080661 262.520232 
L 225.895584 261.418376 
L 242.710506 260.867448 
L 259.525429 255.082704 
L 276.340351 253.154456 
L 293.155274 247.645176 
L 309.970196 249.848888 
L 326.785119 256.735488 
L 343.600041 247.92064 
L 360.414964 246.54332 
L 377.229886 247.094248 
L 394.044809 243.78868 
L 410.859731 254.256312 
L 427.674654 259.214664 
L 444.489576 241.584968 
L 461.304499 235.249296 
L 478.119421 240.758576 
L 494.934344 239.932184 
" clip-path="url(#p9907b7edab)" style="fill: none; stroke: #2e7d32; stroke-width: 2; stroke-linecap: square"/>
    <defs>
     <path id="mdcfbfd0666" d="M 0 2.5 
C 0.663008 2.5 1.29895 2.236584 1.767767 1.767767 
C 2.236584 1.29895 2.5 0.663008 2.5 0 
C 2.5 -0.663008 2.236584 -1.29895 1.767767 -1.767767 
C 1.29895 -2.236584 0.663008 -2.5 0 -2.5 
C -0.663008 -2.5 -1.29895 -2.236584 -1.767767 -1.767767 
C -2.236584 -1.29895 -2.5 -0.663008 -2.5 0 
C -2.5 0.663008 -2.236584 1.29895 -1.767767 1.767767 
C -1.29895 2.236584 -0.663008 2.5 0 2.5 
z
" style="stroke: #2e7d32"/>
    </defs>
    <g clip-path="url(#p9907b7edab)">
     <use xlink:href="#mdcfbfd0666" x="74.561281" y="244.615072" style="fill: #2e7d32; stroke: #2e7d32"/>
     <use xlink:href="#mdcfbfd0666" x="91.376204" y="254.256312" style="fill: #2e7d32; stroke: #2e7d32"/>
     <use xlink:href="#mdcfbfd0666" x="108.191126" y="251.501672" style="fill: #2e7d32; stroke: #2e7d32"/>
     <use xlink:href="#mdcfbfd0666" x="125.006049" y="271.33508" style="fill: #2e7d32; stroke: #2e7d32"/>
     <use xlink:href="#mdcfbfd0666" x="141.820971" y="267.20312" style="fill: #2e7d32; stroke: #2e7d32"/>
     <use xlink:href="#mdcfbfd0666" x="158.635894" y="270.508688" style="fill: #2e7d32; stroke: #2e7d32"/>
     <use xlink:href="#mdcfbfd0666" x="175.450816" y="267.20312" style="fill: #2e7d32; stroke: #2e7d32"/>
     <use xlink:href="#mdcfbfd0666" x="192.265739" y="260.591984" style="fill: #2e7d32; stroke: #2e7d32"/>
     <use xlink:href="#mdcfbfd0666" x="209.080661" y="262.520232" style="fill: #2e7d32; stroke: #2e7d32"/>
     <use xlink:href="#mdcfbfd0666" x="225.895584" y="261.418376" style="fill: #2e7d32; stroke: #2e7d32"/>
     <use xlink:href="#mdcfbfd0666" x="242.710506" y="260.867448" style="fill: #2e7d32; stroke: #2e7d32"/>
     <use xlink:href="#mdcfbfd0666" x="259.525429" y="255.082704" style="fill: #2e7d32; stroke: #2e7d32"/>
     <use xlink:href="#mdcfbfd0666" x="276.340351" y="253.154456" style="fill: #2e7d32; stroke: #2e7d32"/>
     <use xlink:href="#mdcfbfd0666" x="293.155274" y="247.645176" style="fill: #2e7d32; stroke: #2e7d32"/>
     <use xlink:href="#mdcfbfd0666" x="309.970196" y="249.848888" style="fill: #2e7d32; stroke: #2e7d32"/>
     <use xlink:href="#mdcfbfd0666" x="326.785119" y="256.735488" style="fill: #2e7d32; stroke: #2e7d32"/>
     <use xlink:href="#mdcfbfd0666" x="343.600041" y="247.92064" style="fill: #2e7d32; stroke: #2e7d32"/>
     <use xlink:href="#mdcfbfd0666" x="360.414964" y="246.54332" style="fill: #2e7d32; stroke: #2e7d32"/>
     <use xlink:href="#mdcfbfd0666" x="377.229886" y="247.094248" style="fill: #2e7d32; stroke: #2e7d32"/>
     <use xlink:href="#mdcfbfd0666" x="394.044809" y="243.78868" style="fill: #2e7d32; stroke: #2e7d32"/>
     <use xlink:href="#mdcfbfd0666" x="410.859731" y="254.256312" style="fill: #2e7d32; stroke: #2e7d32"/>
     <use xlink:href="#mdcfbfd0666" x="427.674654" y="259.214664" style="fill: #2e7d32; stroke: #2e7d32"/>
     <use xlink:href="#mdcfbfd0666" x="444.489576" y="241.584968" style="fill: #2e7d32; stroke: #2e7d32"/>
     <use xlink:href="#mdcfbfd0666" x="461.304499" y="235.249296" style="fill: #2e7d32; stroke: #2e7d32"/>
     <use xlink:href="#mdcfbfd0666" x="478.119421" y="240.758576" style="fill: #2e7d32; stroke: #2e7d32"/>
     <use xlink:href="#mdcfbfd0666" x="494.934344" y="239.932184" style="fill: #2e7d32; stroke: #2e7d32"/>
    </g>
   </g>
   <g id="line2d_20">
    <path d="M 74.561281 249.435692 
L 91.376204 250.124352 
L 108.191126 259.031021 
L 125.006049 263.346624 
L 141.820971 269.682296 
L 158.635894 268.304976 
L 175.450816 266.101264 
L 192.265739 263.438445 
L 209.080661 261.510197 
L 225.895584 261.602019 
L 242.710506 259.122843 
L 259.525429 256.368203 
L 276.340351 251.960779 
L 293.155274 250.216173 
L 309.970196 251.409851 
L 326.785119 251.501672 
L 343.600041 250.399816 
L 360.414964 247.186069 
L 377.229886 245.808749 
L 394.044809 248.379747 
L 410.859731 252.419885 
L 427.674654 251.685315 
L 444.489576 245.349643 
L 461.304499 239.197613 
L 478.119421 238.646685 
L 494.934344 240.34538 
" clip-path="url(#p9907b7edab)" style="fill: none; stroke-dasharray: 5.55,2.4; stroke-dashoffset: 0; stroke: #2e7d32; stroke-opacity: 0.5; stroke-width: 1.5"/>
   </g>
   <g id="line2d_21">
    <path d="M 74.561281 267.754048 
L 91.376204 254.256312 
L 108.191126 234.422904 
L 125.006049 225.332592 
L 141.820971 245.992392 
L 158.635894 250.67528 
L 175.450816 232.494656 
L 192.265739 254.256312 
L 209.080661 244.615072 
L 225.895584 253.154456 
L 242.710506 269.682296 
L 259.525429 261.69384 
L 276.340351 268.029512 
L 293.155274 266.101264 
L 309.970196 261.418376 
L 326.785119 257.286416 
L 343.600041 266.927656 
L 360.414964 267.754048 
L 377.229886 268.304976 
L 394.044809 266.101264 
L 410.859731 255.909096 
L 427.674654 275.191576 
L 444.489576 279.599 
L 461.304499 278.772608 
L 478.119421 277.946216 
L 494.934344 280.425392 
" clip-path="url(#p9907b7edab)" style="fill: none; stroke: #f9a825; stroke-width: 2; stroke-linecap: square"/>
    <defs>
     <path id="mcddf404db1" d="M 0 -2.5 
L -2.5 2.5 
L 2.5 2.5 
z
" style="stroke: #f9a825; stroke-linejoin: miter"/>
    </defs>
    <g clip-path="url(#p9907b7edab)">
     <use xlink:href="#mcddf404db1" x="74.561281" y="267.754048" style="fill: #f9a825; stroke: #f9a825; stroke-linejoin: miter"/>
     <use xlink:href="#mcddf404db1" x="91.376204" y="254.256312" style="fill: #f9a825; stroke: #f9a825; stroke-linejoin: miter"/>
     <use xlink:href="#mcddf404db1" x="108.191126" y="234.422904" style="fill: #f9a825; stroke: #f9a825; stroke-linejoin: miter"/>
     <use xlink:href="#mcddf404db1" x="125.006049" y="225.332592" style="fill: #f9a825; stroke: #f9a825; stroke-linejoin: miter"/>
     <use xlink:href="#mcddf404db1" x="141.820971" y="245.992392" style="fill: #f9a825; stroke: #f9a825; stroke-linejoin: miter"/>
     <use xlink:href="#mcddf404db1" x="158.635894" y="250.67528" style="fill: #f9a825; stroke: #f9a825; stroke-linejoin: miter"/>
     <use xlink:href="#mcddf404db1" x="175.450816" y="232.494656" style="fill: #f9a825; stroke: #f9a825; stroke-linejoin: miter"/>
     <use xlink:href="#mcddf404db1" x="192.265739" y="254.256312" style="fill: #f9a825; stroke: #f9a825; stroke-linejoin: miter"/>
     <use xlink:href="#mcddf404db1" x="209.080661" y="244.615072" style="fill: #f9a825; stroke: #f9a825; stroke-linejoin: miter"/>
     <use xlink:href="#mcddf404db1" x="225.895584" y="253.154456" style="fill: #f9a825; stroke: #f9a825; stroke-linejoin: miter"/>
     <use xlink:href="#mcddf404db1" x="242.710506" y="269.682296" style="fill: #f9a825; stroke: #f9a825; stroke-linejoin: miter"/>
     <use xlink:href="#mcddf404db1" x="259.525429" y="261.69384" style="fill: #f9a825; stroke: #f9a825; stroke-linejoin: miter"/>
     <use xlink:href="#mcddf404db1" x="276.340351" y="268.029512" style="fill: #f9a825; stroke: #f9a825; stroke-linejoin: miter"/>
     <use xlink:href="#mcddf404db1" x="293.155274" y="266.101264" style="fill: #f9a825; stroke: #f9a825; stroke-linejoin: miter"/>
     <use xlink:href="#mcddf404db1" x="309.970196" y="261.418376" style="fill: #f9a825; stroke: #f9a825; stroke-linejoin: miter"/>
     <use xlink:href="#mcddf404db1" x="326.785119" y="257.286416" style="fill: #f9a825; stroke: #f9a825; stroke-linejoin: miter"/>
     <use xlink:href="#mcddf404db1" x="343.600041" y="266.927656" style="fill: #f9a825; stroke: #f9a825; stroke-linejoin: miter"/>
     <use xlink:href="#mcddf404db1" x="360.414964" y="267.754048" style="fill: #f9a825; stroke: #f9a825; stroke-linejoin: miter"/>
     <use xlink:href="#mcddf404db1" x="377.229886" y="268.304976" style="fill: #f9a825; stroke: #f9a825; stroke-linejoin: miter"/>
     <use xlink:href="#mcddf404db1" x="394.044809" y="266.101264" style="fill: #f9a825; stroke: #f9a825; stroke-linejoin: miter"/>
     <use xlink:href="#mcddf404db1" x="410.859731" y="255.909096" style="fill: #f9a825; stroke: #f9a825; stroke-linejoin: miter"/>
     <use xlink:href="#mcddf404db1" x="427.674654" y="275.191576" style="fill: #f9a825; stroke: #f9a825; stroke-linejoin: miter"/>
     <use xlink:href="#mcddf404db1" x="444.489576" y="279.599" style="fill: #f9a825; stroke: #f9a825; stroke-linejoin: miter"/>
     <use xlink:href="#mcddf404db1" x="461.304499" y="278.772608" style="fill: #f9a825; stroke: #f9a825; stroke-linejoin: miter"/>
     <use xlink:href="#mcddf404db1" x="478.119421" y="277.946216" style="fill: #f9a825; stroke: #f9a825; stroke-linejoin: miter"/>
     <use xlink:href="#mcddf404db1" x="494.934344" y="280.425392" style="fill: #f9a825; stroke: #f9a825; stroke-linejoin: miter"/>
    </g>
   </g>
   <g id="line2d_22">
    <path d="M 74.561281 261.00518 
L 91.376204 252.144421 
L 108.191126 238.003936 
L 125.006049 235.249296 
L 141.820971 240.666755 
L 158.635894 243.054109 
L 175.450816 245.808749 
L 192.265739 243.78868 
L 209.080661 250.67528 
L 225.895584 255.817275 
L 242.710506 261.510197 
L 259.525429 266.468549 
L 276.340351 265.274872 
L 293.155274 265.183051 
L 309.970196 261.602019 
L 326.785119 261.877483 
L 343.600041 263.989373 
L 360.414964 267.662227 
L 377.229886 267.386763 
L 394.044809 263.438445 
L 410.859731 265.733979 
L 427.674654 270.233224 
L 444.489576 277.854395 
L 461.304499 278.772608 
L 478.119421 279.048072 
L 494.934344 279.185804 
" clip-path="url(#p9907b7edab)" style="fill: none; stroke-dasharray: 5.55,2.4; stroke-dashoffset: 0; stroke: #f9a825; stroke-opacity: 0.5; stroke-width: 1.5"/>
   </g>
   <g id="line2d_23">
    <path d="M 74.561281 154.538344 
L 91.376204 157.843912 
L 108.191126 180.707424 
L 125.006049 169.964328 
L 141.820971 153.711952 
L 158.635894 145.448032 
L 175.450816 166.934224 
L 192.265739 151.783704 
L 209.080661 159.496696 
L 225.895584 152.334632 
L 242.710506 136.082256 
L 259.525429 149.855456 
L 276.340351 145.448032 
L 293.155274 152.88556 
L 309.970196 155.364736 
L 326.785119 152.610096 
L 343.600041 151.783704 
L 360.414964 152.334632 
L 377.229886 151.232776 
L 394.044809 156.742056 
L 410.859731 156.466592 
L 427.674654 132.22576 
L 444.489576 145.448032 
L 461.304499 152.610096 
L 478.119421 147.927208 
L 494.934344 146.549888 
" clip-path="url(#p9907b7edab)" style="fill: none; stroke: #1565c0; stroke-width: 2; stroke-linecap: square"/>
    <defs>
     <path id="m493b039726" d="M -2.5 2.5 
L 2.5 2.5 
L 2.5 -2.5 
L -2.5 -2.5 
z
" style="stroke: #1565c0; stroke-linejoin: miter"/>
    </defs>
    <g clip-path="url(#p9907b7edab)">
     <use xlink:href="#m493b039726" x="74.561281" y="154.538344" style="fill: #1565c0; stroke: #1565c0; stroke-linejoin: miter"/>
     <use xlink:href="#m493b039726" x="91.376204" y="157.843912" style="fill: #1565c0; stroke: #1565c0; stroke-linejoin: miter"/>
     <use xlink:href="#m493b039726" x="108.191126" y="180.707424" style="fill: #1565c0; stroke: #1565c0; stroke-linejoin: miter"/>
     <use xlink:href="#m493b039726" x="125.006049" y="169.964328" style="fill: #1565c0; stroke: #1565c0; stroke-linejoin: miter"/>
     <use xlink:href="#m493b039726" x="141.820971" y="153.711952" style="fill: #1565c0; stroke: #1565c0; stroke-linejoin: miter"/>
     <use xlink:href="#m493b039726" x="158.635894" y="145.448032" style="fill: #1565c0; stroke: #1565c0; stroke-linejoin: miter"/>
     <use xlink:href="#m493b039726" x="175.450816" y="166.934224" style="fill: #1565c0; stroke: #1565c0; stroke-linejoin: miter"/>
     <use xlink:href="#m493b039726" x="192.265739" y="151.783704" style="fill: #1565c0; stroke: #1565c0; stroke-linejoin: miter"/>
     <use xlink:href="#m493b039726" x="209.080661" y="159.496696" style="fill: #1565c0; stroke: #1565c0; stroke-linejoin: miter"/>
     <use xlink:href="#m493b039726" x="225.895584" y="152.334632" style="fill: #1565c0; stroke: #1565c0; stroke-linejoin: miter"/>
     <use xlink:href="#m493b039726" x="242.710506" y="136.082256" style="fill: #1565c0; stroke: #1565c0; stroke-linejoin: miter"/>
     <use xlink:href="#m493b039726" x="259.525429" y="149.855456" style="fill: #1565c0; stroke: #1565c0; stroke-linejoin: miter"/>
     <use xlink:href="#m493b039726" x="276.340351" y="145.448032" style="fill: #1565c0; stroke: #1565c0; stroke-linejoin: miter"/>
     <use xlink:href="#m493b039726" x="293.155274" y="152.88556" style="fill: #1565c0; stroke: #1565c0; stroke-linejoin: miter"/>
     <use xlink:href="#m493b039726" x="309.970196" y="155.364736" style="fill: #1565c0; stroke: #1565c0; stroke-linejoin: miter"/>
     <use xlink:href="#m493b039726" x="326.785119" y="152.610096" style="fill: #1565c0; stroke: #1565c0; stroke-linejoin: miter"/>
     <use xlink:href="#m493b039726" x="343.600041" y="151.783704" style="fill: #1565c0; stroke: #1565c0; stroke-linejoin: miter"/>
     <use xlink:href="#m493b039726" x="360.414964" y="152.334632" style="fill: #1565c0; stroke: #1565c0; stroke-linejoin: miter"/>
     <use xlink:href="#m493b039726" x="377.229886" y="151.232776" style="fill: #1565c0; stroke: #1565c0; stroke-linejoin: miter"/>
     <use xlink:href="#m493b039726" x="394.044809" y="156.742056" style="fill: #1565c0; stroke: #1565c0; stroke-linejoin: miter"/>
     <use xlink:href="#m493b039726" x="410.859731" y="156.466592" style="fill: #1565c0; stroke: #1565c0; stroke-linejoin: miter"/>
     <use xlink:href="#m493b039726" x="427.674654" y="132.22576" style="fill: #1565c0; stroke: #1565c0; stroke-linejoin: miter"/>
     <use xlink:href="#m493b039726" x="444.489576" y="145.448032" style="fill: #1565c0; stroke: #1565c0; stroke-linejoin: miter"/>
     <use xlink:href="#m493b039726" x="461.304499" y="152.610096" style="fill: #1565c0; stroke: #1565c0; stroke-linejoin: miter"/>
     <use xlink:href="#m493b039726" x="478.119421" y="147.927208" style="fill: #1565c0; stroke: #1565c0; stroke-linejoin: miter"/>
     <use xlink:href="#m493b039726" x="494.934344" y="146.549888" style="fill: #1565c0; stroke: #1565c0; stroke-linejoin: miter"/>
    </g>
   </g>
   <g id="line2d_24">
    <path d="M 74.561281 156.191128 
L 91.376204 164.363227 
L 108.191126 169.505221 
L 125.006049 168.127901 
L 141.820971 156.374771 
L 158.635894 155.364736 
L 175.450816 154.721987 
L 192.265739 159.404875 
L 209.080661 154.538344 
L 225.895584 149.304528 
L 242.710506 146.090781 
L 259.525429 143.795248 
L 276.340351 149.396349 
L 293.155274 151.232776 
L 309.970196 153.620131 
L 326.785119 153.252845 
L 343.600041 152.242811 
L 360.414964 151.783704 
L 377.229886 153.436488 
L 394.044809 154.813808 
L 410.859731 148.478136 
L 427.674654 144.713461 
L 444.489576 143.427963 
L 461.304499 148.661779 
L 478.119421 149.029064 
L 494.934344 147.238548 
" clip-path="url(#p9907b7edab)" style="fill: none; stroke-dasharray: 5.55,2.4; stroke-dashoffset: 0; stroke: #1565c0; stroke-opacity: 0.5; stroke-width: 1.5"/>
   </g>
   <g id="patch_3">
    <path d="M 46.144063 314.032 
L 46.144063 38.568 
" style="fill: none; stroke: #000000; stroke-width: 0.8; stroke-linejoin: miter; stroke-linecap: square"/>
   </g>
   <g id="patch_4">
    <path d="M 46.144063 314.032 
L 523.351562 314.032 
" style="fill: none; stroke: #000000; stroke-width: 0.8; stroke-linejoin: miter; stroke-linecap: square"/>
   </g>
   <g id="text_15">
    <!-- Corresponding authorship in Ghanaian international collaborations -->
    <g transform="translate(60.747812 17.391562) scale(0.14 -0.14)">
     <defs>
      <path id="Arial-BoldMT-43" d="M 3397 1684 
L 4294 1400 
Q 4088 650 3608 286 
Q 3128 -78 2391 -78 
Q 1478 -78 890 545 
Q 303 1169 303 2250 
Q 303 3394 893 4026 
Q 1484 4659 2447 4659 
Q 3288 4659 3813 4163 
Q 4125 3869 4281 3319 
L 3366 3100 
Q 3284 3456 3026 3662 
Q 2769 3869 2400 3869 
Q 1891 3869 1573 3503 
Q 1256 3138 1256 2319 
Q 1256 1450 1568 1081 
Q 1881 713 2381 713 
Q 2750 713 3015 947 
Q 3281 1181 3397 1684 
z
" transform="scale(0.015625)"/>
      <path id="Arial-BoldMT-6f" d="M 256 1706 
Q 256 2144 472 2553 
Q 688 2963 1083 3178 
Q 1478 3394 1966 3394 
Q 2719 3394 3200 2905 
Q 3681 2416 3681 1669 
Q 3681 916 3195 420 
Q 2709 -75 1972 -75 
Q 1516 -75 1102 131 
Q 688 338 472 736 
Q 256 1134 256 1706 
z
M 1156 1659 
Q 1156 1166 1390 903 
Q 1625 641 1969 641 
Q 2313 641 2545 903 
Q 2778 1166 2778 1666 
Q 2778 2153 2545 2415 
Q 2313 2678 1969 2678 
Q 1625 2678 1390 2415 
Q 1156 2153 1156 1659 
z
" transform="scale(0.015625)"/>
      <path id="Arial-BoldMT-72" d="M 1300 0 
L 422 0 
L 422 3319 
L 1238 3319 
L 1238 2847 
Q 1447 3181 1614 3287 
Q 1781 3394 1994 3394 
Q 2294 3394 2572 3228 
L 2300 2463 
Q 2078 2606 1888 2606 
Q 1703 2606 1575 2504 
Q 1447 2403 1373 2137 
Q 1300 1872 1300 1025 
L 1300 0 
z
" transform="scale(0.015625)"/>
      <path id="Arial-BoldMT-65" d="M 2381 1056 
L 3256 909 
Q 3088 428 2723 176 
Q 2359 -75 1813 -75 
Q 947 -75 531 491 
Q 203 944 203 1634 
Q 203 2459 634 2926 
Q 1066 3394 1725 3394 
Q 2466 3394 2894 2905 
Q 3322 2416 3303 1406 
L 1103 1406 
Q 1113 1016 1316 798 
Q 1519 581 1822 581 
Q 2028 581 2168 693 
Q 2309 806 2381 1056 
z
M 2431 1944 
Q 2422 2325 2234 2523 
Q 2047 2722 1778 2722 
Q 1491 2722 1303 2513 
Q 1116 2303 1119 1944 
L 2431 1944 
z
" transform="scale(0.015625)"/>
      <path id="Arial-BoldMT-73" d="M 150 947 
L 1031 1081 
Q 1088 825 1259 692 
Q 1431 559 1741 559 
Q 2081 559 2253 684 
Q 2369 772 2369 919 
Q 2369 1019 2306 1084 
Q 2241 1147 2013 1200 
Q 950 1434 666 1628 
Q 272 1897 272 2375 
Q 272 2806 612 3100 
Q 953 3394 1669 3394 
Q 2350 3394 2681 3172 
Q 3013 2950 3138 2516 
L 2309 2363 
Q 2256 2556 2107 2659 
Q 1959 2763 1684 2763 
Q 1338 2763 1188 2666 
Q 1088 2597 1088 2488 
Q 1088 2394 1175 2328 
Q 1294 2241 1995 2081 
Q 2697 1922 2975 1691 
Q 3250 1456 3250 1038 
Q 3250 581 2869 253 
Q 2488 -75 1741 -75 
Q 1063 -75 667 200 
Q 272 475 150 947 
z
" transform="scale(0.015625)"/>
      <path id="Arial-BoldMT-70" d="M 434 3319 
L 1253 3319 
L 1253 2831 
Q 1413 3081 1684 3237 
Q 1956 3394 2288 3394 
Q 2866 3394 3269 2941 
Q 3672 2488 3672 1678 
Q 3672 847 3265 386 
Q 2859 -75 2281 -75 
Q 2006 -75 1782 34 
Q 1559 144 1313 409 
L 1313 -1263 
L 434 -1263 
L 434 3319 
z
M 1303 1716 
Q 1303 1156 1525 889 
Q 1747 622 2066 622 
Q 2372 622 2575 867 
Q 2778 1113 2778 1672 
Q 2778 2194 2568 2447 
Q 2359 2700 2050 2700 
Q 1728 2700 1515 2451 
Q 1303 2203 1303 1716 
z
" transform="scale(0.015625)"/>
      <path id="Arial-BoldMT-6e" d="M 3478 0 
L 2600 0 
L 2600 1694 
Q 2600 2231 2544 2389 
Q 2488 2547 2361 2634 
Q 2234 2722 2056 2722 
Q 1828 2722 1647 2597 
Q 1466 2472 1398 2265 
Q 1331 2059 1331 1503 
L 1331 0 
L 453 0 
L 453 3319 
L 1269 3319 
L 1269 2831 
Q 1703 3394 2363 3394 
Q 2653 3394 2893 3289 
Q 3134 3184 3257 3021 
Q 3381 2859 3429 2653 
Q 3478 2447 3478 2063 
L 3478 0 
z
" transform="scale(0.015625)"/>
      <path id="Arial-BoldMT-64" d="M 3503 0 
L 2688 0 
L 2688 488 
Q 2484 203 2207 64 
Q 1931 -75 1650 -75 
Q 1078 -75 670 386 
Q 263 847 263 1672 
Q 263 2516 659 2955 
Q 1056 3394 1663 3394 
Q 2219 3394 2625 2931 
L 2625 4581 
L 3503 4581 
L 3503 0 
z
M 1159 1731 
Q 1159 1200 1306 963 
Q 1519 619 1900 619 
Q 2203 619 2415 876 
Q 2628 1134 2628 1647 
Q 2628 2219 2422 2470 
Q 2216 2722 1894 2722 
Q 1581 2722 1370 2473 
Q 1159 2225 1159 1731 
z
" transform="scale(0.015625)"/>
      <path id="Arial-BoldMT-69" d="M 459 3769 
L 459 4581 
L 1338 4581 
L 1338 3769 
L 459 3769 
z
M 459 0 
L 459 3319 
L 1338 3319 
L 1338 0 
L 459 0 
z
" transform="scale(0.015625)"/>
      <path id="Arial-BoldMT-67" d="M 378 -219 
L 1381 -341 
Q 1406 -516 1497 -581 
Q 1622 -675 1891 -675 
Q 2234 -675 2406 -572 
Q 2522 -503 2581 -350 
Q 2622 -241 2622 53 
L 2622 538 
Q 2228 0 1628 0 
Q 959 0 569 566 
Q 263 1013 263 1678 
Q 263 2513 664 2953 
Q 1066 3394 1663 3394 
Q 2278 3394 2678 2853 
L 2678 3319 
L 3500 3319 
L 3500 341 
Q 3500 -247 3403 -537 
Q 3306 -828 3131 -993 
Q 2956 -1159 2664 -1253 
Q 2372 -1347 1925 -1347 
Q 1081 -1347 728 -1058 
Q 375 -769 375 -325 
Q 375 -281 378 -219 
z
M 1163 1728 
Q 1163 1200 1367 954 
Q 1572 709 1872 709 
Q 2194 709 2416 961 
Q 2638 1213 2638 1706 
Q 2638 2222 2425 2472 
Q 2213 2722 1888 2722 
Q 1572 2722 1367 2476 
Q 1163 2231 1163 1728 
z
" transform="scale(0.015625)"/>
      <path id="Arial-BoldMT-20" transform="scale(0.015625)"/>
      <path id="Arial-BoldMT-61" d="M 1116 2306 
L 319 2450 
Q 453 2931 781 3162 
Q 1109 3394 1756 3394 
Q 2344 3394 2631 3255 
Q 2919 3116 3036 2902 
Q 3153 2688 3153 2116 
L 3144 1091 
Q 3144 653 3186 445 
Q 3228 238 3344 0 
L 2475 0 
Q 2441 88 2391 259 
Q 2369 338 2359 363 
Q 2134 144 1878 34 
Q 1622 -75 1331 -75 
Q 819 -75 523 203 
Q 228 481 228 906 
Q 228 1188 362 1408 
Q 497 1628 739 1745 
Q 981 1863 1438 1950 
Q 2053 2066 2291 2166 
L 2291 2253 
Q 2291 2506 2166 2614 
Q 2041 2722 1694 2722 
Q 1459 2722 1328 2630 
Q 1197 2538 1116 2306 
z
M 2291 1594 
Q 2122 1538 1756 1459 
Q 1391 1381 1278 1306 
Q 1106 1184 1106 997 
Q 1106 813 1243 678 
Q 1381 544 1594 544 
Q 1831 544 2047 700 
Q 2206 819 2256 991 
Q 2291 1103 2291 1419 
L 2291 1594 
z
" transform="scale(0.015625)"/>
      <path id="Arial-BoldMT-75" d="M 2644 0 
L 2644 497 
Q 2463 231 2167 78 
Q 1872 -75 1544 -75 
Q 1209 -75 943 72 
Q 678 219 559 484 
Q 441 750 441 1219 
L 441 3319 
L 1319 3319 
L 1319 1794 
Q 1319 1094 1367 936 
Q 1416 778 1544 686 
Q 1672 594 1869 594 
Q 2094 594 2272 717 
Q 2450 841 2515 1023 
Q 2581 1206 2581 1919 
L 2581 3319 
L 3459 3319 
L 3459 0 
L 2644 0 
z
" transform="scale(0.015625)"/>
      <path id="Arial-BoldMT-74" d="M 1981 3319 
L 1981 2619 
L 1381 2619 
L 1381 1281 
Q 1381 875 1398 808 
Q 1416 741 1477 697 
Q 1538 653 1625 653 
Q 1747 653 1978 738 
L 2053 56 
Q 1747 -75 1359 -75 
Q 1122 -75 931 4 
Q 741 84 652 211 
Q 563 338 528 553 
Q 500 706 500 1172 
L 500 2619 
L 97 2619 
L 97 3319 
L 500 3319 
L 500 3978 
L 1381 4491 
L 1381 3319 
L 1981 3319 
z
" transform="scale(0.015625)"/>
      <path id="Arial-BoldMT-68" d="M 1334 4581 
L 1334 2897 
Q 1759 3394 2350 3394 
Q 2653 3394 2897 3281 
Q 3141 3169 3264 2994 
Q 3388 2819 3433 2606 
Q 3478 2394 3478 1947 
L 3478 0 
L 2600 0 
L 2600 1753 
Q 2600 2275 2550 2415 
Q 2500 2556 2373 2639 
Q 2247 2722 2056 2722 
Q 1838 2722 1666 2615 
Q 1494 2509 1414 2295 
Q 1334 2081 1334 1663 
L 1334 0 
L 456 0 
L 456 4581 
L 1334 4581 
z
" transform="scale(0.015625)"/>
      <path id="Arial-BoldMT-47" d="M 2597 1684 
L 2597 2456 
L 4591 2456 
L 4591 631 
Q 4300 350 3748 136 
Q 3197 -78 2631 -78 
Q 1913 -78 1378 223 
Q 844 525 575 1086 
Q 306 1647 306 2306 
Q 306 3022 606 3578 
Q 906 4134 1484 4431 
Q 1925 4659 2581 4659 
Q 3434 4659 3914 4301 
Q 4394 3944 4531 3313 
L 3613 3141 
Q 3516 3478 3248 3673 
Q 2981 3869 2581 3869 
Q 1975 3869 1617 3484 
Q 1259 3100 1259 2344 
Q 1259 1528 1621 1120 
Q 1984 713 2572 713 
Q 2863 713 3155 827 
Q 3447 941 3656 1103 
L 3656 1684 
L 2597 1684 
z
" transform="scale(0.015625)"/>
      <path id="Arial-BoldMT-6c" d="M 459 0 
L 459 4581 
L 1338 4581 
L 1338 0 
L 459 0 
z
" transform="scale(0.015625)"/>
      <path id="Arial-BoldMT-63" d="M 3353 2338 
L 2488 2181 
Q 2444 2441 2289 2572 
Q 2134 2703 1888 2703 
Q 1559 2703 1364 2476 
Q 1169 2250 1169 1719 
Q 1169 1128 1367 884 
Q 1566 641 1900 641 
Q 2150 641 2309 783 
Q 2469 925 2534 1272 
L 3397 1125 
Q 3263 531 2881 228 
Q 2500 -75 1859 -75 
Q 1131 -75 698 384 
Q 266 844 266 1656 
Q 266 2478 700 2936 
Q 1134 3394 1875 3394 
Q 2481 3394 2839 3133 
Q 3197 2872 3353 2338 
z
" transform="scale(0.015625)"/>
      <path id="Arial-BoldMT-62" d="M 422 0 
L 422 4581 
L 1300 4581 
L 1300 2931 
Q 1706 3394 2263 3394 
Q 2869 3394 3266 2955 
Q 3663 2516 3663 1694 
Q 3663 844 3258 384 
Q 2853 -75 2275 -75 
Q 1991 -75 1714 67 
Q 1438 209 1238 488 
L 1238 0 
L 422 0 
z
M 1294 1731 
Q 1294 1216 1456 969 
Q 1684 619 2063 619 
Q 2353 619 2558 867 
Q 2763 1116 2763 1650 
Q 2763 2219 2556 2470 
Q 2350 2722 2028 2722 
Q 1713 2722 1503 2476 
Q 1294 2231 1294 1731 
z
" transform="scale(0.015625)"/>
     </defs>
     <use xlink:href="#Arial-BoldMT-43"/>
     <use xlink:href="#Arial-BoldMT-6f" transform="translate(72.216797 0)"/>
     <use xlink:href="#Arial-BoldMT-72" transform="translate(133.300781 0)"/>
     <use xlink:href="#Arial-BoldMT-72" transform="translate(172.216797 0)"/>
     <use xlink:href="#Arial-BoldMT-65" transform="translate(211.132812 0)"/>
     <use xlink:href="#Arial-BoldMT-73" transform="translate(266.748047 0)"/>
     <use xlink:href="#Arial-BoldMT-70" transform="translate(322.363281 0)"/>
     <use xlink:href="#Arial-BoldMT-6f" transform="translate(383.447266 0)"/>
     <use xlink:href="#Arial-BoldMT-6e" transform="translate(444.53125 0)"/>
     <use xlink:href="#Arial-BoldMT-64" transform="translate(505.615234 0)"/>
     <use xlink:href="#Arial-BoldMT-69" transform="translate(566.699219 0)"/>
     <use xlink:href="#Arial-BoldMT-6e" transform="translate(594.482422 0)"/>
     <use xlink:href="#Arial-BoldMT-67" transform="translate(655.566406 0)"/>
     <use xlink:href="#Arial-BoldMT-20" transform="translate(716.650391 0)"/>
     <use xlink:href="#Arial-BoldMT-61" transform="translate(744.433594 0)"/>
     <use xlink:href="#Arial-BoldMT-75" transform="translate(800.048828 0)"/>
     <use xlink:href="#Arial-BoldMT-74" transform="translate(861.132812 0)"/>
     <use xlink:href="#Arial-BoldMT-68" transform="translate(894.433594 0)"/>
     <use xlink:href="#Arial-BoldMT-6f" transform="translate(955.517578 0)"/>
     <use xlink:href="#Arial-BoldMT-72" transform="translate(1016.601562 0)"/>
     <use xlink:href="#Arial-BoldMT-73" transform="translate(1055.517578 0)"/>
     <use xlink:href="#Arial-BoldMT-68" transform="translate(1111.132812 0)"/>
     <use xlink:href="#Arial-BoldMT-69" transform="translate(1172.216797 0)"/>
     <use xlink:href="#Arial-BoldMT-70" transform="translate(1200 0)"/>
     <use xlink:href="#Arial-BoldMT-20" transform="translate(1261.083984 0)"/>
     <use xlink:href="#Arial-BoldMT-69" transform="translate(1288.867188 0)"/>
     <use xlink:href="#Arial-BoldMT-6e" transform="translate(1316.650391 0)"/>
     <use xlink:href="#Arial-BoldMT-20" transform="translate(1377.734375 0)"/>
     <use xlink:href="#Arial-BoldMT-47" transform="translate(1405.517578 0)"/>
     <use xlink:href="#Arial-BoldMT-68" transform="translate(1483.300781 0)"/>
     <use xlink:href="#Arial-BoldMT-61" transform="translate(1544.384766 0)"/>
     <use xlink:href="#Arial-BoldMT-6e" transform="translate(1600 0)"/>
     <use xlink:href="#Arial-BoldMT-61" transform="translate(1661.083984 0)"/>
     <use xlink:href="#Arial-BoldMT-69" transform="translate(1716.699219 0)"/>
     <use xlink:href="#Arial-BoldMT-61" transform="translate(1744.482422 0)"/>
     <use xlink:href="#Arial-BoldMT-6e" transform="translate(1800.097656 0)"/>
     <use xlink:href="#Arial-BoldMT-20" transform="translate(1861.181641 0)"/>
     <use xlink:href="#Arial-BoldMT-69" transform="translate(1888.964844 0)"/>
     <use xlink:href="#Arial-BoldMT-6e" transform="translate(1916.748047 0)"/>
     <use xlink:href="#Arial-BoldMT-74" transform="translate(1977.832031 0)"/>
     <use xlink:href="#Arial-BoldMT-65" transform="translate(2011.132812 0)"/>
     <use xlink:href="#Arial-BoldMT-72" transform="translate(2066.748047 0)"/>
     <use xlink:href="#Arial-BoldMT-6e" transform="translate(2105.664062 0)"/>
     <use xlink:href="#Arial-BoldMT-61" transform="translate(2166.748047 0)"/>
     <use xlink:href="#Arial-BoldMT-74" transform="translate(2222.363281 0)"/>
     <use xlink:href="#Arial-BoldMT-69" transform="translate(2255.664062 0)"/>
     <use xlink:href="#Arial-BoldMT-6f" transform="translate(2283.447266 0)"/>
     <use xlink:href="#Arial-BoldMT-6e" transform="translate(2344.53125 0)"/>
     <use xlink:href="#Arial-BoldMT-61" transform="translate(2405.615234 0)"/>
     <use xlink:href="#Arial-BoldMT-6c" transform="translate(2461.230469 0)"/>
     <use xlink:href="#Arial-BoldMT-20" transform="translate(2489.013672 0)"/>
     <use xlink:href="#Arial-BoldMT-63" transform="translate(2516.796875 0)"/>
     <use xlink:href="#Arial-BoldMT-6f" transform="translate(2572.412109 0)"/>
     <use xlink:href="#Arial-BoldMT-6c" transform="translate(2633.496094 0)"/>
     <use xlink:href="#Arial-BoldMT-6c" transform="translate(2661.279297 0)"/>
     <use xlink:href="#Arial-BoldMT-61" transform="translate(2689.0625 0)"/>
     <use xlink:href="#Arial-BoldMT-62" transform="translate(2744.677734 0)"/>
     <use xlink:href="#Arial-BoldMT-6f" transform="translate(2805.761719 0)"/>
     <use xlink:href="#Arial-BoldMT-72" transform="translate(2866.845703 0)"/>
     <use xlink:href="#Arial-BoldMT-61" transform="translate(2905.761719 0)"/>
     <use xlink:href="#Arial-BoldMT-74" transform="translate(2961.376953 0)"/>
     <use xlink:href="#Arial-BoldMT-69" transform="translate(2994.677734 0)"/>
     <use xlink:href="#Arial-BoldMT-6f" transform="translate(3022.460938 0)"/>
     <use xlink:href="#Arial-BoldMT-6e" transform="translate(3083.544922 0)"/>
     <use xlink:href="#Arial-BoldMT-73" transform="translate(3144.628906 0)"/>
    </g>
    <!-- by affiliation category, 2000-2025 -->
    <g transform="translate(175.560937 32.568) scale(0.14 -0.14)">
     <defs>
      <path id="Arial-BoldMT-79" d="M 44 3319 
L 978 3319 
L 1772 963 
L 2547 3319 
L 3456 3319 
L 2284 125 
L 2075 -453 
Q 1959 -744 1854 -897 
Q 1750 -1050 1614 -1145 
Q 1478 -1241 1279 -1294 
Q 1081 -1347 831 -1347 
Q 578 -1347 334 -1294 
L 256 -606 
Q 463 -647 628 -647 
Q 934 -647 1081 -467 
Q 1228 -288 1306 -9 
L 44 3319 
z
" transform="scale(0.015625)"/>
      <path id="Arial-BoldMT-66" d="M 75 3319 
L 563 3319 
L 563 3569 
Q 563 3988 652 4194 
Q 741 4400 980 4529 
Q 1219 4659 1584 4659 
Q 1959 4659 2319 4547 
L 2200 3934 
Q 1991 3984 1797 3984 
Q 1606 3984 1523 3895 
Q 1441 3806 1441 3553 
L 1441 3319 
L 2097 3319 
L 2097 2628 
L 1441 2628 
L 1441 0 
L 563 0 
L 563 2628 
L 75 2628 
L 75 3319 
z
" transform="scale(0.015625)"/>
      <path id="Arial-BoldMT-2c" d="M 438 878 
L 1316 878 
L 1316 250 
Q 1316 -131 1250 -351 
Q 1184 -572 1001 -747 
Q 819 -922 538 -1022 
L 366 -659 
Q 631 -572 743 -419 
Q 856 -266 863 0 
L 438 0 
L 438 878 
z
" transform="scale(0.015625)"/>
      <path id="Arial-BoldMT-32" d="M 3238 816 
L 3238 0 
L 159 0 
Q 209 463 459 877 
Q 709 1291 1447 1975 
Q 2041 2528 2175 2725 
Q 2356 2997 2356 3263 
Q 2356 3556 2198 3714 
Q 2041 3872 1763 3872 
Q 1488 3872 1325 3706 
Q 1163 3541 1138 3156 
L 263 3244 
Q 341 3969 753 4284 
Q 1166 4600 1784 4600 
Q 2463 4600 2850 4234 
Q 3238 3869 3238 3325 
Q 3238 3016 3127 2736 
Q 3016 2456 2775 2150 
Q 2616 1947 2200 1565 
Q 1784 1184 1673 1059 
Q 1563 934 1494 816 
L 3238 816 
z
" transform="scale(0.015625)"/>
      <path id="Arial-BoldMT-30" d="M 1756 4600 
Q 2422 4600 2797 4125 
Q 3244 3563 3244 2259 
Q 3244 959 2794 391 
Q 2422 -78 1756 -78 
Q 1088 -78 678 436 
Q 269 950 269 2269 
Q 269 3563 719 4131 
Q 1091 4600 1756 4600 
z
M 1756 3872 
Q 1597 3872 1472 3770 
Q 1347 3669 1278 3406 
Q 1188 3066 1188 2259 
Q 1188 1453 1269 1151 
Q 1350 850 1473 750 
Q 1597 650 1756 650 
Q 1916 650 2041 751 
Q 2166 853 2234 1116 
Q 2325 1453 2325 2259 
Q 2325 3066 2244 3367 
Q 2163 3669 2039 3770 
Q 1916 3872 1756 3872 
z
" transform="scale(0.015625)"/>
      <path id="Arial-BoldMT-2d" d="M 359 1222 
L 359 2100 
L 2084 2100 
L 2084 1222 
L 359 1222 
z
" transform="scale(0.015625)"/>
      <path id="Arial-BoldMT-35" d="M 284 1178 
L 1159 1269 
Q 1197 972 1381 798 
Q 1566 625 1806 625 
Q 2081 625 2272 848 
Q 2463 1072 2463 1522 
Q 2463 1944 2273 2155 
Q 2084 2366 1781 2366 
Q 1403 2366 1103 2031 
L 391 2134 
L 841 4519 
L 3163 4519 
L 3163 3697 
L 1506 3697 
L 1369 2919 
Q 1663 3066 1969 3066 
Q 2553 3066 2959 2641 
Q 3366 2216 3366 1538 
Q 3366 972 3038 528 
Q 2591 -78 1797 -78 
Q 1163 -78 763 262 
Q 363 603 284 1178 
z
" transform="scale(0.015625)"/>
     </defs>
     <use xlink:href="#Arial-BoldMT-62"/>
     <use xlink:href="#Arial-BoldMT-79" transform="translate(61.083984 0)"/>
     <use xlink:href="#Arial-BoldMT-20" transform="translate(116.699219 0)"/>
     <use xlink:href="#Arial-BoldMT-61" transform="translate(144.482422 0)"/>
     <use xlink:href="#Arial-BoldMT-66" transform="translate(200.097656 0)"/>
     <use xlink:href="#Arial-BoldMT-66" transform="translate(233.398438 0)"/>
     <use xlink:href="#Arial-BoldMT-69" transform="translate(266.699219 0)"/>
     <use xlink:href="#Arial-BoldMT-6c" transform="translate(294.482422 0)"/>
     <use xlink:href="#Arial-BoldMT-69" transform="translate(322.265625 0)"/>
     <use xlink:href="#Arial-BoldMT-61" transform="translate(350.048828 0)"/>
     <use xlink:href="#Arial-BoldMT-74" transform="translate(405.664062 0)"/>
     <use xlink:href="#Arial-BoldMT-69" transform="translate(438.964844 0)"/>
     <use xlink:href="#Arial-BoldMT-6f" transform="translate(466.748047 0)"/>
     <use xlink:href="#Arial-BoldMT-6e" transform="translate(527.832031 0)"/>
     <use xlink:href="#Arial-BoldMT-20" transform="translate(588.916016 0)"/>
     <use xlink:href="#Arial-BoldMT-63" transform="translate(616.699219 0)"/>
     <use xlink:href="#Arial-BoldMT-61" transform="translate(672.314453 0)"/>
     <use xlink:href="#Arial-BoldMT-74" transform="translate(727.929688 0)"/>
     <use xlink:href="#Arial-BoldMT-65" transform="translate(761.230469 0)"/>
     <use xlink:href="#Arial-BoldMT-67" transform="translate(816.845703 0)"/>
     <use xlink:href="#Arial-BoldMT-6f" transform="translate(877.929688 0)"/>
     <use xlink:href="#Arial-BoldMT-72" transform="translate(939.013672 0)"/>
     <use xlink:href="#Arial-BoldMT-79" transform="translate(977.929688 0)"/>
     <use xlink:href="#Arial-BoldMT-2c" transform="translate(1026.169922 0)"/>
     <use xlink:href="#Arial-BoldMT-20" transform="translate(1053.953125 0)"/>
     <use xlink:href="#Arial-BoldMT-32" transform="translate(1081.736328 0)"/>
     <use xlink:href="#Arial-BoldMT-30" transform="translate(1137.351562 0)"/>
     <use xlink:href="#Arial-BoldMT-30" transform="translate(1192.966797 0)"/>
     <use xlink:href="#Arial-BoldMT-30" transform="translate(1248.582031 0)"/>
     <use xlink:href="#Arial-BoldMT-2d" transform="translate(1304.197266 0)"/>
     <use xlink:href="#Arial-BoldMT-32" transform="translate(1337.498047 0)"/>
     <use xlink:href="#Arial-BoldMT-30" transform="translate(1393.113281 0)"/>
     <use xlink:href="#Arial-BoldMT-32" transform="translate(1448.728516 0)"/>
     <use xlink:href="#Arial-BoldMT-35" transform="translate(1504.34375 0)"/>
    </g>
   </g>
   <g id="legend_1">
    <g id="patch_5">
     <path d="M 429.716406 83.960344 
L 517.051563 83.960344 
Q 518.851562 83.960344 518.851562 82.160344 
L 518.851562 44.868 
Q 518.851562 43.068 517.051563 43.068 
L 429.716406 43.068 
Q 427.916406 43.068 427.916406 44.868 
L 427.916406 82.160344 
Q 427.916406 83.960344 429.716406 83.960344 
z
" style="fill: #ffffff; opacity: 0.8; stroke: #cccccc; stroke-linejoin: miter"/>
    </g>
    <g id="line2d_25">
     <path d="M 431.516406 49.960031 
L 440.516406 49.960031 
L 449.516406 49.960031 
" style="fill: none; stroke: #2e7d32; stroke-width: 2; stroke-linecap: square"/>
     <g>
      <use xlink:href="#mdcfbfd0666" x="440.516406" y="49.960031" style="fill: #2e7d32; stroke: #2e7d32"/>
     </g>
    </g>
    <g id="text_16">
     <!-- Ghanaian -->
     <g transform="translate(456.716406 53.110031) scale(0.09 -0.09)">
      <defs>
       <path id="ArialMT-47" d="M 2638 1797 
L 2638 2334 
L 4578 2338 
L 4578 638 
Q 4131 281 3656 101 
Q 3181 -78 2681 -78 
Q 2006 -78 1454 211 
Q 903 500 622 1047 
Q 341 1594 341 2269 
Q 341 2938 620 3517 
Q 900 4097 1425 4378 
Q 1950 4659 2634 4659 
Q 3131 4659 3532 4498 
Q 3934 4338 4162 4050 
Q 4391 3763 4509 3300 
L 3963 3150 
Q 3859 3500 3706 3700 
Q 3553 3900 3268 4020 
Q 2984 4141 2638 4141 
Q 2222 4141 1919 4014 
Q 1616 3888 1430 3681 
Q 1244 3475 1141 3228 
Q 966 2803 966 2306 
Q 966 1694 1177 1281 
Q 1388 869 1791 669 
Q 2194 469 2647 469 
Q 3041 469 3416 620 
Q 3791 772 3984 944 
L 3984 1797 
L 2638 1797 
z
" transform="scale(0.015625)"/>
       <path id="ArialMT-68" d="M 422 0 
L 422 4581 
L 984 4581 
L 984 2938 
Q 1378 3394 1978 3394 
Q 2347 3394 2619 3248 
Q 2891 3103 3008 2847 
Q 3125 2591 3125 2103 
L 3125 0 
L 2563 0 
L 2563 2103 
Q 2563 2525 2380 2717 
Q 2197 2909 1863 2909 
Q 1613 2909 1392 2779 
Q 1172 2650 1078 2428 
Q 984 2206 984 1816 
L 984 0 
L 422 0 
z
" transform="scale(0.015625)"/>
       <path id="ArialMT-69" d="M 425 3934 
L 425 4581 
L 988 4581 
L 988 3934 
L 425 3934 
z
M 425 0 
L 425 3319 
L 988 3319 
L 988 0 
L 425 0 
z
" transform="scale(0.015625)"/>
      </defs>
      <use xlink:href="#ArialMT-47"/>
      <use xlink:href="#ArialMT-68" transform="translate(77.783203 0)"/>
      <use xlink:href="#ArialMT-61" transform="translate(133.398438 0)"/>
      <use xlink:href="#ArialMT-6e" transform="translate(189.013672 0)"/>
      <use xlink:href="#ArialMT-61" transform="translate(244.628906 0)"/>
      <use xlink:href="#ArialMT-69" transform="translate(300.244141 0)"/>
      <use xlink:href="#ArialMT-61" transform="translate(322.460938 0)"/>
      <use xlink:href="#ArialMT-6e" transform="translate(378.076172 0)"/>
     </g>
    </g>
    <g id="line2d_26">
     <path d="M 431.516406 62.690812 
L 440.516406 62.690812 
L 449.516406 62.690812 
" style="fill: none; stroke: #f9a825; stroke-width: 2; stroke-linecap: square"/>
     <g>
      <use xlink:href="#mcddf404db1" x="440.516406" y="62.690812" style="fill: #f9a825; stroke: #f9a825; stroke-linejoin: miter"/>
     </g>
    </g>
    <g id="text_17">
     <!-- Dual-affiliated -->
     <g transform="translate(456.716406 65.840812) scale(0.09 -0.09)">
      <defs>
       <path id="ArialMT-44" d="M 494 0 
L 494 4581 
L 2072 4581 
Q 2606 4581 2888 4516 
Q 3281 4425 3559 4188 
Q 3922 3881 4101 3404 
Q 4281 2928 4281 2316 
Q 4281 1794 4159 1391 
Q 4038 988 3847 723 
Q 3656 459 3429 307 
Q 3203 156 2883 78 
Q 2563 0 2147 0 
L 494 0 
z
M 1100 541 
L 2078 541 
Q 2531 541 2789 625 
Q 3047 709 3200 863 
Q 3416 1078 3536 1442 
Q 3656 1806 3656 2325 
Q 3656 3044 3420 3430 
Q 3184 3816 2847 3947 
Q 2603 4041 2063 4041 
L 1100 4041 
L 1100 541 
z
" transform="scale(0.015625)"/>
       <path id="ArialMT-75" d="M 2597 0 
L 2597 488 
Q 2209 -75 1544 -75 
Q 1250 -75 995 37 
Q 741 150 617 320 
Q 494 491 444 738 
Q 409 903 409 1263 
L 409 3319 
L 972 3319 
L 972 1478 
Q 972 1038 1006 884 
Q 1059 663 1231 536 
Q 1403 409 1656 409 
Q 1909 409 2131 539 
Q 2353 669 2445 892 
Q 2538 1116 2538 1541 
L 2538 3319 
L 3100 3319 
L 3100 0 
L 2597 0 
z
" transform="scale(0.015625)"/>
       <path id="ArialMT-6c" d="M 409 0 
L 409 4581 
L 972 4581 
L 972 0 
L 409 0 
z
" transform="scale(0.015625)"/>
       <path id="ArialMT-2d" d="M 203 1375 
L 203 1941 
L 1931 1941 
L 1931 1375 
L 203 1375 
z
" transform="scale(0.015625)"/>
       <path id="ArialMT-66" d="M 556 0 
L 556 2881 
L 59 2881 
L 59 3319 
L 556 3319 
L 556 3672 
Q 556 4006 616 4169 
Q 697 4388 901 4523 
Q 1106 4659 1475 4659 
Q 1713 4659 2000 4603 
L 1916 4113 
Q 1741 4144 1584 4144 
Q 1328 4144 1222 4034 
Q 1116 3925 1116 3625 
L 1116 3319 
L 1763 3319 
L 1763 2881 
L 1116 2881 
L 1116 0 
L 556 0 
z
" transform="scale(0.015625)"/>
       <path id="ArialMT-64" d="M 2575 0 
L 2575 419 
Q 2259 -75 1647 -75 
Q 1250 -75 917 144 
Q 584 363 401 755 
Q 219 1147 219 1656 
Q 219 2153 384 2558 
Q 550 2963 881 3178 
Q 1213 3394 1622 3394 
Q 1922 3394 2156 3267 
Q 2391 3141 2538 2938 
L 2538 4581 
L 3097 4581 
L 3097 0 
L 2575 0 
z
M 797 1656 
Q 797 1019 1065 703 
Q 1334 388 1700 388 
Q 2069 388 2326 689 
Q 2584 991 2584 1609 
Q 2584 2291 2321 2609 
Q 2059 2928 1675 2928 
Q 1300 2928 1048 2622 
Q 797 2316 797 1656 
z
" transform="scale(0.015625)"/>
      </defs>
      <use xlink:href="#ArialMT-44"/>
      <use xlink:href="#ArialMT-75" transform="translate(72.216797 0)"/>
      <use xlink:href="#ArialMT-61" transform="translate(127.832031 0)"/>
      <use xlink:href="#ArialMT-6c" transform="translate(183.447266 0)"/>
      <use xlink:href="#ArialMT-2d" transform="translate(205.664062 0)"/>
      <use xlink:href="#ArialMT-61" transform="translate(238.964844 0)"/>
      <use xlink:href="#ArialMT-66" transform="translate(294.580078 0)"/>
      <use xlink:href="#ArialMT-66" transform="translate(320.613281 0)"/>
      <use xlink:href="#ArialMT-69" transform="translate(348.396484 0)"/>
      <use xlink:href="#ArialMT-6c" transform="translate(370.613281 0)"/>
      <use xlink:href="#ArialMT-69" transform="translate(392.830078 0)"/>
      <use xlink:href="#ArialMT-61" transform="translate(415.046875 0)"/>
      <use xlink:href="#ArialMT-74" transform="translate(470.662109 0)"/>
      <use xlink:href="#ArialMT-65" transform="translate(498.445312 0)"/>
      <use xlink:href="#ArialMT-64" transform="translate(554.060547 0)"/>
     </g>
    </g>
    <g id="line2d_27">
     <path d="M 431.516406 75.421594 
L 440.516406 75.421594 
L 449.516406 75.421594 
" style="fill: none; stroke: #1565c0; stroke-width: 2; stroke-linecap: square"/>
     <g>
      <use xlink:href="#m493b039726" x="440.516406" y="75.421594" style="fill: #1565c0; stroke: #1565c0; stroke-linejoin: miter"/>
     </g>
    </g>
    <g id="text_18">
     <!-- Non-Ghanaian -->
     <g transform="translate(456.716406 78.571594) scale(0.09 -0.09)">
      <defs>
       <path id="ArialMT-4e" d="M 488 0 
L 488 4581 
L 1109 4581 
L 3516 984 
L 3516 4581 
L 4097 4581 
L 4097 0 
L 3475 0 
L 1069 3600 
L 1069 0 
L 488 0 
z
" transform="scale(0.015625)"/>
       <path id="ArialMT-6f" d="M 213 1659 
Q 213 2581 725 3025 
Q 1153 3394 1769 3394 
Q 2453 3394 2887 2945 
Q 3322 2497 3322 1706 
Q 3322 1066 3130 698 
Q 2938 331 2570 128 
Q 2203 -75 1769 -75 
Q 1072 -75 642 372 
Q 213 819 213 1659 
z
M 791 1659 
Q 791 1022 1069 705 
Q 1347 388 1769 388 
Q 2188 388 2466 706 
Q 2744 1025 2744 1678 
Q 2744 2294 2464 2611 
Q 2184 2928 1769 2928 
Q 1347 2928 1069 2612 
Q 791 2297 791 1659 
z
" transform="scale(0.015625)"/>
      </defs>
      <use xlink:href="#ArialMT-4e"/>
      <use xlink:href="#ArialMT-6f" transform="translate(72.216797 0)"/>
      <use xlink:href="#ArialMT-6e" transform="translate(127.832031 0)"/>
      <use xlink:href="#ArialMT-2d" transform="translate(183.447266 0)"/>
      <use xlink:href="#ArialMT-47" transform="translate(216.748047 0)"/>
      <use xlink:href="#ArialMT-68" transform="translate(294.53125 0)"/>
      <use xlink:href="#ArialMT-61" transform="translate(350.146484 0)"/>
      <use xlink:href="#ArialMT-6e" transform="translate(405.761719 0)"/>
      <use xlink:href="#ArialMT-61" transform="translate(461.376953 0)"/>
      <use xlink:href="#ArialMT-69" transform="translate(516.992188 0)"/>
      <use xlink:href="#ArialMT-61" transform="translate(539.208984 0)"/>
      <use xlink:href="#ArialMT-6e" transform="translate(594.824219 0)"/>
     </g>
    </g>
   </g>
  </g>
  <g id="axes_2">
   <g id="patch_6">
    <path d="M 67.835312 314.032 
L 81.28725 314.032 
L 81.28725 63.610182 
L 67.835312 63.610182 
z
" clip-path="url(#p9907b7edab)" style="fill: #9e9e9e; opacity: 0.15"/>
   </g>
   <g id="patch_7">
    <path d="M 84.650235 314.032 
L 98.102173 314.032 
L 98.102173 63.610182 
L 84.650235 63.610182 
z
" clip-path="url(#p9907b7edab)" style="fill: #9e9e9e; opacity: 0.15"/>
   </g>
   <g id="patch_8">
    <path d="M 101.465157 314.032 
L 114.917095 314.032 
L 114.917095 63.610182 
L 101.465157 63.610182 
z
" clip-path="url(#p9907b7edab)" style="fill: #9e9e9e; opacity: 0.15"/>
   </g>
   <g id="patch_9">
    <path d="M 118.28008 314.032 
L 131.732018 314.032 
L 131.732018 63.610182 
L 118.28008 63.610182 
z
" clip-path="url(#p9907b7edab)" style="fill: #9e9e9e; opacity: 0.15"/>
   </g>
   <g id="patch_10">
    <path d="M 135.095002 314.032 
L 148.54694 314.032 
L 148.54694 63.610182 
L 135.095002 63.610182 
z
" clip-path="url(#p9907b7edab)" style="fill: #9e9e9e; opacity: 0.15"/>
   </g>
   <g id="patch_11">
    <path d="M 151.909925 314.032 
L 165.361863 314.032 
L 165.361863 63.610182 
L 151.909925 63.610182 
z
" clip-path="url(#p9907b7edab)" style="fill: #9e9e9e; opacity: 0.15"/>
   </g>
   <g id="patch_12">
    <path d="M 168.724847 314.032 
L 182.176785 314.032 
L 182.176785 63.610182 
L 168.724847 63.610182 
z
" clip-path="url(#p9907b7edab)" style="fill: #9e9e9e; opacity: 0.15"/>
   </g>
   <g id="patch_13">
    <path d="M 185.53977 314.032 
L 198.991708 314.032 
L 198.991708 63.610182 
L 185.53977 63.610182 
z
" clip-path="url(#p9907b7edab)" style="fill: #9e9e9e; opacity: 0.15"/>
   </g>
   <g id="patch_14">
    <path d="M 202.354692 314.032 
L 215.80663 314.032 
L 215.80663 63.610182 
L 202.354692 63.610182 
z
" clip-path="url(#p9907b7edab)" style="fill: #9e9e9e; opacity: 0.15"/>
   </g>
   <g id="patch_15">
    <path d="M 219.169615 314.032 
L 232.621553 314.032 
L 232.621553 63.610182 
L 219.169615 63.610182 
z
" clip-path="url(#p9907b7edab)" style="fill: #9e9e9e; opacity: 0.15"/>
   </g>
   <g id="patch_16">
    <path d="M 235.984537 314.032 
L 249.436475 314.032 
L 249.436475 63.610182 
L 235.984537 63.610182 
z
" clip-path="url(#p9907b7edab)" style="fill: #9e9e9e; opacity: 0.15"/>
   </g>
   <g id="patch_17">
    <path d="M 252.79946 314.032 
L 266.251398 314.032 
L 266.251398 63.610182 
L 252.79946 63.610182 
z
" clip-path="url(#p9907b7edab)" style="fill: #9e9e9e; opacity: 0.15"/>
   </g>
   <g id="patch_18">
    <path d="M 269.614382 314.032 
L 283.06632 314.032 
L 283.06632 64.111025 
L 269.614382 64.111025 
z
" clip-path="url(#p9907b7edab)" style="fill: #9e9e9e; opacity: 0.15"/>
   </g>
   <g id="patch_19">
    <path d="M 286.429305 314.032 
L 299.881243 314.032 
L 299.881243 63.610182 
L 286.429305 63.610182 
z
" clip-path="url(#p9907b7edab)" style="fill: #9e9e9e; opacity: 0.15"/>
   </g>
   <g id="patch_20">
    <path d="M 303.244227 314.032 
L 316.696165 314.032 
L 316.696165 64.361447 
L 303.244227 64.361447 
z
" clip-path="url(#p9907b7edab)" style="fill: #9e9e9e; opacity: 0.15"/>
   </g>
   <g id="patch_21">
    <path d="M 320.05915 314.032 
L 333.511088 314.032 
L 333.511088 63.610182 
L 320.05915 63.610182 
z
" clip-path="url(#p9907b7edab)" style="fill: #9e9e9e; opacity: 0.15"/>
   </g>
   <g id="patch_22">
    <path d="M 336.874072 314.032 
L 350.32601 314.032 
L 350.32601 63.610182 
L 336.874072 63.610182 
z
" clip-path="url(#p9907b7edab)" style="fill: #9e9e9e; opacity: 0.15"/>
   </g>
   <g id="patch_23">
    <path d="M 353.688995 314.032 
L 367.140933 314.032 
L 367.140933 63.610182 
L 353.688995 63.610182 
z
" clip-path="url(#p9907b7edab)" style="fill: #9e9e9e; opacity: 0.15"/>
   </g>
   <g id="patch_24">
    <path d="M 370.503917 314.032 
L 383.955855 314.032 
L 383.955855 63.610182 
L 370.503917 63.610182 
z
" clip-path="url(#p9907b7edab)" style="fill: #9e9e9e; opacity: 0.15"/>
   </g>
   <g id="patch_25">
    <path d="M 387.31884 314.032 
L 400.770778 314.032 
L 400.770778 63.860604 
L 387.31884 63.860604 
z
" clip-path="url(#p9907b7edab)" style="fill: #9e9e9e; opacity: 0.15"/>
   </g>
   <g id="patch_26">
    <path d="M 404.133762 314.032 
L 417.5857 314.032 
L 417.5857 63.610182 
L 404.133762 63.610182 
z
" clip-path="url(#p9907b7edab)" style="fill: #9e9e9e; opacity: 0.15"/>
   </g>
   <g id="patch_27">
    <path d="M 420.948685 314.032 
L 434.400623 314.032 
L 434.400623 63.860604 
L 420.948685 63.860604 
z
" clip-path="url(#p9907b7edab)" style="fill: #9e9e9e; opacity: 0.15"/>
   </g>
   <g id="patch_28">
    <path d="M 437.763607 314.032 
L 451.215545 314.032 
L 451.215545 63.860604 
L 437.763607 63.860604 
z
" clip-path="url(#p9907b7edab)" style="fill: #9e9e9e; opacity: 0.15"/>
   </g>
   <g id="patch_29">
    <path d="M 454.57853 314.032 
L 468.030468 314.032 
L 468.030468 64.111025 
L 454.57853 64.111025 
z
" clip-path="url(#p9907b7edab)" style="fill: #9e9e9e; opacity: 0.15"/>
   </g>
   <g id="patch_30">
    <path d="M 471.393452 314.032 
L 484.84539 314.032 
L 484.84539 63.860604 
L 471.393452 63.860604 
z
" clip-path="url(#p9907b7edab)" style="fill: #9e9e9e; opacity: 0.15"/>
   </g>
   <g id="patch_31">
    <path d="M 488.208375 314.032 
L 501.660312 314.032 
L 501.660312 63.610182 
L 488.208375 63.610182 
z
" clip-path="url(#p9907b7edab)" style="fill: #9e9e9e; opacity: 0.15"/>
   </g>
   <g id="matplotlib.axis_3">
    <g id="ytick_7">
     <g id="line2d_28">
      <defs>
       <path id="m895e480211" d="M 0 0 
L 3.5 0 
" style="stroke: #9e9e9e; stroke-width: 0.8"/>
      </defs>
      <g>
       <use xlink:href="#m895e480211" x="523.351562" y="314.032" style="fill: #9e9e9e; stroke: #9e9e9e; stroke-width: 0.8"/>
      </g>
     </g>
     <g id="text_19">
      <!-- 0 -->
      <g style="fill: #9e9e9e" transform="translate(530.351562 317.610906) scale(0.1 -0.1)">
       <use xlink:href="#ArialMT-30"/>
      </g>
     </g>
    </g>
    <g id="ytick_8">
     <g id="line2d_29">
      <g>
       <use xlink:href="#m895e480211" x="523.351562" y="263.947636" style="fill: #9e9e9e; stroke: #9e9e9e; stroke-width: 0.8"/>
      </g>
     </g>
     <g id="text_20">
      <!-- 20 -->
      <g style="fill: #9e9e9e" transform="translate(530.351562 267.526543) scale(0.1 -0.1)">
       <use xlink:href="#ArialMT-32"/>
       <use xlink:href="#ArialMT-30" transform="translate(55.615234 0)"/>
      </g>
     </g>
    </g>
    <g id="ytick_9">
     <g id="line2d_30">
      <g>
       <use xlink:href="#m895e480211" x="523.351562" y="213.863273" style="fill: #9e9e9e; stroke: #9e9e9e; stroke-width: 0.8"/>
      </g>
     </g>
     <g id="text_21">
      <!-- 40 -->
      <g style="fill: #9e9e9e" transform="translate(530.351562 217.442179) scale(0.1 -0.1)">
       <use xlink:href="#ArialMT-34"/>
       <use xlink:href="#ArialMT-30" transform="translate(55.615234 0)"/>
      </g>
     </g>
    </g>
    <g id="ytick_10">
     <g id="line2d_31">
      <g>
       <use xlink:href="#m895e480211" x="523.351562" y="163.778909" style="fill: #9e9e9e; stroke: #9e9e9e; stroke-width: 0.8"/>
      </g>
     </g>
     <g id="text_22">
      <!-- 60 -->
      <g style="fill: #9e9e9e" transform="translate(530.351562 167.357815) scale(0.1 -0.1)">
       <use xlink:href="#ArialMT-36"/>
       <use xlink:href="#ArialMT-30" transform="translate(55.615234 0)"/>
      </g>
     </g>
    </g>
    <g id="ytick_11">
     <g id="line2d_32">
      <g>
       <use xlink:href="#m895e480211" x="523.351562" y="113.694545" style="fill: #9e9e9e; stroke: #9e9e9e; stroke-width: 0.8"/>
      </g>
     </g>
     <g id="text_23">
      <!-- 80 -->
      <g style="fill: #9e9e9e" transform="translate(530.351562 117.273452) scale(0.1 -0.1)">
       <use xlink:href="#ArialMT-38"/>
       <use xlink:href="#ArialMT-30" transform="translate(55.615234 0)"/>
      </g>
     </g>
    </g>
    <g id="ytick_12">
     <g id="line2d_33">
      <g>
       <use xlink:href="#m895e480211" x="523.351562" y="63.610182" style="fill: #9e9e9e; stroke: #9e9e9e; stroke-width: 0.8"/>
      </g>
     </g>
     <g id="text_24">
      <!-- 100 -->
      <g style="fill: #9e9e9e" transform="translate(530.351562 67.189088) scale(0.1 -0.1)">
       <use xlink:href="#ArialMT-31"/>
       <use xlink:href="#ArialMT-30" transform="translate(55.615234 0)"/>
       <use xlink:href="#ArialMT-30" transform="translate(111.230469 0)"/>
      </g>
     </g>
    </g>
    <g id="text_25">
     <!-- Corresponding Author Coverage (%) -->
     <g style="fill: #9e9e9e" transform="translate(559.77 273.34625) rotate(-90) scale(0.12 -0.12)">
      <defs>
       <path id="ArialMT-43" d="M 3763 1606 
L 4369 1453 
Q 4178 706 3683 314 
Q 3188 -78 2472 -78 
Q 1731 -78 1267 223 
Q 803 525 561 1097 
Q 319 1669 319 2325 
Q 319 3041 592 3573 
Q 866 4106 1370 4382 
Q 1875 4659 2481 4659 
Q 3169 4659 3637 4309 
Q 4106 3959 4291 3325 
L 3694 3184 
Q 3534 3684 3231 3912 
Q 2928 4141 2469 4141 
Q 1941 4141 1586 3887 
Q 1231 3634 1087 3207 
Q 944 2781 944 2328 
Q 944 1744 1114 1308 
Q 1284 872 1643 656 
Q 2003 441 2422 441 
Q 2931 441 3284 734 
Q 3638 1028 3763 1606 
z
" transform="scale(0.015625)"/>
       <path id="ArialMT-73" d="M 197 991 
L 753 1078 
Q 800 744 1014 566 
Q 1228 388 1613 388 
Q 2000 388 2187 545 
Q 2375 703 2375 916 
Q 2375 1106 2209 1216 
Q 2094 1291 1634 1406 
Q 1016 1563 777 1677 
Q 538 1791 414 1992 
Q 291 2194 291 2438 
Q 291 2659 392 2848 
Q 494 3038 669 3163 
Q 800 3259 1026 3326 
Q 1253 3394 1513 3394 
Q 1903 3394 2198 3281 
Q 2494 3169 2634 2976 
Q 2775 2784 2828 2463 
L 2278 2388 
Q 2241 2644 2061 2787 
Q 1881 2931 1553 2931 
Q 1166 2931 1000 2803 
Q 834 2675 834 2503 
Q 834 2394 903 2306 
Q 972 2216 1119 2156 
Q 1203 2125 1616 2013 
Q 2213 1853 2448 1751 
Q 2684 1650 2818 1456 
Q 2953 1263 2953 975 
Q 2953 694 2789 445 
Q 2625 197 2315 61 
Q 2006 -75 1616 -75 
Q 969 -75 630 194 
Q 291 463 197 991 
z
" transform="scale(0.015625)"/>
       <path id="ArialMT-70" d="M 422 -1272 
L 422 3319 
L 934 3319 
L 934 2888 
Q 1116 3141 1344 3267 
Q 1572 3394 1897 3394 
Q 2322 3394 2647 3175 
Q 2972 2956 3137 2557 
Q 3303 2159 3303 1684 
Q 3303 1175 3120 767 
Q 2938 359 2589 142 
Q 2241 -75 1856 -75 
Q 1575 -75 1351 44 
Q 1128 163 984 344 
L 984 -1272 
L 422 -1272 
z
M 931 1641 
Q 931 1000 1190 694 
Q 1450 388 1819 388 
Q 2194 388 2461 705 
Q 2728 1022 2728 1688 
Q 2728 2322 2467 2637 
Q 2206 2953 1844 2953 
Q 1484 2953 1207 2617 
Q 931 2281 931 1641 
z
" transform="scale(0.015625)"/>
       <path id="ArialMT-41" d="M -9 0 
L 1750 4581 
L 2403 4581 
L 4278 0 
L 3588 0 
L 3053 1388 
L 1138 1388 
L 634 0 
L -9 0 
z
M 1313 1881 
L 2866 1881 
L 2388 3150 
Q 2169 3728 2063 4100 
Q 1975 3659 1816 3225 
L 1313 1881 
z
" transform="scale(0.015625)"/>
       <path id="ArialMT-76" d="M 1344 0 
L 81 3319 
L 675 3319 
L 1388 1331 
Q 1503 1009 1600 663 
Q 1675 925 1809 1294 
L 2547 3319 
L 3125 3319 
L 1869 0 
L 1344 0 
z
" transform="scale(0.015625)"/>
      </defs>
      <use xlink:href="#ArialMT-43"/>
      <use xlink:href="#ArialMT-6f" transform="translate(72.216797 0)"/>
      <use xlink:href="#ArialMT-72" transform="translate(127.832031 0)"/>
      <use xlink:href="#ArialMT-72" transform="translate(161.132812 0)"/>
      <use xlink:href="#ArialMT-65" transform="translate(194.433594 0)"/>
      <use xlink:href="#ArialMT-73" transform="translate(250.048828 0)"/>
      <use xlink:href="#ArialMT-70" transform="translate(300.048828 0)"/>
      <use xlink:href="#ArialMT-6f" transform="translate(355.664062 0)"/>
      <use xlink:href="#ArialMT-6e" transform="translate(411.279297 0)"/>
      <use xlink:href="#ArialMT-64" transform="translate(466.894531 0)"/>
      <use xlink:href="#ArialMT-69" transform="translate(522.509766 0)"/>
      <use xlink:href="#ArialMT-6e" transform="translate(544.726562 0)"/>
      <use xlink:href="#ArialMT-67" transform="translate(600.341797 0)"/>
      <use xlink:href="#ArialMT-20" transform="translate(655.957031 0)"/>
      <use xlink:href="#ArialMT-41" transform="translate(678.240234 0)"/>
      <use xlink:href="#ArialMT-75" transform="translate(744.939453 0)"/>
      <use xlink:href="#ArialMT-74" transform="translate(800.554688 0)"/>
      <use xlink:href="#ArialMT-68" transform="translate(828.337891 0)"/>
      <use xlink:href="#ArialMT-6f" transform="translate(883.953125 0)"/>
      <use xlink:href="#ArialMT-72" transform="translate(939.568359 0)"/>
      <use xlink:href="#ArialMT-20" transform="translate(972.869141 0)"/>
      <use xlink:href="#ArialMT-43" transform="translate(1000.652344 0)"/>
      <use xlink:href="#ArialMT-6f" transform="translate(1072.869141 0)"/>
      <use xlink:href="#ArialMT-76" transform="translate(1128.484375 0)"/>
      <use xlink:href="#ArialMT-65" transform="translate(1178.484375 0)"/>
      <use xlink:href="#ArialMT-72" transform="translate(1234.099609 0)"/>
      <use xlink:href="#ArialMT-61" transform="translate(1267.400391 0)"/>
      <use xlink:href="#ArialMT-67" transform="translate(1323.015625 0)"/>
      <use xlink:href="#ArialMT-65" transform="translate(1378.630859 0)"/>
      <use xlink:href="#ArialMT-20" transform="translate(1434.246094 0)"/>
      <use xlink:href="#ArialMT-28" transform="translate(1462.029297 0)"/>
      <use xlink:href="#ArialMT-25" transform="translate(1495.330078 0)"/>
      <use xlink:href="#ArialMT-29" transform="translate(1584.246094 0)"/>
     </g>
    </g>
   </g>
   <g id="patch_32">
    <path d="M 46.144063 314.032 
L 46.144063 38.568 
" style="fill: none; stroke: #000000; stroke-width: 0.8; stroke-linejoin: miter; stroke-linecap: square"/>
   </g>
   <g id="patch_33">
    <path d="M 523.351562 314.032 
L 523.351562 38.568 
" style="fill: none; stroke: #000000; stroke-width: 0.8; stroke-linejoin: miter; stroke-linecap: square"/>
   </g>
   <g id="patch_34">
    <path d="M 46.144063 314.032 
L 523.351562 314.032 
" style="fill: none; stroke: #000000; stroke-width: 0.8; stroke-linejoin: miter; stroke-linecap: square"/>
   </g>
   <g id="patch_35">
    <path d="M 46.144063 38.568 
L 523.351562 38.568 
" style="fill: none; stroke: #000000; stroke-width: 0.8; stroke-linejoin: miter; stroke-linecap: square"/>
   </g>
  </g>
 </g>
 <defs>
  <clipPath id="p9907b7edab">
   <rect x="46.144063" y="38.568" width="477.2075" height="275.464"/>
  </clipPath>
 </defs>
</svg>
