<?xml version="1.0" encoding="utf-8" standalone="no"?>
<!DOCTYPE svg PUBLIC "-//W3C//DTD SVG 1.1//EN"
  "http://www.w3.org/Graphics/SVG/1.1/DTD/svg11.dtd">
<svg xmlns:xlink="http://www.w3.org/1999/xlink" width="568.898125pt" height="352.15125pt" viewBox="0 0 568.898125 352.15125" xmlns="http://www.w3.org/2000/svg" version="1.1">
 <metadata>
  <rdf:RDF xmlns:dc="http://purl.org/dc/elements/1.1/" xmlns:cc="http://creativecommons.org/ns#" xmlns:rdf="http://www.w3.org/1999/02/22-rdf-syntax-ns#">
   <cc:Work>
    <dc:type rdf:resource="http://purl.org/dc/dcmitype/StillImage"/>
    <dc:date>2026-04-10T02:04:45.750033</dc:date>
    <dc:format>image/svg+xml</dc:format>
    <dc:creator>
     <cc:Agent>
      <dc:title>Matplotlib v3.10.8, https://matplotlib.org/</dc:title>
     </cc:Agent>
    </dc:creator>
   </cc:Work>
  </rdf:RDF>
 </metadata>
 <defs>
  <style type="text/css">*{stroke-linejoin: round; stroke-linecap: butt}</style>
 </defs>
 <g id="figure_1">
  <g id="patch_1">
   <path d="M 0 352.15125 
L 568.898125 352.15125 
L 568.898125 0 
L 0 0 
z
" style="fill: #ffffff"/>
  </g>
  <g id="axes_1">
   <g id="patch_2">
    <path d="M 51.418125 313.831562 
L 561.698125 313.831562 
L 561.698125 23.391562 
L 51.418125 23.391562 
z
" style="fill: #ffffff"/>
   </g>
   <g id="FillBetweenPolyCollection_1">
    <path d="M 74.61267 307.495769 
L 74.61267 313.831562 
L 93.168307 313.831562 
L 111.723943 313.831562 
L 130.27958 313.831562 
L 148.835216 313.831562 
L 167.390852 313.831562 
L 185.946489 313.831562 
L 204.502125 313.831562 
L 223.057761 313.831562 
L 241.613398 313.831562 
L 260.169034 313.831562 
L 278.72467 313.831562 
L 297.280307 313.831562 
L 315.835943 313.831562 
L 334.39158 313.831562 
L 352.947216 313.831562 
L 371.502852 313.831562 
L 390.058489 313.831562 
L 408.614125 313.831562 
L 427.169761 313.831562 
L 445.725398 313.831562 
L 464.281034 313.831562 
L 482.83667 313.831562 
L 501.392307 313.831562 
L 519.947943 313.831562 
L 538.50358 313.831562 
L 538.50358 215.98766 
L 538.50358 215.98766 
L 519.947943 231.065245 
L 501.392307 244.137832 
L 482.83667 247.025029 
L 464.281034 251.195425 
L 445.725398 238.042638 
L 427.169761 265.87201 
L 408.614125 273.731603 
L 390.058489 277.420799 
L 371.502852 280.307996 
L 352.947216 280.949595 
L 334.39158 286.00219 
L 315.835943 288.568588 
L 297.280307 292.017184 
L 278.72467 295.786581 
L 260.169034 294.423182 
L 241.613398 299.235177 
L 223.057761 297.631179 
L 204.502125 298.112378 
L 185.946489 300.758976 
L 167.390852 302.844173 
L 148.835216 303.726373 
L 130.27958 303.646173 
L 111.723943 307.014569 
L 93.168307 307.575969 
L 74.61267 307.495769 
z
" clip-path="url(#pf54e7a6699)" style="fill: #1565c0; fill-opacity: 0.85"/>
   </g>
   <g id="FillBetweenPolyCollection_2">
    <path d="M 74.61267 306.21257 
L 74.61267 307.495769 
L 93.168307 307.575969 
L 111.723943 307.014569 
L 130.27958 303.646173 
L 148.835216 303.726373 
L 167.390852 302.844173 
L 185.946489 300.758976 
L 204.502125 298.112378 
L 223.057761 297.631179 
L 241.613398 299.235177 
L 260.169034 294.423182 
L 278.72467 295.786581 
L 297.280307 292.017184 
L 315.835943 288.568588 
L 334.39158 286.00219 
L 352.947216 280.949595 
L 371.502852 280.307996 
L 390.058489 277.420799 
L 408.614125 273.731603 
L 427.169761 265.87201 
L 445.725398 238.042638 
L 464.281034 251.195425 
L 482.83667 247.025029 
L 501.392307 244.137832 
L 519.947943 231.065245 
L 538.50358 215.98766 
L 538.50358 99.858176 
L 538.50358 99.858176 
L 519.947943 141.802734 
L 501.392307 163.296313 
L 482.83667 168.669707 
L 464.281034 187.997888 
L 445.725398 187.837488 
L 427.169761 229.381047 
L 408.614125 245.260631 
L 390.058489 252.318224 
L 371.502852 258.012418 
L 352.947216 260.097616 
L 334.39158 269.481007 
L 315.835943 275.656401 
L 297.280307 281.190195 
L 278.72467 287.445789 
L 260.169034 287.445789 
L 241.613398 293.781583 
L 223.057761 292.819183 
L 204.502125 294.022182 
L 185.946489 298.112378 
L 167.390852 299.796577 
L 148.835216 300.518376 
L 130.27958 301.721375 
L 111.723943 305.169971 
L 93.168307 305.651171 
L 74.61267 306.21257 
z
" clip-path="url(#pf54e7a6699)" style="fill: #78909c; fill-opacity: 0.85"/>
   </g>
   <g id="FillBetweenPolyCollection_3">
    <path d="M 74.61267 305.97197 
L 74.61267 306.21257 
L 93.168307 305.651171 
L 111.723943 305.169971 
L 130.27958 301.721375 
L 148.835216 300.518376 
L 167.390852 299.796577 
L 185.946489 298.112378 
L 204.502125 294.022182 
L 223.057761 292.819183 
L 241.613398 293.781583 
L 260.169034 287.445789 
L 278.72467 287.445789 
L 297.280307 281.190195 
L 315.835943 275.656401 
L 334.39158 269.481007 
L 352.947216 260.097616 
L 371.502852 258.012418 
L 390.058489 252.318224 
L 408.614125 245.260631 
L 427.169761 229.381047 
L 445.725398 187.837488 
L 464.281034 187.997888 
L 482.83667 168.669707 
L 501.392307 163.296313 
L 519.947943 141.802734 
L 538.50358 99.858176 
L 538.50358 64.490011 
L 538.50358 64.490011 
L 519.947943 117.020959 
L 501.392307 139.958136 
L 482.83667 147.657328 
L 464.281034 167.707308 
L 445.725398 167.386509 
L 427.169761 216.46886 
L 408.614125 233.872242 
L 390.058489 244.057632 
L 371.502852 250.714226 
L 352.947216 253.441023 
L 334.39158 264.749212 
L 315.835943 271.646405 
L 297.280307 277.982198 
L 278.72467 284.237792 
L 260.169034 285.761591 
L 241.613398 292.337984 
L 223.057761 292.017184 
L 204.502125 293.621183 
L 185.946489 297.631179 
L 167.390852 299.235177 
L 148.835216 300.117376 
L 130.27958 300.919375 
L 111.723943 304.849171 
L 93.168307 305.490771 
L 74.61267 305.97197 
z
" clip-path="url(#pf54e7a6699)" style="fill: #2e7d32; fill-opacity: 0.85"/>
   </g>
   <g id="FillBetweenPolyCollection_4">
    <path d="M 74.61267 305.490771 
L 74.61267 305.97197 
L 93.168307 305.490771 
L 111.723943 304.849171 
L 130.27958 300.919375 
L 148.835216 300.117376 
L 167.390852 299.235177 
L 185.946489 297.631179 
L 204.502125 293.621183 
L 223.057761 292.017184 
L 241.613398 292.337984 
L 260.169034 285.761591 
L 278.72467 284.237792 
L 297.280307 277.982198 
L 315.835943 271.646405 
L 334.39158 264.749212 
L 352.947216 253.441023 
L 371.502852 250.714226 
L 390.058489 244.057632 
L 408.614125 233.872242 
L 427.169761 216.46886 
L 445.725398 167.386509 
L 464.281034 167.707308 
L 482.83667 147.657328 
L 501.392307 139.958136 
L 519.947943 117.020959 
L 538.50358 64.490011 
L 538.50358 50.134226 
L 538.50358 50.134226 
L 519.947943 103.627572 
L 501.392307 124.479552 
L 482.83667 132.178744 
L 464.281034 151.186125 
L 445.725398 154.554522 
L 427.169761 204.920071 
L 408.614125 225.85225 
L 390.058489 239.085237 
L 371.502852 245.90223 
L 352.947216 248.869627 
L 334.39158 260.578816 
L 315.835943 268.117608 
L 297.280307 274.774201 
L 278.72467 283.034793 
L 260.169034 284.317992 
L 241.613398 290.814185 
L 223.057761 290.814185 
L 204.502125 292.257784 
L 185.946489 297.230179 
L 167.390852 298.994577 
L 148.835216 299.475777 
L 130.27958 300.598576 
L 111.723943 304.047172 
L 93.168307 304.608572 
L 74.61267 305.490771 
z
" clip-path="url(#pf54e7a6699)" style="fill: #e53935; fill-opacity: 0.85"/>
   </g>
   <g id="FillBetweenPolyCollection_5">
    <path d="M 74.61267 305.490771 
L 74.61267 305.490771 
L 93.168307 304.608572 
L 111.723943 304.047172 
L 130.27958 300.598576 
L 148.835216 299.475777 
L 167.390852 298.994577 
L 185.946489 297.230179 
L 204.502125 292.257784 
L 223.057761 290.814185 
L 241.613398 290.814185 
L 260.169034 284.317992 
L 278.72467 283.034793 
L 297.280307 274.774201 
L 315.835943 268.117608 
L 334.39158 260.578816 
L 352.947216 248.869627 
L 371.502852 245.90223 
L 390.058489 239.085237 
L 408.614125 225.85225 
L 427.169761 204.920071 
L 445.725398 154.554522 
L 464.281034 151.186125 
L 482.83667 132.178744 
L 501.392307 124.479552 
L 519.947943 103.627572 
L 538.50358 50.134226 
L 538.50358 39.708236 
L 538.50358 39.708236 
L 519.947943 98.494778 
L 501.392307 120.309156 
L 482.83667 128.329148 
L 464.281034 149.662326 
L 445.725398 153.351523 
L 427.169761 203.717072 
L 408.614125 223.686853 
L 390.058489 238.523838 
L 371.502852 244.939831 
L 352.947216 248.228028 
L 334.39158 259.857016 
L 315.835943 267.877008 
L 297.280307 274.533602 
L 278.72467 282.713994 
L 260.169034 284.077392 
L 241.613398 290.653786 
L 223.057761 290.733986 
L 204.502125 291.936984 
L 185.946489 297.069779 
L 167.390852 298.593578 
L 148.835216 299.315377 
L 130.27958 300.277776 
L 111.723943 303.886772 
L 93.168307 304.608572 
L 74.61267 305.490771 
z
" clip-path="url(#pf54e7a6699)" style="fill: #f9a825; fill-opacity: 0.85"/>
   </g>
   <g id="FillBetweenPolyCollection_6">
    <path d="M 74.61267 305.490771 
L 74.61267 305.490771 
L 93.168307 304.608572 
L 111.723943 303.886772 
L 130.27958 300.277776 
L 148.835216 299.315377 
L 167.390852 298.593578 
L 185.946489 297.069779 
L 204.502125 291.936984 
L 223.057761 290.733986 
L 241.613398 290.653786 
L 260.169034 284.077392 
L 278.72467 282.713994 
L 297.280307 274.533602 
L 315.835943 267.877008 
L 334.39158 259.857016 
L 352.947216 248.228028 
L 371.502852 244.939831 
L 390.058489 238.523838 
L 408.614125 223.686853 
L 427.169761 203.717072 
L 445.725398 153.351523 
L 464.281034 149.662326 
L 482.83667 128.329148 
L 501.392307 120.309156 
L 519.947943 98.494778 
L 538.50358 39.708236 
L 538.50358 37.703238 
L 538.50358 37.703238 
L 519.947943 97.051179 
L 501.392307 119.186357 
L 482.83667 126.24395 
L 464.281034 147.416729 
L 445.725398 151.025725 
L 427.169761 202.273474 
L 408.614125 222.804653 
L 390.058489 238.122838 
L 371.502852 244.699232 
L 352.947216 248.067628 
L 334.39158 259.536217 
L 315.835943 267.315609 
L 297.280307 274.132602 
L 278.72467 282.393194 
L 260.169034 283.916992 
L 241.613398 290.252786 
L 223.057761 290.332986 
L 204.502125 291.776585 
L 185.946489 296.909379 
L 167.390852 298.593578 
L 148.835216 299.315377 
L 130.27958 300.117376 
L 111.723943 303.726373 
L 93.168307 304.367972 
L 74.61267 305.490771 
z
" clip-path="url(#pf54e7a6699)" style="fill: #8e24aa; fill-opacity: 0.85"/>
   </g>
   <g id="FillBetweenPolyCollection_7">
    <path d="M 74.61267 305.490771 
L 74.61267 305.490771 
L 93.168307 304.367972 
L 111.723943 303.726373 
L 130.27958 300.117376 
L 148.835216 299.315377 
L 167.390852 298.593578 
L 185.946489 296.909379 
L 204.502125 291.776585 
L 223.057761 290.332986 
L 241.613398 290.252786 
L 260.169034 283.916992 
L 278.72467 282.393194 
L 297.280307 274.132602 
L 315.835943 267.315609 
L 334.39158 259.536217 
L 352.947216 248.067628 
L 371.502852 244.699232 
L 390.058489 238.122838 
L 408.614125 222.804653 
L 427.169761 202.273474 
L 445.725398 151.025725 
L 464.281034 147.416729 
L 482.83667 126.24395 
L 501.392307 119.186357 
L 519.947943 97.051179 
L 538.50358 37.703238 
L 538.50358 37.222039 
L 538.50358 37.222039 
L 519.947943 96.730379 
L 501.392307 118.464558 
L 482.83667 125.92315 
L 464.281034 147.095929 
L 445.725398 150.945525 
L 427.169761 202.113074 
L 408.614125 222.724453 
L 390.058489 237.882238 
L 371.502852 244.458632 
L 352.947216 247.987428 
L 334.39158 259.456017 
L 315.835943 267.155209 
L 297.280307 274.052402 
L 278.72467 282.393194 
L 260.169034 283.916992 
L 241.613398 290.172586 
L 223.057761 290.332986 
L 204.502125 291.776585 
L 185.946489 296.909379 
L 167.390852 298.593578 
L 148.835216 299.315377 
L 130.27958 300.117376 
L 111.723943 303.565973 
L 93.168307 304.287772 
L 74.61267 305.490771 
z
" clip-path="url(#pf54e7a6699)" style="fill: #ff8f00; fill-opacity: 0.85"/>
   </g>
   <g id="matplotlib.axis_1">
    <g id="xtick_1">
     <g id="line2d_1">
      <defs>
       <path id="m15d36c3dfa" d="M 0 0 
L 0 3.5 
" style="stroke: #000000; stroke-width: 0.8"/>
      </defs>
      <g>
       <use xlink:href="#m15d36c3dfa" x="74.61267" y="313.831562" style="stroke: #000000; stroke-width: 0.8"/>
      </g>
     </g>
     <g id="text_1">
      <!-- 2000 -->
      <g transform="translate(63.490795 327.989375) scale(0.1 -0.1)">
       <defs>
        <path id="ArialMT-32" d="M 3222 541 
L 3222 0 
L 194 0 
Q 188 203 259 391 
Q 375 700 629 1000 
Q 884 1300 1366 1694 
Q 2113 2306 2375 2664 
Q 2638 3022 2638 3341 
Q 2638 3675 2398 3904 
Q 2159 4134 1775 4134 
Q 1369 4134 1125 3890 
Q 881 3647 878 3216 
L 300 3275 
Q 359 3922 746 4261 
Q 1134 4600 1788 4600 
Q 2447 4600 2831 4234 
Q 3216 3869 3216 3328 
Q 3216 3053 3103 2787 
Q 2991 2522 2730 2228 
Q 2469 1934 1863 1422 
Q 1356 997 1212 845 
Q 1069 694 975 541 
L 3222 541 
z
" transform="scale(0.015625)"/>
        <path id="ArialMT-30" d="M 266 2259 
Q 266 3072 433 3567 
Q 600 4063 929 4331 
Q 1259 4600 1759 4600 
Q 2128 4600 2406 4451 
Q 2684 4303 2865 4023 
Q 3047 3744 3150 3342 
Q 3253 2941 3253 2259 
Q 3253 1453 3087 958 
Q 2922 463 2592 192 
Q 2263 -78 1759 -78 
Q 1097 -78 719 397 
Q 266 969 266 2259 
z
M 844 2259 
Q 844 1131 1108 757 
Q 1372 384 1759 384 
Q 2147 384 2411 759 
Q 2675 1134 2675 2259 
Q 2675 3391 2411 3762 
Q 2147 4134 1753 4134 
Q 1366 4134 1134 3806 
Q 844 3388 844 2259 
z
" transform="scale(0.015625)"/>
       </defs>
       <use xlink:href="#ArialMT-32"/>
       <use xlink:href="#ArialMT-30" transform="translate(55.615234 0)"/>
       <use xlink:href="#ArialMT-30" transform="translate(111.230469 0)"/>
       <use xlink:href="#ArialMT-30" transform="translate(166.845703 0)"/>
      </g>
     </g>
    </g>
    <g id="xtick_2">
     <g id="line2d_2">
      <g>
       <use xlink:href="#m15d36c3dfa" x="167.390852" y="313.831562" style="stroke: #000000; stroke-width: 0.8"/>
      </g>
     </g>
     <g id="text_2">
      <!-- 2005 -->
      <g transform="translate(156.268977 327.989375) scale(0.1 -0.1)">
       <defs>
        <path id="ArialMT-35" d="M 266 1200 
L 856 1250 
Q 922 819 1161 601 
Q 1400 384 1738 384 
Q 2144 384 2425 690 
Q 2706 997 2706 1503 
Q 2706 1984 2436 2262 
Q 2166 2541 1728 2541 
Q 1456 2541 1237 2417 
Q 1019 2294 894 2097 
L 366 2166 
L 809 4519 
L 3088 4519 
L 3088 3981 
L 1259 3981 
L 1013 2750 
Q 1425 3038 1878 3038 
Q 2478 3038 2890 2622 
Q 3303 2206 3303 1553 
Q 3303 931 2941 478 
Q 2500 -78 1738 -78 
Q 1113 -78 717 272 
Q 322 622 266 1200 
z
" transform="scale(0.015625)"/>
       </defs>
       <use xlink:href="#ArialMT-32"/>
       <use xlink:href="#ArialMT-30" transform="translate(55.615234 0)"/>
       <use xlink:href="#ArialMT-30" transform="translate(111.230469 0)"/>
       <use xlink:href="#ArialMT-35" transform="translate(166.845703 0)"/>
      </g>
     </g>
    </g>
    <g id="xtick_3">
     <g id="line2d_3">
      <g>
       <use xlink:href="#m15d36c3dfa" x="260.169034" y="313.831562" style="stroke: #000000; stroke-width: 0.8"/>
      </g>
     </g>
     <g id="text_3">
      <!-- 2010 -->
      <g transform="translate(249.047159 327.989375) scale(0.1 -0.1)">
       <defs>
        <path id="ArialMT-31" d="M 2384 0 
L 1822 0 
L 1822 3584 
Q 1619 3391 1289 3197 
Q 959 3003 697 2906 
L 697 3450 
Q 1169 3672 1522 3987 
Q 1875 4303 2022 4600 
L 2384 4600 
L 2384 0 
z
" transform="scale(0.015625)"/>
       </defs>
       <use xlink:href="#ArialMT-32"/>
       <use xlink:href="#ArialMT-30" transform="translate(55.615234 0)"/>
       <use xlink:href="#ArialMT-31" transform="translate(111.230469 0)"/>
       <use xlink:href="#ArialMT-30" transform="translate(166.845703 0)"/>
      </g>
     </g>
    </g>
    <g id="xtick_4">
     <g id="line2d_4">
      <g>
       <use xlink:href="#m15d36c3dfa" x="352.947216" y="313.831562" style="stroke: #000000; stroke-width: 0.8"/>
      </g>
     </g>
     <g id="text_4">
      <!-- 2015 -->
      <g transform="translate(341.825341 327.989375) scale(0.1 -0.1)">
       <use xlink:href="#ArialMT-32"/>
       <use xlink:href="#ArialMT-30" transform="translate(55.615234 0)"/>
       <use xlink:href="#ArialMT-31" transform="translate(111.230469 0)"/>
       <use xlink:href="#ArialMT-35" transform="translate(166.845703 0)"/>
      </g>
     </g>
    </g>
    <g id="xtick_5">
     <g id="line2d_5">
      <g>
       <use xlink:href="#m15d36c3dfa" x="445.725398" y="313.831562" style="stroke: #000000; stroke-width: 0.8"/>
      </g>
     </g>
     <g id="text_5">
      <!-- 2020 -->
      <g transform="translate(434.603523 327.989375) scale(0.1 -0.1)">
       <use xlink:href="#ArialMT-32"/>
       <use xlink:href="#ArialMT-30" transform="translate(55.615234 0)"/>
       <use xlink:href="#ArialMT-32" transform="translate(111.230469 0)"/>
       <use xlink:href="#ArialMT-30" transform="translate(166.845703 0)"/>
      </g>
     </g>
    </g>
    <g id="xtick_6">
     <g id="line2d_6">
      <g>
       <use xlink:href="#m15d36c3dfa" x="538.50358" y="313.831562" style="stroke: #000000; stroke-width: 0.8"/>
      </g>
     </g>
     <g id="text_6">
      <!-- 2025 -->
      <g transform="translate(527.381705 327.989375) scale(0.1 -0.1)">
       <use xlink:href="#ArialMT-32"/>
       <use xlink:href="#ArialMT-30" transform="translate(55.615234 0)"/>
       <use xlink:href="#ArialMT-32" transform="translate(111.230469 0)"/>
       <use xlink:href="#ArialMT-35" transform="translate(166.845703 0)"/>
      </g>
     </g>
    </g>
    <g id="text_7">
     <!-- Year -->
     <g transform="translate(294.4325 342.56625) scale(0.12 -0.12)">
      <defs>
       <path id="ArialMT-59" d="M 1784 0 
L 1784 1941 
L 19 4581 
L 756 4581 
L 1659 3200 
Q 1909 2813 2125 2425 
Q 2331 2784 2625 3234 
L 3513 4581 
L 4219 4581 
L 2391 1941 
L 2391 0 
L 1784 0 
z
" transform="scale(0.015625)"/>
       <path id="ArialMT-65" d="M 2694 1069 
L 3275 997 
Q 3138 488 2766 206 
Q 2394 -75 1816 -75 
Q 1088 -75 661 373 
Q 234 822 234 1631 
Q 234 2469 665 2931 
Q 1097 3394 1784 3394 
Q 2450 3394 2872 2941 
Q 3294 2488 3294 1666 
Q 3294 1616 3291 1516 
L 816 1516 
Q 847 969 1125 678 
Q 1403 388 1819 388 
Q 2128 388 2347 550 
Q 2566 713 2694 1069 
z
M 847 1978 
L 2700 1978 
Q 2663 2397 2488 2606 
Q 2219 2931 1791 2931 
Q 1403 2931 1139 2672 
Q 875 2413 847 1978 
z
" transform="scale(0.015625)"/>
       <path id="ArialMT-61" d="M 2588 409 
Q 2275 144 1986 34 
Q 1697 -75 1366 -75 
Q 819 -75 525 192 
Q 231 459 231 875 
Q 231 1119 342 1320 
Q 453 1522 633 1644 
Q 813 1766 1038 1828 
Q 1203 1872 1538 1913 
Q 2219 1994 2541 2106 
Q 2544 2222 2544 2253 
Q 2544 2597 2384 2738 
Q 2169 2928 1744 2928 
Q 1347 2928 1158 2789 
Q 969 2650 878 2297 
L 328 2372 
Q 403 2725 575 2942 
Q 747 3159 1072 3276 
Q 1397 3394 1825 3394 
Q 2250 3394 2515 3294 
Q 2781 3194 2906 3042 
Q 3031 2891 3081 2659 
Q 3109 2516 3109 2141 
L 3109 1391 
Q 3109 606 3145 398 
Q 3181 191 3288 0 
L 2700 0 
Q 2613 175 2588 409 
z
M 2541 1666 
Q 2234 1541 1622 1453 
Q 1275 1403 1131 1340 
Q 988 1278 909 1158 
Q 831 1038 831 891 
Q 831 666 1001 516 
Q 1172 366 1500 366 
Q 1825 366 2078 508 
Q 2331 650 2450 897 
Q 2541 1088 2541 1459 
L 2541 1666 
z
" transform="scale(0.015625)"/>
       <path id="ArialMT-72" d="M 416 0 
L 416 3319 
L 922 3319 
L 922 2816 
Q 1116 3169 1280 3281 
Q 1444 3394 1641 3394 
Q 1925 3394 2219 3213 
L 2025 2691 
Q 1819 2813 1613 2813 
Q 1428 2813 1281 2702 
Q 1134 2591 1072 2394 
Q 978 2094 978 1738 
L 978 0 
L 416 0 
z
" transform="scale(0.015625)"/>
      </defs>
      <use xlink:href="#ArialMT-59"/>
      <use xlink:href="#ArialMT-65" transform="translate(57.574219 0)"/>
      <use xlink:href="#ArialMT-61" transform="translate(113.189453 0)"/>
      <use xlink:href="#ArialMT-72" transform="translate(168.804688 0)"/>
     </g>
    </g>
   </g>
   <g id="matplotlib.axis_2">
    <g id="ytick_1">
     <g id="line2d_7">
      <defs>
       <path id="ma22fd361a6" d="M 0 0 
L -3.5 0 
" style="stroke: #000000; stroke-width: 0.8"/>
      </defs>
      <g>
       <use xlink:href="#ma22fd361a6" x="51.418125" y="313.831562" style="stroke: #000000; stroke-width: 0.8"/>
      </g>
     </g>
     <g id="text_8">
      <!-- 0 -->
      <g transform="translate(38.857188 317.410469) scale(0.1 -0.1)">
       <use xlink:href="#ArialMT-30"/>
      </g>
     </g>
    </g>
    <g id="ytick_2">
     <g id="line2d_8">
      <g>
       <use xlink:href="#ma22fd361a6" x="51.418125" y="273.731603" style="stroke: #000000; stroke-width: 0.8"/>
      </g>
     </g>
     <g id="text_9">
      <!-- 500 -->
      <g transform="translate(27.735313 277.310509) scale(0.1 -0.1)">
       <use xlink:href="#ArialMT-35"/>
       <use xlink:href="#ArialMT-30" transform="translate(55.615234 0)"/>
       <use xlink:href="#ArialMT-30" transform="translate(111.230469 0)"/>
      </g>
     </g>
    </g>
    <g id="ytick_3">
     <g id="line2d_9">
      <g>
       <use xlink:href="#ma22fd361a6" x="51.418125" y="233.631643" style="stroke: #000000; stroke-width: 0.8"/>
      </g>
     </g>
     <g id="text_10">
      <!-- 1000 -->
      <g transform="translate(22.174375 237.210549) scale(0.1 -0.1)">
       <use xlink:href="#ArialMT-31"/>
       <use xlink:href="#ArialMT-30" transform="translate(55.615234 0)"/>
       <use xlink:href="#ArialMT-30" transform="translate(111.230469 0)"/>
       <use xlink:href="#ArialMT-30" transform="translate(166.845703 0)"/>
      </g>
     </g>
    </g>
    <g id="ytick_4">
     <g id="line2d_10">
      <g>
       <use xlink:href="#ma22fd361a6" x="51.418125" y="193.531683" style="stroke: #000000; stroke-width: 0.8"/>
      </g>
     </g>
     <g id="text_11">
      <!-- 1500 -->
      <g transform="translate(22.174375 197.110589) scale(0.1 -0.1)">
       <use xlink:href="#ArialMT-31"/>
       <use xlink:href="#ArialMT-35" transform="translate(55.615234 0)"/>
       <use xlink:href="#ArialMT-30" transform="translate(111.230469 0)"/>
       <use xlink:href="#ArialMT-30" transform="translate(166.845703 0)"/>
      </g>
     </g>
    </g>
    <g id="ytick_5">
     <g id="line2d_11">
      <g>
       <use xlink:href="#ma22fd361a6" x="51.418125" y="153.431723" style="stroke: #000000; stroke-width: 0.8"/>
      </g>
     </g>
     <g id="text_12">
      <!-- 2000 -->
      <g transform="translate(22.174375 157.010629) scale(0.1 -0.1)">
       <use xlink:href="#ArialMT-32"/>
       <use xlink:href="#ArialMT-30" transform="translate(55.615234 0)"/>
       <use xlink:href="#ArialMT-30" transform="translate(111.230469 0)"/>
       <use xlink:href="#ArialMT-30" transform="translate(166.845703 0)"/>
      </g>
     </g>
    </g>
    <g id="ytick_6">
     <g id="line2d_12">
      <g>
       <use xlink:href="#ma22fd361a6" x="51.418125" y="113.331763" style="stroke: #000000; stroke-width: 0.8"/>
      </g>
     </g>
     <g id="text_13">
      <!-- 2500 -->
      <g transform="translate(22.174375 116.910669) scale(0.1 -0.1)">
       <use xlink:href="#ArialMT-32"/>
       <use xlink:href="#ArialMT-35" transform="translate(55.615234 0)"/>
       <use xlink:href="#ArialMT-30" transform="translate(111.230469 0)"/>
       <use xlink:href="#ArialMT-30" transform="translate(166.845703 0)"/>
      </g>
     </g>
    </g>
    <g id="ytick_7">
     <g id="line2d_13">
      <g>
       <use xlink:href="#ma22fd361a6" x="51.418125" y="73.231803" style="stroke: #000000; stroke-width: 0.8"/>
      </g>
     </g>
     <g id="text_14">
      <!-- 3000 -->
      <g transform="translate(22.174375 76.810709) scale(0.1 -0.1)">
       <defs>
        <path id="ArialMT-33" d="M 269 1209 
L 831 1284 
Q 928 806 1161 595 
Q 1394 384 1728 384 
Q 2125 384 2398 659 
Q 2672 934 2672 1341 
Q 2672 1728 2419 1979 
Q 2166 2231 1775 2231 
Q 1616 2231 1378 2169 
L 1441 2663 
Q 1497 2656 1531 2656 
Q 1891 2656 2178 2843 
Q 2466 3031 2466 3422 
Q 2466 3731 2256 3934 
Q 2047 4138 1716 4138 
Q 1388 4138 1169 3931 
Q 950 3725 888 3313 
L 325 3413 
Q 428 3978 793 4289 
Q 1159 4600 1703 4600 
Q 2078 4600 2393 4439 
Q 2709 4278 2876 4000 
Q 3044 3722 3044 3409 
Q 3044 3113 2884 2869 
Q 2725 2625 2413 2481 
Q 2819 2388 3044 2092 
Q 3269 1797 3269 1353 
Q 3269 753 2831 336 
Q 2394 -81 1725 -81 
Q 1122 -81 723 278 
Q 325 638 269 1209 
z
" transform="scale(0.015625)"/>
       </defs>
       <use xlink:href="#ArialMT-33"/>
       <use xlink:href="#ArialMT-30" transform="translate(55.615234 0)"/>
       <use xlink:href="#ArialMT-30" transform="translate(111.230469 0)"/>
       <use xlink:href="#ArialMT-30" transform="translate(166.845703 0)"/>
      </g>
     </g>
    </g>
    <g id="ytick_8">
     <g id="line2d_14">
      <g>
       <use xlink:href="#ma22fd361a6" x="51.418125" y="33.131843" style="stroke: #000000; stroke-width: 0.8"/>
      </g>
     </g>
     <g id="text_15">
      <!-- 3500 -->
      <g transform="translate(22.174375 36.710749) scale(0.1 -0.1)">
       <use xlink:href="#ArialMT-33"/>
       <use xlink:href="#ArialMT-35" transform="translate(55.615234 0)"/>
       <use xlink:href="#ArialMT-30" transform="translate(111.230469 0)"/>
       <use xlink:href="#ArialMT-30" transform="translate(166.845703 0)"/>
      </g>
     </g>
    </g>
    <g id="text_16">
     <!-- Number of Collaborations -->
     <g transform="translate(15.789375 236.640312) rotate(-90) scale(0.12 -0.12)">
      <defs>
       <path id="ArialMT-4e" d="M 488 0 
L 488 4581 
L 1109 4581 
L 3516 984 
L 3516 4581 
L 4097 4581 
L 4097 0 
L 3475 0 
L 1069 3600 
L 1069 0 
L 488 0 
z
" transform="scale(0.015625)"/>
       <path id="ArialMT-75" d="M 2597 0 
L 2597 488 
Q 2209 -75 1544 -75 
Q 1250 -75 995 37 
Q 741 150 617 320 
Q 494 491 444 738 
Q 409 903 409 1263 
L 409 3319 
L 972 3319 
L 972 1478 
Q 972 1038 1006 884 
Q 1059 663 1231 536 
Q 1403 409 1656 409 
Q 1909 409 2131 539 
Q 2353 669 2445 892 
Q 2538 1116 2538 1541 
L 2538 3319 
L 3100 3319 
L 3100 0 
L 2597 0 
z
" transform="scale(0.015625)"/>
       <path id="ArialMT-6d" d="M 422 0 
L 422 3319 
L 925 3319 
L 925 2853 
Q 1081 3097 1340 3245 
Q 1600 3394 1931 3394 
Q 2300 3394 2536 3241 
Q 2772 3088 2869 2813 
Q 3263 3394 3894 3394 
Q 4388 3394 4653 3120 
Q 4919 2847 4919 2278 
L 4919 0 
L 4359 0 
L 4359 2091 
Q 4359 2428 4304 2576 
Q 4250 2725 4106 2815 
Q 3963 2906 3769 2906 
Q 3419 2906 3187 2673 
Q 2956 2441 2956 1928 
L 2956 0 
L 2394 0 
L 2394 2156 
Q 2394 2531 2256 2718 
Q 2119 2906 1806 2906 
Q 1569 2906 1367 2781 
Q 1166 2656 1075 2415 
Q 984 2175 984 1722 
L 984 0 
L 422 0 
z
" transform="scale(0.015625)"/>
       <path id="ArialMT-62" d="M 941 0 
L 419 0 
L 419 4581 
L 981 4581 
L 981 2947 
Q 1338 3394 1891 3394 
Q 2197 3394 2470 3270 
Q 2744 3147 2920 2923 
Q 3097 2700 3197 2384 
Q 3297 2069 3297 1709 
Q 3297 856 2875 390 
Q 2453 -75 1863 -75 
Q 1275 -75 941 416 
L 941 0 
z
M 934 1684 
Q 934 1088 1097 822 
Q 1363 388 1816 388 
Q 2184 388 2453 708 
Q 2722 1028 2722 1663 
Q 2722 2313 2464 2622 
Q 2206 2931 1841 2931 
Q 1472 2931 1203 2611 
Q 934 2291 934 1684 
z
" transform="scale(0.015625)"/>
       <path id="ArialMT-20" transform="scale(0.015625)"/>
       <path id="ArialMT-6f" d="M 213 1659 
Q 213 2581 725 3025 
Q 1153 3394 1769 3394 
Q 2453 3394 2887 2945 
Q 3322 2497 3322 1706 
Q 3322 1066 3130 698 
Q 2938 331 2570 128 
Q 2203 -75 1769 -75 
Q 1072 -75 642 372 
Q 213 819 213 1659 
z
M 791 1659 
Q 791 1022 1069 705 
Q 1347 388 1769 388 
Q 2188 388 2466 706 
Q 2744 1025 2744 1678 
Q 2744 2294 2464 2611 
Q 2184 2928 1769 2928 
Q 1347 2928 1069 2612 
Q 791 2297 791 1659 
z
" transform="scale(0.015625)"/>
       <path id="ArialMT-66" d="M 556 0 
L 556 2881 
L 59 2881 
L 59 3319 
L 556 3319 
L 556 3672 
Q 556 4006 616 4169 
Q 697 4388 901 4523 
Q 1106 4659 1475 4659 
Q 1713 4659 2000 4603 
L 1916 4113 
Q 1741 4144 1584 4144 
Q 1328 4144 1222 4034 
Q 1116 3925 1116 3625 
L 1116 3319 
L 1763 3319 
L 1763 2881 
L 1116 2881 
L 1116 0 
L 556 0 
z
" transform="scale(0.015625)"/>
       <path id="ArialMT-43" d="M 3763 1606 
L 4369 1453 
Q 4178 706 3683 314 
Q 3188 -78 2472 -78 
Q 1731 -78 1267 223 
Q 803 525 561 1097 
Q 319 1669 319 2325 
Q 319 3041 592 3573 
Q 866 4106 1370 4382 
Q 1875 4659 2481 4659 
Q 3169 4659 3637 4309 
Q 4106 3959 4291 3325 
L 3694 3184 
Q 3534 3684 3231 3912 
Q 2928 4141 2469 4141 
Q 1941 4141 1586 3887 
Q 1231 3634 1087 3207 
Q 944 2781 944 2328 
Q 944 1744 1114 1308 
Q 1284 872 1643 656 
Q 2003 441 2422 441 
Q 2931 441 3284 734 
Q 3638 1028 3763 1606 
z
" transform="scale(0.015625)"/>
       <path id="ArialMT-6c" d="M 409 0 
L 409 4581 
L 972 4581 
L 972 0 
L 409 0 
z
" transform="scale(0.015625)"/>
       <path id="ArialMT-74" d="M 1650 503 
L 1731 6 
Q 1494 -44 1306 -44 
Q 1000 -44 831 53 
Q 663 150 594 308 
Q 525 466 525 972 
L 525 2881 
L 113 2881 
L 113 3319 
L 525 3319 
L 525 4141 
L 1084 4478 
L 1084 3319 
L 1650 3319 
L 1650 2881 
L 1084 2881 
L 1084 941 
Q 1084 700 1114 631 
Q 1144 563 1211 522 
Q 1278 481 1403 481 
Q 1497 481 1650 503 
z
" transform="scale(0.015625)"/>
       <path id="ArialMT-69" d="M 425 3934 
L 425 4581 
L 988 4581 
L 988 3934 
L 425 3934 
z
M 425 0 
L 425 3319 
L 988 3319 
L 988 0 
L 425 0 
z
" transform="scale(0.015625)"/>
       <path id="ArialMT-6e" d="M 422 0 
L 422 3319 
L 928 3319 
L 928 2847 
Q 1294 3394 1984 3394 
Q 2284 3394 2536 3286 
Q 2788 3178 2913 3003 
Q 3038 2828 3088 2588 
Q 3119 2431 3119 2041 
L 3119 0 
L 2556 0 
L 2556 2019 
Q 2556 2363 2490 2533 
Q 2425 2703 2258 2804 
Q 2091 2906 1866 2906 
Q 1506 2906 1245 2678 
Q 984 2450 984 1813 
L 984 0 
L 422 0 
z
" transform="scale(0.015625)"/>
       <path id="ArialMT-73" d="M 197 991 
L 753 1078 
Q 800 744 1014 566 
Q 1228 388 1613 388 
Q 2000 388 2187 545 
Q 2375 703 2375 916 
Q 2375 1106 2209 1216 
Q 2094 1291 1634 1406 
Q 1016 1563 777 1677 
Q 538 1791 414 1992 
Q 291 2194 291 2438 
Q 291 2659 392 2848 
Q 494 3038 669 3163 
Q 800 3259 1026 3326 
Q 1253 3394 1513 3394 
Q 1903 3394 2198 3281 
Q 2494 3169 2634 2976 
Q 2775 2784 2828 2463 
L 2278 2388 
Q 2241 2644 2061 2787 
Q 1881 2931 1553 2931 
Q 1166 2931 1000 2803 
Q 834 2675 834 2503 
Q 834 2394 903 2306 
Q 972 2216 1119 2156 
Q 1203 2125 1616 2013 
Q 2213 1853 2448 1751 
Q 2684 1650 2818 1456 
Q 2953 1263 2953 975 
Q 2953 694 2789 445 
Q 2625 197 2315 61 
Q 2006 -75 1616 -75 
Q 969 -75 630 194 
Q 291 463 197 991 
z
" transform="scale(0.015625)"/>
      </defs>
      <use xlink:href="#ArialMT-4e"/>
      <use xlink:href="#ArialMT-75" transform="translate(72.216797 0)"/>
      <use xlink:href="#ArialMT-6d" transform="translate(127.832031 0)"/>
      <use xlink:href="#ArialMT-62" transform="translate(211.132812 0)"/>
      <use xlink:href="#ArialMT-65" transform="translate(266.748047 0)"/>
      <use xlink:href="#ArialMT-72" transform="translate(322.363281 0)"/>
      <use xlink:href="#ArialMT-20" transform="translate(355.664062 0)"/>
      <use xlink:href="#ArialMT-6f" transform="translate(383.447266 0)"/>
      <use xlink:href="#ArialMT-66" transform="translate(439.0625 0)"/>
      <use xlink:href="#ArialMT-20" transform="translate(466.845703 0)"/>
      <use xlink:href="#ArialMT-43" transform="translate(494.628906 0)"/>
      <use xlink:href="#ArialMT-6f" transform="translate(566.845703 0)"/>
      <use xlink:href="#ArialMT-6c" transform="translate(622.460938 0)"/>
      <use xlink:href="#ArialMT-6c" transform="translate(644.677734 0)"/>
      <use xlink:href="#ArialMT-61" transform="translate(666.894531 0)"/>
      <use xlink:href="#ArialMT-62" transform="translate(722.509766 0)"/>
      <use xlink:href="#ArialMT-6f" transform="translate(778.125 0)"/>
      <use xlink:href="#ArialMT-72" transform="translate(833.740234 0)"/>
      <use xlink:href="#ArialMT-61" transform="translate(867.041016 0)"/>
      <use xlink:href="#ArialMT-74" transform="translate(922.65625 0)"/>
      <use xlink:href="#ArialMT-69" transform="translate(950.439453 0)"/>
      <use xlink:href="#ArialMT-6f" transform="translate(972.65625 0)"/>
      <use xlink:href="#ArialMT-6e" transform="translate(1028.271484 0)"/>
      <use xlink:href="#ArialMT-73" transform="translate(1083.886719 0)"/>
     </g>
    </g>
   </g>
   <g id="patch_3">
    <path d="M 51.418125 313.831562 
L 51.418125 23.391562 
" style="fill: none; stroke: #000000; stroke-width: 0.8; stroke-linejoin: miter; stroke-linecap: square"/>
   </g>
   <g id="patch_4">
    <path d="M 51.418125 313.831562 
L 561.698125 313.831562 
" style="fill: none; stroke: #000000; stroke-width: 0.8; stroke-linejoin: miter; stroke-linecap: square"/>
   </g>
   <g id="text_17">
    <!-- Growth of Ghanaian international collaborations by partner bloc, 2000-2025 -->
    <g transform="translate(56.078437 17.391562) scale(0.14 -0.14)">
     <defs>
      <path id="Arial-BoldMT-47" d="M 2597 1684 
L 2597 2456 
L 4591 2456 
L 4591 631 
Q 4300 350 3748 136 
Q 3197 -78 2631 -78 
Q 1913 -78 1378 223 
Q 844 525 575 1086 
Q 306 1647 306 2306 
Q 306 3022 606 3578 
Q 906 4134 1484 4431 
Q 1925 4659 2581 4659 
Q 3434 4659 3914 4301 
Q 4394 3944 4531 3313 
L 3613 3141 
Q 3516 3478 3248 3673 
Q 2981 3869 2581 3869 
Q 1975 3869 1617 3484 
Q 1259 3100 1259 2344 
Q 1259 1528 1621 1120 
Q 1984 713 2572 713 
Q 2863 713 3155 827 
Q 3447 941 3656 1103 
L 3656 1684 
L 2597 1684 
z
" transform="scale(0.015625)"/>
      <path id="Arial-BoldMT-72" d="M 1300 0 
L 422 0 
L 422 3319 
L 1238 3319 
L 1238 2847 
Q 1447 3181 1614 3287 
Q 1781 3394 1994 3394 
Q 2294 3394 2572 3228 
L 2300 2463 
Q 2078 2606 1888 2606 
Q 1703 2606 1575 2504 
Q 1447 2403 1373 2137 
Q 1300 1872 1300 1025 
L 1300 0 
z
" transform="scale(0.015625)"/>
      <path id="Arial-BoldMT-6f" d="M 256 1706 
Q 256 2144 472 2553 
Q 688 2963 1083 3178 
Q 1478 3394 1966 3394 
Q 2719 3394 3200 2905 
Q 3681 2416 3681 1669 
Q 3681 916 3195 420 
Q 2709 -75 1972 -75 
Q 1516 -75 1102 131 
Q 688 338 472 736 
Q 256 1134 256 1706 
z
M 1156 1659 
Q 1156 1166 1390 903 
Q 1625 641 1969 641 
Q 2313 641 2545 903 
Q 2778 1166 2778 1666 
Q 2778 2153 2545 2415 
Q 2313 2678 1969 2678 
Q 1625 2678 1390 2415 
Q 1156 2153 1156 1659 
z
" transform="scale(0.015625)"/>
      <path id="Arial-BoldMT-77" d="M 1078 0 
L 28 3319 
L 881 3319 
L 1503 1144 
L 2075 3319 
L 2922 3319 
L 3475 1144 
L 4109 3319 
L 4975 3319 
L 3909 0 
L 3066 0 
L 2494 2134 
L 1931 0 
L 1078 0 
z
" transform="scale(0.015625)"/>
      <path id="Arial-BoldMT-74" d="M 1981 3319 
L 1981 2619 
L 1381 2619 
L 1381 1281 
Q 1381 875 1398 808 
Q 1416 741 1477 697 
Q 1538 653 1625 653 
Q 1747 653 1978 738 
L 2053 56 
Q 1747 -75 1359 -75 
Q 1122 -75 931 4 
Q 741 84 652 211 
Q 563 338 528 553 
Q 500 706 500 1172 
L 500 2619 
L 97 2619 
L 97 3319 
L 500 3319 
L 500 3978 
L 1381 4491 
L 1381 3319 
L 1981 3319 
z
" transform="scale(0.015625)"/>
      <path id="Arial-BoldMT-68" d="M 1334 4581 
L 1334 2897 
Q 1759 3394 2350 3394 
Q 2653 3394 2897 3281 
Q 3141 3169 3264 2994 
Q 3388 2819 3433 2606 
Q 3478 2394 3478 1947 
L 3478 0 
L 2600 0 
L 2600 1753 
Q 2600 2275 2550 2415 
Q 2500 2556 2373 2639 
Q 2247 2722 2056 2722 
Q 1838 2722 1666 2615 
Q 1494 2509 1414 2295 
Q 1334 2081 1334 1663 
L 1334 0 
L 456 0 
L 456 4581 
L 1334 4581 
z
" transform="scale(0.015625)"/>
      <path id="Arial-BoldMT-20" transform="scale(0.015625)"/>
      <path id="Arial-BoldMT-66" d="M 75 3319 
L 563 3319 
L 563 3569 
Q 563 3988 652 4194 
Q 741 4400 980 4529 
Q 1219 4659 1584 4659 
Q 1959 4659 2319 4547 
L 2200 3934 
Q 1991 3984 1797 3984 
Q 1606 3984 1523 3895 
Q 1441 3806 1441 3553 
L 1441 3319 
L 2097 3319 
L 2097 2628 
L 1441 2628 
L 1441 0 
L 563 0 
L 563 2628 
L 75 2628 
L 75 3319 
z
" transform="scale(0.015625)"/>
      <path id="Arial-BoldMT-61" d="M 1116 2306 
L 319 2450 
Q 453 2931 781 3162 
Q 1109 3394 1756 3394 
Q 2344 3394 2631 3255 
Q 2919 3116 3036 2902 
Q 3153 2688 3153 2116 
L 3144 1091 
Q 3144 653 3186 445 
Q 3228 238 3344 0 
L 2475 0 
Q 2441 88 2391 259 
Q 2369 338 2359 363 
Q 2134 144 1878 34 
Q 1622 -75 1331 -75 
Q 819 -75 523 203 
Q 228 481 228 906 
Q 228 1188 362 1408 
Q 497 1628 739 1745 
Q 981 1863 1438 1950 
Q 2053 2066 2291 2166 
L 2291 2253 
Q 2291 2506 2166 2614 
Q 2041 2722 1694 2722 
Q 1459 2722 1328 2630 
Q 1197 2538 1116 2306 
z
M 2291 1594 
Q 2122 1538 1756 1459 
Q 1391 1381 1278 1306 
Q 1106 1184 1106 997 
Q 1106 813 1243 678 
Q 1381 544 1594 544 
Q 1831 544 2047 700 
Q 2206 819 2256 991 
Q 2291 1103 2291 1419 
L 2291 1594 
z
" transform="scale(0.015625)"/>
      <path id="Arial-BoldMT-6e" d="M 3478 0 
L 2600 0 
L 2600 1694 
Q 2600 2231 2544 2389 
Q 2488 2547 2361 2634 
Q 2234 2722 2056 2722 
Q 1828 2722 1647 2597 
Q 1466 2472 1398 2265 
Q 1331 2059 1331 1503 
L 1331 0 
L 453 0 
L 453 3319 
L 1269 3319 
L 1269 2831 
Q 1703 3394 2363 3394 
Q 2653 3394 2893 3289 
Q 3134 3184 3257 3021 
Q 3381 2859 3429 2653 
Q 3478 2447 3478 2063 
L 3478 0 
z
" transform="scale(0.015625)"/>
      <path id="Arial-BoldMT-69" d="M 459 3769 
L 459 4581 
L 1338 4581 
L 1338 3769 
L 459 3769 
z
M 459 0 
L 459 3319 
L 1338 3319 
L 1338 0 
L 459 0 
z
" transform="scale(0.015625)"/>
      <path id="Arial-BoldMT-65" d="M 2381 1056 
L 3256 909 
Q 3088 428 2723 176 
Q 2359 -75 1813 -75 
Q 947 -75 531 491 
Q 203 944 203 1634 
Q 203 2459 634 2926 
Q 1066 3394 1725 3394 
Q 2466 3394 2894 2905 
Q 3322 2416 3303 1406 
L 1103 1406 
Q 1113 1016 1316 798 
Q 1519 581 1822 581 
Q 2028 581 2168 693 
Q 2309 806 2381 1056 
z
M 2431 1944 
Q 2422 2325 2234 2523 
Q 2047 2722 1778 2722 
Q 1491 2722 1303 2513 
Q 1116 2303 1119 1944 
L 2431 1944 
z
" transform="scale(0.015625)"/>
      <path id="Arial-BoldMT-6c" d="M 459 0 
L 459 4581 
L 1338 4581 
L 1338 0 
L 459 0 
z
" transform="scale(0.015625)"/>
      <path id="Arial-BoldMT-63" d="M 3353 2338 
L 2488 2181 
Q 2444 2441 2289 2572 
Q 2134 2703 1888 2703 
Q 1559 2703 1364 2476 
Q 1169 2250 1169 1719 
Q 1169 1128 1367 884 
Q 1566 641 1900 641 
Q 2150 641 2309 783 
Q 2469 925 2534 1272 
L 3397 1125 
Q 3263 531 2881 228 
Q 2500 -75 1859 -75 
Q 1131 -75 698 384 
Q 266 844 266 1656 
Q 266 2478 700 2936 
Q 1134 3394 1875 3394 
Q 2481 3394 2839 3133 
Q 3197 2872 3353 2338 
z
" transform="scale(0.015625)"/>
      <path id="Arial-BoldMT-62" d="M 422 0 
L 422 4581 
L 1300 4581 
L 1300 2931 
Q 1706 3394 2263 3394 
Q 2869 3394 3266 2955 
Q 3663 2516 3663 1694 
Q 3663 844 3258 384 
Q 2853 -75 2275 -75 
Q 1991 -75 1714 67 
Q 1438 209 1238 488 
L 1238 0 
L 422 0 
z
M 1294 1731 
Q 1294 1216 1456 969 
Q 1684 619 2063 619 
Q 2353 619 2558 867 
Q 2763 1116 2763 1650 
Q 2763 2219 2556 2470 
Q 2350 2722 2028 2722 
Q 1713 2722 1503 2476 
Q 1294 2231 1294 1731 
z
" transform="scale(0.015625)"/>
      <path id="Arial-BoldMT-73" d="M 150 947 
L 1031 1081 
Q 1088 825 1259 692 
Q 1431 559 1741 559 
Q 2081 559 2253 684 
Q 2369 772 2369 919 
Q 2369 1019 2306 1084 
Q 2241 1147 2013 1200 
Q 950 1434 666 1628 
Q 272 1897 272 2375 
Q 272 2806 612 3100 
Q 953 3394 1669 3394 
Q 2350 3394 2681 3172 
Q 3013 2950 3138 2516 
L 2309 2363 
Q 2256 2556 2107 2659 
Q 1959 2763 1684 2763 
Q 1338 2763 1188 2666 
Q 1088 2597 1088 2488 
Q 1088 2394 1175 2328 
Q 1294 2241 1995 2081 
Q 2697 1922 2975 1691 
Q 3250 1456 3250 1038 
Q 3250 581 2869 253 
Q 2488 -75 1741 -75 
Q 1063 -75 667 200 
Q 272 475 150 947 
z
" transform="scale(0.015625)"/>
      <path id="Arial-BoldMT-79" d="M 44 3319 
L 978 3319 
L 1772 963 
L 2547 3319 
L 3456 3319 
L 2284 125 
L 2075 -453 
Q 1959 -744 1854 -897 
Q 1750 -1050 1614 -1145 
Q 1478 -1241 1279 -1294 
Q 1081 -1347 831 -1347 
Q 578 -1347 334 -1294 
L 256 -606 
Q 463 -647 628 -647 
Q 934 -647 1081 -467 
Q 1228 -288 1306 -9 
L 44 3319 
z
" transform="scale(0.015625)"/>
      <path id="Arial-BoldMT-70" d="M 434 3319 
L 1253 3319 
L 1253 2831 
Q 1413 3081 1684 3237 
Q 1956 3394 2288 3394 
Q 2866 3394 3269 2941 
Q 3672 2488 3672 1678 
Q 3672 847 3265 386 
Q 2859 -75 2281 -75 
Q 2006 -75 1782 34 
Q 1559 144 1313 409 
L 1313 -1263 
L 434 -1263 
L 434 3319 
z
M 1303 1716 
Q 1303 1156 1525 889 
Q 1747 622 2066 622 
Q 2372 622 2575 867 
Q 2778 1113 2778 1672 
Q 2778 2194 2568 2447 
Q 2359 2700 2050 2700 
Q 1728 2700 1515 2451 
Q 1303 2203 1303 1716 
z
" transform="scale(0.015625)"/>
      <path id="Arial-BoldMT-2c" d="M 438 878 
L 1316 878 
L 1316 250 
Q 1316 -131 1250 -351 
Q 1184 -572 1001 -747 
Q 819 -922 538 -1022 
L 366 -659 
Q 631 -572 743 -419 
Q 856 -266 863 0 
L 438 0 
L 438 878 
z
" transform="scale(0.015625)"/>
      <path id="Arial-BoldMT-32" d="M 3238 816 
L 3238 0 
L 159 0 
Q 209 463 459 877 
Q 709 1291 1447 1975 
Q 2041 2528 2175 2725 
Q 2356 2997 2356 3263 
Q 2356 3556 2198 3714 
Q 2041 3872 1763 3872 
Q 1488 3872 1325 3706 
Q 1163 3541 1138 3156 
L 263 3244 
Q 341 3969 753 4284 
Q 1166 4600 1784 4600 
Q 2463 4600 2850 4234 
Q 3238 3869 3238 3325 
Q 3238 3016 3127 2736 
Q 3016 2456 2775 2150 
Q 2616 1947 2200 1565 
Q 1784 1184 1673 1059 
Q 1563 934 1494 816 
L 3238 816 
z
" transform="scale(0.015625)"/>
      <path id="Arial-BoldMT-30" d="M 1756 4600 
Q 2422 4600 2797 4125 
Q 3244 3563 3244 2259 
Q 3244 959 2794 391 
Q 2422 -78 1756 -78 
Q 1088 -78 678 436 
Q 269 950 269 2269 
Q 269 3563 719 4131 
Q 1091 4600 1756 4600 
z
M 1756 3872 
Q 1597 3872 1472 3770 
Q 1347 3669 1278 3406 
Q 1188 3066 1188 2259 
Q 1188 1453 1269 1151 
Q 1350 850 1473 750 
Q 1597 650 1756 650 
Q 1916 650 2041 751 
Q 2166 853 2234 1116 
Q 2325 1453 2325 2259 
Q 2325 3066 2244 3367 
Q 2163 3669 2039 3770 
Q 1916 3872 1756 3872 
z
" transform="scale(0.015625)"/>
      <path id="Arial-BoldMT-2d" d="M 359 1222 
L 359 2100 
L 2084 2100 
L 2084 1222 
L 359 1222 
z
" transform="scale(0.015625)"/>
      <path id="Arial-BoldMT-35" d="M 284 1178 
L 1159 1269 
Q 1197 972 1381 798 
Q 1566 625 1806 625 
Q 2081 625 2272 848 
Q 2463 1072 2463 1522 
Q 2463 1944 2273 2155 
Q 2084 2366 1781 2366 
Q 1403 2366 1103 2031 
L 391 2134 
L 841 4519 
L 3163 4519 
L 3163 3697 
L 1506 3697 
L 1369 2919 
Q 1663 3066 1969 3066 
Q 2553 3066 2959 2641 
Q 3366 2216 3366 1538 
Q 3366 972 3038 528 
Q 2591 -78 1797 -78 
Q 1163 -78 763 262 
Q 363 603 284 1178 
z
" transform="scale(0.015625)"/>
     </defs>
     <use xlink:href="#Arial-BoldMT-47"/>
     <use xlink:href="#Arial-BoldMT-72" transform="translate(77.783203 0)"/>
     <use xlink:href="#Arial-BoldMT-6f" transform="translate(116.699219 0)"/>
     <use xlink:href="#Arial-BoldMT-77" transform="translate(177.783203 0)"/>
     <use xlink:href="#Arial-BoldMT-74" transform="translate(255.566406 0)"/>
     <use xlink:href="#Arial-BoldMT-68" transform="translate(288.867188 0)"/>
     <use xlink:href="#Arial-BoldMT-20" transform="translate(349.951172 0)"/>
     <use xlink:href="#Arial-BoldMT-6f" transform="translate(377.734375 0)"/>
     <use xlink:href="#Arial-BoldMT-66" transform="translate(438.818359 0)"/>
     <use xlink:href="#Arial-BoldMT-20" transform="translate(472.119141 0)"/>
     <use xlink:href="#Arial-BoldMT-47" transform="translate(499.902344 0)"/>
     <use xlink:href="#Arial-BoldMT-68" transform="translate(577.685547 0)"/>
     <use xlink:href="#Arial-BoldMT-61" transform="translate(638.769531 0)"/>
     <use xlink:href="#Arial-BoldMT-6e" transform="translate(694.384766 0)"/>
     <use xlink:href="#Arial-BoldMT-61" transform="translate(755.46875 0)"/>
     <use xlink:href="#Arial-BoldMT-69" transform="translate(811.083984 0)"/>
     <use xlink:href="#Arial-BoldMT-61" transform="translate(838.867188 0)"/>
     <use xlink:href="#Arial-BoldMT-6e" transform="translate(894.482422 0)"/>
     <use xlink:href="#Arial-BoldMT-20" transform="translate(955.566406 0)"/>
     <use xlink:href="#Arial-BoldMT-69" transform="translate(983.349609 0)"/>
     <use xlink:href="#Arial-BoldMT-6e" transform="translate(1011.132812 0)"/>
     <use xlink:href="#Arial-BoldMT-74" transform="translate(1072.216797 0)"/>
     <use xlink:href="#Arial-BoldMT-65" transform="translate(1105.517578 0)"/>
     <use xlink:href="#Arial-BoldMT-72" transform="translate(1161.132812 0)"/>
     <use xlink:href="#Arial-BoldMT-6e" transform="translate(1200.048828 0)"/>
     <use xlink:href="#Arial-BoldMT-61" transform="translate(1261.132812 0)"/>
     <use xlink:href="#Arial-BoldMT-74" transform="translate(1316.748047 0)"/>
     <use xlink:href="#Arial-BoldMT-69" transform="translate(1350.048828 0)"/>
     <use xlink:href="#Arial-BoldMT-6f" transform="translate(1377.832031 0)"/>
     <use xlink:href="#Arial-BoldMT-6e" transform="translate(1438.916016 0)"/>
     <use xlink:href="#Arial-BoldMT-61" transform="translate(1500 0)"/>
     <use xlink:href="#Arial-BoldMT-6c" transform="translate(1555.615234 0)"/>
     <use xlink:href="#Arial-BoldMT-20" transform="translate(1583.398438 0)"/>
     <use xlink:href="#Arial-BoldMT-63" transform="translate(1611.181641 0)"/>
     <use xlink:href="#Arial-BoldMT-6f" transform="translate(1666.796875 0)"/>
     <use xlink:href="#Arial-BoldMT-6c" transform="translate(1727.880859 0)"/>
     <use xlink:href="#Arial-BoldMT-6c" transform="translate(1755.664062 0)"/>
     <use xlink:href="#Arial-BoldMT-61" transform="translate(1783.447266 0)"/>
     <use xlink:href="#Arial-BoldMT-62" transform="translate(1839.0625 0)"/>
     <use xlink:href="#Arial-BoldMT-6f" transform="translate(1900.146484 0)"/>
     <use xlink:href="#Arial-BoldMT-72" transform="translate(1961.230469 0)"/>
     <use xlink:href="#Arial-BoldMT-61" transform="translate(2000.146484 0)"/>
     <use xlink:href="#Arial-BoldMT-74" transform="translate(2055.761719 0)"/>
     <use xlink:href="#Arial-BoldMT-69" transform="translate(2089.0625 0)"/>
     <use xlink:href="#Arial-BoldMT-6f" transform="translate(2116.845703 0)"/>
     <use xlink:href="#Arial-BoldMT-6e" transform="translate(2177.929688 0)"/>
     <use xlink:href="#Arial-BoldMT-73" transform="translate(2239.013672 0)"/>
     <use xlink:href="#Arial-BoldMT-20" transform="translate(2294.628906 0)"/>
     <use xlink:href="#Arial-BoldMT-62" transform="translate(2322.412109 0)"/>
     <use xlink:href="#Arial-BoldMT-79" transform="translate(2383.496094 0)"/>
     <use xlink:href="#Arial-BoldMT-20" transform="translate(2439.111328 0)"/>
     <use xlink:href="#Arial-BoldMT-70" transform="translate(2466.894531 0)"/>
     <use xlink:href="#Arial-BoldMT-61" transform="translate(2527.978516 0)"/>
     <use xlink:href="#Arial-BoldMT-72" transform="translate(2583.59375 0)"/>
     <use xlink:href="#Arial-BoldMT-74" transform="translate(2622.509766 0)"/>
     <use xlink:href="#Arial-BoldMT-6e" transform="translate(2655.810547 0)"/>
     <use xlink:href="#Arial-BoldMT-65" transform="translate(2716.894531 0)"/>
     <use xlink:href="#Arial-BoldMT-72" transform="translate(2772.509766 0)"/>
     <use xlink:href="#Arial-BoldMT-20" transform="translate(2811.425781 0)"/>
     <use xlink:href="#Arial-BoldMT-62" transform="translate(2839.208984 0)"/>
     <use xlink:href="#Arial-BoldMT-6c" transform="translate(2900.292969 0)"/>
     <use xlink:href="#Arial-BoldMT-6f" transform="translate(2928.076172 0)"/>
     <use xlink:href="#Arial-BoldMT-63" transform="translate(2989.160156 0)"/>
     <use xlink:href="#Arial-BoldMT-2c" transform="translate(3044.775391 0)"/>
     <use xlink:href="#Arial-BoldMT-20" transform="translate(3072.558594 0)"/>
     <use xlink:href="#Arial-BoldMT-32" transform="translate(3100.341797 0)"/>
     <use xlink:href="#Arial-BoldMT-30" transform="translate(3155.957031 0)"/>
     <use xlink:href="#Arial-BoldMT-30" transform="translate(3211.572266 0)"/>
     <use xlink:href="#Arial-BoldMT-30" transform="translate(3267.1875 0)"/>
     <use xlink:href="#Arial-BoldMT-2d" transform="translate(3322.802734 0)"/>
     <use xlink:href="#Arial-BoldMT-32" transform="translate(3356.103516 0)"/>
     <use xlink:href="#Arial-BoldMT-30" transform="translate(3411.71875 0)"/>
     <use xlink:href="#Arial-BoldMT-32" transform="translate(3467.333984 0)"/>
     <use xlink:href="#Arial-BoldMT-35" transform="translate(3522.949219 0)"/>
    </g>
   </g>
   <g id="legend_1">
    <g id="patch_5">
     <path d="M 57.018125 109.005312 
L 135.534375 109.005312 
Q 137.134375 109.005312 137.134375 107.405312 
L 137.134375 28.991562 
Q 137.134375 27.391562 135.534375 27.391562 
L 57.018125 27.391562 
Q 55.418125 27.391562 55.418125 28.991562 
L 55.418125 107.405312 
Q 55.418125 109.005312 57.018125 109.005312 
z
" style="fill: #ffffff; opacity: 0.8; stroke: #cccccc; stroke-linejoin: miter"/>
    </g>
    <g id="patch_6">
     <path d="M 58.618125 36.317812 
L 74.618125 36.317812 
L 74.618125 30.717812 
L 58.618125 30.717812 
z
" style="fill: #1565c0; fill-opacity: 0.85"/>
    </g>
    <g id="text_18">
     <!-- Western -->
     <g transform="translate(81.018125 36.317812) scale(0.08 -0.08)">
      <defs>
       <path id="ArialMT-57" d="M 1294 0 
L 78 4581 
L 700 4581 
L 1397 1578 
Q 1509 1106 1591 641 
Q 1766 1375 1797 1488 
L 2669 4581 
L 3400 4581 
L 4056 2263 
Q 4303 1400 4413 641 
Q 4500 1075 4641 1638 
L 5359 4581 
L 5969 4581 
L 4713 0 
L 4128 0 
L 3163 3491 
Q 3041 3928 3019 4028 
Q 2947 3713 2884 3491 
L 1913 0 
L 1294 0 
z
" transform="scale(0.015625)"/>
      </defs>
      <use xlink:href="#ArialMT-57"/>
      <use xlink:href="#ArialMT-65" transform="translate(92.634766 0)"/>
      <use xlink:href="#ArialMT-73" transform="translate(148.25 0)"/>
      <use xlink:href="#ArialMT-74" transform="translate(198.25 0)"/>
      <use xlink:href="#ArialMT-65" transform="translate(226.033203 0)"/>
      <use xlink:href="#ArialMT-72" transform="translate(281.648438 0)"/>
      <use xlink:href="#ArialMT-6e" transform="translate(314.949219 0)"/>
     </g>
    </g>
    <g id="patch_7">
     <path d="M 58.618125 47.634062 
L 74.618125 47.634062 
L 74.618125 42.034062 
L 58.618125 42.034062 
z
" style="fill: #78909c; fill-opacity: 0.85"/>
    </g>
    <g id="text_19">
     <!-- Multi-bloc -->
     <g transform="translate(81.018125 47.634062) scale(0.08 -0.08)">
      <defs>
       <path id="ArialMT-4d" d="M 475 0 
L 475 4581 
L 1388 4581 
L 2472 1338 
Q 2622 884 2691 659 
Q 2769 909 2934 1394 
L 4031 4581 
L 4847 4581 
L 4847 0 
L 4263 0 
L 4263 3834 
L 2931 0 
L 2384 0 
L 1059 3900 
L 1059 0 
L 475 0 
z
" transform="scale(0.015625)"/>
       <path id="ArialMT-2d" d="M 203 1375 
L 203 1941 
L 1931 1941 
L 1931 1375 
L 203 1375 
z
" transform="scale(0.015625)"/>
       <path id="ArialMT-63" d="M 2588 1216 
L 3141 1144 
Q 3050 572 2676 248 
Q 2303 -75 1759 -75 
Q 1078 -75 664 370 
Q 250 816 250 1647 
Q 250 2184 428 2587 
Q 606 2991 970 3192 
Q 1334 3394 1763 3394 
Q 2303 3394 2647 3120 
Q 2991 2847 3088 2344 
L 2541 2259 
Q 2463 2594 2264 2762 
Q 2066 2931 1784 2931 
Q 1359 2931 1093 2626 
Q 828 2322 828 1663 
Q 828 994 1084 691 
Q 1341 388 1753 388 
Q 2084 388 2306 591 
Q 2528 794 2588 1216 
z
" transform="scale(0.015625)"/>
      </defs>
      <use xlink:href="#ArialMT-4d"/>
      <use xlink:href="#ArialMT-75" transform="translate(83.300781 0)"/>
      <use xlink:href="#ArialMT-6c" transform="translate(138.916016 0)"/>
      <use xlink:href="#ArialMT-74" transform="translate(161.132812 0)"/>
      <use xlink:href="#ArialMT-69" transform="translate(188.916016 0)"/>
      <use xlink:href="#ArialMT-2d" transform="translate(211.132812 0)"/>
      <use xlink:href="#ArialMT-62" transform="translate(244.433594 0)"/>
      <use xlink:href="#ArialMT-6c" transform="translate(300.048828 0)"/>
      <use xlink:href="#ArialMT-6f" transform="translate(322.265625 0)"/>
      <use xlink:href="#ArialMT-63" transform="translate(377.880859 0)"/>
     </g>
    </g>
    <g id="patch_8">
     <path d="M 58.618125 58.950312 
L 74.618125 58.950312 
L 74.618125 53.350312 
L 58.618125 53.350312 
z
" style="fill: #2e7d32; fill-opacity: 0.85"/>
    </g>
    <g id="text_20">
     <!-- African -->
     <g transform="translate(81.018125 58.950312) scale(0.08 -0.08)">
      <defs>
       <path id="ArialMT-41" d="M -9 0 
L 1750 4581 
L 2403 4581 
L 4278 0 
L 3588 0 
L 3053 1388 
L 1138 1388 
L 634 0 
L -9 0 
z
M 1313 1881 
L 2866 1881 
L 2388 3150 
Q 2169 3728 2063 4100 
Q 1975 3659 1816 3225 
L 1313 1881 
z
" transform="scale(0.015625)"/>
      </defs>
      <use xlink:href="#ArialMT-41"/>
      <use xlink:href="#ArialMT-66" transform="translate(66.699219 0)"/>
      <use xlink:href="#ArialMT-72" transform="translate(94.482422 0)"/>
      <use xlink:href="#ArialMT-69" transform="translate(127.783203 0)"/>
      <use xlink:href="#ArialMT-63" transform="translate(150 0)"/>
      <use xlink:href="#ArialMT-61" transform="translate(200 0)"/>
      <use xlink:href="#ArialMT-6e" transform="translate(255.615234 0)"/>
     </g>
    </g>
    <g id="patch_9">
     <path d="M 58.618125 70.266562 
L 74.618125 70.266562 
L 74.618125 64.666562 
L 58.618125 64.666562 
z
" style="fill: #e53935; fill-opacity: 0.85"/>
    </g>
    <g id="text_21">
     <!-- East Asian -->
     <g transform="translate(81.018125 70.266562) scale(0.08 -0.08)">
      <defs>
       <path id="ArialMT-45" d="M 506 0 
L 506 4581 
L 3819 4581 
L 3819 4041 
L 1113 4041 
L 1113 2638 
L 3647 2638 
L 3647 2100 
L 1113 2100 
L 1113 541 
L 3925 541 
L 3925 0 
L 506 0 
z
" transform="scale(0.015625)"/>
      </defs>
      <use xlink:href="#ArialMT-45"/>
      <use xlink:href="#ArialMT-61" transform="translate(66.699219 0)"/>
      <use xlink:href="#ArialMT-73" transform="translate(122.314453 0)"/>
      <use xlink:href="#ArialMT-74" transform="translate(172.314453 0)"/>
      <use xlink:href="#ArialMT-20" transform="translate(200.097656 0)"/>
      <use xlink:href="#ArialMT-41" transform="translate(222.380859 0)"/>
      <use xlink:href="#ArialMT-73" transform="translate(289.080078 0)"/>
      <use xlink:href="#ArialMT-69" transform="translate(339.080078 0)"/>
      <use xlink:href="#ArialMT-61" transform="translate(361.296875 0)"/>
      <use xlink:href="#ArialMT-6e" transform="translate(416.912109 0)"/>
     </g>
    </g>
    <g id="patch_10">
     <path d="M 58.618125 81.582812 
L 74.618125 81.582812 
L 74.618125 75.982812 
L 58.618125 75.982812 
z
" style="fill: #f9a825; fill-opacity: 0.85"/>
    </g>
    <g id="text_22">
     <!-- South Asian -->
     <g transform="translate(81.018125 81.582812) scale(0.08 -0.08)">
      <defs>
       <path id="ArialMT-53" d="M 288 1472 
L 859 1522 
Q 900 1178 1048 958 
Q 1197 738 1509 602 
Q 1822 466 2213 466 
Q 2559 466 2825 569 
Q 3091 672 3220 851 
Q 3350 1031 3350 1244 
Q 3350 1459 3225 1620 
Q 3100 1781 2813 1891 
Q 2628 1963 1997 2114 
Q 1366 2266 1113 2400 
Q 784 2572 623 2826 
Q 463 3081 463 3397 
Q 463 3744 659 4045 
Q 856 4347 1234 4503 
Q 1613 4659 2075 4659 
Q 2584 4659 2973 4495 
Q 3363 4331 3572 4012 
Q 3781 3694 3797 3291 
L 3216 3247 
Q 3169 3681 2898 3903 
Q 2628 4125 2100 4125 
Q 1550 4125 1298 3923 
Q 1047 3722 1047 3438 
Q 1047 3191 1225 3031 
Q 1400 2872 2139 2705 
Q 2878 2538 3153 2413 
Q 3553 2228 3743 1945 
Q 3934 1663 3934 1294 
Q 3934 928 3725 604 
Q 3516 281 3123 101 
Q 2731 -78 2241 -78 
Q 1619 -78 1198 103 
Q 778 284 539 648 
Q 300 1013 288 1472 
z
" transform="scale(0.015625)"/>
       <path id="ArialMT-68" d="M 422 0 
L 422 4581 
L 984 4581 
L 984 2938 
Q 1378 3394 1978 3394 
Q 2347 3394 2619 3248 
Q 2891 3103 3008 2847 
Q 3125 2591 3125 2103 
L 3125 0 
L 2563 0 
L 2563 2103 
Q 2563 2525 2380 2717 
Q 2197 2909 1863 2909 
Q 1613 2909 1392 2779 
Q 1172 2650 1078 2428 
Q 984 2206 984 1816 
L 984 0 
L 422 0 
z
" transform="scale(0.015625)"/>
      </defs>
      <use xlink:href="#ArialMT-53"/>
      <use xlink:href="#ArialMT-6f" transform="translate(66.699219 0)"/>
      <use xlink:href="#ArialMT-75" transform="translate(122.314453 0)"/>
      <use xlink:href="#ArialMT-74" transform="translate(177.929688 0)"/>
      <use xlink:href="#ArialMT-68" transform="translate(205.712891 0)"/>
      <use xlink:href="#ArialMT-20" transform="translate(261.328125 0)"/>
      <use xlink:href="#ArialMT-41" transform="translate(283.611328 0)"/>
      <use xlink:href="#ArialMT-73" transform="translate(350.310547 0)"/>
      <use xlink:href="#ArialMT-69" transform="translate(400.310547 0)"/>
      <use xlink:href="#ArialMT-61" transform="translate(422.527344 0)"/>
      <use xlink:href="#ArialMT-6e" transform="translate(478.142578 0)"/>
     </g>
    </g>
    <g id="patch_11">
     <path d="M 58.618125 92.899062 
L 74.618125 92.899062 
L 74.618125 87.299062 
L 58.618125 87.299062 
z
" style="fill: #8e24aa; fill-opacity: 0.85"/>
    </g>
    <g id="text_23">
     <!-- MENA -->
     <g transform="translate(81.018125 92.899062) scale(0.08 -0.08)">
      <use xlink:href="#ArialMT-4d"/>
      <use xlink:href="#ArialMT-45" transform="translate(83.300781 0)"/>
      <use xlink:href="#ArialMT-4e" transform="translate(150 0)"/>
      <use xlink:href="#ArialMT-41" transform="translate(222.216797 0)"/>
     </g>
    </g>
    <g id="patch_12">
     <path d="M 58.618125 104.215312 
L 74.618125 104.215312 
L 74.618125 98.615312 
L 58.618125 98.615312 
z
" style="fill: #ff8f00; fill-opacity: 0.85"/>
    </g>
    <g id="text_24">
     <!-- Latin American -->
     <g transform="translate(81.018125 104.215312) scale(0.08 -0.08)">
      <defs>
       <path id="ArialMT-4c" d="M 469 0 
L 469 4581 
L 1075 4581 
L 1075 541 
L 3331 541 
L 3331 0 
L 469 0 
z
" transform="scale(0.015625)"/>
      </defs>
      <use xlink:href="#ArialMT-4c"/>
      <use xlink:href="#ArialMT-61" transform="translate(55.615234 0)"/>
      <use xlink:href="#ArialMT-74" transform="translate(111.230469 0)"/>
      <use xlink:href="#ArialMT-69" transform="translate(139.013672 0)"/>
      <use xlink:href="#ArialMT-6e" transform="translate(161.230469 0)"/>
      <use xlink:href="#ArialMT-20" transform="translate(216.845703 0)"/>
      <use xlink:href="#ArialMT-41" transform="translate(239.128906 0)"/>
      <use xlink:href="#ArialMT-6d" transform="translate(305.828125 0)"/>
      <use xlink:href="#ArialMT-65" transform="translate(389.128906 0)"/>
      <use xlink:href="#ArialMT-72" transform="translate(444.744141 0)"/>
      <use xlink:href="#ArialMT-69" transform="translate(478.044922 0)"/>
      <use xlink:href="#ArialMT-63" transform="translate(500.261719 0)"/>
      <use xlink:href="#ArialMT-61" transform="translate(550.261719 0)"/>
      <use xlink:href="#ArialMT-6e" transform="translate(605.876953 0)"/>
     </g>
    </g>
   </g>
  </g>
 </g>
 <defs>
  <clipPath id="pf54e7a6699">
   <rect x="51.418125" y="23.391562" width="510.28" height="290.44"/>
  </clipPath>
 </defs>
</svg>
