<?xml version="1.0" encoding="utf-8" standalone="no"?>
<!DOCTYPE svg PUBLIC "-//W3C//DTD SVG 1.1//EN"
  "http://www.w3.org/Graphics/SVG/1.1/DTD/svg11.dtd">
<svg xmlns:xlink="http://www.w3.org/1999/xlink" width="568.898125pt" height="352.15125pt" viewBox="0 0 568.898125 352.15125" xmlns="http://www.w3.org/2000/svg" version="1.1">
 <metadata>
  <rdf:RDF xmlns:dc="http://purl.org/dc/elements/1.1/" xmlns:cc="http://creativecommons.org/ns#" xmlns:rdf="http://www.w3.org/1999/02/22-rdf-syntax-ns#">
   <cc:Work>
    <dc:type rdf:resource="http://purl.org/dc/dcmitype/StillImage"/>
    <dc:date>2026-04-09T22:54:47.754891</dc:date>
    <dc:format>image/svg+xml</dc:format>
    <dc:creator>
     <cc:Agent>
      <dc:title>Matplotlib v3.10.8, https://matplotlib.org/</dc:title>
     </cc:Agent>
    </dc:creator>
   </cc:Work>
  </rdf:RDF>
 </metadata>
 <defs>
  <style type="text/css">*{stroke-linejoin: round; stroke-linecap: butt}</style>
 </defs>
 <g id="figure_1">
  <g id="patch_1">
   <path d="M 0 352.15125 
L 568.898125 352.15125 
L 568.898125 0 
L 0 0 
z
" style="fill: #ffffff"/>
  </g>
  <g id="axes_1">
   <g id="patch_2">
    <path d="M 51.418125 313.831562 
L 561.698125 313.831562 
L 561.698125 23.391562 
L 51.418125 23.391562 
z
" style="fill: #ffffff"/>
   </g>
   <g id="FillBetweenPolyCollection_1">
    <path d="M 74.61267 309.674425 
L 74.61267 313.831562 
L 93.168307 313.831562 
L 111.723943 313.831562 
L 130.27958 313.831562 
L 148.835216 313.831562 
L 167.390852 313.831562 
L 185.946489 313.831562 
L 204.502125 313.831562 
L 223.057761 313.831562 
L 241.613398 313.831562 
L 260.169034 313.831562 
L 278.72467 313.831562 
L 297.280307 313.831562 
L 315.835943 313.831562 
L 334.39158 313.831562 
L 352.947216 313.831562 
L 371.502852 313.831562 
L 390.058489 313.831562 
L 408.614125 313.831562 
L 427.169761 313.831562 
L 445.725398 313.831562 
L 464.281034 313.831562 
L 482.83667 313.831562 
L 501.392307 313.831562 
L 519.947943 313.831562 
L 538.50358 313.831562 
L 538.50358 161.216655 
L 538.50358 161.216655 
L 519.947943 192.63502 
L 501.392307 203.107808 
L 482.83667 207.82456 
L 464.281034 217.497899 
L 445.725398 226.371788 
L 427.169761 252.433842 
L 408.614125 264.505529 
L 390.058489 272.260189 
L 371.502852 272.979694 
L 352.947216 275.617877 
L 334.39158 282.892867 
L 315.835943 287.849454 
L 297.280307 292.006591 
L 278.72467 295.604114 
L 260.169034 296.003839 
L 241.613398 302.239545 
L 223.057761 302.1596 
L 204.502125 302.1596 
L 185.946489 304.078279 
L 167.390852 305.837068 
L 148.835216 307.515912 
L 130.27958 306.396682 
L 111.723943 309.034866 
L 93.168307 308.715086 
L 74.61267 309.674425 
z
" clip-path="url(#p53ccc66e42)" style="fill: #0173b2; fill-opacity: 0.85"/>
   </g>
   <g id="FillBetweenPolyCollection_2">
    <path d="M 74.61267 308.395306 
L 74.61267 309.674425 
L 93.168307 308.715086 
L 111.723943 309.034866 
L 130.27958 306.396682 
L 148.835216 307.515912 
L 167.390852 305.837068 
L 185.946489 304.078279 
L 204.502125 302.1596 
L 223.057761 302.1596 
L 241.613398 302.239545 
L 260.169034 296.003839 
L 278.72467 295.604114 
L 297.280307 292.006591 
L 315.835943 287.849454 
L 334.39158 282.892867 
L 352.947216 275.617877 
L 371.502852 272.979694 
L 390.058489 272.260189 
L 408.614125 264.505529 
L 427.169761 252.433842 
L 445.725398 226.371788 
L 464.281034 217.497899 
L 482.83667 207.82456 
L 501.392307 203.107808 
L 519.947943 192.63502 
L 538.50358 161.216655 
L 538.50358 116.047758 
L 538.50358 116.047758 
L 519.947943 158.658416 
L 501.392307 173.448232 
L 482.83667 179.204268 
L 464.281034 193.594359 
L 445.725398 198.471001 
L 427.169761 234.686063 
L 408.614125 248.916264 
L 390.058489 261.227786 
L 371.502852 263.945914 
L 352.947216 265.384923 
L 334.39158 273.619253 
L 315.835943 278.815675 
L 297.280307 284.171986 
L 278.72467 290.327747 
L 260.169034 290.407692 
L 241.613398 297.203013 
L 223.057761 296.963178 
L 204.502125 297.282958 
L 185.946489 300.400811 
L 167.390852 302.719215 
L 148.835216 304.078279 
L 130.27958 302.47938 
L 111.723943 306.156847 
L 93.168307 307.915636 
L 74.61267 308.395306 
z
" clip-path="url(#p53ccc66e42)" style="fill: #de8f05; fill-opacity: 0.85"/>
   </g>
   <g id="FillBetweenPolyCollection_3">
    <path d="M 74.61267 308.235416 
L 74.61267 308.395306 
L 93.168307 307.915636 
L 111.723943 306.156847 
L 130.27958 302.47938 
L 148.835216 304.078279 
L 167.390852 302.719215 
L 185.946489 300.400811 
L 204.502125 297.282958 
L 223.057761 296.963178 
L 241.613398 297.203013 
L 260.169034 290.407692 
L 278.72467 290.327747 
L 297.280307 284.171986 
L 315.835943 278.815675 
L 334.39158 273.619253 
L 352.947216 265.384923 
L 371.502852 263.945914 
L 390.058489 261.227786 
L 408.614125 248.916264 
L 427.169761 234.686063 
L 445.725398 198.471001 
L 464.281034 193.594359 
L 482.83667 179.204268 
L 501.392307 173.448232 
L 519.947943 158.658416 
L 538.50358 116.047758 
L 538.50358 91.504659 
L 538.50358 91.504659 
L 519.947943 138.032619 
L 501.392307 155.460618 
L 482.83667 160.577095 
L 464.281034 178.324874 
L 445.725398 182.561956 
L 427.169761 224.772889 
L 408.614125 241.401439 
L 390.058489 254.51241 
L 371.502852 259.309107 
L 352.947216 260.748116 
L 334.39158 268.982446 
L 315.835943 274.978317 
L 297.280307 281.853583 
L 278.72467 288.089289 
L 260.169034 288.648904 
L 241.613398 295.204389 
L 223.057761 295.284334 
L 204.502125 296.003839 
L 185.946489 299.761251 
L 167.390852 301.67993 
L 148.835216 303.598609 
L 130.27958 301.99971 
L 111.723943 305.117563 
L 93.168307 306.956297 
L 74.61267 308.235416 
z
" clip-path="url(#p53ccc66e42)" style="fill: #029e73; fill-opacity: 0.85"/>
   </g>
   <g id="FillBetweenPolyCollection_4">
    <path d="M 74.61267 307.435967 
L 74.61267 308.235416 
L 93.168307 306.956297 
L 111.723943 305.117563 
L 130.27958 301.99971 
L 148.835216 303.598609 
L 167.390852 301.67993 
L 185.946489 299.761251 
L 204.502125 296.003839 
L 223.057761 295.284334 
L 241.613398 295.204389 
L 260.169034 288.648904 
L 278.72467 288.089289 
L 297.280307 281.853583 
L 315.835943 274.978317 
L 334.39158 268.982446 
L 352.947216 260.748116 
L 371.502852 259.309107 
L 390.058489 254.51241 
L 408.614125 241.401439 
L 427.169761 224.772889 
L 445.725398 182.561956 
L 464.281034 178.324874 
L 482.83667 160.577095 
L 501.392307 155.460618 
L 519.947943 138.032619 
L 538.50358 91.504659 
L 538.50358 67.761009 
L 538.50358 67.761009 
L 519.947943 120.76451 
L 501.392307 137.792785 
L 482.83667 146.027114 
L 464.281034 165.693572 
L 445.725398 171.209773 
L 427.169761 214.779771 
L 408.614125 235.085788 
L 390.058489 248.676429 
L 371.502852 253.073401 
L 352.947216 255.951419 
L 334.39158 264.745364 
L 315.835943 271.30085 
L 297.280307 279.135455 
L 278.72467 286.01072 
L 260.169034 287.209894 
L 241.613398 293.60549 
L 223.057761 293.045876 
L 204.502125 294.484885 
L 185.946489 299.041747 
L 167.390852 300.560701 
L 148.835216 301.83982 
L 130.27958 301.36015 
L 111.723943 304.717838 
L 93.168307 306.076902 
L 74.61267 307.435967 
z
" clip-path="url(#p53ccc66e42)" style="fill: #d55e00; fill-opacity: 0.85"/>
   </g>
   <g id="FillBetweenPolyCollection_5">
    <path d="M 74.61267 306.956297 
L 74.61267 307.435967 
L 93.168307 306.076902 
L 111.723943 304.717838 
L 130.27958 301.36015 
L 148.835216 301.83982 
L 167.390852 300.560701 
L 185.946489 299.041747 
L 204.502125 294.484885 
L 223.057761 293.045876 
L 241.613398 293.60549 
L 260.169034 287.209894 
L 278.72467 286.01072 
L 297.280307 279.135455 
L 315.835943 271.30085 
L 334.39158 264.745364 
L 352.947216 255.951419 
L 371.502852 253.073401 
L 390.058489 248.676429 
L 408.614125 235.085788 
L 427.169761 214.779771 
L 445.725398 171.209773 
L 464.281034 165.693572 
L 482.83667 146.027114 
L 501.392307 137.792785 
L 519.947943 120.76451 
L 538.50358 67.761009 
L 538.50358 57.687946 
L 538.50358 57.687946 
L 519.947943 111.890621 
L 501.392307 129.15873 
L 482.83667 137.952675 
L 464.281034 158.498526 
L 445.725398 161.45649 
L 427.169761 209.583349 
L 408.614125 229.889366 
L 390.058489 243.160228 
L 371.502852 249.156099 
L 352.947216 252.114062 
L 334.39158 261.947291 
L 315.835943 269.222281 
L 297.280307 277.216776 
L 278.72467 284.491766 
L 260.169034 285.69094 
L 241.613398 292.326371 
L 223.057761 292.006591 
L 204.502125 292.885986 
L 185.946489 298.322242 
L 167.390852 299.761251 
L 148.835216 301.440095 
L 130.27958 300.720591 
L 111.723943 304.637893 
L 93.168307 305.996957 
L 74.61267 306.956297 
z
" clip-path="url(#p53ccc66e42)" style="fill: #cc78bc; fill-opacity: 0.85"/>
   </g>
   <g id="FillBetweenPolyCollection_6">
    <path d="M 74.61267 306.076902 
L 74.61267 306.956297 
L 93.168307 305.996957 
L 111.723943 304.637893 
L 130.27958 300.720591 
L 148.835216 301.440095 
L 167.390852 299.761251 
L 185.946489 298.322242 
L 204.502125 292.885986 
L 223.057761 292.006591 
L 241.613398 292.326371 
L 260.169034 285.69094 
L 278.72467 284.491766 
L 297.280307 277.216776 
L 315.835943 269.222281 
L 334.39158 261.947291 
L 352.947216 252.114062 
L 371.502852 249.156099 
L 390.058489 243.160228 
L 408.614125 229.889366 
L 427.169761 209.583349 
L 445.725398 161.45649 
L 464.281034 158.498526 
L 482.83667 137.952675 
L 501.392307 129.15873 
L 519.947943 111.890621 
L 538.50358 57.687946 
L 538.50358 45.616258 
L 538.50358 45.616258 
L 519.947943 102.936787 
L 501.392307 121.643905 
L 482.83667 130.038125 
L 464.281034 151.943041 
L 445.725398 155.620508 
L 427.169761 204.466872 
L 408.614125 225.412449 
L 390.058489 240.122319 
L 371.502852 246.118191 
L 352.947216 249.635768 
L 334.39158 260.508281 
L 315.835943 268.182997 
L 297.280307 275.218152 
L 278.72467 283.212647 
L 260.169034 284.571711 
L 241.613398 290.727472 
L 223.057761 291.047252 
L 204.502125 292.166481 
L 185.946489 297.282958 
L 167.390852 299.201637 
L 148.835216 299.521417 
L 130.27958 300.320866 
L 111.723943 303.918389 
L 93.168307 304.877728 
L 74.61267 306.076902 
z
" clip-path="url(#p53ccc66e42)" style="fill: #ca9161; fill-opacity: 0.85"/>
   </g>
   <g id="FillBetweenPolyCollection_7">
    <path d="M 74.61267 305.517288 
L 74.61267 306.076902 
L 93.168307 304.877728 
L 111.723943 303.918389 
L 130.27958 300.320866 
L 148.835216 299.521417 
L 167.390852 299.201637 
L 185.946489 297.282958 
L 204.502125 292.166481 
L 223.057761 291.047252 
L 241.613398 290.727472 
L 260.169034 284.571711 
L 278.72467 283.212647 
L 297.280307 275.218152 
L 315.835943 268.182997 
L 334.39158 260.508281 
L 352.947216 249.635768 
L 371.502852 246.118191 
L 390.058489 240.122319 
L 408.614125 225.412449 
L 427.169761 204.466872 
L 445.725398 155.620508 
L 464.281034 151.943041 
L 482.83667 130.038125 
L 501.392307 121.643905 
L 519.947943 102.936787 
L 538.50358 45.616258 
L 538.50358 37.222039 
L 538.50358 37.222039 
L 519.947943 96.860971 
L 501.392307 118.126327 
L 482.83667 125.960932 
L 464.281034 147.146344 
L 445.725398 151.063646 
L 427.169761 202.148469 
L 408.614125 222.85421 
L 390.058489 237.963806 
L 371.502852 244.359402 
L 352.947216 248.036869 
L 334.39158 259.149217 
L 315.835943 267.223657 
L 297.280307 274.018978 
L 278.72467 282.493142 
L 260.169034 283.932152 
L 241.613398 290.247803 
L 223.057761 290.407692 
L 204.502125 291.846702 
L 185.946489 296.963178 
L 167.390852 298.562077 
L 148.835216 299.361527 
L 130.27958 300.160976 
L 111.723943 303.598609 
L 93.168307 304.318114 
L 74.61267 305.517288 
z
" clip-path="url(#p53ccc66e42)" style="fill: #fbafe4; fill-opacity: 0.85"/>
   </g>
   <g id="matplotlib.axis_1">
    <g id="xtick_1">
     <g id="line2d_1">
      <defs>
       <path id="m838a9b824e" d="M 0 0 
L 0 3.5 
" style="stroke: #000000; stroke-width: 0.8"/>
      </defs>
      <g>
       <use xlink:href="#m838a9b824e" x="74.61267" y="313.831562" style="stroke: #000000; stroke-width: 0.8"/>
      </g>
     </g>
     <g id="text_1">
      <!-- 2000 -->
      <g transform="translate(63.490795 327.989375) scale(0.1 -0.1)">
       <defs>
        <path id="ArialMT-32" d="M 3222 541 
L 3222 0 
L 194 0 
Q 188 203 259 391 
Q 375 700 629 1000 
Q 884 1300 1366 1694 
Q 2113 2306 2375 2664 
Q 2638 3022 2638 3341 
Q 2638 3675 2398 3904 
Q 2159 4134 1775 4134 
Q 1369 4134 1125 3890 
Q 881 3647 878 3216 
L 300 3275 
Q 359 3922 746 4261 
Q 1134 4600 1788 4600 
Q 2447 4600 2831 4234 
Q 3216 3869 3216 3328 
Q 3216 3053 3103 2787 
Q 2991 2522 2730 2228 
Q 2469 1934 1863 1422 
Q 1356 997 1212 845 
Q 1069 694 975 541 
L 3222 541 
z
" transform="scale(0.015625)"/>
        <path id="ArialMT-30" d="M 266 2259 
Q 266 3072 433 3567 
Q 600 4063 929 4331 
Q 1259 4600 1759 4600 
Q 2128 4600 2406 4451 
Q 2684 4303 2865 4023 
Q 3047 3744 3150 3342 
Q 3253 2941 3253 2259 
Q 3253 1453 3087 958 
Q 2922 463 2592 192 
Q 2263 -78 1759 -78 
Q 1097 -78 719 397 
Q 266 969 266 2259 
z
M 844 2259 
Q 844 1131 1108 757 
Q 1372 384 1759 384 
Q 2147 384 2411 759 
Q 2675 1134 2675 2259 
Q 2675 3391 2411 3762 
Q 2147 4134 1753 4134 
Q 1366 4134 1134 3806 
Q 844 3388 844 2259 
z
" transform="scale(0.015625)"/>
       </defs>
       <use xlink:href="#ArialMT-32"/>
       <use xlink:href="#ArialMT-30" transform="translate(55.615234 0)"/>
       <use xlink:href="#ArialMT-30" transform="translate(111.230469 0)"/>
       <use xlink:href="#ArialMT-30" transform="translate(166.845703 0)"/>
      </g>
     </g>
    </g>
    <g id="xtick_2">
     <g id="line2d_2">
      <g>
       <use xlink:href="#m838a9b824e" x="167.390852" y="313.831562" style="stroke: #000000; stroke-width: 0.8"/>
      </g>
     </g>
     <g id="text_2">
      <!-- 2005 -->
      <g transform="translate(156.268977 327.989375) scale(0.1 -0.1)">
       <defs>
        <path id="ArialMT-35" d="M 266 1200 
L 856 1250 
Q 922 819 1161 601 
Q 1400 384 1738 384 
Q 2144 384 2425 690 
Q 2706 997 2706 1503 
Q 2706 1984 2436 2262 
Q 2166 2541 1728 2541 
Q 1456 2541 1237 2417 
Q 1019 2294 894 2097 
L 366 2166 
L 809 4519 
L 3088 4519 
L 3088 3981 
L 1259 3981 
L 1013 2750 
Q 1425 3038 1878 3038 
Q 2478 3038 2890 2622 
Q 3303 2206 3303 1553 
Q 3303 931 2941 478 
Q 2500 -78 1738 -78 
Q 1113 -78 717 272 
Q 322 622 266 1200 
z
" transform="scale(0.015625)"/>
       </defs>
       <use xlink:href="#ArialMT-32"/>
       <use xlink:href="#ArialMT-30" transform="translate(55.615234 0)"/>
       <use xlink:href="#ArialMT-30" transform="translate(111.230469 0)"/>
       <use xlink:href="#ArialMT-35" transform="translate(166.845703 0)"/>
      </g>
     </g>
    </g>
    <g id="xtick_3">
     <g id="line2d_3">
      <g>
       <use xlink:href="#m838a9b824e" x="260.169034" y="313.831562" style="stroke: #000000; stroke-width: 0.8"/>
      </g>
     </g>
     <g id="text_3">
      <!-- 2010 -->
      <g transform="translate(249.047159 327.989375) scale(0.1 -0.1)">
       <defs>
        <path id="ArialMT-31" d="M 2384 0 
L 1822 0 
L 1822 3584 
Q 1619 3391 1289 3197 
Q 959 3003 697 2906 
L 697 3450 
Q 1169 3672 1522 3987 
Q 1875 4303 2022 4600 
L 2384 4600 
L 2384 0 
z
" transform="scale(0.015625)"/>
       </defs>
       <use xlink:href="#ArialMT-32"/>
       <use xlink:href="#ArialMT-30" transform="translate(55.615234 0)"/>
       <use xlink:href="#ArialMT-31" transform="translate(111.230469 0)"/>
       <use xlink:href="#ArialMT-30" transform="translate(166.845703 0)"/>
      </g>
     </g>
    </g>
    <g id="xtick_4">
     <g id="line2d_4">
      <g>
       <use xlink:href="#m838a9b824e" x="352.947216" y="313.831562" style="stroke: #000000; stroke-width: 0.8"/>
      </g>
     </g>
     <g id="text_4">
      <!-- 2015 -->
      <g transform="translate(341.825341 327.989375) scale(0.1 -0.1)">
       <use xlink:href="#ArialMT-32"/>
       <use xlink:href="#ArialMT-30" transform="translate(55.615234 0)"/>
       <use xlink:href="#ArialMT-31" transform="translate(111.230469 0)"/>
       <use xlink:href="#ArialMT-35" transform="translate(166.845703 0)"/>
      </g>
     </g>
    </g>
    <g id="xtick_5">
     <g id="line2d_5">
      <g>
       <use xlink:href="#m838a9b824e" x="445.725398" y="313.831562" style="stroke: #000000; stroke-width: 0.8"/>
      </g>
     </g>
     <g id="text_5">
      <!-- 2020 -->
      <g transform="translate(434.603523 327.989375) scale(0.1 -0.1)">
       <use xlink:href="#ArialMT-32"/>
       <use xlink:href="#ArialMT-30" transform="translate(55.615234 0)"/>
       <use xlink:href="#ArialMT-32" transform="translate(111.230469 0)"/>
       <use xlink:href="#ArialMT-30" transform="translate(166.845703 0)"/>
      </g>
     </g>
    </g>
    <g id="xtick_6">
     <g id="line2d_6">
      <g>
       <use xlink:href="#m838a9b824e" x="538.50358" y="313.831562" style="stroke: #000000; stroke-width: 0.8"/>
      </g>
     </g>
     <g id="text_6">
      <!-- 2025 -->
      <g transform="translate(527.381705 327.989375) scale(0.1 -0.1)">
       <use xlink:href="#ArialMT-32"/>
       <use xlink:href="#ArialMT-30" transform="translate(55.615234 0)"/>
       <use xlink:href="#ArialMT-32" transform="translate(111.230469 0)"/>
       <use xlink:href="#ArialMT-35" transform="translate(166.845703 0)"/>
      </g>
     </g>
    </g>
    <g id="text_7">
     <!-- Year -->
     <g transform="translate(294.4325 342.56625) scale(0.12 -0.12)">
      <defs>
       <path id="ArialMT-59" d="M 1784 0 
L 1784 1941 
L 19 4581 
L 756 4581 
L 1659 3200 
Q 1909 2813 2125 2425 
Q 2331 2784 2625 3234 
L 3513 4581 
L 4219 4581 
L 2391 1941 
L 2391 0 
L 1784 0 
z
" transform="scale(0.015625)"/>
       <path id="ArialMT-65" d="M 2694 1069 
L 3275 997 
Q 3138 488 2766 206 
Q 2394 -75 1816 -75 
Q 1088 -75 661 373 
Q 234 822 234 1631 
Q 234 2469 665 2931 
Q 1097 3394 1784 3394 
Q 2450 3394 2872 2941 
Q 3294 2488 3294 1666 
Q 3294 1616 3291 1516 
L 816 1516 
Q 847 969 1125 678 
Q 1403 388 1819 388 
Q 2128 388 2347 550 
Q 2566 713 2694 1069 
z
M 847 1978 
L 2700 1978 
Q 2663 2397 2488 2606 
Q 2219 2931 1791 2931 
Q 1403 2931 1139 2672 
Q 875 2413 847 1978 
z
" transform="scale(0.015625)"/>
       <path id="ArialMT-61" d="M 2588 409 
Q 2275 144 1986 34 
Q 1697 -75 1366 -75 
Q 819 -75 525 192 
Q 231 459 231 875 
Q 231 1119 342 1320 
Q 453 1522 633 1644 
Q 813 1766 1038 1828 
Q 1203 1872 1538 1913 
Q 2219 1994 2541 2106 
Q 2544 2222 2544 2253 
Q 2544 2597 2384 2738 
Q 2169 2928 1744 2928 
Q 1347 2928 1158 2789 
Q 969 2650 878 2297 
L 328 2372 
Q 403 2725 575 2942 
Q 747 3159 1072 3276 
Q 1397 3394 1825 3394 
Q 2250 3394 2515 3294 
Q 2781 3194 2906 3042 
Q 3031 2891 3081 2659 
Q 3109 2516 3109 2141 
L 3109 1391 
Q 3109 606 3145 398 
Q 3181 191 3288 0 
L 2700 0 
Q 2613 175 2588 409 
z
M 2541 1666 
Q 2234 1541 1622 1453 
Q 1275 1403 1131 1340 
Q 988 1278 909 1158 
Q 831 1038 831 891 
Q 831 666 1001 516 
Q 1172 366 1500 366 
Q 1825 366 2078 508 
Q 2331 650 2450 897 
Q 2541 1088 2541 1459 
L 2541 1666 
z
" transform="scale(0.015625)"/>
       <path id="ArialMT-72" d="M 416 0 
L 416 3319 
L 922 3319 
L 922 2816 
Q 1116 3169 1280 3281 
Q 1444 3394 1641 3394 
Q 1925 3394 2219 3213 
L 2025 2691 
Q 1819 2813 1613 2813 
Q 1428 2813 1281 2702 
Q 1134 2591 1072 2394 
Q 978 2094 978 1738 
L 978 0 
L 416 0 
z
" transform="scale(0.015625)"/>
      </defs>
      <use xlink:href="#ArialMT-59"/>
      <use xlink:href="#ArialMT-65" transform="translate(57.574219 0)"/>
      <use xlink:href="#ArialMT-61" transform="translate(113.189453 0)"/>
      <use xlink:href="#ArialMT-72" transform="translate(168.804688 0)"/>
     </g>
    </g>
   </g>
   <g id="matplotlib.axis_2">
    <g id="ytick_1">
     <g id="line2d_7">
      <defs>
       <path id="mbddf938f2f" d="M 0 0 
L -3.5 0 
" style="stroke: #000000; stroke-width: 0.8"/>
      </defs>
      <g>
       <use xlink:href="#mbddf938f2f" x="51.418125" y="313.831562" style="stroke: #000000; stroke-width: 0.8"/>
      </g>
     </g>
     <g id="text_8">
      <!-- 0 -->
      <g transform="translate(38.857188 317.410469) scale(0.1 -0.1)">
       <use xlink:href="#ArialMT-30"/>
      </g>
     </g>
    </g>
    <g id="ytick_2">
     <g id="line2d_8">
      <g>
       <use xlink:href="#mbddf938f2f" x="51.418125" y="273.859088" style="stroke: #000000; stroke-width: 0.8"/>
      </g>
     </g>
     <g id="text_9">
      <!-- 500 -->
      <g transform="translate(27.735313 277.437994) scale(0.1 -0.1)">
       <use xlink:href="#ArialMT-35"/>
       <use xlink:href="#ArialMT-30" transform="translate(55.615234 0)"/>
       <use xlink:href="#ArialMT-30" transform="translate(111.230469 0)"/>
      </g>
     </g>
    </g>
    <g id="ytick_3">
     <g id="line2d_9">
      <g>
       <use xlink:href="#mbddf938f2f" x="51.418125" y="233.886613" style="stroke: #000000; stroke-width: 0.8"/>
      </g>
     </g>
     <g id="text_10">
      <!-- 1000 -->
      <g transform="translate(22.174375 237.46552) scale(0.1 -0.1)">
       <use xlink:href="#ArialMT-31"/>
       <use xlink:href="#ArialMT-30" transform="translate(55.615234 0)"/>
       <use xlink:href="#ArialMT-30" transform="translate(111.230469 0)"/>
       <use xlink:href="#ArialMT-30" transform="translate(166.845703 0)"/>
      </g>
     </g>
    </g>
    <g id="ytick_4">
     <g id="line2d_10">
      <g>
       <use xlink:href="#mbddf938f2f" x="51.418125" y="193.914139" style="stroke: #000000; stroke-width: 0.8"/>
      </g>
     </g>
     <g id="text_11">
      <!-- 1500 -->
      <g transform="translate(22.174375 197.493045) scale(0.1 -0.1)">
       <use xlink:href="#ArialMT-31"/>
       <use xlink:href="#ArialMT-35" transform="translate(55.615234 0)"/>
       <use xlink:href="#ArialMT-30" transform="translate(111.230469 0)"/>
       <use xlink:href="#ArialMT-30" transform="translate(166.845703 0)"/>
      </g>
     </g>
    </g>
    <g id="ytick_5">
     <g id="line2d_11">
      <g>
       <use xlink:href="#mbddf938f2f" x="51.418125" y="153.941664" style="stroke: #000000; stroke-width: 0.8"/>
      </g>
     </g>
     <g id="text_12">
      <!-- 2000 -->
      <g transform="translate(22.174375 157.520571) scale(0.1 -0.1)">
       <use xlink:href="#ArialMT-32"/>
       <use xlink:href="#ArialMT-30" transform="translate(55.615234 0)"/>
       <use xlink:href="#ArialMT-30" transform="translate(111.230469 0)"/>
       <use xlink:href="#ArialMT-30" transform="translate(166.845703 0)"/>
      </g>
     </g>
    </g>
    <g id="ytick_6">
     <g id="line2d_12">
      <g>
       <use xlink:href="#mbddf938f2f" x="51.418125" y="113.96919" style="stroke: #000000; stroke-width: 0.8"/>
      </g>
     </g>
     <g id="text_13">
      <!-- 2500 -->
      <g transform="translate(22.174375 117.548096) scale(0.1 -0.1)">
       <use xlink:href="#ArialMT-32"/>
       <use xlink:href="#ArialMT-35" transform="translate(55.615234 0)"/>
       <use xlink:href="#ArialMT-30" transform="translate(111.230469 0)"/>
       <use xlink:href="#ArialMT-30" transform="translate(166.845703 0)"/>
      </g>
     </g>
    </g>
    <g id="ytick_7">
     <g id="line2d_13">
      <g>
       <use xlink:href="#mbddf938f2f" x="51.418125" y="73.996715" style="stroke: #000000; stroke-width: 0.8"/>
      </g>
     </g>
     <g id="text_14">
      <!-- 3000 -->
      <g transform="translate(22.174375 77.575622) scale(0.1 -0.1)">
       <defs>
        <path id="ArialMT-33" d="M 269 1209 
L 831 1284 
Q 928 806 1161 595 
Q 1394 384 1728 384 
Q 2125 384 2398 659 
Q 2672 934 2672 1341 
Q 2672 1728 2419 1979 
Q 2166 2231 1775 2231 
Q 1616 2231 1378 2169 
L 1441 2663 
Q 1497 2656 1531 2656 
Q 1891 2656 2178 2843 
Q 2466 3031 2466 3422 
Q 2466 3731 2256 3934 
Q 2047 4138 1716 4138 
Q 1388 4138 1169 3931 
Q 950 3725 888 3313 
L 325 3413 
Q 428 3978 793 4289 
Q 1159 4600 1703 4600 
Q 2078 4600 2393 4439 
Q 2709 4278 2876 4000 
Q 3044 3722 3044 3409 
Q 3044 3113 2884 2869 
Q 2725 2625 2413 2481 
Q 2819 2388 3044 2092 
Q 3269 1797 3269 1353 
Q 3269 753 2831 336 
Q 2394 -81 1725 -81 
Q 1122 -81 723 278 
Q 325 638 269 1209 
z
" transform="scale(0.015625)"/>
       </defs>
       <use xlink:href="#ArialMT-33"/>
       <use xlink:href="#ArialMT-30" transform="translate(55.615234 0)"/>
       <use xlink:href="#ArialMT-30" transform="translate(111.230469 0)"/>
       <use xlink:href="#ArialMT-30" transform="translate(166.845703 0)"/>
      </g>
     </g>
    </g>
    <g id="ytick_8">
     <g id="line2d_14">
      <g>
       <use xlink:href="#mbddf938f2f" x="51.418125" y="34.024241" style="stroke: #000000; stroke-width: 0.8"/>
      </g>
     </g>
     <g id="text_15">
      <!-- 3500 -->
      <g transform="translate(22.174375 37.603147) scale(0.1 -0.1)">
       <use xlink:href="#ArialMT-33"/>
       <use xlink:href="#ArialMT-35" transform="translate(55.615234 0)"/>
       <use xlink:href="#ArialMT-30" transform="translate(111.230469 0)"/>
       <use xlink:href="#ArialMT-30" transform="translate(166.845703 0)"/>
      </g>
     </g>
    </g>
    <g id="text_16">
     <!-- Number of Publications -->
     <g transform="translate(15.789375 230.638437) rotate(-90) scale(0.12 -0.12)">
      <defs>
       <path id="ArialMT-4e" d="M 488 0 
L 488 4581 
L 1109 4581 
L 3516 984 
L 3516 4581 
L 4097 4581 
L 4097 0 
L 3475 0 
L 1069 3600 
L 1069 0 
L 488 0 
z
" transform="scale(0.015625)"/>
       <path id="ArialMT-75" d="M 2597 0 
L 2597 488 
Q 2209 -75 1544 -75 
Q 1250 -75 995 37 
Q 741 150 617 320 
Q 494 491 444 738 
Q 409 903 409 1263 
L 409 3319 
L 972 3319 
L 972 1478 
Q 972 1038 1006 884 
Q 1059 663 1231 536 
Q 1403 409 1656 409 
Q 1909 409 2131 539 
Q 2353 669 2445 892 
Q 2538 1116 2538 1541 
L 2538 3319 
L 3100 3319 
L 3100 0 
L 2597 0 
z
" transform="scale(0.015625)"/>
       <path id="ArialMT-6d" d="M 422 0 
L 422 3319 
L 925 3319 
L 925 2853 
Q 1081 3097 1340 3245 
Q 1600 3394 1931 3394 
Q 2300 3394 2536 3241 
Q 2772 3088 2869 2813 
Q 3263 3394 3894 3394 
Q 4388 3394 4653 3120 
Q 4919 2847 4919 2278 
L 4919 0 
L 4359 0 
L 4359 2091 
Q 4359 2428 4304 2576 
Q 4250 2725 4106 2815 
Q 3963 2906 3769 2906 
Q 3419 2906 3187 2673 
Q 2956 2441 2956 1928 
L 2956 0 
L 2394 0 
L 2394 2156 
Q 2394 2531 2256 2718 
Q 2119 2906 1806 2906 
Q 1569 2906 1367 2781 
Q 1166 2656 1075 2415 
Q 984 2175 984 1722 
L 984 0 
L 422 0 
z
" transform="scale(0.015625)"/>
       <path id="ArialMT-62" d="M 941 0 
L 419 0 
L 419 4581 
L 981 4581 
L 981 2947 
Q 1338 3394 1891 3394 
Q 2197 3394 2470 3270 
Q 2744 3147 2920 2923 
Q 3097 2700 3197 2384 
Q 3297 2069 3297 1709 
Q 3297 856 2875 390 
Q 2453 -75 1863 -75 
Q 1275 -75 941 416 
L 941 0 
z
M 934 1684 
Q 934 1088 1097 822 
Q 1363 388 1816 388 
Q 2184 388 2453 708 
Q 2722 1028 2722 1663 
Q 2722 2313 2464 2622 
Q 2206 2931 1841 2931 
Q 1472 2931 1203 2611 
Q 934 2291 934 1684 
z
" transform="scale(0.015625)"/>
       <path id="ArialMT-20" transform="scale(0.015625)"/>
       <path id="ArialMT-6f" d="M 213 1659 
Q 213 2581 725 3025 
Q 1153 3394 1769 3394 
Q 2453 3394 2887 2945 
Q 3322 2497 3322 1706 
Q 3322 1066 3130 698 
Q 2938 331 2570 128 
Q 2203 -75 1769 -75 
Q 1072 -75 642 372 
Q 213 819 213 1659 
z
M 791 1659 
Q 791 1022 1069 705 
Q 1347 388 1769 388 
Q 2188 388 2466 706 
Q 2744 1025 2744 1678 
Q 2744 2294 2464 2611 
Q 2184 2928 1769 2928 
Q 1347 2928 1069 2612 
Q 791 2297 791 1659 
z
" transform="scale(0.015625)"/>
       <path id="ArialMT-66" d="M 556 0 
L 556 2881 
L 59 2881 
L 59 3319 
L 556 3319 
L 556 3672 
Q 556 4006 616 4169 
Q 697 4388 901 4523 
Q 1106 4659 1475 4659 
Q 1713 4659 2000 4603 
L 1916 4113 
Q 1741 4144 1584 4144 
Q 1328 4144 1222 4034 
Q 1116 3925 1116 3625 
L 1116 3319 
L 1763 3319 
L 1763 2881 
L 1116 2881 
L 1116 0 
L 556 0 
z
" transform="scale(0.015625)"/>
       <path id="ArialMT-50" d="M 494 0 
L 494 4581 
L 2222 4581 
Q 2678 4581 2919 4538 
Q 3256 4481 3484 4323 
Q 3713 4166 3852 3881 
Q 3991 3597 3991 3256 
Q 3991 2672 3619 2267 
Q 3247 1863 2275 1863 
L 1100 1863 
L 1100 0 
L 494 0 
z
M 1100 2403 
L 2284 2403 
Q 2872 2403 3119 2622 
Q 3366 2841 3366 3238 
Q 3366 3525 3220 3729 
Q 3075 3934 2838 4000 
Q 2684 4041 2272 4041 
L 1100 4041 
L 1100 2403 
z
" transform="scale(0.015625)"/>
       <path id="ArialMT-6c" d="M 409 0 
L 409 4581 
L 972 4581 
L 972 0 
L 409 0 
z
" transform="scale(0.015625)"/>
       <path id="ArialMT-69" d="M 425 3934 
L 425 4581 
L 988 4581 
L 988 3934 
L 425 3934 
z
M 425 0 
L 425 3319 
L 988 3319 
L 988 0 
L 425 0 
z
" transform="scale(0.015625)"/>
       <path id="ArialMT-63" d="M 2588 1216 
L 3141 1144 
Q 3050 572 2676 248 
Q 2303 -75 1759 -75 
Q 1078 -75 664 370 
Q 250 816 250 1647 
Q 250 2184 428 2587 
Q 606 2991 970 3192 
Q 1334 3394 1763 3394 
Q 2303 3394 2647 3120 
Q 2991 2847 3088 2344 
L 2541 2259 
Q 2463 2594 2264 2762 
Q 2066 2931 1784 2931 
Q 1359 2931 1093 2626 
Q 828 2322 828 1663 
Q 828 994 1084 691 
Q 1341 388 1753 388 
Q 2084 388 2306 591 
Q 2528 794 2588 1216 
z
" transform="scale(0.015625)"/>
       <path id="ArialMT-74" d="M 1650 503 
L 1731 6 
Q 1494 -44 1306 -44 
Q 1000 -44 831 53 
Q 663 150 594 308 
Q 525 466 525 972 
L 525 2881 
L 113 2881 
L 113 3319 
L 525 3319 
L 525 4141 
L 1084 4478 
L 1084 3319 
L 1650 3319 
L 1650 2881 
L 1084 2881 
L 1084 941 
Q 1084 700 1114 631 
Q 1144 563 1211 522 
Q 1278 481 1403 481 
Q 1497 481 1650 503 
z
" transform="scale(0.015625)"/>
       <path id="ArialMT-6e" d="M 422 0 
L 422 3319 
L 928 3319 
L 928 2847 
Q 1294 3394 1984 3394 
Q 2284 3394 2536 3286 
Q 2788 3178 2913 3003 
Q 3038 2828 3088 2588 
Q 3119 2431 3119 2041 
L 3119 0 
L 2556 0 
L 2556 2019 
Q 2556 2363 2490 2533 
Q 2425 2703 2258 2804 
Q 2091 2906 1866 2906 
Q 1506 2906 1245 2678 
Q 984 2450 984 1813 
L 984 0 
L 422 0 
z
" transform="scale(0.015625)"/>
       <path id="ArialMT-73" d="M 197 991 
L 753 1078 
Q 800 744 1014 566 
Q 1228 388 1613 388 
Q 2000 388 2187 545 
Q 2375 703 2375 916 
Q 2375 1106 2209 1216 
Q 2094 1291 1634 1406 
Q 1016 1563 777 1677 
Q 538 1791 414 1992 
Q 291 2194 291 2438 
Q 291 2659 392 2848 
Q 494 3038 669 3163 
Q 800 3259 1026 3326 
Q 1253 3394 1513 3394 
Q 1903 3394 2198 3281 
Q 2494 3169 2634 2976 
Q 2775 2784 2828 2463 
L 2278 2388 
Q 2241 2644 2061 2787 
Q 1881 2931 1553 2931 
Q 1166 2931 1000 2803 
Q 834 2675 834 2503 
Q 834 2394 903 2306 
Q 972 2216 1119 2156 
Q 1203 2125 1616 2013 
Q 2213 1853 2448 1751 
Q 2684 1650 2818 1456 
Q 2953 1263 2953 975 
Q 2953 694 2789 445 
Q 2625 197 2315 61 
Q 2006 -75 1616 -75 
Q 969 -75 630 194 
Q 291 463 197 991 
z
" transform="scale(0.015625)"/>
      </defs>
      <use xlink:href="#ArialMT-4e"/>
      <use xlink:href="#ArialMT-75" transform="translate(72.216797 0)"/>
      <use xlink:href="#ArialMT-6d" transform="translate(127.832031 0)"/>
      <use xlink:href="#ArialMT-62" transform="translate(211.132812 0)"/>
      <use xlink:href="#ArialMT-65" transform="translate(266.748047 0)"/>
      <use xlink:href="#ArialMT-72" transform="translate(322.363281 0)"/>
      <use xlink:href="#ArialMT-20" transform="translate(355.664062 0)"/>
      <use xlink:href="#ArialMT-6f" transform="translate(383.447266 0)"/>
      <use xlink:href="#ArialMT-66" transform="translate(439.0625 0)"/>
      <use xlink:href="#ArialMT-20" transform="translate(466.845703 0)"/>
      <use xlink:href="#ArialMT-50" transform="translate(494.628906 0)"/>
      <use xlink:href="#ArialMT-75" transform="translate(561.328125 0)"/>
      <use xlink:href="#ArialMT-62" transform="translate(616.943359 0)"/>
      <use xlink:href="#ArialMT-6c" transform="translate(672.558594 0)"/>
      <use xlink:href="#ArialMT-69" transform="translate(694.775391 0)"/>
      <use xlink:href="#ArialMT-63" transform="translate(716.992188 0)"/>
      <use xlink:href="#ArialMT-61" transform="translate(766.992188 0)"/>
      <use xlink:href="#ArialMT-74" transform="translate(822.607422 0)"/>
      <use xlink:href="#ArialMT-69" transform="translate(850.390625 0)"/>
      <use xlink:href="#ArialMT-6f" transform="translate(872.607422 0)"/>
      <use xlink:href="#ArialMT-6e" transform="translate(928.222656 0)"/>
      <use xlink:href="#ArialMT-73" transform="translate(983.837891 0)"/>
     </g>
    </g>
   </g>
   <g id="patch_3">
    <path d="M 51.418125 313.831562 
L 51.418125 23.391562 
" style="fill: none; stroke: #000000; stroke-width: 0.8; stroke-linejoin: miter; stroke-linecap: square"/>
   </g>
   <g id="patch_4">
    <path d="M 51.418125 313.831562 
L 561.698125 313.831562 
" style="fill: none; stroke: #000000; stroke-width: 0.8; stroke-linejoin: miter; stroke-linecap: square"/>
   </g>
   <g id="text_17">
    <!-- Field composition of Ghanaian international collaborations, 2000-2025 -->
    <g transform="translate(73.195625 17.391562) scale(0.14 -0.14)">
     <defs>
      <path id="Arial-BoldMT-46" d="M 472 0 
L 472 4581 
L 3613 4581 
L 3613 3806 
L 1397 3806 
L 1397 2722 
L 3309 2722 
L 3309 1947 
L 1397 1947 
L 1397 0 
L 472 0 
z
" transform="scale(0.015625)"/>
      <path id="Arial-BoldMT-69" d="M 459 3769 
L 459 4581 
L 1338 4581 
L 1338 3769 
L 459 3769 
z
M 459 0 
L 459 3319 
L 1338 3319 
L 1338 0 
L 459 0 
z
" transform="scale(0.015625)"/>
      <path id="Arial-BoldMT-65" d="M 2381 1056 
L 3256 909 
Q 3088 428 2723 176 
Q 2359 -75 1813 -75 
Q 947 -75 531 491 
Q 203 944 203 1634 
Q 203 2459 634 2926 
Q 1066 3394 1725 3394 
Q 2466 3394 2894 2905 
Q 3322 2416 3303 1406 
L 1103 1406 
Q 1113 1016 1316 798 
Q 1519 581 1822 581 
Q 2028 581 2168 693 
Q 2309 806 2381 1056 
z
M 2431 1944 
Q 2422 2325 2234 2523 
Q 2047 2722 1778 2722 
Q 1491 2722 1303 2513 
Q 1116 2303 1119 1944 
L 2431 1944 
z
" transform="scale(0.015625)"/>
      <path id="Arial-BoldMT-6c" d="M 459 0 
L 459 4581 
L 1338 4581 
L 1338 0 
L 459 0 
z
" transform="scale(0.015625)"/>
      <path id="Arial-BoldMT-64" d="M 3503 0 
L 2688 0 
L 2688 488 
Q 2484 203 2207 64 
Q 1931 -75 1650 -75 
Q 1078 -75 670 386 
Q 263 847 263 1672 
Q 263 2516 659 2955 
Q 1056 3394 1663 3394 
Q 2219 3394 2625 2931 
L 2625 4581 
L 3503 4581 
L 3503 0 
z
M 1159 1731 
Q 1159 1200 1306 963 
Q 1519 619 1900 619 
Q 2203 619 2415 876 
Q 2628 1134 2628 1647 
Q 2628 2219 2422 2470 
Q 2216 2722 1894 2722 
Q 1581 2722 1370 2473 
Q 1159 2225 1159 1731 
z
" transform="scale(0.015625)"/>
      <path id="Arial-BoldMT-20" transform="scale(0.015625)"/>
      <path id="Arial-BoldMT-63" d="M 3353 2338 
L 2488 2181 
Q 2444 2441 2289 2572 
Q 2134 2703 1888 2703 
Q 1559 2703 1364 2476 
Q 1169 2250 1169 1719 
Q 1169 1128 1367 884 
Q 1566 641 1900 641 
Q 2150 641 2309 783 
Q 2469 925 2534 1272 
L 3397 1125 
Q 3263 531 2881 228 
Q 2500 -75 1859 -75 
Q 1131 -75 698 384 
Q 266 844 266 1656 
Q 266 2478 700 2936 
Q 1134 3394 1875 3394 
Q 2481 3394 2839 3133 
Q 3197 2872 3353 2338 
z
" transform="scale(0.015625)"/>
      <path id="Arial-BoldMT-6f" d="M 256 1706 
Q 256 2144 472 2553 
Q 688 2963 1083 3178 
Q 1478 3394 1966 3394 
Q 2719 3394 3200 2905 
Q 3681 2416 3681 1669 
Q 3681 916 3195 420 
Q 2709 -75 1972 -75 
Q 1516 -75 1102 131 
Q 688 338 472 736 
Q 256 1134 256 1706 
z
M 1156 1659 
Q 1156 1166 1390 903 
Q 1625 641 1969 641 
Q 2313 641 2545 903 
Q 2778 1166 2778 1666 
Q 2778 2153 2545 2415 
Q 2313 2678 1969 2678 
Q 1625 2678 1390 2415 
Q 1156 2153 1156 1659 
z
" transform="scale(0.015625)"/>
      <path id="Arial-BoldMT-6d" d="M 394 3319 
L 1203 3319 
L 1203 2866 
Q 1638 3394 2238 3394 
Q 2556 3394 2790 3262 
Q 3025 3131 3175 2866 
Q 3394 3131 3647 3262 
Q 3900 3394 4188 3394 
Q 4553 3394 4806 3245 
Q 5059 3097 5184 2809 
Q 5275 2597 5275 2122 
L 5275 0 
L 4397 0 
L 4397 1897 
Q 4397 2391 4306 2534 
Q 4184 2722 3931 2722 
Q 3747 2722 3584 2609 
Q 3422 2497 3350 2280 
Q 3278 2063 3278 1594 
L 3278 0 
L 2400 0 
L 2400 1819 
Q 2400 2303 2353 2443 
Q 2306 2584 2207 2653 
Q 2109 2722 1941 2722 
Q 1738 2722 1575 2612 
Q 1413 2503 1342 2297 
Q 1272 2091 1272 1613 
L 1272 0 
L 394 0 
L 394 3319 
z
" transform="scale(0.015625)"/>
      <path id="Arial-BoldMT-70" d="M 434 3319 
L 1253 3319 
L 1253 2831 
Q 1413 3081 1684 3237 
Q 1956 3394 2288 3394 
Q 2866 3394 3269 2941 
Q 3672 2488 3672 1678 
Q 3672 847 3265 386 
Q 2859 -75 2281 -75 
Q 2006 -75 1782 34 
Q 1559 144 1313 409 
L 1313 -1263 
L 434 -1263 
L 434 3319 
z
M 1303 1716 
Q 1303 1156 1525 889 
Q 1747 622 2066 622 
Q 2372 622 2575 867 
Q 2778 1113 2778 1672 
Q 2778 2194 2568 2447 
Q 2359 2700 2050 2700 
Q 1728 2700 1515 2451 
Q 1303 2203 1303 1716 
z
" transform="scale(0.015625)"/>
      <path id="Arial-BoldMT-73" d="M 150 947 
L 1031 1081 
Q 1088 825 1259 692 
Q 1431 559 1741 559 
Q 2081 559 2253 684 
Q 2369 772 2369 919 
Q 2369 1019 2306 1084 
Q 2241 1147 2013 1200 
Q 950 1434 666 1628 
Q 272 1897 272 2375 
Q 272 2806 612 3100 
Q 953 3394 1669 3394 
Q 2350 3394 2681 3172 
Q 3013 2950 3138 2516 
L 2309 2363 
Q 2256 2556 2107 2659 
Q 1959 2763 1684 2763 
Q 1338 2763 1188 2666 
Q 1088 2597 1088 2488 
Q 1088 2394 1175 2328 
Q 1294 2241 1995 2081 
Q 2697 1922 2975 1691 
Q 3250 1456 3250 1038 
Q 3250 581 2869 253 
Q 2488 -75 1741 -75 
Q 1063 -75 667 200 
Q 272 475 150 947 
z
" transform="scale(0.015625)"/>
      <path id="Arial-BoldMT-74" d="M 1981 3319 
L 1981 2619 
L 1381 2619 
L 1381 1281 
Q 1381 875 1398 808 
Q 1416 741 1477 697 
Q 1538 653 1625 653 
Q 1747 653 1978 738 
L 2053 56 
Q 1747 -75 1359 -75 
Q 1122 -75 931 4 
Q 741 84 652 211 
Q 563 338 528 553 
Q 500 706 500 1172 
L 500 2619 
L 97 2619 
L 97 3319 
L 500 3319 
L 500 3978 
L 1381 4491 
L 1381 3319 
L 1981 3319 
z
" transform="scale(0.015625)"/>
      <path id="Arial-BoldMT-6e" d="M 3478 0 
L 2600 0 
L 2600 1694 
Q 2600 2231 2544 2389 
Q 2488 2547 2361 2634 
Q 2234 2722 2056 2722 
Q 1828 2722 1647 2597 
Q 1466 2472 1398 2265 
Q 1331 2059 1331 1503 
L 1331 0 
L 453 0 
L 453 3319 
L 1269 3319 
L 1269 2831 
Q 1703 3394 2363 3394 
Q 2653 3394 2893 3289 
Q 3134 3184 3257 3021 
Q 3381 2859 3429 2653 
Q 3478 2447 3478 2063 
L 3478 0 
z
" transform="scale(0.015625)"/>
      <path id="Arial-BoldMT-66" d="M 75 3319 
L 563 3319 
L 563 3569 
Q 563 3988 652 4194 
Q 741 4400 980 4529 
Q 1219 4659 1584 4659 
Q 1959 4659 2319 4547 
L 2200 3934 
Q 1991 3984 1797 3984 
Q 1606 3984 1523 3895 
Q 1441 3806 1441 3553 
L 1441 3319 
L 2097 3319 
L 2097 2628 
L 1441 2628 
L 1441 0 
L 563 0 
L 563 2628 
L 75 2628 
L 75 3319 
z
" transform="scale(0.015625)"/>
      <path id="Arial-BoldMT-47" d="M 2597 1684 
L 2597 2456 
L 4591 2456 
L 4591 631 
Q 4300 350 3748 136 
Q 3197 -78 2631 -78 
Q 1913 -78 1378 223 
Q 844 525 575 1086 
Q 306 1647 306 2306 
Q 306 3022 606 3578 
Q 906 4134 1484 4431 
Q 1925 4659 2581 4659 
Q 3434 4659 3914 4301 
Q 4394 3944 4531 3313 
L 3613 3141 
Q 3516 3478 3248 3673 
Q 2981 3869 2581 3869 
Q 1975 3869 1617 3484 
Q 1259 3100 1259 2344 
Q 1259 1528 1621 1120 
Q 1984 713 2572 713 
Q 2863 713 3155 827 
Q 3447 941 3656 1103 
L 3656 1684 
L 2597 1684 
z
" transform="scale(0.015625)"/>
      <path id="Arial-BoldMT-68" d="M 1334 4581 
L 1334 2897 
Q 1759 3394 2350 3394 
Q 2653 3394 2897 3281 
Q 3141 3169 3264 2994 
Q 3388 2819 3433 2606 
Q 3478 2394 3478 1947 
L 3478 0 
L 2600 0 
L 2600 1753 
Q 2600 2275 2550 2415 
Q 2500 2556 2373 2639 
Q 2247 2722 2056 2722 
Q 1838 2722 1666 2615 
Q 1494 2509 1414 2295 
Q 1334 2081 1334 1663 
L 1334 0 
L 456 0 
L 456 4581 
L 1334 4581 
z
" transform="scale(0.015625)"/>
      <path id="Arial-BoldMT-61" d="M 1116 2306 
L 319 2450 
Q 453 2931 781 3162 
Q 1109 3394 1756 3394 
Q 2344 3394 2631 3255 
Q 2919 3116 3036 2902 
Q 3153 2688 3153 2116 
L 3144 1091 
Q 3144 653 3186 445 
Q 3228 238 3344 0 
L 2475 0 
Q 2441 88 2391 259 
Q 2369 338 2359 363 
Q 2134 144 1878 34 
Q 1622 -75 1331 -75 
Q 819 -75 523 203 
Q 228 481 228 906 
Q 228 1188 362 1408 
Q 497 1628 739 1745 
Q 981 1863 1438 1950 
Q 2053 2066 2291 2166 
L 2291 2253 
Q 2291 2506 2166 2614 
Q 2041 2722 1694 2722 
Q 1459 2722 1328 2630 
Q 1197 2538 1116 2306 
z
M 2291 1594 
Q 2122 1538 1756 1459 
Q 1391 1381 1278 1306 
Q 1106 1184 1106 997 
Q 1106 813 1243 678 
Q 1381 544 1594 544 
Q 1831 544 2047 700 
Q 2206 819 2256 991 
Q 2291 1103 2291 1419 
L 2291 1594 
z
" transform="scale(0.015625)"/>
      <path id="Arial-BoldMT-72" d="M 1300 0 
L 422 0 
L 422 3319 
L 1238 3319 
L 1238 2847 
Q 1447 3181 1614 3287 
Q 1781 3394 1994 3394 
Q 2294 3394 2572 3228 
L 2300 2463 
Q 2078 2606 1888 2606 
Q 1703 2606 1575 2504 
Q 1447 2403 1373 2137 
Q 1300 1872 1300 1025 
L 1300 0 
z
" transform="scale(0.015625)"/>
      <path id="Arial-BoldMT-62" d="M 422 0 
L 422 4581 
L 1300 4581 
L 1300 2931 
Q 1706 3394 2263 3394 
Q 2869 3394 3266 2955 
Q 3663 2516 3663 1694 
Q 3663 844 3258 384 
Q 2853 -75 2275 -75 
Q 1991 -75 1714 67 
Q 1438 209 1238 488 
L 1238 0 
L 422 0 
z
M 1294 1731 
Q 1294 1216 1456 969 
Q 1684 619 2063 619 
Q 2353 619 2558 867 
Q 2763 1116 2763 1650 
Q 2763 2219 2556 2470 
Q 2350 2722 2028 2722 
Q 1713 2722 1503 2476 
Q 1294 2231 1294 1731 
z
" transform="scale(0.015625)"/>
      <path id="Arial-BoldMT-2c" d="M 438 878 
L 1316 878 
L 1316 250 
Q 1316 -131 1250 -351 
Q 1184 -572 1001 -747 
Q 819 -922 538 -1022 
L 366 -659 
Q 631 -572 743 -419 
Q 856 -266 863 0 
L 438 0 
L 438 878 
z
" transform="scale(0.015625)"/>
      <path id="Arial-BoldMT-32" d="M 3238 816 
L 3238 0 
L 159 0 
Q 209 463 459 877 
Q 709 1291 1447 1975 
Q 2041 2528 2175 2725 
Q 2356 2997 2356 3263 
Q 2356 3556 2198 3714 
Q 2041 3872 1763 3872 
Q 1488 3872 1325 3706 
Q 1163 3541 1138 3156 
L 263 3244 
Q 341 3969 753 4284 
Q 1166 4600 1784 4600 
Q 2463 4600 2850 4234 
Q 3238 3869 3238 3325 
Q 3238 3016 3127 2736 
Q 3016 2456 2775 2150 
Q 2616 1947 2200 1565 
Q 1784 1184 1673 1059 
Q 1563 934 1494 816 
L 3238 816 
z
" transform="scale(0.015625)"/>
      <path id="Arial-BoldMT-30" d="M 1756 4600 
Q 2422 4600 2797 4125 
Q 3244 3563 3244 2259 
Q 3244 959 2794 391 
Q 2422 -78 1756 -78 
Q 1088 -78 678 436 
Q 269 950 269 2269 
Q 269 3563 719 4131 
Q 1091 4600 1756 4600 
z
M 1756 3872 
Q 1597 3872 1472 3770 
Q 1347 3669 1278 3406 
Q 1188 3066 1188 2259 
Q 1188 1453 1269 1151 
Q 1350 850 1473 750 
Q 1597 650 1756 650 
Q 1916 650 2041 751 
Q 2166 853 2234 1116 
Q 2325 1453 2325 2259 
Q 2325 3066 2244 3367 
Q 2163 3669 2039 3770 
Q 1916 3872 1756 3872 
z
" transform="scale(0.015625)"/>
      <path id="Arial-BoldMT-2d" d="M 359 1222 
L 359 2100 
L 2084 2100 
L 2084 1222 
L 359 1222 
z
" transform="scale(0.015625)"/>
      <path id="Arial-BoldMT-35" d="M 284 1178 
L 1159 1269 
Q 1197 972 1381 798 
Q 1566 625 1806 625 
Q 2081 625 2272 848 
Q 2463 1072 2463 1522 
Q 2463 1944 2273 2155 
Q 2084 2366 1781 2366 
Q 1403 2366 1103 2031 
L 391 2134 
L 841 4519 
L 3163 4519 
L 3163 3697 
L 1506 3697 
L 1369 2919 
Q 1663 3066 1969 3066 
Q 2553 3066 2959 2641 
Q 3366 2216 3366 1538 
Q 3366 972 3038 528 
Q 2591 -78 1797 -78 
Q 1163 -78 763 262 
Q 363 603 284 1178 
z
" transform="scale(0.015625)"/>
     </defs>
     <use xlink:href="#Arial-BoldMT-46"/>
     <use xlink:href="#Arial-BoldMT-69" transform="translate(61.083984 0)"/>
     <use xlink:href="#Arial-BoldMT-65" transform="translate(88.867188 0)"/>
     <use xlink:href="#Arial-BoldMT-6c" transform="translate(144.482422 0)"/>
     <use xlink:href="#Arial-BoldMT-64" transform="translate(172.265625 0)"/>
     <use xlink:href="#Arial-BoldMT-20" transform="translate(233.349609 0)"/>
     <use xlink:href="#Arial-BoldMT-63" transform="translate(261.132812 0)"/>
     <use xlink:href="#Arial-BoldMT-6f" transform="translate(316.748047 0)"/>
     <use xlink:href="#Arial-BoldMT-6d" transform="translate(377.832031 0)"/>
     <use xlink:href="#Arial-BoldMT-70" transform="translate(466.748047 0)"/>
     <use xlink:href="#Arial-BoldMT-6f" transform="translate(527.832031 0)"/>
     <use xlink:href="#Arial-BoldMT-73" transform="translate(588.916016 0)"/>
     <use xlink:href="#Arial-BoldMT-69" transform="translate(644.53125 0)"/>
     <use xlink:href="#Arial-BoldMT-74" transform="translate(672.314453 0)"/>
     <use xlink:href="#Arial-BoldMT-69" transform="translate(705.615234 0)"/>
     <use xlink:href="#Arial-BoldMT-6f" transform="translate(733.398438 0)"/>
     <use xlink:href="#Arial-BoldMT-6e" transform="translate(794.482422 0)"/>
     <use xlink:href="#Arial-BoldMT-20" transform="translate(855.566406 0)"/>
     <use xlink:href="#Arial-BoldMT-6f" transform="translate(883.349609 0)"/>
     <use xlink:href="#Arial-BoldMT-66" transform="translate(944.433594 0)"/>
     <use xlink:href="#Arial-BoldMT-20" transform="translate(977.734375 0)"/>
     <use xlink:href="#Arial-BoldMT-47" transform="translate(1005.517578 0)"/>
     <use xlink:href="#Arial-BoldMT-68" transform="translate(1083.300781 0)"/>
     <use xlink:href="#Arial-BoldMT-61" transform="translate(1144.384766 0)"/>
     <use xlink:href="#Arial-BoldMT-6e" transform="translate(1200 0)"/>
     <use xlink:href="#Arial-BoldMT-61" transform="translate(1261.083984 0)"/>
     <use xlink:href="#Arial-BoldMT-69" transform="translate(1316.699219 0)"/>
     <use xlink:href="#Arial-BoldMT-61" transform="translate(1344.482422 0)"/>
     <use xlink:href="#Arial-BoldMT-6e" transform="translate(1400.097656 0)"/>
     <use xlink:href="#Arial-BoldMT-20" transform="translate(1461.181641 0)"/>
     <use xlink:href="#Arial-BoldMT-69" transform="translate(1488.964844 0)"/>
     <use xlink:href="#Arial-BoldMT-6e" transform="translate(1516.748047 0)"/>
     <use xlink:href="#Arial-BoldMT-74" transform="translate(1577.832031 0)"/>
     <use xlink:href="#Arial-BoldMT-65" transform="translate(1611.132812 0)"/>
     <use xlink:href="#Arial-BoldMT-72" transform="translate(1666.748047 0)"/>
     <use xlink:href="#Arial-BoldMT-6e" transform="translate(1705.664062 0)"/>
     <use xlink:href="#Arial-BoldMT-61" transform="translate(1766.748047 0)"/>
     <use xlink:href="#Arial-BoldMT-74" transform="translate(1822.363281 0)"/>
     <use xlink:href="#Arial-BoldMT-69" transform="translate(1855.664062 0)"/>
     <use xlink:href="#Arial-BoldMT-6f" transform="translate(1883.447266 0)"/>
     <use xlink:href="#Arial-BoldMT-6e" transform="translate(1944.53125 0)"/>
     <use xlink:href="#Arial-BoldMT-61" transform="translate(2005.615234 0)"/>
     <use xlink:href="#Arial-BoldMT-6c" transform="translate(2061.230469 0)"/>
     <use xlink:href="#Arial-BoldMT-20" transform="translate(2089.013672 0)"/>
     <use xlink:href="#Arial-BoldMT-63" transform="translate(2116.796875 0)"/>
     <use xlink:href="#Arial-BoldMT-6f" transform="translate(2172.412109 0)"/>
     <use xlink:href="#Arial-BoldMT-6c" transform="translate(2233.496094 0)"/>
     <use xlink:href="#Arial-BoldMT-6c" transform="translate(2261.279297 0)"/>
     <use xlink:href="#Arial-BoldMT-61" transform="translate(2289.0625 0)"/>
     <use xlink:href="#Arial-BoldMT-62" transform="translate(2344.677734 0)"/>
     <use xlink:href="#Arial-BoldMT-6f" transform="translate(2405.761719 0)"/>
     <use xlink:href="#Arial-BoldMT-72" transform="translate(2466.845703 0)"/>
     <use xlink:href="#Arial-BoldMT-61" transform="translate(2505.761719 0)"/>
     <use xlink:href="#Arial-BoldMT-74" transform="translate(2561.376953 0)"/>
     <use xlink:href="#Arial-BoldMT-69" transform="translate(2594.677734 0)"/>
     <use xlink:href="#Arial-BoldMT-6f" transform="translate(2622.460938 0)"/>
     <use xlink:href="#Arial-BoldMT-6e" transform="translate(2683.544922 0)"/>
     <use xlink:href="#Arial-BoldMT-73" transform="translate(2744.628906 0)"/>
     <use xlink:href="#Arial-BoldMT-2c" transform="translate(2800.244141 0)"/>
     <use xlink:href="#Arial-BoldMT-20" transform="translate(2828.027344 0)"/>
     <use xlink:href="#Arial-BoldMT-32" transform="translate(2855.810547 0)"/>
     <use xlink:href="#Arial-BoldMT-30" transform="translate(2911.425781 0)"/>
     <use xlink:href="#Arial-BoldMT-30" transform="translate(2967.041016 0)"/>
     <use xlink:href="#Arial-BoldMT-30" transform="translate(3022.65625 0)"/>
     <use xlink:href="#Arial-BoldMT-2d" transform="translate(3078.271484 0)"/>
     <use xlink:href="#Arial-BoldMT-32" transform="translate(3111.572266 0)"/>
     <use xlink:href="#Arial-BoldMT-30" transform="translate(3167.1875 0)"/>
     <use xlink:href="#Arial-BoldMT-32" transform="translate(3222.802734 0)"/>
     <use xlink:href="#Arial-BoldMT-35" transform="translate(3278.417969 0)"/>
    </g>
   </g>
   <g id="legend_1">
    <g id="patch_5">
     <path d="M 57.018125 109.477812 
L 244.758125 109.477812 
Q 246.358125 109.477812 246.358125 107.877812 
L 246.358125 28.991562 
Q 246.358125 27.391562 244.758125 27.391562 
L 57.018125 27.391562 
Q 55.418125 27.391562 55.418125 28.991562 
L 55.418125 107.877812 
Q 55.418125 109.477812 57.018125 109.477812 
z
" style="fill: #ffffff; opacity: 0.9; stroke: #cccccc; stroke-linejoin: miter"/>
    </g>
    <g id="patch_6">
     <path d="M 58.618125 36.317812 
L 74.618125 36.317812 
L 74.618125 30.717812 
L 58.618125 30.717812 
z
" style="fill: #0173b2; fill-opacity: 0.85"/>
    </g>
    <g id="text_18">
     <!-- Medicine -->
     <g transform="translate(81.018125 36.317812) scale(0.08 -0.08)">
      <defs>
       <path id="ArialMT-4d" d="M 475 0 
L 475 4581 
L 1388 4581 
L 2472 1338 
Q 2622 884 2691 659 
Q 2769 909 2934 1394 
L 4031 4581 
L 4847 4581 
L 4847 0 
L 4263 0 
L 4263 3834 
L 2931 0 
L 2384 0 
L 1059 3900 
L 1059 0 
L 475 0 
z
" transform="scale(0.015625)"/>
       <path id="ArialMT-64" d="M 2575 0 
L 2575 419 
Q 2259 -75 1647 -75 
Q 1250 -75 917 144 
Q 584 363 401 755 
Q 219 1147 219 1656 
Q 219 2153 384 2558 
Q 550 2963 881 3178 
Q 1213 3394 1622 3394 
Q 1922 3394 2156 3267 
Q 2391 3141 2538 2938 
L 2538 4581 
L 3097 4581 
L 3097 0 
L 2575 0 
z
M 797 1656 
Q 797 1019 1065 703 
Q 1334 388 1700 388 
Q 2069 388 2326 689 
Q 2584 991 2584 1609 
Q 2584 2291 2321 2609 
Q 2059 2928 1675 2928 
Q 1300 2928 1048 2622 
Q 797 2316 797 1656 
z
" transform="scale(0.015625)"/>
      </defs>
      <use xlink:href="#ArialMT-4d"/>
      <use xlink:href="#ArialMT-65" transform="translate(83.300781 0)"/>
      <use xlink:href="#ArialMT-64" transform="translate(138.916016 0)"/>
      <use xlink:href="#ArialMT-69" transform="translate(194.53125 0)"/>
      <use xlink:href="#ArialMT-63" transform="translate(216.748047 0)"/>
      <use xlink:href="#ArialMT-69" transform="translate(266.748047 0)"/>
      <use xlink:href="#ArialMT-6e" transform="translate(288.964844 0)"/>
      <use xlink:href="#ArialMT-65" transform="translate(344.580078 0)"/>
     </g>
    </g>
    <g id="patch_7">
     <path d="M 58.618125 47.634062 
L 74.618125 47.634062 
L 74.618125 42.034062 
L 58.618125 42.034062 
z
" style="fill: #de8f05; fill-opacity: 0.85"/>
    </g>
    <g id="text_19">
     <!-- Engineering -->
     <g transform="translate(81.018125 47.634062) scale(0.08 -0.08)">
      <defs>
       <path id="ArialMT-45" d="M 506 0 
L 506 4581 
L 3819 4581 
L 3819 4041 
L 1113 4041 
L 1113 2638 
L 3647 2638 
L 3647 2100 
L 1113 2100 
L 1113 541 
L 3925 541 
L 3925 0 
L 506 0 
z
" transform="scale(0.015625)"/>
       <path id="ArialMT-67" d="M 319 -275 
L 866 -356 
Q 900 -609 1056 -725 
Q 1266 -881 1628 -881 
Q 2019 -881 2231 -725 
Q 2444 -569 2519 -288 
Q 2563 -116 2559 434 
Q 2191 0 1641 0 
Q 956 0 581 494 
Q 206 988 206 1678 
Q 206 2153 378 2554 
Q 550 2956 876 3175 
Q 1203 3394 1644 3394 
Q 2231 3394 2613 2919 
L 2613 3319 
L 3131 3319 
L 3131 450 
Q 3131 -325 2973 -648 
Q 2816 -972 2473 -1159 
Q 2131 -1347 1631 -1347 
Q 1038 -1347 672 -1080 
Q 306 -813 319 -275 
z
M 784 1719 
Q 784 1066 1043 766 
Q 1303 466 1694 466 
Q 2081 466 2343 764 
Q 2606 1063 2606 1700 
Q 2606 2309 2336 2618 
Q 2066 2928 1684 2928 
Q 1309 2928 1046 2623 
Q 784 2319 784 1719 
z
" transform="scale(0.015625)"/>
      </defs>
      <use xlink:href="#ArialMT-45"/>
      <use xlink:href="#ArialMT-6e" transform="translate(66.699219 0)"/>
      <use xlink:href="#ArialMT-67" transform="translate(122.314453 0)"/>
      <use xlink:href="#ArialMT-69" transform="translate(177.929688 0)"/>
      <use xlink:href="#ArialMT-6e" transform="translate(200.146484 0)"/>
      <use xlink:href="#ArialMT-65" transform="translate(255.761719 0)"/>
      <use xlink:href="#ArialMT-65" transform="translate(311.376953 0)"/>
      <use xlink:href="#ArialMT-72" transform="translate(366.992188 0)"/>
      <use xlink:href="#ArialMT-69" transform="translate(400.292969 0)"/>
      <use xlink:href="#ArialMT-6e" transform="translate(422.509766 0)"/>
      <use xlink:href="#ArialMT-67" transform="translate(478.125 0)"/>
     </g>
    </g>
    <g id="patch_8">
     <path d="M 58.618125 59.044062 
L 74.618125 59.044062 
L 74.618125 53.444062 
L 58.618125 53.444062 
z
" style="fill: #029e73; fill-opacity: 0.85"/>
    </g>
    <g id="text_20">
     <!-- Health Professions -->
     <g transform="translate(81.018125 59.044062) scale(0.08 -0.08)">
      <defs>
       <path id="ArialMT-48" d="M 513 0 
L 513 4581 
L 1119 4581 
L 1119 2700 
L 3500 2700 
L 3500 4581 
L 4106 4581 
L 4106 0 
L 3500 0 
L 3500 2159 
L 1119 2159 
L 1119 0 
L 513 0 
z
" transform="scale(0.015625)"/>
       <path id="ArialMT-68" d="M 422 0 
L 422 4581 
L 984 4581 
L 984 2938 
Q 1378 3394 1978 3394 
Q 2347 3394 2619 3248 
Q 2891 3103 3008 2847 
Q 3125 2591 3125 2103 
L 3125 0 
L 2563 0 
L 2563 2103 
Q 2563 2525 2380 2717 
Q 2197 2909 1863 2909 
Q 1613 2909 1392 2779 
Q 1172 2650 1078 2428 
Q 984 2206 984 1816 
L 984 0 
L 422 0 
z
" transform="scale(0.015625)"/>
      </defs>
      <use xlink:href="#ArialMT-48"/>
      <use xlink:href="#ArialMT-65" transform="translate(72.216797 0)"/>
      <use xlink:href="#ArialMT-61" transform="translate(127.832031 0)"/>
      <use xlink:href="#ArialMT-6c" transform="translate(183.447266 0)"/>
      <use xlink:href="#ArialMT-74" transform="translate(205.664062 0)"/>
      <use xlink:href="#ArialMT-68" transform="translate(233.447266 0)"/>
      <use xlink:href="#ArialMT-20" transform="translate(289.0625 0)"/>
      <use xlink:href="#ArialMT-50" transform="translate(316.845703 0)"/>
      <use xlink:href="#ArialMT-72" transform="translate(383.544922 0)"/>
      <use xlink:href="#ArialMT-6f" transform="translate(416.845703 0)"/>
      <use xlink:href="#ArialMT-66" transform="translate(472.460938 0)"/>
      <use xlink:href="#ArialMT-65" transform="translate(500.244141 0)"/>
      <use xlink:href="#ArialMT-73" transform="translate(555.859375 0)"/>
      <use xlink:href="#ArialMT-73" transform="translate(605.859375 0)"/>
      <use xlink:href="#ArialMT-69" transform="translate(655.859375 0)"/>
      <use xlink:href="#ArialMT-6f" transform="translate(678.076172 0)"/>
      <use xlink:href="#ArialMT-6e" transform="translate(733.691406 0)"/>
      <use xlink:href="#ArialMT-73" transform="translate(789.306641 0)"/>
     </g>
    </g>
    <g id="patch_9">
     <path d="M 58.618125 70.457812 
L 74.618125 70.457812 
L 74.618125 64.857812 
L 58.618125 64.857812 
z
" style="fill: #d55e00; fill-opacity: 0.85"/>
    </g>
    <g id="text_21">
     <!-- Biochemistry, Genetics and Molecular Biology -->
     <g transform="translate(81.018125 70.457812) scale(0.08 -0.08)">
      <defs>
       <path id="ArialMT-42" d="M 469 0 
L 469 4581 
L 2188 4581 
Q 2713 4581 3030 4442 
Q 3347 4303 3526 4014 
Q 3706 3725 3706 3409 
Q 3706 3116 3547 2856 
Q 3388 2597 3066 2438 
Q 3481 2316 3704 2022 
Q 3928 1728 3928 1328 
Q 3928 1006 3792 729 
Q 3656 453 3456 303 
Q 3256 153 2954 76 
Q 2653 0 2216 0 
L 469 0 
z
M 1075 2656 
L 2066 2656 
Q 2469 2656 2644 2709 
Q 2875 2778 2992 2937 
Q 3109 3097 3109 3338 
Q 3109 3566 3000 3739 
Q 2891 3913 2687 3977 
Q 2484 4041 1991 4041 
L 1075 4041 
L 1075 2656 
z
M 1075 541 
L 2216 541 
Q 2509 541 2628 563 
Q 2838 600 2978 687 
Q 3119 775 3209 942 
Q 3300 1109 3300 1328 
Q 3300 1584 3169 1773 
Q 3038 1963 2805 2039 
Q 2572 2116 2134 2116 
L 1075 2116 
L 1075 541 
z
" transform="scale(0.015625)"/>
       <path id="ArialMT-79" d="M 397 -1278 
L 334 -750 
Q 519 -800 656 -800 
Q 844 -800 956 -737 
Q 1069 -675 1141 -563 
Q 1194 -478 1313 -144 
Q 1328 -97 1363 -6 
L 103 3319 
L 709 3319 
L 1400 1397 
Q 1534 1031 1641 628 
Q 1738 1016 1872 1384 
L 2581 3319 
L 3144 3319 
L 1881 -56 
Q 1678 -603 1566 -809 
Q 1416 -1088 1222 -1217 
Q 1028 -1347 759 -1347 
Q 597 -1347 397 -1278 
z
" transform="scale(0.015625)"/>
       <path id="ArialMT-2c" d="M 569 0 
L 569 641 
L 1209 641 
L 1209 0 
Q 1209 -353 1084 -570 
Q 959 -788 688 -906 
L 531 -666 
Q 709 -588 793 -436 
Q 878 -284 888 0 
L 569 0 
z
" transform="scale(0.015625)"/>
       <path id="ArialMT-47" d="M 2638 1797 
L 2638 2334 
L 4578 2338 
L 4578 638 
Q 4131 281 3656 101 
Q 3181 -78 2681 -78 
Q 2006 -78 1454 211 
Q 903 500 622 1047 
Q 341 1594 341 2269 
Q 341 2938 620 3517 
Q 900 4097 1425 4378 
Q 1950 4659 2634 4659 
Q 3131 4659 3532 4498 
Q 3934 4338 4162 4050 
Q 4391 3763 4509 3300 
L 3963 3150 
Q 3859 3500 3706 3700 
Q 3553 3900 3268 4020 
Q 2984 4141 2638 4141 
Q 2222 4141 1919 4014 
Q 1616 3888 1430 3681 
Q 1244 3475 1141 3228 
Q 966 2803 966 2306 
Q 966 1694 1177 1281 
Q 1388 869 1791 669 
Q 2194 469 2647 469 
Q 3041 469 3416 620 
Q 3791 772 3984 944 
L 3984 1797 
L 2638 1797 
z
" transform="scale(0.015625)"/>
      </defs>
      <use xlink:href="#ArialMT-42"/>
      <use xlink:href="#ArialMT-69" transform="translate(66.699219 0)"/>
      <use xlink:href="#ArialMT-6f" transform="translate(88.916016 0)"/>
      <use xlink:href="#ArialMT-63" transform="translate(144.53125 0)"/>
      <use xlink:href="#ArialMT-68" transform="translate(194.53125 0)"/>
      <use xlink:href="#ArialMT-65" transform="translate(250.146484 0)"/>
      <use xlink:href="#ArialMT-6d" transform="translate(305.761719 0)"/>
      <use xlink:href="#ArialMT-69" transform="translate(389.0625 0)"/>
      <use xlink:href="#ArialMT-73" transform="translate(411.279297 0)"/>
      <use xlink:href="#ArialMT-74" transform="translate(461.279297 0)"/>
      <use xlink:href="#ArialMT-72" transform="translate(489.0625 0)"/>
      <use xlink:href="#ArialMT-79" transform="translate(522.363281 0)"/>
      <use xlink:href="#ArialMT-2c" transform="translate(564.988281 0)"/>
      <use xlink:href="#ArialMT-20" transform="translate(592.771484 0)"/>
      <use xlink:href="#ArialMT-47" transform="translate(620.554688 0)"/>
      <use xlink:href="#ArialMT-65" transform="translate(698.337891 0)"/>
      <use xlink:href="#ArialMT-6e" transform="translate(753.953125 0)"/>
      <use xlink:href="#ArialMT-65" transform="translate(809.568359 0)"/>
      <use xlink:href="#ArialMT-74" transform="translate(865.183594 0)"/>
      <use xlink:href="#ArialMT-69" transform="translate(892.966797 0)"/>
      <use xlink:href="#ArialMT-63" transform="translate(915.183594 0)"/>
      <use xlink:href="#ArialMT-73" transform="translate(965.183594 0)"/>
      <use xlink:href="#ArialMT-20" transform="translate(1015.183594 0)"/>
      <use xlink:href="#ArialMT-61" transform="translate(1042.966797 0)"/>
      <use xlink:href="#ArialMT-6e" transform="translate(1098.582031 0)"/>
      <use xlink:href="#ArialMT-64" transform="translate(1154.197266 0)"/>
      <use xlink:href="#ArialMT-20" transform="translate(1209.8125 0)"/>
      <use xlink:href="#ArialMT-4d" transform="translate(1237.595703 0)"/>
      <use xlink:href="#ArialMT-6f" transform="translate(1320.896484 0)"/>
      <use xlink:href="#ArialMT-6c" transform="translate(1376.511719 0)"/>
      <use xlink:href="#ArialMT-65" transform="translate(1398.728516 0)"/>
      <use xlink:href="#ArialMT-63" transform="translate(1454.34375 0)"/>
      <use xlink:href="#ArialMT-75" transform="translate(1504.34375 0)"/>
      <use xlink:href="#ArialMT-6c" transform="translate(1559.958984 0)"/>
      <use xlink:href="#ArialMT-61" transform="translate(1582.175781 0)"/>
      <use xlink:href="#ArialMT-72" transform="translate(1637.791016 0)"/>
      <use xlink:href="#ArialMT-20" transform="translate(1671.091797 0)"/>
      <use xlink:href="#ArialMT-42" transform="translate(1698.875 0)"/>
      <use xlink:href="#ArialMT-69" transform="translate(1765.574219 0)"/>
      <use xlink:href="#ArialMT-6f" transform="translate(1787.791016 0)"/>
      <use xlink:href="#ArialMT-6c" transform="translate(1843.40625 0)"/>
      <use xlink:href="#ArialMT-6f" transform="translate(1865.623047 0)"/>
      <use xlink:href="#ArialMT-67" transform="translate(1921.238281 0)"/>
      <use xlink:href="#ArialMT-79" transform="translate(1976.853516 0)"/>
     </g>
    </g>
    <g id="patch_10">
     <path d="M 58.618125 81.867812 
L 74.618125 81.867812 
L 74.618125 76.267812 
L 58.618125 76.267812 
z
" style="fill: #cc78bc; fill-opacity: 0.85"/>
    </g>
    <g id="text_22">
     <!-- Nursing -->
     <g transform="translate(81.018125 81.867812) scale(0.08 -0.08)">
      <use xlink:href="#ArialMT-4e"/>
      <use xlink:href="#ArialMT-75" transform="translate(72.216797 0)"/>
      <use xlink:href="#ArialMT-72" transform="translate(127.832031 0)"/>
      <use xlink:href="#ArialMT-73" transform="translate(161.132812 0)"/>
      <use xlink:href="#ArialMT-69" transform="translate(211.132812 0)"/>
      <use xlink:href="#ArialMT-6e" transform="translate(233.349609 0)"/>
      <use xlink:href="#ArialMT-67" transform="translate(288.964844 0)"/>
     </g>
    </g>
    <g id="patch_11">
     <path d="M 58.618125 93.277812 
L 74.618125 93.277812 
L 74.618125 87.677812 
L 58.618125 87.677812 
z
" style="fill: #ca9161; fill-opacity: 0.85"/>
    </g>
    <g id="text_23">
     <!-- Immunology and Microbiology -->
     <g transform="translate(81.018125 93.277812) scale(0.08 -0.08)">
      <defs>
       <path id="ArialMT-49" d="M 597 0 
L 597 4581 
L 1203 4581 
L 1203 0 
L 597 0 
z
" transform="scale(0.015625)"/>
      </defs>
      <use xlink:href="#ArialMT-49"/>
      <use xlink:href="#ArialMT-6d" transform="translate(27.783203 0)"/>
      <use xlink:href="#ArialMT-6d" transform="translate(111.083984 0)"/>
      <use xlink:href="#ArialMT-75" transform="translate(194.384766 0)"/>
      <use xlink:href="#ArialMT-6e" transform="translate(250 0)"/>
      <use xlink:href="#ArialMT-6f" transform="translate(305.615234 0)"/>
      <use xlink:href="#ArialMT-6c" transform="translate(361.230469 0)"/>
      <use xlink:href="#ArialMT-6f" transform="translate(383.447266 0)"/>
      <use xlink:href="#ArialMT-67" transform="translate(439.0625 0)"/>
      <use xlink:href="#ArialMT-79" transform="translate(494.677734 0)"/>
      <use xlink:href="#ArialMT-20" transform="translate(544.677734 0)"/>
      <use xlink:href="#ArialMT-61" transform="translate(572.460938 0)"/>
      <use xlink:href="#ArialMT-6e" transform="translate(628.076172 0)"/>
      <use xlink:href="#ArialMT-64" transform="translate(683.691406 0)"/>
      <use xlink:href="#ArialMT-20" transform="translate(739.306641 0)"/>
      <use xlink:href="#ArialMT-4d" transform="translate(767.089844 0)"/>
      <use xlink:href="#ArialMT-69" transform="translate(850.390625 0)"/>
      <use xlink:href="#ArialMT-63" transform="translate(872.607422 0)"/>
      <use xlink:href="#ArialMT-72" transform="translate(922.607422 0)"/>
      <use xlink:href="#ArialMT-6f" transform="translate(955.908203 0)"/>
      <use xlink:href="#ArialMT-62" transform="translate(1011.523438 0)"/>
      <use xlink:href="#ArialMT-69" transform="translate(1067.138672 0)"/>
      <use xlink:href="#ArialMT-6f" transform="translate(1089.355469 0)"/>
      <use xlink:href="#ArialMT-6c" transform="translate(1144.970703 0)"/>
      <use xlink:href="#ArialMT-6f" transform="translate(1167.1875 0)"/>
      <use xlink:href="#ArialMT-67" transform="translate(1222.802734 0)"/>
      <use xlink:href="#ArialMT-79" transform="translate(1278.417969 0)"/>
     </g>
    </g>
    <g id="patch_12">
     <path d="M 58.618125 104.687812 
L 74.618125 104.687812 
L 74.618125 99.087812 
L 58.618125 99.087812 
z
" style="fill: #fbafe4; fill-opacity: 0.85"/>
    </g>
    <g id="text_24">
     <!-- Other -->
     <g transform="translate(81.018125 104.687812) scale(0.08 -0.08)">
      <defs>
       <path id="ArialMT-4f" d="M 309 2231 
Q 309 3372 921 4017 
Q 1534 4663 2503 4663 
Q 3138 4663 3647 4359 
Q 4156 4056 4423 3514 
Q 4691 2972 4691 2284 
Q 4691 1588 4409 1038 
Q 4128 488 3612 205 
Q 3097 -78 2500 -78 
Q 1853 -78 1343 234 
Q 834 547 571 1087 
Q 309 1628 309 2231 
z
M 934 2222 
Q 934 1394 1379 917 
Q 1825 441 2497 441 
Q 3181 441 3623 922 
Q 4066 1403 4066 2288 
Q 4066 2847 3877 3264 
Q 3688 3681 3323 3911 
Q 2959 4141 2506 4141 
Q 1863 4141 1398 3698 
Q 934 3256 934 2222 
z
" transform="scale(0.015625)"/>
      </defs>
      <use xlink:href="#ArialMT-4f"/>
      <use xlink:href="#ArialMT-74" transform="translate(77.783203 0)"/>
      <use xlink:href="#ArialMT-68" transform="translate(105.566406 0)"/>
      <use xlink:href="#ArialMT-65" transform="translate(161.181641 0)"/>
      <use xlink:href="#ArialMT-72" transform="translate(216.796875 0)"/>
     </g>
    </g>
   </g>
  </g>
 </g>
 <defs>
  <clipPath id="p53ccc66e42">
   <rect x="51.418125" y="23.391562" width="510.28" height="290.44"/>
  </clipPath>
 </defs>
</svg>
