<?xml version="1.0" encoding="utf-8" standalone="no"?>
<!DOCTYPE svg PUBLIC "-//W3C//DTD SVG 1.1//EN"
  "http://www.w3.org/Graphics/SVG/1.1/DTD/svg11.dtd">
<svg xmlns:xlink="http://www.w3.org/1999/xlink" width="569.147812pt" height="352.167937pt" viewBox="0 0 569.147812 352.167937" xmlns="http://www.w3.org/2000/svg" version="1.1">
 <metadata>
  <rdf:RDF xmlns:dc="http://purl.org/dc/elements/1.1/" xmlns:cc="http://creativecommons.org/ns#" xmlns:rdf="http://www.w3.org/1999/02/22-rdf-syntax-ns#">
   <cc:Work>
    <dc:type rdf:resource="http://purl.org/dc/dcmitype/StillImage"/>
    <dc:date>2026-04-09T22:54:50.459324</dc:date>
    <dc:format>image/svg+xml</dc:format>
    <dc:creator>
     <cc:Agent>
      <dc:title>Matplotlib v3.10.8, https://matplotlib.org/</dc:title>
     </cc:Agent>
    </dc:creator>
   </cc:Work>
  </rdf:RDF>
 </metadata>
 <defs>
  <style type="text/css">*{stroke-linejoin: round; stroke-linecap: butt}</style>
 </defs>
 <g id="figure_1">
  <g id="patch_1">
   <path d="M 0 352.167937 
L 569.147812 352.167937 
L 569.147812 0 
L 0 0 
z
" style="fill: #ffffff"/>
  </g>
  <g id="axes_1">
   <g id="patch_2">
    <path d="M 46.144063 313.84825 
L 561.947812 313.84825 
L 561.947812 38.38425 
L 46.144063 38.38425 
z
" style="fill: #ffffff"/>
   </g>
   <g id="matplotlib.axis_1">
    <g id="xtick_1">
     <g id="line2d_1">
      <defs>
       <path id="m3a897e0915" d="M 0 0 
L 0 3.5 
" style="stroke: #000000; stroke-width: 0.8"/>
      </defs>
      <g>
       <use xlink:href="#m3a897e0915" x="69.589688" y="313.84825" style="stroke: #000000; stroke-width: 0.8"/>
      </g>
     </g>
     <g id="text_1">
      <!-- 2000 -->
      <g transform="translate(58.467813 328.006062) scale(0.1 -0.1)">
       <defs>
        <path id="ArialMT-32" d="M 3222 541 
L 3222 0 
L 194 0 
Q 188 203 259 391 
Q 375 700 629 1000 
Q 884 1300 1366 1694 
Q 2113 2306 2375 2664 
Q 2638 3022 2638 3341 
Q 2638 3675 2398 3904 
Q 2159 4134 1775 4134 
Q 1369 4134 1125 3890 
Q 881 3647 878 3216 
L 300 3275 
Q 359 3922 746 4261 
Q 1134 4600 1788 4600 
Q 2447 4600 2831 4234 
Q 3216 3869 3216 3328 
Q 3216 3053 3103 2787 
Q 2991 2522 2730 2228 
Q 2469 1934 1863 1422 
Q 1356 997 1212 845 
Q 1069 694 975 541 
L 3222 541 
z
" transform="scale(0.015625)"/>
        <path id="ArialMT-30" d="M 266 2259 
Q 266 3072 433 3567 
Q 600 4063 929 4331 
Q 1259 4600 1759 4600 
Q 2128 4600 2406 4451 
Q 2684 4303 2865 4023 
Q 3047 3744 3150 3342 
Q 3253 2941 3253 2259 
Q 3253 1453 3087 958 
Q 2922 463 2592 192 
Q 2263 -78 1759 -78 
Q 1097 -78 719 397 
Q 266 969 266 2259 
z
M 844 2259 
Q 844 1131 1108 757 
Q 1372 384 1759 384 
Q 2147 384 2411 759 
Q 2675 1134 2675 2259 
Q 2675 3391 2411 3762 
Q 2147 4134 1753 4134 
Q 1366 4134 1134 3806 
Q 844 3388 844 2259 
z
" transform="scale(0.015625)"/>
       </defs>
       <use xlink:href="#ArialMT-32"/>
       <use xlink:href="#ArialMT-30" transform="translate(55.615234 0)"/>
       <use xlink:href="#ArialMT-30" transform="translate(111.230469 0)"/>
       <use xlink:href="#ArialMT-30" transform="translate(166.845703 0)"/>
      </g>
     </g>
    </g>
    <g id="xtick_2">
     <g id="line2d_2">
      <g>
       <use xlink:href="#m3a897e0915" x="163.372188" y="313.84825" style="stroke: #000000; stroke-width: 0.8"/>
      </g>
     </g>
     <g id="text_2">
      <!-- 2005 -->
      <g transform="translate(152.250313 328.006062) scale(0.1 -0.1)">
       <defs>
        <path id="ArialMT-35" d="M 266 1200 
L 856 1250 
Q 922 819 1161 601 
Q 1400 384 1738 384 
Q 2144 384 2425 690 
Q 2706 997 2706 1503 
Q 2706 1984 2436 2262 
Q 2166 2541 1728 2541 
Q 1456 2541 1237 2417 
Q 1019 2294 894 2097 
L 366 2166 
L 809 4519 
L 3088 4519 
L 3088 3981 
L 1259 3981 
L 1013 2750 
Q 1425 3038 1878 3038 
Q 2478 3038 2890 2622 
Q 3303 2206 3303 1553 
Q 3303 931 2941 478 
Q 2500 -78 1738 -78 
Q 1113 -78 717 272 
Q 322 622 266 1200 
z
" transform="scale(0.015625)"/>
       </defs>
       <use xlink:href="#ArialMT-32"/>
       <use xlink:href="#ArialMT-30" transform="translate(55.615234 0)"/>
       <use xlink:href="#ArialMT-30" transform="translate(111.230469 0)"/>
       <use xlink:href="#ArialMT-35" transform="translate(166.845703 0)"/>
      </g>
     </g>
    </g>
    <g id="xtick_3">
     <g id="line2d_3">
      <g>
       <use xlink:href="#m3a897e0915" x="257.154687" y="313.84825" style="stroke: #000000; stroke-width: 0.8"/>
      </g>
     </g>
     <g id="text_3">
      <!-- 2010 -->
      <g transform="translate(246.032812 328.006062) scale(0.1 -0.1)">
       <defs>
        <path id="ArialMT-31" d="M 2384 0 
L 1822 0 
L 1822 3584 
Q 1619 3391 1289 3197 
Q 959 3003 697 2906 
L 697 3450 
Q 1169 3672 1522 3987 
Q 1875 4303 2022 4600 
L 2384 4600 
L 2384 0 
z
" transform="scale(0.015625)"/>
       </defs>
       <use xlink:href="#ArialMT-32"/>
       <use xlink:href="#ArialMT-30" transform="translate(55.615234 0)"/>
       <use xlink:href="#ArialMT-31" transform="translate(111.230469 0)"/>
       <use xlink:href="#ArialMT-30" transform="translate(166.845703 0)"/>
      </g>
     </g>
    </g>
    <g id="xtick_4">
     <g id="line2d_4">
      <g>
       <use xlink:href="#m3a897e0915" x="350.937187" y="313.84825" style="stroke: #000000; stroke-width: 0.8"/>
      </g>
     </g>
     <g id="text_4">
      <!-- 2015 -->
      <g transform="translate(339.815312 328.006062) scale(0.1 -0.1)">
       <use xlink:href="#ArialMT-32"/>
       <use xlink:href="#ArialMT-30" transform="translate(55.615234 0)"/>
       <use xlink:href="#ArialMT-31" transform="translate(111.230469 0)"/>
       <use xlink:href="#ArialMT-35" transform="translate(166.845703 0)"/>
      </g>
     </g>
    </g>
    <g id="xtick_5">
     <g id="line2d_5">
      <g>
       <use xlink:href="#m3a897e0915" x="444.719688" y="313.84825" style="stroke: #000000; stroke-width: 0.8"/>
      </g>
     </g>
     <g id="text_5">
      <!-- 2020 -->
      <g transform="translate(433.597813 328.006062) scale(0.1 -0.1)">
       <use xlink:href="#ArialMT-32"/>
       <use xlink:href="#ArialMT-30" transform="translate(55.615234 0)"/>
       <use xlink:href="#ArialMT-32" transform="translate(111.230469 0)"/>
       <use xlink:href="#ArialMT-30" transform="translate(166.845703 0)"/>
      </g>
     </g>
    </g>
    <g id="xtick_6">
     <g id="line2d_6">
      <g>
       <use xlink:href="#m3a897e0915" x="538.502188" y="313.84825" style="stroke: #000000; stroke-width: 0.8"/>
      </g>
     </g>
     <g id="text_6">
      <!-- 2025 -->
      <g transform="translate(527.380313 328.006062) scale(0.1 -0.1)">
       <use xlink:href="#ArialMT-32"/>
       <use xlink:href="#ArialMT-30" transform="translate(55.615234 0)"/>
       <use xlink:href="#ArialMT-32" transform="translate(111.230469 0)"/>
       <use xlink:href="#ArialMT-35" transform="translate(166.845703 0)"/>
      </g>
     </g>
    </g>
    <g id="text_7">
     <!-- Year -->
     <g transform="translate(291.920312 342.582937) scale(0.12 -0.12)">
      <defs>
       <path id="ArialMT-59" d="M 1784 0 
L 1784 1941 
L 19 4581 
L 756 4581 
L 1659 3200 
Q 1909 2813 2125 2425 
Q 2331 2784 2625 3234 
L 3513 4581 
L 4219 4581 
L 2391 1941 
L 2391 0 
L 1784 0 
z
" transform="scale(0.015625)"/>
       <path id="ArialMT-65" d="M 2694 1069 
L 3275 997 
Q 3138 488 2766 206 
Q 2394 -75 1816 -75 
Q 1088 -75 661 373 
Q 234 822 234 1631 
Q 234 2469 665 2931 
Q 1097 3394 1784 3394 
Q 2450 3394 2872 2941 
Q 3294 2488 3294 1666 
Q 3294 1616 3291 1516 
L 816 1516 
Q 847 969 1125 678 
Q 1403 388 1819 388 
Q 2128 388 2347 550 
Q 2566 713 2694 1069 
z
M 847 1978 
L 2700 1978 
Q 2663 2397 2488 2606 
Q 2219 2931 1791 2931 
Q 1403 2931 1139 2672 
Q 875 2413 847 1978 
z
" transform="scale(0.015625)"/>
       <path id="ArialMT-61" d="M 2588 409 
Q 2275 144 1986 34 
Q 1697 -75 1366 -75 
Q 819 -75 525 192 
Q 231 459 231 875 
Q 231 1119 342 1320 
Q 453 1522 633 1644 
Q 813 1766 1038 1828 
Q 1203 1872 1538 1913 
Q 2219 1994 2541 2106 
Q 2544 2222 2544 2253 
Q 2544 2597 2384 2738 
Q 2169 2928 1744 2928 
Q 1347 2928 1158 2789 
Q 969 2650 878 2297 
L 328 2372 
Q 403 2725 575 2942 
Q 747 3159 1072 3276 
Q 1397 3394 1825 3394 
Q 2250 3394 2515 3294 
Q 2781 3194 2906 3042 
Q 3031 2891 3081 2659 
Q 3109 2516 3109 2141 
L 3109 1391 
Q 3109 606 3145 398 
Q 3181 191 3288 0 
L 2700 0 
Q 2613 175 2588 409 
z
M 2541 1666 
Q 2234 1541 1622 1453 
Q 1275 1403 1131 1340 
Q 988 1278 909 1158 
Q 831 1038 831 891 
Q 831 666 1001 516 
Q 1172 366 1500 366 
Q 1825 366 2078 508 
Q 2331 650 2450 897 
Q 2541 1088 2541 1459 
L 2541 1666 
z
" transform="scale(0.015625)"/>
       <path id="ArialMT-72" d="M 416 0 
L 416 3319 
L 922 3319 
L 922 2816 
Q 1116 3169 1280 3281 
Q 1444 3394 1641 3394 
Q 1925 3394 2219 3213 
L 2025 2691 
Q 1819 2813 1613 2813 
Q 1428 2813 1281 2702 
Q 1134 2591 1072 2394 
Q 978 2094 978 1738 
L 978 0 
L 416 0 
z
" transform="scale(0.015625)"/>
      </defs>
      <use xlink:href="#ArialMT-59"/>
      <use xlink:href="#ArialMT-65" transform="translate(57.574219 0)"/>
      <use xlink:href="#ArialMT-61" transform="translate(113.189453 0)"/>
      <use xlink:href="#ArialMT-72" transform="translate(168.804688 0)"/>
     </g>
    </g>
   </g>
   <g id="matplotlib.axis_2">
    <g id="ytick_1">
     <g id="line2d_7">
      <path d="M 46.144063 313.84825 
L 561.947812 313.84825 
" clip-path="url(#peef04b660a)" style="fill: none; stroke: #e0e0e0; stroke-width: 0.5; stroke-linecap: square"/>
     </g>
     <g id="line2d_8">
      <defs>
       <path id="m3588e3d937" d="M 0 0 
L -3.5 0 
" style="stroke: #000000; stroke-width: 0.8"/>
      </defs>
      <g>
       <use xlink:href="#m3588e3d937" x="46.144063" y="313.84825" style="stroke: #000000; stroke-width: 0.8"/>
      </g>
     </g>
     <g id="text_8">
      <!-- 0 -->
      <g transform="translate(33.583125 317.427156) scale(0.1 -0.1)">
       <use xlink:href="#ArialMT-30"/>
      </g>
     </g>
    </g>
    <g id="ytick_2">
     <g id="line2d_9">
      <path d="M 46.144063 258.75545 
L 561.947812 258.75545 
" clip-path="url(#peef04b660a)" style="fill: none; stroke: #e0e0e0; stroke-width: 0.5; stroke-linecap: square"/>
     </g>
     <g id="line2d_10">
      <g>
       <use xlink:href="#m3588e3d937" x="46.144063" y="258.75545" style="stroke: #000000; stroke-width: 0.8"/>
      </g>
     </g>
     <g id="text_9">
      <!-- 20 -->
      <g transform="translate(28.022188 262.334356) scale(0.1 -0.1)">
       <use xlink:href="#ArialMT-32"/>
       <use xlink:href="#ArialMT-30" transform="translate(55.615234 0)"/>
      </g>
     </g>
    </g>
    <g id="ytick_3">
     <g id="line2d_11">
      <path d="M 46.144063 203.66265 
L 561.947812 203.66265 
" clip-path="url(#peef04b660a)" style="fill: none; stroke: #e0e0e0; stroke-width: 0.5; stroke-linecap: square"/>
     </g>
     <g id="line2d_12">
      <g>
       <use xlink:href="#m3588e3d937" x="46.144063" y="203.66265" style="stroke: #000000; stroke-width: 0.8"/>
      </g>
     </g>
     <g id="text_10">
      <!-- 40 -->
      <g transform="translate(28.022188 207.241556) scale(0.1 -0.1)">
       <defs>
        <path id="ArialMT-34" d="M 2069 0 
L 2069 1097 
L 81 1097 
L 81 1613 
L 2172 4581 
L 2631 4581 
L 2631 1613 
L 3250 1613 
L 3250 1097 
L 2631 1097 
L 2631 0 
L 2069 0 
z
M 2069 1613 
L 2069 3678 
L 634 1613 
L 2069 1613 
z
" transform="scale(0.015625)"/>
       </defs>
       <use xlink:href="#ArialMT-34"/>
       <use xlink:href="#ArialMT-30" transform="translate(55.615234 0)"/>
      </g>
     </g>
    </g>
    <g id="ytick_4">
     <g id="line2d_13">
      <path d="M 46.144063 148.56985 
L 561.947812 148.56985 
" clip-path="url(#peef04b660a)" style="fill: none; stroke: #e0e0e0; stroke-width: 0.5; stroke-linecap: square"/>
     </g>
     <g id="line2d_14">
      <g>
       <use xlink:href="#m3588e3d937" x="46.144063" y="148.56985" style="stroke: #000000; stroke-width: 0.8"/>
      </g>
     </g>
     <g id="text_11">
      <!-- 60 -->
      <g transform="translate(28.022188 152.148756) scale(0.1 -0.1)">
       <defs>
        <path id="ArialMT-36" d="M 3184 3459 
L 2625 3416 
Q 2550 3747 2413 3897 
Q 2184 4138 1850 4138 
Q 1581 4138 1378 3988 
Q 1113 3794 959 3422 
Q 806 3050 800 2363 
Q 1003 2672 1297 2822 
Q 1591 2972 1913 2972 
Q 2475 2972 2870 2558 
Q 3266 2144 3266 1488 
Q 3266 1056 3080 686 
Q 2894 316 2569 119 
Q 2244 -78 1831 -78 
Q 1128 -78 684 439 
Q 241 956 241 2144 
Q 241 3472 731 4075 
Q 1159 4600 1884 4600 
Q 2425 4600 2770 4297 
Q 3116 3994 3184 3459 
z
M 888 1484 
Q 888 1194 1011 928 
Q 1134 663 1356 523 
Q 1578 384 1822 384 
Q 2178 384 2434 671 
Q 2691 959 2691 1453 
Q 2691 1928 2437 2201 
Q 2184 2475 1800 2475 
Q 1419 2475 1153 2201 
Q 888 1928 888 1484 
z
" transform="scale(0.015625)"/>
       </defs>
       <use xlink:href="#ArialMT-36"/>
       <use xlink:href="#ArialMT-30" transform="translate(55.615234 0)"/>
      </g>
     </g>
    </g>
    <g id="ytick_5">
     <g id="line2d_15">
      <path d="M 46.144063 93.47705 
L 561.947812 93.47705 
" clip-path="url(#peef04b660a)" style="fill: none; stroke: #e0e0e0; stroke-width: 0.5; stroke-linecap: square"/>
     </g>
     <g id="line2d_16">
      <g>
       <use xlink:href="#m3588e3d937" x="46.144063" y="93.47705" style="stroke: #000000; stroke-width: 0.8"/>
      </g>
     </g>
     <g id="text_12">
      <!-- 80 -->
      <g transform="translate(28.022188 97.055956) scale(0.1 -0.1)">
       <defs>
        <path id="ArialMT-38" d="M 1131 2484 
Q 781 2613 612 2850 
Q 444 3088 444 3419 
Q 444 3919 803 4259 
Q 1163 4600 1759 4600 
Q 2359 4600 2725 4251 
Q 3091 3903 3091 3403 
Q 3091 3084 2923 2848 
Q 2756 2613 2416 2484 
Q 2838 2347 3058 2040 
Q 3278 1734 3278 1309 
Q 3278 722 2862 322 
Q 2447 -78 1769 -78 
Q 1091 -78 675 323 
Q 259 725 259 1325 
Q 259 1772 486 2073 
Q 713 2375 1131 2484 
z
M 1019 3438 
Q 1019 3113 1228 2906 
Q 1438 2700 1772 2700 
Q 2097 2700 2305 2904 
Q 2513 3109 2513 3406 
Q 2513 3716 2298 3927 
Q 2084 4138 1766 4138 
Q 1444 4138 1231 3931 
Q 1019 3725 1019 3438 
z
M 838 1322 
Q 838 1081 952 856 
Q 1066 631 1291 507 
Q 1516 384 1775 384 
Q 2178 384 2440 643 
Q 2703 903 2703 1303 
Q 2703 1709 2433 1975 
Q 2163 2241 1756 2241 
Q 1359 2241 1098 1978 
Q 838 1716 838 1322 
z
" transform="scale(0.015625)"/>
       </defs>
       <use xlink:href="#ArialMT-38"/>
       <use xlink:href="#ArialMT-30" transform="translate(55.615234 0)"/>
      </g>
     </g>
    </g>
    <g id="ytick_6">
     <g id="line2d_17">
      <path d="M 46.144063 38.38425 
L 561.947812 38.38425 
" clip-path="url(#peef04b660a)" style="fill: none; stroke: #e0e0e0; stroke-width: 0.5; stroke-linecap: square"/>
     </g>
     <g id="line2d_18">
      <g>
       <use xlink:href="#m3588e3d937" x="46.144063" y="38.38425" style="stroke: #000000; stroke-width: 0.8"/>
      </g>
     </g>
     <g id="text_13">
      <!-- 100 -->
      <g transform="translate(22.46125 41.963156) scale(0.1 -0.1)">
       <use xlink:href="#ArialMT-31"/>
       <use xlink:href="#ArialMT-30" transform="translate(55.615234 0)"/>
       <use xlink:href="#ArialMT-30" transform="translate(111.230469 0)"/>
      </g>
     </g>
    </g>
    <g id="text_14">
     <!-- Percentage (%) -->
     <g transform="translate(15.935625 217.800312) rotate(-90) scale(0.12 -0.12)">
      <defs>
       <path id="ArialMT-50" d="M 494 0 
L 494 4581 
L 2222 4581 
Q 2678 4581 2919 4538 
Q 3256 4481 3484 4323 
Q 3713 4166 3852 3881 
Q 3991 3597 3991 3256 
Q 3991 2672 3619 2267 
Q 3247 1863 2275 1863 
L 1100 1863 
L 1100 0 
L 494 0 
z
M 1100 2403 
L 2284 2403 
Q 2872 2403 3119 2622 
Q 3366 2841 3366 3238 
Q 3366 3525 3220 3729 
Q 3075 3934 2838 4000 
Q 2684 4041 2272 4041 
L 1100 4041 
L 1100 2403 
z
" transform="scale(0.015625)"/>
       <path id="ArialMT-63" d="M 2588 1216 
L 3141 1144 
Q 3050 572 2676 248 
Q 2303 -75 1759 -75 
Q 1078 -75 664 370 
Q 250 816 250 1647 
Q 250 2184 428 2587 
Q 606 2991 970 3192 
Q 1334 3394 1763 3394 
Q 2303 3394 2647 3120 
Q 2991 2847 3088 2344 
L 2541 2259 
Q 2463 2594 2264 2762 
Q 2066 2931 1784 2931 
Q 1359 2931 1093 2626 
Q 828 2322 828 1663 
Q 828 994 1084 691 
Q 1341 388 1753 388 
Q 2084 388 2306 591 
Q 2528 794 2588 1216 
z
" transform="scale(0.015625)"/>
       <path id="ArialMT-6e" d="M 422 0 
L 422 3319 
L 928 3319 
L 928 2847 
Q 1294 3394 1984 3394 
Q 2284 3394 2536 3286 
Q 2788 3178 2913 3003 
Q 3038 2828 3088 2588 
Q 3119 2431 3119 2041 
L 3119 0 
L 2556 0 
L 2556 2019 
Q 2556 2363 2490 2533 
Q 2425 2703 2258 2804 
Q 2091 2906 1866 2906 
Q 1506 2906 1245 2678 
Q 984 2450 984 1813 
L 984 0 
L 422 0 
z
" transform="scale(0.015625)"/>
       <path id="ArialMT-74" d="M 1650 503 
L 1731 6 
Q 1494 -44 1306 -44 
Q 1000 -44 831 53 
Q 663 150 594 308 
Q 525 466 525 972 
L 525 2881 
L 113 2881 
L 113 3319 
L 525 3319 
L 525 4141 
L 1084 4478 
L 1084 3319 
L 1650 3319 
L 1650 2881 
L 1084 2881 
L 1084 941 
Q 1084 700 1114 631 
Q 1144 563 1211 522 
Q 1278 481 1403 481 
Q 1497 481 1650 503 
z
" transform="scale(0.015625)"/>
       <path id="ArialMT-67" d="M 319 -275 
L 866 -356 
Q 900 -609 1056 -725 
Q 1266 -881 1628 -881 
Q 2019 -881 2231 -725 
Q 2444 -569 2519 -288 
Q 2563 -116 2559 434 
Q 2191 0 1641 0 
Q 956 0 581 494 
Q 206 988 206 1678 
Q 206 2153 378 2554 
Q 550 2956 876 3175 
Q 1203 3394 1644 3394 
Q 2231 3394 2613 2919 
L 2613 3319 
L 3131 3319 
L 3131 450 
Q 3131 -325 2973 -648 
Q 2816 -972 2473 -1159 
Q 2131 -1347 1631 -1347 
Q 1038 -1347 672 -1080 
Q 306 -813 319 -275 
z
M 784 1719 
Q 784 1066 1043 766 
Q 1303 466 1694 466 
Q 2081 466 2343 764 
Q 2606 1063 2606 1700 
Q 2606 2309 2336 2618 
Q 2066 2928 1684 2928 
Q 1309 2928 1046 2623 
Q 784 2319 784 1719 
z
" transform="scale(0.015625)"/>
       <path id="ArialMT-20" transform="scale(0.015625)"/>
       <path id="ArialMT-28" d="M 1497 -1347 
Q 1031 -759 709 28 
Q 388 816 388 1659 
Q 388 2403 628 3084 
Q 909 3875 1497 4659 
L 1900 4659 
Q 1522 4009 1400 3731 
Q 1209 3300 1100 2831 
Q 966 2247 966 1656 
Q 966 153 1900 -1347 
L 1497 -1347 
z
" transform="scale(0.015625)"/>
       <path id="ArialMT-25" d="M 372 3481 
Q 372 3972 619 4315 
Q 866 4659 1334 4659 
Q 1766 4659 2048 4351 
Q 2331 4044 2331 3447 
Q 2331 2866 2045 2552 
Q 1759 2238 1341 2238 
Q 925 2238 648 2547 
Q 372 2856 372 3481 
z
M 1350 4272 
Q 1141 4272 1002 4090 
Q 863 3909 863 3425 
Q 863 2984 1003 2804 
Q 1144 2625 1350 2625 
Q 1563 2625 1702 2806 
Q 1841 2988 1841 3469 
Q 1841 3913 1700 4092 
Q 1559 4272 1350 4272 
z
M 1353 -169 
L 3859 4659 
L 4316 4659 
L 1819 -169 
L 1353 -169 
z
M 3334 1075 
Q 3334 1569 3581 1911 
Q 3828 2253 4300 2253 
Q 4731 2253 5014 1945 
Q 5297 1638 5297 1041 
Q 5297 459 5011 145 
Q 4725 -169 4303 -169 
Q 3888 -169 3611 142 
Q 3334 453 3334 1075 
z
M 4316 1866 
Q 4103 1866 3964 1684 
Q 3825 1503 3825 1019 
Q 3825 581 3965 400 
Q 4106 219 4313 219 
Q 4528 219 4667 400 
Q 4806 581 4806 1063 
Q 4806 1506 4665 1686 
Q 4525 1866 4316 1866 
z
" transform="scale(0.015625)"/>
       <path id="ArialMT-29" d="M 791 -1347 
L 388 -1347 
Q 1322 153 1322 1656 
Q 1322 2244 1188 2822 
Q 1081 3291 891 3722 
Q 769 4003 388 4659 
L 791 4659 
Q 1378 3875 1659 3084 
Q 1900 2403 1900 1659 
Q 1900 816 1576 28 
Q 1253 -759 791 -1347 
z
" transform="scale(0.015625)"/>
      </defs>
      <use xlink:href="#ArialMT-50"/>
      <use xlink:href="#ArialMT-65" transform="translate(66.699219 0)"/>
      <use xlink:href="#ArialMT-72" transform="translate(122.314453 0)"/>
      <use xlink:href="#ArialMT-63" transform="translate(155.615234 0)"/>
      <use xlink:href="#ArialMT-65" transform="translate(205.615234 0)"/>
      <use xlink:href="#ArialMT-6e" transform="translate(261.230469 0)"/>
      <use xlink:href="#ArialMT-74" transform="translate(316.845703 0)"/>
      <use xlink:href="#ArialMT-61" transform="translate(344.628906 0)"/>
      <use xlink:href="#ArialMT-67" transform="translate(400.244141 0)"/>
      <use xlink:href="#ArialMT-65" transform="translate(455.859375 0)"/>
      <use xlink:href="#ArialMT-20" transform="translate(511.474609 0)"/>
      <use xlink:href="#ArialMT-28" transform="translate(539.257812 0)"/>
      <use xlink:href="#ArialMT-25" transform="translate(572.558594 0)"/>
      <use xlink:href="#ArialMT-29" transform="translate(661.474609 0)"/>
     </g>
    </g>
   </g>
   <g id="FillBetweenPolyCollection_1">
    <defs>
     <path id="m28e545a846" d="M 69.589688 -126.593536 
L 69.589688 -82.466671 
L 88.346187 -59.777565 
L 107.102688 -63.342753 
L 125.859187 -85.865937 
L 144.615688 -63.317766 
L 163.372188 -69.252212 
L 182.128688 -75.26332 
L 200.885188 -82.47017 
L 219.641687 -70.607931 
L 238.398188 -72.745948 
L 257.154687 -86.078937 
L 275.911188 -82.428516 
L 294.667688 -83.143241 
L 313.424188 -83.436394 
L 332.180688 -90.257542 
L 350.937187 -80.781755 
L 369.693688 -87.705869 
L 388.450187 -87.941164 
L 407.206688 -90.250869 
L 425.963188 -94.131625 
L 444.719688 -93.819581 
L 463.476188 -88.202592 
L 482.232687 -98.637236 
L 500.989188 -99.251113 
L 519.745687 -100.628947 
L 538.502188 -103.473135 
L 538.502188 -111.452133 
L 538.502188 -111.452133 
L 519.745687 -109.541787 
L 500.989188 -108.5846 
L 482.232687 -108.121614 
L 463.476188 -97.65292 
L 444.719688 -103.729925 
L 425.963188 -106.192399 
L 407.206688 -103.347553 
L 388.450187 -102.114545 
L 369.693688 -102.516971 
L 350.937187 -95.204291 
L 332.180688 -107.340405 
L 313.424188 -101.090805 
L 294.667688 -102.309409 
L 275.911188 -104.051904 
L 257.154687 -108.863493 
L 238.398188 -95.924592 
L 219.641687 -93.409135 
L 200.885188 -108.607538 
L 182.128688 -103.746648 
L 163.372188 -97.645282 
L 144.615688 -90.579469 
L 125.859187 -120.456977 
L 107.102688 -96.53969 
L 88.346187 -92.749085 
L 69.589688 -126.593536 
z
" style="stroke: #2e7d32; stroke-opacity: 0.15"/>
    </defs>
    <g clip-path="url(#peef04b660a)">
     <use xlink:href="#m28e545a846" x="0" y="352.167937" style="fill: #2e7d32; fill-opacity: 0.15; stroke: #2e7d32; stroke-opacity: 0.15"/>
    </g>
   </g>
   <g id="line2d_19">
    <path d="M 69.589688 250.216066 
L 88.346187 279.139786 
L 107.102688 275.007826 
L 125.859187 250.766994 
L 144.615688 277.211538 
L 163.372188 270.600402 
L 182.128688 264.26473 
L 200.885188 257.653594 
L 219.641687 271.426794 
L 238.398188 268.947618 
L 257.154687 255.449882 
L 275.911188 259.857306 
L 294.667688 260.13277 
L 313.424188 260.408234 
L 332.180688 253.797098 
L 350.937187 264.540194 
L 369.693688 257.37813 
L 388.450187 257.37813 
L 407.206688 255.725346 
L 425.963188 252.144314 
L 444.719688 253.521634 
L 463.476188 259.306378 
L 482.232687 248.838746 
L 500.989188 248.287818 
L 519.745687 247.185962 
L 538.502188 244.706786 
" clip-path="url(#peef04b660a)" style="fill: none; stroke: #2e7d32; stroke-width: 2; stroke-linecap: square"/>
    <defs>
     <path id="meb11ed0249" d="M 0 2.5 
C 0.663008 2.5 1.29895 2.236584 1.767767 1.767767 
C 2.236584 1.29895 2.5 0.663008 2.5 0 
C 2.5 -0.663008 2.236584 -1.29895 1.767767 -1.767767 
C 1.29895 -2.236584 0.663008 -2.5 0 -2.5 
C -0.663008 -2.5 -1.29895 -2.236584 -1.767767 -1.767767 
C -2.236584 -1.29895 -2.5 -0.663008 -2.5 0 
C -2.5 0.663008 -2.236584 1.29895 -1.767767 1.767767 
C -1.29895 2.236584 -0.663008 2.5 0 2.5 
z
" style="stroke: #2e7d32"/>
    </defs>
    <g clip-path="url(#peef04b660a)">
     <use xlink:href="#meb11ed0249" x="69.589688" y="250.216066" style="fill: #2e7d32; stroke: #2e7d32"/>
     <use xlink:href="#meb11ed0249" x="88.346187" y="279.139786" style="fill: #2e7d32; stroke: #2e7d32"/>
     <use xlink:href="#meb11ed0249" x="107.102688" y="275.007826" style="fill: #2e7d32; stroke: #2e7d32"/>
     <use xlink:href="#meb11ed0249" x="125.859187" y="250.766994" style="fill: #2e7d32; stroke: #2e7d32"/>
     <use xlink:href="#meb11ed0249" x="144.615688" y="277.211538" style="fill: #2e7d32; stroke: #2e7d32"/>
     <use xlink:href="#meb11ed0249" x="163.372188" y="270.600402" style="fill: #2e7d32; stroke: #2e7d32"/>
     <use xlink:href="#meb11ed0249" x="182.128688" y="264.26473" style="fill: #2e7d32; stroke: #2e7d32"/>
     <use xlink:href="#meb11ed0249" x="200.885188" y="257.653594" style="fill: #2e7d32; stroke: #2e7d32"/>
     <use xlink:href="#meb11ed0249" x="219.641687" y="271.426794" style="fill: #2e7d32; stroke: #2e7d32"/>
     <use xlink:href="#meb11ed0249" x="238.398188" y="268.947618" style="fill: #2e7d32; stroke: #2e7d32"/>
     <use xlink:href="#meb11ed0249" x="257.154687" y="255.449882" style="fill: #2e7d32; stroke: #2e7d32"/>
     <use xlink:href="#meb11ed0249" x="275.911188" y="259.857306" style="fill: #2e7d32; stroke: #2e7d32"/>
     <use xlink:href="#meb11ed0249" x="294.667688" y="260.13277" style="fill: #2e7d32; stroke: #2e7d32"/>
     <use xlink:href="#meb11ed0249" x="313.424188" y="260.408234" style="fill: #2e7d32; stroke: #2e7d32"/>
     <use xlink:href="#meb11ed0249" x="332.180688" y="253.797098" style="fill: #2e7d32; stroke: #2e7d32"/>
     <use xlink:href="#meb11ed0249" x="350.937187" y="264.540194" style="fill: #2e7d32; stroke: #2e7d32"/>
     <use xlink:href="#meb11ed0249" x="369.693688" y="257.37813" style="fill: #2e7d32; stroke: #2e7d32"/>
     <use xlink:href="#meb11ed0249" x="388.450187" y="257.37813" style="fill: #2e7d32; stroke: #2e7d32"/>
     <use xlink:href="#meb11ed0249" x="407.206688" y="255.725346" style="fill: #2e7d32; stroke: #2e7d32"/>
     <use xlink:href="#meb11ed0249" x="425.963188" y="252.144314" style="fill: #2e7d32; stroke: #2e7d32"/>
     <use xlink:href="#meb11ed0249" x="444.719688" y="253.521634" style="fill: #2e7d32; stroke: #2e7d32"/>
     <use xlink:href="#meb11ed0249" x="463.476188" y="259.306378" style="fill: #2e7d32; stroke: #2e7d32"/>
     <use xlink:href="#meb11ed0249" x="482.232687" y="248.838746" style="fill: #2e7d32; stroke: #2e7d32"/>
     <use xlink:href="#meb11ed0249" x="500.989188" y="248.287818" style="fill: #2e7d32; stroke: #2e7d32"/>
     <use xlink:href="#meb11ed0249" x="519.745687" y="247.185962" style="fill: #2e7d32; stroke: #2e7d32"/>
     <use xlink:href="#meb11ed0249" x="538.502188" y="244.706786" style="fill: #2e7d32; stroke: #2e7d32"/>
    </g>
   </g>
   <g id="line2d_20">
    <path d="M 69.589688 264.677926 
L 88.346187 268.121226 
L 107.102688 268.304869 
L 125.859187 267.662119 
L 144.615688 266.192978 
L 163.372188 270.692223 
L 182.128688 264.172909 
L 200.885188 264.448373 
L 219.641687 266.009335 
L 238.398188 265.274765 
L 257.154687 261.418269 
L 275.911188 258.479986 
L 294.667688 260.13277 
L 313.424188 258.112701 
L 332.180688 259.581842 
L 350.937187 258.571807 
L 369.693688 259.765485 
L 388.450187 256.827202 
L 407.206688 255.082597 
L 425.963188 253.797098 
L 444.719688 254.990775 
L 463.476188 253.888919 
L 482.232687 252.144314 
L 500.989188 248.104175 
L 519.745687 246.726855 
L 538.502188 245.946374 
" clip-path="url(#peef04b660a)" style="fill: none; stroke-dasharray: 5.55,2.4; stroke-dashoffset: 0; stroke: #2e7d32; stroke-opacity: 0.5; stroke-width: 1.5"/>
   </g>
   <g id="line2d_21">
    <path d="M 69.589688 268.947618 
L 88.346187 265.366586 
L 107.102688 255.725346 
L 125.859187 245.808642 
L 144.615688 242.22761 
L 163.372188 264.815658 
L 182.128688 259.030914 
L 200.885188 269.77401 
L 219.641687 260.13277 
L 238.398188 264.26473 
L 257.154687 275.558754 
L 275.911188 279.41525 
L 294.667688 272.253186 
L 313.424188 280.79257 
L 332.180688 274.181434 
L 350.937187 282.996282 
L 369.693688 283.54721 
L 388.450187 289.607418 
L 407.206688 288.781026 
L 425.963188 287.403706 
L 444.719688 275.28329 
L 463.476188 284.92453 
L 482.232687 289.331954 
L 500.989188 282.16989 
L 519.745687 281.343498 
L 538.502188 284.098138 
" clip-path="url(#peef04b660a)" style="fill: none; stroke: #f9a825; stroke-width: 2; stroke-linecap: square"/>
    <defs>
     <path id="m4808bcb4e3" d="M 0 -2.5 
L -2.5 2.5 
L 2.5 2.5 
z
" style="stroke: #f9a825; stroke-linejoin: miter"/>
    </defs>
    <g clip-path="url(#peef04b660a)">
     <use xlink:href="#m4808bcb4e3" x="69.589688" y="268.947618" style="fill: #f9a825; stroke: #f9a825; stroke-linejoin: miter"/>
     <use xlink:href="#m4808bcb4e3" x="88.346187" y="265.366586" style="fill: #f9a825; stroke: #f9a825; stroke-linejoin: miter"/>
     <use xlink:href="#m4808bcb4e3" x="107.102688" y="255.725346" style="fill: #f9a825; stroke: #f9a825; stroke-linejoin: miter"/>
     <use xlink:href="#m4808bcb4e3" x="125.859187" y="245.808642" style="fill: #f9a825; stroke: #f9a825; stroke-linejoin: miter"/>
     <use xlink:href="#m4808bcb4e3" x="144.615688" y="242.22761" style="fill: #f9a825; stroke: #f9a825; stroke-linejoin: miter"/>
     <use xlink:href="#m4808bcb4e3" x="163.372188" y="264.815658" style="fill: #f9a825; stroke: #f9a825; stroke-linejoin: miter"/>
     <use xlink:href="#m4808bcb4e3" x="182.128688" y="259.030914" style="fill: #f9a825; stroke: #f9a825; stroke-linejoin: miter"/>
     <use xlink:href="#m4808bcb4e3" x="200.885188" y="269.77401" style="fill: #f9a825; stroke: #f9a825; stroke-linejoin: miter"/>
     <use xlink:href="#m4808bcb4e3" x="219.641687" y="260.13277" style="fill: #f9a825; stroke: #f9a825; stroke-linejoin: miter"/>
     <use xlink:href="#m4808bcb4e3" x="238.398188" y="264.26473" style="fill: #f9a825; stroke: #f9a825; stroke-linejoin: miter"/>
     <use xlink:href="#m4808bcb4e3" x="257.154687" y="275.558754" style="fill: #f9a825; stroke: #f9a825; stroke-linejoin: miter"/>
     <use xlink:href="#m4808bcb4e3" x="275.911188" y="279.41525" style="fill: #f9a825; stroke: #f9a825; stroke-linejoin: miter"/>
     <use xlink:href="#m4808bcb4e3" x="294.667688" y="272.253186" style="fill: #f9a825; stroke: #f9a825; stroke-linejoin: miter"/>
     <use xlink:href="#m4808bcb4e3" x="313.424188" y="280.79257" style="fill: #f9a825; stroke: #f9a825; stroke-linejoin: miter"/>
     <use xlink:href="#m4808bcb4e3" x="332.180688" y="274.181434" style="fill: #f9a825; stroke: #f9a825; stroke-linejoin: miter"/>
     <use xlink:href="#m4808bcb4e3" x="350.937187" y="282.996282" style="fill: #f9a825; stroke: #f9a825; stroke-linejoin: miter"/>
     <use xlink:href="#m4808bcb4e3" x="369.693688" y="283.54721" style="fill: #f9a825; stroke: #f9a825; stroke-linejoin: miter"/>
     <use xlink:href="#m4808bcb4e3" x="388.450187" y="289.607418" style="fill: #f9a825; stroke: #f9a825; stroke-linejoin: miter"/>
     <use xlink:href="#m4808bcb4e3" x="407.206688" y="288.781026" style="fill: #f9a825; stroke: #f9a825; stroke-linejoin: miter"/>
     <use xlink:href="#m4808bcb4e3" x="425.963188" y="287.403706" style="fill: #f9a825; stroke: #f9a825; stroke-linejoin: miter"/>
     <use xlink:href="#m4808bcb4e3" x="444.719688" y="275.28329" style="fill: #f9a825; stroke: #f9a825; stroke-linejoin: miter"/>
     <use xlink:href="#m4808bcb4e3" x="463.476188" y="284.92453" style="fill: #f9a825; stroke: #f9a825; stroke-linejoin: miter"/>
     <use xlink:href="#m4808bcb4e3" x="482.232687" y="289.331954" style="fill: #f9a825; stroke: #f9a825; stroke-linejoin: miter"/>
     <use xlink:href="#m4808bcb4e3" x="500.989188" y="282.16989" style="fill: #f9a825; stroke: #f9a825; stroke-linejoin: miter"/>
     <use xlink:href="#m4808bcb4e3" x="519.745687" y="281.343498" style="fill: #f9a825; stroke: #f9a825; stroke-linejoin: miter"/>
     <use xlink:href="#m4808bcb4e3" x="538.502188" y="284.098138" style="fill: #f9a825; stroke: #f9a825; stroke-linejoin: miter"/>
    </g>
   </g>
   <g id="line2d_22">
    <path d="M 69.589688 267.157102 
L 88.346187 263.346517 
L 107.102688 255.633525 
L 125.859187 247.920533 
L 144.615688 250.950637 
L 163.372188 255.358061 
L 182.128688 264.540194 
L 200.885188 262.979231 
L 219.641687 264.723837 
L 238.398188 266.652085 
L 257.154687 273.079578 
L 275.911188 275.742397 
L 294.667688 277.487002 
L 313.424188 275.742397 
L 332.180688 279.323429 
L 350.937187 280.241642 
L 369.693688 285.383637 
L 388.450187 287.311885 
L 407.206688 288.597383 
L 425.963188 283.822674 
L 444.719688 282.537175 
L 463.476188 283.179925 
L 482.232687 285.475458 
L 500.989188 284.281781 
L 519.745687 282.537175 
L 538.502188 282.720818 
" clip-path="url(#peef04b660a)" style="fill: none; stroke-dasharray: 5.55,2.4; stroke-dashoffset: 0; stroke: #f9a825; stroke-opacity: 0.5; stroke-width: 1.5"/>
   </g>
   <g id="line2d_23">
    <path d="M 69.589688 146.917066 
L 88.346187 121.849842 
L 107.102688 135.347578 
L 125.859187 169.505114 
L 144.615688 146.366138 
L 163.372188 130.66469 
L 182.128688 142.785106 
L 200.885188 138.653146 
L 219.641687 134.521186 
L 238.398188 132.592938 
L 257.154687 135.072114 
L 275.911188 126.808194 
L 294.667688 133.694794 
L 313.424188 124.879946 
L 332.180688 138.102218 
L 350.937187 118.544274 
L 369.693688 125.15541 
L 388.450187 119.095202 
L 407.206688 121.574378 
L 425.963188 126.257266 
L 444.719688 137.000362 
L 463.476188 121.849842 
L 482.232687 127.91005 
L 500.989188 135.347578 
L 519.745687 137.55129 
L 538.502188 137.275826 
" clip-path="url(#peef04b660a)" style="fill: none; stroke: #1565c0; stroke-width: 2; stroke-linecap: square"/>
    <defs>
     <path id="me2e48949d1" d="M -2.5 2.5 
L 2.5 2.5 
L 2.5 -2.5 
L -2.5 -2.5 
z
" style="stroke: #1565c0; stroke-linejoin: miter"/>
    </defs>
    <g clip-path="url(#peef04b660a)">
     <use xlink:href="#me2e48949d1" x="69.589688" y="146.917066" style="fill: #1565c0; stroke: #1565c0; stroke-linejoin: miter"/>
     <use xlink:href="#me2e48949d1" x="88.346187" y="121.849842" style="fill: #1565c0; stroke: #1565c0; stroke-linejoin: miter"/>
     <use xlink:href="#me2e48949d1" x="107.102688" y="135.347578" style="fill: #1565c0; stroke: #1565c0; stroke-linejoin: miter"/>
     <use xlink:href="#me2e48949d1" x="125.859187" y="169.505114" style="fill: #1565c0; stroke: #1565c0; stroke-linejoin: miter"/>
     <use xlink:href="#me2e48949d1" x="144.615688" y="146.366138" style="fill: #1565c0; stroke: #1565c0; stroke-linejoin: miter"/>
     <use xlink:href="#me2e48949d1" x="163.372188" y="130.66469" style="fill: #1565c0; stroke: #1565c0; stroke-linejoin: miter"/>
     <use xlink:href="#me2e48949d1" x="182.128688" y="142.785106" style="fill: #1565c0; stroke: #1565c0; stroke-linejoin: miter"/>
     <use xlink:href="#me2e48949d1" x="200.885188" y="138.653146" style="fill: #1565c0; stroke: #1565c0; stroke-linejoin: miter"/>
     <use xlink:href="#me2e48949d1" x="219.641687" y="134.521186" style="fill: #1565c0; stroke: #1565c0; stroke-linejoin: miter"/>
     <use xlink:href="#me2e48949d1" x="238.398188" y="132.592938" style="fill: #1565c0; stroke: #1565c0; stroke-linejoin: miter"/>
     <use xlink:href="#me2e48949d1" x="257.154687" y="135.072114" style="fill: #1565c0; stroke: #1565c0; stroke-linejoin: miter"/>
     <use xlink:href="#me2e48949d1" x="275.911188" y="126.808194" style="fill: #1565c0; stroke: #1565c0; stroke-linejoin: miter"/>
     <use xlink:href="#me2e48949d1" x="294.667688" y="133.694794" style="fill: #1565c0; stroke: #1565c0; stroke-linejoin: miter"/>
     <use xlink:href="#me2e48949d1" x="313.424188" y="124.879946" style="fill: #1565c0; stroke: #1565c0; stroke-linejoin: miter"/>
     <use xlink:href="#me2e48949d1" x="332.180688" y="138.102218" style="fill: #1565c0; stroke: #1565c0; stroke-linejoin: miter"/>
     <use xlink:href="#me2e48949d1" x="350.937187" y="118.544274" style="fill: #1565c0; stroke: #1565c0; stroke-linejoin: miter"/>
     <use xlink:href="#me2e48949d1" x="369.693688" y="125.15541" style="fill: #1565c0; stroke: #1565c0; stroke-linejoin: miter"/>
     <use xlink:href="#me2e48949d1" x="388.450187" y="119.095202" style="fill: #1565c0; stroke: #1565c0; stroke-linejoin: miter"/>
     <use xlink:href="#me2e48949d1" x="407.206688" y="121.574378" style="fill: #1565c0; stroke: #1565c0; stroke-linejoin: miter"/>
     <use xlink:href="#me2e48949d1" x="425.963188" y="126.257266" style="fill: #1565c0; stroke: #1565c0; stroke-linejoin: miter"/>
     <use xlink:href="#me2e48949d1" x="444.719688" y="137.000362" style="fill: #1565c0; stroke: #1565c0; stroke-linejoin: miter"/>
     <use xlink:href="#me2e48949d1" x="463.476188" y="121.849842" style="fill: #1565c0; stroke: #1565c0; stroke-linejoin: miter"/>
     <use xlink:href="#me2e48949d1" x="482.232687" y="127.91005" style="fill: #1565c0; stroke: #1565c0; stroke-linejoin: miter"/>
     <use xlink:href="#me2e48949d1" x="500.989188" y="135.347578" style="fill: #1565c0; stroke: #1565c0; stroke-linejoin: miter"/>
     <use xlink:href="#me2e48949d1" x="519.745687" y="137.55129" style="fill: #1565c0; stroke: #1565c0; stroke-linejoin: miter"/>
     <use xlink:href="#me2e48949d1" x="538.502188" y="137.275826" style="fill: #1565c0; stroke: #1565c0; stroke-linejoin: miter"/>
    </g>
   </g>
   <g id="line2d_24">
    <path d="M 69.589688 134.383454 
L 88.346187 134.704829 
L 107.102688 142.234178 
L 125.859187 150.406277 
L 144.615688 148.845314 
L 163.372188 139.938645 
L 182.128688 137.367647 
L 200.885188 138.653146 
L 219.641687 135.255757 
L 238.398188 134.062079 
L 257.154687 131.491082 
L 275.911188 131.858367 
L 294.667688 128.460978 
L 313.424188 132.225653 
L 332.180688 127.175479 
L 350.937187 127.267301 
L 369.693688 120.931629 
L 388.450187 121.941663 
L 407.206688 122.308949 
L 425.963188 128.277335 
L 444.719688 128.369157 
L 463.476188 128.920085 
L 482.232687 128.369157 
L 500.989188 133.602973 
L 519.745687 136.724898 
L 538.502188 137.413558 
" clip-path="url(#peef04b660a)" style="fill: none; stroke-dasharray: 5.55,2.4; stroke-dashoffset: 0; stroke: #1565c0; stroke-opacity: 0.5; stroke-width: 1.5"/>
   </g>
   <g id="patch_3">
    <path d="M 46.144063 313.84825 
L 46.144063 38.38425 
" style="fill: none; stroke: #000000; stroke-width: 0.8; stroke-linejoin: miter; stroke-linecap: square"/>
   </g>
   <g id="patch_4">
    <path d="M 46.144063 313.84825 
L 561.947813 313.84825 
" style="fill: none; stroke: #000000; stroke-width: 0.8; stroke-linejoin: miter; stroke-linecap: square"/>
   </g>
   <g id="text_15">
    <!-- Last authorship in Ghanaian international collaborations -->
    <g transform="translate(115.817031 17.391562) scale(0.14 -0.14)">
     <defs>
      <path id="Arial-BoldMT-4c" d="M 491 0 
L 491 4544 
L 1416 4544 
L 1416 772 
L 3716 772 
L 3716 0 
L 491 0 
z
" transform="scale(0.015625)"/>
      <path id="Arial-BoldMT-61" d="M 1116 2306 
L 319 2450 
Q 453 2931 781 3162 
Q 1109 3394 1756 3394 
Q 2344 3394 2631 3255 
Q 2919 3116 3036 2902 
Q 3153 2688 3153 2116 
L 3144 1091 
Q 3144 653 3186 445 
Q 3228 238 3344 0 
L 2475 0 
Q 2441 88 2391 259 
Q 2369 338 2359 363 
Q 2134 144 1878 34 
Q 1622 -75 1331 -75 
Q 819 -75 523 203 
Q 228 481 228 906 
Q 228 1188 362 1408 
Q 497 1628 739 1745 
Q 981 1863 1438 1950 
Q 2053 2066 2291 2166 
L 2291 2253 
Q 2291 2506 2166 2614 
Q 2041 2722 1694 2722 
Q 1459 2722 1328 2630 
Q 1197 2538 1116 2306 
z
M 2291 1594 
Q 2122 1538 1756 1459 
Q 1391 1381 1278 1306 
Q 1106 1184 1106 997 
Q 1106 813 1243 678 
Q 1381 544 1594 544 
Q 1831 544 2047 700 
Q 2206 819 2256 991 
Q 2291 1103 2291 1419 
L 2291 1594 
z
" transform="scale(0.015625)"/>
      <path id="Arial-BoldMT-73" d="M 150 947 
L 1031 1081 
Q 1088 825 1259 692 
Q 1431 559 1741 559 
Q 2081 559 2253 684 
Q 2369 772 2369 919 
Q 2369 1019 2306 1084 
Q 2241 1147 2013 1200 
Q 950 1434 666 1628 
Q 272 1897 272 2375 
Q 272 2806 612 3100 
Q 953 3394 1669 3394 
Q 2350 3394 2681 3172 
Q 3013 2950 3138 2516 
L 2309 2363 
Q 2256 2556 2107 2659 
Q 1959 2763 1684 2763 
Q 1338 2763 1188 2666 
Q 1088 2597 1088 2488 
Q 1088 2394 1175 2328 
Q 1294 2241 1995 2081 
Q 2697 1922 2975 1691 
Q 3250 1456 3250 1038 
Q 3250 581 2869 253 
Q 2488 -75 1741 -75 
Q 1063 -75 667 200 
Q 272 475 150 947 
z
" transform="scale(0.015625)"/>
      <path id="Arial-BoldMT-74" d="M 1981 3319 
L 1981 2619 
L 1381 2619 
L 1381 1281 
Q 1381 875 1398 808 
Q 1416 741 1477 697 
Q 1538 653 1625 653 
Q 1747 653 1978 738 
L 2053 56 
Q 1747 -75 1359 -75 
Q 1122 -75 931 4 
Q 741 84 652 211 
Q 563 338 528 553 
Q 500 706 500 1172 
L 500 2619 
L 97 2619 
L 97 3319 
L 500 3319 
L 500 3978 
L 1381 4491 
L 1381 3319 
L 1981 3319 
z
" transform="scale(0.015625)"/>
      <path id="Arial-BoldMT-20" transform="scale(0.015625)"/>
      <path id="Arial-BoldMT-75" d="M 2644 0 
L 2644 497 
Q 2463 231 2167 78 
Q 1872 -75 1544 -75 
Q 1209 -75 943 72 
Q 678 219 559 484 
Q 441 750 441 1219 
L 441 3319 
L 1319 3319 
L 1319 1794 
Q 1319 1094 1367 936 
Q 1416 778 1544 686 
Q 1672 594 1869 594 
Q 2094 594 2272 717 
Q 2450 841 2515 1023 
Q 2581 1206 2581 1919 
L 2581 3319 
L 3459 3319 
L 3459 0 
L 2644 0 
z
" transform="scale(0.015625)"/>
      <path id="Arial-BoldMT-68" d="M 1334 4581 
L 1334 2897 
Q 1759 3394 2350 3394 
Q 2653 3394 2897 3281 
Q 3141 3169 3264 2994 
Q 3388 2819 3433 2606 
Q 3478 2394 3478 1947 
L 3478 0 
L 2600 0 
L 2600 1753 
Q 2600 2275 2550 2415 
Q 2500 2556 2373 2639 
Q 2247 2722 2056 2722 
Q 1838 2722 1666 2615 
Q 1494 2509 1414 2295 
Q 1334 2081 1334 1663 
L 1334 0 
L 456 0 
L 456 4581 
L 1334 4581 
z
" transform="scale(0.015625)"/>
      <path id="Arial-BoldMT-6f" d="M 256 1706 
Q 256 2144 472 2553 
Q 688 2963 1083 3178 
Q 1478 3394 1966 3394 
Q 2719 3394 3200 2905 
Q 3681 2416 3681 1669 
Q 3681 916 3195 420 
Q 2709 -75 1972 -75 
Q 1516 -75 1102 131 
Q 688 338 472 736 
Q 256 1134 256 1706 
z
M 1156 1659 
Q 1156 1166 1390 903 
Q 1625 641 1969 641 
Q 2313 641 2545 903 
Q 2778 1166 2778 1666 
Q 2778 2153 2545 2415 
Q 2313 2678 1969 2678 
Q 1625 2678 1390 2415 
Q 1156 2153 1156 1659 
z
" transform="scale(0.015625)"/>
      <path id="Arial-BoldMT-72" d="M 1300 0 
L 422 0 
L 422 3319 
L 1238 3319 
L 1238 2847 
Q 1447 3181 1614 3287 
Q 1781 3394 1994 3394 
Q 2294 3394 2572 3228 
L 2300 2463 
Q 2078 2606 1888 2606 
Q 1703 2606 1575 2504 
Q 1447 2403 1373 2137 
Q 1300 1872 1300 1025 
L 1300 0 
z
" transform="scale(0.015625)"/>
      <path id="Arial-BoldMT-69" d="M 459 3769 
L 459 4581 
L 1338 4581 
L 1338 3769 
L 459 3769 
z
M 459 0 
L 459 3319 
L 1338 3319 
L 1338 0 
L 459 0 
z
" transform="scale(0.015625)"/>
      <path id="Arial-BoldMT-70" d="M 434 3319 
L 1253 3319 
L 1253 2831 
Q 1413 3081 1684 3237 
Q 1956 3394 2288 3394 
Q 2866 3394 3269 2941 
Q 3672 2488 3672 1678 
Q 3672 847 3265 386 
Q 2859 -75 2281 -75 
Q 2006 -75 1782 34 
Q 1559 144 1313 409 
L 1313 -1263 
L 434 -1263 
L 434 3319 
z
M 1303 1716 
Q 1303 1156 1525 889 
Q 1747 622 2066 622 
Q 2372 622 2575 867 
Q 2778 1113 2778 1672 
Q 2778 2194 2568 2447 
Q 2359 2700 2050 2700 
Q 1728 2700 1515 2451 
Q 1303 2203 1303 1716 
z
" transform="scale(0.015625)"/>
      <path id="Arial-BoldMT-6e" d="M 3478 0 
L 2600 0 
L 2600 1694 
Q 2600 2231 2544 2389 
Q 2488 2547 2361 2634 
Q 2234 2722 2056 2722 
Q 1828 2722 1647 2597 
Q 1466 2472 1398 2265 
Q 1331 2059 1331 1503 
L 1331 0 
L 453 0 
L 453 3319 
L 1269 3319 
L 1269 2831 
Q 1703 3394 2363 3394 
Q 2653 3394 2893 3289 
Q 3134 3184 3257 3021 
Q 3381 2859 3429 2653 
Q 3478 2447 3478 2063 
L 3478 0 
z
" transform="scale(0.015625)"/>
      <path id="Arial-BoldMT-47" d="M 2597 1684 
L 2597 2456 
L 4591 2456 
L 4591 631 
Q 4300 350 3748 136 
Q 3197 -78 2631 -78 
Q 1913 -78 1378 223 
Q 844 525 575 1086 
Q 306 1647 306 2306 
Q 306 3022 606 3578 
Q 906 4134 1484 4431 
Q 1925 4659 2581 4659 
Q 3434 4659 3914 4301 
Q 4394 3944 4531 3313 
L 3613 3141 
Q 3516 3478 3248 3673 
Q 2981 3869 2581 3869 
Q 1975 3869 1617 3484 
Q 1259 3100 1259 2344 
Q 1259 1528 1621 1120 
Q 1984 713 2572 713 
Q 2863 713 3155 827 
Q 3447 941 3656 1103 
L 3656 1684 
L 2597 1684 
z
" transform="scale(0.015625)"/>
      <path id="Arial-BoldMT-65" d="M 2381 1056 
L 3256 909 
Q 3088 428 2723 176 
Q 2359 -75 1813 -75 
Q 947 -75 531 491 
Q 203 944 203 1634 
Q 203 2459 634 2926 
Q 1066 3394 1725 3394 
Q 2466 3394 2894 2905 
Q 3322 2416 3303 1406 
L 1103 1406 
Q 1113 1016 1316 798 
Q 1519 581 1822 581 
Q 2028 581 2168 693 
Q 2309 806 2381 1056 
z
M 2431 1944 
Q 2422 2325 2234 2523 
Q 2047 2722 1778 2722 
Q 1491 2722 1303 2513 
Q 1116 2303 1119 1944 
L 2431 1944 
z
" transform="scale(0.015625)"/>
      <path id="Arial-BoldMT-6c" d="M 459 0 
L 459 4581 
L 1338 4581 
L 1338 0 
L 459 0 
z
" transform="scale(0.015625)"/>
      <path id="Arial-BoldMT-63" d="M 3353 2338 
L 2488 2181 
Q 2444 2441 2289 2572 
Q 2134 2703 1888 2703 
Q 1559 2703 1364 2476 
Q 1169 2250 1169 1719 
Q 1169 1128 1367 884 
Q 1566 641 1900 641 
Q 2150 641 2309 783 
Q 2469 925 2534 1272 
L 3397 1125 
Q 3263 531 2881 228 
Q 2500 -75 1859 -75 
Q 1131 -75 698 384 
Q 266 844 266 1656 
Q 266 2478 700 2936 
Q 1134 3394 1875 3394 
Q 2481 3394 2839 3133 
Q 3197 2872 3353 2338 
z
" transform="scale(0.015625)"/>
      <path id="Arial-BoldMT-62" d="M 422 0 
L 422 4581 
L 1300 4581 
L 1300 2931 
Q 1706 3394 2263 3394 
Q 2869 3394 3266 2955 
Q 3663 2516 3663 1694 
Q 3663 844 3258 384 
Q 2853 -75 2275 -75 
Q 1991 -75 1714 67 
Q 1438 209 1238 488 
L 1238 0 
L 422 0 
z
M 1294 1731 
Q 1294 1216 1456 969 
Q 1684 619 2063 619 
Q 2353 619 2558 867 
Q 2763 1116 2763 1650 
Q 2763 2219 2556 2470 
Q 2350 2722 2028 2722 
Q 1713 2722 1503 2476 
Q 1294 2231 1294 1731 
z
" transform="scale(0.015625)"/>
     </defs>
     <use xlink:href="#Arial-BoldMT-4c"/>
     <use xlink:href="#Arial-BoldMT-61" transform="translate(61.083984 0)"/>
     <use xlink:href="#Arial-BoldMT-73" transform="translate(116.699219 0)"/>
     <use xlink:href="#Arial-BoldMT-74" transform="translate(172.314453 0)"/>
     <use xlink:href="#Arial-BoldMT-20" transform="translate(205.615234 0)"/>
     <use xlink:href="#Arial-BoldMT-61" transform="translate(233.398438 0)"/>
     <use xlink:href="#Arial-BoldMT-75" transform="translate(289.013672 0)"/>
     <use xlink:href="#Arial-BoldMT-74" transform="translate(350.097656 0)"/>
     <use xlink:href="#Arial-BoldMT-68" transform="translate(383.398438 0)"/>
     <use xlink:href="#Arial-BoldMT-6f" transform="translate(444.482422 0)"/>
     <use xlink:href="#Arial-BoldMT-72" transform="translate(505.566406 0)"/>
     <use xlink:href="#Arial-BoldMT-73" transform="translate(544.482422 0)"/>
     <use xlink:href="#Arial-BoldMT-68" transform="translate(600.097656 0)"/>
     <use xlink:href="#Arial-BoldMT-69" transform="translate(661.181641 0)"/>
     <use xlink:href="#Arial-BoldMT-70" transform="translate(688.964844 0)"/>
     <use xlink:href="#Arial-BoldMT-20" transform="translate(750.048828 0)"/>
     <use xlink:href="#Arial-BoldMT-69" transform="translate(777.832031 0)"/>
     <use xlink:href="#Arial-BoldMT-6e" transform="translate(805.615234 0)"/>
     <use xlink:href="#Arial-BoldMT-20" transform="translate(866.699219 0)"/>
     <use xlink:href="#Arial-BoldMT-47" transform="translate(894.482422 0)"/>
     <use xlink:href="#Arial-BoldMT-68" transform="translate(972.265625 0)"/>
     <use xlink:href="#Arial-BoldMT-61" transform="translate(1033.349609 0)"/>
     <use xlink:href="#Arial-BoldMT-6e" transform="translate(1088.964844 0)"/>
     <use xlink:href="#Arial-BoldMT-61" transform="translate(1150.048828 0)"/>
     <use xlink:href="#Arial-BoldMT-69" transform="translate(1205.664062 0)"/>
     <use xlink:href="#Arial-BoldMT-61" transform="translate(1233.447266 0)"/>
     <use xlink:href="#Arial-BoldMT-6e" transform="translate(1289.0625 0)"/>
     <use xlink:href="#Arial-BoldMT-20" transform="translate(1350.146484 0)"/>
     <use xlink:href="#Arial-BoldMT-69" transform="translate(1377.929688 0)"/>
     <use xlink:href="#Arial-BoldMT-6e" transform="translate(1405.712891 0)"/>
     <use xlink:href="#Arial-BoldMT-74" transform="translate(1466.796875 0)"/>
     <use xlink:href="#Arial-BoldMT-65" transform="translate(1500.097656 0)"/>
     <use xlink:href="#Arial-BoldMT-72" transform="translate(1555.712891 0)"/>
     <use xlink:href="#Arial-BoldMT-6e" transform="translate(1594.628906 0)"/>
     <use xlink:href="#Arial-BoldMT-61" transform="translate(1655.712891 0)"/>
     <use xlink:href="#Arial-BoldMT-74" transform="translate(1711.328125 0)"/>
     <use xlink:href="#Arial-BoldMT-69" transform="translate(1744.628906 0)"/>
     <use xlink:href="#Arial-BoldMT-6f" transform="translate(1772.412109 0)"/>
     <use xlink:href="#Arial-BoldMT-6e" transform="translate(1833.496094 0)"/>
     <use xlink:href="#Arial-BoldMT-61" transform="translate(1894.580078 0)"/>
     <use xlink:href="#Arial-BoldMT-6c" transform="translate(1950.195312 0)"/>
     <use xlink:href="#Arial-BoldMT-20" transform="translate(1977.978516 0)"/>
     <use xlink:href="#Arial-BoldMT-63" transform="translate(2005.761719 0)"/>
     <use xlink:href="#Arial-BoldMT-6f" transform="translate(2061.376953 0)"/>
     <use xlink:href="#Arial-BoldMT-6c" transform="translate(2122.460938 0)"/>
     <use xlink:href="#Arial-BoldMT-6c" transform="translate(2150.244141 0)"/>
     <use xlink:href="#Arial-BoldMT-61" transform="translate(2178.027344 0)"/>
     <use xlink:href="#Arial-BoldMT-62" transform="translate(2233.642578 0)"/>
     <use xlink:href="#Arial-BoldMT-6f" transform="translate(2294.726562 0)"/>
     <use xlink:href="#Arial-BoldMT-72" transform="translate(2355.810547 0)"/>
     <use xlink:href="#Arial-BoldMT-61" transform="translate(2394.726562 0)"/>
     <use xlink:href="#Arial-BoldMT-74" transform="translate(2450.341797 0)"/>
     <use xlink:href="#Arial-BoldMT-69" transform="translate(2483.642578 0)"/>
     <use xlink:href="#Arial-BoldMT-6f" transform="translate(2511.425781 0)"/>
     <use xlink:href="#Arial-BoldMT-6e" transform="translate(2572.509766 0)"/>
     <use xlink:href="#Arial-BoldMT-73" transform="translate(2633.59375 0)"/>
    </g>
    <!-- by affiliation category, 2000-2025 -->
    <g transform="translate(194.859062 32.38425) scale(0.14 -0.14)">
     <defs>
      <path id="Arial-BoldMT-79" d="M 44 3319 
L 978 3319 
L 1772 963 
L 2547 3319 
L 3456 3319 
L 2284 125 
L 2075 -453 
Q 1959 -744 1854 -897 
Q 1750 -1050 1614 -1145 
Q 1478 -1241 1279 -1294 
Q 1081 -1347 831 -1347 
Q 578 -1347 334 -1294 
L 256 -606 
Q 463 -647 628 -647 
Q 934 -647 1081 -467 
Q 1228 -288 1306 -9 
L 44 3319 
z
" transform="scale(0.015625)"/>
      <path id="Arial-BoldMT-66" d="M 75 3319 
L 563 3319 
L 563 3569 
Q 563 3988 652 4194 
Q 741 4400 980 4529 
Q 1219 4659 1584 4659 
Q 1959 4659 2319 4547 
L 2200 3934 
Q 1991 3984 1797 3984 
Q 1606 3984 1523 3895 
Q 1441 3806 1441 3553 
L 1441 3319 
L 2097 3319 
L 2097 2628 
L 1441 2628 
L 1441 0 
L 563 0 
L 563 2628 
L 75 2628 
L 75 3319 
z
" transform="scale(0.015625)"/>
      <path id="Arial-BoldMT-67" d="M 378 -219 
L 1381 -341 
Q 1406 -516 1497 -581 
Q 1622 -675 1891 -675 
Q 2234 -675 2406 -572 
Q 2522 -503 2581 -350 
Q 2622 -241 2622 53 
L 2622 538 
Q 2228 0 1628 0 
Q 959 0 569 566 
Q 263 1013 263 1678 
Q 263 2513 664 2953 
Q 1066 3394 1663 3394 
Q 2278 3394 2678 2853 
L 2678 3319 
L 3500 3319 
L 3500 341 
Q 3500 -247 3403 -537 
Q 3306 -828 3131 -993 
Q 2956 -1159 2664 -1253 
Q 2372 -1347 1925 -1347 
Q 1081 -1347 728 -1058 
Q 375 -769 375 -325 
Q 375 -281 378 -219 
z
M 1163 1728 
Q 1163 1200 1367 954 
Q 1572 709 1872 709 
Q 2194 709 2416 961 
Q 2638 1213 2638 1706 
Q 2638 2222 2425 2472 
Q 2213 2722 1888 2722 
Q 1572 2722 1367 2476 
Q 1163 2231 1163 1728 
z
" transform="scale(0.015625)"/>
      <path id="Arial-BoldMT-2c" d="M 438 878 
L 1316 878 
L 1316 250 
Q 1316 -131 1250 -351 
Q 1184 -572 1001 -747 
Q 819 -922 538 -1022 
L 366 -659 
Q 631 -572 743 -419 
Q 856 -266 863 0 
L 438 0 
L 438 878 
z
" transform="scale(0.015625)"/>
      <path id="Arial-BoldMT-32" d="M 3238 816 
L 3238 0 
L 159 0 
Q 209 463 459 877 
Q 709 1291 1447 1975 
Q 2041 2528 2175 2725 
Q 2356 2997 2356 3263 
Q 2356 3556 2198 3714 
Q 2041 3872 1763 3872 
Q 1488 3872 1325 3706 
Q 1163 3541 1138 3156 
L 263 3244 
Q 341 3969 753 4284 
Q 1166 4600 1784 4600 
Q 2463 4600 2850 4234 
Q 3238 3869 3238 3325 
Q 3238 3016 3127 2736 
Q 3016 2456 2775 2150 
Q 2616 1947 2200 1565 
Q 1784 1184 1673 1059 
Q 1563 934 1494 816 
L 3238 816 
z
" transform="scale(0.015625)"/>
      <path id="Arial-BoldMT-30" d="M 1756 4600 
Q 2422 4600 2797 4125 
Q 3244 3563 3244 2259 
Q 3244 959 2794 391 
Q 2422 -78 1756 -78 
Q 1088 -78 678 436 
Q 269 950 269 2269 
Q 269 3563 719 4131 
Q 1091 4600 1756 4600 
z
M 1756 3872 
Q 1597 3872 1472 3770 
Q 1347 3669 1278 3406 
Q 1188 3066 1188 2259 
Q 1188 1453 1269 1151 
Q 1350 850 1473 750 
Q 1597 650 1756 650 
Q 1916 650 2041 751 
Q 2166 853 2234 1116 
Q 2325 1453 2325 2259 
Q 2325 3066 2244 3367 
Q 2163 3669 2039 3770 
Q 1916 3872 1756 3872 
z
" transform="scale(0.015625)"/>
      <path id="Arial-BoldMT-2d" d="M 359 1222 
L 359 2100 
L 2084 2100 
L 2084 1222 
L 359 1222 
z
" transform="scale(0.015625)"/>
      <path id="Arial-BoldMT-35" d="M 284 1178 
L 1159 1269 
Q 1197 972 1381 798 
Q 1566 625 1806 625 
Q 2081 625 2272 848 
Q 2463 1072 2463 1522 
Q 2463 1944 2273 2155 
Q 2084 2366 1781 2366 
Q 1403 2366 1103 2031 
L 391 2134 
L 841 4519 
L 3163 4519 
L 3163 3697 
L 1506 3697 
L 1369 2919 
Q 1663 3066 1969 3066 
Q 2553 3066 2959 2641 
Q 3366 2216 3366 1538 
Q 3366 972 3038 528 
Q 2591 -78 1797 -78 
Q 1163 -78 763 262 
Q 363 603 284 1178 
z
" transform="scale(0.015625)"/>
     </defs>
     <use xlink:href="#Arial-BoldMT-62"/>
     <use xlink:href="#Arial-BoldMT-79" transform="translate(61.083984 0)"/>
     <use xlink:href="#Arial-BoldMT-20" transform="translate(116.699219 0)"/>
     <use xlink:href="#Arial-BoldMT-61" transform="translate(144.482422 0)"/>
     <use xlink:href="#Arial-BoldMT-66" transform="translate(200.097656 0)"/>
     <use xlink:href="#Arial-BoldMT-66" transform="translate(233.398438 0)"/>
     <use xlink:href="#Arial-BoldMT-69" transform="translate(266.699219 0)"/>
     <use xlink:href="#Arial-BoldMT-6c" transform="translate(294.482422 0)"/>
     <use xlink:href="#Arial-BoldMT-69" transform="translate(322.265625 0)"/>
     <use xlink:href="#Arial-BoldMT-61" transform="translate(350.048828 0)"/>
     <use xlink:href="#Arial-BoldMT-74" transform="translate(405.664062 0)"/>
     <use xlink:href="#Arial-BoldMT-69" transform="translate(438.964844 0)"/>
     <use xlink:href="#Arial-BoldMT-6f" transform="translate(466.748047 0)"/>
     <use xlink:href="#Arial-BoldMT-6e" transform="translate(527.832031 0)"/>
     <use xlink:href="#Arial-BoldMT-20" transform="translate(588.916016 0)"/>
     <use xlink:href="#Arial-BoldMT-63" transform="translate(616.699219 0)"/>
     <use xlink:href="#Arial-BoldMT-61" transform="translate(672.314453 0)"/>
     <use xlink:href="#Arial-BoldMT-74" transform="translate(727.929688 0)"/>
     <use xlink:href="#Arial-BoldMT-65" transform="translate(761.230469 0)"/>
     <use xlink:href="#Arial-BoldMT-67" transform="translate(816.845703 0)"/>
     <use xlink:href="#Arial-BoldMT-6f" transform="translate(877.929688 0)"/>
     <use xlink:href="#Arial-BoldMT-72" transform="translate(939.013672 0)"/>
     <use xlink:href="#Arial-BoldMT-79" transform="translate(977.929688 0)"/>
     <use xlink:href="#Arial-BoldMT-2c" transform="translate(1026.169922 0)"/>
     <use xlink:href="#Arial-BoldMT-20" transform="translate(1053.953125 0)"/>
     <use xlink:href="#Arial-BoldMT-32" transform="translate(1081.736328 0)"/>
     <use xlink:href="#Arial-BoldMT-30" transform="translate(1137.351562 0)"/>
     <use xlink:href="#Arial-BoldMT-30" transform="translate(1192.966797 0)"/>
     <use xlink:href="#Arial-BoldMT-30" transform="translate(1248.582031 0)"/>
     <use xlink:href="#Arial-BoldMT-2d" transform="translate(1304.197266 0)"/>
     <use xlink:href="#Arial-BoldMT-32" transform="translate(1337.498047 0)"/>
     <use xlink:href="#Arial-BoldMT-30" transform="translate(1393.113281 0)"/>
     <use xlink:href="#Arial-BoldMT-32" transform="translate(1448.728516 0)"/>
     <use xlink:href="#Arial-BoldMT-35" transform="translate(1504.34375 0)"/>
    </g>
   </g>
   <g id="legend_1">
    <g id="patch_5">
     <path d="M 468.312656 83.776594 
L 555.647812 83.776594 
Q 557.447812 83.776594 557.447812 81.976594 
L 557.447812 44.68425 
Q 557.447812 42.88425 555.647812 42.88425 
L 468.312656 42.88425 
Q 466.512656 42.88425 466.512656 44.68425 
L 466.512656 81.976594 
Q 466.512656 83.776594 468.312656 83.776594 
z
" style="fill: #ffffff; opacity: 0.8; stroke: #cccccc; stroke-linejoin: miter"/>
    </g>
    <g id="line2d_25">
     <path d="M 470.112656 49.776281 
L 479.112656 49.776281 
L 488.112656 49.776281 
" style="fill: none; stroke: #2e7d32; stroke-width: 2; stroke-linecap: square"/>
     <g>
      <use xlink:href="#meb11ed0249" x="479.112656" y="49.776281" style="fill: #2e7d32; stroke: #2e7d32"/>
     </g>
    </g>
    <g id="text_16">
     <!-- Ghanaian -->
     <g transform="translate(495.312656 52.926281) scale(0.09 -0.09)">
      <defs>
       <path id="ArialMT-47" d="M 2638 1797 
L 2638 2334 
L 4578 2338 
L 4578 638 
Q 4131 281 3656 101 
Q 3181 -78 2681 -78 
Q 2006 -78 1454 211 
Q 903 500 622 1047 
Q 341 1594 341 2269 
Q 341 2938 620 3517 
Q 900 4097 1425 4378 
Q 1950 4659 2634 4659 
Q 3131 4659 3532 4498 
Q 3934 4338 4162 4050 
Q 4391 3763 4509 3300 
L 3963 3150 
Q 3859 3500 3706 3700 
Q 3553 3900 3268 4020 
Q 2984 4141 2638 4141 
Q 2222 4141 1919 4014 
Q 1616 3888 1430 3681 
Q 1244 3475 1141 3228 
Q 966 2803 966 2306 
Q 966 1694 1177 1281 
Q 1388 869 1791 669 
Q 2194 469 2647 469 
Q 3041 469 3416 620 
Q 3791 772 3984 944 
L 3984 1797 
L 2638 1797 
z
" transform="scale(0.015625)"/>
       <path id="ArialMT-68" d="M 422 0 
L 422 4581 
L 984 4581 
L 984 2938 
Q 1378 3394 1978 3394 
Q 2347 3394 2619 3248 
Q 2891 3103 3008 2847 
Q 3125 2591 3125 2103 
L 3125 0 
L 2563 0 
L 2563 2103 
Q 2563 2525 2380 2717 
Q 2197 2909 1863 2909 
Q 1613 2909 1392 2779 
Q 1172 2650 1078 2428 
Q 984 2206 984 1816 
L 984 0 
L 422 0 
z
" transform="scale(0.015625)"/>
       <path id="ArialMT-69" d="M 425 3934 
L 425 4581 
L 988 4581 
L 988 3934 
L 425 3934 
z
M 425 0 
L 425 3319 
L 988 3319 
L 988 0 
L 425 0 
z
" transform="scale(0.015625)"/>
      </defs>
      <use xlink:href="#ArialMT-47"/>
      <use xlink:href="#ArialMT-68" transform="translate(77.783203 0)"/>
      <use xlink:href="#ArialMT-61" transform="translate(133.398438 0)"/>
      <use xlink:href="#ArialMT-6e" transform="translate(189.013672 0)"/>
      <use xlink:href="#ArialMT-61" transform="translate(244.628906 0)"/>
      <use xlink:href="#ArialMT-69" transform="translate(300.244141 0)"/>
      <use xlink:href="#ArialMT-61" transform="translate(322.460938 0)"/>
      <use xlink:href="#ArialMT-6e" transform="translate(378.076172 0)"/>
     </g>
    </g>
    <g id="line2d_26">
     <path d="M 470.112656 62.507062 
L 479.112656 62.507062 
L 488.112656 62.507062 
" style="fill: none; stroke: #f9a825; stroke-width: 2; stroke-linecap: square"/>
     <g>
      <use xlink:href="#m4808bcb4e3" x="479.112656" y="62.507062" style="fill: #f9a825; stroke: #f9a825; stroke-linejoin: miter"/>
     </g>
    </g>
    <g id="text_17">
     <!-- Dual-affiliated -->
     <g transform="translate(495.312656 65.657062) scale(0.09 -0.09)">
      <defs>
       <path id="ArialMT-44" d="M 494 0 
L 494 4581 
L 2072 4581 
Q 2606 4581 2888 4516 
Q 3281 4425 3559 4188 
Q 3922 3881 4101 3404 
Q 4281 2928 4281 2316 
Q 4281 1794 4159 1391 
Q 4038 988 3847 723 
Q 3656 459 3429 307 
Q 3203 156 2883 78 
Q 2563 0 2147 0 
L 494 0 
z
M 1100 541 
L 2078 541 
Q 2531 541 2789 625 
Q 3047 709 3200 863 
Q 3416 1078 3536 1442 
Q 3656 1806 3656 2325 
Q 3656 3044 3420 3430 
Q 3184 3816 2847 3947 
Q 2603 4041 2063 4041 
L 1100 4041 
L 1100 541 
z
" transform="scale(0.015625)"/>
       <path id="ArialMT-75" d="M 2597 0 
L 2597 488 
Q 2209 -75 1544 -75 
Q 1250 -75 995 37 
Q 741 150 617 320 
Q 494 491 444 738 
Q 409 903 409 1263 
L 409 3319 
L 972 3319 
L 972 1478 
Q 972 1038 1006 884 
Q 1059 663 1231 536 
Q 1403 409 1656 409 
Q 1909 409 2131 539 
Q 2353 669 2445 892 
Q 2538 1116 2538 1541 
L 2538 3319 
L 3100 3319 
L 3100 0 
L 2597 0 
z
" transform="scale(0.015625)"/>
       <path id="ArialMT-6c" d="M 409 0 
L 409 4581 
L 972 4581 
L 972 0 
L 409 0 
z
" transform="scale(0.015625)"/>
       <path id="ArialMT-2d" d="M 203 1375 
L 203 1941 
L 1931 1941 
L 1931 1375 
L 203 1375 
z
" transform="scale(0.015625)"/>
       <path id="ArialMT-66" d="M 556 0 
L 556 2881 
L 59 2881 
L 59 3319 
L 556 3319 
L 556 3672 
Q 556 4006 616 4169 
Q 697 4388 901 4523 
Q 1106 4659 1475 4659 
Q 1713 4659 2000 4603 
L 1916 4113 
Q 1741 4144 1584 4144 
Q 1328 4144 1222 4034 
Q 1116 3925 1116 3625 
L 1116 3319 
L 1763 3319 
L 1763 2881 
L 1116 2881 
L 1116 0 
L 556 0 
z
" transform="scale(0.015625)"/>
       <path id="ArialMT-64" d="M 2575 0 
L 2575 419 
Q 2259 -75 1647 -75 
Q 1250 -75 917 144 
Q 584 363 401 755 
Q 219 1147 219 1656 
Q 219 2153 384 2558 
Q 550 2963 881 3178 
Q 1213 3394 1622 3394 
Q 1922 3394 2156 3267 
Q 2391 3141 2538 2938 
L 2538 4581 
L 3097 4581 
L 3097 0 
L 2575 0 
z
M 797 1656 
Q 797 1019 1065 703 
Q 1334 388 1700 388 
Q 2069 388 2326 689 
Q 2584 991 2584 1609 
Q 2584 2291 2321 2609 
Q 2059 2928 1675 2928 
Q 1300 2928 1048 2622 
Q 797 2316 797 1656 
z
" transform="scale(0.015625)"/>
      </defs>
      <use xlink:href="#ArialMT-44"/>
      <use xlink:href="#ArialMT-75" transform="translate(72.216797 0)"/>
      <use xlink:href="#ArialMT-61" transform="translate(127.832031 0)"/>
      <use xlink:href="#ArialMT-6c" transform="translate(183.447266 0)"/>
      <use xlink:href="#ArialMT-2d" transform="translate(205.664062 0)"/>
      <use xlink:href="#ArialMT-61" transform="translate(238.964844 0)"/>
      <use xlink:href="#ArialMT-66" transform="translate(294.580078 0)"/>
      <use xlink:href="#ArialMT-66" transform="translate(320.613281 0)"/>
      <use xlink:href="#ArialMT-69" transform="translate(348.396484 0)"/>
      <use xlink:href="#ArialMT-6c" transform="translate(370.613281 0)"/>
      <use xlink:href="#ArialMT-69" transform="translate(392.830078 0)"/>
      <use xlink:href="#ArialMT-61" transform="translate(415.046875 0)"/>
      <use xlink:href="#ArialMT-74" transform="translate(470.662109 0)"/>
      <use xlink:href="#ArialMT-65" transform="translate(498.445312 0)"/>
      <use xlink:href="#ArialMT-64" transform="translate(554.060547 0)"/>
     </g>
    </g>
    <g id="line2d_27">
     <path d="M 470.112656 75.237844 
L 479.112656 75.237844 
L 488.112656 75.237844 
" style="fill: none; stroke: #1565c0; stroke-width: 2; stroke-linecap: square"/>
     <g>
      <use xlink:href="#me2e48949d1" x="479.112656" y="75.237844" style="fill: #1565c0; stroke: #1565c0; stroke-linejoin: miter"/>
     </g>
    </g>
    <g id="text_18">
     <!-- Non-Ghanaian -->
     <g transform="translate(495.312656 78.387844) scale(0.09 -0.09)">
      <defs>
       <path id="ArialMT-4e" d="M 488 0 
L 488 4581 
L 1109 4581 
L 3516 984 
L 3516 4581 
L 4097 4581 
L 4097 0 
L 3475 0 
L 1069 3600 
L 1069 0 
L 488 0 
z
" transform="scale(0.015625)"/>
       <path id="ArialMT-6f" d="M 213 1659 
Q 213 2581 725 3025 
Q 1153 3394 1769 3394 
Q 2453 3394 2887 2945 
Q 3322 2497 3322 1706 
Q 3322 1066 3130 698 
Q 2938 331 2570 128 
Q 2203 -75 1769 -75 
Q 1072 -75 642 372 
Q 213 819 213 1659 
z
M 791 1659 
Q 791 1022 1069 705 
Q 1347 388 1769 388 
Q 2188 388 2466 706 
Q 2744 1025 2744 1678 
Q 2744 2294 2464 2611 
Q 2184 2928 1769 2928 
Q 1347 2928 1069 2612 
Q 791 2297 791 1659 
z
" transform="scale(0.015625)"/>
      </defs>
      <use xlink:href="#ArialMT-4e"/>
      <use xlink:href="#ArialMT-6f" transform="translate(72.216797 0)"/>
      <use xlink:href="#ArialMT-6e" transform="translate(127.832031 0)"/>
      <use xlink:href="#ArialMT-2d" transform="translate(183.447266 0)"/>
      <use xlink:href="#ArialMT-47" transform="translate(216.748047 0)"/>
      <use xlink:href="#ArialMT-68" transform="translate(294.53125 0)"/>
      <use xlink:href="#ArialMT-61" transform="translate(350.146484 0)"/>
      <use xlink:href="#ArialMT-6e" transform="translate(405.761719 0)"/>
      <use xlink:href="#ArialMT-61" transform="translate(461.376953 0)"/>
      <use xlink:href="#ArialMT-69" transform="translate(516.992188 0)"/>
      <use xlink:href="#ArialMT-61" transform="translate(539.208984 0)"/>
      <use xlink:href="#ArialMT-6e" transform="translate(594.824219 0)"/>
     </g>
    </g>
   </g>
  </g>
 </g>
 <defs>
  <clipPath id="peef04b660a">
   <rect x="46.144063" y="38.38425" width="515.80375" height="275.464"/>
  </clipPath>
 </defs>
</svg>
