<?xml version="1.0" encoding="utf-8" standalone="no"?>
<!DOCTYPE svg PUBLIC "-//W3C//DTD SVG 1.1//EN"
  "http://www.w3.org/Graphics/SVG/1.1/DTD/svg11.dtd">
<svg xmlns:xlink="http://www.w3.org/1999/xlink" width="568.88625pt" height="352.196812pt" viewBox="0 0 568.88625 352.196812" xmlns="http://www.w3.org/2000/svg" version="1.1">
 <metadata>
  <rdf:RDF xmlns:dc="http://purl.org/dc/elements/1.1/" xmlns:cc="http://creativecommons.org/ns#" xmlns:rdf="http://www.w3.org/1999/02/22-rdf-syntax-ns#">
   <cc:Work>
    <dc:type rdf:resource="http://purl.org/dc/dcmitype/StillImage"/>
    <dc:date>2026-04-09T22:54:47.368942</dc:date>
    <dc:format>image/svg+xml</dc:format>
    <dc:creator>
     <cc:Agent>
      <dc:title>Matplotlib v3.10.8, https://matplotlib.org/</dc:title>
     </cc:Agent>
    </dc:creator>
   </cc:Work>
  </rdf:RDF>
 </metadata>
 <defs>
  <style type="text/css">*{stroke-linejoin: round; stroke-linecap: butt}</style>
 </defs>
 <g id="figure_1">
  <g id="patch_1">
   <path d="M 0 352.196812 
L 568.88625 352.196812 
L 568.88625 0 
L 0 0 
z
" style="fill: #ffffff"/>
  </g>
  <g id="axes_1">
   <g id="patch_2">
    <path d="M 54.19625 313.877125 
L 561.68625 313.877125 
L 561.68625 38.413125 
L 54.19625 38.413125 
z
" style="fill: #ffffff"/>
   </g>
   <g id="patch_3">
    <path d="M 77.263977 313.877125 
L 91.569545 313.877125 
L 91.569545 305.99156 
L 77.263977 305.99156 
z
" clip-path="url(#p683dcb954c)" style="fill: #616161; stroke: #ffffff; stroke-width: 0.5; stroke-linejoin: miter"/>
   </g>
   <g id="patch_4">
    <path d="M 95.145936 313.877125 
L 109.451504 313.877125 
L 109.451504 304.854219 
L 95.145936 304.854219 
z
" clip-path="url(#p683dcb954c)" style="fill: #616161; stroke: #ffffff; stroke-width: 0.5; stroke-linejoin: miter"/>
   </g>
   <g id="patch_5">
    <path d="M 113.027896 313.877125 
L 127.333463 313.877125 
L 127.333463 304.171815 
L 113.027896 304.171815 
z
" clip-path="url(#p683dcb954c)" style="fill: #616161; stroke: #ffffff; stroke-width: 0.5; stroke-linejoin: miter"/>
   </g>
   <g id="patch_6">
    <path d="M 130.909855 313.877125 
L 145.215422 313.877125 
L 145.215422 300.911437 
L 130.909855 300.911437 
z
" clip-path="url(#p683dcb954c)" style="fill: #616161; stroke: #ffffff; stroke-width: 0.5; stroke-linejoin: miter"/>
   </g>
   <g id="patch_7">
    <path d="M 148.791814 313.877125 
L 163.097381 313.877125 
L 163.097381 300.15321 
L 148.791814 300.15321 
z
" clip-path="url(#p683dcb954c)" style="fill: #616161; stroke: #ffffff; stroke-width: 0.5; stroke-linejoin: miter"/>
   </g>
   <g id="patch_8">
    <path d="M 166.673773 313.877125 
L 180.97934 313.877125 
L 180.97934 299.394982 
L 166.673773 299.394982 
z
" clip-path="url(#p683dcb954c)" style="fill: #616161; stroke: #ffffff; stroke-width: 0.5; stroke-linejoin: miter"/>
   </g>
   <g id="patch_9">
    <path d="M 184.555732 313.877125 
L 198.861299 313.877125 
L 198.861299 297.878528 
L 184.555732 297.878528 
z
" clip-path="url(#p683dcb954c)" style="fill: #616161; stroke: #ffffff; stroke-width: 0.5; stroke-linejoin: miter"/>
   </g>
   <g id="patch_10">
    <path d="M 202.437691 313.877125 
L 216.743258 313.877125 
L 216.743258 293.025873 
L 202.437691 293.025873 
z
" clip-path="url(#p683dcb954c)" style="fill: #616161; stroke: #ffffff; stroke-width: 0.5; stroke-linejoin: miter"/>
   </g>
   <g id="patch_11">
    <path d="M 220.31965 313.877125 
L 234.625218 313.877125 
L 234.625218 291.661063 
L 220.31965 291.661063 
z
" clip-path="url(#p683dcb954c)" style="fill: #616161; stroke: #ffffff; stroke-width: 0.5; stroke-linejoin: miter"/>
   </g>
   <g id="patch_12">
    <path d="M 238.201609 313.877125 
L 252.507177 313.877125 
L 252.507177 291.509418 
L 238.201609 291.509418 
z
" clip-path="url(#p683dcb954c)" style="fill: #616161; stroke: #ffffff; stroke-width: 0.5; stroke-linejoin: miter"/>
   </g>
   <g id="patch_13">
    <path d="M 256.083569 313.877125 
L 270.389136 313.877125 
L 270.389136 285.519422 
L 256.083569 285.519422 
z
" clip-path="url(#p683dcb954c)" style="fill: #616161; stroke: #ffffff; stroke-width: 0.5; stroke-linejoin: miter"/>
   </g>
   <g id="patch_14">
    <path d="M 273.965528 313.877125 
L 288.271095 313.877125 
L 288.271095 284.154612 
L 273.965528 284.154612 
z
" clip-path="url(#p683dcb954c)" style="fill: #616161; stroke: #ffffff; stroke-width: 0.5; stroke-linejoin: miter"/>
   </g>
   <g id="patch_15">
    <path d="M 291.847487 313.877125 
L 306.153054 313.877125 
L 306.153054 276.117402 
L 291.847487 276.117402 
z
" clip-path="url(#p683dcb954c)" style="fill: #616161; stroke: #ffffff; stroke-width: 0.5; stroke-linejoin: miter"/>
   </g>
   <g id="patch_16">
    <path d="M 309.729446 313.877125 
L 324.035013 313.877125 
L 324.035013 269.67247 
L 309.729446 269.67247 
z
" clip-path="url(#p683dcb954c)" style="fill: #616161; stroke: #ffffff; stroke-width: 0.5; stroke-linejoin: miter"/>
   </g>
   <g id="patch_17">
    <path d="M 327.611405 313.877125 
L 341.916972 313.877125 
L 341.916972 262.014374 
L 327.611405 262.014374 
z
" clip-path="url(#p683dcb954c)" style="fill: #616161; stroke: #ffffff; stroke-width: 0.5; stroke-linejoin: miter"/>
   </g>
   <g id="patch_18">
    <path d="M 345.493364 313.877125 
L 359.798931 313.877125 
L 359.798931 251.475013 
L 345.493364 251.475013 
z
" clip-path="url(#p683dcb954c)" style="fill: #616161; stroke: #ffffff; stroke-width: 0.5; stroke-linejoin: miter"/>
   </g>
   <g id="patch_19">
    <path d="M 363.375323 313.877125 
L 377.680891 313.877125 
L 377.680891 247.987167 
L 363.375323 247.987167 
z
" clip-path="url(#p683dcb954c)" style="fill: #616161; stroke: #ffffff; stroke-width: 0.5; stroke-linejoin: miter"/>
   </g>
   <g id="patch_20">
    <path d="M 381.257282 313.877125 
L 395.56285 313.877125 
L 395.56285 241.921349 
L 381.257282 241.921349 
z
" clip-path="url(#p683dcb954c)" style="fill: #616161; stroke: #ffffff; stroke-width: 0.5; stroke-linejoin: miter"/>
   </g>
   <g id="patch_21">
    <path d="M 399.139242 313.877125 
L 413.444809 313.877125 
L 413.444809 227.590851 
L 399.139242 227.590851 
z
" clip-path="url(#p683dcb954c)" style="fill: #616161; stroke: #ffffff; stroke-width: 0.5; stroke-linejoin: miter"/>
   </g>
   <g id="patch_22">
    <path d="M 417.021201 313.877125 
L 431.326768 313.877125 
L 431.326768 207.952763 
L 417.021201 207.952763 
z
" clip-path="url(#p683dcb954c)" style="fill: #616161; stroke: #ffffff; stroke-width: 0.5; stroke-linejoin: miter"/>
   </g>
   <g id="patch_23">
    <path d="M 434.90316 313.877125 
L 449.208727 313.877125 
L 449.208727 159.502034 
L 434.90316 159.502034 
z
" clip-path="url(#p683dcb954c)" style="fill: #616161; stroke: #ffffff; stroke-width: 0.5; stroke-linejoin: miter"/>
   </g>
   <g id="patch_24">
    <path d="M 452.785119 313.877125 
L 467.090686 313.877125 
L 467.090686 155.78672 
L 452.785119 155.78672 
z
" clip-path="url(#p683dcb954c)" style="fill: #616161; stroke: #ffffff; stroke-width: 0.5; stroke-linejoin: miter"/>
   </g>
   <g id="patch_25">
    <path d="M 470.667078 313.877125 
L 484.972645 313.877125 
L 484.972645 135.693695 
L 470.667078 135.693695 
z
" clip-path="url(#p683dcb954c)" style="fill: #616161; stroke: #ffffff; stroke-width: 0.5; stroke-linejoin: miter"/>
   </g>
   <g id="patch_26">
    <path d="M 488.549037 313.877125 
L 502.854604 313.877125 
L 502.854604 128.263067 
L 488.549037 128.263067 
z
" clip-path="url(#p683dcb954c)" style="fill: #616161; stroke: #ffffff; stroke-width: 0.5; stroke-linejoin: miter"/>
   </g>
   <g id="patch_27">
    <path d="M 506.430996 313.877125 
L 520.736564 313.877125 
L 520.736564 108.094219 
L 506.430996 108.094219 
z
" clip-path="url(#p683dcb954c)" style="fill: #616161; stroke: #ffffff; stroke-width: 0.5; stroke-linejoin: miter"/>
   </g>
   <g id="patch_28">
    <path d="M 524.312955 313.877125 
L 538.618523 313.877125 
L 538.618523 51.530458 
L 524.312955 51.530458 
z
" clip-path="url(#p683dcb954c)" style="fill: #616161; stroke: #ffffff; stroke-width: 0.5; stroke-linejoin: miter"/>
   </g>
   <g id="matplotlib.axis_1">
    <g id="xtick_1">
     <g id="line2d_1">
      <defs>
       <path id="m15621f184b" d="M 0 0 
L 0 3.5 
" style="stroke: #000000; stroke-width: 0.8"/>
      </defs>
      <g>
       <use xlink:href="#m15621f184b" x="84.416761" y="313.877125" style="stroke: #000000; stroke-width: 0.8"/>
      </g>
     </g>
     <g id="text_1">
      <!-- 2000 -->
      <g transform="translate(73.294886 328.034937) scale(0.1 -0.1)">
       <defs>
        <path id="ArialMT-32" d="M 3222 541 
L 3222 0 
L 194 0 
Q 188 203 259 391 
Q 375 700 629 1000 
Q 884 1300 1366 1694 
Q 2113 2306 2375 2664 
Q 2638 3022 2638 3341 
Q 2638 3675 2398 3904 
Q 2159 4134 1775 4134 
Q 1369 4134 1125 3890 
Q 881 3647 878 3216 
L 300 3275 
Q 359 3922 746 4261 
Q 1134 4600 1788 4600 
Q 2447 4600 2831 4234 
Q 3216 3869 3216 3328 
Q 3216 3053 3103 2787 
Q 2991 2522 2730 2228 
Q 2469 1934 1863 1422 
Q 1356 997 1212 845 
Q 1069 694 975 541 
L 3222 541 
z
" transform="scale(0.015625)"/>
        <path id="ArialMT-30" d="M 266 2259 
Q 266 3072 433 3567 
Q 600 4063 929 4331 
Q 1259 4600 1759 4600 
Q 2128 4600 2406 4451 
Q 2684 4303 2865 4023 
Q 3047 3744 3150 3342 
Q 3253 2941 3253 2259 
Q 3253 1453 3087 958 
Q 2922 463 2592 192 
Q 2263 -78 1759 -78 
Q 1097 -78 719 397 
Q 266 969 266 2259 
z
M 844 2259 
Q 844 1131 1108 757 
Q 1372 384 1759 384 
Q 2147 384 2411 759 
Q 2675 1134 2675 2259 
Q 2675 3391 2411 3762 
Q 2147 4134 1753 4134 
Q 1366 4134 1134 3806 
Q 844 3388 844 2259 
z
" transform="scale(0.015625)"/>
       </defs>
       <use xlink:href="#ArialMT-32"/>
       <use xlink:href="#ArialMT-30" transform="translate(55.615234 0)"/>
       <use xlink:href="#ArialMT-30" transform="translate(111.230469 0)"/>
       <use xlink:href="#ArialMT-30" transform="translate(166.845703 0)"/>
      </g>
     </g>
    </g>
    <g id="xtick_2">
     <g id="line2d_2">
      <g>
       <use xlink:href="#m15621f184b" x="173.826557" y="313.877125" style="stroke: #000000; stroke-width: 0.8"/>
      </g>
     </g>
     <g id="text_2">
      <!-- 2005 -->
      <g transform="translate(162.704682 328.034937) scale(0.1 -0.1)">
       <defs>
        <path id="ArialMT-35" d="M 266 1200 
L 856 1250 
Q 922 819 1161 601 
Q 1400 384 1738 384 
Q 2144 384 2425 690 
Q 2706 997 2706 1503 
Q 2706 1984 2436 2262 
Q 2166 2541 1728 2541 
Q 1456 2541 1237 2417 
Q 1019 2294 894 2097 
L 366 2166 
L 809 4519 
L 3088 4519 
L 3088 3981 
L 1259 3981 
L 1013 2750 
Q 1425 3038 1878 3038 
Q 2478 3038 2890 2622 
Q 3303 2206 3303 1553 
Q 3303 931 2941 478 
Q 2500 -78 1738 -78 
Q 1113 -78 717 272 
Q 322 622 266 1200 
z
" transform="scale(0.015625)"/>
       </defs>
       <use xlink:href="#ArialMT-32"/>
       <use xlink:href="#ArialMT-30" transform="translate(55.615234 0)"/>
       <use xlink:href="#ArialMT-30" transform="translate(111.230469 0)"/>
       <use xlink:href="#ArialMT-35" transform="translate(166.845703 0)"/>
      </g>
     </g>
    </g>
    <g id="xtick_3">
     <g id="line2d_3">
      <g>
       <use xlink:href="#m15621f184b" x="263.236352" y="313.877125" style="stroke: #000000; stroke-width: 0.8"/>
      </g>
     </g>
     <g id="text_3">
      <!-- 2010 -->
      <g transform="translate(252.114477 328.034937) scale(0.1 -0.1)">
       <defs>
        <path id="ArialMT-31" d="M 2384 0 
L 1822 0 
L 1822 3584 
Q 1619 3391 1289 3197 
Q 959 3003 697 2906 
L 697 3450 
Q 1169 3672 1522 3987 
Q 1875 4303 2022 4600 
L 2384 4600 
L 2384 0 
z
" transform="scale(0.015625)"/>
       </defs>
       <use xlink:href="#ArialMT-32"/>
       <use xlink:href="#ArialMT-30" transform="translate(55.615234 0)"/>
       <use xlink:href="#ArialMT-31" transform="translate(111.230469 0)"/>
       <use xlink:href="#ArialMT-30" transform="translate(166.845703 0)"/>
      </g>
     </g>
    </g>
    <g id="xtick_4">
     <g id="line2d_4">
      <g>
       <use xlink:href="#m15621f184b" x="352.646148" y="313.877125" style="stroke: #000000; stroke-width: 0.8"/>
      </g>
     </g>
     <g id="text_4">
      <!-- 2015 -->
      <g transform="translate(341.524273 328.034937) scale(0.1 -0.1)">
       <use xlink:href="#ArialMT-32"/>
       <use xlink:href="#ArialMT-30" transform="translate(55.615234 0)"/>
       <use xlink:href="#ArialMT-31" transform="translate(111.230469 0)"/>
       <use xlink:href="#ArialMT-35" transform="translate(166.845703 0)"/>
      </g>
     </g>
    </g>
    <g id="xtick_5">
     <g id="line2d_5">
      <g>
       <use xlink:href="#m15621f184b" x="442.055943" y="313.877125" style="stroke: #000000; stroke-width: 0.8"/>
      </g>
     </g>
     <g id="text_5">
      <!-- 2020 -->
      <g transform="translate(430.934068 328.034937) scale(0.1 -0.1)">
       <use xlink:href="#ArialMT-32"/>
       <use xlink:href="#ArialMT-30" transform="translate(55.615234 0)"/>
       <use xlink:href="#ArialMT-32" transform="translate(111.230469 0)"/>
       <use xlink:href="#ArialMT-30" transform="translate(166.845703 0)"/>
      </g>
     </g>
    </g>
    <g id="xtick_6">
     <g id="line2d_6">
      <g>
       <use xlink:href="#m15621f184b" x="531.465739" y="313.877125" style="stroke: #000000; stroke-width: 0.8"/>
      </g>
     </g>
     <g id="text_6">
      <!-- 2025 -->
      <g transform="translate(520.343864 328.034937) scale(0.1 -0.1)">
       <use xlink:href="#ArialMT-32"/>
       <use xlink:href="#ArialMT-30" transform="translate(55.615234 0)"/>
       <use xlink:href="#ArialMT-32" transform="translate(111.230469 0)"/>
       <use xlink:href="#ArialMT-35" transform="translate(166.845703 0)"/>
      </g>
     </g>
    </g>
    <g id="text_7">
     <!-- Year -->
     <g transform="translate(295.815625 342.611812) scale(0.12 -0.12)">
      <defs>
       <path id="ArialMT-59" d="M 1784 0 
L 1784 1941 
L 19 4581 
L 756 4581 
L 1659 3200 
Q 1909 2813 2125 2425 
Q 2331 2784 2625 3234 
L 3513 4581 
L 4219 4581 
L 2391 1941 
L 2391 0 
L 1784 0 
z
" transform="scale(0.015625)"/>
       <path id="ArialMT-65" d="M 2694 1069 
L 3275 997 
Q 3138 488 2766 206 
Q 2394 -75 1816 -75 
Q 1088 -75 661 373 
Q 234 822 234 1631 
Q 234 2469 665 2931 
Q 1097 3394 1784 3394 
Q 2450 3394 2872 2941 
Q 3294 2488 3294 1666 
Q 3294 1616 3291 1516 
L 816 1516 
Q 847 969 1125 678 
Q 1403 388 1819 388 
Q 2128 388 2347 550 
Q 2566 713 2694 1069 
z
M 847 1978 
L 2700 1978 
Q 2663 2397 2488 2606 
Q 2219 2931 1791 2931 
Q 1403 2931 1139 2672 
Q 875 2413 847 1978 
z
" transform="scale(0.015625)"/>
       <path id="ArialMT-61" d="M 2588 409 
Q 2275 144 1986 34 
Q 1697 -75 1366 -75 
Q 819 -75 525 192 
Q 231 459 231 875 
Q 231 1119 342 1320 
Q 453 1522 633 1644 
Q 813 1766 1038 1828 
Q 1203 1872 1538 1913 
Q 2219 1994 2541 2106 
Q 2544 2222 2544 2253 
Q 2544 2597 2384 2738 
Q 2169 2928 1744 2928 
Q 1347 2928 1158 2789 
Q 969 2650 878 2297 
L 328 2372 
Q 403 2725 575 2942 
Q 747 3159 1072 3276 
Q 1397 3394 1825 3394 
Q 2250 3394 2515 3294 
Q 2781 3194 2906 3042 
Q 3031 2891 3081 2659 
Q 3109 2516 3109 2141 
L 3109 1391 
Q 3109 606 3145 398 
Q 3181 191 3288 0 
L 2700 0 
Q 2613 175 2588 409 
z
M 2541 1666 
Q 2234 1541 1622 1453 
Q 1275 1403 1131 1340 
Q 988 1278 909 1158 
Q 831 1038 831 891 
Q 831 666 1001 516 
Q 1172 366 1500 366 
Q 1825 366 2078 508 
Q 2331 650 2450 897 
Q 2541 1088 2541 1459 
L 2541 1666 
z
" transform="scale(0.015625)"/>
       <path id="ArialMT-72" d="M 416 0 
L 416 3319 
L 922 3319 
L 922 2816 
Q 1116 3169 1280 3281 
Q 1444 3394 1641 3394 
Q 1925 3394 2219 3213 
L 2025 2691 
Q 1819 2813 1613 2813 
Q 1428 2813 1281 2702 
Q 1134 2591 1072 2394 
Q 978 2094 978 1738 
L 978 0 
L 416 0 
z
" transform="scale(0.015625)"/>
      </defs>
      <use xlink:href="#ArialMT-59"/>
      <use xlink:href="#ArialMT-65" transform="translate(57.574219 0)"/>
      <use xlink:href="#ArialMT-61" transform="translate(113.189453 0)"/>
      <use xlink:href="#ArialMT-72" transform="translate(168.804688 0)"/>
     </g>
    </g>
   </g>
   <g id="matplotlib.axis_2">
    <g id="ytick_1">
     <g id="line2d_7">
      <defs>
       <path id="mfd3aaac9aa" d="M 0 0 
L -3.5 0 
" style="stroke: #000000; stroke-width: 0.8"/>
      </defs>
      <g>
       <use xlink:href="#mfd3aaac9aa" x="54.19625" y="313.877125" style="stroke: #000000; stroke-width: 0.8"/>
      </g>
     </g>
     <g id="text_8">
      <!-- 0 -->
      <g transform="translate(41.635313 317.456031) scale(0.1 -0.1)">
       <use xlink:href="#ArialMT-30"/>
      </g>
     </g>
    </g>
    <g id="ytick_2">
     <g id="line2d_8">
      <g>
       <use xlink:href="#mfd3aaac9aa" x="54.19625" y="275.965757" style="stroke: #000000; stroke-width: 0.8"/>
      </g>
     </g>
     <g id="text_9">
      <!-- 500 -->
      <g transform="translate(30.513438 279.544663) scale(0.1 -0.1)">
       <use xlink:href="#ArialMT-35"/>
       <use xlink:href="#ArialMT-30" transform="translate(55.615234 0)"/>
       <use xlink:href="#ArialMT-30" transform="translate(111.230469 0)"/>
      </g>
     </g>
    </g>
    <g id="ytick_3">
     <g id="line2d_9">
      <g>
       <use xlink:href="#mfd3aaac9aa" x="54.19625" y="238.054389" style="stroke: #000000; stroke-width: 0.8"/>
      </g>
     </g>
     <g id="text_10">
      <!-- 1,000 -->
      <g transform="translate(22.174375 241.633295) scale(0.1 -0.1)">
       <defs>
        <path id="ArialMT-2c" d="M 569 0 
L 569 641 
L 1209 641 
L 1209 0 
Q 1209 -353 1084 -570 
Q 959 -788 688 -906 
L 531 -666 
Q 709 -588 793 -436 
Q 878 -284 888 0 
L 569 0 
z
" transform="scale(0.015625)"/>
       </defs>
       <use xlink:href="#ArialMT-31"/>
       <use xlink:href="#ArialMT-2c" transform="translate(55.615234 0)"/>
       <use xlink:href="#ArialMT-30" transform="translate(83.398438 0)"/>
       <use xlink:href="#ArialMT-30" transform="translate(139.013672 0)"/>
       <use xlink:href="#ArialMT-30" transform="translate(194.628906 0)"/>
      </g>
     </g>
    </g>
    <g id="ytick_4">
     <g id="line2d_10">
      <g>
       <use xlink:href="#mfd3aaac9aa" x="54.19625" y="200.143021" style="stroke: #000000; stroke-width: 0.8"/>
      </g>
     </g>
     <g id="text_11">
      <!-- 1,500 -->
      <g transform="translate(22.174375 203.721927) scale(0.1 -0.1)">
       <use xlink:href="#ArialMT-31"/>
       <use xlink:href="#ArialMT-2c" transform="translate(55.615234 0)"/>
       <use xlink:href="#ArialMT-35" transform="translate(83.398438 0)"/>
       <use xlink:href="#ArialMT-30" transform="translate(139.013672 0)"/>
       <use xlink:href="#ArialMT-30" transform="translate(194.628906 0)"/>
      </g>
     </g>
    </g>
    <g id="ytick_5">
     <g id="line2d_11">
      <g>
       <use xlink:href="#mfd3aaac9aa" x="54.19625" y="162.231653" style="stroke: #000000; stroke-width: 0.8"/>
      </g>
     </g>
     <g id="text_12">
      <!-- 2,000 -->
      <g transform="translate(22.174375 165.810559) scale(0.1 -0.1)">
       <use xlink:href="#ArialMT-32"/>
       <use xlink:href="#ArialMT-2c" transform="translate(55.615234 0)"/>
       <use xlink:href="#ArialMT-30" transform="translate(83.398438 0)"/>
       <use xlink:href="#ArialMT-30" transform="translate(139.013672 0)"/>
       <use xlink:href="#ArialMT-30" transform="translate(194.628906 0)"/>
      </g>
     </g>
    </g>
    <g id="ytick_6">
     <g id="line2d_12">
      <g>
       <use xlink:href="#mfd3aaac9aa" x="54.19625" y="124.320285" style="stroke: #000000; stroke-width: 0.8"/>
      </g>
     </g>
     <g id="text_13">
      <!-- 2,500 -->
      <g transform="translate(22.174375 127.899191) scale(0.1 -0.1)">
       <use xlink:href="#ArialMT-32"/>
       <use xlink:href="#ArialMT-2c" transform="translate(55.615234 0)"/>
       <use xlink:href="#ArialMT-35" transform="translate(83.398438 0)"/>
       <use xlink:href="#ArialMT-30" transform="translate(139.013672 0)"/>
       <use xlink:href="#ArialMT-30" transform="translate(194.628906 0)"/>
      </g>
     </g>
    </g>
    <g id="ytick_7">
     <g id="line2d_13">
      <g>
       <use xlink:href="#mfd3aaac9aa" x="54.19625" y="86.408917" style="stroke: #000000; stroke-width: 0.8"/>
      </g>
     </g>
     <g id="text_14">
      <!-- 3,000 -->
      <g transform="translate(22.174375 89.987823) scale(0.1 -0.1)">
       <defs>
        <path id="ArialMT-33" d="M 269 1209 
L 831 1284 
Q 928 806 1161 595 
Q 1394 384 1728 384 
Q 2125 384 2398 659 
Q 2672 934 2672 1341 
Q 2672 1728 2419 1979 
Q 2166 2231 1775 2231 
Q 1616 2231 1378 2169 
L 1441 2663 
Q 1497 2656 1531 2656 
Q 1891 2656 2178 2843 
Q 2466 3031 2466 3422 
Q 2466 3731 2256 3934 
Q 2047 4138 1716 4138 
Q 1388 4138 1169 3931 
Q 950 3725 888 3313 
L 325 3413 
Q 428 3978 793 4289 
Q 1159 4600 1703 4600 
Q 2078 4600 2393 4439 
Q 2709 4278 2876 4000 
Q 3044 3722 3044 3409 
Q 3044 3113 2884 2869 
Q 2725 2625 2413 2481 
Q 2819 2388 3044 2092 
Q 3269 1797 3269 1353 
Q 3269 753 2831 336 
Q 2394 -81 1725 -81 
Q 1122 -81 723 278 
Q 325 638 269 1209 
z
" transform="scale(0.015625)"/>
       </defs>
       <use xlink:href="#ArialMT-33"/>
       <use xlink:href="#ArialMT-2c" transform="translate(55.615234 0)"/>
       <use xlink:href="#ArialMT-30" transform="translate(83.398438 0)"/>
       <use xlink:href="#ArialMT-30" transform="translate(139.013672 0)"/>
       <use xlink:href="#ArialMT-30" transform="translate(194.628906 0)"/>
      </g>
     </g>
    </g>
    <g id="ytick_8">
     <g id="line2d_14">
      <g>
       <use xlink:href="#mfd3aaac9aa" x="54.19625" y="48.497549" style="stroke: #000000; stroke-width: 0.8"/>
      </g>
     </g>
     <g id="text_15">
      <!-- 3,500 -->
      <g transform="translate(22.174375 52.076455) scale(0.1 -0.1)">
       <use xlink:href="#ArialMT-33"/>
       <use xlink:href="#ArialMT-2c" transform="translate(55.615234 0)"/>
       <use xlink:href="#ArialMT-35" transform="translate(83.398438 0)"/>
       <use xlink:href="#ArialMT-30" transform="translate(139.013672 0)"/>
       <use xlink:href="#ArialMT-30" transform="translate(194.628906 0)"/>
      </g>
     </g>
    </g>
    <g id="text_16">
     <!-- Number of Publications -->
     <g transform="translate(15.789375 238.172) rotate(-90) scale(0.12 -0.12)">
      <defs>
       <path id="ArialMT-4e" d="M 488 0 
L 488 4581 
L 1109 4581 
L 3516 984 
L 3516 4581 
L 4097 4581 
L 4097 0 
L 3475 0 
L 1069 3600 
L 1069 0 
L 488 0 
z
" transform="scale(0.015625)"/>
       <path id="ArialMT-75" d="M 2597 0 
L 2597 488 
Q 2209 -75 1544 -75 
Q 1250 -75 995 37 
Q 741 150 617 320 
Q 494 491 444 738 
Q 409 903 409 1263 
L 409 3319 
L 972 3319 
L 972 1478 
Q 972 1038 1006 884 
Q 1059 663 1231 536 
Q 1403 409 1656 409 
Q 1909 409 2131 539 
Q 2353 669 2445 892 
Q 2538 1116 2538 1541 
L 2538 3319 
L 3100 3319 
L 3100 0 
L 2597 0 
z
" transform="scale(0.015625)"/>
       <path id="ArialMT-6d" d="M 422 0 
L 422 3319 
L 925 3319 
L 925 2853 
Q 1081 3097 1340 3245 
Q 1600 3394 1931 3394 
Q 2300 3394 2536 3241 
Q 2772 3088 2869 2813 
Q 3263 3394 3894 3394 
Q 4388 3394 4653 3120 
Q 4919 2847 4919 2278 
L 4919 0 
L 4359 0 
L 4359 2091 
Q 4359 2428 4304 2576 
Q 4250 2725 4106 2815 
Q 3963 2906 3769 2906 
Q 3419 2906 3187 2673 
Q 2956 2441 2956 1928 
L 2956 0 
L 2394 0 
L 2394 2156 
Q 2394 2531 2256 2718 
Q 2119 2906 1806 2906 
Q 1569 2906 1367 2781 
Q 1166 2656 1075 2415 
Q 984 2175 984 1722 
L 984 0 
L 422 0 
z
" transform="scale(0.015625)"/>
       <path id="ArialMT-62" d="M 941 0 
L 419 0 
L 419 4581 
L 981 4581 
L 981 2947 
Q 1338 3394 1891 3394 
Q 2197 3394 2470 3270 
Q 2744 3147 2920 2923 
Q 3097 2700 3197 2384 
Q 3297 2069 3297 1709 
Q 3297 856 2875 390 
Q 2453 -75 1863 -75 
Q 1275 -75 941 416 
L 941 0 
z
M 934 1684 
Q 934 1088 1097 822 
Q 1363 388 1816 388 
Q 2184 388 2453 708 
Q 2722 1028 2722 1663 
Q 2722 2313 2464 2622 
Q 2206 2931 1841 2931 
Q 1472 2931 1203 2611 
Q 934 2291 934 1684 
z
" transform="scale(0.015625)"/>
       <path id="ArialMT-20" transform="scale(0.015625)"/>
       <path id="ArialMT-6f" d="M 213 1659 
Q 213 2581 725 3025 
Q 1153 3394 1769 3394 
Q 2453 3394 2887 2945 
Q 3322 2497 3322 1706 
Q 3322 1066 3130 698 
Q 2938 331 2570 128 
Q 2203 -75 1769 -75 
Q 1072 -75 642 372 
Q 213 819 213 1659 
z
M 791 1659 
Q 791 1022 1069 705 
Q 1347 388 1769 388 
Q 2188 388 2466 706 
Q 2744 1025 2744 1678 
Q 2744 2294 2464 2611 
Q 2184 2928 1769 2928 
Q 1347 2928 1069 2612 
Q 791 2297 791 1659 
z
" transform="scale(0.015625)"/>
       <path id="ArialMT-66" d="M 556 0 
L 556 2881 
L 59 2881 
L 59 3319 
L 556 3319 
L 556 3672 
Q 556 4006 616 4169 
Q 697 4388 901 4523 
Q 1106 4659 1475 4659 
Q 1713 4659 2000 4603 
L 1916 4113 
Q 1741 4144 1584 4144 
Q 1328 4144 1222 4034 
Q 1116 3925 1116 3625 
L 1116 3319 
L 1763 3319 
L 1763 2881 
L 1116 2881 
L 1116 0 
L 556 0 
z
" transform="scale(0.015625)"/>
       <path id="ArialMT-50" d="M 494 0 
L 494 4581 
L 2222 4581 
Q 2678 4581 2919 4538 
Q 3256 4481 3484 4323 
Q 3713 4166 3852 3881 
Q 3991 3597 3991 3256 
Q 3991 2672 3619 2267 
Q 3247 1863 2275 1863 
L 1100 1863 
L 1100 0 
L 494 0 
z
M 1100 2403 
L 2284 2403 
Q 2872 2403 3119 2622 
Q 3366 2841 3366 3238 
Q 3366 3525 3220 3729 
Q 3075 3934 2838 4000 
Q 2684 4041 2272 4041 
L 1100 4041 
L 1100 2403 
z
" transform="scale(0.015625)"/>
       <path id="ArialMT-6c" d="M 409 0 
L 409 4581 
L 972 4581 
L 972 0 
L 409 0 
z
" transform="scale(0.015625)"/>
       <path id="ArialMT-69" d="M 425 3934 
L 425 4581 
L 988 4581 
L 988 3934 
L 425 3934 
z
M 425 0 
L 425 3319 
L 988 3319 
L 988 0 
L 425 0 
z
" transform="scale(0.015625)"/>
       <path id="ArialMT-63" d="M 2588 1216 
L 3141 1144 
Q 3050 572 2676 248 
Q 2303 -75 1759 -75 
Q 1078 -75 664 370 
Q 250 816 250 1647 
Q 250 2184 428 2587 
Q 606 2991 970 3192 
Q 1334 3394 1763 3394 
Q 2303 3394 2647 3120 
Q 2991 2847 3088 2344 
L 2541 2259 
Q 2463 2594 2264 2762 
Q 2066 2931 1784 2931 
Q 1359 2931 1093 2626 
Q 828 2322 828 1663 
Q 828 994 1084 691 
Q 1341 388 1753 388 
Q 2084 388 2306 591 
Q 2528 794 2588 1216 
z
" transform="scale(0.015625)"/>
       <path id="ArialMT-74" d="M 1650 503 
L 1731 6 
Q 1494 -44 1306 -44 
Q 1000 -44 831 53 
Q 663 150 594 308 
Q 525 466 525 972 
L 525 2881 
L 113 2881 
L 113 3319 
L 525 3319 
L 525 4141 
L 1084 4478 
L 1084 3319 
L 1650 3319 
L 1650 2881 
L 1084 2881 
L 1084 941 
Q 1084 700 1114 631 
Q 1144 563 1211 522 
Q 1278 481 1403 481 
Q 1497 481 1650 503 
z
" transform="scale(0.015625)"/>
       <path id="ArialMT-6e" d="M 422 0 
L 422 3319 
L 928 3319 
L 928 2847 
Q 1294 3394 1984 3394 
Q 2284 3394 2536 3286 
Q 2788 3178 2913 3003 
Q 3038 2828 3088 2588 
Q 3119 2431 3119 2041 
L 3119 0 
L 2556 0 
L 2556 2019 
Q 2556 2363 2490 2533 
Q 2425 2703 2258 2804 
Q 2091 2906 1866 2906 
Q 1506 2906 1245 2678 
Q 984 2450 984 1813 
L 984 0 
L 422 0 
z
" transform="scale(0.015625)"/>
       <path id="ArialMT-73" d="M 197 991 
L 753 1078 
Q 800 744 1014 566 
Q 1228 388 1613 388 
Q 2000 388 2187 545 
Q 2375 703 2375 916 
Q 2375 1106 2209 1216 
Q 2094 1291 1634 1406 
Q 1016 1563 777 1677 
Q 538 1791 414 1992 
Q 291 2194 291 2438 
Q 291 2659 392 2848 
Q 494 3038 669 3163 
Q 800 3259 1026 3326 
Q 1253 3394 1513 3394 
Q 1903 3394 2198 3281 
Q 2494 3169 2634 2976 
Q 2775 2784 2828 2463 
L 2278 2388 
Q 2241 2644 2061 2787 
Q 1881 2931 1553 2931 
Q 1166 2931 1000 2803 
Q 834 2675 834 2503 
Q 834 2394 903 2306 
Q 972 2216 1119 2156 
Q 1203 2125 1616 2013 
Q 2213 1853 2448 1751 
Q 2684 1650 2818 1456 
Q 2953 1263 2953 975 
Q 2953 694 2789 445 
Q 2625 197 2315 61 
Q 2006 -75 1616 -75 
Q 969 -75 630 194 
Q 291 463 197 991 
z
" transform="scale(0.015625)"/>
      </defs>
      <use xlink:href="#ArialMT-4e"/>
      <use xlink:href="#ArialMT-75" transform="translate(72.216797 0)"/>
      <use xlink:href="#ArialMT-6d" transform="translate(127.832031 0)"/>
      <use xlink:href="#ArialMT-62" transform="translate(211.132812 0)"/>
      <use xlink:href="#ArialMT-65" transform="translate(266.748047 0)"/>
      <use xlink:href="#ArialMT-72" transform="translate(322.363281 0)"/>
      <use xlink:href="#ArialMT-20" transform="translate(355.664062 0)"/>
      <use xlink:href="#ArialMT-6f" transform="translate(383.447266 0)"/>
      <use xlink:href="#ArialMT-66" transform="translate(439.0625 0)"/>
      <use xlink:href="#ArialMT-20" transform="translate(466.845703 0)"/>
      <use xlink:href="#ArialMT-50" transform="translate(494.628906 0)"/>
      <use xlink:href="#ArialMT-75" transform="translate(561.328125 0)"/>
      <use xlink:href="#ArialMT-62" transform="translate(616.943359 0)"/>
      <use xlink:href="#ArialMT-6c" transform="translate(672.558594 0)"/>
      <use xlink:href="#ArialMT-69" transform="translate(694.775391 0)"/>
      <use xlink:href="#ArialMT-63" transform="translate(716.992188 0)"/>
      <use xlink:href="#ArialMT-61" transform="translate(766.992188 0)"/>
      <use xlink:href="#ArialMT-74" transform="translate(822.607422 0)"/>
      <use xlink:href="#ArialMT-69" transform="translate(850.390625 0)"/>
      <use xlink:href="#ArialMT-6f" transform="translate(872.607422 0)"/>
      <use xlink:href="#ArialMT-6e" transform="translate(928.222656 0)"/>
      <use xlink:href="#ArialMT-73" transform="translate(983.837891 0)"/>
     </g>
    </g>
   </g>
   <g id="line2d_15">
    <path d="M 84.416761 306.313198 
L 88.932407 305.7949 
L 93.448053 305.304242 
L 97.9637 304.839135 
L 102.479346 304.397492 
L 106.994992 303.977223 
L 111.510638 303.576239 
L 116.026285 303.192452 
L 120.541931 302.823773 
L 125.057577 302.468113 
L 129.573223 302.123383 
L 134.08887 301.787494 
L 138.604516 301.458359 
L 143.120162 301.133887 
L 147.635808 300.81199 
L 152.151455 300.490579 
L 156.667101 300.167566 
L 161.182747 299.840862 
L 165.698393 299.508377 
L 170.21404 299.168024 
L 174.729686 298.817713 
L 179.245332 298.455356 
L 183.760978 298.078864 
L 188.276625 297.686147 
L 192.792271 297.275118 
L 197.307917 296.843688 
L 201.823563 296.389767 
L 206.33921 295.911266 
L 210.854856 295.406098 
L 215.370502 294.872173 
L 219.886148 294.307403 
L 224.401794 293.709698 
L 228.917441 293.076971 
L 233.433087 292.407131 
L 237.948733 291.698091 
L 242.464379 290.947761 
L 246.980026 290.154053 
L 251.495672 289.314878 
L 256.011318 288.428148 
L 260.526964 287.491772 
L 265.042611 286.503664 
L 269.558257 285.461733 
L 274.073903 284.363891 
L 278.589549 283.20805 
L 283.105196 281.99212 
L 287.620842 280.714013 
L 292.136488 279.371639 
L 296.652134 277.962911 
L 301.167781 276.485739 
L 305.683427 274.938035 
L 310.199073 273.317709 
L 314.714719 271.622674 
L 319.230366 269.850839 
L 323.746012 268.000117 
L 328.261658 266.068419 
L 332.777304 264.053655 
L 337.292951 261.953737 
L 341.808597 259.766577 
L 346.324243 257.490085 
L 350.839889 255.122173 
L 355.355536 252.660752 
L 359.871182 250.103732 
L 364.386828 247.449026 
L 368.902474 244.694545 
L 373.418121 241.838199 
L 377.933767 238.877901 
L 382.449413 235.81156 
L 386.965059 232.637089 
L 391.480706 229.352398 
L 395.996352 225.9554 
L 400.511998 222.444004 
L 405.027644 218.816122 
L 409.54329 215.069666 
L 414.058937 211.202547 
L 418.574583 207.212675 
L 423.090229 203.097963 
L 427.605875 198.85632 
L 432.121522 194.48566 
L 436.637168 189.983892 
L 441.152814 185.348928 
L 445.66846 180.578679 
L 450.184107 175.671056 
L 454.699753 170.623971 
L 459.215399 165.435335 
L 463.731045 160.103059 
L 468.246692 154.625054 
L 472.762338 148.999231 
L 477.277984 143.223502 
L 481.79363 137.295778 
L 486.309277 131.21397 
L 490.824923 124.975989 
L 495.340569 118.579747 
L 499.856215 112.023154 
L 504.371862 105.304123 
L 508.887508 98.420563 
L 513.403154 91.370387 
L 517.9188 84.151505 
L 522.434447 76.761829 
L 526.950093 69.19927 
L 531.465739 61.461739 
" clip-path="url(#p683dcb954c)" style="fill: none; stroke-dasharray: 7.4,3.2; stroke-dashoffset: 0; stroke: #b71c1c; stroke-width: 2"/>
   </g>
   <g id="patch_29">
    <path d="M 54.19625 313.877125 
L 54.19625 38.413125 
" style="fill: none; stroke: #000000; stroke-width: 0.8; stroke-linejoin: miter; stroke-linecap: square"/>
   </g>
   <g id="patch_30">
    <path d="M 54.19625 313.877125 
L 561.68625 313.877125 
" style="fill: none; stroke: #000000; stroke-width: 0.8; stroke-linejoin: miter; stroke-linecap: square"/>
   </g>
   <g id="text_17">
    <!-- International collaborative publications involving Ghanaian -->
    <g transform="translate(111.148281 17.391562) scale(0.14 -0.14)">
     <defs>
      <path id="Arial-BoldMT-49" d="M 438 0 
L 438 4581 
L 1363 4581 
L 1363 0 
L 438 0 
z
" transform="scale(0.015625)"/>
      <path id="Arial-BoldMT-6e" d="M 3478 0 
L 2600 0 
L 2600 1694 
Q 2600 2231 2544 2389 
Q 2488 2547 2361 2634 
Q 2234 2722 2056 2722 
Q 1828 2722 1647 2597 
Q 1466 2472 1398 2265 
Q 1331 2059 1331 1503 
L 1331 0 
L 453 0 
L 453 3319 
L 1269 3319 
L 1269 2831 
Q 1703 3394 2363 3394 
Q 2653 3394 2893 3289 
Q 3134 3184 3257 3021 
Q 3381 2859 3429 2653 
Q 3478 2447 3478 2063 
L 3478 0 
z
" transform="scale(0.015625)"/>
      <path id="Arial-BoldMT-74" d="M 1981 3319 
L 1981 2619 
L 1381 2619 
L 1381 1281 
Q 1381 875 1398 808 
Q 1416 741 1477 697 
Q 1538 653 1625 653 
Q 1747 653 1978 738 
L 2053 56 
Q 1747 -75 1359 -75 
Q 1122 -75 931 4 
Q 741 84 652 211 
Q 563 338 528 553 
Q 500 706 500 1172 
L 500 2619 
L 97 2619 
L 97 3319 
L 500 3319 
L 500 3978 
L 1381 4491 
L 1381 3319 
L 1981 3319 
z
" transform="scale(0.015625)"/>
      <path id="Arial-BoldMT-65" d="M 2381 1056 
L 3256 909 
Q 3088 428 2723 176 
Q 2359 -75 1813 -75 
Q 947 -75 531 491 
Q 203 944 203 1634 
Q 203 2459 634 2926 
Q 1066 3394 1725 3394 
Q 2466 3394 2894 2905 
Q 3322 2416 3303 1406 
L 1103 1406 
Q 1113 1016 1316 798 
Q 1519 581 1822 581 
Q 2028 581 2168 693 
Q 2309 806 2381 1056 
z
M 2431 1944 
Q 2422 2325 2234 2523 
Q 2047 2722 1778 2722 
Q 1491 2722 1303 2513 
Q 1116 2303 1119 1944 
L 2431 1944 
z
" transform="scale(0.015625)"/>
      <path id="Arial-BoldMT-72" d="M 1300 0 
L 422 0 
L 422 3319 
L 1238 3319 
L 1238 2847 
Q 1447 3181 1614 3287 
Q 1781 3394 1994 3394 
Q 2294 3394 2572 3228 
L 2300 2463 
Q 2078 2606 1888 2606 
Q 1703 2606 1575 2504 
Q 1447 2403 1373 2137 
Q 1300 1872 1300 1025 
L 1300 0 
z
" transform="scale(0.015625)"/>
      <path id="Arial-BoldMT-61" d="M 1116 2306 
L 319 2450 
Q 453 2931 781 3162 
Q 1109 3394 1756 3394 
Q 2344 3394 2631 3255 
Q 2919 3116 3036 2902 
Q 3153 2688 3153 2116 
L 3144 1091 
Q 3144 653 3186 445 
Q 3228 238 3344 0 
L 2475 0 
Q 2441 88 2391 259 
Q 2369 338 2359 363 
Q 2134 144 1878 34 
Q 1622 -75 1331 -75 
Q 819 -75 523 203 
Q 228 481 228 906 
Q 228 1188 362 1408 
Q 497 1628 739 1745 
Q 981 1863 1438 1950 
Q 2053 2066 2291 2166 
L 2291 2253 
Q 2291 2506 2166 2614 
Q 2041 2722 1694 2722 
Q 1459 2722 1328 2630 
Q 1197 2538 1116 2306 
z
M 2291 1594 
Q 2122 1538 1756 1459 
Q 1391 1381 1278 1306 
Q 1106 1184 1106 997 
Q 1106 813 1243 678 
Q 1381 544 1594 544 
Q 1831 544 2047 700 
Q 2206 819 2256 991 
Q 2291 1103 2291 1419 
L 2291 1594 
z
" transform="scale(0.015625)"/>
      <path id="Arial-BoldMT-69" d="M 459 3769 
L 459 4581 
L 1338 4581 
L 1338 3769 
L 459 3769 
z
M 459 0 
L 459 3319 
L 1338 3319 
L 1338 0 
L 459 0 
z
" transform="scale(0.015625)"/>
      <path id="Arial-BoldMT-6f" d="M 256 1706 
Q 256 2144 472 2553 
Q 688 2963 1083 3178 
Q 1478 3394 1966 3394 
Q 2719 3394 3200 2905 
Q 3681 2416 3681 1669 
Q 3681 916 3195 420 
Q 2709 -75 1972 -75 
Q 1516 -75 1102 131 
Q 688 338 472 736 
Q 256 1134 256 1706 
z
M 1156 1659 
Q 1156 1166 1390 903 
Q 1625 641 1969 641 
Q 2313 641 2545 903 
Q 2778 1166 2778 1666 
Q 2778 2153 2545 2415 
Q 2313 2678 1969 2678 
Q 1625 2678 1390 2415 
Q 1156 2153 1156 1659 
z
" transform="scale(0.015625)"/>
      <path id="Arial-BoldMT-6c" d="M 459 0 
L 459 4581 
L 1338 4581 
L 1338 0 
L 459 0 
z
" transform="scale(0.015625)"/>
      <path id="Arial-BoldMT-20" transform="scale(0.015625)"/>
      <path id="Arial-BoldMT-63" d="M 3353 2338 
L 2488 2181 
Q 2444 2441 2289 2572 
Q 2134 2703 1888 2703 
Q 1559 2703 1364 2476 
Q 1169 2250 1169 1719 
Q 1169 1128 1367 884 
Q 1566 641 1900 641 
Q 2150 641 2309 783 
Q 2469 925 2534 1272 
L 3397 1125 
Q 3263 531 2881 228 
Q 2500 -75 1859 -75 
Q 1131 -75 698 384 
Q 266 844 266 1656 
Q 266 2478 700 2936 
Q 1134 3394 1875 3394 
Q 2481 3394 2839 3133 
Q 3197 2872 3353 2338 
z
" transform="scale(0.015625)"/>
      <path id="Arial-BoldMT-62" d="M 422 0 
L 422 4581 
L 1300 4581 
L 1300 2931 
Q 1706 3394 2263 3394 
Q 2869 3394 3266 2955 
Q 3663 2516 3663 1694 
Q 3663 844 3258 384 
Q 2853 -75 2275 -75 
Q 1991 -75 1714 67 
Q 1438 209 1238 488 
L 1238 0 
L 422 0 
z
M 1294 1731 
Q 1294 1216 1456 969 
Q 1684 619 2063 619 
Q 2353 619 2558 867 
Q 2763 1116 2763 1650 
Q 2763 2219 2556 2470 
Q 2350 2722 2028 2722 
Q 1713 2722 1503 2476 
Q 1294 2231 1294 1731 
z
" transform="scale(0.015625)"/>
      <path id="Arial-BoldMT-76" d="M 1372 0 
L 34 3319 
L 956 3319 
L 1581 1625 
L 1763 1059 
Q 1834 1275 1853 1344 
Q 1897 1484 1947 1625 
L 2578 3319 
L 3481 3319 
L 2163 0 
L 1372 0 
z
" transform="scale(0.015625)"/>
      <path id="Arial-BoldMT-70" d="M 434 3319 
L 1253 3319 
L 1253 2831 
Q 1413 3081 1684 3237 
Q 1956 3394 2288 3394 
Q 2866 3394 3269 2941 
Q 3672 2488 3672 1678 
Q 3672 847 3265 386 
Q 2859 -75 2281 -75 
Q 2006 -75 1782 34 
Q 1559 144 1313 409 
L 1313 -1263 
L 434 -1263 
L 434 3319 
z
M 1303 1716 
Q 1303 1156 1525 889 
Q 1747 622 2066 622 
Q 2372 622 2575 867 
Q 2778 1113 2778 1672 
Q 2778 2194 2568 2447 
Q 2359 2700 2050 2700 
Q 1728 2700 1515 2451 
Q 1303 2203 1303 1716 
z
" transform="scale(0.015625)"/>
      <path id="Arial-BoldMT-75" d="M 2644 0 
L 2644 497 
Q 2463 231 2167 78 
Q 1872 -75 1544 -75 
Q 1209 -75 943 72 
Q 678 219 559 484 
Q 441 750 441 1219 
L 441 3319 
L 1319 3319 
L 1319 1794 
Q 1319 1094 1367 936 
Q 1416 778 1544 686 
Q 1672 594 1869 594 
Q 2094 594 2272 717 
Q 2450 841 2515 1023 
Q 2581 1206 2581 1919 
L 2581 3319 
L 3459 3319 
L 3459 0 
L 2644 0 
z
" transform="scale(0.015625)"/>
      <path id="Arial-BoldMT-73" d="M 150 947 
L 1031 1081 
Q 1088 825 1259 692 
Q 1431 559 1741 559 
Q 2081 559 2253 684 
Q 2369 772 2369 919 
Q 2369 1019 2306 1084 
Q 2241 1147 2013 1200 
Q 950 1434 666 1628 
Q 272 1897 272 2375 
Q 272 2806 612 3100 
Q 953 3394 1669 3394 
Q 2350 3394 2681 3172 
Q 3013 2950 3138 2516 
L 2309 2363 
Q 2256 2556 2107 2659 
Q 1959 2763 1684 2763 
Q 1338 2763 1188 2666 
Q 1088 2597 1088 2488 
Q 1088 2394 1175 2328 
Q 1294 2241 1995 2081 
Q 2697 1922 2975 1691 
Q 3250 1456 3250 1038 
Q 3250 581 2869 253 
Q 2488 -75 1741 -75 
Q 1063 -75 667 200 
Q 272 475 150 947 
z
" transform="scale(0.015625)"/>
      <path id="Arial-BoldMT-67" d="M 378 -219 
L 1381 -341 
Q 1406 -516 1497 -581 
Q 1622 -675 1891 -675 
Q 2234 -675 2406 -572 
Q 2522 -503 2581 -350 
Q 2622 -241 2622 53 
L 2622 538 
Q 2228 0 1628 0 
Q 959 0 569 566 
Q 263 1013 263 1678 
Q 263 2513 664 2953 
Q 1066 3394 1663 3394 
Q 2278 3394 2678 2853 
L 2678 3319 
L 3500 3319 
L 3500 341 
Q 3500 -247 3403 -537 
Q 3306 -828 3131 -993 
Q 2956 -1159 2664 -1253 
Q 2372 -1347 1925 -1347 
Q 1081 -1347 728 -1058 
Q 375 -769 375 -325 
Q 375 -281 378 -219 
z
M 1163 1728 
Q 1163 1200 1367 954 
Q 1572 709 1872 709 
Q 2194 709 2416 961 
Q 2638 1213 2638 1706 
Q 2638 2222 2425 2472 
Q 2213 2722 1888 2722 
Q 1572 2722 1367 2476 
Q 1163 2231 1163 1728 
z
" transform="scale(0.015625)"/>
      <path id="Arial-BoldMT-47" d="M 2597 1684 
L 2597 2456 
L 4591 2456 
L 4591 631 
Q 4300 350 3748 136 
Q 3197 -78 2631 -78 
Q 1913 -78 1378 223 
Q 844 525 575 1086 
Q 306 1647 306 2306 
Q 306 3022 606 3578 
Q 906 4134 1484 4431 
Q 1925 4659 2581 4659 
Q 3434 4659 3914 4301 
Q 4394 3944 4531 3313 
L 3613 3141 
Q 3516 3478 3248 3673 
Q 2981 3869 2581 3869 
Q 1975 3869 1617 3484 
Q 1259 3100 1259 2344 
Q 1259 1528 1621 1120 
Q 1984 713 2572 713 
Q 2863 713 3155 827 
Q 3447 941 3656 1103 
L 3656 1684 
L 2597 1684 
z
" transform="scale(0.015625)"/>
      <path id="Arial-BoldMT-68" d="M 1334 4581 
L 1334 2897 
Q 1759 3394 2350 3394 
Q 2653 3394 2897 3281 
Q 3141 3169 3264 2994 
Q 3388 2819 3433 2606 
Q 3478 2394 3478 1947 
L 3478 0 
L 2600 0 
L 2600 1753 
Q 2600 2275 2550 2415 
Q 2500 2556 2373 2639 
Q 2247 2722 2056 2722 
Q 1838 2722 1666 2615 
Q 1494 2509 1414 2295 
Q 1334 2081 1334 1663 
L 1334 0 
L 456 0 
L 456 4581 
L 1334 4581 
z
" transform="scale(0.015625)"/>
     </defs>
     <use xlink:href="#Arial-BoldMT-49"/>
     <use xlink:href="#Arial-BoldMT-6e" transform="translate(27.783203 0)"/>
     <use xlink:href="#Arial-BoldMT-74" transform="translate(88.867188 0)"/>
     <use xlink:href="#Arial-BoldMT-65" transform="translate(122.167969 0)"/>
     <use xlink:href="#Arial-BoldMT-72" transform="translate(177.783203 0)"/>
     <use xlink:href="#Arial-BoldMT-6e" transform="translate(216.699219 0)"/>
     <use xlink:href="#Arial-BoldMT-61" transform="translate(277.783203 0)"/>
     <use xlink:href="#Arial-BoldMT-74" transform="translate(333.398438 0)"/>
     <use xlink:href="#Arial-BoldMT-69" transform="translate(366.699219 0)"/>
     <use xlink:href="#Arial-BoldMT-6f" transform="translate(394.482422 0)"/>
     <use xlink:href="#Arial-BoldMT-6e" transform="translate(455.566406 0)"/>
     <use xlink:href="#Arial-BoldMT-61" transform="translate(516.650391 0)"/>
     <use xlink:href="#Arial-BoldMT-6c" transform="translate(572.265625 0)"/>
     <use xlink:href="#Arial-BoldMT-20" transform="translate(600.048828 0)"/>
     <use xlink:href="#Arial-BoldMT-63" transform="translate(627.832031 0)"/>
     <use xlink:href="#Arial-BoldMT-6f" transform="translate(683.447266 0)"/>
     <use xlink:href="#Arial-BoldMT-6c" transform="translate(744.53125 0)"/>
     <use xlink:href="#Arial-BoldMT-6c" transform="translate(772.314453 0)"/>
     <use xlink:href="#Arial-BoldMT-61" transform="translate(800.097656 0)"/>
     <use xlink:href="#Arial-BoldMT-62" transform="translate(855.712891 0)"/>
     <use xlink:href="#Arial-BoldMT-6f" transform="translate(916.796875 0)"/>
     <use xlink:href="#Arial-BoldMT-72" transform="translate(977.880859 0)"/>
     <use xlink:href="#Arial-BoldMT-61" transform="translate(1016.796875 0)"/>
     <use xlink:href="#Arial-BoldMT-74" transform="translate(1072.412109 0)"/>
     <use xlink:href="#Arial-BoldMT-69" transform="translate(1105.712891 0)"/>
     <use xlink:href="#Arial-BoldMT-76" transform="translate(1133.496094 0)"/>
     <use xlink:href="#Arial-BoldMT-65" transform="translate(1189.111328 0)"/>
     <use xlink:href="#Arial-BoldMT-20" transform="translate(1244.726562 0)"/>
     <use xlink:href="#Arial-BoldMT-70" transform="translate(1272.509766 0)"/>
     <use xlink:href="#Arial-BoldMT-75" transform="translate(1333.59375 0)"/>
     <use xlink:href="#Arial-BoldMT-62" transform="translate(1394.677734 0)"/>
     <use xlink:href="#Arial-BoldMT-6c" transform="translate(1455.761719 0)"/>
     <use xlink:href="#Arial-BoldMT-69" transform="translate(1483.544922 0)"/>
     <use xlink:href="#Arial-BoldMT-63" transform="translate(1511.328125 0)"/>
     <use xlink:href="#Arial-BoldMT-61" transform="translate(1566.943359 0)"/>
     <use xlink:href="#Arial-BoldMT-74" transform="translate(1622.558594 0)"/>
     <use xlink:href="#Arial-BoldMT-69" transform="translate(1655.859375 0)"/>
     <use xlink:href="#Arial-BoldMT-6f" transform="translate(1683.642578 0)"/>
     <use xlink:href="#Arial-BoldMT-6e" transform="translate(1744.726562 0)"/>
     <use xlink:href="#Arial-BoldMT-73" transform="translate(1805.810547 0)"/>
     <use xlink:href="#Arial-BoldMT-20" transform="translate(1861.425781 0)"/>
     <use xlink:href="#Arial-BoldMT-69" transform="translate(1889.208984 0)"/>
     <use xlink:href="#Arial-BoldMT-6e" transform="translate(1916.992188 0)"/>
     <use xlink:href="#Arial-BoldMT-76" transform="translate(1978.076172 0)"/>
     <use xlink:href="#Arial-BoldMT-6f" transform="translate(2033.691406 0)"/>
     <use xlink:href="#Arial-BoldMT-6c" transform="translate(2094.775391 0)"/>
     <use xlink:href="#Arial-BoldMT-76" transform="translate(2122.558594 0)"/>
     <use xlink:href="#Arial-BoldMT-69" transform="translate(2178.173828 0)"/>
     <use xlink:href="#Arial-BoldMT-6e" transform="translate(2205.957031 0)"/>
     <use xlink:href="#Arial-BoldMT-67" transform="translate(2267.041016 0)"/>
     <use xlink:href="#Arial-BoldMT-20" transform="translate(2328.125 0)"/>
     <use xlink:href="#Arial-BoldMT-47" transform="translate(2355.908203 0)"/>
     <use xlink:href="#Arial-BoldMT-68" transform="translate(2433.691406 0)"/>
     <use xlink:href="#Arial-BoldMT-61" transform="translate(2494.775391 0)"/>
     <use xlink:href="#Arial-BoldMT-6e" transform="translate(2550.390625 0)"/>
     <use xlink:href="#Arial-BoldMT-61" transform="translate(2611.474609 0)"/>
     <use xlink:href="#Arial-BoldMT-69" transform="translate(2667.089844 0)"/>
     <use xlink:href="#Arial-BoldMT-61" transform="translate(2694.873047 0)"/>
     <use xlink:href="#Arial-BoldMT-6e" transform="translate(2750.488281 0)"/>
    </g>
    <!-- researchers in biomedical science and engineering, 2000-2025 -->
    <g transform="translate(100.579375 32.413125) scale(0.14 -0.14)">
     <defs>
      <path id="Arial-BoldMT-6d" d="M 394 3319 
L 1203 3319 
L 1203 2866 
Q 1638 3394 2238 3394 
Q 2556 3394 2790 3262 
Q 3025 3131 3175 2866 
Q 3394 3131 3647 3262 
Q 3900 3394 4188 3394 
Q 4553 3394 4806 3245 
Q 5059 3097 5184 2809 
Q 5275 2597 5275 2122 
L 5275 0 
L 4397 0 
L 4397 1897 
Q 4397 2391 4306 2534 
Q 4184 2722 3931 2722 
Q 3747 2722 3584 2609 
Q 3422 2497 3350 2280 
Q 3278 2063 3278 1594 
L 3278 0 
L 2400 0 
L 2400 1819 
Q 2400 2303 2353 2443 
Q 2306 2584 2207 2653 
Q 2109 2722 1941 2722 
Q 1738 2722 1575 2612 
Q 1413 2503 1342 2297 
Q 1272 2091 1272 1613 
L 1272 0 
L 394 0 
L 394 3319 
z
" transform="scale(0.015625)"/>
      <path id="Arial-BoldMT-64" d="M 3503 0 
L 2688 0 
L 2688 488 
Q 2484 203 2207 64 
Q 1931 -75 1650 -75 
Q 1078 -75 670 386 
Q 263 847 263 1672 
Q 263 2516 659 2955 
Q 1056 3394 1663 3394 
Q 2219 3394 2625 2931 
L 2625 4581 
L 3503 4581 
L 3503 0 
z
M 1159 1731 
Q 1159 1200 1306 963 
Q 1519 619 1900 619 
Q 2203 619 2415 876 
Q 2628 1134 2628 1647 
Q 2628 2219 2422 2470 
Q 2216 2722 1894 2722 
Q 1581 2722 1370 2473 
Q 1159 2225 1159 1731 
z
" transform="scale(0.015625)"/>
      <path id="Arial-BoldMT-2c" d="M 438 878 
L 1316 878 
L 1316 250 
Q 1316 -131 1250 -351 
Q 1184 -572 1001 -747 
Q 819 -922 538 -1022 
L 366 -659 
Q 631 -572 743 -419 
Q 856 -266 863 0 
L 438 0 
L 438 878 
z
" transform="scale(0.015625)"/>
      <path id="Arial-BoldMT-32" d="M 3238 816 
L 3238 0 
L 159 0 
Q 209 463 459 877 
Q 709 1291 1447 1975 
Q 2041 2528 2175 2725 
Q 2356 2997 2356 3263 
Q 2356 3556 2198 3714 
Q 2041 3872 1763 3872 
Q 1488 3872 1325 3706 
Q 1163 3541 1138 3156 
L 263 3244 
Q 341 3969 753 4284 
Q 1166 4600 1784 4600 
Q 2463 4600 2850 4234 
Q 3238 3869 3238 3325 
Q 3238 3016 3127 2736 
Q 3016 2456 2775 2150 
Q 2616 1947 2200 1565 
Q 1784 1184 1673 1059 
Q 1563 934 1494 816 
L 3238 816 
z
" transform="scale(0.015625)"/>
      <path id="Arial-BoldMT-30" d="M 1756 4600 
Q 2422 4600 2797 4125 
Q 3244 3563 3244 2259 
Q 3244 959 2794 391 
Q 2422 -78 1756 -78 
Q 1088 -78 678 436 
Q 269 950 269 2269 
Q 269 3563 719 4131 
Q 1091 4600 1756 4600 
z
M 1756 3872 
Q 1597 3872 1472 3770 
Q 1347 3669 1278 3406 
Q 1188 3066 1188 2259 
Q 1188 1453 1269 1151 
Q 1350 850 1473 750 
Q 1597 650 1756 650 
Q 1916 650 2041 751 
Q 2166 853 2234 1116 
Q 2325 1453 2325 2259 
Q 2325 3066 2244 3367 
Q 2163 3669 2039 3770 
Q 1916 3872 1756 3872 
z
" transform="scale(0.015625)"/>
      <path id="Arial-BoldMT-2d" d="M 359 1222 
L 359 2100 
L 2084 2100 
L 2084 1222 
L 359 1222 
z
" transform="scale(0.015625)"/>
      <path id="Arial-BoldMT-35" d="M 284 1178 
L 1159 1269 
Q 1197 972 1381 798 
Q 1566 625 1806 625 
Q 2081 625 2272 848 
Q 2463 1072 2463 1522 
Q 2463 1944 2273 2155 
Q 2084 2366 1781 2366 
Q 1403 2366 1103 2031 
L 391 2134 
L 841 4519 
L 3163 4519 
L 3163 3697 
L 1506 3697 
L 1369 2919 
Q 1663 3066 1969 3066 
Q 2553 3066 2959 2641 
Q 3366 2216 3366 1538 
Q 3366 972 3038 528 
Q 2591 -78 1797 -78 
Q 1163 -78 763 262 
Q 363 603 284 1178 
z
" transform="scale(0.015625)"/>
     </defs>
     <use xlink:href="#Arial-BoldMT-72"/>
     <use xlink:href="#Arial-BoldMT-65" transform="translate(38.916016 0)"/>
     <use xlink:href="#Arial-BoldMT-73" transform="translate(94.53125 0)"/>
     <use xlink:href="#Arial-BoldMT-65" transform="translate(150.146484 0)"/>
     <use xlink:href="#Arial-BoldMT-61" transform="translate(205.761719 0)"/>
     <use xlink:href="#Arial-BoldMT-72" transform="translate(261.376953 0)"/>
     <use xlink:href="#Arial-BoldMT-63" transform="translate(300.292969 0)"/>
     <use xlink:href="#Arial-BoldMT-68" transform="translate(355.908203 0)"/>
     <use xlink:href="#Arial-BoldMT-65" transform="translate(416.992188 0)"/>
     <use xlink:href="#Arial-BoldMT-72" transform="translate(472.607422 0)"/>
     <use xlink:href="#Arial-BoldMT-73" transform="translate(511.523438 0)"/>
     <use xlink:href="#Arial-BoldMT-20" transform="translate(567.138672 0)"/>
     <use xlink:href="#Arial-BoldMT-69" transform="translate(594.921875 0)"/>
     <use xlink:href="#Arial-BoldMT-6e" transform="translate(622.705078 0)"/>
     <use xlink:href="#Arial-BoldMT-20" transform="translate(683.789062 0)"/>
     <use xlink:href="#Arial-BoldMT-62" transform="translate(711.572266 0)"/>
     <use xlink:href="#Arial-BoldMT-69" transform="translate(772.65625 0)"/>
     <use xlink:href="#Arial-BoldMT-6f" transform="translate(800.439453 0)"/>
     <use xlink:href="#Arial-BoldMT-6d" transform="translate(861.523438 0)"/>
     <use xlink:href="#Arial-BoldMT-65" transform="translate(950.439453 0)"/>
     <use xlink:href="#Arial-BoldMT-64" transform="translate(1006.054688 0)"/>
     <use xlink:href="#Arial-BoldMT-69" transform="translate(1067.138672 0)"/>
     <use xlink:href="#Arial-BoldMT-63" transform="translate(1094.921875 0)"/>
     <use xlink:href="#Arial-BoldMT-61" transform="translate(1150.537109 0)"/>
     <use xlink:href="#Arial-BoldMT-6c" transform="translate(1206.152344 0)"/>
     <use xlink:href="#Arial-BoldMT-20" transform="translate(1233.935547 0)"/>
     <use xlink:href="#Arial-BoldMT-73" transform="translate(1261.71875 0)"/>
     <use xlink:href="#Arial-BoldMT-63" transform="translate(1317.333984 0)"/>
     <use xlink:href="#Arial-BoldMT-69" transform="translate(1372.949219 0)"/>
     <use xlink:href="#Arial-BoldMT-65" transform="translate(1400.732422 0)"/>
     <use xlink:href="#Arial-BoldMT-6e" transform="translate(1456.347656 0)"/>
     <use xlink:href="#Arial-BoldMT-63" transform="translate(1517.431641 0)"/>
     <use xlink:href="#Arial-BoldMT-65" transform="translate(1573.046875 0)"/>
     <use xlink:href="#Arial-BoldMT-20" transform="translate(1628.662109 0)"/>
     <use xlink:href="#Arial-BoldMT-61" transform="translate(1656.445312 0)"/>
     <use xlink:href="#Arial-BoldMT-6e" transform="translate(1712.060547 0)"/>
     <use xlink:href="#Arial-BoldMT-64" transform="translate(1773.144531 0)"/>
     <use xlink:href="#Arial-BoldMT-20" transform="translate(1834.228516 0)"/>
     <use xlink:href="#Arial-BoldMT-65" transform="translate(1862.011719 0)"/>
     <use xlink:href="#Arial-BoldMT-6e" transform="translate(1917.626953 0)"/>
     <use xlink:href="#Arial-BoldMT-67" transform="translate(1978.710938 0)"/>
     <use xlink:href="#Arial-BoldMT-69" transform="translate(2039.794922 0)"/>
     <use xlink:href="#Arial-BoldMT-6e" transform="translate(2067.578125 0)"/>
     <use xlink:href="#Arial-BoldMT-65" transform="translate(2128.662109 0)"/>
     <use xlink:href="#Arial-BoldMT-65" transform="translate(2184.277344 0)"/>
     <use xlink:href="#Arial-BoldMT-72" transform="translate(2239.892578 0)"/>
     <use xlink:href="#Arial-BoldMT-69" transform="translate(2278.808594 0)"/>
     <use xlink:href="#Arial-BoldMT-6e" transform="translate(2306.591797 0)"/>
     <use xlink:href="#Arial-BoldMT-67" transform="translate(2367.675781 0)"/>
     <use xlink:href="#Arial-BoldMT-2c" transform="translate(2428.759766 0)"/>
     <use xlink:href="#Arial-BoldMT-20" transform="translate(2456.542969 0)"/>
     <use xlink:href="#Arial-BoldMT-32" transform="translate(2484.326172 0)"/>
     <use xlink:href="#Arial-BoldMT-30" transform="translate(2539.941406 0)"/>
     <use xlink:href="#Arial-BoldMT-30" transform="translate(2595.556641 0)"/>
     <use xlink:href="#Arial-BoldMT-30" transform="translate(2651.171875 0)"/>
     <use xlink:href="#Arial-BoldMT-2d" transform="translate(2706.787109 0)"/>
     <use xlink:href="#Arial-BoldMT-32" transform="translate(2740.087891 0)"/>
     <use xlink:href="#Arial-BoldMT-30" transform="translate(2795.703125 0)"/>
     <use xlink:href="#Arial-BoldMT-32" transform="translate(2851.318359 0)"/>
     <use xlink:href="#Arial-BoldMT-35" transform="translate(2906.933594 0)"/>
    </g>
   </g>
   <g id="legend_1">
    <g id="patch_31">
     <path d="M 61.19625 60.675625 
L 167.674375 60.675625 
Q 169.674375 60.675625 169.674375 58.675625 
L 169.674375 45.413125 
Q 169.674375 43.413125 167.674375 43.413125 
L 61.19625 43.413125 
Q 59.19625 43.413125 59.19625 45.413125 
L 59.19625 58.675625 
Q 59.19625 60.675625 61.19625 60.675625 
z
" style="fill: #ffffff; opacity: 0.8; stroke: #cccccc; stroke-linejoin: miter"/>
    </g>
    <g id="line2d_16">
     <path d="M 63.19625 51.070937 
L 73.19625 51.070937 
L 83.19625 51.070937 
" style="fill: none; stroke-dasharray: 7.4,3.2; stroke-dashoffset: 0; stroke: #b71c1c; stroke-width: 2"/>
    </g>
    <g id="text_18">
     <!-- Polynomial trend -->
     <g transform="translate(91.19625 54.570937) scale(0.1 -0.1)">
      <defs>
       <path id="ArialMT-79" d="M 397 -1278 
L 334 -750 
Q 519 -800 656 -800 
Q 844 -800 956 -737 
Q 1069 -675 1141 -563 
Q 1194 -478 1313 -144 
Q 1328 -97 1363 -6 
L 103 3319 
L 709 3319 
L 1400 1397 
Q 1534 1031 1641 628 
Q 1738 1016 1872 1384 
L 2581 3319 
L 3144 3319 
L 1881 -56 
Q 1678 -603 1566 -809 
Q 1416 -1088 1222 -1217 
Q 1028 -1347 759 -1347 
Q 597 -1347 397 -1278 
z
" transform="scale(0.015625)"/>
       <path id="ArialMT-64" d="M 2575 0 
L 2575 419 
Q 2259 -75 1647 -75 
Q 1250 -75 917 144 
Q 584 363 401 755 
Q 219 1147 219 1656 
Q 219 2153 384 2558 
Q 550 2963 881 3178 
Q 1213 3394 1622 3394 
Q 1922 3394 2156 3267 
Q 2391 3141 2538 2938 
L 2538 4581 
L 3097 4581 
L 3097 0 
L 2575 0 
z
M 797 1656 
Q 797 1019 1065 703 
Q 1334 388 1700 388 
Q 2069 388 2326 689 
Q 2584 991 2584 1609 
Q 2584 2291 2321 2609 
Q 2059 2928 1675 2928 
Q 1300 2928 1048 2622 
Q 797 2316 797 1656 
z
" transform="scale(0.015625)"/>
      </defs>
      <use xlink:href="#ArialMT-50"/>
      <use xlink:href="#ArialMT-6f" transform="translate(66.699219 0)"/>
      <use xlink:href="#ArialMT-6c" transform="translate(122.314453 0)"/>
      <use xlink:href="#ArialMT-79" transform="translate(144.53125 0)"/>
      <use xlink:href="#ArialMT-6e" transform="translate(194.53125 0)"/>
      <use xlink:href="#ArialMT-6f" transform="translate(250.146484 0)"/>
      <use xlink:href="#ArialMT-6d" transform="translate(305.761719 0)"/>
      <use xlink:href="#ArialMT-69" transform="translate(389.0625 0)"/>
      <use xlink:href="#ArialMT-61" transform="translate(411.279297 0)"/>
      <use xlink:href="#ArialMT-6c" transform="translate(466.894531 0)"/>
      <use xlink:href="#ArialMT-20" transform="translate(489.111328 0)"/>
      <use xlink:href="#ArialMT-74" transform="translate(516.894531 0)"/>
      <use xlink:href="#ArialMT-72" transform="translate(544.677734 0)"/>
      <use xlink:href="#ArialMT-65" transform="translate(577.978516 0)"/>
      <use xlink:href="#ArialMT-6e" transform="translate(633.59375 0)"/>
      <use xlink:href="#ArialMT-64" transform="translate(689.208984 0)"/>
     </g>
    </g>
   </g>
  </g>
 </g>
 <defs>
  <clipPath id="p683dcb954c">
   <rect x="54.19625" y="38.413125" width="507.49" height="275.464"/>
  </clipPath>
 </defs>
</svg>
