<?xml version="1.0" encoding="utf-8" standalone="no"?>
<!DOCTYPE svg PUBLIC "-//W3C//DTD SVG 1.1//EN"
  "http://www.w3.org/Graphics/SVG/1.1/DTD/svg11.dtd">
<svg xmlns:xlink="http://www.w3.org/1999/xlink" width="710.705pt" height="423.672812pt" viewBox="0 0 710.705 423.672812" xmlns="http://www.w3.org/2000/svg" version="1.1">
 <metadata>
  <rdf:RDF xmlns:dc="http://purl.org/dc/elements/1.1/" xmlns:cc="http://creativecommons.org/ns#" xmlns:rdf="http://www.w3.org/1999/02/22-rdf-syntax-ns#">
   <cc:Work>
    <dc:type rdf:resource="http://purl.org/dc/dcmitype/StillImage"/>
    <dc:date>2026-04-13T22:34:33.744964</dc:date>
    <dc:format>image/svg+xml</dc:format>
    <dc:creator>
     <cc:Agent>
      <dc:title>Matplotlib v3.10.8, https://matplotlib.org/</dc:title>
     </cc:Agent>
    </dc:creator>
   </cc:Work>
  </rdf:RDF>
 </metadata>
 <defs>
  <style type="text/css">*{stroke-linejoin: round; stroke-linecap: butt}</style>
 </defs>
 <g id="figure_1">
  <g id="patch_1">
   <path d="M 0 423.672812 
L 710.705 423.672812 
L 710.705 0 
L 0 0 
z
" style="fill: #ffffff"/>
  </g>
  <g id="axes_1">
   <g id="patch_2">
    <path d="M 44.605 384.151719 
L 703.505 384.151719 
L 703.505 22.671719 
L 44.605 22.671719 
z
" style="fill: #ffffff"/>
   </g>
   <g id="patch_3">
    <path d="M 74.555 384.151719 
L 85.735848 384.151719 
L 85.735848 208.171975 
L 74.555 208.171975 
z
" clip-path="url(#pdaf1f8d151)" style="fill: #dc2626; opacity: 0.6"/>
   </g>
   <g id="patch_4">
    <path d="M 85.735848 384.151719 
L 96.916696 384.151719 
L 96.916696 243.190614 
L 85.735848 243.190614 
z
" clip-path="url(#pdaf1f8d151)" style="fill: #dc2626; opacity: 0.6"/>
   </g>
   <g id="patch_5">
    <path d="M 96.916696 384.151719 
L 108.097543 384.151719 
L 108.097543 267.127393 
L 96.916696 267.127393 
z
" clip-path="url(#pdaf1f8d151)" style="fill: #dc2626; opacity: 0.6"/>
   </g>
   <g id="patch_6">
    <path d="M 108.097543 384.151719 
L 119.278395 384.151719 
L 119.278395 256.488873 
L 108.097543 256.488873 
z
" clip-path="url(#pdaf1f8d151)" style="fill: #dc2626; opacity: 0.6"/>
   </g>
   <g id="patch_7">
    <path d="M 119.278395 384.151719 
L 130.459245 384.151719 
L 130.459245 248.066642 
L 119.278395 248.066642 
z
" clip-path="url(#pdaf1f8d151)" style="fill: #dc2626; opacity: 0.6"/>
   </g>
   <g id="patch_8">
    <path d="M 130.459245 384.151719 
L 141.640089 384.151719 
L 141.640089 259.148434 
L 130.459245 259.148434 
z
" clip-path="url(#pdaf1f8d151)" style="fill: #dc2626; opacity: 0.6"/>
   </g>
   <g id="patch_9">
    <path d="M 141.640089 384.151719 
L 152.820939 384.151719 
L 152.820939 257.818667 
L 141.640089 257.818667 
z
" clip-path="url(#pdaf1f8d151)" style="fill: #dc2626; opacity: 0.6"/>
   </g>
   <g id="patch_10">
    <path d="M 152.820939 384.151719 
L 164.001788 384.151719 
L 164.001788 270.230335 
L 152.820939 270.230335 
z
" clip-path="url(#pdaf1f8d151)" style="fill: #dc2626; opacity: 0.6"/>
   </g>
   <g id="patch_11">
    <path d="M 164.001788 384.151719 
L 175.182638 384.151719 
L 175.182638 286.631468 
L 164.001788 286.631468 
z
" clip-path="url(#pdaf1f8d151)" style="fill: #dc2626; opacity: 0.6"/>
   </g>
   <g id="patch_12">
    <path d="M 175.182638 384.151719 
L 186.363487 384.151719 
L 186.363487 276.879443 
L 175.182638 276.879443 
z
" clip-path="url(#pdaf1f8d151)" style="fill: #dc2626; opacity: 0.6"/>
   </g>
   <g id="patch_13">
    <path d="M 186.363487 384.151719 
L 197.544337 384.151719 
L 197.544337 285.74492 
L 186.363487 285.74492 
z
" clip-path="url(#pdaf1f8d151)" style="fill: #dc2626; opacity: 0.6"/>
   </g>
   <g id="patch_14">
    <path d="M 197.544337 384.151719 
L 208.725176 384.151719 
L 208.725176 282.641915 
L 197.544337 282.641915 
z
" clip-path="url(#pdaf1f8d151)" style="fill: #dc2626; opacity: 0.6"/>
   </g>
   <g id="patch_15">
    <path d="M 208.725176 384.151719 
L 219.906026 384.151719 
L 219.906026 279.98236 
L 208.725176 279.98236 
z
" clip-path="url(#pdaf1f8d151)" style="fill: #dc2626; opacity: 0.6"/>
   </g>
   <g id="patch_16">
    <path d="M 219.906026 384.151719 
L 231.086875 384.151719 
L 231.086875 281.755456 
L 219.906026 281.755456 
z
" clip-path="url(#pdaf1f8d151)" style="fill: #dc2626; opacity: 0.6"/>
   </g>
   <g id="patch_17">
    <path d="M 231.086875 384.151719 
L 242.267725 384.151719 
L 242.267725 273.776526 
L 231.086875 273.776526 
z
" clip-path="url(#pdaf1f8d151)" style="fill: #dc2626; opacity: 0.6"/>
   </g>
   <g id="patch_18">
    <path d="M 242.267725 384.151719 
L 253.448574 384.151719 
L 253.448574 258.261941 
L 242.267725 258.261941 
z
" clip-path="url(#pdaf1f8d151)" style="fill: #dc2626; opacity: 0.6"/>
   </g>
   <g id="patch_19">
    <path d="M 253.448574 384.151719 
L 264.629424 384.151719 
L 264.629424 251.612833 
L 253.448574 251.612833 
z
" clip-path="url(#pdaf1f8d151)" style="fill: #dc2626; opacity: 0.6"/>
   </g>
   <g id="patch_20">
    <path d="M 264.629424 384.151719 
L 275.810273 384.151719 
L 275.810273 246.293546 
L 264.629424 246.293546 
z
" clip-path="url(#pdaf1f8d151)" style="fill: #dc2626; opacity: 0.6"/>
   </g>
   <g id="patch_21">
    <path d="M 275.810273 384.151719 
L 286.991123 384.151719 
L 286.991123 253.385928 
L 275.810273 253.385928 
z
" clip-path="url(#pdaf1f8d151)" style="fill: #dc2626; opacity: 0.6"/>
   </g>
   <g id="patch_22">
    <path d="M 286.991123 384.151719 
L 298.171972 384.151719 
L 298.171972 234.325152 
L 286.991123 234.325152 
z
" clip-path="url(#pdaf1f8d151)" style="fill: #dc2626; opacity: 0.6"/>
   </g>
   <g id="patch_23">
    <path d="M 298.171972 384.151719 
L 309.352822 384.151719 
L 309.352822 223.686579 
L 298.171972 223.686579 
z
" clip-path="url(#pdaf1f8d151)" style="fill: #dc2626; opacity: 0.6"/>
   </g>
   <g id="patch_24">
    <path d="M 309.352822 384.151719 
L 320.533671 384.151719 
L 320.533671 238.314617 
L 309.352822 238.314617 
z
" clip-path="url(#pdaf1f8d151)" style="fill: #dc2626; opacity: 0.6"/>
   </g>
   <g id="patch_25">
    <path d="M 320.533671 384.151719 
L 331.714521 384.151719 
L 331.714521 223.686579 
L 320.533671 223.686579 
z
" clip-path="url(#pdaf1f8d151)" style="fill: #dc2626; opacity: 0.6"/>
   </g>
   <g id="patch_26">
    <path d="M 331.714521 384.151719 
L 342.895351 384.151719 
L 342.895351 225.459398 
L 331.714521 225.459398 
z
" clip-path="url(#pdaf1f8d151)" style="fill: #dc2626; opacity: 0.6"/>
   </g>
   <g id="patch_27">
    <path d="M 342.895351 384.151719 
L 354.0762 384.151719 
L 354.0762 209.501815 
L 342.895351 209.501815 
z
" clip-path="url(#pdaf1f8d151)" style="fill: #dc2626; opacity: 0.6"/>
   </g>
   <g id="patch_28">
    <path d="M 354.0762 384.151719 
L 365.25705 384.151719 
L 365.25705 226.346222 
L 354.0762 226.346222 
z
" clip-path="url(#pdaf1f8d151)" style="fill: #dc2626; opacity: 0.6"/>
   </g>
   <g id="patch_29">
    <path d="M 365.25705 384.151719 
L 376.437899 384.151719 
L 376.437899 243.190629 
L 365.25705 243.190629 
z
" clip-path="url(#pdaf1f8d151)" style="fill: #dc2626; opacity: 0.6"/>
   </g>
   <g id="patch_30">
    <path d="M 376.437899 384.151719 
L 387.618749 384.151719 
L 387.618749 219.25384 
L 376.437899 219.25384 
z
" clip-path="url(#pdaf1f8d151)" style="fill: #dc2626; opacity: 0.6"/>
   </g>
   <g id="patch_31">
    <path d="M 387.618749 384.151719 
L 398.799598 384.151719 
L 398.799598 226.789496 
L 387.618749 226.789496 
z
" clip-path="url(#pdaf1f8d151)" style="fill: #dc2626; opacity: 0.6"/>
   </g>
   <g id="patch_32">
    <path d="M 398.799598 384.151719 
L 409.980428 384.151719 
L 409.980428 248.952954 
L 398.799598 248.952954 
z
" clip-path="url(#pdaf1f8d151)" style="fill: #dc2626; opacity: 0.6"/>
   </g>
   <g id="patch_33">
    <path d="M 409.980428 384.151719 
L 421.161297 384.151719 
L 421.161297 222.357039 
L 409.980428 222.357039 
z
" clip-path="url(#pdaf1f8d151)" style="fill: #dc2626; opacity: 0.6"/>
   </g>
   <g id="patch_34">
    <path d="M 421.161297 384.151719 
L 432.342127 384.151719 
L 432.342127 240.530736 
L 421.161297 240.530736 
z
" clip-path="url(#pdaf1f8d151)" style="fill: #dc2626; opacity: 0.6"/>
   </g>
   <g id="patch_35">
    <path d="M 432.342127 384.151719 
L 443.522957 384.151719 
L 443.522957 264.467567 
L 432.342127 264.467567 
z
" clip-path="url(#pdaf1f8d151)" style="fill: #dc2626; opacity: 0.6"/>
   </g>
   <g id="patch_36">
    <path d="M 443.522957 384.151719 
L 454.703826 384.151719 
L 454.703826 276.436356 
L 443.522957 276.436356 
z
" clip-path="url(#pdaf1f8d151)" style="fill: #dc2626; opacity: 0.6"/>
   </g>
   <g id="patch_37">
    <path d="M 454.703826 384.151719 
L 465.884656 384.151719 
L 465.884656 277.765806 
L 454.703826 277.765806 
z
" clip-path="url(#pdaf1f8d151)" style="fill: #dc2626; opacity: 0.6"/>
   </g>
   <g id="patch_38">
    <path d="M 465.884656 384.151719 
L 477.065525 384.151719 
L 477.065525 240.531236 
L 465.884656 240.531236 
z
" clip-path="url(#pdaf1f8d151)" style="fill: #dc2626; opacity: 0.6"/>
   </g>
   <g id="patch_39">
    <path d="M 477.065525 384.151719 
L 488.246355 384.151719 
L 488.246355 233.881617 
L 477.065525 233.881617 
z
" clip-path="url(#pdaf1f8d151)" style="fill: #dc2626; opacity: 0.6"/>
   </g>
   <g id="patch_40">
    <path d="M 488.246355 384.151719 
L 499.427224 384.151719 
L 499.427224 268.900714 
L 488.246355 268.900714 
z
" clip-path="url(#pdaf1f8d151)" style="fill: #dc2626; opacity: 0.6"/>
   </g>
   <g id="patch_41">
    <path d="M 499.427224 384.151719 
L 510.608054 384.151719 
L 510.608054 307.021932 
L 499.427224 307.021932 
z
" clip-path="url(#pdaf1f8d151)" style="fill: #dc2626; opacity: 0.6"/>
   </g>
   <g id="patch_42">
    <path d="M 510.608054 384.151719 
L 521.788923 384.151719 
L 521.788923 310.125112 
L 510.608054 310.125112 
z
" clip-path="url(#pdaf1f8d151)" style="fill: #dc2626; opacity: 0.6"/>
   </g>
   <g id="patch_43">
    <path d="M 521.788923 384.151719 
L 532.969753 384.151719 
L 532.969753 343.813727 
L 521.788923 343.813727 
z
" clip-path="url(#pdaf1f8d151)" style="fill: #dc2626; opacity: 0.6"/>
   </g>
   <g id="patch_44">
    <path d="M 532.969753 384.151719 
L 544.150622 384.151719 
L 544.150622 348.246598 
L 532.969753 348.246598 
z
" clip-path="url(#pdaf1f8d151)" style="fill: #dc2626; opacity: 0.6"/>
   </g>
   <g id="patch_45">
    <path d="M 544.150622 384.151719 
L 555.331452 384.151719 
L 555.331452 361.101438 
L 544.150622 361.101438 
z
" clip-path="url(#pdaf1f8d151)" style="fill: #dc2626; opacity: 0.6"/>
   </g>
   <g id="patch_46">
    <path d="M 555.331452 384.151719 
L 566.512321 384.151719 
L 566.512321 370.853526 
L 555.331452 370.853526 
z
" clip-path="url(#pdaf1f8d151)" style="fill: #dc2626; opacity: 0.6"/>
   </g>
   <g id="patch_47">
    <path d="M 566.512321 384.151719 
L 577.693151 384.151719 
L 577.693151 376.172775 
L 566.512321 376.172775 
z
" clip-path="url(#pdaf1f8d151)" style="fill: #dc2626; opacity: 0.6"/>
   </g>
   <g id="patch_48">
    <path d="M 577.693151 384.151719 
L 588.87402 384.151719 
L 588.87402 382.378626 
L 577.693151 382.378626 
z
" clip-path="url(#pdaf1f8d151)" style="fill: #dc2626; opacity: 0.6"/>
   </g>
   <g id="patch_49">
    <path d="M 588.87402 384.151719 
L 600.05485 384.151719 
L 600.05485 380.605522 
L 588.87402 380.605522 
z
" clip-path="url(#pdaf1f8d151)" style="fill: #dc2626; opacity: 0.6"/>
   </g>
   <g id="patch_50">
    <path d="M 600.05485 384.151719 
L 611.23568 384.151719 
L 611.23568 383.265169 
L 600.05485 383.265169 
z
" clip-path="url(#pdaf1f8d151)" style="fill: #dc2626; opacity: 0.6"/>
   </g>
   <g id="patch_51">
    <path d="M 611.23568 384.151719 
L 622.416549 384.151719 
L 622.416549 384.151719 
L 611.23568 384.151719 
z
" clip-path="url(#pdaf1f8d151)" style="fill: #dc2626; opacity: 0.6"/>
   </g>
   <g id="patch_52">
    <path d="M 622.416549 384.151719 
L 633.597379 384.151719 
L 633.597379 383.708444 
L 622.416549 383.708444 
z
" clip-path="url(#pdaf1f8d151)" style="fill: #dc2626; opacity: 0.6"/>
   </g>
   <g id="patch_53">
    <path d="M 79.530441 384.151719 
L 91.410932 384.151719 
L 91.410932 381.951932 
L 79.530441 381.951932 
z
" clip-path="url(#pdaf1f8d151)" style="fill: #059669; opacity: 0.6"/>
   </g>
   <g id="patch_54">
    <path d="M 91.410932 384.151719 
L 103.291423 384.151719 
L 103.291423 380.302092 
L 91.410932 380.302092 
z
" clip-path="url(#pdaf1f8d151)" style="fill: #059669; opacity: 0.6"/>
   </g>
   <g id="patch_55">
    <path d="M 103.291423 384.151719 
L 115.171913 384.151719 
L 115.171913 378.102304 
L 103.291423 378.102304 
z
" clip-path="url(#pdaf1f8d151)" style="fill: #059669; opacity: 0.6"/>
   </g>
   <g id="patch_56">
    <path d="M 115.171913 384.151719 
L 127.052403 384.151719 
L 127.052403 377.552358 
L 115.171913 377.552358 
z
" clip-path="url(#pdaf1f8d151)" style="fill: #059669; opacity: 0.6"/>
   </g>
   <g id="patch_57">
    <path d="M 127.052403 384.151719 
L 138.932893 384.151719 
L 138.932893 368.203263 
L 127.052403 368.203263 
z
" clip-path="url(#pdaf1f8d151)" style="fill: #059669; opacity: 0.6"/>
   </g>
   <g id="patch_58">
    <path d="M 138.932893 384.151719 
L 150.813393 384.151719 
L 150.813393 369.853115 
L 138.932893 369.853115 
z
" clip-path="url(#pdaf1f8d151)" style="fill: #059669; opacity: 0.6"/>
   </g>
   <g id="patch_59">
    <path d="M 150.813393 384.151719 
L 162.693883 384.151719 
L 162.693883 367.653316 
L 150.813393 367.653316 
z
" clip-path="url(#pdaf1f8d151)" style="fill: #059669; opacity: 0.6"/>
   </g>
   <g id="patch_60">
    <path d="M 162.693883 384.151719 
L 174.574373 384.151719 
L 174.574373 362.703795 
L 162.693883 362.703795 
z
" clip-path="url(#pdaf1f8d151)" style="fill: #059669; opacity: 0.6"/>
   </g>
   <g id="patch_61">
    <path d="M 174.574373 384.151719 
L 186.454863 384.151719 
L 186.454863 353.904647 
L 174.574373 353.904647 
z
" clip-path="url(#pdaf1f8d151)" style="fill: #059669; opacity: 0.6"/>
   </g>
   <g id="patch_62">
    <path d="M 186.454863 384.151719 
L 198.335353 384.151719 
L 198.335353 363.803689 
L 186.454863 363.803689 
z
" clip-path="url(#pdaf1f8d151)" style="fill: #059669; opacity: 0.6"/>
   </g>
   <g id="patch_63">
    <path d="M 198.335353 384.151719 
L 210.215843 384.151719 
L 210.215843 355.004541 
L 198.335353 355.004541 
z
" clip-path="url(#pdaf1f8d151)" style="fill: #059669; opacity: 0.6"/>
   </g>
   <g id="patch_64">
    <path d="M 210.215843 384.151719 
L 222.096343 384.151719 
L 222.096343 355.004565 
L 210.215843 355.004565 
z
" clip-path="url(#pdaf1f8d151)" style="fill: #059669; opacity: 0.6"/>
   </g>
   <g id="patch_65">
    <path d="M 222.096343 384.151719 
L 233.976832 384.151719 
L 233.976832 345.105499 
L 222.096343 345.105499 
z
" clip-path="url(#pdaf1f8d151)" style="fill: #059669; opacity: 0.6"/>
   </g>
   <g id="patch_66">
    <path d="M 233.976832 384.151719 
L 245.857322 384.151719 
L 245.857322 337.406245 
L 233.976832 337.406245 
z
" clip-path="url(#pdaf1f8d151)" style="fill: #059669; opacity: 0.6"/>
   </g>
   <g id="patch_67">
    <path d="M 245.857322 384.151719 
L 257.737812 384.151719 
L 257.737812 336.856298 
L 245.857322 336.856298 
z
" clip-path="url(#pdaf1f8d151)" style="fill: #059669; opacity: 0.6"/>
   </g>
   <g id="patch_68">
    <path d="M 257.737812 384.151719 
L 269.618302 384.151719 
L 269.618302 313.208588 
L 257.737812 313.208588 
z
" clip-path="url(#pdaf1f8d151)" style="fill: #059669; opacity: 0.6"/>
   </g>
   <g id="patch_69">
    <path d="M 269.618302 384.151719 
L 281.498792 384.151719 
L 281.498792 317.608162 
L 269.618302 317.608162 
z
" clip-path="url(#pdaf1f8d151)" style="fill: #059669; opacity: 0.6"/>
   </g>
   <g id="patch_70">
    <path d="M 281.498792 384.151719 
L 293.379282 384.151719 
L 293.379282 300.009866 
L 281.498792 300.009866 
z
" clip-path="url(#pdaf1f8d151)" style="fill: #059669; opacity: 0.6"/>
   </g>
   <g id="patch_71">
    <path d="M 293.379282 384.151719 
L 305.259772 384.151719 
L 305.259772 274.162368 
L 293.379282 274.162368 
z
" clip-path="url(#pdaf1f8d151)" style="fill: #059669; opacity: 0.6"/>
   </g>
   <g id="patch_72">
    <path d="M 305.259772 384.151719 
L 317.140262 384.151719 
L 317.140262 273.062475 
L 305.259772 273.062475 
z
" clip-path="url(#pdaf1f8d151)" style="fill: #059669; opacity: 0.6"/>
   </g>
   <g id="patch_73">
    <path d="M 317.140262 384.151719 
L 329.020752 384.151719 
L 329.020752 267.563007 
L 317.140262 267.563007 
z
" clip-path="url(#pdaf1f8d151)" style="fill: #059669; opacity: 0.6"/>
   </g>
   <g id="patch_74">
    <path d="M 329.020752 384.151719 
L 340.901242 384.151719 
L 340.901242 245.015191 
L 329.020752 245.015191 
z
" clip-path="url(#pdaf1f8d151)" style="fill: #059669; opacity: 0.6"/>
   </g>
   <g id="patch_75">
    <path d="M 340.901242 384.151719 
L 352.781732 384.151719 
L 352.781732 235.116149 
L 340.901242 235.116149 
z
" clip-path="url(#pdaf1f8d151)" style="fill: #059669; opacity: 0.6"/>
   </g>
   <g id="patch_76">
    <path d="M 352.781732 384.151719 
L 364.662242 384.151719 
L 364.662242 211.468721 
L 352.781732 211.468721 
z
" clip-path="url(#pdaf1f8d151)" style="fill: #059669; opacity: 0.6"/>
   </g>
   <g id="patch_77">
    <path d="M 364.662242 384.151719 
L 376.542731 384.151719 
L 376.542731 234.016255 
L 364.662242 234.016255 
z
" clip-path="url(#pdaf1f8d151)" style="fill: #059669; opacity: 0.6"/>
   </g>
   <g id="patch_78">
    <path d="M 376.542731 384.151719 
L 388.423221 384.151719 
L 388.423221 198.819663 
L 376.542731 198.819663 
z
" clip-path="url(#pdaf1f8d151)" style="fill: #059669; opacity: 0.6"/>
   </g>
   <g id="patch_79">
    <path d="M 388.423221 384.151719 
L 400.303692 384.151719 
L 400.303692 173.521768 
L 388.423221 173.521768 
z
" clip-path="url(#pdaf1f8d151)" style="fill: #059669; opacity: 0.6"/>
   </g>
   <g id="patch_80">
    <path d="M 400.303692 384.151719 
L 412.184182 384.151719 
L 412.184182 193.870143 
L 400.303692 193.870143 
z
" clip-path="url(#pdaf1f8d151)" style="fill: #059669; opacity: 0.6"/>
   </g>
   <g id="patch_81">
    <path d="M 412.184182 384.151719 
L 424.064672 384.151719 
L 424.064672 139.975361 
L 412.184182 139.975361 
z
" clip-path="url(#pdaf1f8d151)" style="fill: #059669; opacity: 0.6"/>
   </g>
   <g id="patch_82">
    <path d="M 424.064672 384.151719 
L 435.945162 384.151719 
L 435.945162 141.625201 
L 424.064672 141.625201 
z
" clip-path="url(#pdaf1f8d151)" style="fill: #059669; opacity: 0.6"/>
   </g>
   <g id="patch_83">
    <path d="M 435.945162 384.151719 
L 447.825652 384.151719 
L 447.825652 168.022645 
L 435.945162 168.022645 
z
" clip-path="url(#pdaf1f8d151)" style="fill: #059669; opacity: 0.6"/>
   </g>
   <g id="patch_84">
    <path d="M 447.825652 384.151719 
L 459.706142 384.151719 
L 459.706142 163.623071 
L 447.825652 163.623071 
z
" clip-path="url(#pdaf1f8d151)" style="fill: #059669; opacity: 0.6"/>
   </g>
   <g id="patch_85">
    <path d="M 459.706142 384.151719 
L 471.586632 384.151719 
L 471.586632 131.176213 
L 459.706142 131.176213 
z
" clip-path="url(#pdaf1f8d151)" style="fill: #059669; opacity: 0.6"/>
   </g>
   <g id="patch_86">
    <path d="M 471.586632 384.151719 
L 483.467122 384.151719 
L 483.467122 39.885052 
L 471.586632 39.885052 
z
" clip-path="url(#pdaf1f8d151)" style="fill: #059669; opacity: 0.6"/>
   </g>
   <g id="patch_87">
    <path d="M 483.467122 384.151719 
L 495.347612 384.151719 
L 495.347612 58.583242 
L 483.467122 58.583242 
z
" clip-path="url(#pdaf1f8d151)" style="fill: #059669; opacity: 0.6"/>
   </g>
   <g id="patch_88">
    <path d="M 495.347612 384.151719 
L 507.228102 384.151719 
L 507.228102 142.725095 
L 495.347612 142.725095 
z
" clip-path="url(#pdaf1f8d151)" style="fill: #059669; opacity: 0.6"/>
   </g>
   <g id="patch_89">
    <path d="M 507.228102 384.151719 
L 519.108592 384.151719 
L 519.108592 172.422219 
L 507.228102 172.422219 
z
" clip-path="url(#pdaf1f8d151)" style="fill: #059669; opacity: 0.6"/>
   </g>
   <g id="patch_90">
    <path d="M 519.108592 384.151719 
L 530.989082 384.151719 
L 530.989082 210.368545 
L 519.108592 210.368545 
z
" clip-path="url(#pdaf1f8d151)" style="fill: #059669; opacity: 0.6"/>
   </g>
   <g id="patch_91">
    <path d="M 530.989082 384.151719 
L 542.869572 384.151719 
L 542.869572 254.914232 
L 530.989082 254.914232 
z
" clip-path="url(#pdaf1f8d151)" style="fill: #059669; opacity: 0.6"/>
   </g>
   <g id="patch_92">
    <path d="M 542.869572 384.151719 
L 554.750061 384.151719 
L 554.750061 264.813274 
L 542.869572 264.813274 
z
" clip-path="url(#pdaf1f8d151)" style="fill: #059669; opacity: 0.6"/>
   </g>
   <g id="patch_93">
    <path d="M 554.750061 384.151719 
L 566.630551 384.151719 
L 566.630551 314.858428 
L 554.750061 314.858428 
z
" clip-path="url(#pdaf1f8d151)" style="fill: #059669; opacity: 0.6"/>
   </g>
   <g id="patch_94">
    <path d="M 566.630551 384.151719 
L 578.511041 384.151719 
L 578.511041 326.957257 
L 566.630551 326.957257 
z
" clip-path="url(#pdaf1f8d151)" style="fill: #059669; opacity: 0.6"/>
   </g>
   <g id="patch_95">
    <path d="M 578.511041 384.151719 
L 590.391531 384.151719 
L 590.391531 358.304221 
L 578.511041 358.304221 
z
" clip-path="url(#pdaf1f8d151)" style="fill: #059669; opacity: 0.6"/>
   </g>
   <g id="patch_96">
    <path d="M 590.391531 384.151719 
L 602.272021 384.151719 
L 602.272021 351.154914 
L 590.391531 351.154914 
z
" clip-path="url(#pdaf1f8d151)" style="fill: #059669; opacity: 0.6"/>
   </g>
   <g id="patch_97">
    <path d="M 602.272021 384.151719 
L 614.152511 384.151719 
L 614.152511 368.75321 
L 602.272021 368.75321 
z
" clip-path="url(#pdaf1f8d151)" style="fill: #059669; opacity: 0.6"/>
   </g>
   <g id="patch_98">
    <path d="M 614.152511 384.151719 
L 626.033001 384.151719 
L 626.033001 377.552358 
L 614.152511 377.552358 
z
" clip-path="url(#pdaf1f8d151)" style="fill: #059669; opacity: 0.6"/>
   </g>
   <g id="patch_99">
    <path d="M 626.033001 384.151719 
L 637.913491 384.151719 
L 637.913491 376.452464 
L 626.033001 376.452464 
z
" clip-path="url(#pdaf1f8d151)" style="fill: #059669; opacity: 0.6"/>
   </g>
   <g id="patch_100">
    <path d="M 637.913491 384.151719 
L 649.79402 384.151719 
L 649.79402 381.401994 
L 637.913491 381.401994 
z
" clip-path="url(#pdaf1f8d151)" style="fill: #059669; opacity: 0.6"/>
   </g>
   <g id="patch_101">
    <path d="M 649.79402 384.151719 
L 661.67451 384.151719 
L 661.67451 381.401985 
L 649.79402 381.401985 
z
" clip-path="url(#pdaf1f8d151)" style="fill: #059669; opacity: 0.6"/>
   </g>
   <g id="patch_102">
    <path d="M 661.67451 384.151719 
L 673.555 384.151719 
L 673.555 381.951932 
L 661.67451 381.951932 
z
" clip-path="url(#pdaf1f8d151)" style="fill: #059669; opacity: 0.6"/>
   </g>
   <g id="matplotlib.axis_1">
    <g id="xtick_1">
     <g id="line2d_1">
      <defs>
       <path id="m31a829985f" d="M 0 0 
L 0 3.5 
" style="stroke: #000000; stroke-width: 0.8"/>
      </defs>
      <g>
       <use xlink:href="#m31a829985f" x="72.364646" y="384.151719" style="stroke: #000000; stroke-width: 0.8"/>
      </g>
     </g>
     <g id="text_1">
      <!-- 0.0 -->
      <g transform="translate(64.719646 399.025312) scale(0.11 -0.11)">
       <defs>
        <path id="ArialMT-30" d="M 266 2259 
Q 266 3072 433 3567 
Q 600 4063 929 4331 
Q 1259 4600 1759 4600 
Q 2128 4600 2406 4451 
Q 2684 4303 2865 4023 
Q 3047 3744 3150 3342 
Q 3253 2941 3253 2259 
Q 3253 1453 3087 958 
Q 2922 463 2592 192 
Q 2263 -78 1759 -78 
Q 1097 -78 719 397 
Q 266 969 266 2259 
z
M 844 2259 
Q 844 1131 1108 757 
Q 1372 384 1759 384 
Q 2147 384 2411 759 
Q 2675 1134 2675 2259 
Q 2675 3391 2411 3762 
Q 2147 4134 1753 4134 
Q 1366 4134 1134 3806 
Q 844 3388 844 2259 
z
" transform="scale(0.015625)"/>
        <path id="ArialMT-2e" d="M 581 0 
L 581 641 
L 1222 641 
L 1222 0 
L 581 0 
z
" transform="scale(0.015625)"/>
       </defs>
       <use xlink:href="#ArialMT-30"/>
       <use xlink:href="#ArialMT-2e" transform="translate(55.615234 0)"/>
       <use xlink:href="#ArialMT-30" transform="translate(83.398438 0)"/>
      </g>
     </g>
    </g>
    <g id="xtick_2">
     <g id="line2d_2">
      <g>
       <use xlink:href="#m31a829985f" x="202.863208" y="384.151719" style="stroke: #000000; stroke-width: 0.8"/>
      </g>
     </g>
     <g id="text_2">
      <!-- 0.2 -->
      <g transform="translate(195.218208 399.025312) scale(0.11 -0.11)">
       <defs>
        <path id="ArialMT-32" d="M 3222 541 
L 3222 0 
L 194 0 
Q 188 203 259 391 
Q 375 700 629 1000 
Q 884 1300 1366 1694 
Q 2113 2306 2375 2664 
Q 2638 3022 2638 3341 
Q 2638 3675 2398 3904 
Q 2159 4134 1775 4134 
Q 1369 4134 1125 3890 
Q 881 3647 878 3216 
L 300 3275 
Q 359 3922 746 4261 
Q 1134 4600 1788 4600 
Q 2447 4600 2831 4234 
Q 3216 3869 3216 3328 
Q 3216 3053 3103 2787 
Q 2991 2522 2730 2228 
Q 2469 1934 1863 1422 
Q 1356 997 1212 845 
Q 1069 694 975 541 
L 3222 541 
z
" transform="scale(0.015625)"/>
       </defs>
       <use xlink:href="#ArialMT-30"/>
       <use xlink:href="#ArialMT-2e" transform="translate(55.615234 0)"/>
       <use xlink:href="#ArialMT-32" transform="translate(83.398438 0)"/>
      </g>
     </g>
    </g>
    <g id="xtick_3">
     <g id="line2d_3">
      <g>
       <use xlink:href="#m31a829985f" x="333.361771" y="384.151719" style="stroke: #000000; stroke-width: 0.8"/>
      </g>
     </g>
     <g id="text_3">
      <!-- 0.4 -->
      <g transform="translate(325.716771 399.025312) scale(0.11 -0.11)">
       <defs>
        <path id="ArialMT-34" d="M 2069 0 
L 2069 1097 
L 81 1097 
L 81 1613 
L 2172 4581 
L 2631 4581 
L 2631 1613 
L 3250 1613 
L 3250 1097 
L 2631 1097 
L 2631 0 
L 2069 0 
z
M 2069 1613 
L 2069 3678 
L 634 1613 
L 2069 1613 
z
" transform="scale(0.015625)"/>
       </defs>
       <use xlink:href="#ArialMT-30"/>
       <use xlink:href="#ArialMT-2e" transform="translate(55.615234 0)"/>
       <use xlink:href="#ArialMT-34" transform="translate(83.398438 0)"/>
      </g>
     </g>
    </g>
    <g id="xtick_4">
     <g id="line2d_4">
      <g>
       <use xlink:href="#m31a829985f" x="463.860333" y="384.151719" style="stroke: #000000; stroke-width: 0.8"/>
      </g>
     </g>
     <g id="text_4">
      <!-- 0.6 -->
      <g transform="translate(456.215333 399.025312) scale(0.11 -0.11)">
       <defs>
        <path id="ArialMT-36" d="M 3184 3459 
L 2625 3416 
Q 2550 3747 2413 3897 
Q 2184 4138 1850 4138 
Q 1581 4138 1378 3988 
Q 1113 3794 959 3422 
Q 806 3050 800 2363 
Q 1003 2672 1297 2822 
Q 1591 2972 1913 2972 
Q 2475 2972 2870 2558 
Q 3266 2144 3266 1488 
Q 3266 1056 3080 686 
Q 2894 316 2569 119 
Q 2244 -78 1831 -78 
Q 1128 -78 684 439 
Q 241 956 241 2144 
Q 241 3472 731 4075 
Q 1159 4600 1884 4600 
Q 2425 4600 2770 4297 
Q 3116 3994 3184 3459 
z
M 888 1484 
Q 888 1194 1011 928 
Q 1134 663 1356 523 
Q 1578 384 1822 384 
Q 2178 384 2434 671 
Q 2691 959 2691 1453 
Q 2691 1928 2437 2201 
Q 2184 2475 1800 2475 
Q 1419 2475 1153 2201 
Q 888 1928 888 1484 
z
" transform="scale(0.015625)"/>
       </defs>
       <use xlink:href="#ArialMT-30"/>
       <use xlink:href="#ArialMT-2e" transform="translate(55.615234 0)"/>
       <use xlink:href="#ArialMT-36" transform="translate(83.398438 0)"/>
      </g>
     </g>
    </g>
    <g id="xtick_5">
     <g id="line2d_5">
      <g>
       <use xlink:href="#m31a829985f" x="594.358895" y="384.151719" style="stroke: #000000; stroke-width: 0.8"/>
      </g>
     </g>
     <g id="text_5">
      <!-- 0.8 -->
      <g transform="translate(586.713895 399.025312) scale(0.11 -0.11)">
       <defs>
        <path id="ArialMT-38" d="M 1131 2484 
Q 781 2613 612 2850 
Q 444 3088 444 3419 
Q 444 3919 803 4259 
Q 1163 4600 1759 4600 
Q 2359 4600 2725 4251 
Q 3091 3903 3091 3403 
Q 3091 3084 2923 2848 
Q 2756 2613 2416 2484 
Q 2838 2347 3058 2040 
Q 3278 1734 3278 1309 
Q 3278 722 2862 322 
Q 2447 -78 1769 -78 
Q 1091 -78 675 323 
Q 259 725 259 1325 
Q 259 1772 486 2073 
Q 713 2375 1131 2484 
z
M 1019 3438 
Q 1019 3113 1228 2906 
Q 1438 2700 1772 2700 
Q 2097 2700 2305 2904 
Q 2513 3109 2513 3406 
Q 2513 3716 2298 3927 
Q 2084 4138 1766 4138 
Q 1444 4138 1231 3931 
Q 1019 3725 1019 3438 
z
M 838 1322 
Q 838 1081 952 856 
Q 1066 631 1291 507 
Q 1516 384 1775 384 
Q 2178 384 2440 643 
Q 2703 903 2703 1303 
Q 2703 1709 2433 1975 
Q 2163 2241 1756 2241 
Q 1359 2241 1098 1978 
Q 838 1716 838 1322 
z
" transform="scale(0.015625)"/>
       </defs>
       <use xlink:href="#ArialMT-30"/>
       <use xlink:href="#ArialMT-2e" transform="translate(55.615234 0)"/>
       <use xlink:href="#ArialMT-38" transform="translate(83.398438 0)"/>
      </g>
     </g>
    </g>
    <g id="text_6">
     <!-- Predicted P(GH First Author) -->
     <g transform="translate(297.70125 413.947187) scale(0.12 -0.12)">
      <defs>
       <path id="ArialMT-50" d="M 494 0 
L 494 4581 
L 2222 4581 
Q 2678 4581 2919 4538 
Q 3256 4481 3484 4323 
Q 3713 4166 3852 3881 
Q 3991 3597 3991 3256 
Q 3991 2672 3619 2267 
Q 3247 1863 2275 1863 
L 1100 1863 
L 1100 0 
L 494 0 
z
M 1100 2403 
L 2284 2403 
Q 2872 2403 3119 2622 
Q 3366 2841 3366 3238 
Q 3366 3525 3220 3729 
Q 3075 3934 2838 4000 
Q 2684 4041 2272 4041 
L 1100 4041 
L 1100 2403 
z
" transform="scale(0.015625)"/>
       <path id="ArialMT-72" d="M 416 0 
L 416 3319 
L 922 3319 
L 922 2816 
Q 1116 3169 1280 3281 
Q 1444 3394 1641 3394 
Q 1925 3394 2219 3213 
L 2025 2691 
Q 1819 2813 1613 2813 
Q 1428 2813 1281 2702 
Q 1134 2591 1072 2394 
Q 978 2094 978 1738 
L 978 0 
L 416 0 
z
" transform="scale(0.015625)"/>
       <path id="ArialMT-65" d="M 2694 1069 
L 3275 997 
Q 3138 488 2766 206 
Q 2394 -75 1816 -75 
Q 1088 -75 661 373 
Q 234 822 234 1631 
Q 234 2469 665 2931 
Q 1097 3394 1784 3394 
Q 2450 3394 2872 2941 
Q 3294 2488 3294 1666 
Q 3294 1616 3291 1516 
L 816 1516 
Q 847 969 1125 678 
Q 1403 388 1819 388 
Q 2128 388 2347 550 
Q 2566 713 2694 1069 
z
M 847 1978 
L 2700 1978 
Q 2663 2397 2488 2606 
Q 2219 2931 1791 2931 
Q 1403 2931 1139 2672 
Q 875 2413 847 1978 
z
" transform="scale(0.015625)"/>
       <path id="ArialMT-64" d="M 2575 0 
L 2575 419 
Q 2259 -75 1647 -75 
Q 1250 -75 917 144 
Q 584 363 401 755 
Q 219 1147 219 1656 
Q 219 2153 384 2558 
Q 550 2963 881 3178 
Q 1213 3394 1622 3394 
Q 1922 3394 2156 3267 
Q 2391 3141 2538 2938 
L 2538 4581 
L 3097 4581 
L 3097 0 
L 2575 0 
z
M 797 1656 
Q 797 1019 1065 703 
Q 1334 388 1700 388 
Q 2069 388 2326 689 
Q 2584 991 2584 1609 
Q 2584 2291 2321 2609 
Q 2059 2928 1675 2928 
Q 1300 2928 1048 2622 
Q 797 2316 797 1656 
z
" transform="scale(0.015625)"/>
       <path id="ArialMT-69" d="M 425 3934 
L 425 4581 
L 988 4581 
L 988 3934 
L 425 3934 
z
M 425 0 
L 425 3319 
L 988 3319 
L 988 0 
L 425 0 
z
" transform="scale(0.015625)"/>
       <path id="ArialMT-63" d="M 2588 1216 
L 3141 1144 
Q 3050 572 2676 248 
Q 2303 -75 1759 -75 
Q 1078 -75 664 370 
Q 250 816 250 1647 
Q 250 2184 428 2587 
Q 606 2991 970 3192 
Q 1334 3394 1763 3394 
Q 2303 3394 2647 3120 
Q 2991 2847 3088 2344 
L 2541 2259 
Q 2463 2594 2264 2762 
Q 2066 2931 1784 2931 
Q 1359 2931 1093 2626 
Q 828 2322 828 1663 
Q 828 994 1084 691 
Q 1341 388 1753 388 
Q 2084 388 2306 591 
Q 2528 794 2588 1216 
z
" transform="scale(0.015625)"/>
       <path id="ArialMT-74" d="M 1650 503 
L 1731 6 
Q 1494 -44 1306 -44 
Q 1000 -44 831 53 
Q 663 150 594 308 
Q 525 466 525 972 
L 525 2881 
L 113 2881 
L 113 3319 
L 525 3319 
L 525 4141 
L 1084 4478 
L 1084 3319 
L 1650 3319 
L 1650 2881 
L 1084 2881 
L 1084 941 
Q 1084 700 1114 631 
Q 1144 563 1211 522 
Q 1278 481 1403 481 
Q 1497 481 1650 503 
z
" transform="scale(0.015625)"/>
       <path id="ArialMT-20" transform="scale(0.015625)"/>
       <path id="ArialMT-28" d="M 1497 -1347 
Q 1031 -759 709 28 
Q 388 816 388 1659 
Q 388 2403 628 3084 
Q 909 3875 1497 4659 
L 1900 4659 
Q 1522 4009 1400 3731 
Q 1209 3300 1100 2831 
Q 966 2247 966 1656 
Q 966 153 1900 -1347 
L 1497 -1347 
z
" transform="scale(0.015625)"/>
       <path id="ArialMT-47" d="M 2638 1797 
L 2638 2334 
L 4578 2338 
L 4578 638 
Q 4131 281 3656 101 
Q 3181 -78 2681 -78 
Q 2006 -78 1454 211 
Q 903 500 622 1047 
Q 341 1594 341 2269 
Q 341 2938 620 3517 
Q 900 4097 1425 4378 
Q 1950 4659 2634 4659 
Q 3131 4659 3532 4498 
Q 3934 4338 4162 4050 
Q 4391 3763 4509 3300 
L 3963 3150 
Q 3859 3500 3706 3700 
Q 3553 3900 3268 4020 
Q 2984 4141 2638 4141 
Q 2222 4141 1919 4014 
Q 1616 3888 1430 3681 
Q 1244 3475 1141 3228 
Q 966 2803 966 2306 
Q 966 1694 1177 1281 
Q 1388 869 1791 669 
Q 2194 469 2647 469 
Q 3041 469 3416 620 
Q 3791 772 3984 944 
L 3984 1797 
L 2638 1797 
z
" transform="scale(0.015625)"/>
       <path id="ArialMT-48" d="M 513 0 
L 513 4581 
L 1119 4581 
L 1119 2700 
L 3500 2700 
L 3500 4581 
L 4106 4581 
L 4106 0 
L 3500 0 
L 3500 2159 
L 1119 2159 
L 1119 0 
L 513 0 
z
" transform="scale(0.015625)"/>
       <path id="ArialMT-46" d="M 525 0 
L 525 4581 
L 3616 4581 
L 3616 4041 
L 1131 4041 
L 1131 2622 
L 3281 2622 
L 3281 2081 
L 1131 2081 
L 1131 0 
L 525 0 
z
" transform="scale(0.015625)"/>
       <path id="ArialMT-73" d="M 197 991 
L 753 1078 
Q 800 744 1014 566 
Q 1228 388 1613 388 
Q 2000 388 2187 545 
Q 2375 703 2375 916 
Q 2375 1106 2209 1216 
Q 2094 1291 1634 1406 
Q 1016 1563 777 1677 
Q 538 1791 414 1992 
Q 291 2194 291 2438 
Q 291 2659 392 2848 
Q 494 3038 669 3163 
Q 800 3259 1026 3326 
Q 1253 3394 1513 3394 
Q 1903 3394 2198 3281 
Q 2494 3169 2634 2976 
Q 2775 2784 2828 2463 
L 2278 2388 
Q 2241 2644 2061 2787 
Q 1881 2931 1553 2931 
Q 1166 2931 1000 2803 
Q 834 2675 834 2503 
Q 834 2394 903 2306 
Q 972 2216 1119 2156 
Q 1203 2125 1616 2013 
Q 2213 1853 2448 1751 
Q 2684 1650 2818 1456 
Q 2953 1263 2953 975 
Q 2953 694 2789 445 
Q 2625 197 2315 61 
Q 2006 -75 1616 -75 
Q 969 -75 630 194 
Q 291 463 197 991 
z
" transform="scale(0.015625)"/>
       <path id="ArialMT-41" d="M -9 0 
L 1750 4581 
L 2403 4581 
L 4278 0 
L 3588 0 
L 3053 1388 
L 1138 1388 
L 634 0 
L -9 0 
z
M 1313 1881 
L 2866 1881 
L 2388 3150 
Q 2169 3728 2063 4100 
Q 1975 3659 1816 3225 
L 1313 1881 
z
" transform="scale(0.015625)"/>
       <path id="ArialMT-75" d="M 2597 0 
L 2597 488 
Q 2209 -75 1544 -75 
Q 1250 -75 995 37 
Q 741 150 617 320 
Q 494 491 444 738 
Q 409 903 409 1263 
L 409 3319 
L 972 3319 
L 972 1478 
Q 972 1038 1006 884 
Q 1059 663 1231 536 
Q 1403 409 1656 409 
Q 1909 409 2131 539 
Q 2353 669 2445 892 
Q 2538 1116 2538 1541 
L 2538 3319 
L 3100 3319 
L 3100 0 
L 2597 0 
z
" transform="scale(0.015625)"/>
       <path id="ArialMT-68" d="M 422 0 
L 422 4581 
L 984 4581 
L 984 2938 
Q 1378 3394 1978 3394 
Q 2347 3394 2619 3248 
Q 2891 3103 3008 2847 
Q 3125 2591 3125 2103 
L 3125 0 
L 2563 0 
L 2563 2103 
Q 2563 2525 2380 2717 
Q 2197 2909 1863 2909 
Q 1613 2909 1392 2779 
Q 1172 2650 1078 2428 
Q 984 2206 984 1816 
L 984 0 
L 422 0 
z
" transform="scale(0.015625)"/>
       <path id="ArialMT-6f" d="M 213 1659 
Q 213 2581 725 3025 
Q 1153 3394 1769 3394 
Q 2453 3394 2887 2945 
Q 3322 2497 3322 1706 
Q 3322 1066 3130 698 
Q 2938 331 2570 128 
Q 2203 -75 1769 -75 
Q 1072 -75 642 372 
Q 213 819 213 1659 
z
M 791 1659 
Q 791 1022 1069 705 
Q 1347 388 1769 388 
Q 2188 388 2466 706 
Q 2744 1025 2744 1678 
Q 2744 2294 2464 2611 
Q 2184 2928 1769 2928 
Q 1347 2928 1069 2612 
Q 791 2297 791 1659 
z
" transform="scale(0.015625)"/>
       <path id="ArialMT-29" d="M 791 -1347 
L 388 -1347 
Q 1322 153 1322 1656 
Q 1322 2244 1188 2822 
Q 1081 3291 891 3722 
Q 769 4003 388 4659 
L 791 4659 
Q 1378 3875 1659 3084 
Q 1900 2403 1900 1659 
Q 1900 816 1576 28 
Q 1253 -759 791 -1347 
z
" transform="scale(0.015625)"/>
      </defs>
      <use xlink:href="#ArialMT-50"/>
      <use xlink:href="#ArialMT-72" transform="translate(66.699219 0)"/>
      <use xlink:href="#ArialMT-65" transform="translate(100 0)"/>
      <use xlink:href="#ArialMT-64" transform="translate(155.615234 0)"/>
      <use xlink:href="#ArialMT-69" transform="translate(211.230469 0)"/>
      <use xlink:href="#ArialMT-63" transform="translate(233.447266 0)"/>
      <use xlink:href="#ArialMT-74" transform="translate(283.447266 0)"/>
      <use xlink:href="#ArialMT-65" transform="translate(311.230469 0)"/>
      <use xlink:href="#ArialMT-64" transform="translate(366.845703 0)"/>
      <use xlink:href="#ArialMT-20" transform="translate(422.460938 0)"/>
      <use xlink:href="#ArialMT-50" transform="translate(450.244141 0)"/>
      <use xlink:href="#ArialMT-28" transform="translate(516.943359 0)"/>
      <use xlink:href="#ArialMT-47" transform="translate(550.244141 0)"/>
      <use xlink:href="#ArialMT-48" transform="translate(628.027344 0)"/>
      <use xlink:href="#ArialMT-20" transform="translate(700.244141 0)"/>
      <use xlink:href="#ArialMT-46" transform="translate(728.027344 0)"/>
      <use xlink:href="#ArialMT-69" transform="translate(789.111328 0)"/>
      <use xlink:href="#ArialMT-72" transform="translate(811.328125 0)"/>
      <use xlink:href="#ArialMT-73" transform="translate(844.628906 0)"/>
      <use xlink:href="#ArialMT-74" transform="translate(894.628906 0)"/>
      <use xlink:href="#ArialMT-20" transform="translate(922.412109 0)"/>
      <use xlink:href="#ArialMT-41" transform="translate(944.695312 0)"/>
      <use xlink:href="#ArialMT-75" transform="translate(1011.394531 0)"/>
      <use xlink:href="#ArialMT-74" transform="translate(1067.009766 0)"/>
      <use xlink:href="#ArialMT-68" transform="translate(1094.792969 0)"/>
      <use xlink:href="#ArialMT-6f" transform="translate(1150.408203 0)"/>
      <use xlink:href="#ArialMT-72" transform="translate(1206.023438 0)"/>
      <use xlink:href="#ArialMT-29" transform="translate(1239.324219 0)"/>
     </g>
    </g>
   </g>
   <g id="matplotlib.axis_2">
    <g id="ytick_1">
     <g id="line2d_6">
      <defs>
       <path id="mafebab227f" d="M 0 0 
L -3.5 0 
" style="stroke: #000000; stroke-width: 0.8"/>
      </defs>
      <g>
       <use xlink:href="#mafebab227f" x="44.605" y="384.151719" style="stroke: #000000; stroke-width: 0.8"/>
      </g>
     </g>
     <g id="text_7">
      <!-- 0.0 -->
      <g transform="translate(22.315 388.088516) scale(0.11 -0.11)">
       <use xlink:href="#ArialMT-30"/>
       <use xlink:href="#ArialMT-2e" transform="translate(55.615234 0)"/>
       <use xlink:href="#ArialMT-30" transform="translate(83.398438 0)"/>
      </g>
     </g>
    </g>
    <g id="ytick_2">
     <g id="line2d_7">
      <g>
       <use xlink:href="#mafebab227f" x="44.605" y="338.360683" style="stroke: #000000; stroke-width: 0.8"/>
      </g>
     </g>
     <g id="text_8">
      <!-- 0.5 -->
      <g transform="translate(22.315 342.29748) scale(0.11 -0.11)">
       <defs>
        <path id="ArialMT-35" d="M 266 1200 
L 856 1250 
Q 922 819 1161 601 
Q 1400 384 1738 384 
Q 2144 384 2425 690 
Q 2706 997 2706 1503 
Q 2706 1984 2436 2262 
Q 2166 2541 1728 2541 
Q 1456 2541 1237 2417 
Q 1019 2294 894 2097 
L 366 2166 
L 809 4519 
L 3088 4519 
L 3088 3981 
L 1259 3981 
L 1013 2750 
Q 1425 3038 1878 3038 
Q 2478 3038 2890 2622 
Q 3303 2206 3303 1553 
Q 3303 931 2941 478 
Q 2500 -78 1738 -78 
Q 1113 -78 717 272 
Q 322 622 266 1200 
z
" transform="scale(0.015625)"/>
       </defs>
       <use xlink:href="#ArialMT-30"/>
       <use xlink:href="#ArialMT-2e" transform="translate(55.615234 0)"/>
       <use xlink:href="#ArialMT-35" transform="translate(83.398438 0)"/>
      </g>
     </g>
    </g>
    <g id="ytick_3">
     <g id="line2d_8">
      <g>
       <use xlink:href="#mafebab227f" x="44.605" y="292.569648" style="stroke: #000000; stroke-width: 0.8"/>
      </g>
     </g>
     <g id="text_9">
      <!-- 1.0 -->
      <g transform="translate(22.315 296.506445) scale(0.11 -0.11)">
       <defs>
        <path id="ArialMT-31" d="M 2384 0 
L 1822 0 
L 1822 3584 
Q 1619 3391 1289 3197 
Q 959 3003 697 2906 
L 697 3450 
Q 1169 3672 1522 3987 
Q 1875 4303 2022 4600 
L 2384 4600 
L 2384 0 
z
" transform="scale(0.015625)"/>
       </defs>
       <use xlink:href="#ArialMT-31"/>
       <use xlink:href="#ArialMT-2e" transform="translate(55.615234 0)"/>
       <use xlink:href="#ArialMT-30" transform="translate(83.398438 0)"/>
      </g>
     </g>
    </g>
    <g id="ytick_4">
     <g id="line2d_9">
      <g>
       <use xlink:href="#mafebab227f" x="44.605" y="246.778613" style="stroke: #000000; stroke-width: 0.8"/>
      </g>
     </g>
     <g id="text_10">
      <!-- 1.5 -->
      <g transform="translate(22.315 250.715409) scale(0.11 -0.11)">
       <use xlink:href="#ArialMT-31"/>
       <use xlink:href="#ArialMT-2e" transform="translate(55.615234 0)"/>
       <use xlink:href="#ArialMT-35" transform="translate(83.398438 0)"/>
      </g>
     </g>
    </g>
    <g id="ytick_5">
     <g id="line2d_10">
      <g>
       <use xlink:href="#mafebab227f" x="44.605" y="200.987577" style="stroke: #000000; stroke-width: 0.8"/>
      </g>
     </g>
     <g id="text_11">
      <!-- 2.0 -->
      <g transform="translate(22.315 204.924374) scale(0.11 -0.11)">
       <use xlink:href="#ArialMT-32"/>
       <use xlink:href="#ArialMT-2e" transform="translate(55.615234 0)"/>
       <use xlink:href="#ArialMT-30" transform="translate(83.398438 0)"/>
      </g>
     </g>
    </g>
    <g id="ytick_6">
     <g id="line2d_11">
      <g>
       <use xlink:href="#mafebab227f" x="44.605" y="155.196542" style="stroke: #000000; stroke-width: 0.8"/>
      </g>
     </g>
     <g id="text_12">
      <!-- 2.5 -->
      <g transform="translate(22.315 159.133339) scale(0.11 -0.11)">
       <use xlink:href="#ArialMT-32"/>
       <use xlink:href="#ArialMT-2e" transform="translate(55.615234 0)"/>
       <use xlink:href="#ArialMT-35" transform="translate(83.398438 0)"/>
      </g>
     </g>
    </g>
    <g id="ytick_7">
     <g id="line2d_12">
      <g>
       <use xlink:href="#mafebab227f" x="44.605" y="109.405506" style="stroke: #000000; stroke-width: 0.8"/>
      </g>
     </g>
     <g id="text_13">
      <!-- 3.0 -->
      <g transform="translate(22.315 113.342303) scale(0.11 -0.11)">
       <defs>
        <path id="ArialMT-33" d="M 269 1209 
L 831 1284 
Q 928 806 1161 595 
Q 1394 384 1728 384 
Q 2125 384 2398 659 
Q 2672 934 2672 1341 
Q 2672 1728 2419 1979 
Q 2166 2231 1775 2231 
Q 1616 2231 1378 2169 
L 1441 2663 
Q 1497 2656 1531 2656 
Q 1891 2656 2178 2843 
Q 2466 3031 2466 3422 
Q 2466 3731 2256 3934 
Q 2047 4138 1716 4138 
Q 1388 4138 1169 3931 
Q 950 3725 888 3313 
L 325 3413 
Q 428 3978 793 4289 
Q 1159 4600 1703 4600 
Q 2078 4600 2393 4439 
Q 2709 4278 2876 4000 
Q 3044 3722 3044 3409 
Q 3044 3113 2884 2869 
Q 2725 2625 2413 2481 
Q 2819 2388 3044 2092 
Q 3269 1797 3269 1353 
Q 3269 753 2831 336 
Q 2394 -81 1725 -81 
Q 1122 -81 723 278 
Q 325 638 269 1209 
z
" transform="scale(0.015625)"/>
       </defs>
       <use xlink:href="#ArialMT-33"/>
       <use xlink:href="#ArialMT-2e" transform="translate(55.615234 0)"/>
       <use xlink:href="#ArialMT-30" transform="translate(83.398438 0)"/>
      </g>
     </g>
    </g>
    <g id="ytick_8">
     <g id="line2d_13">
      <g>
       <use xlink:href="#mafebab227f" x="44.605" y="63.614471" style="stroke: #000000; stroke-width: 0.8"/>
      </g>
     </g>
     <g id="text_14">
      <!-- 3.5 -->
      <g transform="translate(22.315 67.551268) scale(0.11 -0.11)">
       <use xlink:href="#ArialMT-33"/>
       <use xlink:href="#ArialMT-2e" transform="translate(55.615234 0)"/>
       <use xlink:href="#ArialMT-35" transform="translate(83.398438 0)"/>
      </g>
     </g>
    </g>
    <g id="text_15">
     <!-- Density -->
     <g transform="translate(15.789375 223.417969) rotate(-90) scale(0.12 -0.12)">
      <defs>
       <path id="ArialMT-44" d="M 494 0 
L 494 4581 
L 2072 4581 
Q 2606 4581 2888 4516 
Q 3281 4425 3559 4188 
Q 3922 3881 4101 3404 
Q 4281 2928 4281 2316 
Q 4281 1794 4159 1391 
Q 4038 988 3847 723 
Q 3656 459 3429 307 
Q 3203 156 2883 78 
Q 2563 0 2147 0 
L 494 0 
z
M 1100 541 
L 2078 541 
Q 2531 541 2789 625 
Q 3047 709 3200 863 
Q 3416 1078 3536 1442 
Q 3656 1806 3656 2325 
Q 3656 3044 3420 3430 
Q 3184 3816 2847 3947 
Q 2603 4041 2063 4041 
L 1100 4041 
L 1100 541 
z
" transform="scale(0.015625)"/>
       <path id="ArialMT-6e" d="M 422 0 
L 422 3319 
L 928 3319 
L 928 2847 
Q 1294 3394 1984 3394 
Q 2284 3394 2536 3286 
Q 2788 3178 2913 3003 
Q 3038 2828 3088 2588 
Q 3119 2431 3119 2041 
L 3119 0 
L 2556 0 
L 2556 2019 
Q 2556 2363 2490 2533 
Q 2425 2703 2258 2804 
Q 2091 2906 1866 2906 
Q 1506 2906 1245 2678 
Q 984 2450 984 1813 
L 984 0 
L 422 0 
z
" transform="scale(0.015625)"/>
       <path id="ArialMT-79" d="M 397 -1278 
L 334 -750 
Q 519 -800 656 -800 
Q 844 -800 956 -737 
Q 1069 -675 1141 -563 
Q 1194 -478 1313 -144 
Q 1328 -97 1363 -6 
L 103 3319 
L 709 3319 
L 1400 1397 
Q 1534 1031 1641 628 
Q 1738 1016 1872 1384 
L 2581 3319 
L 3144 3319 
L 1881 -56 
Q 1678 -603 1566 -809 
Q 1416 -1088 1222 -1217 
Q 1028 -1347 759 -1347 
Q 597 -1347 397 -1278 
z
" transform="scale(0.015625)"/>
      </defs>
      <use xlink:href="#ArialMT-44"/>
      <use xlink:href="#ArialMT-65" transform="translate(72.216797 0)"/>
      <use xlink:href="#ArialMT-6e" transform="translate(127.832031 0)"/>
      <use xlink:href="#ArialMT-73" transform="translate(183.447266 0)"/>
      <use xlink:href="#ArialMT-69" transform="translate(233.447266 0)"/>
      <use xlink:href="#ArialMT-74" transform="translate(255.664062 0)"/>
      <use xlink:href="#ArialMT-79" transform="translate(283.447266 0)"/>
     </g>
    </g>
   </g>
   <g id="line2d_14">
    <path d="M 398.611052 384.151719 
L 398.611052 22.671719 
" clip-path="url(#pdaf1f8d151)" style="fill: none; stroke-dasharray: 5.55,2.4; stroke-dashoffset: 0; stroke: #000000; stroke-width: 1.5"/>
   </g>
   <g id="line2d_15">
    <path d="M 529.109614 384.151719 
L 529.109614 22.671719 
" clip-path="url(#pdaf1f8d151)" style="fill: none; stroke-dasharray: 1.5,2.475; stroke-dashoffset: 0; stroke: #f59e0b; stroke-width: 1.5"/>
   </g>
   <g id="patch_103">
    <path d="M 44.605 384.151719 
L 44.605 22.671719 
" style="fill: none; stroke: #000000; stroke-width: 0.8; stroke-linejoin: miter; stroke-linecap: square"/>
   </g>
   <g id="patch_104">
    <path d="M 44.605 384.151719 
L 703.505 384.151719 
" style="fill: none; stroke: #000000; stroke-width: 0.8; stroke-linejoin: miter; stroke-linecap: square"/>
   </g>
   <g id="text_16">
    <!-- XGBoost Prediction Distribution by Actual Outcome -->
    <g transform="translate(226.658359 16.671719) scale(0.13 -0.13)">
     <defs>
      <path id="ArialMT-58" d="M 28 0 
L 1800 2388 
L 238 4581 
L 959 4581 
L 1791 3406 
Q 2050 3041 2159 2844 
Q 2313 3094 2522 3366 
L 3444 4581 
L 4103 4581 
L 2494 2422 
L 4228 0 
L 3478 0 
L 2325 1634 
Q 2228 1775 2125 1941 
Q 1972 1691 1906 1597 
L 756 0 
L 28 0 
z
" transform="scale(0.015625)"/>
      <path id="ArialMT-42" d="M 469 0 
L 469 4581 
L 2188 4581 
Q 2713 4581 3030 4442 
Q 3347 4303 3526 4014 
Q 3706 3725 3706 3409 
Q 3706 3116 3547 2856 
Q 3388 2597 3066 2438 
Q 3481 2316 3704 2022 
Q 3928 1728 3928 1328 
Q 3928 1006 3792 729 
Q 3656 453 3456 303 
Q 3256 153 2954 76 
Q 2653 0 2216 0 
L 469 0 
z
M 1075 2656 
L 2066 2656 
Q 2469 2656 2644 2709 
Q 2875 2778 2992 2937 
Q 3109 3097 3109 3338 
Q 3109 3566 3000 3739 
Q 2891 3913 2687 3977 
Q 2484 4041 1991 4041 
L 1075 4041 
L 1075 2656 
z
M 1075 541 
L 2216 541 
Q 2509 541 2628 563 
Q 2838 600 2978 687 
Q 3119 775 3209 942 
Q 3300 1109 3300 1328 
Q 3300 1584 3169 1773 
Q 3038 1963 2805 2039 
Q 2572 2116 2134 2116 
L 1075 2116 
L 1075 541 
z
" transform="scale(0.015625)"/>
      <path id="ArialMT-62" d="M 941 0 
L 419 0 
L 419 4581 
L 981 4581 
L 981 2947 
Q 1338 3394 1891 3394 
Q 2197 3394 2470 3270 
Q 2744 3147 2920 2923 
Q 3097 2700 3197 2384 
Q 3297 2069 3297 1709 
Q 3297 856 2875 390 
Q 2453 -75 1863 -75 
Q 1275 -75 941 416 
L 941 0 
z
M 934 1684 
Q 934 1088 1097 822 
Q 1363 388 1816 388 
Q 2184 388 2453 708 
Q 2722 1028 2722 1663 
Q 2722 2313 2464 2622 
Q 2206 2931 1841 2931 
Q 1472 2931 1203 2611 
Q 934 2291 934 1684 
z
" transform="scale(0.015625)"/>
      <path id="ArialMT-61" d="M 2588 409 
Q 2275 144 1986 34 
Q 1697 -75 1366 -75 
Q 819 -75 525 192 
Q 231 459 231 875 
Q 231 1119 342 1320 
Q 453 1522 633 1644 
Q 813 1766 1038 1828 
Q 1203 1872 1538 1913 
Q 2219 1994 2541 2106 
Q 2544 2222 2544 2253 
Q 2544 2597 2384 2738 
Q 2169 2928 1744 2928 
Q 1347 2928 1158 2789 
Q 969 2650 878 2297 
L 328 2372 
Q 403 2725 575 2942 
Q 747 3159 1072 3276 
Q 1397 3394 1825 3394 
Q 2250 3394 2515 3294 
Q 2781 3194 2906 3042 
Q 3031 2891 3081 2659 
Q 3109 2516 3109 2141 
L 3109 1391 
Q 3109 606 3145 398 
Q 3181 191 3288 0 
L 2700 0 
Q 2613 175 2588 409 
z
M 2541 1666 
Q 2234 1541 1622 1453 
Q 1275 1403 1131 1340 
Q 988 1278 909 1158 
Q 831 1038 831 891 
Q 831 666 1001 516 
Q 1172 366 1500 366 
Q 1825 366 2078 508 
Q 2331 650 2450 897 
Q 2541 1088 2541 1459 
L 2541 1666 
z
" transform="scale(0.015625)"/>
      <path id="ArialMT-6c" d="M 409 0 
L 409 4581 
L 972 4581 
L 972 0 
L 409 0 
z
" transform="scale(0.015625)"/>
      <path id="ArialMT-4f" d="M 309 2231 
Q 309 3372 921 4017 
Q 1534 4663 2503 4663 
Q 3138 4663 3647 4359 
Q 4156 4056 4423 3514 
Q 4691 2972 4691 2284 
Q 4691 1588 4409 1038 
Q 4128 488 3612 205 
Q 3097 -78 2500 -78 
Q 1853 -78 1343 234 
Q 834 547 571 1087 
Q 309 1628 309 2231 
z
M 934 2222 
Q 934 1394 1379 917 
Q 1825 441 2497 441 
Q 3181 441 3623 922 
Q 4066 1403 4066 2288 
Q 4066 2847 3877 3264 
Q 3688 3681 3323 3911 
Q 2959 4141 2506 4141 
Q 1863 4141 1398 3698 
Q 934 3256 934 2222 
z
" transform="scale(0.015625)"/>
      <path id="ArialMT-6d" d="M 422 0 
L 422 3319 
L 925 3319 
L 925 2853 
Q 1081 3097 1340 3245 
Q 1600 3394 1931 3394 
Q 2300 3394 2536 3241 
Q 2772 3088 2869 2813 
Q 3263 3394 3894 3394 
Q 4388 3394 4653 3120 
Q 4919 2847 4919 2278 
L 4919 0 
L 4359 0 
L 4359 2091 
Q 4359 2428 4304 2576 
Q 4250 2725 4106 2815 
Q 3963 2906 3769 2906 
Q 3419 2906 3187 2673 
Q 2956 2441 2956 1928 
L 2956 0 
L 2394 0 
L 2394 2156 
Q 2394 2531 2256 2718 
Q 2119 2906 1806 2906 
Q 1569 2906 1367 2781 
Q 1166 2656 1075 2415 
Q 984 2175 984 1722 
L 984 0 
L 422 0 
z
" transform="scale(0.015625)"/>
     </defs>
     <use xlink:href="#ArialMT-58"/>
     <use xlink:href="#ArialMT-47" transform="translate(66.699219 0)"/>
     <use xlink:href="#ArialMT-42" transform="translate(144.482422 0)"/>
     <use xlink:href="#ArialMT-6f" transform="translate(211.181641 0)"/>
     <use xlink:href="#ArialMT-6f" transform="translate(266.796875 0)"/>
     <use xlink:href="#ArialMT-73" transform="translate(322.412109 0)"/>
     <use xlink:href="#ArialMT-74" transform="translate(372.412109 0)"/>
     <use xlink:href="#ArialMT-20" transform="translate(400.195312 0)"/>
     <use xlink:href="#ArialMT-50" transform="translate(427.978516 0)"/>
     <use xlink:href="#ArialMT-72" transform="translate(494.677734 0)"/>
     <use xlink:href="#ArialMT-65" transform="translate(527.978516 0)"/>
     <use xlink:href="#ArialMT-64" transform="translate(583.59375 0)"/>
     <use xlink:href="#ArialMT-69" transform="translate(639.208984 0)"/>
     <use xlink:href="#ArialMT-63" transform="translate(661.425781 0)"/>
     <use xlink:href="#ArialMT-74" transform="translate(711.425781 0)"/>
     <use xlink:href="#ArialMT-69" transform="translate(739.208984 0)"/>
     <use xlink:href="#ArialMT-6f" transform="translate(761.425781 0)"/>
     <use xlink:href="#ArialMT-6e" transform="translate(817.041016 0)"/>
     <use xlink:href="#ArialMT-20" transform="translate(872.65625 0)"/>
     <use xlink:href="#ArialMT-44" transform="translate(900.439453 0)"/>
     <use xlink:href="#ArialMT-69" transform="translate(972.65625 0)"/>
     <use xlink:href="#ArialMT-73" transform="translate(994.873047 0)"/>
     <use xlink:href="#ArialMT-74" transform="translate(1044.873047 0)"/>
     <use xlink:href="#ArialMT-72" transform="translate(1072.65625 0)"/>
     <use xlink:href="#ArialMT-69" transform="translate(1105.957031 0)"/>
     <use xlink:href="#ArialMT-62" transform="translate(1128.173828 0)"/>
     <use xlink:href="#ArialMT-75" transform="translate(1183.789062 0)"/>
     <use xlink:href="#ArialMT-74" transform="translate(1239.404297 0)"/>
     <use xlink:href="#ArialMT-69" transform="translate(1267.1875 0)"/>
     <use xlink:href="#ArialMT-6f" transform="translate(1289.404297 0)"/>
     <use xlink:href="#ArialMT-6e" transform="translate(1345.019531 0)"/>
     <use xlink:href="#ArialMT-20" transform="translate(1400.634766 0)"/>
     <use xlink:href="#ArialMT-62" transform="translate(1428.417969 0)"/>
     <use xlink:href="#ArialMT-79" transform="translate(1484.033203 0)"/>
     <use xlink:href="#ArialMT-20" transform="translate(1534.033203 0)"/>
     <use xlink:href="#ArialMT-41" transform="translate(1556.316406 0)"/>
     <use xlink:href="#ArialMT-63" transform="translate(1623.015625 0)"/>
     <use xlink:href="#ArialMT-74" transform="translate(1673.015625 0)"/>
     <use xlink:href="#ArialMT-75" transform="translate(1700.798828 0)"/>
     <use xlink:href="#ArialMT-61" transform="translate(1756.414062 0)"/>
     <use xlink:href="#ArialMT-6c" transform="translate(1812.029297 0)"/>
     <use xlink:href="#ArialMT-20" transform="translate(1834.246094 0)"/>
     <use xlink:href="#ArialMT-4f" transform="translate(1862.029297 0)"/>
     <use xlink:href="#ArialMT-75" transform="translate(1939.8125 0)"/>
     <use xlink:href="#ArialMT-74" transform="translate(1995.427734 0)"/>
     <use xlink:href="#ArialMT-63" transform="translate(2023.210938 0)"/>
     <use xlink:href="#ArialMT-6f" transform="translate(2073.210938 0)"/>
     <use xlink:href="#ArialMT-6d" transform="translate(2128.826172 0)"/>
     <use xlink:href="#ArialMT-65" transform="translate(2212.126953 0)"/>
    </g>
   </g>
   <g id="legend_1">
    <g id="patch_105">
     <path d="M 576.360312 81.115469 
L 697.205 81.115469 
Q 699.005 81.115469 699.005 79.315469 
L 699.005 28.971719 
Q 699.005 27.171719 697.205 27.171719 
L 576.360312 27.171719 
Q 574.560313 27.171719 574.560313 28.971719 
L 574.560313 79.315469 
Q 574.560313 81.115469 576.360312 81.115469 
z
" style="fill: #ffffff; opacity: 0.8; stroke: #cccccc; stroke-linejoin: miter"/>
    </g>
    <g id="patch_106">
     <path d="M 578.160313 37.21375 
L 596.160313 37.21375 
L 596.160313 30.91375 
L 578.160313 30.91375 
z
" style="fill: #dc2626; opacity: 0.6"/>
    </g>
    <g id="text_17">
     <!-- Actual: Non-GH First -->
     <g transform="translate(603.360313 37.21375) scale(0.09 -0.09)">
      <defs>
       <path id="ArialMT-3a" d="M 578 2678 
L 578 3319 
L 1219 3319 
L 1219 2678 
L 578 2678 
z
M 578 0 
L 578 641 
L 1219 641 
L 1219 0 
L 578 0 
z
" transform="scale(0.015625)"/>
       <path id="ArialMT-4e" d="M 488 0 
L 488 4581 
L 1109 4581 
L 3516 984 
L 3516 4581 
L 4097 4581 
L 4097 0 
L 3475 0 
L 1069 3600 
L 1069 0 
L 488 0 
z
" transform="scale(0.015625)"/>
       <path id="ArialMT-2d" d="M 203 1375 
L 203 1941 
L 1931 1941 
L 1931 1375 
L 203 1375 
z
" transform="scale(0.015625)"/>
      </defs>
      <use xlink:href="#ArialMT-41"/>
      <use xlink:href="#ArialMT-63" transform="translate(66.699219 0)"/>
      <use xlink:href="#ArialMT-74" transform="translate(116.699219 0)"/>
      <use xlink:href="#ArialMT-75" transform="translate(144.482422 0)"/>
      <use xlink:href="#ArialMT-61" transform="translate(200.097656 0)"/>
      <use xlink:href="#ArialMT-6c" transform="translate(255.712891 0)"/>
      <use xlink:href="#ArialMT-3a" transform="translate(277.929688 0)"/>
      <use xlink:href="#ArialMT-20" transform="translate(305.712891 0)"/>
      <use xlink:href="#ArialMT-4e" transform="translate(333.496094 0)"/>
      <use xlink:href="#ArialMT-6f" transform="translate(405.712891 0)"/>
      <use xlink:href="#ArialMT-6e" transform="translate(461.328125 0)"/>
      <use xlink:href="#ArialMT-2d" transform="translate(516.943359 0)"/>
      <use xlink:href="#ArialMT-47" transform="translate(550.244141 0)"/>
      <use xlink:href="#ArialMT-48" transform="translate(628.027344 0)"/>
      <use xlink:href="#ArialMT-20" transform="translate(700.244141 0)"/>
      <use xlink:href="#ArialMT-46" transform="translate(728.027344 0)"/>
      <use xlink:href="#ArialMT-69" transform="translate(789.111328 0)"/>
      <use xlink:href="#ArialMT-72" transform="translate(811.328125 0)"/>
      <use xlink:href="#ArialMT-73" transform="translate(844.628906 0)"/>
      <use xlink:href="#ArialMT-74" transform="translate(894.628906 0)"/>
     </g>
    </g>
    <g id="patch_107">
     <path d="M 578.160313 49.944531 
L 596.160313 49.944531 
L 596.160313 43.644531 
L 578.160313 43.644531 
z
" style="fill: #059669; opacity: 0.6"/>
    </g>
    <g id="text_18">
     <!-- Actual: GH First -->
     <g transform="translate(603.360313 49.944531) scale(0.09 -0.09)">
      <use xlink:href="#ArialMT-41"/>
      <use xlink:href="#ArialMT-63" transform="translate(66.699219 0)"/>
      <use xlink:href="#ArialMT-74" transform="translate(116.699219 0)"/>
      <use xlink:href="#ArialMT-75" transform="translate(144.482422 0)"/>
      <use xlink:href="#ArialMT-61" transform="translate(200.097656 0)"/>
      <use xlink:href="#ArialMT-6c" transform="translate(255.712891 0)"/>
      <use xlink:href="#ArialMT-3a" transform="translate(277.929688 0)"/>
      <use xlink:href="#ArialMT-20" transform="translate(305.712891 0)"/>
      <use xlink:href="#ArialMT-47" transform="translate(333.496094 0)"/>
      <use xlink:href="#ArialMT-48" transform="translate(411.279297 0)"/>
      <use xlink:href="#ArialMT-20" transform="translate(483.496094 0)"/>
      <use xlink:href="#ArialMT-46" transform="translate(511.279297 0)"/>
      <use xlink:href="#ArialMT-69" transform="translate(572.363281 0)"/>
      <use xlink:href="#ArialMT-72" transform="translate(594.580078 0)"/>
      <use xlink:href="#ArialMT-73" transform="translate(627.880859 0)"/>
      <use xlink:href="#ArialMT-74" transform="translate(677.880859 0)"/>
     </g>
    </g>
    <g id="line2d_16">
     <path d="M 578.160313 59.525312 
L 587.160313 59.525312 
L 596.160313 59.525312 
" style="fill: none; stroke-dasharray: 5.55,2.4; stroke-dashoffset: 0; stroke: #000000; stroke-width: 1.5"/>
    </g>
    <g id="text_19">
     <!-- Decision boundary -->
     <g transform="translate(603.360313 62.675312) scale(0.09 -0.09)">
      <use xlink:href="#ArialMT-44"/>
      <use xlink:href="#ArialMT-65" transform="translate(72.216797 0)"/>
      <use xlink:href="#ArialMT-63" transform="translate(127.832031 0)"/>
      <use xlink:href="#ArialMT-69" transform="translate(177.832031 0)"/>
      <use xlink:href="#ArialMT-73" transform="translate(200.048828 0)"/>
      <use xlink:href="#ArialMT-69" transform="translate(250.048828 0)"/>
      <use xlink:href="#ArialMT-6f" transform="translate(272.265625 0)"/>
      <use xlink:href="#ArialMT-6e" transform="translate(327.880859 0)"/>
      <use xlink:href="#ArialMT-20" transform="translate(383.496094 0)"/>
      <use xlink:href="#ArialMT-62" transform="translate(411.279297 0)"/>
      <use xlink:href="#ArialMT-6f" transform="translate(466.894531 0)"/>
      <use xlink:href="#ArialMT-75" transform="translate(522.509766 0)"/>
      <use xlink:href="#ArialMT-6e" transform="translate(578.125 0)"/>
      <use xlink:href="#ArialMT-64" transform="translate(633.740234 0)"/>
      <use xlink:href="#ArialMT-61" transform="translate(689.355469 0)"/>
      <use xlink:href="#ArialMT-72" transform="translate(744.970703 0)"/>
      <use xlink:href="#ArialMT-79" transform="translate(778.271484 0)"/>
     </g>
    </g>
    <g id="line2d_17">
     <path d="M 578.160313 72.47125 
L 587.160313 72.47125 
L 596.160313 72.47125 
" style="fill: none; stroke-dasharray: 1.5,2.475; stroke-dashoffset: 0; stroke: #f59e0b; stroke-width: 1.5"/>
    </g>
    <g id="text_20">
     <!-- Inequity threshold (0.7) -->
     <g transform="translate(603.360313 75.62125) scale(0.09 -0.09)">
      <defs>
       <path id="ArialMT-49" d="M 597 0 
L 597 4581 
L 1203 4581 
L 1203 0 
L 597 0 
z
" transform="scale(0.015625)"/>
       <path id="ArialMT-71" d="M 2538 -1272 
L 2538 353 
Q 2406 169 2170 47 
Q 1934 -75 1669 -75 
Q 1078 -75 651 397 
Q 225 869 225 1691 
Q 225 2191 398 2587 
Q 572 2984 901 3189 
Q 1231 3394 1625 3394 
Q 2241 3394 2594 2875 
L 2594 3319 
L 3100 3319 
L 3100 -1272 
L 2538 -1272 
z
M 803 1669 
Q 803 1028 1072 708 
Q 1341 388 1716 388 
Q 2075 388 2334 692 
Q 2594 997 2594 1619 
Q 2594 2281 2320 2615 
Q 2047 2950 1678 2950 
Q 1313 2950 1058 2639 
Q 803 2328 803 1669 
z
" transform="scale(0.015625)"/>
       <path id="ArialMT-37" d="M 303 3981 
L 303 4522 
L 3269 4522 
L 3269 4084 
Q 2831 3619 2401 2847 
Q 1972 2075 1738 1259 
Q 1569 684 1522 0 
L 944 0 
Q 953 541 1156 1306 
Q 1359 2072 1739 2783 
Q 2119 3494 2547 3981 
L 303 3981 
z
" transform="scale(0.015625)"/>
      </defs>
      <use xlink:href="#ArialMT-49"/>
      <use xlink:href="#ArialMT-6e" transform="translate(27.783203 0)"/>
      <use xlink:href="#ArialMT-65" transform="translate(83.398438 0)"/>
      <use xlink:href="#ArialMT-71" transform="translate(139.013672 0)"/>
      <use xlink:href="#ArialMT-75" transform="translate(194.628906 0)"/>
      <use xlink:href="#ArialMT-69" transform="translate(250.244141 0)"/>
      <use xlink:href="#ArialMT-74" transform="translate(272.460938 0)"/>
      <use xlink:href="#ArialMT-79" transform="translate(300.244141 0)"/>
      <use xlink:href="#ArialMT-20" transform="translate(350.244141 0)"/>
      <use xlink:href="#ArialMT-74" transform="translate(378.027344 0)"/>
      <use xlink:href="#ArialMT-68" transform="translate(405.810547 0)"/>
      <use xlink:href="#ArialMT-72" transform="translate(461.425781 0)"/>
      <use xlink:href="#ArialMT-65" transform="translate(494.726562 0)"/>
      <use xlink:href="#ArialMT-73" transform="translate(550.341797 0)"/>
      <use xlink:href="#ArialMT-68" transform="translate(600.341797 0)"/>
      <use xlink:href="#ArialMT-6f" transform="translate(655.957031 0)"/>
      <use xlink:href="#ArialMT-6c" transform="translate(711.572266 0)"/>
      <use xlink:href="#ArialMT-64" transform="translate(733.789062 0)"/>
      <use xlink:href="#ArialMT-20" transform="translate(789.404297 0)"/>
      <use xlink:href="#ArialMT-28" transform="translate(817.1875 0)"/>
      <use xlink:href="#ArialMT-30" transform="translate(850.488281 0)"/>
      <use xlink:href="#ArialMT-2e" transform="translate(906.103516 0)"/>
      <use xlink:href="#ArialMT-37" transform="translate(933.886719 0)"/>
      <use xlink:href="#ArialMT-29" transform="translate(989.501953 0)"/>
     </g>
    </g>
   </g>
  </g>
 </g>
 <defs>
  <clipPath id="pdaf1f8d151">
   <rect x="44.605" y="22.671719" width="658.9" height="361.48"/>
  </clipPath>
 </defs>
</svg>
