<?xml version="1.0" encoding="utf-8" standalone="no"?>
<!DOCTYPE svg PUBLIC "-//W3C//DTD SVG 1.1//EN"
  "http://www.w3.org/Graphics/SVG/1.1/DTD/svg11.dtd">
<svg xmlns:xlink="http://www.w3.org/1999/xlink" width="998.855313pt" height="423.385937pt" viewBox="0 0 998.855313 423.385937" xmlns="http://www.w3.org/2000/svg" version="1.1">
 <metadata>
  <rdf:RDF xmlns:dc="http://purl.org/dc/elements/1.1/" xmlns:cc="http://creativecommons.org/ns#" xmlns:rdf="http://www.w3.org/1999/02/22-rdf-syntax-ns#">
   <cc:Work>
    <dc:type rdf:resource="http://purl.org/dc/dcmitype/StillImage"/>
    <dc:date>2026-04-13T22:24:59.013472</dc:date>
    <dc:format>image/svg+xml</dc:format>
    <dc:creator>
     <cc:Agent>
      <dc:title>Matplotlib v3.10.8, https://matplotlib.org/</dc:title>
     </cc:Agent>
    </dc:creator>
   </cc:Work>
  </rdf:RDF>
 </metadata>
 <defs>
  <style type="text/css">*{stroke-linejoin: round; stroke-linecap: butt}</style>
 </defs>
 <g id="figure_1">
  <g id="patch_1">
   <path d="M 0 423.385937 
L 998.855313 423.385937 
L 998.855313 0 
L 0 0 
z
" style="fill: #ffffff"/>
  </g>
  <g id="axes_1">
   <g id="patch_2">
    <path d="M 41.695313 384.151719 
L 493.595312 384.151719 
L 493.595312 22.671719 
L 41.695313 22.671719 
z
" style="fill: #ffffff"/>
   </g>
   <g id="matplotlib.axis_1">
    <g id="xtick_1">
     <g id="line2d_1">
      <path d="M 62.236222 384.151719 
L 62.236222 22.671719 
" clip-path="url(#pd5ee275c8c)" style="fill: none; stroke: #b0b0b0; stroke-opacity: 0.3; stroke-width: 0.8; stroke-linecap: square"/>
     </g>
     <g id="line2d_2">
      <defs>
       <path id="mb9a7736ffd" d="M 0 0 
L 0 3.5 
" style="stroke: #000000; stroke-width: 0.8"/>
      </defs>
      <g>
       <use xlink:href="#mb9a7736ffd" x="62.236222" y="384.151719" style="stroke: #000000; stroke-width: 0.8"/>
      </g>
     </g>
     <g id="text_1">
      <!-- 2000 -->
      <g transform="translate(50.002159 399.025312) scale(0.11 -0.11)">
       <defs>
        <path id="ArialMT-32" d="M 3222 541 
L 3222 0 
L 194 0 
Q 188 203 259 391 
Q 375 700 629 1000 
Q 884 1300 1366 1694 
Q 2113 2306 2375 2664 
Q 2638 3022 2638 3341 
Q 2638 3675 2398 3904 
Q 2159 4134 1775 4134 
Q 1369 4134 1125 3890 
Q 881 3647 878 3216 
L 300 3275 
Q 359 3922 746 4261 
Q 1134 4600 1788 4600 
Q 2447 4600 2831 4234 
Q 3216 3869 3216 3328 
Q 3216 3053 3103 2787 
Q 2991 2522 2730 2228 
Q 2469 1934 1863 1422 
Q 1356 997 1212 845 
Q 1069 694 975 541 
L 3222 541 
z
" transform="scale(0.015625)"/>
        <path id="ArialMT-30" d="M 266 2259 
Q 266 3072 433 3567 
Q 600 4063 929 4331 
Q 1259 4600 1759 4600 
Q 2128 4600 2406 4451 
Q 2684 4303 2865 4023 
Q 3047 3744 3150 3342 
Q 3253 2941 3253 2259 
Q 3253 1453 3087 958 
Q 2922 463 2592 192 
Q 2263 -78 1759 -78 
Q 1097 -78 719 397 
Q 266 969 266 2259 
z
M 844 2259 
Q 844 1131 1108 757 
Q 1372 384 1759 384 
Q 2147 384 2411 759 
Q 2675 1134 2675 2259 
Q 2675 3391 2411 3762 
Q 2147 4134 1753 4134 
Q 1366 4134 1134 3806 
Q 844 3388 844 2259 
z
" transform="scale(0.015625)"/>
       </defs>
       <use xlink:href="#ArialMT-32"/>
       <use xlink:href="#ArialMT-30" transform="translate(55.615234 0)"/>
       <use xlink:href="#ArialMT-30" transform="translate(111.230469 0)"/>
       <use xlink:href="#ArialMT-30" transform="translate(166.845703 0)"/>
      </g>
     </g>
    </g>
    <g id="xtick_2">
     <g id="line2d_3">
      <path d="M 144.399858 384.151719 
L 144.399858 22.671719 
" clip-path="url(#pd5ee275c8c)" style="fill: none; stroke: #b0b0b0; stroke-opacity: 0.3; stroke-width: 0.8; stroke-linecap: square"/>
     </g>
     <g id="line2d_4">
      <g>
       <use xlink:href="#mb9a7736ffd" x="144.399858" y="384.151719" style="stroke: #000000; stroke-width: 0.8"/>
      </g>
     </g>
     <g id="text_2">
      <!-- 2005 -->
      <g transform="translate(132.165795 399.025312) scale(0.11 -0.11)">
       <defs>
        <path id="ArialMT-35" d="M 266 1200 
L 856 1250 
Q 922 819 1161 601 
Q 1400 384 1738 384 
Q 2144 384 2425 690 
Q 2706 997 2706 1503 
Q 2706 1984 2436 2262 
Q 2166 2541 1728 2541 
Q 1456 2541 1237 2417 
Q 1019 2294 894 2097 
L 366 2166 
L 809 4519 
L 3088 4519 
L 3088 3981 
L 1259 3981 
L 1013 2750 
Q 1425 3038 1878 3038 
Q 2478 3038 2890 2622 
Q 3303 2206 3303 1553 
Q 3303 931 2941 478 
Q 2500 -78 1738 -78 
Q 1113 -78 717 272 
Q 322 622 266 1200 
z
" transform="scale(0.015625)"/>
       </defs>
       <use xlink:href="#ArialMT-32"/>
       <use xlink:href="#ArialMT-30" transform="translate(55.615234 0)"/>
       <use xlink:href="#ArialMT-30" transform="translate(111.230469 0)"/>
       <use xlink:href="#ArialMT-35" transform="translate(166.845703 0)"/>
      </g>
     </g>
    </g>
    <g id="xtick_3">
     <g id="line2d_5">
      <path d="M 226.563494 384.151719 
L 226.563494 22.671719 
" clip-path="url(#pd5ee275c8c)" style="fill: none; stroke: #b0b0b0; stroke-opacity: 0.3; stroke-width: 0.8; stroke-linecap: square"/>
     </g>
     <g id="line2d_6">
      <g>
       <use xlink:href="#mb9a7736ffd" x="226.563494" y="384.151719" style="stroke: #000000; stroke-width: 0.8"/>
      </g>
     </g>
     <g id="text_3">
      <!-- 2010 -->
      <g transform="translate(214.329432 399.025312) scale(0.11 -0.11)">
       <defs>
        <path id="ArialMT-31" d="M 2384 0 
L 1822 0 
L 1822 3584 
Q 1619 3391 1289 3197 
Q 959 3003 697 2906 
L 697 3450 
Q 1169 3672 1522 3987 
Q 1875 4303 2022 4600 
L 2384 4600 
L 2384 0 
z
" transform="scale(0.015625)"/>
       </defs>
       <use xlink:href="#ArialMT-32"/>
       <use xlink:href="#ArialMT-30" transform="translate(55.615234 0)"/>
       <use xlink:href="#ArialMT-31" transform="translate(111.230469 0)"/>
       <use xlink:href="#ArialMT-30" transform="translate(166.845703 0)"/>
      </g>
     </g>
    </g>
    <g id="xtick_4">
     <g id="line2d_7">
      <path d="M 308.727131 384.151719 
L 308.727131 22.671719 
" clip-path="url(#pd5ee275c8c)" style="fill: none; stroke: #b0b0b0; stroke-opacity: 0.3; stroke-width: 0.8; stroke-linecap: square"/>
     </g>
     <g id="line2d_8">
      <g>
       <use xlink:href="#mb9a7736ffd" x="308.727131" y="384.151719" style="stroke: #000000; stroke-width: 0.8"/>
      </g>
     </g>
     <g id="text_4">
      <!-- 2015 -->
      <g transform="translate(296.493068 399.025312) scale(0.11 -0.11)">
       <use xlink:href="#ArialMT-32"/>
       <use xlink:href="#ArialMT-30" transform="translate(55.615234 0)"/>
       <use xlink:href="#ArialMT-31" transform="translate(111.230469 0)"/>
       <use xlink:href="#ArialMT-35" transform="translate(166.845703 0)"/>
      </g>
     </g>
    </g>
    <g id="xtick_5">
     <g id="line2d_9">
      <path d="M 390.890767 384.151719 
L 390.890767 22.671719 
" clip-path="url(#pd5ee275c8c)" style="fill: none; stroke: #b0b0b0; stroke-opacity: 0.3; stroke-width: 0.8; stroke-linecap: square"/>
     </g>
     <g id="line2d_10">
      <g>
       <use xlink:href="#mb9a7736ffd" x="390.890767" y="384.151719" style="stroke: #000000; stroke-width: 0.8"/>
      </g>
     </g>
     <g id="text_5">
      <!-- 2020 -->
      <g transform="translate(378.656705 399.025312) scale(0.11 -0.11)">
       <use xlink:href="#ArialMT-32"/>
       <use xlink:href="#ArialMT-30" transform="translate(55.615234 0)"/>
       <use xlink:href="#ArialMT-32" transform="translate(111.230469 0)"/>
       <use xlink:href="#ArialMT-30" transform="translate(166.845703 0)"/>
      </g>
     </g>
    </g>
    <g id="xtick_6">
     <g id="line2d_11">
      <path d="M 473.054403 384.151719 
L 473.054403 22.671719 
" clip-path="url(#pd5ee275c8c)" style="fill: none; stroke: #b0b0b0; stroke-opacity: 0.3; stroke-width: 0.8; stroke-linecap: square"/>
     </g>
     <g id="line2d_12">
      <g>
       <use xlink:href="#mb9a7736ffd" x="473.054403" y="384.151719" style="stroke: #000000; stroke-width: 0.8"/>
      </g>
     </g>
     <g id="text_6">
      <!-- 2025 -->
      <g transform="translate(460.820341 399.025312) scale(0.11 -0.11)">
       <use xlink:href="#ArialMT-32"/>
       <use xlink:href="#ArialMT-30" transform="translate(55.615234 0)"/>
       <use xlink:href="#ArialMT-32" transform="translate(111.230469 0)"/>
       <use xlink:href="#ArialMT-35" transform="translate(166.845703 0)"/>
      </g>
     </g>
    </g>
    <g id="text_7">
     <!-- Year -->
     <g transform="translate(255.519687 413.800937) scale(0.12 -0.12)">
      <defs>
       <path id="ArialMT-59" d="M 1784 0 
L 1784 1941 
L 19 4581 
L 756 4581 
L 1659 3200 
Q 1909 2813 2125 2425 
Q 2331 2784 2625 3234 
L 3513 4581 
L 4219 4581 
L 2391 1941 
L 2391 0 
L 1784 0 
z
" transform="scale(0.015625)"/>
       <path id="ArialMT-65" d="M 2694 1069 
L 3275 997 
Q 3138 488 2766 206 
Q 2394 -75 1816 -75 
Q 1088 -75 661 373 
Q 234 822 234 1631 
Q 234 2469 665 2931 
Q 1097 3394 1784 3394 
Q 2450 3394 2872 2941 
Q 3294 2488 3294 1666 
Q 3294 1616 3291 1516 
L 816 1516 
Q 847 969 1125 678 
Q 1403 388 1819 388 
Q 2128 388 2347 550 
Q 2566 713 2694 1069 
z
M 847 1978 
L 2700 1978 
Q 2663 2397 2488 2606 
Q 2219 2931 1791 2931 
Q 1403 2931 1139 2672 
Q 875 2413 847 1978 
z
" transform="scale(0.015625)"/>
       <path id="ArialMT-61" d="M 2588 409 
Q 2275 144 1986 34 
Q 1697 -75 1366 -75 
Q 819 -75 525 192 
Q 231 459 231 875 
Q 231 1119 342 1320 
Q 453 1522 633 1644 
Q 813 1766 1038 1828 
Q 1203 1872 1538 1913 
Q 2219 1994 2541 2106 
Q 2544 2222 2544 2253 
Q 2544 2597 2384 2738 
Q 2169 2928 1744 2928 
Q 1347 2928 1158 2789 
Q 969 2650 878 2297 
L 328 2372 
Q 403 2725 575 2942 
Q 747 3159 1072 3276 
Q 1397 3394 1825 3394 
Q 2250 3394 2515 3294 
Q 2781 3194 2906 3042 
Q 3031 2891 3081 2659 
Q 3109 2516 3109 2141 
L 3109 1391 
Q 3109 606 3145 398 
Q 3181 191 3288 0 
L 2700 0 
Q 2613 175 2588 409 
z
M 2541 1666 
Q 2234 1541 1622 1453 
Q 1275 1403 1131 1340 
Q 988 1278 909 1158 
Q 831 1038 831 891 
Q 831 666 1001 516 
Q 1172 366 1500 366 
Q 1825 366 2078 508 
Q 2331 650 2450 897 
Q 2541 1088 2541 1459 
L 2541 1666 
z
" transform="scale(0.015625)"/>
       <path id="ArialMT-72" d="M 416 0 
L 416 3319 
L 922 3319 
L 922 2816 
Q 1116 3169 1280 3281 
Q 1444 3394 1641 3394 
Q 1925 3394 2219 3213 
L 2025 2691 
Q 1819 2813 1613 2813 
Q 1428 2813 1281 2702 
Q 1134 2591 1072 2394 
Q 978 2094 978 1738 
L 978 0 
L 416 0 
z
" transform="scale(0.015625)"/>
      </defs>
      <use xlink:href="#ArialMT-59"/>
      <use xlink:href="#ArialMT-65" transform="translate(57.574219 0)"/>
      <use xlink:href="#ArialMT-61" transform="translate(113.189453 0)"/>
      <use xlink:href="#ArialMT-72" transform="translate(168.804688 0)"/>
     </g>
    </g>
   </g>
   <g id="matplotlib.axis_2">
    <g id="ytick_1">
     <g id="line2d_13">
      <path d="M 41.695313 339.145316 
L 493.595312 339.145316 
" clip-path="url(#pd5ee275c8c)" style="fill: none; stroke: #b0b0b0; stroke-opacity: 0.3; stroke-width: 0.8; stroke-linecap: square"/>
     </g>
     <g id="line2d_14">
      <defs>
       <path id="macef08710e" d="M 0 0 
L -3.5 0 
" style="stroke: #000000; stroke-width: 0.8"/>
      </defs>
      <g>
       <use xlink:href="#macef08710e" x="41.695313" y="339.145316" style="stroke: #000000; stroke-width: 0.8"/>
      </g>
     </g>
     <g id="text_8">
      <!-- 20 -->
      <g transform="translate(22.46125 343.082112) scale(0.11 -0.11)">
       <use xlink:href="#ArialMT-32"/>
       <use xlink:href="#ArialMT-30" transform="translate(55.615234 0)"/>
      </g>
     </g>
    </g>
    <g id="ytick_2">
     <g id="line2d_15">
      <path d="M 41.695313 289.138201 
L 493.595312 289.138201 
" clip-path="url(#pd5ee275c8c)" style="fill: none; stroke: #b0b0b0; stroke-opacity: 0.3; stroke-width: 0.8; stroke-linecap: square"/>
     </g>
     <g id="line2d_16">
      <g>
       <use xlink:href="#macef08710e" x="41.695313" y="289.138201" style="stroke: #000000; stroke-width: 0.8"/>
      </g>
     </g>
     <g id="text_9">
      <!-- 30 -->
      <g transform="translate(22.46125 293.074998) scale(0.11 -0.11)">
       <defs>
        <path id="ArialMT-33" d="M 269 1209 
L 831 1284 
Q 928 806 1161 595 
Q 1394 384 1728 384 
Q 2125 384 2398 659 
Q 2672 934 2672 1341 
Q 2672 1728 2419 1979 
Q 2166 2231 1775 2231 
Q 1616 2231 1378 2169 
L 1441 2663 
Q 1497 2656 1531 2656 
Q 1891 2656 2178 2843 
Q 2466 3031 2466 3422 
Q 2466 3731 2256 3934 
Q 2047 4138 1716 4138 
Q 1388 4138 1169 3931 
Q 950 3725 888 3313 
L 325 3413 
Q 428 3978 793 4289 
Q 1159 4600 1703 4600 
Q 2078 4600 2393 4439 
Q 2709 4278 2876 4000 
Q 3044 3722 3044 3409 
Q 3044 3113 2884 2869 
Q 2725 2625 2413 2481 
Q 2819 2388 3044 2092 
Q 3269 1797 3269 1353 
Q 3269 753 2831 336 
Q 2394 -81 1725 -81 
Q 1122 -81 723 278 
Q 325 638 269 1209 
z
" transform="scale(0.015625)"/>
       </defs>
       <use xlink:href="#ArialMT-33"/>
       <use xlink:href="#ArialMT-30" transform="translate(55.615234 0)"/>
      </g>
     </g>
    </g>
    <g id="ytick_3">
     <g id="line2d_17">
      <path d="M 41.695313 239.131086 
L 493.595312 239.131086 
" clip-path="url(#pd5ee275c8c)" style="fill: none; stroke: #b0b0b0; stroke-opacity: 0.3; stroke-width: 0.8; stroke-linecap: square"/>
     </g>
     <g id="line2d_18">
      <g>
       <use xlink:href="#macef08710e" x="41.695313" y="239.131086" style="stroke: #000000; stroke-width: 0.8"/>
      </g>
     </g>
     <g id="text_10">
      <!-- 40 -->
      <g transform="translate(22.46125 243.067883) scale(0.11 -0.11)">
       <defs>
        <path id="ArialMT-34" d="M 2069 0 
L 2069 1097 
L 81 1097 
L 81 1613 
L 2172 4581 
L 2631 4581 
L 2631 1613 
L 3250 1613 
L 3250 1097 
L 2631 1097 
L 2631 0 
L 2069 0 
z
M 2069 1613 
L 2069 3678 
L 634 1613 
L 2069 1613 
z
" transform="scale(0.015625)"/>
       </defs>
       <use xlink:href="#ArialMT-34"/>
       <use xlink:href="#ArialMT-30" transform="translate(55.615234 0)"/>
      </g>
     </g>
    </g>
    <g id="ytick_4">
     <g id="line2d_19">
      <path d="M 41.695313 189.123972 
L 493.595312 189.123972 
" clip-path="url(#pd5ee275c8c)" style="fill: none; stroke: #b0b0b0; stroke-opacity: 0.3; stroke-width: 0.8; stroke-linecap: square"/>
     </g>
     <g id="line2d_20">
      <g>
       <use xlink:href="#macef08710e" x="41.695313" y="189.123972" style="stroke: #000000; stroke-width: 0.8"/>
      </g>
     </g>
     <g id="text_11">
      <!-- 50 -->
      <g transform="translate(22.46125 193.060769) scale(0.11 -0.11)">
       <use xlink:href="#ArialMT-35"/>
       <use xlink:href="#ArialMT-30" transform="translate(55.615234 0)"/>
      </g>
     </g>
    </g>
    <g id="ytick_5">
     <g id="line2d_21">
      <path d="M 41.695313 139.116857 
L 493.595312 139.116857 
" clip-path="url(#pd5ee275c8c)" style="fill: none; stroke: #b0b0b0; stroke-opacity: 0.3; stroke-width: 0.8; stroke-linecap: square"/>
     </g>
     <g id="line2d_22">
      <g>
       <use xlink:href="#macef08710e" x="41.695313" y="139.116857" style="stroke: #000000; stroke-width: 0.8"/>
      </g>
     </g>
     <g id="text_12">
      <!-- 60 -->
      <g transform="translate(22.46125 143.053654) scale(0.11 -0.11)">
       <defs>
        <path id="ArialMT-36" d="M 3184 3459 
L 2625 3416 
Q 2550 3747 2413 3897 
Q 2184 4138 1850 4138 
Q 1581 4138 1378 3988 
Q 1113 3794 959 3422 
Q 806 3050 800 2363 
Q 1003 2672 1297 2822 
Q 1591 2972 1913 2972 
Q 2475 2972 2870 2558 
Q 3266 2144 3266 1488 
Q 3266 1056 3080 686 
Q 2894 316 2569 119 
Q 2244 -78 1831 -78 
Q 1128 -78 684 439 
Q 241 956 241 2144 
Q 241 3472 731 4075 
Q 1159 4600 1884 4600 
Q 2425 4600 2770 4297 
Q 3116 3994 3184 3459 
z
M 888 1484 
Q 888 1194 1011 928 
Q 1134 663 1356 523 
Q 1578 384 1822 384 
Q 2178 384 2434 671 
Q 2691 959 2691 1453 
Q 2691 1928 2437 2201 
Q 2184 2475 1800 2475 
Q 1419 2475 1153 2201 
Q 888 1928 888 1484 
z
" transform="scale(0.015625)"/>
       </defs>
       <use xlink:href="#ArialMT-36"/>
       <use xlink:href="#ArialMT-30" transform="translate(55.615234 0)"/>
      </g>
     </g>
    </g>
    <g id="ytick_6">
     <g id="line2d_23">
      <path d="M 41.695313 89.109742 
L 493.595312 89.109742 
" clip-path="url(#pd5ee275c8c)" style="fill: none; stroke: #b0b0b0; stroke-opacity: 0.3; stroke-width: 0.8; stroke-linecap: square"/>
     </g>
     <g id="line2d_24">
      <g>
       <use xlink:href="#macef08710e" x="41.695313" y="89.109742" style="stroke: #000000; stroke-width: 0.8"/>
      </g>
     </g>
     <g id="text_13">
      <!-- 70 -->
      <g transform="translate(22.46125 93.046539) scale(0.11 -0.11)">
       <defs>
        <path id="ArialMT-37" d="M 303 3981 
L 303 4522 
L 3269 4522 
L 3269 4084 
Q 2831 3619 2401 2847 
Q 1972 2075 1738 1259 
Q 1569 684 1522 0 
L 944 0 
Q 953 541 1156 1306 
Q 1359 2072 1739 2783 
Q 2119 3494 2547 3981 
L 303 3981 
z
" transform="scale(0.015625)"/>
       </defs>
       <use xlink:href="#ArialMT-37"/>
       <use xlink:href="#ArialMT-30" transform="translate(55.615234 0)"/>
      </g>
     </g>
    </g>
    <g id="ytick_7">
     <g id="line2d_25">
      <path d="M 41.695313 39.102628 
L 493.595312 39.102628 
" clip-path="url(#pd5ee275c8c)" style="fill: none; stroke: #b0b0b0; stroke-opacity: 0.3; stroke-width: 0.8; stroke-linecap: square"/>
     </g>
     <g id="line2d_26">
      <g>
       <use xlink:href="#macef08710e" x="41.695313" y="39.102628" style="stroke: #000000; stroke-width: 0.8"/>
      </g>
     </g>
     <g id="text_14">
      <!-- 80 -->
      <g transform="translate(22.46125 43.039425) scale(0.11 -0.11)">
       <defs>
        <path id="ArialMT-38" d="M 1131 2484 
Q 781 2613 612 2850 
Q 444 3088 444 3419 
Q 444 3919 803 4259 
Q 1163 4600 1759 4600 
Q 2359 4600 2725 4251 
Q 3091 3903 3091 3403 
Q 3091 3084 2923 2848 
Q 2756 2613 2416 2484 
Q 2838 2347 3058 2040 
Q 3278 1734 3278 1309 
Q 3278 722 2862 322 
Q 2447 -78 1769 -78 
Q 1091 -78 675 323 
Q 259 725 259 1325 
Q 259 1772 486 2073 
Q 713 2375 1131 2484 
z
M 1019 3438 
Q 1019 3113 1228 2906 
Q 1438 2700 1772 2700 
Q 2097 2700 2305 2904 
Q 2513 3109 2513 3406 
Q 2513 3716 2298 3927 
Q 2084 4138 1766 4138 
Q 1444 4138 1231 3931 
Q 1019 3725 1019 3438 
z
M 838 1322 
Q 838 1081 952 856 
Q 1066 631 1291 507 
Q 1516 384 1775 384 
Q 2178 384 2440 643 
Q 2703 903 2703 1303 
Q 2703 1709 2433 1975 
Q 2163 2241 1756 2241 
Q 1359 2241 1098 1978 
Q 838 1716 838 1322 
z
" transform="scale(0.015625)"/>
       </defs>
       <use xlink:href="#ArialMT-38"/>
       <use xlink:href="#ArialMT-30" transform="translate(55.615234 0)"/>
      </g>
     </g>
    </g>
    <g id="text_15">
     <!-- GH First Authorship Rate (%) -->
     <g transform="translate(15.935625 281.098594) rotate(-90) scale(0.12 -0.12)">
      <defs>
       <path id="ArialMT-47" d="M 2638 1797 
L 2638 2334 
L 4578 2338 
L 4578 638 
Q 4131 281 3656 101 
Q 3181 -78 2681 -78 
Q 2006 -78 1454 211 
Q 903 500 622 1047 
Q 341 1594 341 2269 
Q 341 2938 620 3517 
Q 900 4097 1425 4378 
Q 1950 4659 2634 4659 
Q 3131 4659 3532 4498 
Q 3934 4338 4162 4050 
Q 4391 3763 4509 3300 
L 3963 3150 
Q 3859 3500 3706 3700 
Q 3553 3900 3268 4020 
Q 2984 4141 2638 4141 
Q 2222 4141 1919 4014 
Q 1616 3888 1430 3681 
Q 1244 3475 1141 3228 
Q 966 2803 966 2306 
Q 966 1694 1177 1281 
Q 1388 869 1791 669 
Q 2194 469 2647 469 
Q 3041 469 3416 620 
Q 3791 772 3984 944 
L 3984 1797 
L 2638 1797 
z
" transform="scale(0.015625)"/>
       <path id="ArialMT-48" d="M 513 0 
L 513 4581 
L 1119 4581 
L 1119 2700 
L 3500 2700 
L 3500 4581 
L 4106 4581 
L 4106 0 
L 3500 0 
L 3500 2159 
L 1119 2159 
L 1119 0 
L 513 0 
z
" transform="scale(0.015625)"/>
       <path id="ArialMT-20" transform="scale(0.015625)"/>
       <path id="ArialMT-46" d="M 525 0 
L 525 4581 
L 3616 4581 
L 3616 4041 
L 1131 4041 
L 1131 2622 
L 3281 2622 
L 3281 2081 
L 1131 2081 
L 1131 0 
L 525 0 
z
" transform="scale(0.015625)"/>
       <path id="ArialMT-69" d="M 425 3934 
L 425 4581 
L 988 4581 
L 988 3934 
L 425 3934 
z
M 425 0 
L 425 3319 
L 988 3319 
L 988 0 
L 425 0 
z
" transform="scale(0.015625)"/>
       <path id="ArialMT-73" d="M 197 991 
L 753 1078 
Q 800 744 1014 566 
Q 1228 388 1613 388 
Q 2000 388 2187 545 
Q 2375 703 2375 916 
Q 2375 1106 2209 1216 
Q 2094 1291 1634 1406 
Q 1016 1563 777 1677 
Q 538 1791 414 1992 
Q 291 2194 291 2438 
Q 291 2659 392 2848 
Q 494 3038 669 3163 
Q 800 3259 1026 3326 
Q 1253 3394 1513 3394 
Q 1903 3394 2198 3281 
Q 2494 3169 2634 2976 
Q 2775 2784 2828 2463 
L 2278 2388 
Q 2241 2644 2061 2787 
Q 1881 2931 1553 2931 
Q 1166 2931 1000 2803 
Q 834 2675 834 2503 
Q 834 2394 903 2306 
Q 972 2216 1119 2156 
Q 1203 2125 1616 2013 
Q 2213 1853 2448 1751 
Q 2684 1650 2818 1456 
Q 2953 1263 2953 975 
Q 2953 694 2789 445 
Q 2625 197 2315 61 
Q 2006 -75 1616 -75 
Q 969 -75 630 194 
Q 291 463 197 991 
z
" transform="scale(0.015625)"/>
       <path id="ArialMT-74" d="M 1650 503 
L 1731 6 
Q 1494 -44 1306 -44 
Q 1000 -44 831 53 
Q 663 150 594 308 
Q 525 466 525 972 
L 525 2881 
L 113 2881 
L 113 3319 
L 525 3319 
L 525 4141 
L 1084 4478 
L 1084 3319 
L 1650 3319 
L 1650 2881 
L 1084 2881 
L 1084 941 
Q 1084 700 1114 631 
Q 1144 563 1211 522 
Q 1278 481 1403 481 
Q 1497 481 1650 503 
z
" transform="scale(0.015625)"/>
       <path id="ArialMT-41" d="M -9 0 
L 1750 4581 
L 2403 4581 
L 4278 0 
L 3588 0 
L 3053 1388 
L 1138 1388 
L 634 0 
L -9 0 
z
M 1313 1881 
L 2866 1881 
L 2388 3150 
Q 2169 3728 2063 4100 
Q 1975 3659 1816 3225 
L 1313 1881 
z
" transform="scale(0.015625)"/>
       <path id="ArialMT-75" d="M 2597 0 
L 2597 488 
Q 2209 -75 1544 -75 
Q 1250 -75 995 37 
Q 741 150 617 320 
Q 494 491 444 738 
Q 409 903 409 1263 
L 409 3319 
L 972 3319 
L 972 1478 
Q 972 1038 1006 884 
Q 1059 663 1231 536 
Q 1403 409 1656 409 
Q 1909 409 2131 539 
Q 2353 669 2445 892 
Q 2538 1116 2538 1541 
L 2538 3319 
L 3100 3319 
L 3100 0 
L 2597 0 
z
" transform="scale(0.015625)"/>
       <path id="ArialMT-68" d="M 422 0 
L 422 4581 
L 984 4581 
L 984 2938 
Q 1378 3394 1978 3394 
Q 2347 3394 2619 3248 
Q 2891 3103 3008 2847 
Q 3125 2591 3125 2103 
L 3125 0 
L 2563 0 
L 2563 2103 
Q 2563 2525 2380 2717 
Q 2197 2909 1863 2909 
Q 1613 2909 1392 2779 
Q 1172 2650 1078 2428 
Q 984 2206 984 1816 
L 984 0 
L 422 0 
z
" transform="scale(0.015625)"/>
       <path id="ArialMT-6f" d="M 213 1659 
Q 213 2581 725 3025 
Q 1153 3394 1769 3394 
Q 2453 3394 2887 2945 
Q 3322 2497 3322 1706 
Q 3322 1066 3130 698 
Q 2938 331 2570 128 
Q 2203 -75 1769 -75 
Q 1072 -75 642 372 
Q 213 819 213 1659 
z
M 791 1659 
Q 791 1022 1069 705 
Q 1347 388 1769 388 
Q 2188 388 2466 706 
Q 2744 1025 2744 1678 
Q 2744 2294 2464 2611 
Q 2184 2928 1769 2928 
Q 1347 2928 1069 2612 
Q 791 2297 791 1659 
z
" transform="scale(0.015625)"/>
       <path id="ArialMT-70" d="M 422 -1272 
L 422 3319 
L 934 3319 
L 934 2888 
Q 1116 3141 1344 3267 
Q 1572 3394 1897 3394 
Q 2322 3394 2647 3175 
Q 2972 2956 3137 2557 
Q 3303 2159 3303 1684 
Q 3303 1175 3120 767 
Q 2938 359 2589 142 
Q 2241 -75 1856 -75 
Q 1575 -75 1351 44 
Q 1128 163 984 344 
L 984 -1272 
L 422 -1272 
z
M 931 1641 
Q 931 1000 1190 694 
Q 1450 388 1819 388 
Q 2194 388 2461 705 
Q 2728 1022 2728 1688 
Q 2728 2322 2467 2637 
Q 2206 2953 1844 2953 
Q 1484 2953 1207 2617 
Q 931 2281 931 1641 
z
" transform="scale(0.015625)"/>
       <path id="ArialMT-52" d="M 503 0 
L 503 4581 
L 2534 4581 
Q 3147 4581 3465 4457 
Q 3784 4334 3975 4021 
Q 4166 3709 4166 3331 
Q 4166 2844 3850 2509 
Q 3534 2175 2875 2084 
Q 3116 1969 3241 1856 
Q 3506 1613 3744 1247 
L 4541 0 
L 3778 0 
L 3172 953 
Q 2906 1366 2734 1584 
Q 2563 1803 2427 1890 
Q 2291 1978 2150 2013 
Q 2047 2034 1813 2034 
L 1109 2034 
L 1109 0 
L 503 0 
z
M 1109 2559 
L 2413 2559 
Q 2828 2559 3062 2645 
Q 3297 2731 3419 2920 
Q 3541 3109 3541 3331 
Q 3541 3656 3305 3865 
Q 3069 4075 2559 4075 
L 1109 4075 
L 1109 2559 
z
" transform="scale(0.015625)"/>
       <path id="ArialMT-28" d="M 1497 -1347 
Q 1031 -759 709 28 
Q 388 816 388 1659 
Q 388 2403 628 3084 
Q 909 3875 1497 4659 
L 1900 4659 
Q 1522 4009 1400 3731 
Q 1209 3300 1100 2831 
Q 966 2247 966 1656 
Q 966 153 1900 -1347 
L 1497 -1347 
z
" transform="scale(0.015625)"/>
       <path id="ArialMT-25" d="M 372 3481 
Q 372 3972 619 4315 
Q 866 4659 1334 4659 
Q 1766 4659 2048 4351 
Q 2331 4044 2331 3447 
Q 2331 2866 2045 2552 
Q 1759 2238 1341 2238 
Q 925 2238 648 2547 
Q 372 2856 372 3481 
z
M 1350 4272 
Q 1141 4272 1002 4090 
Q 863 3909 863 3425 
Q 863 2984 1003 2804 
Q 1144 2625 1350 2625 
Q 1563 2625 1702 2806 
Q 1841 2988 1841 3469 
Q 1841 3913 1700 4092 
Q 1559 4272 1350 4272 
z
M 1353 -169 
L 3859 4659 
L 4316 4659 
L 1819 -169 
L 1353 -169 
z
M 3334 1075 
Q 3334 1569 3581 1911 
Q 3828 2253 4300 2253 
Q 4731 2253 5014 1945 
Q 5297 1638 5297 1041 
Q 5297 459 5011 145 
Q 4725 -169 4303 -169 
Q 3888 -169 3611 142 
Q 3334 453 3334 1075 
z
M 4316 1866 
Q 4103 1866 3964 1684 
Q 3825 1503 3825 1019 
Q 3825 581 3965 400 
Q 4106 219 4313 219 
Q 4528 219 4667 400 
Q 4806 581 4806 1063 
Q 4806 1506 4665 1686 
Q 4525 1866 4316 1866 
z
" transform="scale(0.015625)"/>
       <path id="ArialMT-29" d="M 791 -1347 
L 388 -1347 
Q 1322 153 1322 1656 
Q 1322 2244 1188 2822 
Q 1081 3291 891 3722 
Q 769 4003 388 4659 
L 791 4659 
Q 1378 3875 1659 3084 
Q 1900 2403 1900 1659 
Q 1900 816 1576 28 
Q 1253 -759 791 -1347 
z
" transform="scale(0.015625)"/>
      </defs>
      <use xlink:href="#ArialMT-47"/>
      <use xlink:href="#ArialMT-48" transform="translate(77.783203 0)"/>
      <use xlink:href="#ArialMT-20" transform="translate(150 0)"/>
      <use xlink:href="#ArialMT-46" transform="translate(177.783203 0)"/>
      <use xlink:href="#ArialMT-69" transform="translate(238.867188 0)"/>
      <use xlink:href="#ArialMT-72" transform="translate(261.083984 0)"/>
      <use xlink:href="#ArialMT-73" transform="translate(294.384766 0)"/>
      <use xlink:href="#ArialMT-74" transform="translate(344.384766 0)"/>
      <use xlink:href="#ArialMT-20" transform="translate(372.167969 0)"/>
      <use xlink:href="#ArialMT-41" transform="translate(394.451172 0)"/>
      <use xlink:href="#ArialMT-75" transform="translate(461.150391 0)"/>
      <use xlink:href="#ArialMT-74" transform="translate(516.765625 0)"/>
      <use xlink:href="#ArialMT-68" transform="translate(544.548828 0)"/>
      <use xlink:href="#ArialMT-6f" transform="translate(600.164062 0)"/>
      <use xlink:href="#ArialMT-72" transform="translate(655.779297 0)"/>
      <use xlink:href="#ArialMT-73" transform="translate(689.080078 0)"/>
      <use xlink:href="#ArialMT-68" transform="translate(739.080078 0)"/>
      <use xlink:href="#ArialMT-69" transform="translate(794.695312 0)"/>
      <use xlink:href="#ArialMT-70" transform="translate(816.912109 0)"/>
      <use xlink:href="#ArialMT-20" transform="translate(872.527344 0)"/>
      <use xlink:href="#ArialMT-52" transform="translate(900.310547 0)"/>
      <use xlink:href="#ArialMT-61" transform="translate(972.527344 0)"/>
      <use xlink:href="#ArialMT-74" transform="translate(1028.142578 0)"/>
      <use xlink:href="#ArialMT-65" transform="translate(1055.925781 0)"/>
      <use xlink:href="#ArialMT-20" transform="translate(1111.541016 0)"/>
      <use xlink:href="#ArialMT-28" transform="translate(1139.324219 0)"/>
      <use xlink:href="#ArialMT-25" transform="translate(1172.625 0)"/>
      <use xlink:href="#ArialMT-29" transform="translate(1261.541016 0)"/>
     </g>
    </g>
   </g>
   <g id="line2d_27">
    <path d="M 62.236222 181.31036 
L 78.668949 196.267845 
L 95.101676 167.934516 
L 111.534403 226.485609 
L 127.967131 199.995084 
L 144.399858 264.606409 
L 160.832585 220.874521 
L 177.265312 227.20886 
L 193.69804 190.676988 
L 210.130767 197.745888 
L 226.563494 239.131086 
L 242.996222 211.854478 
L 259.428949 240.036192 
L 275.861676 216.686948 
L 292.294403 198.447332 
L 308.727131 183.376028 
L 325.159858 187.765083 
L 341.592585 176.622193 
L 358.025313 148.529961 
L 374.45804 167.585327 
L 390.890767 167.339338 
L 407.323494 145.639524 
L 423.756222 164.557893 
L 440.188949 137.560215 
L 456.621676 159.496279 
L 473.054403 177.928349 
" clip-path="url(#pd5ee275c8c)" style="fill: none; stroke: #2563eb; stroke-width: 1.5; stroke-linecap: square"/>
    <defs>
     <path id="m02e826c1d6" d="M 0 1.5 
C 0.397805 1.5 0.77937 1.341951 1.06066 1.06066 
C 1.341951 0.77937 1.5 0.397805 1.5 0 
C 1.5 -0.397805 1.341951 -0.77937 1.06066 -1.06066 
C 0.77937 -1.341951 0.397805 -1.5 0 -1.5 
C -0.397805 -1.5 -0.77937 -1.341951 -1.06066 -1.06066 
C -1.341951 -0.77937 -1.5 -0.397805 -1.5 0 
C -1.5 0.397805 -1.341951 0.77937 -1.06066 1.06066 
C -0.77937 1.341951 -0.397805 1.5 0 1.5 
z
" style="stroke: #2563eb"/>
    </defs>
    <g clip-path="url(#pd5ee275c8c)">
     <use xlink:href="#m02e826c1d6" x="62.236222" y="181.31036" style="fill: #2563eb; stroke: #2563eb"/>
     <use xlink:href="#m02e826c1d6" x="78.668949" y="196.267845" style="fill: #2563eb; stroke: #2563eb"/>
     <use xlink:href="#m02e826c1d6" x="95.101676" y="167.934516" style="fill: #2563eb; stroke: #2563eb"/>
     <use xlink:href="#m02e826c1d6" x="111.534403" y="226.485609" style="fill: #2563eb; stroke: #2563eb"/>
     <use xlink:href="#m02e826c1d6" x="127.967131" y="199.995084" style="fill: #2563eb; stroke: #2563eb"/>
     <use xlink:href="#m02e826c1d6" x="144.399858" y="264.606409" style="fill: #2563eb; stroke: #2563eb"/>
     <use xlink:href="#m02e826c1d6" x="160.832585" y="220.874521" style="fill: #2563eb; stroke: #2563eb"/>
     <use xlink:href="#m02e826c1d6" x="177.265312" y="227.20886" style="fill: #2563eb; stroke: #2563eb"/>
     <use xlink:href="#m02e826c1d6" x="193.69804" y="190.676988" style="fill: #2563eb; stroke: #2563eb"/>
     <use xlink:href="#m02e826c1d6" x="210.130767" y="197.745888" style="fill: #2563eb; stroke: #2563eb"/>
     <use xlink:href="#m02e826c1d6" x="226.563494" y="239.131086" style="fill: #2563eb; stroke: #2563eb"/>
     <use xlink:href="#m02e826c1d6" x="242.996222" y="211.854478" style="fill: #2563eb; stroke: #2563eb"/>
     <use xlink:href="#m02e826c1d6" x="259.428949" y="240.036192" style="fill: #2563eb; stroke: #2563eb"/>
     <use xlink:href="#m02e826c1d6" x="275.861676" y="216.686948" style="fill: #2563eb; stroke: #2563eb"/>
     <use xlink:href="#m02e826c1d6" x="292.294403" y="198.447332" style="fill: #2563eb; stroke: #2563eb"/>
     <use xlink:href="#m02e826c1d6" x="308.727131" y="183.376028" style="fill: #2563eb; stroke: #2563eb"/>
     <use xlink:href="#m02e826c1d6" x="325.159858" y="187.765083" style="fill: #2563eb; stroke: #2563eb"/>
     <use xlink:href="#m02e826c1d6" x="341.592585" y="176.622193" style="fill: #2563eb; stroke: #2563eb"/>
     <use xlink:href="#m02e826c1d6" x="358.025313" y="148.529961" style="fill: #2563eb; stroke: #2563eb"/>
     <use xlink:href="#m02e826c1d6" x="374.45804" y="167.585327" style="fill: #2563eb; stroke: #2563eb"/>
     <use xlink:href="#m02e826c1d6" x="390.890767" y="167.339338" style="fill: #2563eb; stroke: #2563eb"/>
     <use xlink:href="#m02e826c1d6" x="407.323494" y="145.639524" style="fill: #2563eb; stroke: #2563eb"/>
     <use xlink:href="#m02e826c1d6" x="423.756222" y="164.557893" style="fill: #2563eb; stroke: #2563eb"/>
     <use xlink:href="#m02e826c1d6" x="440.188949" y="137.560215" style="fill: #2563eb; stroke: #2563eb"/>
     <use xlink:href="#m02e826c1d6" x="456.621676" y="159.496279" style="fill: #2563eb; stroke: #2563eb"/>
     <use xlink:href="#m02e826c1d6" x="473.054403" y="177.928349" style="fill: #2563eb; stroke: #2563eb"/>
    </g>
   </g>
   <g id="line2d_28">
    <path d="M 275.861676 161.342241 
L 292.294403 131.423455 
L 308.727131 129.591692 
L 325.159858 189.123972 
L 341.592585 227.590983 
L 358.025313 170.602818 
L 374.45804 201.837645 
L 390.890767 248.915087 
L 407.323494 267.092054 
L 423.756222 255.647198 
L 440.188949 256.337835 
L 456.621676 255.800125 
L 473.054403 232.233553 
" clip-path="url(#pd5ee275c8c)" style="fill: none; stroke: #f59e0b; stroke-width: 1.5; stroke-linecap: square"/>
    <defs>
     <path id="m4bb25d8bca" d="M 0 1.5 
C 0.397805 1.5 0.77937 1.341951 1.06066 1.06066 
C 1.341951 0.77937 1.5 0.397805 1.5 0 
C 1.5 -0.397805 1.341951 -0.77937 1.06066 -1.06066 
C 0.77937 -1.341951 0.397805 -1.5 0 -1.5 
C -0.397805 -1.5 -0.77937 -1.341951 -1.06066 -1.06066 
C -1.341951 -0.77937 -1.5 -0.397805 -1.5 0 
C -1.5 0.397805 -1.341951 0.77937 -1.06066 1.06066 
C -0.77937 1.341951 -0.397805 1.5 0 1.5 
z
" style="stroke: #f59e0b"/>
    </defs>
    <g clip-path="url(#pd5ee275c8c)">
     <use xlink:href="#m4bb25d8bca" x="275.861676" y="161.342241" style="fill: #f59e0b; stroke: #f59e0b"/>
     <use xlink:href="#m4bb25d8bca" x="292.294403" y="131.423455" style="fill: #f59e0b; stroke: #f59e0b"/>
     <use xlink:href="#m4bb25d8bca" x="308.727131" y="129.591692" style="fill: #f59e0b; stroke: #f59e0b"/>
     <use xlink:href="#m4bb25d8bca" x="325.159858" y="189.123972" style="fill: #f59e0b; stroke: #f59e0b"/>
     <use xlink:href="#m4bb25d8bca" x="341.592585" y="227.590983" style="fill: #f59e0b; stroke: #f59e0b"/>
     <use xlink:href="#m4bb25d8bca" x="358.025313" y="170.602818" style="fill: #f59e0b; stroke: #f59e0b"/>
     <use xlink:href="#m4bb25d8bca" x="374.45804" y="201.837645" style="fill: #f59e0b; stroke: #f59e0b"/>
     <use xlink:href="#m4bb25d8bca" x="390.890767" y="248.915087" style="fill: #f59e0b; stroke: #f59e0b"/>
     <use xlink:href="#m4bb25d8bca" x="407.323494" y="267.092054" style="fill: #f59e0b; stroke: #f59e0b"/>
     <use xlink:href="#m4bb25d8bca" x="423.756222" y="255.647198" style="fill: #f59e0b; stroke: #f59e0b"/>
     <use xlink:href="#m4bb25d8bca" x="440.188949" y="256.337835" style="fill: #f59e0b; stroke: #f59e0b"/>
     <use xlink:href="#m4bb25d8bca" x="456.621676" y="255.800125" style="fill: #f59e0b; stroke: #f59e0b"/>
     <use xlink:href="#m4bb25d8bca" x="473.054403" y="232.233553" style="fill: #f59e0b; stroke: #f59e0b"/>
    </g>
   </g>
   <g id="line2d_29">
    <path d="M 210.130767 39.102628 
L 226.563494 239.131086 
L 242.996222 98.201945 
L 259.428949 181.058308 
L 275.861676 120.932452 
L 292.294403 148.795653 
L 308.727131 147.451376 
L 325.159858 206.367804 
L 341.592585 221.737307 
L 358.025313 152.5334 
L 374.45804 169.384321 
L 390.890767 170.413827 
L 407.323494 133.969066 
L 423.756222 160.596423 
L 440.188949 148.420506 
L 456.621676 143.064787 
L 473.054403 155.505743 
" clip-path="url(#pd5ee275c8c)" style="fill: none; stroke: #059669; stroke-width: 1.5; stroke-linecap: square"/>
    <defs>
     <path id="m1236c24f1b" d="M 0 1.5 
C 0.397805 1.5 0.77937 1.341951 1.06066 1.06066 
C 1.341951 0.77937 1.5 0.397805 1.5 0 
C 1.5 -0.397805 1.341951 -0.77937 1.06066 -1.06066 
C 0.77937 -1.341951 0.397805 -1.5 0 -1.5 
C -0.397805 -1.5 -0.77937 -1.341951 -1.06066 -1.06066 
C -1.341951 -0.77937 -1.5 -0.397805 -1.5 0 
C -1.5 0.397805 -1.341951 0.77937 -1.06066 1.06066 
C -0.77937 1.341951 -0.397805 1.5 0 1.5 
z
" style="stroke: #059669"/>
    </defs>
    <g clip-path="url(#pd5ee275c8c)">
     <use xlink:href="#m1236c24f1b" x="210.130767" y="39.102628" style="fill: #059669; stroke: #059669"/>
     <use xlink:href="#m1236c24f1b" x="226.563494" y="239.131086" style="fill: #059669; stroke: #059669"/>
     <use xlink:href="#m1236c24f1b" x="242.996222" y="98.201945" style="fill: #059669; stroke: #059669"/>
     <use xlink:href="#m1236c24f1b" x="259.428949" y="181.058308" style="fill: #059669; stroke: #059669"/>
     <use xlink:href="#m1236c24f1b" x="275.861676" y="120.932452" style="fill: #059669; stroke: #059669"/>
     <use xlink:href="#m1236c24f1b" x="292.294403" y="148.795653" style="fill: #059669; stroke: #059669"/>
     <use xlink:href="#m1236c24f1b" x="308.727131" y="147.451376" style="fill: #059669; stroke: #059669"/>
     <use xlink:href="#m1236c24f1b" x="325.159858" y="206.367804" style="fill: #059669; stroke: #059669"/>
     <use xlink:href="#m1236c24f1b" x="341.592585" y="221.737307" style="fill: #059669; stroke: #059669"/>
     <use xlink:href="#m1236c24f1b" x="358.025313" y="152.5334" style="fill: #059669; stroke: #059669"/>
     <use xlink:href="#m1236c24f1b" x="374.45804" y="169.384321" style="fill: #059669; stroke: #059669"/>
     <use xlink:href="#m1236c24f1b" x="390.890767" y="170.413827" style="fill: #059669; stroke: #059669"/>
     <use xlink:href="#m1236c24f1b" x="407.323494" y="133.969066" style="fill: #059669; stroke: #059669"/>
     <use xlink:href="#m1236c24f1b" x="423.756222" y="160.596423" style="fill: #059669; stroke: #059669"/>
     <use xlink:href="#m1236c24f1b" x="440.188949" y="148.420506" style="fill: #059669; stroke: #059669"/>
     <use xlink:href="#m1236c24f1b" x="456.621676" y="143.064787" style="fill: #059669; stroke: #059669"/>
     <use xlink:href="#m1236c24f1b" x="473.054403" y="155.505743" style="fill: #059669; stroke: #059669"/>
    </g>
   </g>
   <g id="line2d_30">
    <path d="M 62.236222 321.495746 
L 78.668949 246.824489 
L 95.101676 199.995084 
L 111.534403 197.745888 
L 127.967131 290.489745 
L 144.399858 306.787771 
L 160.832585 298.514535 
L 177.265312 367.72081 
L 193.69804 335.371194 
L 210.130767 367.72081 
L 226.563494 312.767936 
L 242.996222 264.377397 
L 259.428949 292.313256 
L 275.861676 301.103093 
L 292.294403 260.39015 
L 308.727131 287.046649 
L 325.159858 280.292177 
L 341.592585 276.026579 
L 358.025313 300.250893 
L 374.45804 243.883829 
L 390.890767 285.642263 
L 407.323494 294.94427 
L 423.756222 304.254111 
L 440.188949 282.664293 
L 456.621676 292.775082 
L 473.054403 307.50445 
" clip-path="url(#pd5ee275c8c)" style="fill: none; stroke-dasharray: 5.55,2.4; stroke-dashoffset: 0; stroke: #6b7280; stroke-width: 1.5"/>
    <defs>
     <path id="m3ad31d6d59" d="M 0 1.5 
C 0.397805 1.5 0.77937 1.341951 1.06066 1.06066 
C 1.341951 0.77937 1.5 0.397805 1.5 0 
C 1.5 -0.397805 1.341951 -0.77937 1.06066 -1.06066 
C 0.77937 -1.341951 0.397805 -1.5 0 -1.5 
C -0.397805 -1.5 -0.77937 -1.341951 -1.06066 -1.06066 
C -1.341951 -0.77937 -1.5 -0.397805 -1.5 0 
C -1.5 0.397805 -1.341951 0.77937 -1.06066 1.06066 
C -0.77937 1.341951 -0.397805 1.5 0 1.5 
z
" style="stroke: #6b7280"/>
    </defs>
    <g clip-path="url(#pd5ee275c8c)">
     <use xlink:href="#m3ad31d6d59" x="62.236222" y="321.495746" style="fill: #6b7280; stroke: #6b7280"/>
     <use xlink:href="#m3ad31d6d59" x="78.668949" y="246.824489" style="fill: #6b7280; stroke: #6b7280"/>
     <use xlink:href="#m3ad31d6d59" x="95.101676" y="199.995084" style="fill: #6b7280; stroke: #6b7280"/>
     <use xlink:href="#m3ad31d6d59" x="111.534403" y="197.745888" style="fill: #6b7280; stroke: #6b7280"/>
     <use xlink:href="#m3ad31d6d59" x="127.967131" y="290.489745" style="fill: #6b7280; stroke: #6b7280"/>
     <use xlink:href="#m3ad31d6d59" x="144.399858" y="306.787771" style="fill: #6b7280; stroke: #6b7280"/>
     <use xlink:href="#m3ad31d6d59" x="160.832585" y="298.514535" style="fill: #6b7280; stroke: #6b7280"/>
     <use xlink:href="#m3ad31d6d59" x="177.265312" y="367.72081" style="fill: #6b7280; stroke: #6b7280"/>
     <use xlink:href="#m3ad31d6d59" x="193.69804" y="335.371194" style="fill: #6b7280; stroke: #6b7280"/>
     <use xlink:href="#m3ad31d6d59" x="210.130767" y="367.72081" style="fill: #6b7280; stroke: #6b7280"/>
     <use xlink:href="#m3ad31d6d59" x="226.563494" y="312.767936" style="fill: #6b7280; stroke: #6b7280"/>
     <use xlink:href="#m3ad31d6d59" x="242.996222" y="264.377397" style="fill: #6b7280; stroke: #6b7280"/>
     <use xlink:href="#m3ad31d6d59" x="259.428949" y="292.313256" style="fill: #6b7280; stroke: #6b7280"/>
     <use xlink:href="#m3ad31d6d59" x="275.861676" y="301.103093" style="fill: #6b7280; stroke: #6b7280"/>
     <use xlink:href="#m3ad31d6d59" x="292.294403" y="260.39015" style="fill: #6b7280; stroke: #6b7280"/>
     <use xlink:href="#m3ad31d6d59" x="308.727131" y="287.046649" style="fill: #6b7280; stroke: #6b7280"/>
     <use xlink:href="#m3ad31d6d59" x="325.159858" y="280.292177" style="fill: #6b7280; stroke: #6b7280"/>
     <use xlink:href="#m3ad31d6d59" x="341.592585" y="276.026579" style="fill: #6b7280; stroke: #6b7280"/>
     <use xlink:href="#m3ad31d6d59" x="358.025313" y="300.250893" style="fill: #6b7280; stroke: #6b7280"/>
     <use xlink:href="#m3ad31d6d59" x="374.45804" y="243.883829" style="fill: #6b7280; stroke: #6b7280"/>
     <use xlink:href="#m3ad31d6d59" x="390.890767" y="285.642263" style="fill: #6b7280; stroke: #6b7280"/>
     <use xlink:href="#m3ad31d6d59" x="407.323494" y="294.94427" style="fill: #6b7280; stroke: #6b7280"/>
     <use xlink:href="#m3ad31d6d59" x="423.756222" y="304.254111" style="fill: #6b7280; stroke: #6b7280"/>
     <use xlink:href="#m3ad31d6d59" x="440.188949" y="282.664293" style="fill: #6b7280; stroke: #6b7280"/>
     <use xlink:href="#m3ad31d6d59" x="456.621676" y="292.775082" style="fill: #6b7280; stroke: #6b7280"/>
     <use xlink:href="#m3ad31d6d59" x="473.054403" y="307.50445" style="fill: #6b7280; stroke: #6b7280"/>
    </g>
   </g>
   <g id="patch_3">
    <path d="M 41.695313 384.151719 
L 41.695313 22.671719 
" style="fill: none; stroke: #000000; stroke-width: 0.8; stroke-linejoin: miter; stroke-linecap: square"/>
   </g>
   <g id="patch_4">
    <path d="M 41.695312 384.151719 
L 493.595313 384.151719 
" style="fill: none; stroke: #000000; stroke-width: 0.8; stroke-linejoin: miter; stroke-linecap: square"/>
   </g>
   <g id="text_16">
    <!-- GH First Authorship Over Time by Partner Type -->
    <g transform="translate(131.577969 16.671719) scale(0.13 -0.13)">
     <defs>
      <path id="ArialMT-4f" d="M 309 2231 
Q 309 3372 921 4017 
Q 1534 4663 2503 4663 
Q 3138 4663 3647 4359 
Q 4156 4056 4423 3514 
Q 4691 2972 4691 2284 
Q 4691 1588 4409 1038 
Q 4128 488 3612 205 
Q 3097 -78 2500 -78 
Q 1853 -78 1343 234 
Q 834 547 571 1087 
Q 309 1628 309 2231 
z
M 934 2222 
Q 934 1394 1379 917 
Q 1825 441 2497 441 
Q 3181 441 3623 922 
Q 4066 1403 4066 2288 
Q 4066 2847 3877 3264 
Q 3688 3681 3323 3911 
Q 2959 4141 2506 4141 
Q 1863 4141 1398 3698 
Q 934 3256 934 2222 
z
" transform="scale(0.015625)"/>
      <path id="ArialMT-76" d="M 1344 0 
L 81 3319 
L 675 3319 
L 1388 1331 
Q 1503 1009 1600 663 
Q 1675 925 1809 1294 
L 2547 3319 
L 3125 3319 
L 1869 0 
L 1344 0 
z
" transform="scale(0.015625)"/>
      <path id="ArialMT-54" d="M 1659 0 
L 1659 4041 
L 150 4041 
L 150 4581 
L 3781 4581 
L 3781 4041 
L 2266 4041 
L 2266 0 
L 1659 0 
z
" transform="scale(0.015625)"/>
      <path id="ArialMT-6d" d="M 422 0 
L 422 3319 
L 925 3319 
L 925 2853 
Q 1081 3097 1340 3245 
Q 1600 3394 1931 3394 
Q 2300 3394 2536 3241 
Q 2772 3088 2869 2813 
Q 3263 3394 3894 3394 
Q 4388 3394 4653 3120 
Q 4919 2847 4919 2278 
L 4919 0 
L 4359 0 
L 4359 2091 
Q 4359 2428 4304 2576 
Q 4250 2725 4106 2815 
Q 3963 2906 3769 2906 
Q 3419 2906 3187 2673 
Q 2956 2441 2956 1928 
L 2956 0 
L 2394 0 
L 2394 2156 
Q 2394 2531 2256 2718 
Q 2119 2906 1806 2906 
Q 1569 2906 1367 2781 
Q 1166 2656 1075 2415 
Q 984 2175 984 1722 
L 984 0 
L 422 0 
z
" transform="scale(0.015625)"/>
      <path id="ArialMT-62" d="M 941 0 
L 419 0 
L 419 4581 
L 981 4581 
L 981 2947 
Q 1338 3394 1891 3394 
Q 2197 3394 2470 3270 
Q 2744 3147 2920 2923 
Q 3097 2700 3197 2384 
Q 3297 2069 3297 1709 
Q 3297 856 2875 390 
Q 2453 -75 1863 -75 
Q 1275 -75 941 416 
L 941 0 
z
M 934 1684 
Q 934 1088 1097 822 
Q 1363 388 1816 388 
Q 2184 388 2453 708 
Q 2722 1028 2722 1663 
Q 2722 2313 2464 2622 
Q 2206 2931 1841 2931 
Q 1472 2931 1203 2611 
Q 934 2291 934 1684 
z
" transform="scale(0.015625)"/>
      <path id="ArialMT-79" d="M 397 -1278 
L 334 -750 
Q 519 -800 656 -800 
Q 844 -800 956 -737 
Q 1069 -675 1141 -563 
Q 1194 -478 1313 -144 
Q 1328 -97 1363 -6 
L 103 3319 
L 709 3319 
L 1400 1397 
Q 1534 1031 1641 628 
Q 1738 1016 1872 1384 
L 2581 3319 
L 3144 3319 
L 1881 -56 
Q 1678 -603 1566 -809 
Q 1416 -1088 1222 -1217 
Q 1028 -1347 759 -1347 
Q 597 -1347 397 -1278 
z
" transform="scale(0.015625)"/>
      <path id="ArialMT-50" d="M 494 0 
L 494 4581 
L 2222 4581 
Q 2678 4581 2919 4538 
Q 3256 4481 3484 4323 
Q 3713 4166 3852 3881 
Q 3991 3597 3991 3256 
Q 3991 2672 3619 2267 
Q 3247 1863 2275 1863 
L 1100 1863 
L 1100 0 
L 494 0 
z
M 1100 2403 
L 2284 2403 
Q 2872 2403 3119 2622 
Q 3366 2841 3366 3238 
Q 3366 3525 3220 3729 
Q 3075 3934 2838 4000 
Q 2684 4041 2272 4041 
L 1100 4041 
L 1100 2403 
z
" transform="scale(0.015625)"/>
      <path id="ArialMT-6e" d="M 422 0 
L 422 3319 
L 928 3319 
L 928 2847 
Q 1294 3394 1984 3394 
Q 2284 3394 2536 3286 
Q 2788 3178 2913 3003 
Q 3038 2828 3088 2588 
Q 3119 2431 3119 2041 
L 3119 0 
L 2556 0 
L 2556 2019 
Q 2556 2363 2490 2533 
Q 2425 2703 2258 2804 
Q 2091 2906 1866 2906 
Q 1506 2906 1245 2678 
Q 984 2450 984 1813 
L 984 0 
L 422 0 
z
" transform="scale(0.015625)"/>
     </defs>
     <use xlink:href="#ArialMT-47"/>
     <use xlink:href="#ArialMT-48" transform="translate(77.783203 0)"/>
     <use xlink:href="#ArialMT-20" transform="translate(150 0)"/>
     <use xlink:href="#ArialMT-46" transform="translate(177.783203 0)"/>
     <use xlink:href="#ArialMT-69" transform="translate(238.867188 0)"/>
     <use xlink:href="#ArialMT-72" transform="translate(261.083984 0)"/>
     <use xlink:href="#ArialMT-73" transform="translate(294.384766 0)"/>
     <use xlink:href="#ArialMT-74" transform="translate(344.384766 0)"/>
     <use xlink:href="#ArialMT-20" transform="translate(372.167969 0)"/>
     <use xlink:href="#ArialMT-41" transform="translate(394.451172 0)"/>
     <use xlink:href="#ArialMT-75" transform="translate(461.150391 0)"/>
     <use xlink:href="#ArialMT-74" transform="translate(516.765625 0)"/>
     <use xlink:href="#ArialMT-68" transform="translate(544.548828 0)"/>
     <use xlink:href="#ArialMT-6f" transform="translate(600.164062 0)"/>
     <use xlink:href="#ArialMT-72" transform="translate(655.779297 0)"/>
     <use xlink:href="#ArialMT-73" transform="translate(689.080078 0)"/>
     <use xlink:href="#ArialMT-68" transform="translate(739.080078 0)"/>
     <use xlink:href="#ArialMT-69" transform="translate(794.695312 0)"/>
     <use xlink:href="#ArialMT-70" transform="translate(816.912109 0)"/>
     <use xlink:href="#ArialMT-20" transform="translate(872.527344 0)"/>
     <use xlink:href="#ArialMT-4f" transform="translate(900.310547 0)"/>
     <use xlink:href="#ArialMT-76" transform="translate(978.09375 0)"/>
     <use xlink:href="#ArialMT-65" transform="translate(1028.09375 0)"/>
     <use xlink:href="#ArialMT-72" transform="translate(1083.708984 0)"/>
     <use xlink:href="#ArialMT-20" transform="translate(1117.009766 0)"/>
     <use xlink:href="#ArialMT-54" transform="translate(1143.042969 0)"/>
     <use xlink:href="#ArialMT-69" transform="translate(1200.376953 0)"/>
     <use xlink:href="#ArialMT-6d" transform="translate(1222.59375 0)"/>
     <use xlink:href="#ArialMT-65" transform="translate(1305.894531 0)"/>
     <use xlink:href="#ArialMT-20" transform="translate(1361.509766 0)"/>
     <use xlink:href="#ArialMT-62" transform="translate(1389.292969 0)"/>
     <use xlink:href="#ArialMT-79" transform="translate(1444.908203 0)"/>
     <use xlink:href="#ArialMT-20" transform="translate(1494.908203 0)"/>
     <use xlink:href="#ArialMT-50" transform="translate(1522.691406 0)"/>
     <use xlink:href="#ArialMT-61" transform="translate(1589.390625 0)"/>
     <use xlink:href="#ArialMT-72" transform="translate(1645.005859 0)"/>
     <use xlink:href="#ArialMT-74" transform="translate(1678.306641 0)"/>
     <use xlink:href="#ArialMT-6e" transform="translate(1706.089844 0)"/>
     <use xlink:href="#ArialMT-65" transform="translate(1761.705078 0)"/>
     <use xlink:href="#ArialMT-72" transform="translate(1817.320312 0)"/>
     <use xlink:href="#ArialMT-20" transform="translate(1850.621094 0)"/>
     <use xlink:href="#ArialMT-54" transform="translate(1876.654297 0)"/>
     <use xlink:href="#ArialMT-79" transform="translate(1932.238281 0)"/>
     <use xlink:href="#ArialMT-70" transform="translate(1982.238281 0)"/>
     <use xlink:href="#ArialMT-65" transform="translate(2037.853516 0)"/>
    </g>
   </g>
   <g id="legend_1">
    <g id="patch_5">
     <path d="M 393.480312 74.430469 
L 487.995312 74.430469 
Q 489.595312 74.430469 489.595312 72.830469 
L 489.595312 28.271719 
Q 489.595312 26.671719 487.995312 26.671719 
L 393.480312 26.671719 
Q 391.880312 26.671719 391.880312 28.271719 
L 391.880312 72.830469 
Q 391.880312 74.430469 393.480312 74.430469 
z
" style="fill: #ffffff; opacity: 0.8; stroke: #cccccc; stroke-linejoin: miter"/>
    </g>
    <g id="line2d_31">
     <path d="M 395.080312 32.797969 
L 403.080312 32.797969 
L 411.080312 32.797969 
" style="fill: none; stroke: #2563eb; stroke-width: 1.5; stroke-linecap: square"/>
     <g>
      <use xlink:href="#m02e826c1d6" x="403.080312" y="32.797969" style="fill: #2563eb; stroke: #2563eb"/>
     </g>
    </g>
    <g id="text_17">
     <!-- Traditional Western -->
     <g transform="translate(417.480312 35.597969) scale(0.08 -0.08)">
      <defs>
       <path id="ArialMT-64" d="M 2575 0 
L 2575 419 
Q 2259 -75 1647 -75 
Q 1250 -75 917 144 
Q 584 363 401 755 
Q 219 1147 219 1656 
Q 219 2153 384 2558 
Q 550 2963 881 3178 
Q 1213 3394 1622 3394 
Q 1922 3394 2156 3267 
Q 2391 3141 2538 2938 
L 2538 4581 
L 3097 4581 
L 3097 0 
L 2575 0 
z
M 797 1656 
Q 797 1019 1065 703 
Q 1334 388 1700 388 
Q 2069 388 2326 689 
Q 2584 991 2584 1609 
Q 2584 2291 2321 2609 
Q 2059 2928 1675 2928 
Q 1300 2928 1048 2622 
Q 797 2316 797 1656 
z
" transform="scale(0.015625)"/>
       <path id="ArialMT-6c" d="M 409 0 
L 409 4581 
L 972 4581 
L 972 0 
L 409 0 
z
" transform="scale(0.015625)"/>
       <path id="ArialMT-57" d="M 1294 0 
L 78 4581 
L 700 4581 
L 1397 1578 
Q 1509 1106 1591 641 
Q 1766 1375 1797 1488 
L 2669 4581 
L 3400 4581 
L 4056 2263 
Q 4303 1400 4413 641 
Q 4500 1075 4641 1638 
L 5359 4581 
L 5969 4581 
L 4713 0 
L 4128 0 
L 3163 3491 
Q 3041 3928 3019 4028 
Q 2947 3713 2884 3491 
L 1913 0 
L 1294 0 
z
" transform="scale(0.015625)"/>
      </defs>
      <use xlink:href="#ArialMT-54"/>
      <use xlink:href="#ArialMT-72" transform="translate(57.333984 0)"/>
      <use xlink:href="#ArialMT-61" transform="translate(90.634766 0)"/>
      <use xlink:href="#ArialMT-64" transform="translate(146.25 0)"/>
      <use xlink:href="#ArialMT-69" transform="translate(201.865234 0)"/>
      <use xlink:href="#ArialMT-74" transform="translate(224.082031 0)"/>
      <use xlink:href="#ArialMT-69" transform="translate(251.865234 0)"/>
      <use xlink:href="#ArialMT-6f" transform="translate(274.082031 0)"/>
      <use xlink:href="#ArialMT-6e" transform="translate(329.697266 0)"/>
      <use xlink:href="#ArialMT-61" transform="translate(385.3125 0)"/>
      <use xlink:href="#ArialMT-6c" transform="translate(440.927734 0)"/>
      <use xlink:href="#ArialMT-20" transform="translate(463.144531 0)"/>
      <use xlink:href="#ArialMT-57" transform="translate(490.927734 0)"/>
      <use xlink:href="#ArialMT-65" transform="translate(583.5625 0)"/>
      <use xlink:href="#ArialMT-73" transform="translate(639.177734 0)"/>
      <use xlink:href="#ArialMT-74" transform="translate(689.177734 0)"/>
      <use xlink:href="#ArialMT-65" transform="translate(716.960938 0)"/>
      <use xlink:href="#ArialMT-72" transform="translate(772.576172 0)"/>
      <use xlink:href="#ArialMT-6e" transform="translate(805.876953 0)"/>
     </g>
    </g>
    <g id="line2d_32">
     <path d="M 395.080312 44.114219 
L 403.080312 44.114219 
L 411.080312 44.114219 
" style="fill: none; stroke: #f59e0b; stroke-width: 1.5; stroke-linecap: square"/>
     <g>
      <use xlink:href="#m4bb25d8bca" x="403.080312" y="44.114219" style="fill: #f59e0b; stroke: #f59e0b"/>
     </g>
    </g>
    <g id="text_18">
     <!-- Emerging Power -->
     <g transform="translate(417.480312 46.914219) scale(0.08 -0.08)">
      <defs>
       <path id="ArialMT-45" d="M 506 0 
L 506 4581 
L 3819 4581 
L 3819 4041 
L 1113 4041 
L 1113 2638 
L 3647 2638 
L 3647 2100 
L 1113 2100 
L 1113 541 
L 3925 541 
L 3925 0 
L 506 0 
z
" transform="scale(0.015625)"/>
       <path id="ArialMT-67" d="M 319 -275 
L 866 -356 
Q 900 -609 1056 -725 
Q 1266 -881 1628 -881 
Q 2019 -881 2231 -725 
Q 2444 -569 2519 -288 
Q 2563 -116 2559 434 
Q 2191 0 1641 0 
Q 956 0 581 494 
Q 206 988 206 1678 
Q 206 2153 378 2554 
Q 550 2956 876 3175 
Q 1203 3394 1644 3394 
Q 2231 3394 2613 2919 
L 2613 3319 
L 3131 3319 
L 3131 450 
Q 3131 -325 2973 -648 
Q 2816 -972 2473 -1159 
Q 2131 -1347 1631 -1347 
Q 1038 -1347 672 -1080 
Q 306 -813 319 -275 
z
M 784 1719 
Q 784 1066 1043 766 
Q 1303 466 1694 466 
Q 2081 466 2343 764 
Q 2606 1063 2606 1700 
Q 2606 2309 2336 2618 
Q 2066 2928 1684 2928 
Q 1309 2928 1046 2623 
Q 784 2319 784 1719 
z
" transform="scale(0.015625)"/>
       <path id="ArialMT-77" d="M 1034 0 
L 19 3319 
L 600 3319 
L 1128 1403 
L 1325 691 
Q 1338 744 1497 1375 
L 2025 3319 
L 2603 3319 
L 3100 1394 
L 3266 759 
L 3456 1400 
L 4025 3319 
L 4572 3319 
L 3534 0 
L 2950 0 
L 2422 1988 
L 2294 2553 
L 1622 0 
L 1034 0 
z
" transform="scale(0.015625)"/>
      </defs>
      <use xlink:href="#ArialMT-45"/>
      <use xlink:href="#ArialMT-6d" transform="translate(66.699219 0)"/>
      <use xlink:href="#ArialMT-65" transform="translate(150 0)"/>
      <use xlink:href="#ArialMT-72" transform="translate(205.615234 0)"/>
      <use xlink:href="#ArialMT-67" transform="translate(238.916016 0)"/>
      <use xlink:href="#ArialMT-69" transform="translate(294.53125 0)"/>
      <use xlink:href="#ArialMT-6e" transform="translate(316.748047 0)"/>
      <use xlink:href="#ArialMT-67" transform="translate(372.363281 0)"/>
      <use xlink:href="#ArialMT-20" transform="translate(427.978516 0)"/>
      <use xlink:href="#ArialMT-50" transform="translate(455.761719 0)"/>
      <use xlink:href="#ArialMT-6f" transform="translate(522.460938 0)"/>
      <use xlink:href="#ArialMT-77" transform="translate(578.076172 0)"/>
      <use xlink:href="#ArialMT-65" transform="translate(650.292969 0)"/>
      <use xlink:href="#ArialMT-72" transform="translate(705.908203 0)"/>
     </g>
    </g>
    <g id="line2d_33">
     <path d="M 395.080312 55.524219 
L 403.080312 55.524219 
L 411.080312 55.524219 
" style="fill: none; stroke: #059669; stroke-width: 1.5; stroke-linecap: square"/>
     <g>
      <use xlink:href="#m1236c24f1b" x="403.080312" y="55.524219" style="fill: #059669; stroke: #059669"/>
     </g>
    </g>
    <g id="text_19">
     <!-- African -->
     <g transform="translate(417.480312 58.324219) scale(0.08 -0.08)">
      <defs>
       <path id="ArialMT-66" d="M 556 0 
L 556 2881 
L 59 2881 
L 59 3319 
L 556 3319 
L 556 3672 
Q 556 4006 616 4169 
Q 697 4388 901 4523 
Q 1106 4659 1475 4659 
Q 1713 4659 2000 4603 
L 1916 4113 
Q 1741 4144 1584 4144 
Q 1328 4144 1222 4034 
Q 1116 3925 1116 3625 
L 1116 3319 
L 1763 3319 
L 1763 2881 
L 1116 2881 
L 1116 0 
L 556 0 
z
" transform="scale(0.015625)"/>
       <path id="ArialMT-63" d="M 2588 1216 
L 3141 1144 
Q 3050 572 2676 248 
Q 2303 -75 1759 -75 
Q 1078 -75 664 370 
Q 250 816 250 1647 
Q 250 2184 428 2587 
Q 606 2991 970 3192 
Q 1334 3394 1763 3394 
Q 2303 3394 2647 3120 
Q 2991 2847 3088 2344 
L 2541 2259 
Q 2463 2594 2264 2762 
Q 2066 2931 1784 2931 
Q 1359 2931 1093 2626 
Q 828 2322 828 1663 
Q 828 994 1084 691 
Q 1341 388 1753 388 
Q 2084 388 2306 591 
Q 2528 794 2588 1216 
z
" transform="scale(0.015625)"/>
      </defs>
      <use xlink:href="#ArialMT-41"/>
      <use xlink:href="#ArialMT-66" transform="translate(66.699219 0)"/>
      <use xlink:href="#ArialMT-72" transform="translate(94.482422 0)"/>
      <use xlink:href="#ArialMT-69" transform="translate(127.783203 0)"/>
      <use xlink:href="#ArialMT-63" transform="translate(150 0)"/>
      <use xlink:href="#ArialMT-61" transform="translate(200 0)"/>
      <use xlink:href="#ArialMT-6e" transform="translate(255.615234 0)"/>
     </g>
    </g>
    <g id="line2d_34">
     <path d="M 395.080312 66.840469 
L 403.080312 66.840469 
L 411.080312 66.840469 
" style="fill: none; stroke-dasharray: 5.55,2.4; stroke-dashoffset: 0; stroke: #6b7280; stroke-width: 1.5"/>
     <g>
      <use xlink:href="#m3ad31d6d59" x="403.080312" y="66.840469" style="fill: #6b7280; stroke: #6b7280"/>
     </g>
    </g>
    <g id="text_20">
     <!-- Mixed -->
     <g transform="translate(417.480312 69.640469) scale(0.08 -0.08)">
      <defs>
       <path id="ArialMT-4d" d="M 475 0 
L 475 4581 
L 1388 4581 
L 2472 1338 
Q 2622 884 2691 659 
Q 2769 909 2934 1394 
L 4031 4581 
L 4847 4581 
L 4847 0 
L 4263 0 
L 4263 3834 
L 2931 0 
L 2384 0 
L 1059 3900 
L 1059 0 
L 475 0 
z
" transform="scale(0.015625)"/>
       <path id="ArialMT-78" d="M 47 0 
L 1259 1725 
L 138 3319 
L 841 3319 
L 1350 2541 
Q 1494 2319 1581 2169 
Q 1719 2375 1834 2534 
L 2394 3319 
L 3066 3319 
L 1919 1756 
L 3153 0 
L 2463 0 
L 1781 1031 
L 1600 1309 
L 728 0 
L 47 0 
z
" transform="scale(0.015625)"/>
      </defs>
      <use xlink:href="#ArialMT-4d"/>
      <use xlink:href="#ArialMT-69" transform="translate(83.300781 0)"/>
      <use xlink:href="#ArialMT-78" transform="translate(105.517578 0)"/>
      <use xlink:href="#ArialMT-65" transform="translate(155.517578 0)"/>
      <use xlink:href="#ArialMT-64" transform="translate(211.132812 0)"/>
     </g>
    </g>
   </g>
  </g>
  <g id="axes_2">
   <g id="patch_6">
    <path d="M 539.755313 384.151719 
L 991.655312 384.151719 
L 991.655312 22.671719 
L 539.755313 22.671719 
z
" style="fill: #ffffff"/>
   </g>
   <g id="matplotlib.axis_3">
    <g id="xtick_7">
     <g id="line2d_35">
      <path d="M 560.296222 384.151719 
L 560.296222 22.671719 
" clip-path="url(#p33383962ba)" style="fill: none; stroke: #b0b0b0; stroke-opacity: 0.3; stroke-width: 0.8; stroke-linecap: square"/>
     </g>
     <g id="line2d_36">
      <g>
       <use xlink:href="#mb9a7736ffd" x="560.296222" y="384.151719" style="stroke: #000000; stroke-width: 0.8"/>
      </g>
     </g>
     <g id="text_21">
      <!-- 2000 -->
      <g transform="translate(548.062159 399.025312) scale(0.11 -0.11)">
       <use xlink:href="#ArialMT-32"/>
       <use xlink:href="#ArialMT-30" transform="translate(55.615234 0)"/>
       <use xlink:href="#ArialMT-30" transform="translate(111.230469 0)"/>
       <use xlink:href="#ArialMT-30" transform="translate(166.845703 0)"/>
      </g>
     </g>
    </g>
    <g id="xtick_8">
     <g id="line2d_37">
      <path d="M 642.459858 384.151719 
L 642.459858 22.671719 
" clip-path="url(#p33383962ba)" style="fill: none; stroke: #b0b0b0; stroke-opacity: 0.3; stroke-width: 0.8; stroke-linecap: square"/>
     </g>
     <g id="line2d_38">
      <g>
       <use xlink:href="#mb9a7736ffd" x="642.459858" y="384.151719" style="stroke: #000000; stroke-width: 0.8"/>
      </g>
     </g>
     <g id="text_22">
      <!-- 2005 -->
      <g transform="translate(630.225795 399.025312) scale(0.11 -0.11)">
       <use xlink:href="#ArialMT-32"/>
       <use xlink:href="#ArialMT-30" transform="translate(55.615234 0)"/>
       <use xlink:href="#ArialMT-30" transform="translate(111.230469 0)"/>
       <use xlink:href="#ArialMT-35" transform="translate(166.845703 0)"/>
      </g>
     </g>
    </g>
    <g id="xtick_9">
     <g id="line2d_39">
      <path d="M 724.623494 384.151719 
L 724.623494 22.671719 
" clip-path="url(#p33383962ba)" style="fill: none; stroke: #b0b0b0; stroke-opacity: 0.3; stroke-width: 0.8; stroke-linecap: square"/>
     </g>
     <g id="line2d_40">
      <g>
       <use xlink:href="#mb9a7736ffd" x="724.623494" y="384.151719" style="stroke: #000000; stroke-width: 0.8"/>
      </g>
     </g>
     <g id="text_23">
      <!-- 2010 -->
      <g transform="translate(712.389432 399.025312) scale(0.11 -0.11)">
       <use xlink:href="#ArialMT-32"/>
       <use xlink:href="#ArialMT-30" transform="translate(55.615234 0)"/>
       <use xlink:href="#ArialMT-31" transform="translate(111.230469 0)"/>
       <use xlink:href="#ArialMT-30" transform="translate(166.845703 0)"/>
      </g>
     </g>
    </g>
    <g id="xtick_10">
     <g id="line2d_41">
      <path d="M 806.787131 384.151719 
L 806.787131 22.671719 
" clip-path="url(#p33383962ba)" style="fill: none; stroke: #b0b0b0; stroke-opacity: 0.3; stroke-width: 0.8; stroke-linecap: square"/>
     </g>
     <g id="line2d_42">
      <g>
       <use xlink:href="#mb9a7736ffd" x="806.787131" y="384.151719" style="stroke: #000000; stroke-width: 0.8"/>
      </g>
     </g>
     <g id="text_24">
      <!-- 2015 -->
      <g transform="translate(794.553068 399.025312) scale(0.11 -0.11)">
       <use xlink:href="#ArialMT-32"/>
       <use xlink:href="#ArialMT-30" transform="translate(55.615234 0)"/>
       <use xlink:href="#ArialMT-31" transform="translate(111.230469 0)"/>
       <use xlink:href="#ArialMT-35" transform="translate(166.845703 0)"/>
      </g>
     </g>
    </g>
    <g id="xtick_11">
     <g id="line2d_43">
      <path d="M 888.950767 384.151719 
L 888.950767 22.671719 
" clip-path="url(#p33383962ba)" style="fill: none; stroke: #b0b0b0; stroke-opacity: 0.3; stroke-width: 0.8; stroke-linecap: square"/>
     </g>
     <g id="line2d_44">
      <g>
       <use xlink:href="#mb9a7736ffd" x="888.950767" y="384.151719" style="stroke: #000000; stroke-width: 0.8"/>
      </g>
     </g>
     <g id="text_25">
      <!-- 2020 -->
      <g transform="translate(876.716705 399.025312) scale(0.11 -0.11)">
       <use xlink:href="#ArialMT-32"/>
       <use xlink:href="#ArialMT-30" transform="translate(55.615234 0)"/>
       <use xlink:href="#ArialMT-32" transform="translate(111.230469 0)"/>
       <use xlink:href="#ArialMT-30" transform="translate(166.845703 0)"/>
      </g>
     </g>
    </g>
    <g id="xtick_12">
     <g id="line2d_45">
      <path d="M 971.114403 384.151719 
L 971.114403 22.671719 
" clip-path="url(#p33383962ba)" style="fill: none; stroke: #b0b0b0; stroke-opacity: 0.3; stroke-width: 0.8; stroke-linecap: square"/>
     </g>
     <g id="line2d_46">
      <g>
       <use xlink:href="#mb9a7736ffd" x="971.114403" y="384.151719" style="stroke: #000000; stroke-width: 0.8"/>
      </g>
     </g>
     <g id="text_26">
      <!-- 2025 -->
      <g transform="translate(958.880341 399.025312) scale(0.11 -0.11)">
       <use xlink:href="#ArialMT-32"/>
       <use xlink:href="#ArialMT-30" transform="translate(55.615234 0)"/>
       <use xlink:href="#ArialMT-32" transform="translate(111.230469 0)"/>
       <use xlink:href="#ArialMT-35" transform="translate(166.845703 0)"/>
      </g>
     </g>
    </g>
    <g id="text_27">
     <!-- Year -->
     <g transform="translate(753.579687 413.800937) scale(0.12 -0.12)">
      <use xlink:href="#ArialMT-59"/>
      <use xlink:href="#ArialMT-65" transform="translate(57.574219 0)"/>
      <use xlink:href="#ArialMT-61" transform="translate(113.189453 0)"/>
      <use xlink:href="#ArialMT-72" transform="translate(168.804688 0)"/>
     </g>
    </g>
   </g>
   <g id="matplotlib.axis_4">
    <g id="ytick_8">
     <g id="line2d_47">
      <path d="M 539.755313 332.879364 
L 991.655312 332.879364 
" clip-path="url(#p33383962ba)" style="fill: none; stroke: #b0b0b0; stroke-opacity: 0.3; stroke-width: 0.8; stroke-linecap: square"/>
     </g>
     <g id="line2d_48">
      <g>
       <use xlink:href="#macef08710e" x="539.755313" y="332.879364" style="stroke: #000000; stroke-width: 0.8"/>
      </g>
     </g>
     <g id="text_28">
      <!-- 20 -->
      <g transform="translate(520.52125 336.816161) scale(0.11 -0.11)">
       <use xlink:href="#ArialMT-32"/>
       <use xlink:href="#ArialMT-30" transform="translate(55.615234 0)"/>
      </g>
     </g>
    </g>
    <g id="ytick_9">
     <g id="line2d_49">
      <path d="M 539.755313 281.585013 
L 991.655312 281.585013 
" clip-path="url(#p33383962ba)" style="fill: none; stroke: #b0b0b0; stroke-opacity: 0.3; stroke-width: 0.8; stroke-linecap: square"/>
     </g>
     <g id="line2d_50">
      <g>
       <use xlink:href="#macef08710e" x="539.755313" y="281.585013" style="stroke: #000000; stroke-width: 0.8"/>
      </g>
     </g>
     <g id="text_29">
      <!-- 30 -->
      <g transform="translate(520.52125 285.52181) scale(0.11 -0.11)">
       <use xlink:href="#ArialMT-33"/>
       <use xlink:href="#ArialMT-30" transform="translate(55.615234 0)"/>
      </g>
     </g>
    </g>
    <g id="ytick_10">
     <g id="line2d_51">
      <path d="M 539.755313 230.290662 
L 991.655312 230.290662 
" clip-path="url(#p33383962ba)" style="fill: none; stroke: #b0b0b0; stroke-opacity: 0.3; stroke-width: 0.8; stroke-linecap: square"/>
     </g>
     <g id="line2d_52">
      <g>
       <use xlink:href="#macef08710e" x="539.755313" y="230.290662" style="stroke: #000000; stroke-width: 0.8"/>
      </g>
     </g>
     <g id="text_30">
      <!-- 40 -->
      <g transform="translate(520.52125 234.227459) scale(0.11 -0.11)">
       <use xlink:href="#ArialMT-34"/>
       <use xlink:href="#ArialMT-30" transform="translate(55.615234 0)"/>
      </g>
     </g>
    </g>
    <g id="ytick_11">
     <g id="line2d_53">
      <path d="M 539.755313 178.996312 
L 991.655312 178.996312 
" clip-path="url(#p33383962ba)" style="fill: none; stroke: #b0b0b0; stroke-opacity: 0.3; stroke-width: 0.8; stroke-linecap: square"/>
     </g>
     <g id="line2d_54">
      <g>
       <use xlink:href="#macef08710e" x="539.755313" y="178.996312" style="stroke: #000000; stroke-width: 0.8"/>
      </g>
     </g>
     <g id="text_31">
      <!-- 50 -->
      <g transform="translate(520.52125 182.933109) scale(0.11 -0.11)">
       <use xlink:href="#ArialMT-35"/>
       <use xlink:href="#ArialMT-30" transform="translate(55.615234 0)"/>
      </g>
     </g>
    </g>
    <g id="ytick_12">
     <g id="line2d_55">
      <path d="M 539.755313 127.701961 
L 991.655312 127.701961 
" clip-path="url(#p33383962ba)" style="fill: none; stroke: #b0b0b0; stroke-opacity: 0.3; stroke-width: 0.8; stroke-linecap: square"/>
     </g>
     <g id="line2d_56">
      <g>
       <use xlink:href="#macef08710e" x="539.755313" y="127.701961" style="stroke: #000000; stroke-width: 0.8"/>
      </g>
     </g>
     <g id="text_32">
      <!-- 60 -->
      <g transform="translate(520.52125 131.638758) scale(0.11 -0.11)">
       <use xlink:href="#ArialMT-36"/>
       <use xlink:href="#ArialMT-30" transform="translate(55.615234 0)"/>
      </g>
     </g>
    </g>
    <g id="ytick_13">
     <g id="line2d_57">
      <path d="M 539.755313 76.40761 
L 991.655312 76.40761 
" clip-path="url(#p33383962ba)" style="fill: none; stroke: #b0b0b0; stroke-opacity: 0.3; stroke-width: 0.8; stroke-linecap: square"/>
     </g>
     <g id="line2d_58">
      <g>
       <use xlink:href="#macef08710e" x="539.755313" y="76.40761" style="stroke: #000000; stroke-width: 0.8"/>
      </g>
     </g>
     <g id="text_33">
      <!-- 70 -->
      <g transform="translate(520.52125 80.344407) scale(0.11 -0.11)">
       <use xlink:href="#ArialMT-37"/>
       <use xlink:href="#ArialMT-30" transform="translate(55.615234 0)"/>
      </g>
     </g>
    </g>
    <g id="ytick_14">
     <g id="line2d_59">
      <path d="M 539.755313 25.113259 
L 991.655312 25.113259 
" clip-path="url(#p33383962ba)" style="fill: none; stroke: #b0b0b0; stroke-opacity: 0.3; stroke-width: 0.8; stroke-linecap: square"/>
     </g>
     <g id="line2d_60">
      <g>
       <use xlink:href="#macef08710e" x="539.755313" y="25.113259" style="stroke: #000000; stroke-width: 0.8"/>
      </g>
     </g>
     <g id="text_34">
      <!-- 80 -->
      <g transform="translate(520.52125 29.050056) scale(0.11 -0.11)">
       <use xlink:href="#ArialMT-38"/>
       <use xlink:href="#ArialMT-30" transform="translate(55.615234 0)"/>
      </g>
     </g>
    </g>
    <g id="text_35">
     <!-- GH Last Authorship Rate (%) -->
     <g transform="translate(513.995625 280.776094) rotate(-90) scale(0.12 -0.12)">
      <defs>
       <path id="ArialMT-4c" d="M 469 0 
L 469 4581 
L 1075 4581 
L 1075 541 
L 3331 541 
L 3331 0 
L 469 0 
z
" transform="scale(0.015625)"/>
      </defs>
      <use xlink:href="#ArialMT-47"/>
      <use xlink:href="#ArialMT-48" transform="translate(77.783203 0)"/>
      <use xlink:href="#ArialMT-20" transform="translate(150 0)"/>
      <use xlink:href="#ArialMT-4c" transform="translate(177.783203 0)"/>
      <use xlink:href="#ArialMT-61" transform="translate(233.398438 0)"/>
      <use xlink:href="#ArialMT-73" transform="translate(289.013672 0)"/>
      <use xlink:href="#ArialMT-74" transform="translate(339.013672 0)"/>
      <use xlink:href="#ArialMT-20" transform="translate(366.796875 0)"/>
      <use xlink:href="#ArialMT-41" transform="translate(389.080078 0)"/>
      <use xlink:href="#ArialMT-75" transform="translate(455.779297 0)"/>
      <use xlink:href="#ArialMT-74" transform="translate(511.394531 0)"/>
      <use xlink:href="#ArialMT-68" transform="translate(539.177734 0)"/>
      <use xlink:href="#ArialMT-6f" transform="translate(594.792969 0)"/>
      <use xlink:href="#ArialMT-72" transform="translate(650.408203 0)"/>
      <use xlink:href="#ArialMT-73" transform="translate(683.708984 0)"/>
      <use xlink:href="#ArialMT-68" transform="translate(733.708984 0)"/>
      <use xlink:href="#ArialMT-69" transform="translate(789.324219 0)"/>
      <use xlink:href="#ArialMT-70" transform="translate(811.541016 0)"/>
      <use xlink:href="#ArialMT-20" transform="translate(867.15625 0)"/>
      <use xlink:href="#ArialMT-52" transform="translate(894.939453 0)"/>
      <use xlink:href="#ArialMT-61" transform="translate(967.15625 0)"/>
      <use xlink:href="#ArialMT-74" transform="translate(1022.771484 0)"/>
      <use xlink:href="#ArialMT-65" transform="translate(1050.554688 0)"/>
      <use xlink:href="#ArialMT-20" transform="translate(1106.169922 0)"/>
      <use xlink:href="#ArialMT-28" transform="translate(1133.953125 0)"/>
      <use xlink:href="#ArialMT-25" transform="translate(1167.253906 0)"/>
      <use xlink:href="#ArialMT-29" transform="translate(1256.169922 0)"/>
     </g>
    </g>
   </g>
   <g id="line2d_61">
    <path d="M 560.296222 235.099508 
L 576.728949 288.912778 
L 593.161676 261.58891 
L 609.594403 176.04836 
L 626.027131 245.901987 
L 642.459858 285.456285 
L 658.892585 227.848074 
L 675.325313 248.634338 
L 691.75804 292.098762 
L 708.190767 251.515911 
L 724.623494 267.117376 
L 741.056222 284.602328 
L 757.488949 259.071203 
L 773.921676 281.988906 
L 790.354403 249.417369 
L 806.787131 299.862311 
L 823.219858 251.477459 
L 839.652585 264.914349 
L 856.085313 267.705365 
L 872.51804 257.762918 
L 888.950767 247.366545 
L 905.383494 256.309536 
L 921.816222 249.759043 
L 938.248949 207.936704 
L 954.681676 215.635134 
L 971.114403 217.275678 
" clip-path="url(#p33383962ba)" style="fill: none; stroke: #2563eb; stroke-width: 1.5; stroke-linecap: square"/>
    <g clip-path="url(#p33383962ba)">
     <use xlink:href="#m02e826c1d6" x="560.296222" y="235.099508" style="fill: #2563eb; stroke: #2563eb"/>
     <use xlink:href="#m02e826c1d6" x="576.728949" y="288.912778" style="fill: #2563eb; stroke: #2563eb"/>
     <use xlink:href="#m02e826c1d6" x="593.161676" y="261.58891" style="fill: #2563eb; stroke: #2563eb"/>
     <use xlink:href="#m02e826c1d6" x="609.594403" y="176.04836" style="fill: #2563eb; stroke: #2563eb"/>
     <use xlink:href="#m02e826c1d6" x="626.027131" y="245.901987" style="fill: #2563eb; stroke: #2563eb"/>
     <use xlink:href="#m02e826c1d6" x="642.459858" y="285.456285" style="fill: #2563eb; stroke: #2563eb"/>
     <use xlink:href="#m02e826c1d6" x="658.892585" y="227.848074" style="fill: #2563eb; stroke: #2563eb"/>
     <use xlink:href="#m02e826c1d6" x="675.325313" y="248.634338" style="fill: #2563eb; stroke: #2563eb"/>
     <use xlink:href="#m02e826c1d6" x="691.75804" y="292.098762" style="fill: #2563eb; stroke: #2563eb"/>
     <use xlink:href="#m02e826c1d6" x="708.190767" y="251.515911" style="fill: #2563eb; stroke: #2563eb"/>
     <use xlink:href="#m02e826c1d6" x="724.623494" y="267.117376" style="fill: #2563eb; stroke: #2563eb"/>
     <use xlink:href="#m02e826c1d6" x="741.056222" y="284.602328" style="fill: #2563eb; stroke: #2563eb"/>
     <use xlink:href="#m02e826c1d6" x="757.488949" y="259.071203" style="fill: #2563eb; stroke: #2563eb"/>
     <use xlink:href="#m02e826c1d6" x="773.921676" y="281.988906" style="fill: #2563eb; stroke: #2563eb"/>
     <use xlink:href="#m02e826c1d6" x="790.354403" y="249.417369" style="fill: #2563eb; stroke: #2563eb"/>
     <use xlink:href="#m02e826c1d6" x="806.787131" y="299.862311" style="fill: #2563eb; stroke: #2563eb"/>
     <use xlink:href="#m02e826c1d6" x="823.219858" y="251.477459" style="fill: #2563eb; stroke: #2563eb"/>
     <use xlink:href="#m02e826c1d6" x="839.652585" y="264.914349" style="fill: #2563eb; stroke: #2563eb"/>
     <use xlink:href="#m02e826c1d6" x="856.085313" y="267.705365" style="fill: #2563eb; stroke: #2563eb"/>
     <use xlink:href="#m02e826c1d6" x="872.51804" y="257.762918" style="fill: #2563eb; stroke: #2563eb"/>
     <use xlink:href="#m02e826c1d6" x="888.950767" y="247.366545" style="fill: #2563eb; stroke: #2563eb"/>
     <use xlink:href="#m02e826c1d6" x="905.383494" y="256.309536" style="fill: #2563eb; stroke: #2563eb"/>
     <use xlink:href="#m02e826c1d6" x="921.816222" y="249.759043" style="fill: #2563eb; stroke: #2563eb"/>
     <use xlink:href="#m02e826c1d6" x="938.248949" y="207.936704" style="fill: #2563eb; stroke: #2563eb"/>
     <use xlink:href="#m02e826c1d6" x="954.681676" y="215.635134" style="fill: #2563eb; stroke: #2563eb"/>
     <use xlink:href="#m02e826c1d6" x="971.114403" y="217.275678" style="fill: #2563eb; stroke: #2563eb"/>
    </g>
   </g>
   <g id="line2d_62">
    <path d="M 773.921676 349.977481 
L 790.354403 238.182101 
L 806.787131 264.486896 
L 823.219858 291.202704 
L 839.652585 238.182101 
L 856.085313 311.981665 
L 872.51804 244.200995 
L 888.950767 290.50577 
L 905.383494 358.250763 
L 921.816222 289.585049 
L 938.248949 319.642112 
L 954.681676 260.212367 
L 971.114403 218.793653 
" clip-path="url(#p33383962ba)" style="fill: none; stroke: #f59e0b; stroke-width: 1.5; stroke-linecap: square"/>
    <g clip-path="url(#p33383962ba)">
     <use xlink:href="#m4bb25d8bca" x="773.921676" y="349.977481" style="fill: #f59e0b; stroke: #f59e0b"/>
     <use xlink:href="#m4bb25d8bca" x="790.354403" y="238.182101" style="fill: #f59e0b; stroke: #f59e0b"/>
     <use xlink:href="#m4bb25d8bca" x="806.787131" y="264.486896" style="fill: #f59e0b; stroke: #f59e0b"/>
     <use xlink:href="#m4bb25d8bca" x="823.219858" y="291.202704" style="fill: #f59e0b; stroke: #f59e0b"/>
     <use xlink:href="#m4bb25d8bca" x="839.652585" y="238.182101" style="fill: #f59e0b; stroke: #f59e0b"/>
     <use xlink:href="#m4bb25d8bca" x="856.085313" y="311.981665" style="fill: #f59e0b; stroke: #f59e0b"/>
     <use xlink:href="#m4bb25d8bca" x="872.51804" y="244.200995" style="fill: #f59e0b; stroke: #f59e0b"/>
     <use xlink:href="#m4bb25d8bca" x="888.950767" y="290.50577" style="fill: #f59e0b; stroke: #f59e0b"/>
     <use xlink:href="#m4bb25d8bca" x="905.383494" y="358.250763" style="fill: #f59e0b; stroke: #f59e0b"/>
     <use xlink:href="#m4bb25d8bca" x="921.816222" y="289.585049" style="fill: #f59e0b; stroke: #f59e0b"/>
     <use xlink:href="#m4bb25d8bca" x="938.248949" y="319.642112" style="fill: #f59e0b; stroke: #f59e0b"/>
     <use xlink:href="#m4bb25d8bca" x="954.681676" y="260.212367" style="fill: #f59e0b; stroke: #f59e0b"/>
     <use xlink:href="#m4bb25d8bca" x="971.114403" y="218.793653" style="fill: #f59e0b; stroke: #f59e0b"/>
    </g>
   </g>
   <g id="line2d_63">
    <path d="M 708.190767 178.996312 
L 724.623494 230.290662 
L 741.056222 39.102628 
L 757.488949 203.816159 
L 773.921676 85.733856 
L 790.354403 170.723029 
L 806.787131 178.996312 
L 823.219858 205.527872 
L 839.652585 190.147257 
L 856.085313 204.017946 
L 872.51804 178.996312 
L 888.950767 135.378666 
L 905.383494 129.964947 
L 921.816222 135.964138 
L 938.248949 181.978541 
L 954.681676 155.373913 
L 971.114403 148.823164 
" clip-path="url(#p33383962ba)" style="fill: none; stroke: #059669; stroke-width: 1.5; stroke-linecap: square"/>
    <g clip-path="url(#p33383962ba)">
     <use xlink:href="#m1236c24f1b" x="708.190767" y="178.996312" style="fill: #059669; stroke: #059669"/>
     <use xlink:href="#m1236c24f1b" x="724.623494" y="230.290662" style="fill: #059669; stroke: #059669"/>
     <use xlink:href="#m1236c24f1b" x="741.056222" y="39.102628" style="fill: #059669; stroke: #059669"/>
     <use xlink:href="#m1236c24f1b" x="757.488949" y="203.816159" style="fill: #059669; stroke: #059669"/>
     <use xlink:href="#m1236c24f1b" x="773.921676" y="85.733856" style="fill: #059669; stroke: #059669"/>
     <use xlink:href="#m1236c24f1b" x="790.354403" y="170.723029" style="fill: #059669; stroke: #059669"/>
     <use xlink:href="#m1236c24f1b" x="806.787131" y="178.996312" style="fill: #059669; stroke: #059669"/>
     <use xlink:href="#m1236c24f1b" x="823.219858" y="205.527872" style="fill: #059669; stroke: #059669"/>
     <use xlink:href="#m1236c24f1b" x="839.652585" y="190.147257" style="fill: #059669; stroke: #059669"/>
     <use xlink:href="#m1236c24f1b" x="856.085313" y="204.017946" style="fill: #059669; stroke: #059669"/>
     <use xlink:href="#m1236c24f1b" x="872.51804" y="178.996312" style="fill: #059669; stroke: #059669"/>
     <use xlink:href="#m1236c24f1b" x="888.950767" y="135.378666" style="fill: #059669; stroke: #059669"/>
     <use xlink:href="#m1236c24f1b" x="905.383494" y="129.964947" style="fill: #059669; stroke: #059669"/>
     <use xlink:href="#m1236c24f1b" x="921.816222" y="135.964138" style="fill: #059669; stroke: #059669"/>
     <use xlink:href="#m1236c24f1b" x="938.248949" y="181.978541" style="fill: #059669; stroke: #059669"/>
     <use xlink:href="#m1236c24f1b" x="954.681676" y="155.373913" style="fill: #059669; stroke: #059669"/>
     <use xlink:href="#m1236c24f1b" x="971.114403" y="148.823164" style="fill: #059669; stroke: #059669"/>
    </g>
   </g>
   <g id="line2d_64">
    <path d="M 560.296222 284.602328 
L 576.728949 336.825083 
L 593.161676 323.958607 
L 609.594403 293.966408 
L 626.027131 324.561361 
L 642.459858 329.862049 
L 658.892585 355.320642 
L 675.325313 330.785717 
L 691.75804 367.72081 
L 708.190767 337.76454 
L 724.623494 339.643454 
L 741.056222 305.98718 
L 757.488949 325.551599 
L 773.921676 337.914392 
L 790.354403 311.568667 
L 806.787131 326.248155 
L 823.219858 341.027203 
L 839.652585 347.892345 
L 856.085313 343.192514 
L 872.51804 326.3086 
L 888.950767 332.567544 
L 905.383494 349.657291 
L 921.816222 326.543984 
L 938.248949 324.09501 
L 954.681676 319.82262 
L 971.114403 327.283617 
" clip-path="url(#p33383962ba)" style="fill: none; stroke-dasharray: 5.55,2.4; stroke-dashoffset: 0; stroke: #6b7280; stroke-width: 1.5"/>
    <g clip-path="url(#p33383962ba)">
     <use xlink:href="#m3ad31d6d59" x="560.296222" y="284.602328" style="fill: #6b7280; stroke: #6b7280"/>
     <use xlink:href="#m3ad31d6d59" x="576.728949" y="336.825083" style="fill: #6b7280; stroke: #6b7280"/>
     <use xlink:href="#m3ad31d6d59" x="593.161676" y="323.958607" style="fill: #6b7280; stroke: #6b7280"/>
     <use xlink:href="#m3ad31d6d59" x="609.594403" y="293.966408" style="fill: #6b7280; stroke: #6b7280"/>
     <use xlink:href="#m3ad31d6d59" x="626.027131" y="324.561361" style="fill: #6b7280; stroke: #6b7280"/>
     <use xlink:href="#m3ad31d6d59" x="642.459858" y="329.862049" style="fill: #6b7280; stroke: #6b7280"/>
     <use xlink:href="#m3ad31d6d59" x="658.892585" y="355.320642" style="fill: #6b7280; stroke: #6b7280"/>
     <use xlink:href="#m3ad31d6d59" x="675.325313" y="330.785717" style="fill: #6b7280; stroke: #6b7280"/>
     <use xlink:href="#m3ad31d6d59" x="691.75804" y="367.72081" style="fill: #6b7280; stroke: #6b7280"/>
     <use xlink:href="#m3ad31d6d59" x="708.190767" y="337.76454" style="fill: #6b7280; stroke: #6b7280"/>
     <use xlink:href="#m3ad31d6d59" x="724.623494" y="339.643454" style="fill: #6b7280; stroke: #6b7280"/>
     <use xlink:href="#m3ad31d6d59" x="741.056222" y="305.98718" style="fill: #6b7280; stroke: #6b7280"/>
     <use xlink:href="#m3ad31d6d59" x="757.488949" y="325.551599" style="fill: #6b7280; stroke: #6b7280"/>
     <use xlink:href="#m3ad31d6d59" x="773.921676" y="337.914392" style="fill: #6b7280; stroke: #6b7280"/>
     <use xlink:href="#m3ad31d6d59" x="790.354403" y="311.568667" style="fill: #6b7280; stroke: #6b7280"/>
     <use xlink:href="#m3ad31d6d59" x="806.787131" y="326.248155" style="fill: #6b7280; stroke: #6b7280"/>
     <use xlink:href="#m3ad31d6d59" x="823.219858" y="341.027203" style="fill: #6b7280; stroke: #6b7280"/>
     <use xlink:href="#m3ad31d6d59" x="839.652585" y="347.892345" style="fill: #6b7280; stroke: #6b7280"/>
     <use xlink:href="#m3ad31d6d59" x="856.085313" y="343.192514" style="fill: #6b7280; stroke: #6b7280"/>
     <use xlink:href="#m3ad31d6d59" x="872.51804" y="326.3086" style="fill: #6b7280; stroke: #6b7280"/>
     <use xlink:href="#m3ad31d6d59" x="888.950767" y="332.567544" style="fill: #6b7280; stroke: #6b7280"/>
     <use xlink:href="#m3ad31d6d59" x="905.383494" y="349.657291" style="fill: #6b7280; stroke: #6b7280"/>
     <use xlink:href="#m3ad31d6d59" x="921.816222" y="326.543984" style="fill: #6b7280; stroke: #6b7280"/>
     <use xlink:href="#m3ad31d6d59" x="938.248949" y="324.09501" style="fill: #6b7280; stroke: #6b7280"/>
     <use xlink:href="#m3ad31d6d59" x="954.681676" y="319.82262" style="fill: #6b7280; stroke: #6b7280"/>
     <use xlink:href="#m3ad31d6d59" x="971.114403" y="327.283617" style="fill: #6b7280; stroke: #6b7280"/>
    </g>
   </g>
   <g id="patch_7">
    <path d="M 539.755313 384.151719 
L 539.755313 22.671719 
" style="fill: none; stroke: #000000; stroke-width: 0.8; stroke-linejoin: miter; stroke-linecap: square"/>
   </g>
   <g id="patch_8">
    <path d="M 539.755313 384.151719 
L 991.655313 384.151719 
" style="fill: none; stroke: #000000; stroke-width: 0.8; stroke-linejoin: miter; stroke-linecap: square"/>
   </g>
   <g id="text_36">
    <!-- GH Last Authorship Over Time by Partner Type -->
    <g transform="translate(629.987344 16.671719) scale(0.13 -0.13)">
     <use xlink:href="#ArialMT-47"/>
     <use xlink:href="#ArialMT-48" transform="translate(77.783203 0)"/>
     <use xlink:href="#ArialMT-20" transform="translate(150 0)"/>
     <use xlink:href="#ArialMT-4c" transform="translate(177.783203 0)"/>
     <use xlink:href="#ArialMT-61" transform="translate(233.398438 0)"/>
     <use xlink:href="#ArialMT-73" transform="translate(289.013672 0)"/>
     <use xlink:href="#ArialMT-74" transform="translate(339.013672 0)"/>
     <use xlink:href="#ArialMT-20" transform="translate(366.796875 0)"/>
     <use xlink:href="#ArialMT-41" transform="translate(389.080078 0)"/>
     <use xlink:href="#ArialMT-75" transform="translate(455.779297 0)"/>
     <use xlink:href="#ArialMT-74" transform="translate(511.394531 0)"/>
     <use xlink:href="#ArialMT-68" transform="translate(539.177734 0)"/>
     <use xlink:href="#ArialMT-6f" transform="translate(594.792969 0)"/>
     <use xlink:href="#ArialMT-72" transform="translate(650.408203 0)"/>
     <use xlink:href="#ArialMT-73" transform="translate(683.708984 0)"/>
     <use xlink:href="#ArialMT-68" transform="translate(733.708984 0)"/>
     <use xlink:href="#ArialMT-69" transform="translate(789.324219 0)"/>
     <use xlink:href="#ArialMT-70" transform="translate(811.541016 0)"/>
     <use xlink:href="#ArialMT-20" transform="translate(867.15625 0)"/>
     <use xlink:href="#ArialMT-4f" transform="translate(894.939453 0)"/>
     <use xlink:href="#ArialMT-76" transform="translate(972.722656 0)"/>
     <use xlink:href="#ArialMT-65" transform="translate(1022.722656 0)"/>
     <use xlink:href="#ArialMT-72" transform="translate(1078.337891 0)"/>
     <use xlink:href="#ArialMT-20" transform="translate(1111.638672 0)"/>
     <use xlink:href="#ArialMT-54" transform="translate(1137.671875 0)"/>
     <use xlink:href="#ArialMT-69" transform="translate(1195.005859 0)"/>
     <use xlink:href="#ArialMT-6d" transform="translate(1217.222656 0)"/>
     <use xlink:href="#ArialMT-65" transform="translate(1300.523438 0)"/>
     <use xlink:href="#ArialMT-20" transform="translate(1356.138672 0)"/>
     <use xlink:href="#ArialMT-62" transform="translate(1383.921875 0)"/>
     <use xlink:href="#ArialMT-79" transform="translate(1439.537109 0)"/>
     <use xlink:href="#ArialMT-20" transform="translate(1489.537109 0)"/>
     <use xlink:href="#ArialMT-50" transform="translate(1517.320312 0)"/>
     <use xlink:href="#ArialMT-61" transform="translate(1584.019531 0)"/>
     <use xlink:href="#ArialMT-72" transform="translate(1639.634766 0)"/>
     <use xlink:href="#ArialMT-74" transform="translate(1672.935547 0)"/>
     <use xlink:href="#ArialMT-6e" transform="translate(1700.71875 0)"/>
     <use xlink:href="#ArialMT-65" transform="translate(1756.333984 0)"/>
     <use xlink:href="#ArialMT-72" transform="translate(1811.949219 0)"/>
     <use xlink:href="#ArialMT-20" transform="translate(1845.25 0)"/>
     <use xlink:href="#ArialMT-54" transform="translate(1871.283203 0)"/>
     <use xlink:href="#ArialMT-79" transform="translate(1926.867188 0)"/>
     <use xlink:href="#ArialMT-70" transform="translate(1976.867188 0)"/>
     <use xlink:href="#ArialMT-65" transform="translate(2032.482422 0)"/>
    </g>
   </g>
   <g id="legend_2">
    <g id="patch_9">
     <path d="M 891.540312 74.430469 
L 986.055312 74.430469 
Q 987.655312 74.430469 987.655312 72.830469 
L 987.655312 28.271719 
Q 987.655312 26.671719 986.055312 26.671719 
L 891.540312 26.671719 
Q 889.940312 26.671719 889.940312 28.271719 
L 889.940312 72.830469 
Q 889.940312 74.430469 891.540312 74.430469 
z
" style="fill: #ffffff; opacity: 0.8; stroke: #cccccc; stroke-linejoin: miter"/>
    </g>
    <g id="line2d_65">
     <path d="M 893.140312 32.797969 
L 901.140312 32.797969 
L 909.140312 32.797969 
" style="fill: none; stroke: #2563eb; stroke-width: 1.5; stroke-linecap: square"/>
     <g>
      <use xlink:href="#m02e826c1d6" x="901.140312" y="32.797969" style="fill: #2563eb; stroke: #2563eb"/>
     </g>
    </g>
    <g id="text_37">
     <!-- Traditional Western -->
     <g transform="translate(915.540312 35.597969) scale(0.08 -0.08)">
      <use xlink:href="#ArialMT-54"/>
      <use xlink:href="#ArialMT-72" transform="translate(57.333984 0)"/>
      <use xlink:href="#ArialMT-61" transform="translate(90.634766 0)"/>
      <use xlink:href="#ArialMT-64" transform="translate(146.25 0)"/>
      <use xlink:href="#ArialMT-69" transform="translate(201.865234 0)"/>
      <use xlink:href="#ArialMT-74" transform="translate(224.082031 0)"/>
      <use xlink:href="#ArialMT-69" transform="translate(251.865234 0)"/>
      <use xlink:href="#ArialMT-6f" transform="translate(274.082031 0)"/>
      <use xlink:href="#ArialMT-6e" transform="translate(329.697266 0)"/>
      <use xlink:href="#ArialMT-61" transform="translate(385.3125 0)"/>
      <use xlink:href="#ArialMT-6c" transform="translate(440.927734 0)"/>
      <use xlink:href="#ArialMT-20" transform="translate(463.144531 0)"/>
      <use xlink:href="#ArialMT-57" transform="translate(490.927734 0)"/>
      <use xlink:href="#ArialMT-65" transform="translate(583.5625 0)"/>
      <use xlink:href="#ArialMT-73" transform="translate(639.177734 0)"/>
      <use xlink:href="#ArialMT-74" transform="translate(689.177734 0)"/>
      <use xlink:href="#ArialMT-65" transform="translate(716.960938 0)"/>
      <use xlink:href="#ArialMT-72" transform="translate(772.576172 0)"/>
      <use xlink:href="#ArialMT-6e" transform="translate(805.876953 0)"/>
     </g>
    </g>
    <g id="line2d_66">
     <path d="M 893.140312 44.114219 
L 901.140312 44.114219 
L 909.140312 44.114219 
" style="fill: none; stroke: #f59e0b; stroke-width: 1.5; stroke-linecap: square"/>
     <g>
      <use xlink:href="#m4bb25d8bca" x="901.140312" y="44.114219" style="fill: #f59e0b; stroke: #f59e0b"/>
     </g>
    </g>
    <g id="text_38">
     <!-- Emerging Power -->
     <g transform="translate(915.540312 46.914219) scale(0.08 -0.08)">
      <use xlink:href="#ArialMT-45"/>
      <use xlink:href="#ArialMT-6d" transform="translate(66.699219 0)"/>
      <use xlink:href="#ArialMT-65" transform="translate(150 0)"/>
      <use xlink:href="#ArialMT-72" transform="translate(205.615234 0)"/>
      <use xlink:href="#ArialMT-67" transform="translate(238.916016 0)"/>
      <use xlink:href="#ArialMT-69" transform="translate(294.53125 0)"/>
      <use xlink:href="#ArialMT-6e" transform="translate(316.748047 0)"/>
      <use xlink:href="#ArialMT-67" transform="translate(372.363281 0)"/>
      <use xlink:href="#ArialMT-20" transform="translate(427.978516 0)"/>
      <use xlink:href="#ArialMT-50" transform="translate(455.761719 0)"/>
      <use xlink:href="#ArialMT-6f" transform="translate(522.460938 0)"/>
      <use xlink:href="#ArialMT-77" transform="translate(578.076172 0)"/>
      <use xlink:href="#ArialMT-65" transform="translate(650.292969 0)"/>
      <use xlink:href="#ArialMT-72" transform="translate(705.908203 0)"/>
     </g>
    </g>
    <g id="line2d_67">
     <path d="M 893.140312 55.524219 
L 901.140312 55.524219 
L 909.140312 55.524219 
" style="fill: none; stroke: #059669; stroke-width: 1.5; stroke-linecap: square"/>
     <g>
      <use xlink:href="#m1236c24f1b" x="901.140312" y="55.524219" style="fill: #059669; stroke: #059669"/>
     </g>
    </g>
    <g id="text_39">
     <!-- African -->
     <g transform="translate(915.540312 58.324219) scale(0.08 -0.08)">
      <use xlink:href="#ArialMT-41"/>
      <use xlink:href="#ArialMT-66" transform="translate(66.699219 0)"/>
      <use xlink:href="#ArialMT-72" transform="translate(94.482422 0)"/>
      <use xlink:href="#ArialMT-69" transform="translate(127.783203 0)"/>
      <use xlink:href="#ArialMT-63" transform="translate(150 0)"/>
      <use xlink:href="#ArialMT-61" transform="translate(200 0)"/>
      <use xlink:href="#ArialMT-6e" transform="translate(255.615234 0)"/>
     </g>
    </g>
    <g id="line2d_68">
     <path d="M 893.140312 66.840469 
L 901.140312 66.840469 
L 909.140312 66.840469 
" style="fill: none; stroke-dasharray: 5.55,2.4; stroke-dashoffset: 0; stroke: #6b7280; stroke-width: 1.5"/>
     <g>
      <use xlink:href="#m3ad31d6d59" x="901.140312" y="66.840469" style="fill: #6b7280; stroke: #6b7280"/>
     </g>
    </g>
    <g id="text_40">
     <!-- Mixed -->
     <g transform="translate(915.540312 69.640469) scale(0.08 -0.08)">
      <use xlink:href="#ArialMT-4d"/>
      <use xlink:href="#ArialMT-69" transform="translate(83.300781 0)"/>
      <use xlink:href="#ArialMT-78" transform="translate(105.517578 0)"/>
      <use xlink:href="#ArialMT-65" transform="translate(155.517578 0)"/>
      <use xlink:href="#ArialMT-64" transform="translate(211.132812 0)"/>
     </g>
    </g>
   </g>
  </g>
 </g>
 <defs>
  <clipPath id="pd5ee275c8c">
   <rect x="41.695313" y="22.671719" width="451.9" height="361.48"/>
  </clipPath>
  <clipPath id="p33383962ba">
   <rect x="539.755313" y="22.671719" width="451.9" height="361.48"/>
  </clipPath>
 </defs>
</svg>
