<?xml version="1.0" encoding="utf-8" standalone="no"?>
<!DOCTYPE svg PUBLIC "-//W3C//DTD SVG 1.1//EN"
  "http://www.w3.org/Graphics/SVG/1.1/DTD/svg11.dtd">
<svg xmlns:xlink="http://www.w3.org/1999/xlink" width="710.578906pt" height="510.072187pt" viewBox="0 0 710.578906 510.072187" xmlns="http://www.w3.org/2000/svg" version="1.1">
 <metadata>
  <rdf:RDF xmlns:dc="http://purl.org/dc/elements/1.1/" xmlns:cc="http://creativecommons.org/ns#" xmlns:rdf="http://www.w3.org/1999/02/22-rdf-syntax-ns#">
   <cc:Work>
    <dc:type rdf:resource="http://purl.org/dc/dcmitype/StillImage"/>
    <dc:date>2026-04-13T22:29:59.379392</dc:date>
    <dc:format>image/svg+xml</dc:format>
    <dc:creator>
     <cc:Agent>
      <dc:title>Matplotlib v3.10.8, https://matplotlib.org/</dc:title>
     </cc:Agent>
    </dc:creator>
   </cc:Work>
  </rdf:RDF>
 </metadata>
 <defs>
  <style type="text/css">*{stroke-linejoin: round; stroke-linecap: butt}</style>
 </defs>
 <g id="figure_1">
  <g id="patch_1">
   <path d="M 0 510.072187 
L 710.578906 510.072187 
L 710.578906 0 
L 0 0 
z
" style="fill: #ffffff"/>
  </g>
  <g id="axes_1">
   <g id="patch_2">
    <path d="M 238.178906 470.543594 
L 703.378906 470.543594 
L 703.378906 22.663594 
L 238.178906 22.663594 
z
" style="fill: #ffffff"/>
   </g>
   <g id="matplotlib.axis_1">
    <g id="xtick_1">
     <g id="line2d_1">
      <defs>
       <path id="mceb97345fb" d="M 0 0 
L 0 3.5 
" style="stroke: #000000; stroke-width: 0.8"/>
      </defs>
      <g>
       <use xlink:href="#mceb97345fb" x="372.897081" y="470.543594" style="stroke: #000000; stroke-width: 0.8"/>
      </g>
     </g>
     <g id="text_1">
      <!-- 1.00 -->
      <g transform="translate(362.193566 485.417187) scale(0.11 -0.11)">
       <defs>
        <path id="ArialMT-31" d="M 2384 0 
L 1822 0 
L 1822 3584 
Q 1619 3391 1289 3197 
Q 959 3003 697 2906 
L 697 3450 
Q 1169 3672 1522 3987 
Q 1875 4303 2022 4600 
L 2384 4600 
L 2384 0 
z
" transform="scale(0.015625)"/>
        <path id="ArialMT-2e" d="M 581 0 
L 581 641 
L 1222 641 
L 1222 0 
L 581 0 
z
" transform="scale(0.015625)"/>
        <path id="ArialMT-30" d="M 266 2259 
Q 266 3072 433 3567 
Q 600 4063 929 4331 
Q 1259 4600 1759 4600 
Q 2128 4600 2406 4451 
Q 2684 4303 2865 4023 
Q 3047 3744 3150 3342 
Q 3253 2941 3253 2259 
Q 3253 1453 3087 958 
Q 2922 463 2592 192 
Q 2263 -78 1759 -78 
Q 1097 -78 719 397 
Q 266 969 266 2259 
z
M 844 2259 
Q 844 1131 1108 757 
Q 1372 384 1759 384 
Q 2147 384 2411 759 
Q 2675 1134 2675 2259 
Q 2675 3391 2411 3762 
Q 2147 4134 1753 4134 
Q 1366 4134 1134 3806 
Q 844 3388 844 2259 
z
" transform="scale(0.015625)"/>
       </defs>
       <use xlink:href="#ArialMT-31"/>
       <use xlink:href="#ArialMT-2e" transform="translate(55.615234 0)"/>
       <use xlink:href="#ArialMT-30" transform="translate(83.398438 0)"/>
       <use xlink:href="#ArialMT-30" transform="translate(139.013672 0)"/>
      </g>
     </g>
    </g>
    <g id="xtick_2">
     <g id="line2d_2">
      <g>
       <use xlink:href="#mceb97345fb" x="606.473772" y="470.543594" style="stroke: #000000; stroke-width: 0.8"/>
      </g>
     </g>
     <g id="text_2">
      <!-- 10.00 -->
      <g transform="translate(592.711741 485.417187) scale(0.11 -0.11)">
       <use xlink:href="#ArialMT-31"/>
       <use xlink:href="#ArialMT-30" transform="translate(55.615234 0)"/>
       <use xlink:href="#ArialMT-2e" transform="translate(111.230469 0)"/>
       <use xlink:href="#ArialMT-30" transform="translate(139.013672 0)"/>
       <use xlink:href="#ArialMT-30" transform="translate(194.628906 0)"/>
      </g>
     </g>
    </g>
    <g id="xtick_3">
     <g id="line2d_3">
      <defs>
       <path id="mfeeb31cb2d" d="M 0 0 
L 0 2 
" style="stroke: #000000; stroke-width: 0.6"/>
      </defs>
      <g>
       <use xlink:href="#mfeeb31cb2d" x="250.764794" y="470.543594" style="stroke: #000000; stroke-width: 0.6"/>
      </g>
     </g>
    </g>
    <g id="xtick_4">
     <g id="line2d_4">
      <g>
       <use xlink:href="#mfeeb31cb2d" x="279.947571" y="470.543594" style="stroke: #000000; stroke-width: 0.6"/>
      </g>
     </g>
    </g>
    <g id="xtick_5">
     <g id="line2d_5">
      <g>
       <use xlink:href="#mfeeb31cb2d" x="302.583491" y="470.543594" style="stroke: #000000; stroke-width: 0.6"/>
      </g>
     </g>
    </g>
    <g id="xtick_6">
     <g id="line2d_6">
      <g>
       <use xlink:href="#mfeeb31cb2d" x="321.078384" y="470.543594" style="stroke: #000000; stroke-width: 0.6"/>
      </g>
     </g>
    </g>
    <g id="xtick_7">
     <g id="line2d_7">
      <g>
       <use xlink:href="#mfeeb31cb2d" x="336.715594" y="470.543594" style="stroke: #000000; stroke-width: 0.6"/>
      </g>
     </g>
    </g>
    <g id="xtick_8">
     <g id="line2d_8">
      <g>
       <use xlink:href="#mfeeb31cb2d" x="350.261161" y="470.543594" style="stroke: #000000; stroke-width: 0.6"/>
      </g>
     </g>
    </g>
    <g id="xtick_9">
     <g id="line2d_9">
      <g>
       <use xlink:href="#mfeeb31cb2d" x="362.209198" y="470.543594" style="stroke: #000000; stroke-width: 0.6"/>
      </g>
     </g>
    </g>
    <g id="xtick_10">
     <g id="line2d_10">
      <g>
       <use xlink:href="#mfeeb31cb2d" x="443.210671" y="470.543594" style="stroke: #000000; stroke-width: 0.6"/>
      </g>
     </g>
    </g>
    <g id="xtick_11">
     <g id="line2d_11">
      <g>
       <use xlink:href="#mfeeb31cb2d" x="484.341485" y="470.543594" style="stroke: #000000; stroke-width: 0.6"/>
      </g>
     </g>
    </g>
    <g id="xtick_12">
     <g id="line2d_12">
      <g>
       <use xlink:href="#mfeeb31cb2d" x="513.524262" y="470.543594" style="stroke: #000000; stroke-width: 0.6"/>
      </g>
     </g>
    </g>
    <g id="xtick_13">
     <g id="line2d_13">
      <g>
       <use xlink:href="#mfeeb31cb2d" x="536.160182" y="470.543594" style="stroke: #000000; stroke-width: 0.6"/>
      </g>
     </g>
    </g>
    <g id="xtick_14">
     <g id="line2d_14">
      <g>
       <use xlink:href="#mfeeb31cb2d" x="554.655075" y="470.543594" style="stroke: #000000; stroke-width: 0.6"/>
      </g>
     </g>
    </g>
    <g id="xtick_15">
     <g id="line2d_15">
      <g>
       <use xlink:href="#mfeeb31cb2d" x="570.292285" y="470.543594" style="stroke: #000000; stroke-width: 0.6"/>
      </g>
     </g>
    </g>
    <g id="xtick_16">
     <g id="line2d_16">
      <g>
       <use xlink:href="#mfeeb31cb2d" x="583.837852" y="470.543594" style="stroke: #000000; stroke-width: 0.6"/>
      </g>
     </g>
    </g>
    <g id="xtick_17">
     <g id="line2d_17">
      <g>
       <use xlink:href="#mfeeb31cb2d" x="595.785889" y="470.543594" style="stroke: #000000; stroke-width: 0.6"/>
      </g>
     </g>
    </g>
    <g id="xtick_18">
     <g id="line2d_18">
      <g>
       <use xlink:href="#mfeeb31cb2d" x="676.787362" y="470.543594" style="stroke: #000000; stroke-width: 0.6"/>
      </g>
     </g>
    </g>
    <g id="text_3">
     <!-- Odds Ratio (95% CI) -->
     <g transform="translate(415.427969 500.346562) scale(0.12 -0.12)">
      <defs>
       <path id="ArialMT-4f" d="M 309 2231 
Q 309 3372 921 4017 
Q 1534 4663 2503 4663 
Q 3138 4663 3647 4359 
Q 4156 4056 4423 3514 
Q 4691 2972 4691 2284 
Q 4691 1588 4409 1038 
Q 4128 488 3612 205 
Q 3097 -78 2500 -78 
Q 1853 -78 1343 234 
Q 834 547 571 1087 
Q 309 1628 309 2231 
z
M 934 2222 
Q 934 1394 1379 917 
Q 1825 441 2497 441 
Q 3181 441 3623 922 
Q 4066 1403 4066 2288 
Q 4066 2847 3877 3264 
Q 3688 3681 3323 3911 
Q 2959 4141 2506 4141 
Q 1863 4141 1398 3698 
Q 934 3256 934 2222 
z
" transform="scale(0.015625)"/>
       <path id="ArialMT-64" d="M 2575 0 
L 2575 419 
Q 2259 -75 1647 -75 
Q 1250 -75 917 144 
Q 584 363 401 755 
Q 219 1147 219 1656 
Q 219 2153 384 2558 
Q 550 2963 881 3178 
Q 1213 3394 1622 3394 
Q 1922 3394 2156 3267 
Q 2391 3141 2538 2938 
L 2538 4581 
L 3097 4581 
L 3097 0 
L 2575 0 
z
M 797 1656 
Q 797 1019 1065 703 
Q 1334 388 1700 388 
Q 2069 388 2326 689 
Q 2584 991 2584 1609 
Q 2584 2291 2321 2609 
Q 2059 2928 1675 2928 
Q 1300 2928 1048 2622 
Q 797 2316 797 1656 
z
" transform="scale(0.015625)"/>
       <path id="ArialMT-73" d="M 197 991 
L 753 1078 
Q 800 744 1014 566 
Q 1228 388 1613 388 
Q 2000 388 2187 545 
Q 2375 703 2375 916 
Q 2375 1106 2209 1216 
Q 2094 1291 1634 1406 
Q 1016 1563 777 1677 
Q 538 1791 414 1992 
Q 291 2194 291 2438 
Q 291 2659 392 2848 
Q 494 3038 669 3163 
Q 800 3259 1026 3326 
Q 1253 3394 1513 3394 
Q 1903 3394 2198 3281 
Q 2494 3169 2634 2976 
Q 2775 2784 2828 2463 
L 2278 2388 
Q 2241 2644 2061 2787 
Q 1881 2931 1553 2931 
Q 1166 2931 1000 2803 
Q 834 2675 834 2503 
Q 834 2394 903 2306 
Q 972 2216 1119 2156 
Q 1203 2125 1616 2013 
Q 2213 1853 2448 1751 
Q 2684 1650 2818 1456 
Q 2953 1263 2953 975 
Q 2953 694 2789 445 
Q 2625 197 2315 61 
Q 2006 -75 1616 -75 
Q 969 -75 630 194 
Q 291 463 197 991 
z
" transform="scale(0.015625)"/>
       <path id="ArialMT-20" transform="scale(0.015625)"/>
       <path id="ArialMT-52" d="M 503 0 
L 503 4581 
L 2534 4581 
Q 3147 4581 3465 4457 
Q 3784 4334 3975 4021 
Q 4166 3709 4166 3331 
Q 4166 2844 3850 2509 
Q 3534 2175 2875 2084 
Q 3116 1969 3241 1856 
Q 3506 1613 3744 1247 
L 4541 0 
L 3778 0 
L 3172 953 
Q 2906 1366 2734 1584 
Q 2563 1803 2427 1890 
Q 2291 1978 2150 2013 
Q 2047 2034 1813 2034 
L 1109 2034 
L 1109 0 
L 503 0 
z
M 1109 2559 
L 2413 2559 
Q 2828 2559 3062 2645 
Q 3297 2731 3419 2920 
Q 3541 3109 3541 3331 
Q 3541 3656 3305 3865 
Q 3069 4075 2559 4075 
L 1109 4075 
L 1109 2559 
z
" transform="scale(0.015625)"/>
       <path id="ArialMT-61" d="M 2588 409 
Q 2275 144 1986 34 
Q 1697 -75 1366 -75 
Q 819 -75 525 192 
Q 231 459 231 875 
Q 231 1119 342 1320 
Q 453 1522 633 1644 
Q 813 1766 1038 1828 
Q 1203 1872 1538 1913 
Q 2219 1994 2541 2106 
Q 2544 2222 2544 2253 
Q 2544 2597 2384 2738 
Q 2169 2928 1744 2928 
Q 1347 2928 1158 2789 
Q 969 2650 878 2297 
L 328 2372 
Q 403 2725 575 2942 
Q 747 3159 1072 3276 
Q 1397 3394 1825 3394 
Q 2250 3394 2515 3294 
Q 2781 3194 2906 3042 
Q 3031 2891 3081 2659 
Q 3109 2516 3109 2141 
L 3109 1391 
Q 3109 606 3145 398 
Q 3181 191 3288 0 
L 2700 0 
Q 2613 175 2588 409 
z
M 2541 1666 
Q 2234 1541 1622 1453 
Q 1275 1403 1131 1340 
Q 988 1278 909 1158 
Q 831 1038 831 891 
Q 831 666 1001 516 
Q 1172 366 1500 366 
Q 1825 366 2078 508 
Q 2331 650 2450 897 
Q 2541 1088 2541 1459 
L 2541 1666 
z
" transform="scale(0.015625)"/>
       <path id="ArialMT-74" d="M 1650 503 
L 1731 6 
Q 1494 -44 1306 -44 
Q 1000 -44 831 53 
Q 663 150 594 308 
Q 525 466 525 972 
L 525 2881 
L 113 2881 
L 113 3319 
L 525 3319 
L 525 4141 
L 1084 4478 
L 1084 3319 
L 1650 3319 
L 1650 2881 
L 1084 2881 
L 1084 941 
Q 1084 700 1114 631 
Q 1144 563 1211 522 
Q 1278 481 1403 481 
Q 1497 481 1650 503 
z
" transform="scale(0.015625)"/>
       <path id="ArialMT-69" d="M 425 3934 
L 425 4581 
L 988 4581 
L 988 3934 
L 425 3934 
z
M 425 0 
L 425 3319 
L 988 3319 
L 988 0 
L 425 0 
z
" transform="scale(0.015625)"/>
       <path id="ArialMT-6f" d="M 213 1659 
Q 213 2581 725 3025 
Q 1153 3394 1769 3394 
Q 2453 3394 2887 2945 
Q 3322 2497 3322 1706 
Q 3322 1066 3130 698 
Q 2938 331 2570 128 
Q 2203 -75 1769 -75 
Q 1072 -75 642 372 
Q 213 819 213 1659 
z
M 791 1659 
Q 791 1022 1069 705 
Q 1347 388 1769 388 
Q 2188 388 2466 706 
Q 2744 1025 2744 1678 
Q 2744 2294 2464 2611 
Q 2184 2928 1769 2928 
Q 1347 2928 1069 2612 
Q 791 2297 791 1659 
z
" transform="scale(0.015625)"/>
       <path id="ArialMT-28" d="M 1497 -1347 
Q 1031 -759 709 28 
Q 388 816 388 1659 
Q 388 2403 628 3084 
Q 909 3875 1497 4659 
L 1900 4659 
Q 1522 4009 1400 3731 
Q 1209 3300 1100 2831 
Q 966 2247 966 1656 
Q 966 153 1900 -1347 
L 1497 -1347 
z
" transform="scale(0.015625)"/>
       <path id="ArialMT-39" d="M 350 1059 
L 891 1109 
Q 959 728 1153 556 
Q 1347 384 1650 384 
Q 1909 384 2104 503 
Q 2300 622 2425 820 
Q 2550 1019 2634 1356 
Q 2719 1694 2719 2044 
Q 2719 2081 2716 2156 
Q 2547 1888 2255 1720 
Q 1963 1553 1622 1553 
Q 1053 1553 659 1965 
Q 266 2378 266 3053 
Q 266 3750 677 4175 
Q 1088 4600 1706 4600 
Q 2153 4600 2523 4359 
Q 2894 4119 3086 3673 
Q 3278 3228 3278 2384 
Q 3278 1506 3087 986 
Q 2897 466 2520 194 
Q 2144 -78 1638 -78 
Q 1100 -78 759 220 
Q 419 519 350 1059 
z
M 2653 3081 
Q 2653 3566 2395 3850 
Q 2138 4134 1775 4134 
Q 1400 4134 1122 3828 
Q 844 3522 844 3034 
Q 844 2597 1108 2323 
Q 1372 2050 1759 2050 
Q 2150 2050 2401 2323 
Q 2653 2597 2653 3081 
z
" transform="scale(0.015625)"/>
       <path id="ArialMT-35" d="M 266 1200 
L 856 1250 
Q 922 819 1161 601 
Q 1400 384 1738 384 
Q 2144 384 2425 690 
Q 2706 997 2706 1503 
Q 2706 1984 2436 2262 
Q 2166 2541 1728 2541 
Q 1456 2541 1237 2417 
Q 1019 2294 894 2097 
L 366 2166 
L 809 4519 
L 3088 4519 
L 3088 3981 
L 1259 3981 
L 1013 2750 
Q 1425 3038 1878 3038 
Q 2478 3038 2890 2622 
Q 3303 2206 3303 1553 
Q 3303 931 2941 478 
Q 2500 -78 1738 -78 
Q 1113 -78 717 272 
Q 322 622 266 1200 
z
" transform="scale(0.015625)"/>
       <path id="ArialMT-25" d="M 372 3481 
Q 372 3972 619 4315 
Q 866 4659 1334 4659 
Q 1766 4659 2048 4351 
Q 2331 4044 2331 3447 
Q 2331 2866 2045 2552 
Q 1759 2238 1341 2238 
Q 925 2238 648 2547 
Q 372 2856 372 3481 
z
M 1350 4272 
Q 1141 4272 1002 4090 
Q 863 3909 863 3425 
Q 863 2984 1003 2804 
Q 1144 2625 1350 2625 
Q 1563 2625 1702 2806 
Q 1841 2988 1841 3469 
Q 1841 3913 1700 4092 
Q 1559 4272 1350 4272 
z
M 1353 -169 
L 3859 4659 
L 4316 4659 
L 1819 -169 
L 1353 -169 
z
M 3334 1075 
Q 3334 1569 3581 1911 
Q 3828 2253 4300 2253 
Q 4731 2253 5014 1945 
Q 5297 1638 5297 1041 
Q 5297 459 5011 145 
Q 4725 -169 4303 -169 
Q 3888 -169 3611 142 
Q 3334 453 3334 1075 
z
M 4316 1866 
Q 4103 1866 3964 1684 
Q 3825 1503 3825 1019 
Q 3825 581 3965 400 
Q 4106 219 4313 219 
Q 4528 219 4667 400 
Q 4806 581 4806 1063 
Q 4806 1506 4665 1686 
Q 4525 1866 4316 1866 
z
" transform="scale(0.015625)"/>
       <path id="ArialMT-43" d="M 3763 1606 
L 4369 1453 
Q 4178 706 3683 314 
Q 3188 -78 2472 -78 
Q 1731 -78 1267 223 
Q 803 525 561 1097 
Q 319 1669 319 2325 
Q 319 3041 592 3573 
Q 866 4106 1370 4382 
Q 1875 4659 2481 4659 
Q 3169 4659 3637 4309 
Q 4106 3959 4291 3325 
L 3694 3184 
Q 3534 3684 3231 3912 
Q 2928 4141 2469 4141 
Q 1941 4141 1586 3887 
Q 1231 3634 1087 3207 
Q 944 2781 944 2328 
Q 944 1744 1114 1308 
Q 1284 872 1643 656 
Q 2003 441 2422 441 
Q 2931 441 3284 734 
Q 3638 1028 3763 1606 
z
" transform="scale(0.015625)"/>
       <path id="ArialMT-49" d="M 597 0 
L 597 4581 
L 1203 4581 
L 1203 0 
L 597 0 
z
" transform="scale(0.015625)"/>
       <path id="ArialMT-29" d="M 791 -1347 
L 388 -1347 
Q 1322 153 1322 1656 
Q 1322 2244 1188 2822 
Q 1081 3291 891 3722 
Q 769 4003 388 4659 
L 791 4659 
Q 1378 3875 1659 3084 
Q 1900 2403 1900 1659 
Q 1900 816 1576 28 
Q 1253 -759 791 -1347 
z
" transform="scale(0.015625)"/>
      </defs>
      <use xlink:href="#ArialMT-4f"/>
      <use xlink:href="#ArialMT-64" transform="translate(77.783203 0)"/>
      <use xlink:href="#ArialMT-64" transform="translate(133.398438 0)"/>
      <use xlink:href="#ArialMT-73" transform="translate(189.013672 0)"/>
      <use xlink:href="#ArialMT-20" transform="translate(239.013672 0)"/>
      <use xlink:href="#ArialMT-52" transform="translate(266.796875 0)"/>
      <use xlink:href="#ArialMT-61" transform="translate(339.013672 0)"/>
      <use xlink:href="#ArialMT-74" transform="translate(394.628906 0)"/>
      <use xlink:href="#ArialMT-69" transform="translate(422.412109 0)"/>
      <use xlink:href="#ArialMT-6f" transform="translate(444.628906 0)"/>
      <use xlink:href="#ArialMT-20" transform="translate(500.244141 0)"/>
      <use xlink:href="#ArialMT-28" transform="translate(528.027344 0)"/>
      <use xlink:href="#ArialMT-39" transform="translate(561.328125 0)"/>
      <use xlink:href="#ArialMT-35" transform="translate(616.943359 0)"/>
      <use xlink:href="#ArialMT-25" transform="translate(672.558594 0)"/>
      <use xlink:href="#ArialMT-20" transform="translate(761.474609 0)"/>
      <use xlink:href="#ArialMT-43" transform="translate(789.257812 0)"/>
      <use xlink:href="#ArialMT-49" transform="translate(861.474609 0)"/>
      <use xlink:href="#ArialMT-29" transform="translate(889.257812 0)"/>
     </g>
    </g>
   </g>
   <g id="matplotlib.axis_2">
    <g id="ytick_1">
     <g id="line2d_19">
      <defs>
       <path id="m84a697b06e" d="M 0 0 
L -3.5 0 
" style="stroke: #000000; stroke-width: 0.8"/>
      </defs>
      <g>
       <use xlink:href="#m84a697b06e" x="238.178906" y="450.185412" style="stroke: #000000; stroke-width: 0.8"/>
      </g>
     </g>
     <g id="text_4">
      <!-- Multi-bloc -->
      <g transform="translate(184.114375 454.122209) scale(0.11 -0.11)">
       <defs>
        <path id="ArialMT-4d" d="M 475 0 
L 475 4581 
L 1388 4581 
L 2472 1338 
Q 2622 884 2691 659 
Q 2769 909 2934 1394 
L 4031 4581 
L 4847 4581 
L 4847 0 
L 4263 0 
L 4263 3834 
L 2931 0 
L 2384 0 
L 1059 3900 
L 1059 0 
L 475 0 
z
" transform="scale(0.015625)"/>
        <path id="ArialMT-75" d="M 2597 0 
L 2597 488 
Q 2209 -75 1544 -75 
Q 1250 -75 995 37 
Q 741 150 617 320 
Q 494 491 444 738 
Q 409 903 409 1263 
L 409 3319 
L 972 3319 
L 972 1478 
Q 972 1038 1006 884 
Q 1059 663 1231 536 
Q 1403 409 1656 409 
Q 1909 409 2131 539 
Q 2353 669 2445 892 
Q 2538 1116 2538 1541 
L 2538 3319 
L 3100 3319 
L 3100 0 
L 2597 0 
z
" transform="scale(0.015625)"/>
        <path id="ArialMT-6c" d="M 409 0 
L 409 4581 
L 972 4581 
L 972 0 
L 409 0 
z
" transform="scale(0.015625)"/>
        <path id="ArialMT-2d" d="M 203 1375 
L 203 1941 
L 1931 1941 
L 1931 1375 
L 203 1375 
z
" transform="scale(0.015625)"/>
        <path id="ArialMT-62" d="M 941 0 
L 419 0 
L 419 4581 
L 981 4581 
L 981 2947 
Q 1338 3394 1891 3394 
Q 2197 3394 2470 3270 
Q 2744 3147 2920 2923 
Q 3097 2700 3197 2384 
Q 3297 2069 3297 1709 
Q 3297 856 2875 390 
Q 2453 -75 1863 -75 
Q 1275 -75 941 416 
L 941 0 
z
M 934 1684 
Q 934 1088 1097 822 
Q 1363 388 1816 388 
Q 2184 388 2453 708 
Q 2722 1028 2722 1663 
Q 2722 2313 2464 2622 
Q 2206 2931 1841 2931 
Q 1472 2931 1203 2611 
Q 934 2291 934 1684 
z
" transform="scale(0.015625)"/>
        <path id="ArialMT-63" d="M 2588 1216 
L 3141 1144 
Q 3050 572 2676 248 
Q 2303 -75 1759 -75 
Q 1078 -75 664 370 
Q 250 816 250 1647 
Q 250 2184 428 2587 
Q 606 2991 970 3192 
Q 1334 3394 1763 3394 
Q 2303 3394 2647 3120 
Q 2991 2847 3088 2344 
L 2541 2259 
Q 2463 2594 2264 2762 
Q 2066 2931 1784 2931 
Q 1359 2931 1093 2626 
Q 828 2322 828 1663 
Q 828 994 1084 691 
Q 1341 388 1753 388 
Q 2084 388 2306 591 
Q 2528 794 2588 1216 
z
" transform="scale(0.015625)"/>
       </defs>
       <use xlink:href="#ArialMT-4d"/>
       <use xlink:href="#ArialMT-75" transform="translate(83.300781 0)"/>
       <use xlink:href="#ArialMT-6c" transform="translate(138.916016 0)"/>
       <use xlink:href="#ArialMT-74" transform="translate(161.132812 0)"/>
       <use xlink:href="#ArialMT-69" transform="translate(188.916016 0)"/>
       <use xlink:href="#ArialMT-2d" transform="translate(211.132812 0)"/>
       <use xlink:href="#ArialMT-62" transform="translate(244.433594 0)"/>
       <use xlink:href="#ArialMT-6c" transform="translate(300.048828 0)"/>
       <use xlink:href="#ArialMT-6f" transform="translate(322.265625 0)"/>
       <use xlink:href="#ArialMT-63" transform="translate(377.880859 0)"/>
      </g>
     </g>
    </g>
    <g id="ytick_2">
     <g id="line2d_20">
      <g>
       <use xlink:href="#m84a697b06e" x="238.178906" y="426.23461" style="stroke: #000000; stroke-width: 0.8"/>
      </g>
     </g>
     <g id="text_5">
      <!-- Log(Author Count) -->
      <g transform="translate(140.688437 430.238438) scale(0.11 -0.11)">
       <defs>
        <path id="ArialMT-4c" d="M 469 0 
L 469 4581 
L 1075 4581 
L 1075 541 
L 3331 541 
L 3331 0 
L 469 0 
z
" transform="scale(0.015625)"/>
        <path id="ArialMT-67" d="M 319 -275 
L 866 -356 
Q 900 -609 1056 -725 
Q 1266 -881 1628 -881 
Q 2019 -881 2231 -725 
Q 2444 -569 2519 -288 
Q 2563 -116 2559 434 
Q 2191 0 1641 0 
Q 956 0 581 494 
Q 206 988 206 1678 
Q 206 2153 378 2554 
Q 550 2956 876 3175 
Q 1203 3394 1644 3394 
Q 2231 3394 2613 2919 
L 2613 3319 
L 3131 3319 
L 3131 450 
Q 3131 -325 2973 -648 
Q 2816 -972 2473 -1159 
Q 2131 -1347 1631 -1347 
Q 1038 -1347 672 -1080 
Q 306 -813 319 -275 
z
M 784 1719 
Q 784 1066 1043 766 
Q 1303 466 1694 466 
Q 2081 466 2343 764 
Q 2606 1063 2606 1700 
Q 2606 2309 2336 2618 
Q 2066 2928 1684 2928 
Q 1309 2928 1046 2623 
Q 784 2319 784 1719 
z
" transform="scale(0.015625)"/>
        <path id="ArialMT-41" d="M -9 0 
L 1750 4581 
L 2403 4581 
L 4278 0 
L 3588 0 
L 3053 1388 
L 1138 1388 
L 634 0 
L -9 0 
z
M 1313 1881 
L 2866 1881 
L 2388 3150 
Q 2169 3728 2063 4100 
Q 1975 3659 1816 3225 
L 1313 1881 
z
" transform="scale(0.015625)"/>
        <path id="ArialMT-68" d="M 422 0 
L 422 4581 
L 984 4581 
L 984 2938 
Q 1378 3394 1978 3394 
Q 2347 3394 2619 3248 
Q 2891 3103 3008 2847 
Q 3125 2591 3125 2103 
L 3125 0 
L 2563 0 
L 2563 2103 
Q 2563 2525 2380 2717 
Q 2197 2909 1863 2909 
Q 1613 2909 1392 2779 
Q 1172 2650 1078 2428 
Q 984 2206 984 1816 
L 984 0 
L 422 0 
z
" transform="scale(0.015625)"/>
        <path id="ArialMT-72" d="M 416 0 
L 416 3319 
L 922 3319 
L 922 2816 
Q 1116 3169 1280 3281 
Q 1444 3394 1641 3394 
Q 1925 3394 2219 3213 
L 2025 2691 
Q 1819 2813 1613 2813 
Q 1428 2813 1281 2702 
Q 1134 2591 1072 2394 
Q 978 2094 978 1738 
L 978 0 
L 416 0 
z
" transform="scale(0.015625)"/>
        <path id="ArialMT-6e" d="M 422 0 
L 422 3319 
L 928 3319 
L 928 2847 
Q 1294 3394 1984 3394 
Q 2284 3394 2536 3286 
Q 2788 3178 2913 3003 
Q 3038 2828 3088 2588 
Q 3119 2431 3119 2041 
L 3119 0 
L 2556 0 
L 2556 2019 
Q 2556 2363 2490 2533 
Q 2425 2703 2258 2804 
Q 2091 2906 1866 2906 
Q 1506 2906 1245 2678 
Q 984 2450 984 1813 
L 984 0 
L 422 0 
z
" transform="scale(0.015625)"/>
       </defs>
       <use xlink:href="#ArialMT-4c"/>
       <use xlink:href="#ArialMT-6f" transform="translate(55.615234 0)"/>
       <use xlink:href="#ArialMT-67" transform="translate(111.230469 0)"/>
       <use xlink:href="#ArialMT-28" transform="translate(166.845703 0)"/>
       <use xlink:href="#ArialMT-41" transform="translate(200.146484 0)"/>
       <use xlink:href="#ArialMT-75" transform="translate(266.845703 0)"/>
       <use xlink:href="#ArialMT-74" transform="translate(322.460938 0)"/>
       <use xlink:href="#ArialMT-68" transform="translate(350.244141 0)"/>
       <use xlink:href="#ArialMT-6f" transform="translate(405.859375 0)"/>
       <use xlink:href="#ArialMT-72" transform="translate(461.474609 0)"/>
       <use xlink:href="#ArialMT-20" transform="translate(494.775391 0)"/>
       <use xlink:href="#ArialMT-43" transform="translate(522.558594 0)"/>
       <use xlink:href="#ArialMT-6f" transform="translate(594.775391 0)"/>
       <use xlink:href="#ArialMT-75" transform="translate(650.390625 0)"/>
       <use xlink:href="#ArialMT-6e" transform="translate(706.005859 0)"/>
       <use xlink:href="#ArialMT-74" transform="translate(761.621094 0)"/>
       <use xlink:href="#ArialMT-29" transform="translate(789.404297 0)"/>
      </g>
     </g>
    </g>
    <g id="ytick_3">
     <g id="line2d_21">
      <g>
       <use xlink:href="#m84a697b06e" x="238.178906" y="402.283808" style="stroke: #000000; stroke-width: 0.8"/>
      </g>
     </g>
     <g id="text_6">
      <!-- South Asian bloc -->
      <g transform="translate(149.234062 406.220605) scale(0.11 -0.11)">
       <defs>
        <path id="ArialMT-53" d="M 288 1472 
L 859 1522 
Q 900 1178 1048 958 
Q 1197 738 1509 602 
Q 1822 466 2213 466 
Q 2559 466 2825 569 
Q 3091 672 3220 851 
Q 3350 1031 3350 1244 
Q 3350 1459 3225 1620 
Q 3100 1781 2813 1891 
Q 2628 1963 1997 2114 
Q 1366 2266 1113 2400 
Q 784 2572 623 2826 
Q 463 3081 463 3397 
Q 463 3744 659 4045 
Q 856 4347 1234 4503 
Q 1613 4659 2075 4659 
Q 2584 4659 2973 4495 
Q 3363 4331 3572 4012 
Q 3781 3694 3797 3291 
L 3216 3247 
Q 3169 3681 2898 3903 
Q 2628 4125 2100 4125 
Q 1550 4125 1298 3923 
Q 1047 3722 1047 3438 
Q 1047 3191 1225 3031 
Q 1400 2872 2139 2705 
Q 2878 2538 3153 2413 
Q 3553 2228 3743 1945 
Q 3934 1663 3934 1294 
Q 3934 928 3725 604 
Q 3516 281 3123 101 
Q 2731 -78 2241 -78 
Q 1619 -78 1198 103 
Q 778 284 539 648 
Q 300 1013 288 1472 
z
" transform="scale(0.015625)"/>
       </defs>
       <use xlink:href="#ArialMT-53"/>
       <use xlink:href="#ArialMT-6f" transform="translate(66.699219 0)"/>
       <use xlink:href="#ArialMT-75" transform="translate(122.314453 0)"/>
       <use xlink:href="#ArialMT-74" transform="translate(177.929688 0)"/>
       <use xlink:href="#ArialMT-68" transform="translate(205.712891 0)"/>
       <use xlink:href="#ArialMT-20" transform="translate(261.328125 0)"/>
       <use xlink:href="#ArialMT-41" transform="translate(283.611328 0)"/>
       <use xlink:href="#ArialMT-73" transform="translate(350.310547 0)"/>
       <use xlink:href="#ArialMT-69" transform="translate(400.310547 0)"/>
       <use xlink:href="#ArialMT-61" transform="translate(422.527344 0)"/>
       <use xlink:href="#ArialMT-6e" transform="translate(478.142578 0)"/>
       <use xlink:href="#ArialMT-20" transform="translate(533.757812 0)"/>
       <use xlink:href="#ArialMT-62" transform="translate(561.541016 0)"/>
       <use xlink:href="#ArialMT-6c" transform="translate(617.15625 0)"/>
       <use xlink:href="#ArialMT-6f" transform="translate(639.373047 0)"/>
       <use xlink:href="#ArialMT-63" transform="translate(694.988281 0)"/>
      </g>
     </g>
    </g>
    <g id="ytick_4">
     <g id="line2d_22">
      <g>
       <use xlink:href="#m84a697b06e" x="238.178906" y="378.333006" style="stroke: #000000; stroke-width: 0.8"/>
      </g>
     </g>
     <g id="text_7">
      <!-- Other bloc -->
      <g transform="translate(180.43625 382.269802) scale(0.11 -0.11)">
       <defs>
        <path id="ArialMT-65" d="M 2694 1069 
L 3275 997 
Q 3138 488 2766 206 
Q 2394 -75 1816 -75 
Q 1088 -75 661 373 
Q 234 822 234 1631 
Q 234 2469 665 2931 
Q 1097 3394 1784 3394 
Q 2450 3394 2872 2941 
Q 3294 2488 3294 1666 
Q 3294 1616 3291 1516 
L 816 1516 
Q 847 969 1125 678 
Q 1403 388 1819 388 
Q 2128 388 2347 550 
Q 2566 713 2694 1069 
z
M 847 1978 
L 2700 1978 
Q 2663 2397 2488 2606 
Q 2219 2931 1791 2931 
Q 1403 2931 1139 2672 
Q 875 2413 847 1978 
z
" transform="scale(0.015625)"/>
       </defs>
       <use xlink:href="#ArialMT-4f"/>
       <use xlink:href="#ArialMT-74" transform="translate(77.783203 0)"/>
       <use xlink:href="#ArialMT-68" transform="translate(105.566406 0)"/>
       <use xlink:href="#ArialMT-65" transform="translate(161.181641 0)"/>
       <use xlink:href="#ArialMT-72" transform="translate(216.796875 0)"/>
       <use xlink:href="#ArialMT-20" transform="translate(250.097656 0)"/>
       <use xlink:href="#ArialMT-62" transform="translate(277.880859 0)"/>
       <use xlink:href="#ArialMT-6c" transform="translate(333.496094 0)"/>
       <use xlink:href="#ArialMT-6f" transform="translate(355.712891 0)"/>
       <use xlink:href="#ArialMT-63" transform="translate(411.328125 0)"/>
      </g>
     </g>
    </g>
    <g id="ytick_5">
     <g id="line2d_23">
      <g>
       <use xlink:href="#m84a697b06e" x="238.178906" y="354.382203" style="stroke: #000000; stroke-width: 0.8"/>
      </g>
     </g>
     <g id="text_8">
      <!-- Neuroscience -->
      <g transform="translate(163.925937 358.319) scale(0.11 -0.11)">
       <defs>
        <path id="ArialMT-4e" d="M 488 0 
L 488 4581 
L 1109 4581 
L 3516 984 
L 3516 4581 
L 4097 4581 
L 4097 0 
L 3475 0 
L 1069 3600 
L 1069 0 
L 488 0 
z
" transform="scale(0.015625)"/>
       </defs>
       <use xlink:href="#ArialMT-4e"/>
       <use xlink:href="#ArialMT-65" transform="translate(72.216797 0)"/>
       <use xlink:href="#ArialMT-75" transform="translate(127.832031 0)"/>
       <use xlink:href="#ArialMT-72" transform="translate(183.447266 0)"/>
       <use xlink:href="#ArialMT-6f" transform="translate(216.748047 0)"/>
       <use xlink:href="#ArialMT-73" transform="translate(272.363281 0)"/>
       <use xlink:href="#ArialMT-63" transform="translate(322.363281 0)"/>
       <use xlink:href="#ArialMT-69" transform="translate(372.363281 0)"/>
       <use xlink:href="#ArialMT-65" transform="translate(394.580078 0)"/>
       <use xlink:href="#ArialMT-6e" transform="translate(450.195312 0)"/>
       <use xlink:href="#ArialMT-63" transform="translate(505.810547 0)"/>
       <use xlink:href="#ArialMT-65" transform="translate(555.810547 0)"/>
      </g>
     </g>
    </g>
    <g id="ytick_6">
     <g id="line2d_24">
      <g>
       <use xlink:href="#m84a697b06e" x="238.178906" y="330.431401" style="stroke: #000000; stroke-width: 0.8"/>
      </g>
     </g>
     <g id="text_9">
      <!-- East Asian bloc -->
      <g transform="translate(155.968125 334.368198) scale(0.11 -0.11)">
       <defs>
        <path id="ArialMT-45" d="M 506 0 
L 506 4581 
L 3819 4581 
L 3819 4041 
L 1113 4041 
L 1113 2638 
L 3647 2638 
L 3647 2100 
L 1113 2100 
L 1113 541 
L 3925 541 
L 3925 0 
L 506 0 
z
" transform="scale(0.015625)"/>
       </defs>
       <use xlink:href="#ArialMT-45"/>
       <use xlink:href="#ArialMT-61" transform="translate(66.699219 0)"/>
       <use xlink:href="#ArialMT-73" transform="translate(122.314453 0)"/>
       <use xlink:href="#ArialMT-74" transform="translate(172.314453 0)"/>
       <use xlink:href="#ArialMT-20" transform="translate(200.097656 0)"/>
       <use xlink:href="#ArialMT-41" transform="translate(222.380859 0)"/>
       <use xlink:href="#ArialMT-73" transform="translate(289.080078 0)"/>
       <use xlink:href="#ArialMT-69" transform="translate(339.080078 0)"/>
       <use xlink:href="#ArialMT-61" transform="translate(361.296875 0)"/>
       <use xlink:href="#ArialMT-6e" transform="translate(416.912109 0)"/>
       <use xlink:href="#ArialMT-20" transform="translate(472.527344 0)"/>
       <use xlink:href="#ArialMT-62" transform="translate(500.310547 0)"/>
       <use xlink:href="#ArialMT-6c" transform="translate(555.925781 0)"/>
       <use xlink:href="#ArialMT-6f" transform="translate(578.142578 0)"/>
       <use xlink:href="#ArialMT-63" transform="translate(633.757812 0)"/>
      </g>
     </g>
    </g>
    <g id="ytick_7">
     <g id="line2d_25">
      <g>
       <use xlink:href="#m84a697b06e" x="238.178906" y="306.480599" style="stroke: #000000; stroke-width: 0.8"/>
      </g>
     </g>
     <g id="text_10">
      <!-- Has Funding -->
      <g transform="translate(168.814062 310.417396) scale(0.11 -0.11)">
       <defs>
        <path id="ArialMT-48" d="M 513 0 
L 513 4581 
L 1119 4581 
L 1119 2700 
L 3500 2700 
L 3500 4581 
L 4106 4581 
L 4106 0 
L 3500 0 
L 3500 2159 
L 1119 2159 
L 1119 0 
L 513 0 
z
" transform="scale(0.015625)"/>
        <path id="ArialMT-46" d="M 525 0 
L 525 4581 
L 3616 4581 
L 3616 4041 
L 1131 4041 
L 1131 2622 
L 3281 2622 
L 3281 2081 
L 1131 2081 
L 1131 0 
L 525 0 
z
" transform="scale(0.015625)"/>
       </defs>
       <use xlink:href="#ArialMT-48"/>
       <use xlink:href="#ArialMT-61" transform="translate(72.216797 0)"/>
       <use xlink:href="#ArialMT-73" transform="translate(127.832031 0)"/>
       <use xlink:href="#ArialMT-20" transform="translate(177.832031 0)"/>
       <use xlink:href="#ArialMT-46" transform="translate(205.615234 0)"/>
       <use xlink:href="#ArialMT-75" transform="translate(266.699219 0)"/>
       <use xlink:href="#ArialMT-6e" transform="translate(322.314453 0)"/>
       <use xlink:href="#ArialMT-64" transform="translate(377.929688 0)"/>
       <use xlink:href="#ArialMT-69" transform="translate(433.544922 0)"/>
       <use xlink:href="#ArialMT-6e" transform="translate(455.761719 0)"/>
       <use xlink:href="#ArialMT-67" transform="translate(511.376953 0)"/>
      </g>
     </g>
    </g>
    <g id="ytick_8">
     <g id="line2d_26">
      <g>
       <use xlink:href="#m84a697b06e" x="238.178906" y="282.529797" style="stroke: #000000; stroke-width: 0.8"/>
      </g>
     </g>
     <g id="text_11">
      <!-- Western bloc -->
      <g transform="translate(167.184687 286.466594) scale(0.11 -0.11)">
       <defs>
        <path id="ArialMT-57" d="M 1294 0 
L 78 4581 
L 700 4581 
L 1397 1578 
Q 1509 1106 1591 641 
Q 1766 1375 1797 1488 
L 2669 4581 
L 3400 4581 
L 4056 2263 
Q 4303 1400 4413 641 
Q 4500 1075 4641 1638 
L 5359 4581 
L 5969 4581 
L 4713 0 
L 4128 0 
L 3163 3491 
Q 3041 3928 3019 4028 
Q 2947 3713 2884 3491 
L 1913 0 
L 1294 0 
z
" transform="scale(0.015625)"/>
       </defs>
       <use xlink:href="#ArialMT-57"/>
       <use xlink:href="#ArialMT-65" transform="translate(92.634766 0)"/>
       <use xlink:href="#ArialMT-73" transform="translate(148.25 0)"/>
       <use xlink:href="#ArialMT-74" transform="translate(198.25 0)"/>
       <use xlink:href="#ArialMT-65" transform="translate(226.033203 0)"/>
       <use xlink:href="#ArialMT-72" transform="translate(281.648438 0)"/>
       <use xlink:href="#ArialMT-6e" transform="translate(314.949219 0)"/>
       <use xlink:href="#ArialMT-20" transform="translate(370.564453 0)"/>
       <use xlink:href="#ArialMT-62" transform="translate(398.347656 0)"/>
       <use xlink:href="#ArialMT-6c" transform="translate(453.962891 0)"/>
       <use xlink:href="#ArialMT-6f" transform="translate(476.179688 0)"/>
       <use xlink:href="#ArialMT-63" transform="translate(531.794922 0)"/>
      </g>
     </g>
    </g>
    <g id="ytick_9">
     <g id="line2d_27">
      <g>
       <use xlink:href="#m84a697b06e" x="238.178906" y="258.578995" style="stroke: #000000; stroke-width: 0.8"/>
      </g>
     </g>
     <g id="text_12">
      <!-- Engineering -->
      <g transform="translate(172.471562 262.515792) scale(0.11 -0.11)">
       <use xlink:href="#ArialMT-45"/>
       <use xlink:href="#ArialMT-6e" transform="translate(66.699219 0)"/>
       <use xlink:href="#ArialMT-67" transform="translate(122.314453 0)"/>
       <use xlink:href="#ArialMT-69" transform="translate(177.929688 0)"/>
       <use xlink:href="#ArialMT-6e" transform="translate(200.146484 0)"/>
       <use xlink:href="#ArialMT-65" transform="translate(255.761719 0)"/>
       <use xlink:href="#ArialMT-65" transform="translate(311.376953 0)"/>
       <use xlink:href="#ArialMT-72" transform="translate(366.992188 0)"/>
       <use xlink:href="#ArialMT-69" transform="translate(400.292969 0)"/>
       <use xlink:href="#ArialMT-6e" transform="translate(422.509766 0)"/>
       <use xlink:href="#ArialMT-67" transform="translate(478.125 0)"/>
      </g>
     </g>
    </g>
    <g id="ytick_10">
     <g id="line2d_28">
      <g>
       <use xlink:href="#m84a697b06e" x="238.178906" y="234.628193" style="stroke: #000000; stroke-width: 0.8"/>
      </g>
     </g>
     <g id="text_13">
      <!-- Biochemistry, Genetics and Molecular Biology -->
      <g transform="translate(8.236406 238.632021) scale(0.11 -0.11)">
       <defs>
        <path id="ArialMT-42" d="M 469 0 
L 469 4581 
L 2188 4581 
Q 2713 4581 3030 4442 
Q 3347 4303 3526 4014 
Q 3706 3725 3706 3409 
Q 3706 3116 3547 2856 
Q 3388 2597 3066 2438 
Q 3481 2316 3704 2022 
Q 3928 1728 3928 1328 
Q 3928 1006 3792 729 
Q 3656 453 3456 303 
Q 3256 153 2954 76 
Q 2653 0 2216 0 
L 469 0 
z
M 1075 2656 
L 2066 2656 
Q 2469 2656 2644 2709 
Q 2875 2778 2992 2937 
Q 3109 3097 3109 3338 
Q 3109 3566 3000 3739 
Q 2891 3913 2687 3977 
Q 2484 4041 1991 4041 
L 1075 4041 
L 1075 2656 
z
M 1075 541 
L 2216 541 
Q 2509 541 2628 563 
Q 2838 600 2978 687 
Q 3119 775 3209 942 
Q 3300 1109 3300 1328 
Q 3300 1584 3169 1773 
Q 3038 1963 2805 2039 
Q 2572 2116 2134 2116 
L 1075 2116 
L 1075 541 
z
" transform="scale(0.015625)"/>
        <path id="ArialMT-6d" d="M 422 0 
L 422 3319 
L 925 3319 
L 925 2853 
Q 1081 3097 1340 3245 
Q 1600 3394 1931 3394 
Q 2300 3394 2536 3241 
Q 2772 3088 2869 2813 
Q 3263 3394 3894 3394 
Q 4388 3394 4653 3120 
Q 4919 2847 4919 2278 
L 4919 0 
L 4359 0 
L 4359 2091 
Q 4359 2428 4304 2576 
Q 4250 2725 4106 2815 
Q 3963 2906 3769 2906 
Q 3419 2906 3187 2673 
Q 2956 2441 2956 1928 
L 2956 0 
L 2394 0 
L 2394 2156 
Q 2394 2531 2256 2718 
Q 2119 2906 1806 2906 
Q 1569 2906 1367 2781 
Q 1166 2656 1075 2415 
Q 984 2175 984 1722 
L 984 0 
L 422 0 
z
" transform="scale(0.015625)"/>
        <path id="ArialMT-79" d="M 397 -1278 
L 334 -750 
Q 519 -800 656 -800 
Q 844 -800 956 -737 
Q 1069 -675 1141 -563 
Q 1194 -478 1313 -144 
Q 1328 -97 1363 -6 
L 103 3319 
L 709 3319 
L 1400 1397 
Q 1534 1031 1641 628 
Q 1738 1016 1872 1384 
L 2581 3319 
L 3144 3319 
L 1881 -56 
Q 1678 -603 1566 -809 
Q 1416 -1088 1222 -1217 
Q 1028 -1347 759 -1347 
Q 597 -1347 397 -1278 
z
" transform="scale(0.015625)"/>
        <path id="ArialMT-2c" d="M 569 0 
L 569 641 
L 1209 641 
L 1209 0 
Q 1209 -353 1084 -570 
Q 959 -788 688 -906 
L 531 -666 
Q 709 -588 793 -436 
Q 878 -284 888 0 
L 569 0 
z
" transform="scale(0.015625)"/>
        <path id="ArialMT-47" d="M 2638 1797 
L 2638 2334 
L 4578 2338 
L 4578 638 
Q 4131 281 3656 101 
Q 3181 -78 2681 -78 
Q 2006 -78 1454 211 
Q 903 500 622 1047 
Q 341 1594 341 2269 
Q 341 2938 620 3517 
Q 900 4097 1425 4378 
Q 1950 4659 2634 4659 
Q 3131 4659 3532 4498 
Q 3934 4338 4162 4050 
Q 4391 3763 4509 3300 
L 3963 3150 
Q 3859 3500 3706 3700 
Q 3553 3900 3268 4020 
Q 2984 4141 2638 4141 
Q 2222 4141 1919 4014 
Q 1616 3888 1430 3681 
Q 1244 3475 1141 3228 
Q 966 2803 966 2306 
Q 966 1694 1177 1281 
Q 1388 869 1791 669 
Q 2194 469 2647 469 
Q 3041 469 3416 620 
Q 3791 772 3984 944 
L 3984 1797 
L 2638 1797 
z
" transform="scale(0.015625)"/>
       </defs>
       <use xlink:href="#ArialMT-42"/>
       <use xlink:href="#ArialMT-69" transform="translate(66.699219 0)"/>
       <use xlink:href="#ArialMT-6f" transform="translate(88.916016 0)"/>
       <use xlink:href="#ArialMT-63" transform="translate(144.53125 0)"/>
       <use xlink:href="#ArialMT-68" transform="translate(194.53125 0)"/>
       <use xlink:href="#ArialMT-65" transform="translate(250.146484 0)"/>
       <use xlink:href="#ArialMT-6d" transform="translate(305.761719 0)"/>
       <use xlink:href="#ArialMT-69" transform="translate(389.0625 0)"/>
       <use xlink:href="#ArialMT-73" transform="translate(411.279297 0)"/>
       <use xlink:href="#ArialMT-74" transform="translate(461.279297 0)"/>
       <use xlink:href="#ArialMT-72" transform="translate(489.0625 0)"/>
       <use xlink:href="#ArialMT-79" transform="translate(522.363281 0)"/>
       <use xlink:href="#ArialMT-2c" transform="translate(564.988281 0)"/>
       <use xlink:href="#ArialMT-20" transform="translate(592.771484 0)"/>
       <use xlink:href="#ArialMT-47" transform="translate(620.554688 0)"/>
       <use xlink:href="#ArialMT-65" transform="translate(698.337891 0)"/>
       <use xlink:href="#ArialMT-6e" transform="translate(753.953125 0)"/>
       <use xlink:href="#ArialMT-65" transform="translate(809.568359 0)"/>
       <use xlink:href="#ArialMT-74" transform="translate(865.183594 0)"/>
       <use xlink:href="#ArialMT-69" transform="translate(892.966797 0)"/>
       <use xlink:href="#ArialMT-63" transform="translate(915.183594 0)"/>
       <use xlink:href="#ArialMT-73" transform="translate(965.183594 0)"/>
       <use xlink:href="#ArialMT-20" transform="translate(1015.183594 0)"/>
       <use xlink:href="#ArialMT-61" transform="translate(1042.966797 0)"/>
       <use xlink:href="#ArialMT-6e" transform="translate(1098.582031 0)"/>
       <use xlink:href="#ArialMT-64" transform="translate(1154.197266 0)"/>
       <use xlink:href="#ArialMT-20" transform="translate(1209.8125 0)"/>
       <use xlink:href="#ArialMT-4d" transform="translate(1237.595703 0)"/>
       <use xlink:href="#ArialMT-6f" transform="translate(1320.896484 0)"/>
       <use xlink:href="#ArialMT-6c" transform="translate(1376.511719 0)"/>
       <use xlink:href="#ArialMT-65" transform="translate(1398.728516 0)"/>
       <use xlink:href="#ArialMT-63" transform="translate(1454.34375 0)"/>
       <use xlink:href="#ArialMT-75" transform="translate(1504.34375 0)"/>
       <use xlink:href="#ArialMT-6c" transform="translate(1559.958984 0)"/>
       <use xlink:href="#ArialMT-61" transform="translate(1582.175781 0)"/>
       <use xlink:href="#ArialMT-72" transform="translate(1637.791016 0)"/>
       <use xlink:href="#ArialMT-20" transform="translate(1671.091797 0)"/>
       <use xlink:href="#ArialMT-42" transform="translate(1698.875 0)"/>
       <use xlink:href="#ArialMT-69" transform="translate(1765.574219 0)"/>
       <use xlink:href="#ArialMT-6f" transform="translate(1787.791016 0)"/>
       <use xlink:href="#ArialMT-6c" transform="translate(1843.40625 0)"/>
       <use xlink:href="#ArialMT-6f" transform="translate(1865.623047 0)"/>
       <use xlink:href="#ArialMT-67" transform="translate(1921.238281 0)"/>
       <use xlink:href="#ArialMT-79" transform="translate(1976.853516 0)"/>
      </g>
     </g>
    </g>
    <g id="ytick_11">
     <g id="line2d_29">
      <g>
       <use xlink:href="#m84a697b06e" x="238.178906" y="210.677391" style="stroke: #000000; stroke-width: 0.8"/>
      </g>
     </g>
     <g id="text_14">
      <!-- Year (quadratic) -->
      <g transform="translate(153.319531 214.681219) scale(0.11 -0.11)">
       <defs>
        <path id="ArialMT-59" d="M 1784 0 
L 1784 1941 
L 19 4581 
L 756 4581 
L 1659 3200 
Q 1909 2813 2125 2425 
Q 2331 2784 2625 3234 
L 3513 4581 
L 4219 4581 
L 2391 1941 
L 2391 0 
L 1784 0 
z
" transform="scale(0.015625)"/>
        <path id="ArialMT-71" d="M 2538 -1272 
L 2538 353 
Q 2406 169 2170 47 
Q 1934 -75 1669 -75 
Q 1078 -75 651 397 
Q 225 869 225 1691 
Q 225 2191 398 2587 
Q 572 2984 901 3189 
Q 1231 3394 1625 3394 
Q 2241 3394 2594 2875 
L 2594 3319 
L 3100 3319 
L 3100 -1272 
L 2538 -1272 
z
M 803 1669 
Q 803 1028 1072 708 
Q 1341 388 1716 388 
Q 2075 388 2334 692 
Q 2594 997 2594 1619 
Q 2594 2281 2320 2615 
Q 2047 2950 1678 2950 
Q 1313 2950 1058 2639 
Q 803 2328 803 1669 
z
" transform="scale(0.015625)"/>
       </defs>
       <use xlink:href="#ArialMT-59"/>
       <use xlink:href="#ArialMT-65" transform="translate(57.574219 0)"/>
       <use xlink:href="#ArialMT-61" transform="translate(113.189453 0)"/>
       <use xlink:href="#ArialMT-72" transform="translate(168.804688 0)"/>
       <use xlink:href="#ArialMT-20" transform="translate(202.105469 0)"/>
       <use xlink:href="#ArialMT-28" transform="translate(229.888672 0)"/>
       <use xlink:href="#ArialMT-71" transform="translate(263.189453 0)"/>
       <use xlink:href="#ArialMT-75" transform="translate(318.804688 0)"/>
       <use xlink:href="#ArialMT-61" transform="translate(374.419922 0)"/>
       <use xlink:href="#ArialMT-64" transform="translate(430.035156 0)"/>
       <use xlink:href="#ArialMT-72" transform="translate(485.650391 0)"/>
       <use xlink:href="#ArialMT-61" transform="translate(518.951172 0)"/>
       <use xlink:href="#ArialMT-74" transform="translate(574.566406 0)"/>
       <use xlink:href="#ArialMT-69" transform="translate(602.349609 0)"/>
       <use xlink:href="#ArialMT-63" transform="translate(624.566406 0)"/>
       <use xlink:href="#ArialMT-29" transform="translate(674.566406 0)"/>
      </g>
     </g>
    </g>
    <g id="ytick_12">
     <g id="line2d_30">
      <g>
       <use xlink:href="#m84a697b06e" x="238.178906" y="186.726588" style="stroke: #000000; stroke-width: 0.8"/>
      </g>
     </g>
     <g id="text_15">
      <!-- Year (linear) -->
      <g transform="translate(171.665469 190.730417) scale(0.11 -0.11)">
       <use xlink:href="#ArialMT-59"/>
       <use xlink:href="#ArialMT-65" transform="translate(57.574219 0)"/>
       <use xlink:href="#ArialMT-61" transform="translate(113.189453 0)"/>
       <use xlink:href="#ArialMT-72" transform="translate(168.804688 0)"/>
       <use xlink:href="#ArialMT-20" transform="translate(202.105469 0)"/>
       <use xlink:href="#ArialMT-28" transform="translate(229.888672 0)"/>
       <use xlink:href="#ArialMT-6c" transform="translate(263.189453 0)"/>
       <use xlink:href="#ArialMT-69" transform="translate(285.40625 0)"/>
       <use xlink:href="#ArialMT-6e" transform="translate(307.623047 0)"/>
       <use xlink:href="#ArialMT-65" transform="translate(363.238281 0)"/>
       <use xlink:href="#ArialMT-61" transform="translate(418.853516 0)"/>
       <use xlink:href="#ArialMT-72" transform="translate(474.46875 0)"/>
       <use xlink:href="#ArialMT-29" transform="translate(507.769531 0)"/>
      </g>
     </g>
    </g>
    <g id="ytick_13">
     <g id="line2d_31">
      <g>
       <use xlink:href="#m84a697b06e" x="238.178906" y="162.775786" style="stroke: #000000; stroke-width: 0.8"/>
      </g>
     </g>
     <g id="text_16">
      <!-- Latin American bloc -->
      <g transform="translate(135.185 166.712583) scale(0.11 -0.11)">
       <use xlink:href="#ArialMT-4c"/>
       <use xlink:href="#ArialMT-61" transform="translate(55.615234 0)"/>
       <use xlink:href="#ArialMT-74" transform="translate(111.230469 0)"/>
       <use xlink:href="#ArialMT-69" transform="translate(139.013672 0)"/>
       <use xlink:href="#ArialMT-6e" transform="translate(161.230469 0)"/>
       <use xlink:href="#ArialMT-20" transform="translate(216.845703 0)"/>
       <use xlink:href="#ArialMT-41" transform="translate(239.128906 0)"/>
       <use xlink:href="#ArialMT-6d" transform="translate(305.828125 0)"/>
       <use xlink:href="#ArialMT-65" transform="translate(389.128906 0)"/>
       <use xlink:href="#ArialMT-72" transform="translate(444.744141 0)"/>
       <use xlink:href="#ArialMT-69" transform="translate(478.044922 0)"/>
       <use xlink:href="#ArialMT-63" transform="translate(500.261719 0)"/>
       <use xlink:href="#ArialMT-61" transform="translate(550.261719 0)"/>
       <use xlink:href="#ArialMT-6e" transform="translate(605.876953 0)"/>
       <use xlink:href="#ArialMT-20" transform="translate(661.492188 0)"/>
       <use xlink:href="#ArialMT-62" transform="translate(689.275391 0)"/>
       <use xlink:href="#ArialMT-6c" transform="translate(744.890625 0)"/>
       <use xlink:href="#ArialMT-6f" transform="translate(767.107422 0)"/>
       <use xlink:href="#ArialMT-63" transform="translate(822.722656 0)"/>
      </g>
     </g>
    </g>
    <g id="ytick_14">
     <g id="line2d_32">
      <g>
       <use xlink:href="#m84a697b06e" x="238.178906" y="138.824984" style="stroke: #000000; stroke-width: 0.8"/>
      </g>
     </g>
     <g id="text_17">
      <!-- Pharmacology, Toxicology and Pharmaceutics -->
      <g transform="translate(7.2 142.761781) scale(0.11 -0.11)">
       <defs>
        <path id="ArialMT-50" d="M 494 0 
L 494 4581 
L 2222 4581 
Q 2678 4581 2919 4538 
Q 3256 4481 3484 4323 
Q 3713 4166 3852 3881 
Q 3991 3597 3991 3256 
Q 3991 2672 3619 2267 
Q 3247 1863 2275 1863 
L 1100 1863 
L 1100 0 
L 494 0 
z
M 1100 2403 
L 2284 2403 
Q 2872 2403 3119 2622 
Q 3366 2841 3366 3238 
Q 3366 3525 3220 3729 
Q 3075 3934 2838 4000 
Q 2684 4041 2272 4041 
L 1100 4041 
L 1100 2403 
z
" transform="scale(0.015625)"/>
        <path id="ArialMT-54" d="M 1659 0 
L 1659 4041 
L 150 4041 
L 150 4581 
L 3781 4581 
L 3781 4041 
L 2266 4041 
L 2266 0 
L 1659 0 
z
" transform="scale(0.015625)"/>
        <path id="ArialMT-78" d="M 47 0 
L 1259 1725 
L 138 3319 
L 841 3319 
L 1350 2541 
Q 1494 2319 1581 2169 
Q 1719 2375 1834 2534 
L 2394 3319 
L 3066 3319 
L 1919 1756 
L 3153 0 
L 2463 0 
L 1781 1031 
L 1600 1309 
L 728 0 
L 47 0 
z
" transform="scale(0.015625)"/>
       </defs>
       <use xlink:href="#ArialMT-50"/>
       <use xlink:href="#ArialMT-68" transform="translate(66.699219 0)"/>
       <use xlink:href="#ArialMT-61" transform="translate(122.314453 0)"/>
       <use xlink:href="#ArialMT-72" transform="translate(177.929688 0)"/>
       <use xlink:href="#ArialMT-6d" transform="translate(211.230469 0)"/>
       <use xlink:href="#ArialMT-61" transform="translate(294.53125 0)"/>
       <use xlink:href="#ArialMT-63" transform="translate(350.146484 0)"/>
       <use xlink:href="#ArialMT-6f" transform="translate(400.146484 0)"/>
       <use xlink:href="#ArialMT-6c" transform="translate(455.761719 0)"/>
       <use xlink:href="#ArialMT-6f" transform="translate(477.978516 0)"/>
       <use xlink:href="#ArialMT-67" transform="translate(533.59375 0)"/>
       <use xlink:href="#ArialMT-79" transform="translate(589.208984 0)"/>
       <use xlink:href="#ArialMT-2c" transform="translate(631.833984 0)"/>
       <use xlink:href="#ArialMT-20" transform="translate(659.617188 0)"/>
       <use xlink:href="#ArialMT-54" transform="translate(685.650391 0)"/>
       <use xlink:href="#ArialMT-6f" transform="translate(735.609375 0)"/>
       <use xlink:href="#ArialMT-78" transform="translate(791.224609 0)"/>
       <use xlink:href="#ArialMT-69" transform="translate(841.224609 0)"/>
       <use xlink:href="#ArialMT-63" transform="translate(863.441406 0)"/>
       <use xlink:href="#ArialMT-6f" transform="translate(913.441406 0)"/>
       <use xlink:href="#ArialMT-6c" transform="translate(969.056641 0)"/>
       <use xlink:href="#ArialMT-6f" transform="translate(991.273438 0)"/>
       <use xlink:href="#ArialMT-67" transform="translate(1046.888672 0)"/>
       <use xlink:href="#ArialMT-79" transform="translate(1102.503906 0)"/>
       <use xlink:href="#ArialMT-20" transform="translate(1152.503906 0)"/>
       <use xlink:href="#ArialMT-61" transform="translate(1180.287109 0)"/>
       <use xlink:href="#ArialMT-6e" transform="translate(1235.902344 0)"/>
       <use xlink:href="#ArialMT-64" transform="translate(1291.517578 0)"/>
       <use xlink:href="#ArialMT-20" transform="translate(1347.132812 0)"/>
       <use xlink:href="#ArialMT-50" transform="translate(1374.916016 0)"/>
       <use xlink:href="#ArialMT-68" transform="translate(1441.615234 0)"/>
       <use xlink:href="#ArialMT-61" transform="translate(1497.230469 0)"/>
       <use xlink:href="#ArialMT-72" transform="translate(1552.845703 0)"/>
       <use xlink:href="#ArialMT-6d" transform="translate(1586.146484 0)"/>
       <use xlink:href="#ArialMT-61" transform="translate(1669.447266 0)"/>
       <use xlink:href="#ArialMT-63" transform="translate(1725.0625 0)"/>
       <use xlink:href="#ArialMT-65" transform="translate(1775.0625 0)"/>
       <use xlink:href="#ArialMT-75" transform="translate(1830.677734 0)"/>
       <use xlink:href="#ArialMT-74" transform="translate(1886.292969 0)"/>
       <use xlink:href="#ArialMT-69" transform="translate(1914.076172 0)"/>
       <use xlink:href="#ArialMT-63" transform="translate(1936.292969 0)"/>
       <use xlink:href="#ArialMT-73" transform="translate(1986.292969 0)"/>
      </g>
     </g>
    </g>
    <g id="ytick_15">
     <g id="line2d_33">
      <g>
       <use xlink:href="#m84a697b06e" x="238.178906" y="114.874182" style="stroke: #000000; stroke-width: 0.8"/>
      </g>
     </g>
     <g id="text_18">
      <!-- MENA bloc -->
      <g transform="translate(176.768437 118.810979) scale(0.11 -0.11)">
       <use xlink:href="#ArialMT-4d"/>
       <use xlink:href="#ArialMT-45" transform="translate(83.300781 0)"/>
       <use xlink:href="#ArialMT-4e" transform="translate(150 0)"/>
       <use xlink:href="#ArialMT-41" transform="translate(222.216797 0)"/>
       <use xlink:href="#ArialMT-20" transform="translate(283.416016 0)"/>
       <use xlink:href="#ArialMT-62" transform="translate(311.199219 0)"/>
       <use xlink:href="#ArialMT-6c" transform="translate(366.814453 0)"/>
       <use xlink:href="#ArialMT-6f" transform="translate(389.03125 0)"/>
       <use xlink:href="#ArialMT-63" transform="translate(444.646484 0)"/>
      </g>
     </g>
    </g>
    <g id="ytick_16">
     <g id="line2d_34">
      <g>
       <use xlink:href="#m84a697b06e" x="238.178906" y="90.92338" style="stroke: #000000; stroke-width: 0.8"/>
      </g>
     </g>
     <g id="text_19">
      <!-- Immunology and Microbiology -->
      <g transform="translate(85.062812 94.860177) scale(0.11 -0.11)">
       <use xlink:href="#ArialMT-49"/>
       <use xlink:href="#ArialMT-6d" transform="translate(27.783203 0)"/>
       <use xlink:href="#ArialMT-6d" transform="translate(111.083984 0)"/>
       <use xlink:href="#ArialMT-75" transform="translate(194.384766 0)"/>
       <use xlink:href="#ArialMT-6e" transform="translate(250 0)"/>
       <use xlink:href="#ArialMT-6f" transform="translate(305.615234 0)"/>
       <use xlink:href="#ArialMT-6c" transform="translate(361.230469 0)"/>
       <use xlink:href="#ArialMT-6f" transform="translate(383.447266 0)"/>
       <use xlink:href="#ArialMT-67" transform="translate(439.0625 0)"/>
       <use xlink:href="#ArialMT-79" transform="translate(494.677734 0)"/>
       <use xlink:href="#ArialMT-20" transform="translate(544.677734 0)"/>
       <use xlink:href="#ArialMT-61" transform="translate(572.460938 0)"/>
       <use xlink:href="#ArialMT-6e" transform="translate(628.076172 0)"/>
       <use xlink:href="#ArialMT-64" transform="translate(683.691406 0)"/>
       <use xlink:href="#ArialMT-20" transform="translate(739.306641 0)"/>
       <use xlink:href="#ArialMT-4d" transform="translate(767.089844 0)"/>
       <use xlink:href="#ArialMT-69" transform="translate(850.390625 0)"/>
       <use xlink:href="#ArialMT-63" transform="translate(872.607422 0)"/>
       <use xlink:href="#ArialMT-72" transform="translate(922.607422 0)"/>
       <use xlink:href="#ArialMT-6f" transform="translate(955.908203 0)"/>
       <use xlink:href="#ArialMT-62" transform="translate(1011.523438 0)"/>
       <use xlink:href="#ArialMT-69" transform="translate(1067.138672 0)"/>
       <use xlink:href="#ArialMT-6f" transform="translate(1089.355469 0)"/>
       <use xlink:href="#ArialMT-6c" transform="translate(1144.970703 0)"/>
       <use xlink:href="#ArialMT-6f" transform="translate(1167.1875 0)"/>
       <use xlink:href="#ArialMT-67" transform="translate(1222.802734 0)"/>
       <use xlink:href="#ArialMT-79" transform="translate(1278.417969 0)"/>
      </g>
     </g>
    </g>
    <g id="ytick_17">
     <g id="line2d_35">
      <g>
       <use xlink:href="#m84a697b06e" x="238.178906" y="66.972578" style="stroke: #000000; stroke-width: 0.8"/>
      </g>
     </g>
     <g id="text_20">
      <!-- Open Access -->
      <g transform="translate(166.366562 70.979843) scale(0.11 -0.11)">
       <defs>
        <path id="ArialMT-70" d="M 422 -1272 
L 422 3319 
L 934 3319 
L 934 2888 
Q 1116 3141 1344 3267 
Q 1572 3394 1897 3394 
Q 2322 3394 2647 3175 
Q 2972 2956 3137 2557 
Q 3303 2159 3303 1684 
Q 3303 1175 3120 767 
Q 2938 359 2589 142 
Q 2241 -75 1856 -75 
Q 1575 -75 1351 44 
Q 1128 163 984 344 
L 984 -1272 
L 422 -1272 
z
M 931 1641 
Q 931 1000 1190 694 
Q 1450 388 1819 388 
Q 2194 388 2461 705 
Q 2728 1022 2728 1688 
Q 2728 2322 2467 2637 
Q 2206 2953 1844 2953 
Q 1484 2953 1207 2617 
Q 931 2281 931 1641 
z
" transform="scale(0.015625)"/>
       </defs>
       <use xlink:href="#ArialMT-4f"/>
       <use xlink:href="#ArialMT-70" transform="translate(77.783203 0)"/>
       <use xlink:href="#ArialMT-65" transform="translate(133.398438 0)"/>
       <use xlink:href="#ArialMT-6e" transform="translate(189.013672 0)"/>
       <use xlink:href="#ArialMT-20" transform="translate(244.628906 0)"/>
       <use xlink:href="#ArialMT-41" transform="translate(266.912109 0)"/>
       <use xlink:href="#ArialMT-63" transform="translate(333.611328 0)"/>
       <use xlink:href="#ArialMT-63" transform="translate(383.611328 0)"/>
       <use xlink:href="#ArialMT-65" transform="translate(433.611328 0)"/>
       <use xlink:href="#ArialMT-73" transform="translate(489.226562 0)"/>
       <use xlink:href="#ArialMT-73" transform="translate(539.226562 0)"/>
      </g>
     </g>
    </g>
    <g id="ytick_18">
     <g id="line2d_36">
      <g>
       <use xlink:href="#m84a697b06e" x="238.178906" y="43.021776" style="stroke: #000000; stroke-width: 0.8"/>
      </g>
     </g>
     <g id="text_21">
      <!-- Other -->
      <g transform="translate(203.670312 46.958572) scale(0.11 -0.11)">
       <use xlink:href="#ArialMT-4f"/>
       <use xlink:href="#ArialMT-74" transform="translate(77.783203 0)"/>
       <use xlink:href="#ArialMT-68" transform="translate(105.566406 0)"/>
       <use xlink:href="#ArialMT-65" transform="translate(161.181641 0)"/>
       <use xlink:href="#ArialMT-72" transform="translate(216.796875 0)"/>
      </g>
     </g>
    </g>
   </g>
   <g id="line2d_37">
    <path d="M 259.324361 450.185412 
L 288.762185 450.185412 
" clip-path="url(#p4b8eb32402)" style="fill: none; stroke: #2563eb; stroke-opacity: 0.6; stroke-width: 2; stroke-linecap: square"/>
   </g>
   <g id="line2d_38">
    <path d="M 302.651459 426.23461 
L 313.875901 426.23461 
" clip-path="url(#p4b8eb32402)" style="fill: none; stroke: #2563eb; stroke-opacity: 0.6; stroke-width: 2; stroke-linecap: square"/>
   </g>
   <g id="line2d_39">
    <path d="M 291.797466 402.283808 
L 344.463553 402.283808 
" clip-path="url(#p4b8eb32402)" style="fill: none; stroke: #2563eb; stroke-opacity: 0.6; stroke-width: 2; stroke-linecap: square"/>
   </g>
   <g id="line2d_40">
    <path d="M 270.066576 378.333006 
L 392.595388 378.333006 
" clip-path="url(#p4b8eb32402)" style="fill: none; stroke: #9ca3af; stroke-opacity: 0.6; stroke-width: 2; stroke-linecap: square"/>
   </g>
   <g id="line2d_41">
    <path d="M 301.067215 354.382203 
L 365.315541 354.382203 
" clip-path="url(#p4b8eb32402)" style="fill: none; stroke: #2563eb; stroke-opacity: 0.6; stroke-width: 2; stroke-linecap: square"/>
   </g>
   <g id="line2d_42">
    <path d="M 314.302512 330.431401 
L 357.188699 330.431401 
" clip-path="url(#p4b8eb32402)" style="fill: none; stroke: #2563eb; stroke-opacity: 0.6; stroke-width: 2; stroke-linecap: square"/>
   </g>
   <g id="line2d_43">
    <path d="M 337.279455 306.480599 
L 375.831595 306.480599 
" clip-path="url(#p4b8eb32402)" style="fill: none; stroke: #9ca3af; stroke-opacity: 0.6; stroke-width: 2; stroke-linecap: square"/>
   </g>
   <g id="line2d_44">
    <path d="M 351.598272 282.529797 
L 375.47954 282.529797 
" clip-path="url(#p4b8eb32402)" style="fill: none; stroke: #9ca3af; stroke-opacity: 0.6; stroke-width: 2; stroke-linecap: square"/>
   </g>
   <g id="line2d_45">
    <path d="M 347.485986 258.578995 
L 395.338966 258.578995 
" clip-path="url(#p4b8eb32402)" style="fill: none; stroke: #9ca3af; stroke-opacity: 0.6; stroke-width: 2; stroke-linecap: square"/>
   </g>
   <g id="line2d_46">
    <path d="M 359.866325 234.628193 
L 384.769155 234.628193 
" clip-path="url(#p4b8eb32402)" style="fill: none; stroke: #9ca3af; stroke-opacity: 0.6; stroke-width: 2; stroke-linecap: square"/>
   </g>
   <g id="line2d_47">
    <path d="M 372.701753 210.677391 
L 372.942869 210.677391 
" clip-path="url(#p4b8eb32402)" style="fill: none; stroke: #9ca3af; stroke-opacity: 0.6; stroke-width: 2; stroke-linecap: square"/>
   </g>
   <g id="line2d_48">
    <path d="M 372.919188 186.726588 
L 380.996464 186.726588 
" clip-path="url(#p4b8eb32402)" style="fill: none; stroke: #dc2626; stroke-opacity: 0.6; stroke-width: 2; stroke-linecap: square"/>
   </g>
   <g id="line2d_49">
    <path d="M 267.261811 162.775786 
L 487.900219 162.775786 
" clip-path="url(#p4b8eb32402)" style="fill: none; stroke: #9ca3af; stroke-opacity: 0.6; stroke-width: 2; stroke-linecap: square"/>
   </g>
   <g id="line2d_50">
    <path d="M 359.36779 138.824984 
L 404.427272 138.824984 
" clip-path="url(#p4b8eb32402)" style="fill: none; stroke: #9ca3af; stroke-opacity: 0.6; stroke-width: 2; stroke-linecap: square"/>
   </g>
   <g id="line2d_51">
    <path d="M 350.947901 114.874182 
L 428.901642 114.874182 
" clip-path="url(#p4b8eb32402)" style="fill: none; stroke: #9ca3af; stroke-opacity: 0.6; stroke-width: 2; stroke-linecap: square"/>
   </g>
   <g id="line2d_52">
    <path d="M 374.317686 90.92338 
L 407.887816 90.92338 
" clip-path="url(#p4b8eb32402)" style="fill: none; stroke: #dc2626; stroke-opacity: 0.6; stroke-width: 2; stroke-linecap: square"/>
   </g>
   <g id="line2d_53">
    <path d="M 385.949895 66.972578 
L 407.498281 66.972578 
" clip-path="url(#p4b8eb32402)" style="fill: none; stroke: #dc2626; stroke-opacity: 0.6; stroke-width: 2; stroke-linecap: square"/>
   </g>
   <g id="line2d_54">
    <path d="M 260.801526 43.021776 
L 682.233452 43.021776 
" clip-path="url(#p4b8eb32402)" style="fill: none; stroke: #9ca3af; stroke-opacity: 0.6; stroke-width: 2; stroke-linecap: square"/>
   </g>
   <g id="line2d_55">
    <path d="M 372.897081 470.543594 
L 372.897081 22.663594 
" clip-path="url(#p4b8eb32402)" style="fill: none; stroke-dasharray: 3.7,1.6; stroke-dashoffset: 0; stroke: #000000; stroke-opacity: 0.3"/>
   </g>
   <g id="patch_3">
    <path d="M 238.178906 470.543594 
L 238.178906 22.663594 
" style="fill: none; stroke: #000000; stroke-width: 0.8; stroke-linejoin: miter; stroke-linecap: square"/>
   </g>
   <g id="patch_4">
    <path d="M 238.178906 470.543594 
L 703.378906 470.543594 
" style="fill: none; stroke: #000000; stroke-width: 0.8; stroke-linejoin: miter; stroke-linecap: square"/>
   </g>
   <g id="text_22">
    <!-- Model A: Predictors of Ghanaian First Authorship (GEE) -->
    <g transform="translate(298.293281 16.663594) scale(0.13 -0.13)">
     <defs>
      <path id="Arial-BoldMT-4d" d="M 453 0 
L 453 4581 
L 1838 4581 
L 2669 1456 
L 3491 4581 
L 4878 4581 
L 4878 0 
L 4019 0 
L 4019 3606 
L 3109 0 
L 2219 0 
L 1313 3606 
L 1313 0 
L 453 0 
z
" transform="scale(0.015625)"/>
      <path id="Arial-BoldMT-6f" d="M 256 1706 
Q 256 2144 472 2553 
Q 688 2963 1083 3178 
Q 1478 3394 1966 3394 
Q 2719 3394 3200 2905 
Q 3681 2416 3681 1669 
Q 3681 916 3195 420 
Q 2709 -75 1972 -75 
Q 1516 -75 1102 131 
Q 688 338 472 736 
Q 256 1134 256 1706 
z
M 1156 1659 
Q 1156 1166 1390 903 
Q 1625 641 1969 641 
Q 2313 641 2545 903 
Q 2778 1166 2778 1666 
Q 2778 2153 2545 2415 
Q 2313 2678 1969 2678 
Q 1625 2678 1390 2415 
Q 1156 2153 1156 1659 
z
" transform="scale(0.015625)"/>
      <path id="Arial-BoldMT-64" d="M 3503 0 
L 2688 0 
L 2688 488 
Q 2484 203 2207 64 
Q 1931 -75 1650 -75 
Q 1078 -75 670 386 
Q 263 847 263 1672 
Q 263 2516 659 2955 
Q 1056 3394 1663 3394 
Q 2219 3394 2625 2931 
L 2625 4581 
L 3503 4581 
L 3503 0 
z
M 1159 1731 
Q 1159 1200 1306 963 
Q 1519 619 1900 619 
Q 2203 619 2415 876 
Q 2628 1134 2628 1647 
Q 2628 2219 2422 2470 
Q 2216 2722 1894 2722 
Q 1581 2722 1370 2473 
Q 1159 2225 1159 1731 
z
" transform="scale(0.015625)"/>
      <path id="Arial-BoldMT-65" d="M 2381 1056 
L 3256 909 
Q 3088 428 2723 176 
Q 2359 -75 1813 -75 
Q 947 -75 531 491 
Q 203 944 203 1634 
Q 203 2459 634 2926 
Q 1066 3394 1725 3394 
Q 2466 3394 2894 2905 
Q 3322 2416 3303 1406 
L 1103 1406 
Q 1113 1016 1316 798 
Q 1519 581 1822 581 
Q 2028 581 2168 693 
Q 2309 806 2381 1056 
z
M 2431 1944 
Q 2422 2325 2234 2523 
Q 2047 2722 1778 2722 
Q 1491 2722 1303 2513 
Q 1116 2303 1119 1944 
L 2431 1944 
z
" transform="scale(0.015625)"/>
      <path id="Arial-BoldMT-6c" d="M 459 0 
L 459 4581 
L 1338 4581 
L 1338 0 
L 459 0 
z
" transform="scale(0.015625)"/>
      <path id="Arial-BoldMT-20" transform="scale(0.015625)"/>
      <path id="Arial-BoldMT-41" d="M 4597 0 
L 3591 0 
L 3191 1041 
L 1359 1041 
L 981 0 
L 0 0 
L 1784 4581 
L 2763 4581 
L 4597 0 
z
M 2894 1813 
L 2263 3513 
L 1644 1813 
L 2894 1813 
z
" transform="scale(0.015625)"/>
      <path id="Arial-BoldMT-3a" d="M 628 2441 
L 628 3319 
L 1506 3319 
L 1506 2441 
L 628 2441 
z
M 628 0 
L 628 878 
L 1506 878 
L 1506 0 
L 628 0 
z
" transform="scale(0.015625)"/>
      <path id="Arial-BoldMT-50" d="M 466 0 
L 466 4581 
L 1950 4581 
Q 2794 4581 3050 4513 
Q 3444 4409 3709 4064 
Q 3975 3719 3975 3172 
Q 3975 2750 3822 2462 
Q 3669 2175 3433 2011 
Q 3197 1847 2953 1794 
Q 2622 1728 1994 1728 
L 1391 1728 
L 1391 0 
L 466 0 
z
M 1391 3806 
L 1391 2506 
L 1897 2506 
Q 2444 2506 2628 2578 
Q 2813 2650 2917 2803 
Q 3022 2956 3022 3159 
Q 3022 3409 2875 3571 
Q 2728 3734 2503 3775 
Q 2338 3806 1838 3806 
L 1391 3806 
z
" transform="scale(0.015625)"/>
      <path id="Arial-BoldMT-72" d="M 1300 0 
L 422 0 
L 422 3319 
L 1238 3319 
L 1238 2847 
Q 1447 3181 1614 3287 
Q 1781 3394 1994 3394 
Q 2294 3394 2572 3228 
L 2300 2463 
Q 2078 2606 1888 2606 
Q 1703 2606 1575 2504 
Q 1447 2403 1373 2137 
Q 1300 1872 1300 1025 
L 1300 0 
z
" transform="scale(0.015625)"/>
      <path id="Arial-BoldMT-69" d="M 459 3769 
L 459 4581 
L 1338 4581 
L 1338 3769 
L 459 3769 
z
M 459 0 
L 459 3319 
L 1338 3319 
L 1338 0 
L 459 0 
z
" transform="scale(0.015625)"/>
      <path id="Arial-BoldMT-63" d="M 3353 2338 
L 2488 2181 
Q 2444 2441 2289 2572 
Q 2134 2703 1888 2703 
Q 1559 2703 1364 2476 
Q 1169 2250 1169 1719 
Q 1169 1128 1367 884 
Q 1566 641 1900 641 
Q 2150 641 2309 783 
Q 2469 925 2534 1272 
L 3397 1125 
Q 3263 531 2881 228 
Q 2500 -75 1859 -75 
Q 1131 -75 698 384 
Q 266 844 266 1656 
Q 266 2478 700 2936 
Q 1134 3394 1875 3394 
Q 2481 3394 2839 3133 
Q 3197 2872 3353 2338 
z
" transform="scale(0.015625)"/>
      <path id="Arial-BoldMT-74" d="M 1981 3319 
L 1981 2619 
L 1381 2619 
L 1381 1281 
Q 1381 875 1398 808 
Q 1416 741 1477 697 
Q 1538 653 1625 653 
Q 1747 653 1978 738 
L 2053 56 
Q 1747 -75 1359 -75 
Q 1122 -75 931 4 
Q 741 84 652 211 
Q 563 338 528 553 
Q 500 706 500 1172 
L 500 2619 
L 97 2619 
L 97 3319 
L 500 3319 
L 500 3978 
L 1381 4491 
L 1381 3319 
L 1981 3319 
z
" transform="scale(0.015625)"/>
      <path id="Arial-BoldMT-73" d="M 150 947 
L 1031 1081 
Q 1088 825 1259 692 
Q 1431 559 1741 559 
Q 2081 559 2253 684 
Q 2369 772 2369 919 
Q 2369 1019 2306 1084 
Q 2241 1147 2013 1200 
Q 950 1434 666 1628 
Q 272 1897 272 2375 
Q 272 2806 612 3100 
Q 953 3394 1669 3394 
Q 2350 3394 2681 3172 
Q 3013 2950 3138 2516 
L 2309 2363 
Q 2256 2556 2107 2659 
Q 1959 2763 1684 2763 
Q 1338 2763 1188 2666 
Q 1088 2597 1088 2488 
Q 1088 2394 1175 2328 
Q 1294 2241 1995 2081 
Q 2697 1922 2975 1691 
Q 3250 1456 3250 1038 
Q 3250 581 2869 253 
Q 2488 -75 1741 -75 
Q 1063 -75 667 200 
Q 272 475 150 947 
z
" transform="scale(0.015625)"/>
      <path id="Arial-BoldMT-66" d="M 75 3319 
L 563 3319 
L 563 3569 
Q 563 3988 652 4194 
Q 741 4400 980 4529 
Q 1219 4659 1584 4659 
Q 1959 4659 2319 4547 
L 2200 3934 
Q 1991 3984 1797 3984 
Q 1606 3984 1523 3895 
Q 1441 3806 1441 3553 
L 1441 3319 
L 2097 3319 
L 2097 2628 
L 1441 2628 
L 1441 0 
L 563 0 
L 563 2628 
L 75 2628 
L 75 3319 
z
" transform="scale(0.015625)"/>
      <path id="Arial-BoldMT-47" d="M 2597 1684 
L 2597 2456 
L 4591 2456 
L 4591 631 
Q 4300 350 3748 136 
Q 3197 -78 2631 -78 
Q 1913 -78 1378 223 
Q 844 525 575 1086 
Q 306 1647 306 2306 
Q 306 3022 606 3578 
Q 906 4134 1484 4431 
Q 1925 4659 2581 4659 
Q 3434 4659 3914 4301 
Q 4394 3944 4531 3313 
L 3613 3141 
Q 3516 3478 3248 3673 
Q 2981 3869 2581 3869 
Q 1975 3869 1617 3484 
Q 1259 3100 1259 2344 
Q 1259 1528 1621 1120 
Q 1984 713 2572 713 
Q 2863 713 3155 827 
Q 3447 941 3656 1103 
L 3656 1684 
L 2597 1684 
z
" transform="scale(0.015625)"/>
      <path id="Arial-BoldMT-68" d="M 1334 4581 
L 1334 2897 
Q 1759 3394 2350 3394 
Q 2653 3394 2897 3281 
Q 3141 3169 3264 2994 
Q 3388 2819 3433 2606 
Q 3478 2394 3478 1947 
L 3478 0 
L 2600 0 
L 2600 1753 
Q 2600 2275 2550 2415 
Q 2500 2556 2373 2639 
Q 2247 2722 2056 2722 
Q 1838 2722 1666 2615 
Q 1494 2509 1414 2295 
Q 1334 2081 1334 1663 
L 1334 0 
L 456 0 
L 456 4581 
L 1334 4581 
z
" transform="scale(0.015625)"/>
      <path id="Arial-BoldMT-61" d="M 1116 2306 
L 319 2450 
Q 453 2931 781 3162 
Q 1109 3394 1756 3394 
Q 2344 3394 2631 3255 
Q 2919 3116 3036 2902 
Q 3153 2688 3153 2116 
L 3144 1091 
Q 3144 653 3186 445 
Q 3228 238 3344 0 
L 2475 0 
Q 2441 88 2391 259 
Q 2369 338 2359 363 
Q 2134 144 1878 34 
Q 1622 -75 1331 -75 
Q 819 -75 523 203 
Q 228 481 228 906 
Q 228 1188 362 1408 
Q 497 1628 739 1745 
Q 981 1863 1438 1950 
Q 2053 2066 2291 2166 
L 2291 2253 
Q 2291 2506 2166 2614 
Q 2041 2722 1694 2722 
Q 1459 2722 1328 2630 
Q 1197 2538 1116 2306 
z
M 2291 1594 
Q 2122 1538 1756 1459 
Q 1391 1381 1278 1306 
Q 1106 1184 1106 997 
Q 1106 813 1243 678 
Q 1381 544 1594 544 
Q 1831 544 2047 700 
Q 2206 819 2256 991 
Q 2291 1103 2291 1419 
L 2291 1594 
z
" transform="scale(0.015625)"/>
      <path id="Arial-BoldMT-6e" d="M 3478 0 
L 2600 0 
L 2600 1694 
Q 2600 2231 2544 2389 
Q 2488 2547 2361 2634 
Q 2234 2722 2056 2722 
Q 1828 2722 1647 2597 
Q 1466 2472 1398 2265 
Q 1331 2059 1331 1503 
L 1331 0 
L 453 0 
L 453 3319 
L 1269 3319 
L 1269 2831 
Q 1703 3394 2363 3394 
Q 2653 3394 2893 3289 
Q 3134 3184 3257 3021 
Q 3381 2859 3429 2653 
Q 3478 2447 3478 2063 
L 3478 0 
z
" transform="scale(0.015625)"/>
      <path id="Arial-BoldMT-46" d="M 472 0 
L 472 4581 
L 3613 4581 
L 3613 3806 
L 1397 3806 
L 1397 2722 
L 3309 2722 
L 3309 1947 
L 1397 1947 
L 1397 0 
L 472 0 
z
" transform="scale(0.015625)"/>
      <path id="Arial-BoldMT-75" d="M 2644 0 
L 2644 497 
Q 2463 231 2167 78 
Q 1872 -75 1544 -75 
Q 1209 -75 943 72 
Q 678 219 559 484 
Q 441 750 441 1219 
L 441 3319 
L 1319 3319 
L 1319 1794 
Q 1319 1094 1367 936 
Q 1416 778 1544 686 
Q 1672 594 1869 594 
Q 2094 594 2272 717 
Q 2450 841 2515 1023 
Q 2581 1206 2581 1919 
L 2581 3319 
L 3459 3319 
L 3459 0 
L 2644 0 
z
" transform="scale(0.015625)"/>
      <path id="Arial-BoldMT-70" d="M 434 3319 
L 1253 3319 
L 1253 2831 
Q 1413 3081 1684 3237 
Q 1956 3394 2288 3394 
Q 2866 3394 3269 2941 
Q 3672 2488 3672 1678 
Q 3672 847 3265 386 
Q 2859 -75 2281 -75 
Q 2006 -75 1782 34 
Q 1559 144 1313 409 
L 1313 -1263 
L 434 -1263 
L 434 3319 
z
M 1303 1716 
Q 1303 1156 1525 889 
Q 1747 622 2066 622 
Q 2372 622 2575 867 
Q 2778 1113 2778 1672 
Q 2778 2194 2568 2447 
Q 2359 2700 2050 2700 
Q 1728 2700 1515 2451 
Q 1303 2203 1303 1716 
z
" transform="scale(0.015625)"/>
      <path id="Arial-BoldMT-28" d="M 1916 -1347 
L 1313 -1347 
Q 834 -625 584 153 
Q 334 931 334 1659 
Q 334 2563 644 3369 
Q 913 4069 1325 4659 
L 1925 4659 
Q 1497 3713 1336 3048 
Q 1175 2384 1175 1641 
Q 1175 1128 1270 590 
Q 1366 53 1531 -431 
Q 1641 -750 1916 -1347 
z
" transform="scale(0.015625)"/>
      <path id="Arial-BoldMT-45" d="M 466 0 
L 466 4581 
L 3863 4581 
L 3863 3806 
L 1391 3806 
L 1391 2791 
L 3691 2791 
L 3691 2019 
L 1391 2019 
L 1391 772 
L 3950 772 
L 3950 0 
L 466 0 
z
" transform="scale(0.015625)"/>
      <path id="Arial-BoldMT-29" d="M 216 -1347 
Q 475 -791 581 -494 
Q 688 -197 778 190 
Q 869 578 912 926 
Q 956 1275 956 1641 
Q 956 2384 797 3048 
Q 638 3713 209 4659 
L 806 4659 
Q 1278 3988 1539 3234 
Q 1800 2481 1800 1706 
Q 1800 1053 1594 306 
Q 1359 -531 822 -1347 
L 216 -1347 
z
" transform="scale(0.015625)"/>
     </defs>
     <use xlink:href="#Arial-BoldMT-4d"/>
     <use xlink:href="#Arial-BoldMT-6f" transform="translate(83.300781 0)"/>
     <use xlink:href="#Arial-BoldMT-64" transform="translate(144.384766 0)"/>
     <use xlink:href="#Arial-BoldMT-65" transform="translate(205.46875 0)"/>
     <use xlink:href="#Arial-BoldMT-6c" transform="translate(261.083984 0)"/>
     <use xlink:href="#Arial-BoldMT-20" transform="translate(288.867188 0)"/>
     <use xlink:href="#Arial-BoldMT-41" transform="translate(312.900391 0)"/>
     <use xlink:href="#Arial-BoldMT-3a" transform="translate(385.117188 0)"/>
     <use xlink:href="#Arial-BoldMT-20" transform="translate(418.417969 0)"/>
     <use xlink:href="#Arial-BoldMT-50" transform="translate(446.201172 0)"/>
     <use xlink:href="#Arial-BoldMT-72" transform="translate(512.900391 0)"/>
     <use xlink:href="#Arial-BoldMT-65" transform="translate(551.816406 0)"/>
     <use xlink:href="#Arial-BoldMT-64" transform="translate(607.431641 0)"/>
     <use xlink:href="#Arial-BoldMT-69" transform="translate(668.515625 0)"/>
     <use xlink:href="#Arial-BoldMT-63" transform="translate(696.298828 0)"/>
     <use xlink:href="#Arial-BoldMT-74" transform="translate(751.914062 0)"/>
     <use xlink:href="#Arial-BoldMT-6f" transform="translate(785.214844 0)"/>
     <use xlink:href="#Arial-BoldMT-72" transform="translate(846.298828 0)"/>
     <use xlink:href="#Arial-BoldMT-73" transform="translate(885.214844 0)"/>
     <use xlink:href="#Arial-BoldMT-20" transform="translate(940.830078 0)"/>
     <use xlink:href="#Arial-BoldMT-6f" transform="translate(968.613281 0)"/>
     <use xlink:href="#Arial-BoldMT-66" transform="translate(1029.697266 0)"/>
     <use xlink:href="#Arial-BoldMT-20" transform="translate(1062.998047 0)"/>
     <use xlink:href="#Arial-BoldMT-47" transform="translate(1090.78125 0)"/>
     <use xlink:href="#Arial-BoldMT-68" transform="translate(1168.564453 0)"/>
     <use xlink:href="#Arial-BoldMT-61" transform="translate(1229.648438 0)"/>
     <use xlink:href="#Arial-BoldMT-6e" transform="translate(1285.263672 0)"/>
     <use xlink:href="#Arial-BoldMT-61" transform="translate(1346.347656 0)"/>
     <use xlink:href="#Arial-BoldMT-69" transform="translate(1401.962891 0)"/>
     <use xlink:href="#Arial-BoldMT-61" transform="translate(1429.746094 0)"/>
     <use xlink:href="#Arial-BoldMT-6e" transform="translate(1485.361328 0)"/>
     <use xlink:href="#Arial-BoldMT-20" transform="translate(1546.445312 0)"/>
     <use xlink:href="#Arial-BoldMT-46" transform="translate(1574.228516 0)"/>
     <use xlink:href="#Arial-BoldMT-69" transform="translate(1635.3125 0)"/>
     <use xlink:href="#Arial-BoldMT-72" transform="translate(1663.095703 0)"/>
     <use xlink:href="#Arial-BoldMT-73" transform="translate(1702.011719 0)"/>
     <use xlink:href="#Arial-BoldMT-74" transform="translate(1757.626953 0)"/>
     <use xlink:href="#Arial-BoldMT-20" transform="translate(1790.927734 0)"/>
     <use xlink:href="#Arial-BoldMT-41" transform="translate(1814.960938 0)"/>
     <use xlink:href="#Arial-BoldMT-75" transform="translate(1887.177734 0)"/>
     <use xlink:href="#Arial-BoldMT-74" transform="translate(1948.261719 0)"/>
     <use xlink:href="#Arial-BoldMT-68" transform="translate(1981.5625 0)"/>
     <use xlink:href="#Arial-BoldMT-6f" transform="translate(2042.646484 0)"/>
     <use xlink:href="#Arial-BoldMT-72" transform="translate(2103.730469 0)"/>
     <use xlink:href="#Arial-BoldMT-73" transform="translate(2142.646484 0)"/>
     <use xlink:href="#Arial-BoldMT-68" transform="translate(2198.261719 0)"/>
     <use xlink:href="#Arial-BoldMT-69" transform="translate(2259.345703 0)"/>
     <use xlink:href="#Arial-BoldMT-70" transform="translate(2287.128906 0)"/>
     <use xlink:href="#Arial-BoldMT-20" transform="translate(2348.212891 0)"/>
     <use xlink:href="#Arial-BoldMT-28" transform="translate(2375.996094 0)"/>
     <use xlink:href="#Arial-BoldMT-47" transform="translate(2409.296875 0)"/>
     <use xlink:href="#Arial-BoldMT-45" transform="translate(2487.080078 0)"/>
     <use xlink:href="#Arial-BoldMT-45" transform="translate(2553.779297 0)"/>
     <use xlink:href="#Arial-BoldMT-29" transform="translate(2620.478516 0)"/>
    </g>
   </g>
   <g id="PathCollection_1">
    <defs>
     <path id="C0_0_d70244d97a" d="M 0 3.872983 
C 1.027127 3.872983 2.012324 3.464901 2.738613 2.738613 
C 3.464901 2.012324 3.872983 1.027127 3.872983 -0 
C 3.872983 -1.027127 3.464901 -2.012324 2.738613 -2.738613 
C 2.012324 -3.464901 1.027127 -3.872983 0 -3.872983 
C -1.027127 -3.872983 -2.012324 -3.464901 -2.738613 -2.738613 
C -3.464901 -2.012324 -3.872983 -1.027127 -3.872983 0 
C -3.872983 1.027127 -3.464901 2.012324 -2.738613 2.738613 
C -2.012324 3.464901 -1.027127 3.872983 0 3.872983 
z
"/>
    </defs>
    <g clip-path="url(#p4b8eb32402)">
     <use xlink:href="#C0_0_d70244d97a" x="274.043273" y="450.185412" style="fill: #2563eb; stroke: #2563eb"/>
    </g>
    <g clip-path="url(#p4b8eb32402)">
     <use xlink:href="#C0_0_d70244d97a" x="308.26368" y="426.23461" style="fill: #2563eb; stroke: #2563eb"/>
    </g>
    <g clip-path="url(#p4b8eb32402)">
     <use xlink:href="#C0_0_d70244d97a" x="318.13051" y="402.283808" style="fill: #2563eb; stroke: #2563eb"/>
    </g>
    <g clip-path="url(#p4b8eb32402)">
     <use xlink:href="#C0_0_d70244d97a" x="331.330982" y="378.333006" style="fill: #9ca3af; stroke: #9ca3af"/>
    </g>
    <g clip-path="url(#p4b8eb32402)">
     <use xlink:href="#C0_0_d70244d97a" x="333.191378" y="354.382203" style="fill: #2563eb; stroke: #2563eb"/>
    </g>
    <g clip-path="url(#p4b8eb32402)">
     <use xlink:href="#C0_0_d70244d97a" x="335.745605" y="330.431401" style="fill: #2563eb; stroke: #2563eb"/>
    </g>
    <g clip-path="url(#p4b8eb32402)">
     <use xlink:href="#C0_0_d70244d97a" x="356.555525" y="306.480599" style="fill: #9ca3af; stroke: #9ca3af"/>
    </g>
    <g clip-path="url(#p4b8eb32402)">
     <use xlink:href="#C0_0_d70244d97a" x="363.538906" y="282.529797" style="fill: #9ca3af; stroke: #9ca3af"/>
    </g>
    <g clip-path="url(#p4b8eb32402)">
     <use xlink:href="#C0_0_d70244d97a" x="371.412476" y="258.578995" style="fill: #9ca3af; stroke: #9ca3af"/>
    </g>
    <g clip-path="url(#p4b8eb32402)">
     <use xlink:href="#C0_0_d70244d97a" x="372.31774" y="234.628193" style="fill: #9ca3af; stroke: #9ca3af"/>
    </g>
    <g clip-path="url(#p4b8eb32402)">
     <use xlink:href="#C0_0_d70244d97a" x="372.822311" y="210.677391" style="fill: #9ca3af; stroke: #9ca3af"/>
    </g>
    <g clip-path="url(#p4b8eb32402)">
     <use xlink:href="#C0_0_d70244d97a" x="376.957826" y="186.726588" style="fill: #dc2626; stroke: #dc2626"/>
    </g>
    <g clip-path="url(#p4b8eb32402)">
     <use xlink:href="#C0_0_d70244d97a" x="377.581015" y="162.775786" style="fill: #9ca3af; stroke: #9ca3af"/>
    </g>
    <g clip-path="url(#p4b8eb32402)">
     <use xlink:href="#C0_0_d70244d97a" x="381.897531" y="138.824984" style="fill: #9ca3af; stroke: #9ca3af"/>
    </g>
    <g clip-path="url(#p4b8eb32402)">
     <use xlink:href="#C0_0_d70244d97a" x="389.924772" y="114.874182" style="fill: #9ca3af; stroke: #9ca3af"/>
    </g>
    <g clip-path="url(#p4b8eb32402)">
     <use xlink:href="#C0_0_d70244d97a" x="391.102751" y="90.92338" style="fill: #dc2626; stroke: #dc2626"/>
    </g>
    <g clip-path="url(#p4b8eb32402)">
     <use xlink:href="#C0_0_d70244d97a" x="396.724088" y="66.972578" style="fill: #dc2626; stroke: #dc2626"/>
    </g>
    <g clip-path="url(#p4b8eb32402)">
     <use xlink:href="#C0_0_d70244d97a" x="471.517489" y="43.021776" style="fill: #9ca3af; stroke: #9ca3af"/>
    </g>
   </g>
  </g>
 </g>
 <defs>
  <clipPath id="p4b8eb32402">
   <rect x="238.178906" y="22.663594" width="465.2" height="447.88"/>
  </clipPath>
 </defs>
</svg>
