<?xml version="1.0" encoding="utf-8" standalone="no"?>
<!DOCTYPE svg PUBLIC "-//W3C//DTD SVG 1.1//EN"
  "http://www.w3.org/Graphics/SVG/1.1/DTD/svg11.dtd">
<svg xmlns:xlink="http://www.w3.org/1999/xlink" width="386.464375pt" height="394.545937pt" viewBox="0 0 386.464375 394.545937" xmlns="http://www.w3.org/2000/svg" version="1.1">
 <metadata>
  <rdf:RDF xmlns:dc="http://purl.org/dc/elements/1.1/" xmlns:cc="http://creativecommons.org/ns#" xmlns:rdf="http://www.w3.org/1999/02/22-rdf-syntax-ns#">
   <cc:Work>
    <dc:type rdf:resource="http://purl.org/dc/dcmitype/StillImage"/>
    <dc:date>2026-04-13T22:29:52.722232</dc:date>
    <dc:format>image/svg+xml</dc:format>
    <dc:creator>
     <cc:Agent>
      <dc:title>Matplotlib v3.10.8, https://matplotlib.org/</dc:title>
     </cc:Agent>
    </dc:creator>
   </cc:Work>
  </rdf:RDF>
 </metadata>
 <defs>
  <style type="text/css">*{stroke-linejoin: round; stroke-linecap: butt}</style>
 </defs>
 <g id="figure_1">
  <g id="patch_1">
   <path d="M 0 394.545937 
L 386.464375 394.545937 
L 386.464375 0 
L 0 0 
z
" style="fill: #ffffff"/>
  </g>
  <g id="axes_1">
   <g id="patch_2">
    <path d="M 44.464375 355.311719 
L 379.264375 355.311719 
L 379.264375 22.671719 
L 44.464375 22.671719 
z
" style="fill: #ffffff"/>
   </g>
   <g id="matplotlib.axis_1">
    <g id="xtick_1">
     <g id="line2d_1">
      <defs>
       <path id="m54f5a714ab" d="M 0 0 
L 0 3.5 
" style="stroke: #000000; stroke-width: 0.8"/>
      </defs>
      <g>
       <use xlink:href="#m54f5a714ab" x="59.682557" y="355.311719" style="stroke: #000000; stroke-width: 0.8"/>
      </g>
     </g>
     <g id="text_1">
      <!-- 0.0 -->
      <g transform="translate(52.037557 370.185312) scale(0.11 -0.11)">
       <defs>
        <path id="ArialMT-30" d="M 266 2259 
Q 266 3072 433 3567 
Q 600 4063 929 4331 
Q 1259 4600 1759 4600 
Q 2128 4600 2406 4451 
Q 2684 4303 2865 4023 
Q 3047 3744 3150 3342 
Q 3253 2941 3253 2259 
Q 3253 1453 3087 958 
Q 2922 463 2592 192 
Q 2263 -78 1759 -78 
Q 1097 -78 719 397 
Q 266 969 266 2259 
z
M 844 2259 
Q 844 1131 1108 757 
Q 1372 384 1759 384 
Q 2147 384 2411 759 
Q 2675 1134 2675 2259 
Q 2675 3391 2411 3762 
Q 2147 4134 1753 4134 
Q 1366 4134 1134 3806 
Q 844 3388 844 2259 
z
" transform="scale(0.015625)"/>
        <path id="ArialMT-2e" d="M 581 0 
L 581 641 
L 1222 641 
L 1222 0 
L 581 0 
z
" transform="scale(0.015625)"/>
       </defs>
       <use xlink:href="#ArialMT-30"/>
       <use xlink:href="#ArialMT-2e" transform="translate(55.615234 0)"/>
       <use xlink:href="#ArialMT-30" transform="translate(83.398438 0)"/>
      </g>
     </g>
    </g>
    <g id="xtick_2">
     <g id="line2d_2">
      <g>
       <use xlink:href="#m54f5a714ab" x="120.555284" y="355.311719" style="stroke: #000000; stroke-width: 0.8"/>
      </g>
     </g>
     <g id="text_2">
      <!-- 0.2 -->
      <g transform="translate(112.910284 370.185312) scale(0.11 -0.11)">
       <defs>
        <path id="ArialMT-32" d="M 3222 541 
L 3222 0 
L 194 0 
Q 188 203 259 391 
Q 375 700 629 1000 
Q 884 1300 1366 1694 
Q 2113 2306 2375 2664 
Q 2638 3022 2638 3341 
Q 2638 3675 2398 3904 
Q 2159 4134 1775 4134 
Q 1369 4134 1125 3890 
Q 881 3647 878 3216 
L 300 3275 
Q 359 3922 746 4261 
Q 1134 4600 1788 4600 
Q 2447 4600 2831 4234 
Q 3216 3869 3216 3328 
Q 3216 3053 3103 2787 
Q 2991 2522 2730 2228 
Q 2469 1934 1863 1422 
Q 1356 997 1212 845 
Q 1069 694 975 541 
L 3222 541 
z
" transform="scale(0.015625)"/>
       </defs>
       <use xlink:href="#ArialMT-30"/>
       <use xlink:href="#ArialMT-2e" transform="translate(55.615234 0)"/>
       <use xlink:href="#ArialMT-32" transform="translate(83.398438 0)"/>
      </g>
     </g>
    </g>
    <g id="xtick_3">
     <g id="line2d_3">
      <g>
       <use xlink:href="#m54f5a714ab" x="181.428011" y="355.311719" style="stroke: #000000; stroke-width: 0.8"/>
      </g>
     </g>
     <g id="text_3">
      <!-- 0.4 -->
      <g transform="translate(173.783011 370.185312) scale(0.11 -0.11)">
       <defs>
        <path id="ArialMT-34" d="M 2069 0 
L 2069 1097 
L 81 1097 
L 81 1613 
L 2172 4581 
L 2631 4581 
L 2631 1613 
L 3250 1613 
L 3250 1097 
L 2631 1097 
L 2631 0 
L 2069 0 
z
M 2069 1613 
L 2069 3678 
L 634 1613 
L 2069 1613 
z
" transform="scale(0.015625)"/>
       </defs>
       <use xlink:href="#ArialMT-30"/>
       <use xlink:href="#ArialMT-2e" transform="translate(55.615234 0)"/>
       <use xlink:href="#ArialMT-34" transform="translate(83.398438 0)"/>
      </g>
     </g>
    </g>
    <g id="xtick_4">
     <g id="line2d_4">
      <g>
       <use xlink:href="#m54f5a714ab" x="242.300739" y="355.311719" style="stroke: #000000; stroke-width: 0.8"/>
      </g>
     </g>
     <g id="text_4">
      <!-- 0.6 -->
      <g transform="translate(234.655739 370.185312) scale(0.11 -0.11)">
       <defs>
        <path id="ArialMT-36" d="M 3184 3459 
L 2625 3416 
Q 2550 3747 2413 3897 
Q 2184 4138 1850 4138 
Q 1581 4138 1378 3988 
Q 1113 3794 959 3422 
Q 806 3050 800 2363 
Q 1003 2672 1297 2822 
Q 1591 2972 1913 2972 
Q 2475 2972 2870 2558 
Q 3266 2144 3266 1488 
Q 3266 1056 3080 686 
Q 2894 316 2569 119 
Q 2244 -78 1831 -78 
Q 1128 -78 684 439 
Q 241 956 241 2144 
Q 241 3472 731 4075 
Q 1159 4600 1884 4600 
Q 2425 4600 2770 4297 
Q 3116 3994 3184 3459 
z
M 888 1484 
Q 888 1194 1011 928 
Q 1134 663 1356 523 
Q 1578 384 1822 384 
Q 2178 384 2434 671 
Q 2691 959 2691 1453 
Q 2691 1928 2437 2201 
Q 2184 2475 1800 2475 
Q 1419 2475 1153 2201 
Q 888 1928 888 1484 
z
" transform="scale(0.015625)"/>
       </defs>
       <use xlink:href="#ArialMT-30"/>
       <use xlink:href="#ArialMT-2e" transform="translate(55.615234 0)"/>
       <use xlink:href="#ArialMT-36" transform="translate(83.398438 0)"/>
      </g>
     </g>
    </g>
    <g id="xtick_5">
     <g id="line2d_5">
      <g>
       <use xlink:href="#m54f5a714ab" x="303.173466" y="355.311719" style="stroke: #000000; stroke-width: 0.8"/>
      </g>
     </g>
     <g id="text_5">
      <!-- 0.8 -->
      <g transform="translate(295.528466 370.185312) scale(0.11 -0.11)">
       <defs>
        <path id="ArialMT-38" d="M 1131 2484 
Q 781 2613 612 2850 
Q 444 3088 444 3419 
Q 444 3919 803 4259 
Q 1163 4600 1759 4600 
Q 2359 4600 2725 4251 
Q 3091 3903 3091 3403 
Q 3091 3084 2923 2848 
Q 2756 2613 2416 2484 
Q 2838 2347 3058 2040 
Q 3278 1734 3278 1309 
Q 3278 722 2862 322 
Q 2447 -78 1769 -78 
Q 1091 -78 675 323 
Q 259 725 259 1325 
Q 259 1772 486 2073 
Q 713 2375 1131 2484 
z
M 1019 3438 
Q 1019 3113 1228 2906 
Q 1438 2700 1772 2700 
Q 2097 2700 2305 2904 
Q 2513 3109 2513 3406 
Q 2513 3716 2298 3927 
Q 2084 4138 1766 4138 
Q 1444 4138 1231 3931 
Q 1019 3725 1019 3438 
z
M 838 1322 
Q 838 1081 952 856 
Q 1066 631 1291 507 
Q 1516 384 1775 384 
Q 2178 384 2440 643 
Q 2703 903 2703 1303 
Q 2703 1709 2433 1975 
Q 2163 2241 1756 2241 
Q 1359 2241 1098 1978 
Q 838 1716 838 1322 
z
" transform="scale(0.015625)"/>
       </defs>
       <use xlink:href="#ArialMT-30"/>
       <use xlink:href="#ArialMT-2e" transform="translate(55.615234 0)"/>
       <use xlink:href="#ArialMT-38" transform="translate(83.398438 0)"/>
      </g>
     </g>
    </g>
    <g id="xtick_6">
     <g id="line2d_6">
      <g>
       <use xlink:href="#m54f5a714ab" x="364.046193" y="355.311719" style="stroke: #000000; stroke-width: 0.8"/>
      </g>
     </g>
     <g id="text_6">
      <!-- 1.0 -->
      <g transform="translate(356.401193 370.185312) scale(0.11 -0.11)">
       <defs>
        <path id="ArialMT-31" d="M 2384 0 
L 1822 0 
L 1822 3584 
Q 1619 3391 1289 3197 
Q 959 3003 697 2906 
L 697 3450 
Q 1169 3672 1522 3987 
Q 1875 4303 2022 4600 
L 2384 4600 
L 2384 0 
z
" transform="scale(0.015625)"/>
       </defs>
       <use xlink:href="#ArialMT-31"/>
       <use xlink:href="#ArialMT-2e" transform="translate(55.615234 0)"/>
       <use xlink:href="#ArialMT-30" transform="translate(83.398438 0)"/>
      </g>
     </g>
    </g>
    <g id="text_7">
     <!-- False Positive Rate -->
     <g transform="translate(160.178125 384.960937) scale(0.12 -0.12)">
      <defs>
       <path id="ArialMT-46" d="M 525 0 
L 525 4581 
L 3616 4581 
L 3616 4041 
L 1131 4041 
L 1131 2622 
L 3281 2622 
L 3281 2081 
L 1131 2081 
L 1131 0 
L 525 0 
z
" transform="scale(0.015625)"/>
       <path id="ArialMT-61" d="M 2588 409 
Q 2275 144 1986 34 
Q 1697 -75 1366 -75 
Q 819 -75 525 192 
Q 231 459 231 875 
Q 231 1119 342 1320 
Q 453 1522 633 1644 
Q 813 1766 1038 1828 
Q 1203 1872 1538 1913 
Q 2219 1994 2541 2106 
Q 2544 2222 2544 2253 
Q 2544 2597 2384 2738 
Q 2169 2928 1744 2928 
Q 1347 2928 1158 2789 
Q 969 2650 878 2297 
L 328 2372 
Q 403 2725 575 2942 
Q 747 3159 1072 3276 
Q 1397 3394 1825 3394 
Q 2250 3394 2515 3294 
Q 2781 3194 2906 3042 
Q 3031 2891 3081 2659 
Q 3109 2516 3109 2141 
L 3109 1391 
Q 3109 606 3145 398 
Q 3181 191 3288 0 
L 2700 0 
Q 2613 175 2588 409 
z
M 2541 1666 
Q 2234 1541 1622 1453 
Q 1275 1403 1131 1340 
Q 988 1278 909 1158 
Q 831 1038 831 891 
Q 831 666 1001 516 
Q 1172 366 1500 366 
Q 1825 366 2078 508 
Q 2331 650 2450 897 
Q 2541 1088 2541 1459 
L 2541 1666 
z
" transform="scale(0.015625)"/>
       <path id="ArialMT-6c" d="M 409 0 
L 409 4581 
L 972 4581 
L 972 0 
L 409 0 
z
" transform="scale(0.015625)"/>
       <path id="ArialMT-73" d="M 197 991 
L 753 1078 
Q 800 744 1014 566 
Q 1228 388 1613 388 
Q 2000 388 2187 545 
Q 2375 703 2375 916 
Q 2375 1106 2209 1216 
Q 2094 1291 1634 1406 
Q 1016 1563 777 1677 
Q 538 1791 414 1992 
Q 291 2194 291 2438 
Q 291 2659 392 2848 
Q 494 3038 669 3163 
Q 800 3259 1026 3326 
Q 1253 3394 1513 3394 
Q 1903 3394 2198 3281 
Q 2494 3169 2634 2976 
Q 2775 2784 2828 2463 
L 2278 2388 
Q 2241 2644 2061 2787 
Q 1881 2931 1553 2931 
Q 1166 2931 1000 2803 
Q 834 2675 834 2503 
Q 834 2394 903 2306 
Q 972 2216 1119 2156 
Q 1203 2125 1616 2013 
Q 2213 1853 2448 1751 
Q 2684 1650 2818 1456 
Q 2953 1263 2953 975 
Q 2953 694 2789 445 
Q 2625 197 2315 61 
Q 2006 -75 1616 -75 
Q 969 -75 630 194 
Q 291 463 197 991 
z
" transform="scale(0.015625)"/>
       <path id="ArialMT-65" d="M 2694 1069 
L 3275 997 
Q 3138 488 2766 206 
Q 2394 -75 1816 -75 
Q 1088 -75 661 373 
Q 234 822 234 1631 
Q 234 2469 665 2931 
Q 1097 3394 1784 3394 
Q 2450 3394 2872 2941 
Q 3294 2488 3294 1666 
Q 3294 1616 3291 1516 
L 816 1516 
Q 847 969 1125 678 
Q 1403 388 1819 388 
Q 2128 388 2347 550 
Q 2566 713 2694 1069 
z
M 847 1978 
L 2700 1978 
Q 2663 2397 2488 2606 
Q 2219 2931 1791 2931 
Q 1403 2931 1139 2672 
Q 875 2413 847 1978 
z
" transform="scale(0.015625)"/>
       <path id="ArialMT-20" transform="scale(0.015625)"/>
       <path id="ArialMT-50" d="M 494 0 
L 494 4581 
L 2222 4581 
Q 2678 4581 2919 4538 
Q 3256 4481 3484 4323 
Q 3713 4166 3852 3881 
Q 3991 3597 3991 3256 
Q 3991 2672 3619 2267 
Q 3247 1863 2275 1863 
L 1100 1863 
L 1100 0 
L 494 0 
z
M 1100 2403 
L 2284 2403 
Q 2872 2403 3119 2622 
Q 3366 2841 3366 3238 
Q 3366 3525 3220 3729 
Q 3075 3934 2838 4000 
Q 2684 4041 2272 4041 
L 1100 4041 
L 1100 2403 
z
" transform="scale(0.015625)"/>
       <path id="ArialMT-6f" d="M 213 1659 
Q 213 2581 725 3025 
Q 1153 3394 1769 3394 
Q 2453 3394 2887 2945 
Q 3322 2497 3322 1706 
Q 3322 1066 3130 698 
Q 2938 331 2570 128 
Q 2203 -75 1769 -75 
Q 1072 -75 642 372 
Q 213 819 213 1659 
z
M 791 1659 
Q 791 1022 1069 705 
Q 1347 388 1769 388 
Q 2188 388 2466 706 
Q 2744 1025 2744 1678 
Q 2744 2294 2464 2611 
Q 2184 2928 1769 2928 
Q 1347 2928 1069 2612 
Q 791 2297 791 1659 
z
" transform="scale(0.015625)"/>
       <path id="ArialMT-69" d="M 425 3934 
L 425 4581 
L 988 4581 
L 988 3934 
L 425 3934 
z
M 425 0 
L 425 3319 
L 988 3319 
L 988 0 
L 425 0 
z
" transform="scale(0.015625)"/>
       <path id="ArialMT-74" d="M 1650 503 
L 1731 6 
Q 1494 -44 1306 -44 
Q 1000 -44 831 53 
Q 663 150 594 308 
Q 525 466 525 972 
L 525 2881 
L 113 2881 
L 113 3319 
L 525 3319 
L 525 4141 
L 1084 4478 
L 1084 3319 
L 1650 3319 
L 1650 2881 
L 1084 2881 
L 1084 941 
Q 1084 700 1114 631 
Q 1144 563 1211 522 
Q 1278 481 1403 481 
Q 1497 481 1650 503 
z
" transform="scale(0.015625)"/>
       <path id="ArialMT-76" d="M 1344 0 
L 81 3319 
L 675 3319 
L 1388 1331 
Q 1503 1009 1600 663 
Q 1675 925 1809 1294 
L 2547 3319 
L 3125 3319 
L 1869 0 
L 1344 0 
z
" transform="scale(0.015625)"/>
       <path id="ArialMT-52" d="M 503 0 
L 503 4581 
L 2534 4581 
Q 3147 4581 3465 4457 
Q 3784 4334 3975 4021 
Q 4166 3709 4166 3331 
Q 4166 2844 3850 2509 
Q 3534 2175 2875 2084 
Q 3116 1969 3241 1856 
Q 3506 1613 3744 1247 
L 4541 0 
L 3778 0 
L 3172 953 
Q 2906 1366 2734 1584 
Q 2563 1803 2427 1890 
Q 2291 1978 2150 2013 
Q 2047 2034 1813 2034 
L 1109 2034 
L 1109 0 
L 503 0 
z
M 1109 2559 
L 2413 2559 
Q 2828 2559 3062 2645 
Q 3297 2731 3419 2920 
Q 3541 3109 3541 3331 
Q 3541 3656 3305 3865 
Q 3069 4075 2559 4075 
L 1109 4075 
L 1109 2559 
z
" transform="scale(0.015625)"/>
      </defs>
      <use xlink:href="#ArialMT-46"/>
      <use xlink:href="#ArialMT-61" transform="translate(61.083984 0)"/>
      <use xlink:href="#ArialMT-6c" transform="translate(116.699219 0)"/>
      <use xlink:href="#ArialMT-73" transform="translate(138.916016 0)"/>
      <use xlink:href="#ArialMT-65" transform="translate(188.916016 0)"/>
      <use xlink:href="#ArialMT-20" transform="translate(244.53125 0)"/>
      <use xlink:href="#ArialMT-50" transform="translate(272.314453 0)"/>
      <use xlink:href="#ArialMT-6f" transform="translate(339.013672 0)"/>
      <use xlink:href="#ArialMT-73" transform="translate(394.628906 0)"/>
      <use xlink:href="#ArialMT-69" transform="translate(444.628906 0)"/>
      <use xlink:href="#ArialMT-74" transform="translate(466.845703 0)"/>
      <use xlink:href="#ArialMT-69" transform="translate(494.628906 0)"/>
      <use xlink:href="#ArialMT-76" transform="translate(516.845703 0)"/>
      <use xlink:href="#ArialMT-65" transform="translate(566.845703 0)"/>
      <use xlink:href="#ArialMT-20" transform="translate(622.460938 0)"/>
      <use xlink:href="#ArialMT-52" transform="translate(650.244141 0)"/>
      <use xlink:href="#ArialMT-61" transform="translate(722.460938 0)"/>
      <use xlink:href="#ArialMT-74" transform="translate(778.076172 0)"/>
      <use xlink:href="#ArialMT-65" transform="translate(805.859375 0)"/>
     </g>
    </g>
   </g>
   <g id="matplotlib.axis_2">
    <g id="ytick_1">
     <g id="line2d_7">
      <defs>
       <path id="m59b38a8d94" d="M 0 0 
L -3.5 0 
" style="stroke: #000000; stroke-width: 0.8"/>
      </defs>
      <g>
       <use xlink:href="#m59b38a8d94" x="44.464375" y="340.191719" style="stroke: #000000; stroke-width: 0.8"/>
      </g>
     </g>
     <g id="text_8">
      <!-- 0.0 -->
      <g transform="translate(22.174375 344.128516) scale(0.11 -0.11)">
       <use xlink:href="#ArialMT-30"/>
       <use xlink:href="#ArialMT-2e" transform="translate(55.615234 0)"/>
       <use xlink:href="#ArialMT-30" transform="translate(83.398438 0)"/>
      </g>
     </g>
    </g>
    <g id="ytick_2">
     <g id="line2d_8">
      <g>
       <use xlink:href="#m59b38a8d94" x="44.464375" y="279.711719" style="stroke: #000000; stroke-width: 0.8"/>
      </g>
     </g>
     <g id="text_9">
      <!-- 0.2 -->
      <g transform="translate(22.174375 283.648516) scale(0.11 -0.11)">
       <use xlink:href="#ArialMT-30"/>
       <use xlink:href="#ArialMT-2e" transform="translate(55.615234 0)"/>
       <use xlink:href="#ArialMT-32" transform="translate(83.398438 0)"/>
      </g>
     </g>
    </g>
    <g id="ytick_3">
     <g id="line2d_9">
      <g>
       <use xlink:href="#m59b38a8d94" x="44.464375" y="219.231719" style="stroke: #000000; stroke-width: 0.8"/>
      </g>
     </g>
     <g id="text_10">
      <!-- 0.4 -->
      <g transform="translate(22.174375 223.168516) scale(0.11 -0.11)">
       <use xlink:href="#ArialMT-30"/>
       <use xlink:href="#ArialMT-2e" transform="translate(55.615234 0)"/>
       <use xlink:href="#ArialMT-34" transform="translate(83.398438 0)"/>
      </g>
     </g>
    </g>
    <g id="ytick_4">
     <g id="line2d_10">
      <g>
       <use xlink:href="#m59b38a8d94" x="44.464375" y="158.751719" style="stroke: #000000; stroke-width: 0.8"/>
      </g>
     </g>
     <g id="text_11">
      <!-- 0.6 -->
      <g transform="translate(22.174375 162.688516) scale(0.11 -0.11)">
       <use xlink:href="#ArialMT-30"/>
       <use xlink:href="#ArialMT-2e" transform="translate(55.615234 0)"/>
       <use xlink:href="#ArialMT-36" transform="translate(83.398438 0)"/>
      </g>
     </g>
    </g>
    <g id="ytick_5">
     <g id="line2d_11">
      <g>
       <use xlink:href="#m59b38a8d94" x="44.464375" y="98.271719" style="stroke: #000000; stroke-width: 0.8"/>
      </g>
     </g>
     <g id="text_12">
      <!-- 0.8 -->
      <g transform="translate(22.174375 102.208516) scale(0.11 -0.11)">
       <use xlink:href="#ArialMT-30"/>
       <use xlink:href="#ArialMT-2e" transform="translate(55.615234 0)"/>
       <use xlink:href="#ArialMT-38" transform="translate(83.398438 0)"/>
      </g>
     </g>
    </g>
    <g id="ytick_6">
     <g id="line2d_12">
      <g>
       <use xlink:href="#m59b38a8d94" x="44.464375" y="37.791719" style="stroke: #000000; stroke-width: 0.8"/>
      </g>
     </g>
     <g id="text_13">
      <!-- 1.0 -->
      <g transform="translate(22.174375 41.728516) scale(0.11 -0.11)">
       <use xlink:href="#ArialMT-31"/>
       <use xlink:href="#ArialMT-2e" transform="translate(55.615234 0)"/>
       <use xlink:href="#ArialMT-30" transform="translate(83.398438 0)"/>
      </g>
     </g>
    </g>
    <g id="text_14">
     <!-- True Positive Rate -->
     <g transform="translate(15.789375 238.117656) rotate(-90) scale(0.12 -0.12)">
      <defs>
       <path id="ArialMT-54" d="M 1659 0 
L 1659 4041 
L 150 4041 
L 150 4581 
L 3781 4581 
L 3781 4041 
L 2266 4041 
L 2266 0 
L 1659 0 
z
" transform="scale(0.015625)"/>
       <path id="ArialMT-72" d="M 416 0 
L 416 3319 
L 922 3319 
L 922 2816 
Q 1116 3169 1280 3281 
Q 1444 3394 1641 3394 
Q 1925 3394 2219 3213 
L 2025 2691 
Q 1819 2813 1613 2813 
Q 1428 2813 1281 2702 
Q 1134 2591 1072 2394 
Q 978 2094 978 1738 
L 978 0 
L 416 0 
z
" transform="scale(0.015625)"/>
       <path id="ArialMT-75" d="M 2597 0 
L 2597 488 
Q 2209 -75 1544 -75 
Q 1250 -75 995 37 
Q 741 150 617 320 
Q 494 491 444 738 
Q 409 903 409 1263 
L 409 3319 
L 972 3319 
L 972 1478 
Q 972 1038 1006 884 
Q 1059 663 1231 536 
Q 1403 409 1656 409 
Q 1909 409 2131 539 
Q 2353 669 2445 892 
Q 2538 1116 2538 1541 
L 2538 3319 
L 3100 3319 
L 3100 0 
L 2597 0 
z
" transform="scale(0.015625)"/>
      </defs>
      <use xlink:href="#ArialMT-54"/>
      <use xlink:href="#ArialMT-72" transform="translate(57.333984 0)"/>
      <use xlink:href="#ArialMT-75" transform="translate(90.634766 0)"/>
      <use xlink:href="#ArialMT-65" transform="translate(146.25 0)"/>
      <use xlink:href="#ArialMT-20" transform="translate(201.865234 0)"/>
      <use xlink:href="#ArialMT-50" transform="translate(229.648438 0)"/>
      <use xlink:href="#ArialMT-6f" transform="translate(296.347656 0)"/>
      <use xlink:href="#ArialMT-73" transform="translate(351.962891 0)"/>
      <use xlink:href="#ArialMT-69" transform="translate(401.962891 0)"/>
      <use xlink:href="#ArialMT-74" transform="translate(424.179688 0)"/>
      <use xlink:href="#ArialMT-69" transform="translate(451.962891 0)"/>
      <use xlink:href="#ArialMT-76" transform="translate(474.179688 0)"/>
      <use xlink:href="#ArialMT-65" transform="translate(524.179688 0)"/>
      <use xlink:href="#ArialMT-20" transform="translate(579.794922 0)"/>
      <use xlink:href="#ArialMT-52" transform="translate(607.578125 0)"/>
      <use xlink:href="#ArialMT-61" transform="translate(679.794922 0)"/>
      <use xlink:href="#ArialMT-74" transform="translate(735.410156 0)"/>
      <use xlink:href="#ArialMT-65" transform="translate(763.193359 0)"/>
     </g>
    </g>
   </g>
   <g id="line2d_13">
    <path d="M 59.682557 340.191719 
L 59.787336 339.512575 
L 59.850204 339.512575 
L 59.892116 338.878708 
L 59.97594 338.878708 
L 60.814176 336.071581 
L 61.170426 334.169979 
L 61.296162 334.079426 
L 61.673368 333.128625 
L 63.266017 329.053764 
L 63.517488 328.419897 
L 63.580356 328.238792 
L 63.601312 328.238792 
L 64.292857 326.971057 
L 64.313813 326.971057 
L 64.313813 326.925781 
L 64.439548 326.518295 
L 64.460504 326.518295 
L 64.774843 325.793875 
L 64.984402 324.933626 
L 65.089182 324.797798 
L 65.382564 323.982825 
L 66.074109 322.262328 
L 66.744698 320.451279 
L 66.78661 320.451279 
L 67.24764 319.907964 
L 67.24764 319.772135 
L 68.085877 317.870533 
L 68.337348 317.644152 
L 68.400215 317.281942 
L 68.525951 317.055561 
L 68.567863 316.874456 
L 68.966025 315.74255 
L 69.741394 314.248434 
L 69.825217 313.750395 
L 70.328159 312.301556 
L 70.432939 311.531859 
L 70.57963 311.441307 
L 70.57963 311.305478 
L 70.663454 311.305478 
L 70.831101 311.079097 
L 70.956836 310.173572 
L 71.564558 308.317247 
L 71.816029 307.456998 
L 72.821912 306.370368 
L 72.88478 306.189263 
L 73.324854 305.238462 
L 73.534413 304.830976 
L 74.393606 303.744346 
L 75.713828 300.93722 
L 76.153902 300.348628 
L 76.195814 300.122247 
L 76.342505 299.986419 
L 76.447285 299.48838 
L 76.887359 298.492303 
L 77.117874 298.356474 
L 78.333317 296.319043 
L 78.396184 295.956833 
L 78.626699 295.730452 
L 79.066774 294.55327 
L 79.192509 294.462717 
L 79.485892 293.738298 
L 79.80023 293.511916 
L 79.988834 293.059154 
L 80.345084 292.787497 
L 81.309056 289.753989 
L 81.413835 289.527607 
L 81.434791 289.437055 
L 81.560527 289.437055 
L 81.770086 288.576806 
L 82.10538 287.626005 
L 82.168248 287.535453 
L 82.168248 287.490177 
L 82.189204 287.490177 
L 82.356851 287.490177 
L 82.356851 287.399624 
L 82.608322 286.856309 
L 83.677074 284.728326 
L 83.739941 284.501945 
L 83.802809 284.501945 
L 84.05428 283.324763 
L 84.200971 283.007829 
L 84.347663 282.328685 
L 85.185899 280.879846 
L 85.43737 280.562912 
L 85.646929 280.019597 
L 85.8984 279.883768 
L 85.919356 279.566835 
L 87.134799 276.442774 
L 87.74252 275.039211 
L 87.889212 274.81283 
L 88.475977 273.318714 
L 88.66458 272.956504 
L 89.188478 271.824598 
L 89.272302 271.326559 
L 89.293258 271.326559 
L 89.754288 269.651338 
L 90.299141 268.926919 
L 90.466789 268.42888 
L 90.781127 268.202499 
L 91.179289 267.840289 
L 91.346937 266.889488 
L 92.604291 264.21819 
L 92.792895 264.21819 
L 93.212013 263.539046 
L 93.27488 262.950455 
L 93.589219 262.588245 
L 94.385544 261.592168 
L 94.86753 260.369709 
L 95.056133 260.279157 
L 95.559075 259.192527 
L 95.600987 259.192527 
L 95.600987 258.92087 
L 97.130768 256.566505 
L 97.17268 256.249572 
L 97.193636 256.249572 
L 97.654666 255.796809 
L 97.843269 255.479876 
L 97.98996 255.389323 
L 98.388123 254.121588 
L 99.100623 253.351892 
L 99.540698 252.491644 
L 99.687389 252.401091 
L 99.687389 252.355815 
L 99.980772 251.903053 
L 100.777096 251.223909 
L 100.944744 250.906976 
L 101.154303 250.680594 
L 101.489597 249.910898 
L 101.636289 249.865622 
L 101.762024 249.458136 
L 101.824892 249.458136 
L 101.992539 249.186478 
L 102.558349 248.733716 
L 102.914599 248.552611 
L 103.920483 247.149048 
L 104.54916 245.790761 
L 105.11497 244.930512 
L 105.156881 244.613578 
L 105.638867 243.75333 
L 105.701735 243.300567 
L 105.722691 243.300567 
L 106.560927 241.398965 
L 106.623795 241.398965 
L 106.623795 241.308413 
L 106.665707 240.946203 
L 106.749531 240.946203 
L 107.063869 240.131231 
L 107.231517 240.085954 
L 107.399164 239.859573 
L 107.503943 239.587916 
L 108.048797 239.089877 
L 108.761298 237.550485 
L 109.452843 236.509132 
L 109.452843 236.463855 
L 109.662402 236.056369 
L 109.788138 235.648883 
L 110.332991 234.064215 
L 110.395859 233.792557 
L 110.458727 233.792557 
L 110.940713 233.068137 
L 110.982624 233.068137 
L 111.171228 232.79648 
L 111.234095 232.705927 
L 111.527478 232.43427 
L 111.632258 231.936231 
L 111.778949 231.845679 
L 111.883729 231.438193 
L 112.135199 230.804325 
L 112.177111 230.804325 
L 112.198067 230.487392 
L 112.868656 228.676342 
L 112.931524 228.495237 
L 113.958364 227.227503 
L 113.958364 227.182226 
L 114.503217 225.959768 
L 114.775644 225.371177 
L 114.880424 224.692033 
L 115.089983 224.375099 
L 115.236674 223.922337 
L 115.320498 223.877061 
L 115.802484 222.790431 
L 115.949175 222.745155 
L 115.949175 222.518774 
L 116.095866 222.428221 
L 117.059838 220.526619 
L 117.20653 220.526619 
L 117.20653 220.481343 
L 117.478957 219.575818 
L 117.709472 219.07778 
L 118.002854 218.851398 
L 118.002854 218.806122 
L 118.212413 218.625017 
L 118.610576 218.036426 
L 119.05065 217.764769 
L 119.05065 217.62894 
L 119.071606 217.62894 
L 119.532636 216.587586 
L 119.784107 215.998995 
L 119.909842 215.81789 
L 120.475652 215.048194 
L 121.188153 213.508802 
L 121.502491 213.372973 
L 121.523447 213.282421 
L 122.068301 212.603277 
L 122.17308 212.558001 
L 122.256904 212.376896 
L 123.828597 210.701675 
L 123.996245 210.203637 
L 124.22676 210.022532 
L 124.22676 209.931979 
L 124.520142 209.524493 
L 124.520142 209.479217 
L 124.541098 209.479217 
L 124.960216 209.071731 
L 125.274555 207.894549 
L 125.924188 207.351234 
L 125.924188 207.079576 
L 126.322351 206.30988 
L 126.364262 206.174051 
L 126.510954 206.083499 
L 126.552866 205.857118 
L 126.88816 205.268527 
L 126.971984 204.996869 
L 127.097719 204.725212 
L 127.202499 204.634659 
L 128.543677 201.963361 
L 128.648457 201.918085 
L 128.669412 201.782256 
L 129.067575 201.238941 
L 129.235222 200.922008 
L 129.319046 200.831455 
L 129.528605 200.197588 
L 130.178238 199.337339 
L 130.262062 199.156234 
L 130.283017 199.156234 
L 130.303973 199.065682 
L 130.534488 198.839301 
L 130.618312 198.567643 
L 130.869783 198.386538 
L 131.49846 197.209356 
L 132.273829 196.394384 
L 132.357653 196.168003 
L 132.378608 196.168003 
L 132.42052 196.168003 
L 132.42052 196.122726 
L 132.5253 195.488859 
L 134.159861 193.3156 
L 134.474199 192.727008 
L 135.39626 191.368721 
L 135.962069 190.870683 
L 136.045893 190.41792 
L 136.087805 190.327368 
L 136.339275 189.784053 
L 136.863173 189.557672 
L 137.366115 189.104909 
L 137.470895 189.104909 
L 137.470895 189.059633 
L 137.575674 188.833252 
L 138.120528 188.335213 
L 138.225307 188.244661 
L 138.602514 187.65607 
L 138.644426 187.65607 
L 139.294059 186.478887 
L 140.781928 184.350904 
L 141.85068 182.630407 
L 142.542225 182.222921 
L 142.626048 182.222921 
L 142.961343 181.453225 
L 143.527153 180.864634 
L 143.820535 180.366595 
L 144.595904 179.506347 
L 144.721639 179.234689 
L 144.910243 179.008308 
L 146.3562 177.514192 
L 146.754363 177.287811 
L 146.859142 176.970877 
L 147.110613 176.880325 
L 148.179365 176.110629 
L 148.682306 175.9748 
L 149.164292 175.295656 
L 149.269072 175.25038 
L 149.269072 175.205104 
L 150.14922 174.52596 
L 150.170176 174.299579 
L 150.756942 173.620436 
L 150.756942 173.529883 
L 151.301795 172.352701 
L 151.364663 172.035767 
L 151.448487 171.945215 
L 151.490398 171.76411 
L 151.511354 171.76411 
L 151.741869 171.537729 
L 151.762825 171.447176 
L 153.166871 169.681403 
L 153.250695 169.681403 
L 153.502166 169.273917 
L 153.690769 169.183364 
L 153.795548 169.047535 
L 153.94224 169.002259 
L 153.963196 168.821154 
L 154.382314 168.549497 
L 154.843344 168.096734 
L 154.948124 167.779801 
L 155.891139 167.145933 
L 156.289302 167.100657 
L 156.373125 166.964828 
L 156.729376 165.832923 
L 156.959891 165.561265 
L 157.043715 165.289608 
L 157.16945 165.199055 
L 157.441877 165.108503 
L 157.441877 165.01795 
L 157.462833 165.01795 
L 159.034526 163.840768 
L 159.139306 163.569111 
L 159.369821 163.433282 
L 159.432688 163.252177 
L 159.4746 163.252177 
L 160.312836 162.573033 
L 160.459528 162.482481 
L 160.522396 162.437205 
L 160.752911 161.758061 
L 161.234897 161.16947 
L 161.234897 161.078917 
L 162.094089 159.72063 
L 162.219824 159.675354 
L 162.576075 159.403697 
L 162.638942 159.403697 
L 163.099973 159.086763 
L 163.330488 158.634001 
L 163.62387 158.588724 
L 163.72865 158.407619 
L 164.001077 158.362343 
L 164.0849 158.090686 
L 164.210636 158.000133 
L 164.210636 157.954857 
L 164.483063 157.502095 
L 164.524974 157.275713 
L 164.65071 157.139885 
L 164.65071 157.004056 
L 165.195564 156.324912 
L 165.342255 156.007979 
L 165.761373 155.645769 
L 165.845197 155.50994 
L 166.599609 154.921349 
L 166.830124 154.513863 
L 167.542625 153.789443 
L 167.815052 153.517786 
L 168.003655 153.427233 
L 168.087479 153.291404 
L 168.758068 152.793366 
L 169.15623 151.978393 
L 169.323878 151.752012 
L 169.638216 151.29925 
L 169.742996 151.29925 
L 171.10513 150.167344 
L 171.188954 149.986239 
L 171.419469 149.940963 
L 171.629028 149.669305 
L 172.593 149.261819 
L 172.613956 149.035438 
L 173.05403 148.809057 
L 173.095942 148.809057 
L 173.158809 148.673228 
L 173.598883 148.401571 
L 173.745575 148.220466 
L 173.97609 148.129913 
L 174.143737 147.994084 
L 175.484915 146.228311 
L 175.505871 146.228311 
L 175.505871 146.183035 
L 175.799254 145.775549 
L 176.847049 145.096405 
L 177.056609 144.598366 
L 177.287124 144.55309 
L 177.622418 144.055052 
L 177.769109 144.055052 
L 178.439699 143.375908 
L 178.670214 143.330632 
L 178.837861 143.013698 
L 178.984552 142.968422 
L 179.194111 142.832593 
L 179.236023 142.787317 
L 179.361759 142.606212 
L 179.738965 142.515659 
L 180.32573 142.017621 
L 180.702937 141.655411 
L 180.954408 141.157372 
L 181.415438 140.568781 
L 181.520217 140.297124 
L 181.708821 140.206571 
L 181.708821 140.161295 
L 182.27463 139.98019 
L 182.337498 139.663256 
L 182.568013 139.436875 
L 182.819484 139.346323 
L 182.84044 139.25577 
L 183.427205 138.621903 
L 183.511029 138.350245 
L 183.65772 138.214417 
L 183.804412 138.123864 
L 184.160662 137.580549 
L 184.265442 137.489997 
L 184.265442 137.444721 
L 184.328309 137.444721 
L 184.621692 137.444721 
L 184.621692 137.354168 
L 184.852207 137.21834 
L 185.04081 137.173063 
L 185.04081 137.082511 
L 185.082722 137.082511 
L 185.585664 136.584472 
L 186.109562 135.995881 
L 186.759195 135.588395 
L 186.968754 135.135633 
L 187.031622 135.090356 
L 187.492652 134.501765 
L 187.534564 134.501765 
L 187.765079 133.913174 
L 187.848902 133.867898 
L 188.666183 133.686793 
L 188.708094 133.505688 
L 189.609199 132.237953 
L 189.609199 132.147401 
L 189.65111 132.147401 
L 190.405523 131.468257 
L 190.447435 131.468257 
L 190.67795 131.287152 
L 190.698906 131.060771 
L 190.719862 131.060771 
L 190.887509 130.970219 
L 191.013245 130.789114 
L 191.055156 130.698561 
L 191.746701 130.10997 
L 192.438246 129.74776 
L 192.647806 129.566655 
L 194.324278 127.438672 
L 194.785308 127.121738 
L 194.890088 126.850081 
L 195.141559 126.759528 
L 195.476853 126.533147 
L 195.85406 126.035108 
L 196.231266 125.53707 
L 196.336046 125.310689 
L 196.587517 125.17486 
L 197.425753 124.540993 
L 197.69818 124.178783 
L 197.928695 124.08823 
L 197.991563 123.952401 
L 198.096342 123.816573 
L 198.138254 123.635468 
L 198.15921 123.635468 
L 198.599284 123.227982 
L 198.787887 122.729943 
L 199.290829 122.277181 
L 199.395609 122.050799 
L 199.500388 121.914971 
L 199.877594 121.552761 
L 199.940462 121.462208 
L 201.155905 120.058645 
L 201.176861 119.922816 
L 201.637891 119.198396 
L 201.931274 119.062568 
L 202.392304 118.700358 
L 202.790466 118.609805 
L 202.958113 118.338148 
L 203.502967 118.111767 
L 203.586791 117.885385 
L 203.670614 117.840109 
L 203.775394 117.704281 
L 204.089732 117.613728 
L 204.194512 117.523176 
L 204.508851 117.115689 
L 204.571718 117.025137 
L 204.781277 116.889308 
L 205.07466 116.436546 
L 205.326131 115.712126 
L 205.514734 115.66685 
L 205.514734 115.621574 
L 205.912897 115.30464 
L 206.248191 115.078259 
L 206.394882 114.716049 
L 206.981648 113.991629 
L 206.981648 113.810524 
L 207.002604 113.810524 
L 208.029443 112.950275 
L 209.307754 111.682541 
L 209.559225 111.501436 
L 209.664004 111.320331 
L 210.208858 111.048673 
L 210.271726 110.912845 
L 210.523197 110.73174 
L 210.753712 110.00732 
L 211.005183 109.962044 
L 211.654816 109.509281 
L 211.780551 109.464005 
L 212.472096 109.101795 
L 212.514008 109.011243 
L 213.457024 108.19627 
L 213.708495 107.83406 
L 213.729451 107.562403 
L 213.813275 107.562403 
L 214.379084 107.336022 
L 215.028717 106.837983 
L 215.238277 106.792707 
L 215.594527 106.430497 
L 215.825042 106.339945 
L 215.845998 106.204116 
L 216.327984 106.023011 
L 216.474675 105.932458 
L 218.276883 104.257238 
L 218.381663 104.166685 
L 218.696002 103.940304 
L 218.842693 103.849751 
L 219.303723 103.215884 
L 219.303723 103.125332 
L 219.701885 102.944227 
L 219.827621 102.89895 
L 219.848577 102.672569 
L 219.9324 102.672569 
L 219.974312 102.627293 
L 221.608873 101.585939 
L 222.069903 101.087901 
L 222.90814 100.816243 
L 223.117699 100.725691 
L 223.117699 100.680415 
L 223.452993 100.408757 
L 223.934979 100.182376 
L 224.081671 100.091824 
L 224.563656 99.639061 
L 224.982775 98.959918 
L 225.045642 98.959918 
L 225.045642 98.869365 
L 225.045642 98.778813 
L 225.087554 98.778813 
L 225.464761 98.642984 
L 225.632408 98.32605 
L 225.904835 98.235498 
L 226.072482 98.054393 
L 226.302997 98.009117 
L 226.470644 97.828012 
L 226.95263 97.556354 
L 227.560352 97.194144 
L 227.665131 96.967763 
L 227.748955 96.877211 
L 228.943442 95.971686 
L 229.048221 95.971686 
L 229.194913 95.654752 
L 229.36256 95.5642 
L 229.36256 95.518923 
L 229.446383 95.518923 
L 229.614031 95.473647 
L 230.012193 94.885056 
L 230.242708 94.885056 
L 230.557047 94.432294 
L 232.044916 93.75315 
L 232.212564 93.707874 
L 232.275431 93.436216 
L 233.553742 93.02873 
L 233.637565 92.892902 
L 237.954483 90.131051 
L 238.038307 89.90467 
L 238.059262 89.90467 
L 238.310733 89.587736 
L 238.436469 89.497184 
L 238.478381 89.316079 
L 238.520292 89.316079 
L 238.771763 89.18025 
L 239.568088 88.727488 
L 239.672868 88.45583 
L 239.798603 88.410554 
L 240.783531 88.003068 
L 241.035002 87.912515 
L 241.055958 87.73141 
L 241.118825 87.73141 
L 241.747503 87.188095 
L 241.936106 86.825886 
L 241.978018 86.735333 
L 242.795298 86.282571 
L 243.423975 86.192018 
L 245.03758 85.512875 
L 245.03758 85.467598 
L 245.079492 85.467598 
L 245.414787 85.33177 
L 245.70817 85.241217 
L 245.791993 85.150665 
L 245.833905 85.014836 
L 246.127288 84.743179 
L 246.232067 84.60735 
L 246.378759 84.516797 
L 246.546406 84.335692 
L 247.489422 83.656549 
L 247.573246 83.656549 
L 247.887584 83.430168 
L 248.01332 83.430168 
L 248.243835 83.15851 
L 248.47435 83.113234 
L 248.47435 83.067958 
L 248.851556 82.43409 
L 249.123983 82.343538 
L 249.123983 82.298262 
L 249.207807 82.298262 
L 249.249718 82.298262 
L 249.794572 82.026604 
L 249.815528 81.709671 
L 250.276558 81.392737 
L 250.402293 81.302184 
L 250.653764 80.985251 
L 250.989059 80.894698 
L 251.24053 80.668317 
L 251.554868 80.623041 
L 251.848251 80.215555 
L 252.958914 79.943897 
L 252.958914 79.853345 
L 253.063694 79.853345 
L 253.189429 79.853345 
L 253.692371 79.174201 
L 253.755239 79.083649 
L 254.321049 78.993096 
L 254.488696 78.630886 
L 254.57252 78.58561 
L 255.3898 78.132848 
L 255.599359 78.087571 
L 255.599359 78.042295 
L 255.808918 77.951743 
L 256.353772 77.49898 
L 256.395684 77.408428 
L 256.437596 77.408428 
L 256.500463 77.363152 
L 256.584287 77.091494 
L 256.856714 76.955665 
L 257.066273 76.865113 
L 257.150096 76.77456 
L 257.171052 76.77456 
L 257.611126 76.457627 
L 257.841641 76.412351 
L 258.135024 76.095417 
L 258.302671 76.095417 
L 258.637966 75.778483 
L 258.700834 75.416273 
L 258.72179 75.416273 
L 259.036128 75.144616 
L 259.098996 74.918235 
L 259.140908 74.918235 
L 259.203776 74.827682 
L 259.329511 74.691854 
L 259.53907 74.510749 
L 259.811497 74.01271 
L 259.853409 74.01271 
L 260.523998 73.469395 
L 260.817381 73.378843 
L 260.817381 73.333566 
L 261.068852 73.197738 
L 261.278411 73.197738 
L 261.676573 72.744975 
L 261.802308 72.654423 
L 261.802308 72.609147 
L 261.886132 72.609147 
L 262.263338 72.518594 
L 262.30525 72.428042 
L 262.347162 72.428042 
L 262.430986 72.292213 
L 262.682457 72.246937 
L 263.457825 71.567793 
L 263.520693 71.567793 
L 263.520693 71.431964 
L 263.604517 71.431964 
L 263.709296 71.386688 
L 263.876944 71.160307 
L 264.170326 71.160307 
L 264.275106 70.662268 
L 265.029519 69.847296 
L 265.17621 69.756743 
L 265.616284 69.43981 
L 265.721064 69.394534 
L 266.09827 69.258705 
L 267.355625 68.534285 
L 267.774743 68.489009 
L 267.858566 68.35318 
L 267.963346 68.262628 
L 268.026214 67.99097 
L 268.277685 67.900418 
L 268.298641 67.809865 
L 268.319596 67.809865 
L 268.592023 67.764589 
L 269.032097 67.492932 
L 269.074009 67.357103 
L 269.304524 67.26655 
L 271.022909 66.315749 
L 271.567762 65.908263 
L 271.986881 65.817711 
L 272.217396 65.727158 
L 272.929897 65.093291 
L 273.01372 65.093291 
L 273.139456 64.957462 
L 273.328059 64.86691 
L 273.726221 64.776357 
L 273.914824 64.595252 
L 274.061516 64.5047 
L 274.061516 64.459423 
L 274.166295 64.459423 
L 276.324754 63.05586 
L 277.16299 62.874755 
L 277.791668 62.829479 
L 277.854535 62.603098 
L 277.875491 62.603098 
L 278.546081 61.742849 
L 278.65086 61.697573 
L 279.6777 61.154258 
L 280.096818 61.063706 
L 280.264465 60.882601 
L 280.453068 60.701496 
L 281.039834 60.339286 
L 281.039834 60.248733 
L 281.102702 60.248733 
L 281.437996 59.750695 
L 281.626599 59.705418 
L 281.773291 59.705418 
L 282.003806 59.479037 
L 282.422924 59.388485 
L 282.862998 59.162104 
L 283.114469 59.116827 
L 283.156381 58.980999 
L 283.240204 58.980999 
L 283.806014 58.709341 
L 284.497559 58.437684 
L 284.665206 58.437684 
L 285.147192 57.984921 
L 285.314839 57.939645 
L 285.440575 57.75854 
L 285.56631 57.713264 
L 286.006384 57.713264 
L 286.257855 57.441606 
L 286.614106 57.351054 
L 286.802709 57.351054 
L 286.802709 57.305778 
L 286.991312 57.215225 
L 287.284695 57.124673 
L 287.284695 57.079397 
L 287.326607 57.079397 
L 287.661901 57.03412 
L 287.745725 56.853015 
L 287.766681 56.853015 
L 287.997196 56.853015 
L 287.997196 56.807739 
L 288.060064 56.626634 
L 288.43727 56.536082 
L 288.8983 56.354977 
L 289.610801 56.264424 
L 289.757492 56.219148 
L 290.365214 56.083319 
L 290.595729 55.992767 
L 291.622568 55.404176 
L 292.104554 55.041966 
L 292.272202 55.041966 
L 293.068526 54.679756 
L 293.236173 54.63448 
L 293.445733 54.498651 
L 293.634336 54.453375 
L 294.724043 54.091165 
L 294.933602 54.000612 
L 295.017426 53.91006 
L 296.316692 53.819507 
L 296.882502 53.366745 
L 297.804562 53.276192 
L 297.804562 53.230916 
L 297.846474 53.230916 
L 298.139856 53.18564 
L 298.32846 53.049811 
L 299.334343 52.642325 
L 299.439123 52.506496 
L 299.648682 52.415944 
L 299.648682 52.370668 
L 299.732505 52.370668 
L 299.858241 52.280115 
L 300.214491 52.053734 
L 300.864125 52.008458 
L 300.906036 51.872629 
L 301.367066 51.7368 
L 301.408978 51.646248 
L 301.471846 51.646248 
L 301.618537 51.465143 
L 301.702361 51.465143 
L 302.0167 50.967104 
L 302.310082 50.921828 
L 302.310082 50.831276 
L 303.127363 50.740723 
L 303.315966 50.695447 
L 303.567437 50.695447 
L 304.007511 50.469066 
L 304.300894 50.423789 
L 304.6781 50.333237 
L 305.034351 50.106856 
L 305.034351 50.016303 
L 305.076263 50.016303 
L 306.082146 49.201331 
L 306.941339 49.110778 
L 307.255677 48.929674 
L 308.848326 48.839121 
L 309.456048 48.703292 
L 309.581783 48.567464 
L 309.875166 48.567464 
L 309.875166 48.341082 
L 309.938034 48.341082 
L 310.357152 48.25053 
L 310.42002 48.159977 
L 310.461931 48.159977 
L 310.67149 47.88832 
L 311.174432 47.797768 
L 311.509727 47.707215 
L 311.677374 47.661939 
L 312.306051 47.52611 
L 313.877745 47.435558 
L 313.898701 47.299729 
L 314.883628 47.209176 
L 315.009364 47.073348 
L 318.739516 46.031994 
L 319.17959 45.941442 
L 319.556796 45.805613 
L 319.954959 45.805613 
L 320.143562 45.669784 
L 320.374077 45.533956 
L 321.296137 45.443403 
L 321.547608 45.307574 
L 321.820035 45.307574 
L 322.134373 44.990641 
L 322.51158 44.854812 
L 322.784006 44.76426 
L 322.784006 44.718983 
L 322.888786 44.718983 
L 323.391728 44.628431 
L 323.454596 44.537878 
L 323.496507 44.537878 
L 323.999449 44.130392 
L 324.3557 44.085116 
L 324.3557 43.994563 
L 324.397612 43.994563 
L 324.690994 43.813459 
L 324.795774 43.813459 
L 324.984377 43.632354 
L 326.430335 43.270144 
L 327.373351 43.179591 
L 327.457174 43.134315 
L 328.337323 43.043762 
L 328.442102 42.907934 
L 331.313062 42.22879 
L 332.08843 42.138238 
L 332.151298 41.957133 
L 332.800931 41.86658 
L 332.821887 41.821304 
L 333.5763 41.730752 
L 333.702036 41.640199 
L 333.827771 41.50437 
L 334.246889 41.413818 
L 334.267845 41.368542 
L 336.195789 41.277989 
L 336.216745 41.232713 
L 336.614907 41.14216 
L 336.992113 41.096884 
L 337.034025 41.006332 
L 337.075937 40.915779 
L 337.536967 40.825227 
L 337.641747 40.779951 
L 338.228512 40.689398 
L 338.228512 40.644122 
L 338.333292 40.644122 
L 340.303147 40.553569 
L 340.386971 40.372464 
L 341.434766 40.327188 
L 341.539546 40.191359 
L 342.063444 40.100807 
L 342.168223 39.964978 
L 342.482562 39.874426 
L 342.482562 39.82915 
L 342.524474 39.82915 
L 343.299842 39.783873 
L 343.383666 39.648045 
L 343.92852 39.557492 
L 344.054255 39.512216 
L 344.473373 39.421663 
L 344.536241 39.285835 
L 344.578153 39.285835 
L 345.479257 39.195282 
L 345.604992 39.150006 
L 346.757567 39.059453 
L 346.841391 38.923625 
L 347.428157 38.833072 
L 347.428157 38.787796 
L 347.491024 38.787796 
L 348.53882 38.697244 
L 348.53882 38.651967 
L 348.643599 38.651967 
L 349.544703 38.561415 
L 349.607571 38.470862 
L 349.628527 38.470862 
L 351.011617 38.38031 
L 351.388824 38.244481 
L 354.050224 38.153929 
L 354.07118 38.108652 
L 357.046919 38.0181 
L 357.046919 37.972824 
L 357.151699 37.972824 
L 358.136627 37.882271 
L 358.136627 37.836995 
L 358.22045 37.836995 
L 364.046193 37.791719 
L 364.046193 37.791719 
" clip-path="url(#p7d227d0029)" style="fill: none; stroke: #2563eb; stroke-width: 2; stroke-linecap: square"/>
   </g>
   <g id="line2d_14">
    <path d="M 59.682557 340.191719 
L 364.046193 37.791719 
" clip-path="url(#p7d227d0029)" style="fill: none; stroke-dasharray: 5.55,2.4; stroke-dashoffset: 0; stroke: #000000; stroke-opacity: 0.3; stroke-width: 1.5"/>
   </g>
   <g id="patch_3">
    <path d="M 44.464375 355.311719 
L 44.464375 22.671719 
" style="fill: none; stroke: #000000; stroke-width: 0.8; stroke-linejoin: miter; stroke-linecap: square"/>
   </g>
   <g id="patch_4">
    <path d="M 44.464375 355.311719 
L 379.264375 355.311719 
" style="fill: none; stroke: #000000; stroke-width: 0.8; stroke-linejoin: miter; stroke-linecap: square"/>
   </g>
   <g id="text_15">
    <!-- ROC Curve: Last Authorship -->
    <g transform="translate(129.85875 16.671719) scale(0.13 -0.13)">
     <defs>
      <path id="ArialMT-4f" d="M 309 2231 
Q 309 3372 921 4017 
Q 1534 4663 2503 4663 
Q 3138 4663 3647 4359 
Q 4156 4056 4423 3514 
Q 4691 2972 4691 2284 
Q 4691 1588 4409 1038 
Q 4128 488 3612 205 
Q 3097 -78 2500 -78 
Q 1853 -78 1343 234 
Q 834 547 571 1087 
Q 309 1628 309 2231 
z
M 934 2222 
Q 934 1394 1379 917 
Q 1825 441 2497 441 
Q 3181 441 3623 922 
Q 4066 1403 4066 2288 
Q 4066 2847 3877 3264 
Q 3688 3681 3323 3911 
Q 2959 4141 2506 4141 
Q 1863 4141 1398 3698 
Q 934 3256 934 2222 
z
" transform="scale(0.015625)"/>
      <path id="ArialMT-43" d="M 3763 1606 
L 4369 1453 
Q 4178 706 3683 314 
Q 3188 -78 2472 -78 
Q 1731 -78 1267 223 
Q 803 525 561 1097 
Q 319 1669 319 2325 
Q 319 3041 592 3573 
Q 866 4106 1370 4382 
Q 1875 4659 2481 4659 
Q 3169 4659 3637 4309 
Q 4106 3959 4291 3325 
L 3694 3184 
Q 3534 3684 3231 3912 
Q 2928 4141 2469 4141 
Q 1941 4141 1586 3887 
Q 1231 3634 1087 3207 
Q 944 2781 944 2328 
Q 944 1744 1114 1308 
Q 1284 872 1643 656 
Q 2003 441 2422 441 
Q 2931 441 3284 734 
Q 3638 1028 3763 1606 
z
" transform="scale(0.015625)"/>
      <path id="ArialMT-3a" d="M 578 2678 
L 578 3319 
L 1219 3319 
L 1219 2678 
L 578 2678 
z
M 578 0 
L 578 641 
L 1219 641 
L 1219 0 
L 578 0 
z
" transform="scale(0.015625)"/>
      <path id="ArialMT-4c" d="M 469 0 
L 469 4581 
L 1075 4581 
L 1075 541 
L 3331 541 
L 3331 0 
L 469 0 
z
" transform="scale(0.015625)"/>
      <path id="ArialMT-41" d="M -9 0 
L 1750 4581 
L 2403 4581 
L 4278 0 
L 3588 0 
L 3053 1388 
L 1138 1388 
L 634 0 
L -9 0 
z
M 1313 1881 
L 2866 1881 
L 2388 3150 
Q 2169 3728 2063 4100 
Q 1975 3659 1816 3225 
L 1313 1881 
z
" transform="scale(0.015625)"/>
      <path id="ArialMT-68" d="M 422 0 
L 422 4581 
L 984 4581 
L 984 2938 
Q 1378 3394 1978 3394 
Q 2347 3394 2619 3248 
Q 2891 3103 3008 2847 
Q 3125 2591 3125 2103 
L 3125 0 
L 2563 0 
L 2563 2103 
Q 2563 2525 2380 2717 
Q 2197 2909 1863 2909 
Q 1613 2909 1392 2779 
Q 1172 2650 1078 2428 
Q 984 2206 984 1816 
L 984 0 
L 422 0 
z
" transform="scale(0.015625)"/>
      <path id="ArialMT-70" d="M 422 -1272 
L 422 3319 
L 934 3319 
L 934 2888 
Q 1116 3141 1344 3267 
Q 1572 3394 1897 3394 
Q 2322 3394 2647 3175 
Q 2972 2956 3137 2557 
Q 3303 2159 3303 1684 
Q 3303 1175 3120 767 
Q 2938 359 2589 142 
Q 2241 -75 1856 -75 
Q 1575 -75 1351 44 
Q 1128 163 984 344 
L 984 -1272 
L 422 -1272 
z
M 931 1641 
Q 931 1000 1190 694 
Q 1450 388 1819 388 
Q 2194 388 2461 705 
Q 2728 1022 2728 1688 
Q 2728 2322 2467 2637 
Q 2206 2953 1844 2953 
Q 1484 2953 1207 2617 
Q 931 2281 931 1641 
z
" transform="scale(0.015625)"/>
     </defs>
     <use xlink:href="#ArialMT-52"/>
     <use xlink:href="#ArialMT-4f" transform="translate(72.216797 0)"/>
     <use xlink:href="#ArialMT-43" transform="translate(150 0)"/>
     <use xlink:href="#ArialMT-20" transform="translate(222.216797 0)"/>
     <use xlink:href="#ArialMT-43" transform="translate(250 0)"/>
     <use xlink:href="#ArialMT-75" transform="translate(322.216797 0)"/>
     <use xlink:href="#ArialMT-72" transform="translate(377.832031 0)"/>
     <use xlink:href="#ArialMT-76" transform="translate(411.132812 0)"/>
     <use xlink:href="#ArialMT-65" transform="translate(461.132812 0)"/>
     <use xlink:href="#ArialMT-3a" transform="translate(516.748047 0)"/>
     <use xlink:href="#ArialMT-20" transform="translate(544.53125 0)"/>
     <use xlink:href="#ArialMT-4c" transform="translate(572.314453 0)"/>
     <use xlink:href="#ArialMT-61" transform="translate(627.929688 0)"/>
     <use xlink:href="#ArialMT-73" transform="translate(683.544922 0)"/>
     <use xlink:href="#ArialMT-74" transform="translate(733.544922 0)"/>
     <use xlink:href="#ArialMT-20" transform="translate(761.328125 0)"/>
     <use xlink:href="#ArialMT-41" transform="translate(783.611328 0)"/>
     <use xlink:href="#ArialMT-75" transform="translate(850.310547 0)"/>
     <use xlink:href="#ArialMT-74" transform="translate(905.925781 0)"/>
     <use xlink:href="#ArialMT-68" transform="translate(933.708984 0)"/>
     <use xlink:href="#ArialMT-6f" transform="translate(989.324219 0)"/>
     <use xlink:href="#ArialMT-72" transform="translate(1044.939453 0)"/>
     <use xlink:href="#ArialMT-73" transform="translate(1078.240234 0)"/>
     <use xlink:href="#ArialMT-68" transform="translate(1128.240234 0)"/>
     <use xlink:href="#ArialMT-69" transform="translate(1183.855469 0)"/>
     <use xlink:href="#ArialMT-70" transform="translate(1206.072266 0)"/>
    </g>
   </g>
   <g id="legend_1">
    <g id="patch_5">
     <path d="M 273.078281 349.811719 
L 371.564375 349.811719 
Q 373.764375 349.811719 373.764375 347.611719 
L 373.764375 333.151875 
Q 373.764375 330.951875 371.564375 330.951875 
L 273.078281 330.951875 
Q 270.878281 330.951875 270.878281 333.151875 
L 270.878281 347.611719 
Q 270.878281 349.811719 273.078281 349.811719 
z
" style="fill: #ffffff; opacity: 0.8; stroke: #cccccc; stroke-linejoin: miter"/>
    </g>
    <g id="line2d_15">
     <path d="M 275.278281 339.375469 
L 286.278281 339.375469 
L 297.278281 339.375469 
" style="fill: none; stroke: #2563eb; stroke-width: 2; stroke-linecap: square"/>
    </g>
    <g id="text_16">
     <!-- AUC = 0.683 -->
     <g transform="translate(306.078281 343.225469) scale(0.11 -0.11)">
      <defs>
       <path id="ArialMT-55" d="M 3500 4581 
L 4106 4581 
L 4106 1934 
Q 4106 1244 3950 837 
Q 3794 431 3386 176 
Q 2978 -78 2316 -78 
Q 1672 -78 1262 144 
Q 853 366 678 786 
Q 503 1206 503 1934 
L 503 4581 
L 1109 4581 
L 1109 1938 
Q 1109 1341 1220 1058 
Q 1331 775 1601 622 
Q 1872 469 2263 469 
Q 2931 469 3215 772 
Q 3500 1075 3500 1938 
L 3500 4581 
z
" transform="scale(0.015625)"/>
       <path id="ArialMT-3d" d="M 3381 2694 
L 356 2694 
L 356 3219 
L 3381 3219 
L 3381 2694 
z
M 3381 1303 
L 356 1303 
L 356 1828 
L 3381 1828 
L 3381 1303 
z
" transform="scale(0.015625)"/>
       <path id="ArialMT-33" d="M 269 1209 
L 831 1284 
Q 928 806 1161 595 
Q 1394 384 1728 384 
Q 2125 384 2398 659 
Q 2672 934 2672 1341 
Q 2672 1728 2419 1979 
Q 2166 2231 1775 2231 
Q 1616 2231 1378 2169 
L 1441 2663 
Q 1497 2656 1531 2656 
Q 1891 2656 2178 2843 
Q 2466 3031 2466 3422 
Q 2466 3731 2256 3934 
Q 2047 4138 1716 4138 
Q 1388 4138 1169 3931 
Q 950 3725 888 3313 
L 325 3413 
Q 428 3978 793 4289 
Q 1159 4600 1703 4600 
Q 2078 4600 2393 4439 
Q 2709 4278 2876 4000 
Q 3044 3722 3044 3409 
Q 3044 3113 2884 2869 
Q 2725 2625 2413 2481 
Q 2819 2388 3044 2092 
Q 3269 1797 3269 1353 
Q 3269 753 2831 336 
Q 2394 -81 1725 -81 
Q 1122 -81 723 278 
Q 325 638 269 1209 
z
" transform="scale(0.015625)"/>
      </defs>
      <use xlink:href="#ArialMT-41"/>
      <use xlink:href="#ArialMT-55" transform="translate(66.699219 0)"/>
      <use xlink:href="#ArialMT-43" transform="translate(138.916016 0)"/>
      <use xlink:href="#ArialMT-20" transform="translate(211.132812 0)"/>
      <use xlink:href="#ArialMT-3d" transform="translate(238.916016 0)"/>
      <use xlink:href="#ArialMT-20" transform="translate(297.314453 0)"/>
      <use xlink:href="#ArialMT-30" transform="translate(325.097656 0)"/>
      <use xlink:href="#ArialMT-2e" transform="translate(380.712891 0)"/>
      <use xlink:href="#ArialMT-36" transform="translate(408.496094 0)"/>
      <use xlink:href="#ArialMT-38" transform="translate(464.111328 0)"/>
      <use xlink:href="#ArialMT-33" transform="translate(519.726562 0)"/>
     </g>
    </g>
   </g>
  </g>
 </g>
 <defs>
  <clipPath id="p7d227d0029">
   <rect x="44.464375" y="22.671719" width="334.8" height="332.64"/>
  </clipPath>
 </defs>
</svg>
