<?xml version="1.0" encoding="utf-8" standalone="no"?>
<!DOCTYPE svg PUBLIC "-//W3C//DTD SVG 1.1//EN"
  "http://www.w3.org/Graphics/SVG/1.1/DTD/svg11.dtd">
<svg xmlns:xlink="http://www.w3.org/1999/xlink" width="386.464375pt" height="394.545937pt" viewBox="0 0 386.464375 394.545937" xmlns="http://www.w3.org/2000/svg" version="1.1">
 <metadata>
  <rdf:RDF xmlns:dc="http://purl.org/dc/elements/1.1/" xmlns:cc="http://creativecommons.org/ns#" xmlns:rdf="http://www.w3.org/1999/02/22-rdf-syntax-ns#">
   <cc:Work>
    <dc:type rdf:resource="http://purl.org/dc/dcmitype/StillImage"/>
    <dc:date>2026-04-13T22:29:51.521698</dc:date>
    <dc:format>image/svg+xml</dc:format>
    <dc:creator>
     <cc:Agent>
      <dc:title>Matplotlib v3.10.8, https://matplotlib.org/</dc:title>
     </cc:Agent>
    </dc:creator>
   </cc:Work>
  </rdf:RDF>
 </metadata>
 <defs>
  <style type="text/css">*{stroke-linejoin: round; stroke-linecap: butt}</style>
 </defs>
 <g id="figure_1">
  <g id="patch_1">
   <path d="M 0 394.545937 
L 386.464375 394.545937 
L 386.464375 0 
L 0 0 
z
" style="fill: #ffffff"/>
  </g>
  <g id="axes_1">
   <g id="patch_2">
    <path d="M 44.464375 355.311719 
L 379.264375 355.311719 
L 379.264375 22.671719 
L 44.464375 22.671719 
z
" style="fill: #ffffff"/>
   </g>
   <g id="matplotlib.axis_1">
    <g id="xtick_1">
     <g id="line2d_1">
      <defs>
       <path id="mdfc0a4b74f" d="M 0 0 
L 0 3.5 
" style="stroke: #000000; stroke-width: 0.8"/>
      </defs>
      <g>
       <use xlink:href="#mdfc0a4b74f" x="59.682557" y="355.311719" style="stroke: #000000; stroke-width: 0.8"/>
      </g>
     </g>
     <g id="text_1">
      <!-- 0.0 -->
      <g transform="translate(52.037557 370.185312) scale(0.11 -0.11)">
       <defs>
        <path id="ArialMT-30" d="M 266 2259 
Q 266 3072 433 3567 
Q 600 4063 929 4331 
Q 1259 4600 1759 4600 
Q 2128 4600 2406 4451 
Q 2684 4303 2865 4023 
Q 3047 3744 3150 3342 
Q 3253 2941 3253 2259 
Q 3253 1453 3087 958 
Q 2922 463 2592 192 
Q 2263 -78 1759 -78 
Q 1097 -78 719 397 
Q 266 969 266 2259 
z
M 844 2259 
Q 844 1131 1108 757 
Q 1372 384 1759 384 
Q 2147 384 2411 759 
Q 2675 1134 2675 2259 
Q 2675 3391 2411 3762 
Q 2147 4134 1753 4134 
Q 1366 4134 1134 3806 
Q 844 3388 844 2259 
z
" transform="scale(0.015625)"/>
        <path id="ArialMT-2e" d="M 581 0 
L 581 641 
L 1222 641 
L 1222 0 
L 581 0 
z
" transform="scale(0.015625)"/>
       </defs>
       <use xlink:href="#ArialMT-30"/>
       <use xlink:href="#ArialMT-2e" transform="translate(55.615234 0)"/>
       <use xlink:href="#ArialMT-30" transform="translate(83.398438 0)"/>
      </g>
     </g>
    </g>
    <g id="xtick_2">
     <g id="line2d_2">
      <g>
       <use xlink:href="#mdfc0a4b74f" x="120.555284" y="355.311719" style="stroke: #000000; stroke-width: 0.8"/>
      </g>
     </g>
     <g id="text_2">
      <!-- 0.2 -->
      <g transform="translate(112.910284 370.185312) scale(0.11 -0.11)">
       <defs>
        <path id="ArialMT-32" d="M 3222 541 
L 3222 0 
L 194 0 
Q 188 203 259 391 
Q 375 700 629 1000 
Q 884 1300 1366 1694 
Q 2113 2306 2375 2664 
Q 2638 3022 2638 3341 
Q 2638 3675 2398 3904 
Q 2159 4134 1775 4134 
Q 1369 4134 1125 3890 
Q 881 3647 878 3216 
L 300 3275 
Q 359 3922 746 4261 
Q 1134 4600 1788 4600 
Q 2447 4600 2831 4234 
Q 3216 3869 3216 3328 
Q 3216 3053 3103 2787 
Q 2991 2522 2730 2228 
Q 2469 1934 1863 1422 
Q 1356 997 1212 845 
Q 1069 694 975 541 
L 3222 541 
z
" transform="scale(0.015625)"/>
       </defs>
       <use xlink:href="#ArialMT-30"/>
       <use xlink:href="#ArialMT-2e" transform="translate(55.615234 0)"/>
       <use xlink:href="#ArialMT-32" transform="translate(83.398438 0)"/>
      </g>
     </g>
    </g>
    <g id="xtick_3">
     <g id="line2d_3">
      <g>
       <use xlink:href="#mdfc0a4b74f" x="181.428011" y="355.311719" style="stroke: #000000; stroke-width: 0.8"/>
      </g>
     </g>
     <g id="text_3">
      <!-- 0.4 -->
      <g transform="translate(173.783011 370.185312) scale(0.11 -0.11)">
       <defs>
        <path id="ArialMT-34" d="M 2069 0 
L 2069 1097 
L 81 1097 
L 81 1613 
L 2172 4581 
L 2631 4581 
L 2631 1613 
L 3250 1613 
L 3250 1097 
L 2631 1097 
L 2631 0 
L 2069 0 
z
M 2069 1613 
L 2069 3678 
L 634 1613 
L 2069 1613 
z
" transform="scale(0.015625)"/>
       </defs>
       <use xlink:href="#ArialMT-30"/>
       <use xlink:href="#ArialMT-2e" transform="translate(55.615234 0)"/>
       <use xlink:href="#ArialMT-34" transform="translate(83.398438 0)"/>
      </g>
     </g>
    </g>
    <g id="xtick_4">
     <g id="line2d_4">
      <g>
       <use xlink:href="#mdfc0a4b74f" x="242.300739" y="355.311719" style="stroke: #000000; stroke-width: 0.8"/>
      </g>
     </g>
     <g id="text_4">
      <!-- 0.6 -->
      <g transform="translate(234.655739 370.185312) scale(0.11 -0.11)">
       <defs>
        <path id="ArialMT-36" d="M 3184 3459 
L 2625 3416 
Q 2550 3747 2413 3897 
Q 2184 4138 1850 4138 
Q 1581 4138 1378 3988 
Q 1113 3794 959 3422 
Q 806 3050 800 2363 
Q 1003 2672 1297 2822 
Q 1591 2972 1913 2972 
Q 2475 2972 2870 2558 
Q 3266 2144 3266 1488 
Q 3266 1056 3080 686 
Q 2894 316 2569 119 
Q 2244 -78 1831 -78 
Q 1128 -78 684 439 
Q 241 956 241 2144 
Q 241 3472 731 4075 
Q 1159 4600 1884 4600 
Q 2425 4600 2770 4297 
Q 3116 3994 3184 3459 
z
M 888 1484 
Q 888 1194 1011 928 
Q 1134 663 1356 523 
Q 1578 384 1822 384 
Q 2178 384 2434 671 
Q 2691 959 2691 1453 
Q 2691 1928 2437 2201 
Q 2184 2475 1800 2475 
Q 1419 2475 1153 2201 
Q 888 1928 888 1484 
z
" transform="scale(0.015625)"/>
       </defs>
       <use xlink:href="#ArialMT-30"/>
       <use xlink:href="#ArialMT-2e" transform="translate(55.615234 0)"/>
       <use xlink:href="#ArialMT-36" transform="translate(83.398438 0)"/>
      </g>
     </g>
    </g>
    <g id="xtick_5">
     <g id="line2d_5">
      <g>
       <use xlink:href="#mdfc0a4b74f" x="303.173466" y="355.311719" style="stroke: #000000; stroke-width: 0.8"/>
      </g>
     </g>
     <g id="text_5">
      <!-- 0.8 -->
      <g transform="translate(295.528466 370.185312) scale(0.11 -0.11)">
       <defs>
        <path id="ArialMT-38" d="M 1131 2484 
Q 781 2613 612 2850 
Q 444 3088 444 3419 
Q 444 3919 803 4259 
Q 1163 4600 1759 4600 
Q 2359 4600 2725 4251 
Q 3091 3903 3091 3403 
Q 3091 3084 2923 2848 
Q 2756 2613 2416 2484 
Q 2838 2347 3058 2040 
Q 3278 1734 3278 1309 
Q 3278 722 2862 322 
Q 2447 -78 1769 -78 
Q 1091 -78 675 323 
Q 259 725 259 1325 
Q 259 1772 486 2073 
Q 713 2375 1131 2484 
z
M 1019 3438 
Q 1019 3113 1228 2906 
Q 1438 2700 1772 2700 
Q 2097 2700 2305 2904 
Q 2513 3109 2513 3406 
Q 2513 3716 2298 3927 
Q 2084 4138 1766 4138 
Q 1444 4138 1231 3931 
Q 1019 3725 1019 3438 
z
M 838 1322 
Q 838 1081 952 856 
Q 1066 631 1291 507 
Q 1516 384 1775 384 
Q 2178 384 2440 643 
Q 2703 903 2703 1303 
Q 2703 1709 2433 1975 
Q 2163 2241 1756 2241 
Q 1359 2241 1098 1978 
Q 838 1716 838 1322 
z
" transform="scale(0.015625)"/>
       </defs>
       <use xlink:href="#ArialMT-30"/>
       <use xlink:href="#ArialMT-2e" transform="translate(55.615234 0)"/>
       <use xlink:href="#ArialMT-38" transform="translate(83.398438 0)"/>
      </g>
     </g>
    </g>
    <g id="xtick_6">
     <g id="line2d_6">
      <g>
       <use xlink:href="#mdfc0a4b74f" x="364.046193" y="355.311719" style="stroke: #000000; stroke-width: 0.8"/>
      </g>
     </g>
     <g id="text_6">
      <!-- 1.0 -->
      <g transform="translate(356.401193 370.185312) scale(0.11 -0.11)">
       <defs>
        <path id="ArialMT-31" d="M 2384 0 
L 1822 0 
L 1822 3584 
Q 1619 3391 1289 3197 
Q 959 3003 697 2906 
L 697 3450 
Q 1169 3672 1522 3987 
Q 1875 4303 2022 4600 
L 2384 4600 
L 2384 0 
z
" transform="scale(0.015625)"/>
       </defs>
       <use xlink:href="#ArialMT-31"/>
       <use xlink:href="#ArialMT-2e" transform="translate(55.615234 0)"/>
       <use xlink:href="#ArialMT-30" transform="translate(83.398438 0)"/>
      </g>
     </g>
    </g>
    <g id="text_7">
     <!-- False Positive Rate -->
     <g transform="translate(160.178125 384.960937) scale(0.12 -0.12)">
      <defs>
       <path id="ArialMT-46" d="M 525 0 
L 525 4581 
L 3616 4581 
L 3616 4041 
L 1131 4041 
L 1131 2622 
L 3281 2622 
L 3281 2081 
L 1131 2081 
L 1131 0 
L 525 0 
z
" transform="scale(0.015625)"/>
       <path id="ArialMT-61" d="M 2588 409 
Q 2275 144 1986 34 
Q 1697 -75 1366 -75 
Q 819 -75 525 192 
Q 231 459 231 875 
Q 231 1119 342 1320 
Q 453 1522 633 1644 
Q 813 1766 1038 1828 
Q 1203 1872 1538 1913 
Q 2219 1994 2541 2106 
Q 2544 2222 2544 2253 
Q 2544 2597 2384 2738 
Q 2169 2928 1744 2928 
Q 1347 2928 1158 2789 
Q 969 2650 878 2297 
L 328 2372 
Q 403 2725 575 2942 
Q 747 3159 1072 3276 
Q 1397 3394 1825 3394 
Q 2250 3394 2515 3294 
Q 2781 3194 2906 3042 
Q 3031 2891 3081 2659 
Q 3109 2516 3109 2141 
L 3109 1391 
Q 3109 606 3145 398 
Q 3181 191 3288 0 
L 2700 0 
Q 2613 175 2588 409 
z
M 2541 1666 
Q 2234 1541 1622 1453 
Q 1275 1403 1131 1340 
Q 988 1278 909 1158 
Q 831 1038 831 891 
Q 831 666 1001 516 
Q 1172 366 1500 366 
Q 1825 366 2078 508 
Q 2331 650 2450 897 
Q 2541 1088 2541 1459 
L 2541 1666 
z
" transform="scale(0.015625)"/>
       <path id="ArialMT-6c" d="M 409 0 
L 409 4581 
L 972 4581 
L 972 0 
L 409 0 
z
" transform="scale(0.015625)"/>
       <path id="ArialMT-73" d="M 197 991 
L 753 1078 
Q 800 744 1014 566 
Q 1228 388 1613 388 
Q 2000 388 2187 545 
Q 2375 703 2375 916 
Q 2375 1106 2209 1216 
Q 2094 1291 1634 1406 
Q 1016 1563 777 1677 
Q 538 1791 414 1992 
Q 291 2194 291 2438 
Q 291 2659 392 2848 
Q 494 3038 669 3163 
Q 800 3259 1026 3326 
Q 1253 3394 1513 3394 
Q 1903 3394 2198 3281 
Q 2494 3169 2634 2976 
Q 2775 2784 2828 2463 
L 2278 2388 
Q 2241 2644 2061 2787 
Q 1881 2931 1553 2931 
Q 1166 2931 1000 2803 
Q 834 2675 834 2503 
Q 834 2394 903 2306 
Q 972 2216 1119 2156 
Q 1203 2125 1616 2013 
Q 2213 1853 2448 1751 
Q 2684 1650 2818 1456 
Q 2953 1263 2953 975 
Q 2953 694 2789 445 
Q 2625 197 2315 61 
Q 2006 -75 1616 -75 
Q 969 -75 630 194 
Q 291 463 197 991 
z
" transform="scale(0.015625)"/>
       <path id="ArialMT-65" d="M 2694 1069 
L 3275 997 
Q 3138 488 2766 206 
Q 2394 -75 1816 -75 
Q 1088 -75 661 373 
Q 234 822 234 1631 
Q 234 2469 665 2931 
Q 1097 3394 1784 3394 
Q 2450 3394 2872 2941 
Q 3294 2488 3294 1666 
Q 3294 1616 3291 1516 
L 816 1516 
Q 847 969 1125 678 
Q 1403 388 1819 388 
Q 2128 388 2347 550 
Q 2566 713 2694 1069 
z
M 847 1978 
L 2700 1978 
Q 2663 2397 2488 2606 
Q 2219 2931 1791 2931 
Q 1403 2931 1139 2672 
Q 875 2413 847 1978 
z
" transform="scale(0.015625)"/>
       <path id="ArialMT-20" transform="scale(0.015625)"/>
       <path id="ArialMT-50" d="M 494 0 
L 494 4581 
L 2222 4581 
Q 2678 4581 2919 4538 
Q 3256 4481 3484 4323 
Q 3713 4166 3852 3881 
Q 3991 3597 3991 3256 
Q 3991 2672 3619 2267 
Q 3247 1863 2275 1863 
L 1100 1863 
L 1100 0 
L 494 0 
z
M 1100 2403 
L 2284 2403 
Q 2872 2403 3119 2622 
Q 3366 2841 3366 3238 
Q 3366 3525 3220 3729 
Q 3075 3934 2838 4000 
Q 2684 4041 2272 4041 
L 1100 4041 
L 1100 2403 
z
" transform="scale(0.015625)"/>
       <path id="ArialMT-6f" d="M 213 1659 
Q 213 2581 725 3025 
Q 1153 3394 1769 3394 
Q 2453 3394 2887 2945 
Q 3322 2497 3322 1706 
Q 3322 1066 3130 698 
Q 2938 331 2570 128 
Q 2203 -75 1769 -75 
Q 1072 -75 642 372 
Q 213 819 213 1659 
z
M 791 1659 
Q 791 1022 1069 705 
Q 1347 388 1769 388 
Q 2188 388 2466 706 
Q 2744 1025 2744 1678 
Q 2744 2294 2464 2611 
Q 2184 2928 1769 2928 
Q 1347 2928 1069 2612 
Q 791 2297 791 1659 
z
" transform="scale(0.015625)"/>
       <path id="ArialMT-69" d="M 425 3934 
L 425 4581 
L 988 4581 
L 988 3934 
L 425 3934 
z
M 425 0 
L 425 3319 
L 988 3319 
L 988 0 
L 425 0 
z
" transform="scale(0.015625)"/>
       <path id="ArialMT-74" d="M 1650 503 
L 1731 6 
Q 1494 -44 1306 -44 
Q 1000 -44 831 53 
Q 663 150 594 308 
Q 525 466 525 972 
L 525 2881 
L 113 2881 
L 113 3319 
L 525 3319 
L 525 4141 
L 1084 4478 
L 1084 3319 
L 1650 3319 
L 1650 2881 
L 1084 2881 
L 1084 941 
Q 1084 700 1114 631 
Q 1144 563 1211 522 
Q 1278 481 1403 481 
Q 1497 481 1650 503 
z
" transform="scale(0.015625)"/>
       <path id="ArialMT-76" d="M 1344 0 
L 81 3319 
L 675 3319 
L 1388 1331 
Q 1503 1009 1600 663 
Q 1675 925 1809 1294 
L 2547 3319 
L 3125 3319 
L 1869 0 
L 1344 0 
z
" transform="scale(0.015625)"/>
       <path id="ArialMT-52" d="M 503 0 
L 503 4581 
L 2534 4581 
Q 3147 4581 3465 4457 
Q 3784 4334 3975 4021 
Q 4166 3709 4166 3331 
Q 4166 2844 3850 2509 
Q 3534 2175 2875 2084 
Q 3116 1969 3241 1856 
Q 3506 1613 3744 1247 
L 4541 0 
L 3778 0 
L 3172 953 
Q 2906 1366 2734 1584 
Q 2563 1803 2427 1890 
Q 2291 1978 2150 2013 
Q 2047 2034 1813 2034 
L 1109 2034 
L 1109 0 
L 503 0 
z
M 1109 2559 
L 2413 2559 
Q 2828 2559 3062 2645 
Q 3297 2731 3419 2920 
Q 3541 3109 3541 3331 
Q 3541 3656 3305 3865 
Q 3069 4075 2559 4075 
L 1109 4075 
L 1109 2559 
z
" transform="scale(0.015625)"/>
      </defs>
      <use xlink:href="#ArialMT-46"/>
      <use xlink:href="#ArialMT-61" transform="translate(61.083984 0)"/>
      <use xlink:href="#ArialMT-6c" transform="translate(116.699219 0)"/>
      <use xlink:href="#ArialMT-73" transform="translate(138.916016 0)"/>
      <use xlink:href="#ArialMT-65" transform="translate(188.916016 0)"/>
      <use xlink:href="#ArialMT-20" transform="translate(244.53125 0)"/>
      <use xlink:href="#ArialMT-50" transform="translate(272.314453 0)"/>
      <use xlink:href="#ArialMT-6f" transform="translate(339.013672 0)"/>
      <use xlink:href="#ArialMT-73" transform="translate(394.628906 0)"/>
      <use xlink:href="#ArialMT-69" transform="translate(444.628906 0)"/>
      <use xlink:href="#ArialMT-74" transform="translate(466.845703 0)"/>
      <use xlink:href="#ArialMT-69" transform="translate(494.628906 0)"/>
      <use xlink:href="#ArialMT-76" transform="translate(516.845703 0)"/>
      <use xlink:href="#ArialMT-65" transform="translate(566.845703 0)"/>
      <use xlink:href="#ArialMT-20" transform="translate(622.460938 0)"/>
      <use xlink:href="#ArialMT-52" transform="translate(650.244141 0)"/>
      <use xlink:href="#ArialMT-61" transform="translate(722.460938 0)"/>
      <use xlink:href="#ArialMT-74" transform="translate(778.076172 0)"/>
      <use xlink:href="#ArialMT-65" transform="translate(805.859375 0)"/>
     </g>
    </g>
   </g>
   <g id="matplotlib.axis_2">
    <g id="ytick_1">
     <g id="line2d_7">
      <defs>
       <path id="m35bd087017" d="M 0 0 
L -3.5 0 
" style="stroke: #000000; stroke-width: 0.8"/>
      </defs>
      <g>
       <use xlink:href="#m35bd087017" x="44.464375" y="340.191719" style="stroke: #000000; stroke-width: 0.8"/>
      </g>
     </g>
     <g id="text_8">
      <!-- 0.0 -->
      <g transform="translate(22.174375 344.128516) scale(0.11 -0.11)">
       <use xlink:href="#ArialMT-30"/>
       <use xlink:href="#ArialMT-2e" transform="translate(55.615234 0)"/>
       <use xlink:href="#ArialMT-30" transform="translate(83.398438 0)"/>
      </g>
     </g>
    </g>
    <g id="ytick_2">
     <g id="line2d_8">
      <g>
       <use xlink:href="#m35bd087017" x="44.464375" y="279.711719" style="stroke: #000000; stroke-width: 0.8"/>
      </g>
     </g>
     <g id="text_9">
      <!-- 0.2 -->
      <g transform="translate(22.174375 283.648516) scale(0.11 -0.11)">
       <use xlink:href="#ArialMT-30"/>
       <use xlink:href="#ArialMT-2e" transform="translate(55.615234 0)"/>
       <use xlink:href="#ArialMT-32" transform="translate(83.398438 0)"/>
      </g>
     </g>
    </g>
    <g id="ytick_3">
     <g id="line2d_9">
      <g>
       <use xlink:href="#m35bd087017" x="44.464375" y="219.231719" style="stroke: #000000; stroke-width: 0.8"/>
      </g>
     </g>
     <g id="text_10">
      <!-- 0.4 -->
      <g transform="translate(22.174375 223.168516) scale(0.11 -0.11)">
       <use xlink:href="#ArialMT-30"/>
       <use xlink:href="#ArialMT-2e" transform="translate(55.615234 0)"/>
       <use xlink:href="#ArialMT-34" transform="translate(83.398438 0)"/>
      </g>
     </g>
    </g>
    <g id="ytick_4">
     <g id="line2d_10">
      <g>
       <use xlink:href="#m35bd087017" x="44.464375" y="158.751719" style="stroke: #000000; stroke-width: 0.8"/>
      </g>
     </g>
     <g id="text_11">
      <!-- 0.6 -->
      <g transform="translate(22.174375 162.688516) scale(0.11 -0.11)">
       <use xlink:href="#ArialMT-30"/>
       <use xlink:href="#ArialMT-2e" transform="translate(55.615234 0)"/>
       <use xlink:href="#ArialMT-36" transform="translate(83.398438 0)"/>
      </g>
     </g>
    </g>
    <g id="ytick_5">
     <g id="line2d_11">
      <g>
       <use xlink:href="#m35bd087017" x="44.464375" y="98.271719" style="stroke: #000000; stroke-width: 0.8"/>
      </g>
     </g>
     <g id="text_12">
      <!-- 0.8 -->
      <g transform="translate(22.174375 102.208516) scale(0.11 -0.11)">
       <use xlink:href="#ArialMT-30"/>
       <use xlink:href="#ArialMT-2e" transform="translate(55.615234 0)"/>
       <use xlink:href="#ArialMT-38" transform="translate(83.398438 0)"/>
      </g>
     </g>
    </g>
    <g id="ytick_6">
     <g id="line2d_12">
      <g>
       <use xlink:href="#m35bd087017" x="44.464375" y="37.791719" style="stroke: #000000; stroke-width: 0.8"/>
      </g>
     </g>
     <g id="text_13">
      <!-- 1.0 -->
      <g transform="translate(22.174375 41.728516) scale(0.11 -0.11)">
       <use xlink:href="#ArialMT-31"/>
       <use xlink:href="#ArialMT-2e" transform="translate(55.615234 0)"/>
       <use xlink:href="#ArialMT-30" transform="translate(83.398438 0)"/>
      </g>
     </g>
    </g>
    <g id="text_14">
     <!-- True Positive Rate -->
     <g transform="translate(15.789375 238.117656) rotate(-90) scale(0.12 -0.12)">
      <defs>
       <path id="ArialMT-54" d="M 1659 0 
L 1659 4041 
L 150 4041 
L 150 4581 
L 3781 4581 
L 3781 4041 
L 2266 4041 
L 2266 0 
L 1659 0 
z
" transform="scale(0.015625)"/>
       <path id="ArialMT-72" d="M 416 0 
L 416 3319 
L 922 3319 
L 922 2816 
Q 1116 3169 1280 3281 
Q 1444 3394 1641 3394 
Q 1925 3394 2219 3213 
L 2025 2691 
Q 1819 2813 1613 2813 
Q 1428 2813 1281 2702 
Q 1134 2591 1072 2394 
Q 978 2094 978 1738 
L 978 0 
L 416 0 
z
" transform="scale(0.015625)"/>
       <path id="ArialMT-75" d="M 2597 0 
L 2597 488 
Q 2209 -75 1544 -75 
Q 1250 -75 995 37 
Q 741 150 617 320 
Q 494 491 444 738 
Q 409 903 409 1263 
L 409 3319 
L 972 3319 
L 972 1478 
Q 972 1038 1006 884 
Q 1059 663 1231 536 
Q 1403 409 1656 409 
Q 1909 409 2131 539 
Q 2353 669 2445 892 
Q 2538 1116 2538 1541 
L 2538 3319 
L 3100 3319 
L 3100 0 
L 2597 0 
z
" transform="scale(0.015625)"/>
      </defs>
      <use xlink:href="#ArialMT-54"/>
      <use xlink:href="#ArialMT-72" transform="translate(57.333984 0)"/>
      <use xlink:href="#ArialMT-75" transform="translate(90.634766 0)"/>
      <use xlink:href="#ArialMT-65" transform="translate(146.25 0)"/>
      <use xlink:href="#ArialMT-20" transform="translate(201.865234 0)"/>
      <use xlink:href="#ArialMT-50" transform="translate(229.648438 0)"/>
      <use xlink:href="#ArialMT-6f" transform="translate(296.347656 0)"/>
      <use xlink:href="#ArialMT-73" transform="translate(351.962891 0)"/>
      <use xlink:href="#ArialMT-69" transform="translate(401.962891 0)"/>
      <use xlink:href="#ArialMT-74" transform="translate(424.179688 0)"/>
      <use xlink:href="#ArialMT-69" transform="translate(451.962891 0)"/>
      <use xlink:href="#ArialMT-76" transform="translate(474.179688 0)"/>
      <use xlink:href="#ArialMT-65" transform="translate(524.179688 0)"/>
      <use xlink:href="#ArialMT-20" transform="translate(579.794922 0)"/>
      <use xlink:href="#ArialMT-52" transform="translate(607.578125 0)"/>
      <use xlink:href="#ArialMT-61" transform="translate(679.794922 0)"/>
      <use xlink:href="#ArialMT-74" transform="translate(735.410156 0)"/>
      <use xlink:href="#ArialMT-65" transform="translate(763.193359 0)"/>
     </g>
    </g>
   </g>
   <g id="line2d_13">
    <path d="M 59.682557 340.191719 
L 59.758288 339.530446 
L 59.960238 339.299001 
L 60.1117 338.736919 
L 60.136944 338.736919 
L 60.591331 337.282119 
L 61.272912 336.554719 
L 61.474862 335.761192 
L 61.878761 334.637028 
L 62.00498 334.008819 
L 62.509854 332.520956 
L 62.686561 331.694365 
L 62.711804 331.56211 
L 62.762292 330.933901 
L 62.787535 330.933901 
L 63.191435 329.941992 
L 63.216679 329.578292 
L 63.570091 328.917019 
L 63.797285 328.685574 
L 63.873016 328.024301 
L 64.605084 326.139674 
L 64.680815 326.00742 
L 64.857521 325.412274 
L 64.958496 325.379211 
L 65.311908 323.792156 
L 65.412883 323.230074 
L 65.463371 323.230074 
L 65.564346 322.965565 
L 66.422632 320.981747 
L 66.649826 320.155156 
L 68.113962 316.683475 
L 68.618837 316.088329 
L 69.527611 313.906129 
L 69.603342 313.806939 
L 69.679073 313.476302 
L 69.754805 313.476302 
L 70.486873 312.021502 
L 70.562604 312.021502 
L 70.991747 311.426357 
L 71.042235 310.99653 
L 71.471378 309.806239 
L 72.127715 308.880457 
L 72.506371 307.855484 
L 73.71807 304.714439 
L 73.768557 304.44993 
L 74.020995 304.119294 
L 74.172457 303.689466 
L 74.197701 303.391894 
L 74.525869 302.499176 
L 74.677332 302.102412 
L 74.702575 302.069348 
L 75.0055 301.441139 
L 75.055988 301.375012 
L 75.106475 301.242757 
L 75.384156 300.548421 
L 75.586106 299.754894 
L 75.712325 299.325067 
L 76.065737 299.060558 
L 76.065737 298.961367 
L 76.242443 298.696858 
L 76.343418 297.969458 
L 76.368661 297.771076 
L 76.469636 297.473503 
L 76.49488 297.473503 
L 77.479386 294.861476 
L 78.640597 293.671185 
L 78.766816 293.538931 
L 79.170715 292.513958 
L 79.397909 292.018003 
L 80.155221 290.926904 
L 80.357171 290.430949 
L 80.432902 290.364822 
L 80.432902 290.331758 
L 80.786314 289.571295 
L 80.988264 288.843895 
L 81.240701 288.579385 
L 82.603862 285.537531 
L 82.629106 285.471404 
L 82.982518 284.644813 
L 83.487393 283.851286 
L 83.512637 283.652904 
L 84.067999 282.89244 
L 84.093242 282.462613 
L 84.497142 281.80134 
L 84.850554 281.305386 
L 85.380673 279.354631 
L 85.683597 278.858677 
L 85.936035 278.263532 
L 86.011766 277.833704 
L 86.163228 277.833704 
L 86.289447 277.668386 
L 86.390422 277.436941 
L 86.592372 277.238559 
L 86.693346 276.874859 
L 86.743834 276.808732 
L 87.955533 274.42815 
L 88.738088 273.270923 
L 88.81382 273.072541 
L 89.192476 272.113696 
L 89.268207 272.014505 
L 89.268207 271.981441 
L 89.293451 271.981441 
L 90.000275 270.824214 
L 90.429418 270.526641 
L 90.732343 270.06375 
L 91.363436 268.377505 
L 91.363436 268.311378 
L 91.868311 267.088023 
L 92.575135 264.773569 
L 94.089759 262.459114 
L 94.417927 262.062351 
L 94.417927 261.897033 
L 94.872315 260.607551 
L 94.922802 260.442233 
L 94.948046 260.442233 
L 96.487913 257.334251 
L 96.614132 257.23506 
L 96.639376 257.102806 
L 96.664619 257.102806 
L 96.967544 256.14396 
L 97.068519 256.044769 
L 97.194738 255.614942 
L 97.320956 255.548815 
L 97.396687 255.152051 
L 97.649125 254.259333 
L 98.280218 253.300488 
L 98.911311 252.473897 
L 99.012286 252.374706 
L 99.012286 252.341642 
L 99.315211 251.41586 
L 99.668623 251.019097 
L 99.946304 250.622333 
L 100.022035 250.622333 
L 100.274472 250.192506 
L 100.52691 249.927997 
L 101.031784 248.704642 
L 101.031784 248.539324 
L 101.662878 248.109497 
L 101.738609 247.67967 
L 102.117265 247.084524 
L 102.21824 246.621633 
L 102.268727 246.58857 
L 102.293971 246.191806 
L 102.470677 246.191806 
L 102.470677 246.125679 
L 103.10177 244.935388 
L 104.212494 243.282206 
L 104.490175 242.786252 
L 104.666881 242.786252 
L 105.323218 241.728216 
L 105.348462 241.562897 
L 105.67663 241.232261 
L 105.777605 240.835497 
L 106.68638 239.31457 
L 107.115523 238.851679 
L 107.721372 237.892834 
L 107.948566 237.727516 
L 108.049541 237.231561 
L 108.428197 236.867861 
L 108.85734 236.140461 
L 109.135021 235.644507 
L 109.589408 234.917107 
L 109.589408 234.817916 
L 109.614652 234.817916 
L 109.993308 233.892134 
L 110.245745 233.39618 
L 110.321476 233.330052 
L 110.321476 233.263925 
L 110.34672 233.263925 
L 110.775864 232.834098 
L 111.028301 232.503462 
L 111.053545 232.503462 
L 111.053545 232.371207 
L 111.129276 232.371207 
L 111.533175 232.106698 
L 112.088538 231.180916 
L 112.189512 230.684962 
L 112.6439 230.023689 
L 112.6439 229.891434 
L 112.719631 229.891434 
L 113.12353 229.329353 
L 113.174018 229.064844 
L 113.199262 229.064844 
L 113.32548 228.701144 
L 113.426455 228.535825 
L 113.502186 228.535825 
L 113.502186 228.469698 
L 114.486692 226.84958 
L 114.587667 226.618135 
L 114.739129 226.518944 
L 114.840104 226.188307 
L 114.890591 226.188307 
L 114.890591 226.155244 
L 116.278996 223.57628 
L 116.985821 222.286799 
L 117.061552 222.12148 
L 117.11204 222.12148 
L 117.162527 221.989226 
L 117.364477 221.790844 
L 117.440208 221.65859 
L 117.79362 220.898126 
L 118.046057 220.732808 
L 118.39947 220.104599 
L 119.232513 218.649799 
L 119.48495 218.38529 
L 119.636412 218.219972 
L 120.696649 216.401472 
L 121.125792 216.136963 
L 121.201524 215.83939 
L 121.504448 215.707135 
L 121.883104 214.847481 
L 122.26176 214.417654 
L 122.337491 214.252335 
L 122.488954 214.153145 
L 122.943341 213.557999 
L 123.221022 212.830599 
L 123.498703 212.731408 
L 124.054065 211.243545 
L 124.104552 211.243545 
L 124.331746 210.879845 
L 124.432721 210.681463 
L 124.558939 210.350827 
L 125.391983 209.425045 
L 125.492957 209.226663 
L 125.518201 209.226663 
L 125.745395 208.763772 
L 125.795882 208.730708 
L 125.795882 208.664581 
L 126.124051 207.738799 
L 126.174538 207.47429 
L 126.225026 207.47429 
L 126.250269 207.408163 
L 126.351244 207.275909 
L 126.704656 206.317063 
L 126.856119 206.151745 
L 126.982337 205.986427 
L 127.083312 205.953363 
L 127.436725 205.490472 
L 127.461968 205.424345 
L 127.966843 205.093709 
L 128.471717 204.696945 
L 128.572692 204.597754 
L 128.597936 204.366309 
L 128.648423 204.366309 
L 129.203786 203.3744 
L 129.456223 203.076827 
L 129.683416 203.0107 
L 130.011585 202.713127 
L 130.339753 201.853473 
L 130.465972 201.787345 
L 130.566947 201.5559 
L 130.592191 201.5559 
L 130.592191 201.456709 
L 130.592191 201.357518 
L 130.768897 200.630118 
L 131.147553 200.233354 
L 131.324259 199.340636 
L 131.627183 198.943873 
L 131.728158 198.613236 
L 132.106814 197.852773 
L 132.157302 197.786645 
L 132.157302 197.753582 
L 132.258277 197.588264 
L 132.864126 196.530227 
L 132.864126 196.364909 
L 133.873875 194.877046 
L 133.899119 194.877046 
L 133.899119 194.810918 
L 134.075825 194.678664 
L 134.1768 194.348028 
L 134.807893 193.653691 
L 135.009843 193.5545 
L 135.060331 193.455309 
L 135.489474 192.727909 
L 135.640936 192.628719 
L 135.716668 192.430337 
L 136.398248 191.405364 
L 136.473979 191.107791 
L 136.802148 191.0086 
L 136.903123 190.777155 
L 137.029341 190.479582 
L 137.180804 190.446519 
L 137.180804 190.413455 
L 137.534216 189.917501 
L 137.55946 189.884437 
L 137.811897 189.619928 
L 138.215797 189.223164 
L 138.291528 188.760273 
L 138.44299 188.198192 
L 138.695428 187.702237 
L 138.796402 187.536919 
L 138.922621 187.470792 
L 139.93237 185.486974 
L 140.689682 184.924892 
L 140.790657 184.693446 
L 140.841144 184.693446 
L 141.346019 183.602346 
L 141.547969 183.337837 
L 141.547969 183.304774 
L 142.381012 181.783846 
L 143.845148 180.72581 
L 143.895636 180.527428 
L 143.920879 180.527428 
L 144.375266 179.800028 
L 146.470496 177.551701 
L 146.697689 177.419447 
L 146.748177 177.287192 
L 147.152077 176.989619 
L 147.227808 176.824301 
L 147.884145 176.295283 
L 148.035607 176.229156 
L 148.212313 175.931583 
L 148.439507 175.865456 
L 149.95413 174.046956 
L 150.080349 174.046956 
L 150.307543 173.749383 
L 150.888148 172.526029 
L 151.090098 172.228456 
L 151.292048 171.864756 
L 151.544485 171.732502 
L 151.594973 171.567183 
L 151.620217 171.567183 
L 151.670704 171.567183 
L 151.796923 171.269611 
L 152.024116 171.269611 
L 152.024116 171.203483 
L 152.074604 171.104293 
L 152.125091 171.104293 
L 152.226066 171.038165 
L 152.301797 170.773656 
L 152.554235 170.641402 
L 152.629966 170.277702 
L 152.680453 170.277702 
L 152.756184 170.013193 
L 153.059109 169.649493 
L 153.463009 168.98822 
L 153.563984 168.889029 
L 153.892152 168.492265 
L 154.043615 168.393075 
L 155.02812 166.938275 
L 155.356288 166.243938 
L 155.633969 166.012493 
L 155.709701 165.71492 
L 156.088357 165.119775 
L 156.138844 165.020584 
L 156.668962 163.962548 
L 156.71945 163.89642 
L 156.795181 163.631911 
L 156.845668 163.499657 
L 156.9214 163.135957 
L 157.148593 162.871448 
L 157.375787 162.342429 
L 158.360292 160.88763 
L 158.41078 160.821502 
L 158.436023 160.821502 
L 158.688461 160.556993 
L 158.789436 160.556993 
L 158.789436 160.52393 
L 159.243823 160.292484 
L 159.243823 160.193293 
L 159.395285 160.094102 
L 159.49626 159.79653 
L 159.521504 159.79653 
L 159.672966 159.498957 
L 159.69821 159.399766 
L 159.723453 159.036066 
L 159.90016 158.936875 
L 160.001134 158.672366 
L 160.455522 158.374793 
L 160.935152 157.911902 
L 160.98564 157.911902 
L 161.18759 157.482075 
L 161.18759 157.449012 
L 161.465271 157.085312 
L 161.566246 156.88693 
L 161.894414 156.721612 
L 161.995389 156.457103 
L 163.030382 155.002303 
L 163.080869 154.836984 
L 163.459525 154.109584 
L 165.579999 152.258021 
L 165.706217 151.993512 
L 166.110117 151.729003 
L 166.236335 151.563685 
L 167.372303 150.208076 
L 167.473278 150.175012 
L 167.473278 150.108885 
L 167.473278 150.042757 
L 167.877178 149.315357 
L 168.154859 149.116976 
L 168.735465 148.587958 
L 168.811196 148.191194 
L 169.290827 147.496858 
L 169.366558 147.43073 
L 169.366558 147.397667 
L 169.492776 147.232349 
L 169.644239 146.736394 
L 169.92192 146.405758 
L 169.997651 146.372694 
L 170.224845 145.744485 
L 170.477282 145.579167 
L 170.578257 145.24853 
L 170.780207 144.984021 
L 170.830694 144.88483 
L 170.881182 144.88483 
L 170.956913 144.78564 
L 171.285081 144.521131 
L 171.4113 144.455003 
L 171.512275 144.322749 
L 171.663737 144.223558 
L 171.789956 144.05824 
L 172.421049 143.760667 
L 172.421049 143.69454 
L 172.522024 143.69454 
L 172.648243 143.628412 
L 172.749217 143.529221 
L 172.799705 143.496158 
L 173.935673 142.669567 
L 174.036648 142.570376 
L 174.137623 142.537312 
L 174.59201 142.173612 
L 174.945422 141.942167 
L 174.995909 141.842976 
L 175.046397 141.842976 
L 175.349322 141.082513 
L 176.258096 139.892222 
L 176.434802 139.826094 
L 176.460046 139.69384 
L 176.535777 139.69384 
L 177.671745 138.371295 
L 178.075644 137.809213 
L 178.277594 137.544704 
L 178.631006 137.445513 
L 178.883444 137.247131 
L 179.009662 136.916495 
L 179.665999 136.222158 
L 179.74173 136.156031 
L 179.842705 136.05684 
L 180.902942 135.230249 
L 181.256354 134.866549 
L 181.458304 134.800422 
L 181.660254 134.337531 
L 182.114641 134.172213 
L 182.190372 134.139149 
L 182.190372 134.073022 
L 182.947684 133.312558 
L 183.099146 133.213368 
L 183.301096 133.081113 
L 183.376827 133.081113 
L 183.604021 132.882731 
L 183.629265 132.651286 
L 184.083652 132.155331 
L 184.083652 132.05614 
L 184.538039 131.69244 
L 184.714745 131.659377 
L 185.547788 130.469086 
L 185.850713 130.369895 
L 185.926444 130.23764 
L 186.50705 129.510241 
L 186.759487 129.41105 
L 187.340093 128.981222 
L 187.441068 128.915095 
L 187.844967 128.518331 
L 187.971186 128.518331 
L 188.299354 128.253822 
L 188.375085 128.088504 
L 189.208129 127.493359 
L 189.561541 127.129659 
L 189.940197 126.633704 
L 189.940197 126.600641 
L 190.16739 126.534513 
L 190.243121 126.402259 
L 190.621777 125.972432 
L 190.97519 125.740986 
L 191.050921 125.707923 
L 191.050921 125.674859 
L 191.581039 125.079714 
L 191.606283 124.980523 
L 191.682014 124.980523 
L 192.313107 124.220059 
L 193.019932 123.790232 
L 193.120906 123.691041 
L 193.196638 123.624914 
L 193.272369 123.459595 
L 193.802487 122.897514 
L 193.928706 122.86445 
L 194.786993 122.070923 
L 195.165648 121.707223 
L 195.24138 121.641096 
L 195.44333 121.574968 
L 195.948204 121.079014 
L 196.175398 120.913696 
L 196.377347 120.814505 
L 196.52881 120.748377 
L 196.52881 120.715314 
L 197.387097 119.624214 
L 197.563803 119.558087 
L 197.664778 119.392768 
L 198.043434 118.996005 
L 198.624039 118.533114 
L 198.624039 118.334732 
L 198.725014 118.334732 
L 198.800745 118.268605 
L 198.90172 118.169414 
L 199.053183 117.937968 
L 199.128914 117.871841 
L 199.154158 117.871841 
L 199.30562 117.77265 
L 199.356107 117.706523 
L 199.431839 117.541205 
L 199.457082 117.541205 
L 199.760007 117.276696 
L 199.936713 117.177505 
L 200.012444 117.078314 
L 200.037688 117.078314 
L 200.163907 116.979123 
L 200.264882 116.813805 
L 200.365857 116.714614 
L 200.466832 116.450105 
L 200.567806 116.383978 
L 200.921219 115.755769 
L 201.173656 115.656578 
L 201.426093 115.458196 
L 201.426093 115.292878 
L 201.451337 115.292878 
L 201.602799 115.193687 
L 201.628043 115.160623 
L 201.930968 115.061432 
L 202.259136 114.796923 
L 202.360111 114.730796 
L 203.597054 114.03646 
L 203.647541 114.03646 
L 203.748516 113.738887 
L 203.925222 113.606632 
L 204.379609 113.30906 
L 204.480584 113.044551 
L 204.733022 112.746978 
L 204.758265 112.647787 
L 204.985459 112.58166 
L 205.187409 112.482469 
L 205.389359 112.317151 
L 205.692283 112.251023 
L 206.171914 112.151832 
L 206.247645 112.085705 
L 206.525326 111.986514 
L 206.601058 111.755069 
L 206.626301 111.755069 
L 206.777764 111.722005 
L 206.777764 111.655878 
L 207.989463 110.895414 
L 207.989463 110.862351 
L 208.090438 110.862351 
L 208.166169 110.862351 
L 208.166169 110.829287 
L 208.822506 110.03576 
L 208.898237 110.002696 
L 209.049699 109.870442 
L 209.201162 109.804314 
L 209.706036 109.010787 
L 209.807011 109.010787 
L 209.93323 108.779342 
L 210.059448 108.713214 
L 210.160423 108.58096 
L 210.387617 108.316451 
L 210.867248 107.655178 
L 211.195416 107.589051 
L 211.296391 107.291478 
L 211.473097 107.026969 
L 212.255653 106.101187 
L 212.356628 105.803615 
L 212.457603 105.803615 
L 213.315889 104.910897 
L 213.315889 104.877833 
L 213.568327 104.646387 
L 213.618814 104.481069 
L 213.644058 104.481069 
L 213.770277 104.414942 
L 214.098445 104.084306 
L 214.350882 103.985115 
L 214.451857 103.918988 
L 214.60332 103.885924 
L 214.830513 103.522224 
L 214.931488 103.48916 
L 214.931488 103.456097 
L 215.108194 103.323842 
L 215.234413 103.257715 
L 215.436363 103.026269 
L 215.537338 103.026269 
L 215.537338 102.960142 
L 215.941237 102.331933 
L 216.395624 102.067424 
L 216.648062 101.802915 
L 216.749036 101.604533 
L 217.279155 101.042451 
L 217.683054 100.976324 
L 217.758786 100.744879 
L 217.834517 100.744879 
L 218.314148 100.381179 
L 218.364635 100.348115 
L 220.081209 99.091697 
L 220.182184 98.959442 
L 220.333646 98.860251 
L 220.510352 98.694933 
L 220.535596 98.694933 
L 222.757044 96.47967 
L 223.716306 95.520824 
L 223.918255 95.520824 
L 223.918255 95.454697 
L 224.574592 95.124061 
L 224.675567 94.694234 
L 225.003736 94.396661 
L 225.836779 93.834579 
L 225.91251 93.834579 
L 225.91251 93.735388 
L 226.240678 93.305561 
L 227.225184 92.908797 
L 227.275671 92.84267 
L 227.502865 92.743479 
L 227.629084 92.545097 
L 227.957252 92.280588 
L 228.209689 91.520125 
L 228.48737 91.420934 
L 228.588345 91.222552 
L 228.68932 91.156425 
L 228.714564 90.924979 
L 228.916514 90.825788 
L 229.017489 90.561279 
L 229.143707 90.495152 
L 229.648582 90.230643 
L 229.749557 90.065325 
L 230.027238 89.966134 
L 230.506869 89.668561 
L 230.557356 89.668561 
L 230.734062 89.536307 
L 231.011743 89.437116 
L 231.062231 89.370988 
L 231.112718 89.370988 
L 231.491374 89.007288 
L 231.718568 88.941161 
L 232.602098 88.412143 
L 232.602098 88.213761 
L 233.409897 87.552488 
L 233.409897 87.453298 
L 233.485629 87.453298 
L 233.637091 87.38717 
L 234.975009 86.229943 
L 235.631346 85.833179 
L 236.035245 85.634798 
L 236.035245 85.56867 
L 236.287682 85.271098 
L 236.287682 85.20497 
L 237.120726 85.006589 
L 240.048998 83.65098 
L 240.149973 83.386471 
L 240.351923 83.386471 
L 241.083991 82.92358 
L 241.563622 82.526816 
L 241.765572 82.526816 
L 242.29569 82.229243 
L 242.775321 81.766352 
L 242.851052 81.700225 
L 244.062751 80.642189 
L 245.27445 79.914789 
L 245.299694 79.815598 
L 245.905543 79.385771 
L 246.006518 79.187389 
L 247.117242 78.625307 
L 247.16773 78.526116 
L 247.622117 78.228544 
L 247.798823 77.997098 
L 248.076504 77.930971 
L 248.25321 77.83178 
L 248.960034 77.401953 
L 248.960034 77.335825 
L 248.985278 77.335825 
L 249.843565 76.839871 
L 249.894052 76.674553 
L 253.327199 74.756862 
L 253.327199 74.690735 
L 253.352443 74.690735 
L 254.084511 74.327035 
L 254.437923 74.029462 
L 254.715604 73.996398 
L 254.715604 73.963335 
L 255.346698 73.599635 
L 255.977791 73.070617 
L 257.239977 72.607726 
L 257.265221 72.442408 
L 258.451676 71.715008 
L 258.729357 71.185989 
L 259.436182 70.623908 
L 259.587644 70.623908 
L 259.587644 70.524717 
L 259.688619 70.359399 
L 261.354705 69.301362 
L 262.389698 68.507835 
L 262.465429 68.507835 
L 263.904322 67.780435 
L 264.03054 67.648181 
L 264.83834 67.416735 
L 265.090777 67.317544 
L 265.090777 67.284481 
L 265.141264 67.284481 
L 265.595651 67.019972 
L 265.620895 66.953844 
L 267.892831 65.465981 
L 268.271487 65.399853 
L 268.599655 64.903899 
L 268.776361 64.771644 
L 268.776361 64.738581 
L 271.729877 62.920081 
L 271.88134 62.82089 
L 271.88134 62.787826 
L 271.906584 62.787826 
L 272.588164 62.688635 
L 272.96682 62.589445 
L 274.65815 61.72979 
L 274.733881 61.597536 
L 274.759125 61.597536 
L 275.718387 61.299963 
L 276.071799 61.233836 
L 276.273749 61.00239 
L 279.807871 59.514527 
L 280.085552 59.349208 
L 280.539939 59.349208 
L 281.473957 58.82019 
L 281.852613 58.588745 
L 282.382731 58.357299 
L 282.559437 58.291172 
L 282.963337 58.158918 
L 284.048817 57.563772 
L 285.689659 56.935563 
L 285.790634 56.671054 
L 286.194534 56.571863 
L 286.194534 56.538799 
L 286.295509 56.538799 
L 286.497459 56.406545 
L 286.97709 56.27429 
L 287.229527 55.943654 
L 287.431477 55.778336 
L 288.693663 55.381572 
L 289.14805 55.150127 
L 289.476219 55.017872 
L 290.233531 54.588045 
L 290.410237 54.422727 
L 290.511212 54.3566 
L 291.697667 54.025963 
L 291.950104 53.893709 
L 293.843384 53.199372 
L 294.373502 53.100181 
L 294.42399 53.067118 
L 295.282276 52.868736 
L 295.282276 52.802609 
L 295.358008 52.802609 
L 295.433739 52.703418 
L 295.812395 52.604227 
L 295.812395 52.5381 
L 295.91337 52.5381 
L 296.216294 52.438909 
L 296.393 52.339718 
L 296.746413 52.1744 
L 297.226043 52.075209 
L 297.226043 52.042145 
L 297.251287 52.042145 
L 298.462986 51.942954 
L 298.589205 51.843763 
L 298.917373 51.744572 
L 299.952366 51.347809 
L 300.280535 51.149427 
L 300.760165 50.917982 
L 301.66894 50.289773 
L 302.249545 50.091391 
L 302.501983 50.058327 
L 303.082588 49.893009 
L 303.385513 49.793818 
L 304.44575 49.6285 
L 304.470994 49.6285 
L 304.622456 49.463182 
L 305.909886 48.967227 
L 306.540979 48.702718 
L 307.929384 48.272891 
L 308.207065 48.1737 
L 308.207065 48.140636 
L 308.232309 48.140636 
L 308.383772 48.140636 
L 308.383772 48.074509 
L 308.484746 48.008382 
L 309.191571 47.776936 
L 309.191571 47.743873 
L 309.216815 47.743873 
L 309.444008 47.611618 
L 309.645958 47.479364 
L 310.479001 47.314045 
L 310.983876 47.214855 
L 310.983876 47.148727 
L 312.548987 46.851155 
L 313.886904 46.454391 
L 314.26556 46.388264 
L 314.46751 46.322136 
L 314.846166 46.222946 
L 315.75494 46.024564 
L 318.834675 45.297164 
L 319.314306 44.966527 
L 319.5415 44.867337 
L 320.475518 44.668955 
L 320.778442 44.569764 
L 321.838679 44.206064 
L 321.91441 44.073809 
L 321.939654 44.073809 
L 322.419285 43.974618 
L 322.898915 43.875427 
L 323.050378 43.743173 
L 323.883421 43.643982 
L 323.984396 43.577855 
L 327.846686 42.817391 
L 328.225342 42.7182 
L 329.840941 42.321437 
L 329.891428 42.255309 
L 330.64874 42.156118 
L 331.708977 41.891609 
L 332.213851 41.792419 
L 332.415801 41.660164 
L 332.794457 41.594037 
L 332.794457 41.560973 
L 332.895432 41.527909 
L 333.879937 41.428719 
L 334.107131 41.395655 
L 335.243099 41.296464 
L 335.243099 41.2634 
L 335.344074 41.2634 
L 336.151873 41.164209 
L 336.328579 41.065019 
L 337.969421 40.965828 
L 338.070396 40.833573 
L 339.433558 40.734382 
L 339.433558 40.668255 
L 341.251106 40.569064 
L 341.528787 40.536 
L 342.15988 40.43681 
L 342.210368 40.403746 
L 343.396823 40.304555 
L 343.396823 40.271491 
L 343.497798 40.271491 
L 344.45706 40.1723 
L 344.633766 40.106173 
L 345.315347 40.006982 
L 345.492053 39.940855 
L 346.14839 39.841664 
L 346.476558 39.742473 
L 347.284357 39.643282 
L 347.284357 39.610219 
L 347.360089 39.610219 
L 348.470813 39.511028 
L 348.470813 39.477964 
L 348.571788 39.477964 
L 348.899956 39.378773 
L 348.899956 39.34571 
L 348.975687 39.34571 
L 350.136899 39.246519 
L 350.136899 39.213455 
L 350.21263 39.213455 
L 350.389336 39.114264 
L 350.41458 39.015073 
L 350.439823 39.015073 
L 350.919454 38.915882 
L 351.727254 38.816691 
L 351.727254 38.783628 
L 351.777741 38.783628 
L 352.560297 38.717501 
L 352.560297 38.651373 
L 356.801243 38.552182 
L 356.876974 38.486055 
L 357.331361 38.386864 
L 357.331361 38.353801 
L 358.593548 38.25461 
L 358.593548 38.221546 
L 359.754759 38.122355 
L 360.057684 38.056228 
L 360.814996 37.957037 
L 360.814996 37.923973 
L 364.046193 37.824782 
L 364.046193 37.791719 
L 364.046193 37.791719 
" clip-path="url(#pf3ee4abfa3)" style="fill: none; stroke: #2563eb; stroke-width: 2; stroke-linecap: square"/>
   </g>
   <g id="line2d_14">
    <path d="M 59.682557 340.191719 
L 364.046193 37.791719 
" clip-path="url(#pf3ee4abfa3)" style="fill: none; stroke-dasharray: 5.55,2.4; stroke-dashoffset: 0; stroke: #000000; stroke-opacity: 0.3; stroke-width: 1.5"/>
   </g>
   <g id="patch_3">
    <path d="M 44.464375 355.311719 
L 44.464375 22.671719 
" style="fill: none; stroke: #000000; stroke-width: 0.8; stroke-linejoin: miter; stroke-linecap: square"/>
   </g>
   <g id="patch_4">
    <path d="M 44.464375 355.311719 
L 379.264375 355.311719 
" style="fill: none; stroke: #000000; stroke-width: 0.8; stroke-linejoin: miter; stroke-linecap: square"/>
   </g>
   <g id="text_15">
    <!-- ROC Curve: First Authorship -->
    <g transform="translate(129.509375 16.671719) scale(0.13 -0.13)">
     <defs>
      <path id="ArialMT-4f" d="M 309 2231 
Q 309 3372 921 4017 
Q 1534 4663 2503 4663 
Q 3138 4663 3647 4359 
Q 4156 4056 4423 3514 
Q 4691 2972 4691 2284 
Q 4691 1588 4409 1038 
Q 4128 488 3612 205 
Q 3097 -78 2500 -78 
Q 1853 -78 1343 234 
Q 834 547 571 1087 
Q 309 1628 309 2231 
z
M 934 2222 
Q 934 1394 1379 917 
Q 1825 441 2497 441 
Q 3181 441 3623 922 
Q 4066 1403 4066 2288 
Q 4066 2847 3877 3264 
Q 3688 3681 3323 3911 
Q 2959 4141 2506 4141 
Q 1863 4141 1398 3698 
Q 934 3256 934 2222 
z
" transform="scale(0.015625)"/>
      <path id="ArialMT-43" d="M 3763 1606 
L 4369 1453 
Q 4178 706 3683 314 
Q 3188 -78 2472 -78 
Q 1731 -78 1267 223 
Q 803 525 561 1097 
Q 319 1669 319 2325 
Q 319 3041 592 3573 
Q 866 4106 1370 4382 
Q 1875 4659 2481 4659 
Q 3169 4659 3637 4309 
Q 4106 3959 4291 3325 
L 3694 3184 
Q 3534 3684 3231 3912 
Q 2928 4141 2469 4141 
Q 1941 4141 1586 3887 
Q 1231 3634 1087 3207 
Q 944 2781 944 2328 
Q 944 1744 1114 1308 
Q 1284 872 1643 656 
Q 2003 441 2422 441 
Q 2931 441 3284 734 
Q 3638 1028 3763 1606 
z
" transform="scale(0.015625)"/>
      <path id="ArialMT-3a" d="M 578 2678 
L 578 3319 
L 1219 3319 
L 1219 2678 
L 578 2678 
z
M 578 0 
L 578 641 
L 1219 641 
L 1219 0 
L 578 0 
z
" transform="scale(0.015625)"/>
      <path id="ArialMT-41" d="M -9 0 
L 1750 4581 
L 2403 4581 
L 4278 0 
L 3588 0 
L 3053 1388 
L 1138 1388 
L 634 0 
L -9 0 
z
M 1313 1881 
L 2866 1881 
L 2388 3150 
Q 2169 3728 2063 4100 
Q 1975 3659 1816 3225 
L 1313 1881 
z
" transform="scale(0.015625)"/>
      <path id="ArialMT-68" d="M 422 0 
L 422 4581 
L 984 4581 
L 984 2938 
Q 1378 3394 1978 3394 
Q 2347 3394 2619 3248 
Q 2891 3103 3008 2847 
Q 3125 2591 3125 2103 
L 3125 0 
L 2563 0 
L 2563 2103 
Q 2563 2525 2380 2717 
Q 2197 2909 1863 2909 
Q 1613 2909 1392 2779 
Q 1172 2650 1078 2428 
Q 984 2206 984 1816 
L 984 0 
L 422 0 
z
" transform="scale(0.015625)"/>
      <path id="ArialMT-70" d="M 422 -1272 
L 422 3319 
L 934 3319 
L 934 2888 
Q 1116 3141 1344 3267 
Q 1572 3394 1897 3394 
Q 2322 3394 2647 3175 
Q 2972 2956 3137 2557 
Q 3303 2159 3303 1684 
Q 3303 1175 3120 767 
Q 2938 359 2589 142 
Q 2241 -75 1856 -75 
Q 1575 -75 1351 44 
Q 1128 163 984 344 
L 984 -1272 
L 422 -1272 
z
M 931 1641 
Q 931 1000 1190 694 
Q 1450 388 1819 388 
Q 2194 388 2461 705 
Q 2728 1022 2728 1688 
Q 2728 2322 2467 2637 
Q 2206 2953 1844 2953 
Q 1484 2953 1207 2617 
Q 931 2281 931 1641 
z
" transform="scale(0.015625)"/>
     </defs>
     <use xlink:href="#ArialMT-52"/>
     <use xlink:href="#ArialMT-4f" transform="translate(72.216797 0)"/>
     <use xlink:href="#ArialMT-43" transform="translate(150 0)"/>
     <use xlink:href="#ArialMT-20" transform="translate(222.216797 0)"/>
     <use xlink:href="#ArialMT-43" transform="translate(250 0)"/>
     <use xlink:href="#ArialMT-75" transform="translate(322.216797 0)"/>
     <use xlink:href="#ArialMT-72" transform="translate(377.832031 0)"/>
     <use xlink:href="#ArialMT-76" transform="translate(411.132812 0)"/>
     <use xlink:href="#ArialMT-65" transform="translate(461.132812 0)"/>
     <use xlink:href="#ArialMT-3a" transform="translate(516.748047 0)"/>
     <use xlink:href="#ArialMT-20" transform="translate(544.53125 0)"/>
     <use xlink:href="#ArialMT-46" transform="translate(572.314453 0)"/>
     <use xlink:href="#ArialMT-69" transform="translate(633.398438 0)"/>
     <use xlink:href="#ArialMT-72" transform="translate(655.615234 0)"/>
     <use xlink:href="#ArialMT-73" transform="translate(688.916016 0)"/>
     <use xlink:href="#ArialMT-74" transform="translate(738.916016 0)"/>
     <use xlink:href="#ArialMT-20" transform="translate(766.699219 0)"/>
     <use xlink:href="#ArialMT-41" transform="translate(788.982422 0)"/>
     <use xlink:href="#ArialMT-75" transform="translate(855.681641 0)"/>
     <use xlink:href="#ArialMT-74" transform="translate(911.296875 0)"/>
     <use xlink:href="#ArialMT-68" transform="translate(939.080078 0)"/>
     <use xlink:href="#ArialMT-6f" transform="translate(994.695312 0)"/>
     <use xlink:href="#ArialMT-72" transform="translate(1050.310547 0)"/>
     <use xlink:href="#ArialMT-73" transform="translate(1083.611328 0)"/>
     <use xlink:href="#ArialMT-68" transform="translate(1133.611328 0)"/>
     <use xlink:href="#ArialMT-69" transform="translate(1189.226562 0)"/>
     <use xlink:href="#ArialMT-70" transform="translate(1211.443359 0)"/>
    </g>
   </g>
   <g id="legend_1">
    <g id="patch_5">
     <path d="M 273.078281 349.811719 
L 371.564375 349.811719 
Q 373.764375 349.811719 373.764375 347.611719 
L 373.764375 333.151875 
Q 373.764375 330.951875 371.564375 330.951875 
L 273.078281 330.951875 
Q 270.878281 330.951875 270.878281 333.151875 
L 270.878281 347.611719 
Q 270.878281 349.811719 273.078281 349.811719 
z
" style="fill: #ffffff; opacity: 0.8; stroke: #cccccc; stroke-linejoin: miter"/>
    </g>
    <g id="line2d_15">
     <path d="M 275.278281 339.375469 
L 286.278281 339.375469 
L 297.278281 339.375469 
" style="fill: none; stroke: #2563eb; stroke-width: 2; stroke-linecap: square"/>
    </g>
    <g id="text_16">
     <!-- AUC = 0.690 -->
     <g transform="translate(306.078281 343.225469) scale(0.11 -0.11)">
      <defs>
       <path id="ArialMT-55" d="M 3500 4581 
L 4106 4581 
L 4106 1934 
Q 4106 1244 3950 837 
Q 3794 431 3386 176 
Q 2978 -78 2316 -78 
Q 1672 -78 1262 144 
Q 853 366 678 786 
Q 503 1206 503 1934 
L 503 4581 
L 1109 4581 
L 1109 1938 
Q 1109 1341 1220 1058 
Q 1331 775 1601 622 
Q 1872 469 2263 469 
Q 2931 469 3215 772 
Q 3500 1075 3500 1938 
L 3500 4581 
z
" transform="scale(0.015625)"/>
       <path id="ArialMT-3d" d="M 3381 2694 
L 356 2694 
L 356 3219 
L 3381 3219 
L 3381 2694 
z
M 3381 1303 
L 356 1303 
L 356 1828 
L 3381 1828 
L 3381 1303 
z
" transform="scale(0.015625)"/>
       <path id="ArialMT-39" d="M 350 1059 
L 891 1109 
Q 959 728 1153 556 
Q 1347 384 1650 384 
Q 1909 384 2104 503 
Q 2300 622 2425 820 
Q 2550 1019 2634 1356 
Q 2719 1694 2719 2044 
Q 2719 2081 2716 2156 
Q 2547 1888 2255 1720 
Q 1963 1553 1622 1553 
Q 1053 1553 659 1965 
Q 266 2378 266 3053 
Q 266 3750 677 4175 
Q 1088 4600 1706 4600 
Q 2153 4600 2523 4359 
Q 2894 4119 3086 3673 
Q 3278 3228 3278 2384 
Q 3278 1506 3087 986 
Q 2897 466 2520 194 
Q 2144 -78 1638 -78 
Q 1100 -78 759 220 
Q 419 519 350 1059 
z
M 2653 3081 
Q 2653 3566 2395 3850 
Q 2138 4134 1775 4134 
Q 1400 4134 1122 3828 
Q 844 3522 844 3034 
Q 844 2597 1108 2323 
Q 1372 2050 1759 2050 
Q 2150 2050 2401 2323 
Q 2653 2597 2653 3081 
z
" transform="scale(0.015625)"/>
      </defs>
      <use xlink:href="#ArialMT-41"/>
      <use xlink:href="#ArialMT-55" transform="translate(66.699219 0)"/>
      <use xlink:href="#ArialMT-43" transform="translate(138.916016 0)"/>
      <use xlink:href="#ArialMT-20" transform="translate(211.132812 0)"/>
      <use xlink:href="#ArialMT-3d" transform="translate(238.916016 0)"/>
      <use xlink:href="#ArialMT-20" transform="translate(297.314453 0)"/>
      <use xlink:href="#ArialMT-30" transform="translate(325.097656 0)"/>
      <use xlink:href="#ArialMT-2e" transform="translate(380.712891 0)"/>
      <use xlink:href="#ArialMT-36" transform="translate(408.496094 0)"/>
      <use xlink:href="#ArialMT-39" transform="translate(464.111328 0)"/>
      <use xlink:href="#ArialMT-30" transform="translate(519.726562 0)"/>
     </g>
    </g>
   </g>
  </g>
 </g>
 <defs>
  <clipPath id="pf3ee4abfa3">
   <rect x="44.464375" y="22.671719" width="334.8" height="332.64"/>
  </clipPath>
 </defs>
</svg>
