<?xml version="1.0" encoding="utf-8" standalone="no"?>
<!DOCTYPE svg PUBLIC "-//W3C//DTD SVG 1.1//EN"
  "http://www.w3.org/Graphics/SVG/1.1/DTD/svg11.dtd">
<svg xmlns:xlink="http://www.w3.org/1999/xlink" width="386.618125pt" height="394.678437pt" viewBox="0 0 386.618125 394.678437" xmlns="http://www.w3.org/2000/svg" version="1.1">
 <metadata>
  <rdf:RDF xmlns:dc="http://purl.org/dc/elements/1.1/" xmlns:cc="http://creativecommons.org/ns#" xmlns:rdf="http://www.w3.org/1999/02/22-rdf-syntax-ns#">
   <cc:Work>
    <dc:type rdf:resource="http://purl.org/dc/dcmitype/StillImage"/>
    <dc:date>2026-04-13T22:29:51.974025</dc:date>
    <dc:format>image/svg+xml</dc:format>
    <dc:creator>
     <cc:Agent>
      <dc:title>Matplotlib v3.10.8, https://matplotlib.org/</dc:title>
     </cc:Agent>
    </dc:creator>
   </cc:Work>
  </rdf:RDF>
 </metadata>
 <defs>
  <style type="text/css">*{stroke-linejoin: round; stroke-linecap: butt}</style>
 </defs>
 <g id="figure_1">
  <g id="patch_1">
   <path d="M 0 394.678437 
L 386.618125 394.678437 
L 386.618125 0 
L 0 0 
z
" style="fill: #ffffff"/>
  </g>
  <g id="axes_1">
   <g id="patch_2">
    <path d="M 44.618125 355.303594 
L 379.418125 355.303594 
L 379.418125 22.663594 
L 44.618125 22.663594 
z
" style="fill: #ffffff"/>
   </g>
   <g id="matplotlib.axis_1">
    <g id="xtick_1">
     <g id="line2d_1">
      <defs>
       <path id="m56ab14894b" d="M 0 0 
L 0 3.5 
" style="stroke: #000000; stroke-width: 0.8"/>
      </defs>
      <g>
       <use xlink:href="#m56ab14894b" x="59.836307" y="355.303594" style="stroke: #000000; stroke-width: 0.8"/>
      </g>
     </g>
     <g id="text_1">
      <!-- 0.0 -->
      <g transform="translate(52.191307 370.177187) scale(0.11 -0.11)">
       <defs>
        <path id="ArialMT-30" d="M 266 2259 
Q 266 3072 433 3567 
Q 600 4063 929 4331 
Q 1259 4600 1759 4600 
Q 2128 4600 2406 4451 
Q 2684 4303 2865 4023 
Q 3047 3744 3150 3342 
Q 3253 2941 3253 2259 
Q 3253 1453 3087 958 
Q 2922 463 2592 192 
Q 2263 -78 1759 -78 
Q 1097 -78 719 397 
Q 266 969 266 2259 
z
M 844 2259 
Q 844 1131 1108 757 
Q 1372 384 1759 384 
Q 2147 384 2411 759 
Q 2675 1134 2675 2259 
Q 2675 3391 2411 3762 
Q 2147 4134 1753 4134 
Q 1366 4134 1134 3806 
Q 844 3388 844 2259 
z
" transform="scale(0.015625)"/>
        <path id="ArialMT-2e" d="M 581 0 
L 581 641 
L 1222 641 
L 1222 0 
L 581 0 
z
" transform="scale(0.015625)"/>
       </defs>
       <use xlink:href="#ArialMT-30"/>
       <use xlink:href="#ArialMT-2e" transform="translate(55.615234 0)"/>
       <use xlink:href="#ArialMT-30" transform="translate(83.398438 0)"/>
      </g>
     </g>
    </g>
    <g id="xtick_2">
     <g id="line2d_2">
      <g>
       <use xlink:href="#m56ab14894b" x="120.709034" y="355.303594" style="stroke: #000000; stroke-width: 0.8"/>
      </g>
     </g>
     <g id="text_2">
      <!-- 0.2 -->
      <g transform="translate(113.064034 370.177187) scale(0.11 -0.11)">
       <defs>
        <path id="ArialMT-32" d="M 3222 541 
L 3222 0 
L 194 0 
Q 188 203 259 391 
Q 375 700 629 1000 
Q 884 1300 1366 1694 
Q 2113 2306 2375 2664 
Q 2638 3022 2638 3341 
Q 2638 3675 2398 3904 
Q 2159 4134 1775 4134 
Q 1369 4134 1125 3890 
Q 881 3647 878 3216 
L 300 3275 
Q 359 3922 746 4261 
Q 1134 4600 1788 4600 
Q 2447 4600 2831 4234 
Q 3216 3869 3216 3328 
Q 3216 3053 3103 2787 
Q 2991 2522 2730 2228 
Q 2469 1934 1863 1422 
Q 1356 997 1212 845 
Q 1069 694 975 541 
L 3222 541 
z
" transform="scale(0.015625)"/>
       </defs>
       <use xlink:href="#ArialMT-30"/>
       <use xlink:href="#ArialMT-2e" transform="translate(55.615234 0)"/>
       <use xlink:href="#ArialMT-32" transform="translate(83.398438 0)"/>
      </g>
     </g>
    </g>
    <g id="xtick_3">
     <g id="line2d_3">
      <g>
       <use xlink:href="#m56ab14894b" x="181.581761" y="355.303594" style="stroke: #000000; stroke-width: 0.8"/>
      </g>
     </g>
     <g id="text_3">
      <!-- 0.4 -->
      <g transform="translate(173.936761 370.177187) scale(0.11 -0.11)">
       <defs>
        <path id="ArialMT-34" d="M 2069 0 
L 2069 1097 
L 81 1097 
L 81 1613 
L 2172 4581 
L 2631 4581 
L 2631 1613 
L 3250 1613 
L 3250 1097 
L 2631 1097 
L 2631 0 
L 2069 0 
z
M 2069 1613 
L 2069 3678 
L 634 1613 
L 2069 1613 
z
" transform="scale(0.015625)"/>
       </defs>
       <use xlink:href="#ArialMT-30"/>
       <use xlink:href="#ArialMT-2e" transform="translate(55.615234 0)"/>
       <use xlink:href="#ArialMT-34" transform="translate(83.398438 0)"/>
      </g>
     </g>
    </g>
    <g id="xtick_4">
     <g id="line2d_4">
      <g>
       <use xlink:href="#m56ab14894b" x="242.454489" y="355.303594" style="stroke: #000000; stroke-width: 0.8"/>
      </g>
     </g>
     <g id="text_4">
      <!-- 0.6 -->
      <g transform="translate(234.809489 370.177187) scale(0.11 -0.11)">
       <defs>
        <path id="ArialMT-36" d="M 3184 3459 
L 2625 3416 
Q 2550 3747 2413 3897 
Q 2184 4138 1850 4138 
Q 1581 4138 1378 3988 
Q 1113 3794 959 3422 
Q 806 3050 800 2363 
Q 1003 2672 1297 2822 
Q 1591 2972 1913 2972 
Q 2475 2972 2870 2558 
Q 3266 2144 3266 1488 
Q 3266 1056 3080 686 
Q 2894 316 2569 119 
Q 2244 -78 1831 -78 
Q 1128 -78 684 439 
Q 241 956 241 2144 
Q 241 3472 731 4075 
Q 1159 4600 1884 4600 
Q 2425 4600 2770 4297 
Q 3116 3994 3184 3459 
z
M 888 1484 
Q 888 1194 1011 928 
Q 1134 663 1356 523 
Q 1578 384 1822 384 
Q 2178 384 2434 671 
Q 2691 959 2691 1453 
Q 2691 1928 2437 2201 
Q 2184 2475 1800 2475 
Q 1419 2475 1153 2201 
Q 888 1928 888 1484 
z
" transform="scale(0.015625)"/>
       </defs>
       <use xlink:href="#ArialMT-30"/>
       <use xlink:href="#ArialMT-2e" transform="translate(55.615234 0)"/>
       <use xlink:href="#ArialMT-36" transform="translate(83.398438 0)"/>
      </g>
     </g>
    </g>
    <g id="xtick_5">
     <g id="line2d_5">
      <g>
       <use xlink:href="#m56ab14894b" x="303.327216" y="355.303594" style="stroke: #000000; stroke-width: 0.8"/>
      </g>
     </g>
     <g id="text_5">
      <!-- 0.8 -->
      <g transform="translate(295.682216 370.177187) scale(0.11 -0.11)">
       <defs>
        <path id="ArialMT-38" d="M 1131 2484 
Q 781 2613 612 2850 
Q 444 3088 444 3419 
Q 444 3919 803 4259 
Q 1163 4600 1759 4600 
Q 2359 4600 2725 4251 
Q 3091 3903 3091 3403 
Q 3091 3084 2923 2848 
Q 2756 2613 2416 2484 
Q 2838 2347 3058 2040 
Q 3278 1734 3278 1309 
Q 3278 722 2862 322 
Q 2447 -78 1769 -78 
Q 1091 -78 675 323 
Q 259 725 259 1325 
Q 259 1772 486 2073 
Q 713 2375 1131 2484 
z
M 1019 3438 
Q 1019 3113 1228 2906 
Q 1438 2700 1772 2700 
Q 2097 2700 2305 2904 
Q 2513 3109 2513 3406 
Q 2513 3716 2298 3927 
Q 2084 4138 1766 4138 
Q 1444 4138 1231 3931 
Q 1019 3725 1019 3438 
z
M 838 1322 
Q 838 1081 952 856 
Q 1066 631 1291 507 
Q 1516 384 1775 384 
Q 2178 384 2440 643 
Q 2703 903 2703 1303 
Q 2703 1709 2433 1975 
Q 2163 2241 1756 2241 
Q 1359 2241 1098 1978 
Q 838 1716 838 1322 
z
" transform="scale(0.015625)"/>
       </defs>
       <use xlink:href="#ArialMT-30"/>
       <use xlink:href="#ArialMT-2e" transform="translate(55.615234 0)"/>
       <use xlink:href="#ArialMT-38" transform="translate(83.398438 0)"/>
      </g>
     </g>
    </g>
    <g id="xtick_6">
     <g id="line2d_6">
      <g>
       <use xlink:href="#m56ab14894b" x="364.199943" y="355.303594" style="stroke: #000000; stroke-width: 0.8"/>
      </g>
     </g>
     <g id="text_6">
      <!-- 1.0 -->
      <g transform="translate(356.554943 370.177187) scale(0.11 -0.11)">
       <defs>
        <path id="ArialMT-31" d="M 2384 0 
L 1822 0 
L 1822 3584 
Q 1619 3391 1289 3197 
Q 959 3003 697 2906 
L 697 3450 
Q 1169 3672 1522 3987 
Q 1875 4303 2022 4600 
L 2384 4600 
L 2384 0 
z
" transform="scale(0.015625)"/>
       </defs>
       <use xlink:href="#ArialMT-31"/>
       <use xlink:href="#ArialMT-2e" transform="translate(55.615234 0)"/>
       <use xlink:href="#ArialMT-30" transform="translate(83.398438 0)"/>
      </g>
     </g>
    </g>
    <g id="text_7">
     <!-- Mean Predicted Probability -->
     <g transform="translate(140.318125 384.952812) scale(0.12 -0.12)">
      <defs>
       <path id="ArialMT-4d" d="M 475 0 
L 475 4581 
L 1388 4581 
L 2472 1338 
Q 2622 884 2691 659 
Q 2769 909 2934 1394 
L 4031 4581 
L 4847 4581 
L 4847 0 
L 4263 0 
L 4263 3834 
L 2931 0 
L 2384 0 
L 1059 3900 
L 1059 0 
L 475 0 
z
" transform="scale(0.015625)"/>
       <path id="ArialMT-65" d="M 2694 1069 
L 3275 997 
Q 3138 488 2766 206 
Q 2394 -75 1816 -75 
Q 1088 -75 661 373 
Q 234 822 234 1631 
Q 234 2469 665 2931 
Q 1097 3394 1784 3394 
Q 2450 3394 2872 2941 
Q 3294 2488 3294 1666 
Q 3294 1616 3291 1516 
L 816 1516 
Q 847 969 1125 678 
Q 1403 388 1819 388 
Q 2128 388 2347 550 
Q 2566 713 2694 1069 
z
M 847 1978 
L 2700 1978 
Q 2663 2397 2488 2606 
Q 2219 2931 1791 2931 
Q 1403 2931 1139 2672 
Q 875 2413 847 1978 
z
" transform="scale(0.015625)"/>
       <path id="ArialMT-61" d="M 2588 409 
Q 2275 144 1986 34 
Q 1697 -75 1366 -75 
Q 819 -75 525 192 
Q 231 459 231 875 
Q 231 1119 342 1320 
Q 453 1522 633 1644 
Q 813 1766 1038 1828 
Q 1203 1872 1538 1913 
Q 2219 1994 2541 2106 
Q 2544 2222 2544 2253 
Q 2544 2597 2384 2738 
Q 2169 2928 1744 2928 
Q 1347 2928 1158 2789 
Q 969 2650 878 2297 
L 328 2372 
Q 403 2725 575 2942 
Q 747 3159 1072 3276 
Q 1397 3394 1825 3394 
Q 2250 3394 2515 3294 
Q 2781 3194 2906 3042 
Q 3031 2891 3081 2659 
Q 3109 2516 3109 2141 
L 3109 1391 
Q 3109 606 3145 398 
Q 3181 191 3288 0 
L 2700 0 
Q 2613 175 2588 409 
z
M 2541 1666 
Q 2234 1541 1622 1453 
Q 1275 1403 1131 1340 
Q 988 1278 909 1158 
Q 831 1038 831 891 
Q 831 666 1001 516 
Q 1172 366 1500 366 
Q 1825 366 2078 508 
Q 2331 650 2450 897 
Q 2541 1088 2541 1459 
L 2541 1666 
z
" transform="scale(0.015625)"/>
       <path id="ArialMT-6e" d="M 422 0 
L 422 3319 
L 928 3319 
L 928 2847 
Q 1294 3394 1984 3394 
Q 2284 3394 2536 3286 
Q 2788 3178 2913 3003 
Q 3038 2828 3088 2588 
Q 3119 2431 3119 2041 
L 3119 0 
L 2556 0 
L 2556 2019 
Q 2556 2363 2490 2533 
Q 2425 2703 2258 2804 
Q 2091 2906 1866 2906 
Q 1506 2906 1245 2678 
Q 984 2450 984 1813 
L 984 0 
L 422 0 
z
" transform="scale(0.015625)"/>
       <path id="ArialMT-20" transform="scale(0.015625)"/>
       <path id="ArialMT-50" d="M 494 0 
L 494 4581 
L 2222 4581 
Q 2678 4581 2919 4538 
Q 3256 4481 3484 4323 
Q 3713 4166 3852 3881 
Q 3991 3597 3991 3256 
Q 3991 2672 3619 2267 
Q 3247 1863 2275 1863 
L 1100 1863 
L 1100 0 
L 494 0 
z
M 1100 2403 
L 2284 2403 
Q 2872 2403 3119 2622 
Q 3366 2841 3366 3238 
Q 3366 3525 3220 3729 
Q 3075 3934 2838 4000 
Q 2684 4041 2272 4041 
L 1100 4041 
L 1100 2403 
z
" transform="scale(0.015625)"/>
       <path id="ArialMT-72" d="M 416 0 
L 416 3319 
L 922 3319 
L 922 2816 
Q 1116 3169 1280 3281 
Q 1444 3394 1641 3394 
Q 1925 3394 2219 3213 
L 2025 2691 
Q 1819 2813 1613 2813 
Q 1428 2813 1281 2702 
Q 1134 2591 1072 2394 
Q 978 2094 978 1738 
L 978 0 
L 416 0 
z
" transform="scale(0.015625)"/>
       <path id="ArialMT-64" d="M 2575 0 
L 2575 419 
Q 2259 -75 1647 -75 
Q 1250 -75 917 144 
Q 584 363 401 755 
Q 219 1147 219 1656 
Q 219 2153 384 2558 
Q 550 2963 881 3178 
Q 1213 3394 1622 3394 
Q 1922 3394 2156 3267 
Q 2391 3141 2538 2938 
L 2538 4581 
L 3097 4581 
L 3097 0 
L 2575 0 
z
M 797 1656 
Q 797 1019 1065 703 
Q 1334 388 1700 388 
Q 2069 388 2326 689 
Q 2584 991 2584 1609 
Q 2584 2291 2321 2609 
Q 2059 2928 1675 2928 
Q 1300 2928 1048 2622 
Q 797 2316 797 1656 
z
" transform="scale(0.015625)"/>
       <path id="ArialMT-69" d="M 425 3934 
L 425 4581 
L 988 4581 
L 988 3934 
L 425 3934 
z
M 425 0 
L 425 3319 
L 988 3319 
L 988 0 
L 425 0 
z
" transform="scale(0.015625)"/>
       <path id="ArialMT-63" d="M 2588 1216 
L 3141 1144 
Q 3050 572 2676 248 
Q 2303 -75 1759 -75 
Q 1078 -75 664 370 
Q 250 816 250 1647 
Q 250 2184 428 2587 
Q 606 2991 970 3192 
Q 1334 3394 1763 3394 
Q 2303 3394 2647 3120 
Q 2991 2847 3088 2344 
L 2541 2259 
Q 2463 2594 2264 2762 
Q 2066 2931 1784 2931 
Q 1359 2931 1093 2626 
Q 828 2322 828 1663 
Q 828 994 1084 691 
Q 1341 388 1753 388 
Q 2084 388 2306 591 
Q 2528 794 2588 1216 
z
" transform="scale(0.015625)"/>
       <path id="ArialMT-74" d="M 1650 503 
L 1731 6 
Q 1494 -44 1306 -44 
Q 1000 -44 831 53 
Q 663 150 594 308 
Q 525 466 525 972 
L 525 2881 
L 113 2881 
L 113 3319 
L 525 3319 
L 525 4141 
L 1084 4478 
L 1084 3319 
L 1650 3319 
L 1650 2881 
L 1084 2881 
L 1084 941 
Q 1084 700 1114 631 
Q 1144 563 1211 522 
Q 1278 481 1403 481 
Q 1497 481 1650 503 
z
" transform="scale(0.015625)"/>
       <path id="ArialMT-6f" d="M 213 1659 
Q 213 2581 725 3025 
Q 1153 3394 1769 3394 
Q 2453 3394 2887 2945 
Q 3322 2497 3322 1706 
Q 3322 1066 3130 698 
Q 2938 331 2570 128 
Q 2203 -75 1769 -75 
Q 1072 -75 642 372 
Q 213 819 213 1659 
z
M 791 1659 
Q 791 1022 1069 705 
Q 1347 388 1769 388 
Q 2188 388 2466 706 
Q 2744 1025 2744 1678 
Q 2744 2294 2464 2611 
Q 2184 2928 1769 2928 
Q 1347 2928 1069 2612 
Q 791 2297 791 1659 
z
" transform="scale(0.015625)"/>
       <path id="ArialMT-62" d="M 941 0 
L 419 0 
L 419 4581 
L 981 4581 
L 981 2947 
Q 1338 3394 1891 3394 
Q 2197 3394 2470 3270 
Q 2744 3147 2920 2923 
Q 3097 2700 3197 2384 
Q 3297 2069 3297 1709 
Q 3297 856 2875 390 
Q 2453 -75 1863 -75 
Q 1275 -75 941 416 
L 941 0 
z
M 934 1684 
Q 934 1088 1097 822 
Q 1363 388 1816 388 
Q 2184 388 2453 708 
Q 2722 1028 2722 1663 
Q 2722 2313 2464 2622 
Q 2206 2931 1841 2931 
Q 1472 2931 1203 2611 
Q 934 2291 934 1684 
z
" transform="scale(0.015625)"/>
       <path id="ArialMT-6c" d="M 409 0 
L 409 4581 
L 972 4581 
L 972 0 
L 409 0 
z
" transform="scale(0.015625)"/>
       <path id="ArialMT-79" d="M 397 -1278 
L 334 -750 
Q 519 -800 656 -800 
Q 844 -800 956 -737 
Q 1069 -675 1141 -563 
Q 1194 -478 1313 -144 
Q 1328 -97 1363 -6 
L 103 3319 
L 709 3319 
L 1400 1397 
Q 1534 1031 1641 628 
Q 1738 1016 1872 1384 
L 2581 3319 
L 3144 3319 
L 1881 -56 
Q 1678 -603 1566 -809 
Q 1416 -1088 1222 -1217 
Q 1028 -1347 759 -1347 
Q 597 -1347 397 -1278 
z
" transform="scale(0.015625)"/>
      </defs>
      <use xlink:href="#ArialMT-4d"/>
      <use xlink:href="#ArialMT-65" transform="translate(83.300781 0)"/>
      <use xlink:href="#ArialMT-61" transform="translate(138.916016 0)"/>
      <use xlink:href="#ArialMT-6e" transform="translate(194.53125 0)"/>
      <use xlink:href="#ArialMT-20" transform="translate(250.146484 0)"/>
      <use xlink:href="#ArialMT-50" transform="translate(277.929688 0)"/>
      <use xlink:href="#ArialMT-72" transform="translate(344.628906 0)"/>
      <use xlink:href="#ArialMT-65" transform="translate(377.929688 0)"/>
      <use xlink:href="#ArialMT-64" transform="translate(433.544922 0)"/>
      <use xlink:href="#ArialMT-69" transform="translate(489.160156 0)"/>
      <use xlink:href="#ArialMT-63" transform="translate(511.376953 0)"/>
      <use xlink:href="#ArialMT-74" transform="translate(561.376953 0)"/>
      <use xlink:href="#ArialMT-65" transform="translate(589.160156 0)"/>
      <use xlink:href="#ArialMT-64" transform="translate(644.775391 0)"/>
      <use xlink:href="#ArialMT-20" transform="translate(700.390625 0)"/>
      <use xlink:href="#ArialMT-50" transform="translate(728.173828 0)"/>
      <use xlink:href="#ArialMT-72" transform="translate(794.873047 0)"/>
      <use xlink:href="#ArialMT-6f" transform="translate(828.173828 0)"/>
      <use xlink:href="#ArialMT-62" transform="translate(883.789062 0)"/>
      <use xlink:href="#ArialMT-61" transform="translate(939.404297 0)"/>
      <use xlink:href="#ArialMT-62" transform="translate(995.019531 0)"/>
      <use xlink:href="#ArialMT-69" transform="translate(1050.634766 0)"/>
      <use xlink:href="#ArialMT-6c" transform="translate(1072.851562 0)"/>
      <use xlink:href="#ArialMT-69" transform="translate(1095.068359 0)"/>
      <use xlink:href="#ArialMT-74" transform="translate(1117.285156 0)"/>
      <use xlink:href="#ArialMT-79" transform="translate(1145.068359 0)"/>
     </g>
    </g>
   </g>
   <g id="matplotlib.axis_2">
    <g id="ytick_1">
     <g id="line2d_7">
      <defs>
       <path id="m9eea7d5abc" d="M 0 0 
L -3.5 0 
" style="stroke: #000000; stroke-width: 0.8"/>
      </defs>
      <g>
       <use xlink:href="#m9eea7d5abc" x="44.618125" y="340.183594" style="stroke: #000000; stroke-width: 0.8"/>
      </g>
     </g>
     <g id="text_8">
      <!-- 0.0 -->
      <g transform="translate(22.328125 344.120391) scale(0.11 -0.11)">
       <use xlink:href="#ArialMT-30"/>
       <use xlink:href="#ArialMT-2e" transform="translate(55.615234 0)"/>
       <use xlink:href="#ArialMT-30" transform="translate(83.398438 0)"/>
      </g>
     </g>
    </g>
    <g id="ytick_2">
     <g id="line2d_8">
      <g>
       <use xlink:href="#m9eea7d5abc" x="44.618125" y="279.703594" style="stroke: #000000; stroke-width: 0.8"/>
      </g>
     </g>
     <g id="text_9">
      <!-- 0.2 -->
      <g transform="translate(22.328125 283.640391) scale(0.11 -0.11)">
       <use xlink:href="#ArialMT-30"/>
       <use xlink:href="#ArialMT-2e" transform="translate(55.615234 0)"/>
       <use xlink:href="#ArialMT-32" transform="translate(83.398438 0)"/>
      </g>
     </g>
    </g>
    <g id="ytick_3">
     <g id="line2d_9">
      <g>
       <use xlink:href="#m9eea7d5abc" x="44.618125" y="219.223594" style="stroke: #000000; stroke-width: 0.8"/>
      </g>
     </g>
     <g id="text_10">
      <!-- 0.4 -->
      <g transform="translate(22.328125 223.160391) scale(0.11 -0.11)">
       <use xlink:href="#ArialMT-30"/>
       <use xlink:href="#ArialMT-2e" transform="translate(55.615234 0)"/>
       <use xlink:href="#ArialMT-34" transform="translate(83.398438 0)"/>
      </g>
     </g>
    </g>
    <g id="ytick_4">
     <g id="line2d_10">
      <g>
       <use xlink:href="#m9eea7d5abc" x="44.618125" y="158.743594" style="stroke: #000000; stroke-width: 0.8"/>
      </g>
     </g>
     <g id="text_11">
      <!-- 0.6 -->
      <g transform="translate(22.328125 162.680391) scale(0.11 -0.11)">
       <use xlink:href="#ArialMT-30"/>
       <use xlink:href="#ArialMT-2e" transform="translate(55.615234 0)"/>
       <use xlink:href="#ArialMT-36" transform="translate(83.398438 0)"/>
      </g>
     </g>
    </g>
    <g id="ytick_5">
     <g id="line2d_11">
      <g>
       <use xlink:href="#m9eea7d5abc" x="44.618125" y="98.263594" style="stroke: #000000; stroke-width: 0.8"/>
      </g>
     </g>
     <g id="text_12">
      <!-- 0.8 -->
      <g transform="translate(22.328125 102.200391) scale(0.11 -0.11)">
       <use xlink:href="#ArialMT-30"/>
       <use xlink:href="#ArialMT-2e" transform="translate(55.615234 0)"/>
       <use xlink:href="#ArialMT-38" transform="translate(83.398438 0)"/>
      </g>
     </g>
    </g>
    <g id="ytick_6">
     <g id="line2d_12">
      <g>
       <use xlink:href="#m9eea7d5abc" x="44.618125" y="37.783594" style="stroke: #000000; stroke-width: 0.8"/>
      </g>
     </g>
     <g id="text_13">
      <!-- 1.0 -->
      <g transform="translate(22.328125 41.720391) scale(0.11 -0.11)">
       <use xlink:href="#ArialMT-31"/>
       <use xlink:href="#ArialMT-2e" transform="translate(55.615234 0)"/>
       <use xlink:href="#ArialMT-30" transform="translate(83.398438 0)"/>
      </g>
     </g>
    </g>
    <g id="text_14">
     <!-- Mean Observed Proportion -->
     <g transform="translate(15.943125 261.016406) rotate(-90) scale(0.12 -0.12)">
      <defs>
       <path id="ArialMT-4f" d="M 309 2231 
Q 309 3372 921 4017 
Q 1534 4663 2503 4663 
Q 3138 4663 3647 4359 
Q 4156 4056 4423 3514 
Q 4691 2972 4691 2284 
Q 4691 1588 4409 1038 
Q 4128 488 3612 205 
Q 3097 -78 2500 -78 
Q 1853 -78 1343 234 
Q 834 547 571 1087 
Q 309 1628 309 2231 
z
M 934 2222 
Q 934 1394 1379 917 
Q 1825 441 2497 441 
Q 3181 441 3623 922 
Q 4066 1403 4066 2288 
Q 4066 2847 3877 3264 
Q 3688 3681 3323 3911 
Q 2959 4141 2506 4141 
Q 1863 4141 1398 3698 
Q 934 3256 934 2222 
z
" transform="scale(0.015625)"/>
       <path id="ArialMT-73" d="M 197 991 
L 753 1078 
Q 800 744 1014 566 
Q 1228 388 1613 388 
Q 2000 388 2187 545 
Q 2375 703 2375 916 
Q 2375 1106 2209 1216 
Q 2094 1291 1634 1406 
Q 1016 1563 777 1677 
Q 538 1791 414 1992 
Q 291 2194 291 2438 
Q 291 2659 392 2848 
Q 494 3038 669 3163 
Q 800 3259 1026 3326 
Q 1253 3394 1513 3394 
Q 1903 3394 2198 3281 
Q 2494 3169 2634 2976 
Q 2775 2784 2828 2463 
L 2278 2388 
Q 2241 2644 2061 2787 
Q 1881 2931 1553 2931 
Q 1166 2931 1000 2803 
Q 834 2675 834 2503 
Q 834 2394 903 2306 
Q 972 2216 1119 2156 
Q 1203 2125 1616 2013 
Q 2213 1853 2448 1751 
Q 2684 1650 2818 1456 
Q 2953 1263 2953 975 
Q 2953 694 2789 445 
Q 2625 197 2315 61 
Q 2006 -75 1616 -75 
Q 969 -75 630 194 
Q 291 463 197 991 
z
" transform="scale(0.015625)"/>
       <path id="ArialMT-76" d="M 1344 0 
L 81 3319 
L 675 3319 
L 1388 1331 
Q 1503 1009 1600 663 
Q 1675 925 1809 1294 
L 2547 3319 
L 3125 3319 
L 1869 0 
L 1344 0 
z
" transform="scale(0.015625)"/>
       <path id="ArialMT-70" d="M 422 -1272 
L 422 3319 
L 934 3319 
L 934 2888 
Q 1116 3141 1344 3267 
Q 1572 3394 1897 3394 
Q 2322 3394 2647 3175 
Q 2972 2956 3137 2557 
Q 3303 2159 3303 1684 
Q 3303 1175 3120 767 
Q 2938 359 2589 142 
Q 2241 -75 1856 -75 
Q 1575 -75 1351 44 
Q 1128 163 984 344 
L 984 -1272 
L 422 -1272 
z
M 931 1641 
Q 931 1000 1190 694 
Q 1450 388 1819 388 
Q 2194 388 2461 705 
Q 2728 1022 2728 1688 
Q 2728 2322 2467 2637 
Q 2206 2953 1844 2953 
Q 1484 2953 1207 2617 
Q 931 2281 931 1641 
z
" transform="scale(0.015625)"/>
      </defs>
      <use xlink:href="#ArialMT-4d"/>
      <use xlink:href="#ArialMT-65" transform="translate(83.300781 0)"/>
      <use xlink:href="#ArialMT-61" transform="translate(138.916016 0)"/>
      <use xlink:href="#ArialMT-6e" transform="translate(194.53125 0)"/>
      <use xlink:href="#ArialMT-20" transform="translate(250.146484 0)"/>
      <use xlink:href="#ArialMT-4f" transform="translate(277.929688 0)"/>
      <use xlink:href="#ArialMT-62" transform="translate(355.712891 0)"/>
      <use xlink:href="#ArialMT-73" transform="translate(411.328125 0)"/>
      <use xlink:href="#ArialMT-65" transform="translate(461.328125 0)"/>
      <use xlink:href="#ArialMT-72" transform="translate(516.943359 0)"/>
      <use xlink:href="#ArialMT-76" transform="translate(550.244141 0)"/>
      <use xlink:href="#ArialMT-65" transform="translate(600.244141 0)"/>
      <use xlink:href="#ArialMT-64" transform="translate(655.859375 0)"/>
      <use xlink:href="#ArialMT-20" transform="translate(711.474609 0)"/>
      <use xlink:href="#ArialMT-50" transform="translate(739.257812 0)"/>
      <use xlink:href="#ArialMT-72" transform="translate(805.957031 0)"/>
      <use xlink:href="#ArialMT-6f" transform="translate(839.257812 0)"/>
      <use xlink:href="#ArialMT-70" transform="translate(894.873047 0)"/>
      <use xlink:href="#ArialMT-6f" transform="translate(950.488281 0)"/>
      <use xlink:href="#ArialMT-72" transform="translate(1006.103516 0)"/>
      <use xlink:href="#ArialMT-74" transform="translate(1039.404297 0)"/>
      <use xlink:href="#ArialMT-69" transform="translate(1067.1875 0)"/>
      <use xlink:href="#ArialMT-6f" transform="translate(1089.404297 0)"/>
      <use xlink:href="#ArialMT-6e" transform="translate(1145.019531 0)"/>
     </g>
    </g>
   </g>
   <g id="line2d_13">
    <path d="M 59.836307 340.183594 
L 364.199943 37.783594 
" clip-path="url(#pb1932ff29a)" style="fill: none; stroke-dasharray: 5.55,2.4; stroke-dashoffset: 0; stroke: #000000; stroke-opacity: 0.3; stroke-width: 1.5"/>
   </g>
   <g id="patch_3">
    <path d="M 44.618125 355.303594 
L 44.618125 22.663594 
" style="fill: none; stroke: #000000; stroke-width: 0.8; stroke-linejoin: miter; stroke-linecap: square"/>
   </g>
   <g id="patch_4">
    <path d="M 44.618125 355.303594 
L 379.418125 355.303594 
" style="fill: none; stroke: #000000; stroke-width: 0.8; stroke-linejoin: miter; stroke-linecap: square"/>
   </g>
   <g id="text_15">
    <!-- Calibration Plot: First Authorship -->
    <g transform="translate(119.174766 16.663594) scale(0.13 -0.13)">
     <defs>
      <path id="ArialMT-43" d="M 3763 1606 
L 4369 1453 
Q 4178 706 3683 314 
Q 3188 -78 2472 -78 
Q 1731 -78 1267 223 
Q 803 525 561 1097 
Q 319 1669 319 2325 
Q 319 3041 592 3573 
Q 866 4106 1370 4382 
Q 1875 4659 2481 4659 
Q 3169 4659 3637 4309 
Q 4106 3959 4291 3325 
L 3694 3184 
Q 3534 3684 3231 3912 
Q 2928 4141 2469 4141 
Q 1941 4141 1586 3887 
Q 1231 3634 1087 3207 
Q 944 2781 944 2328 
Q 944 1744 1114 1308 
Q 1284 872 1643 656 
Q 2003 441 2422 441 
Q 2931 441 3284 734 
Q 3638 1028 3763 1606 
z
" transform="scale(0.015625)"/>
      <path id="ArialMT-3a" d="M 578 2678 
L 578 3319 
L 1219 3319 
L 1219 2678 
L 578 2678 
z
M 578 0 
L 578 641 
L 1219 641 
L 1219 0 
L 578 0 
z
" transform="scale(0.015625)"/>
      <path id="ArialMT-46" d="M 525 0 
L 525 4581 
L 3616 4581 
L 3616 4041 
L 1131 4041 
L 1131 2622 
L 3281 2622 
L 3281 2081 
L 1131 2081 
L 1131 0 
L 525 0 
z
" transform="scale(0.015625)"/>
      <path id="ArialMT-41" d="M -9 0 
L 1750 4581 
L 2403 4581 
L 4278 0 
L 3588 0 
L 3053 1388 
L 1138 1388 
L 634 0 
L -9 0 
z
M 1313 1881 
L 2866 1881 
L 2388 3150 
Q 2169 3728 2063 4100 
Q 1975 3659 1816 3225 
L 1313 1881 
z
" transform="scale(0.015625)"/>
      <path id="ArialMT-75" d="M 2597 0 
L 2597 488 
Q 2209 -75 1544 -75 
Q 1250 -75 995 37 
Q 741 150 617 320 
Q 494 491 444 738 
Q 409 903 409 1263 
L 409 3319 
L 972 3319 
L 972 1478 
Q 972 1038 1006 884 
Q 1059 663 1231 536 
Q 1403 409 1656 409 
Q 1909 409 2131 539 
Q 2353 669 2445 892 
Q 2538 1116 2538 1541 
L 2538 3319 
L 3100 3319 
L 3100 0 
L 2597 0 
z
" transform="scale(0.015625)"/>
      <path id="ArialMT-68" d="M 422 0 
L 422 4581 
L 984 4581 
L 984 2938 
Q 1378 3394 1978 3394 
Q 2347 3394 2619 3248 
Q 2891 3103 3008 2847 
Q 3125 2591 3125 2103 
L 3125 0 
L 2563 0 
L 2563 2103 
Q 2563 2525 2380 2717 
Q 2197 2909 1863 2909 
Q 1613 2909 1392 2779 
Q 1172 2650 1078 2428 
Q 984 2206 984 1816 
L 984 0 
L 422 0 
z
" transform="scale(0.015625)"/>
     </defs>
     <use xlink:href="#ArialMT-43"/>
     <use xlink:href="#ArialMT-61" transform="translate(72.216797 0)"/>
     <use xlink:href="#ArialMT-6c" transform="translate(127.832031 0)"/>
     <use xlink:href="#ArialMT-69" transform="translate(150.048828 0)"/>
     <use xlink:href="#ArialMT-62" transform="translate(172.265625 0)"/>
     <use xlink:href="#ArialMT-72" transform="translate(227.880859 0)"/>
     <use xlink:href="#ArialMT-61" transform="translate(261.181641 0)"/>
     <use xlink:href="#ArialMT-74" transform="translate(316.796875 0)"/>
     <use xlink:href="#ArialMT-69" transform="translate(344.580078 0)"/>
     <use xlink:href="#ArialMT-6f" transform="translate(366.796875 0)"/>
     <use xlink:href="#ArialMT-6e" transform="translate(422.412109 0)"/>
     <use xlink:href="#ArialMT-20" transform="translate(478.027344 0)"/>
     <use xlink:href="#ArialMT-50" transform="translate(505.810547 0)"/>
     <use xlink:href="#ArialMT-6c" transform="translate(572.509766 0)"/>
     <use xlink:href="#ArialMT-6f" transform="translate(594.726562 0)"/>
     <use xlink:href="#ArialMT-74" transform="translate(650.341797 0)"/>
     <use xlink:href="#ArialMT-3a" transform="translate(678.125 0)"/>
     <use xlink:href="#ArialMT-20" transform="translate(705.908203 0)"/>
     <use xlink:href="#ArialMT-46" transform="translate(733.691406 0)"/>
     <use xlink:href="#ArialMT-69" transform="translate(794.775391 0)"/>
     <use xlink:href="#ArialMT-72" transform="translate(816.992188 0)"/>
     <use xlink:href="#ArialMT-73" transform="translate(850.292969 0)"/>
     <use xlink:href="#ArialMT-74" transform="translate(900.292969 0)"/>
     <use xlink:href="#ArialMT-20" transform="translate(928.076172 0)"/>
     <use xlink:href="#ArialMT-41" transform="translate(950.359375 0)"/>
     <use xlink:href="#ArialMT-75" transform="translate(1017.058594 0)"/>
     <use xlink:href="#ArialMT-74" transform="translate(1072.673828 0)"/>
     <use xlink:href="#ArialMT-68" transform="translate(1100.457031 0)"/>
     <use xlink:href="#ArialMT-6f" transform="translate(1156.072266 0)"/>
     <use xlink:href="#ArialMT-72" transform="translate(1211.6875 0)"/>
     <use xlink:href="#ArialMT-73" transform="translate(1244.988281 0)"/>
     <use xlink:href="#ArialMT-68" transform="translate(1294.988281 0)"/>
     <use xlink:href="#ArialMT-69" transform="translate(1350.603516 0)"/>
     <use xlink:href="#ArialMT-70" transform="translate(1372.820312 0)"/>
    </g>
   </g>
   <g id="PathCollection_1">
    <path d="M 105.588153 310.687078 
C 106.953691 310.687078 108.263484 310.144544 109.229066 309.178963 
C 110.194647 308.213381 110.737182 306.903588 110.737182 305.538049 
C 110.737182 304.172511 110.194647 302.862717 109.229066 301.897136 
C 108.263484 300.931554 106.953691 300.38902 105.588153 300.38902 
C 104.222614 300.38902 102.912821 300.931554 101.947239 301.897136 
C 100.981658 302.862717 100.439124 304.172511 100.439124 305.538049 
C 100.439124 306.903588 100.981658 308.213381 101.947239 309.178963 
C 102.912821 310.144544 104.222614 310.687078 105.588153 310.687078 
z
" clip-path="url(#pb1932ff29a)" style="fill: #2563eb; fill-opacity: 0.7; stroke: #2563eb; stroke-opacity: 0.7"/>
    <path d="M 130.557439 277.820461 
C 131.927798 277.820461 133.242215 277.276012 134.211205 276.307022 
C 135.180194 275.338032 135.724644 274.023615 135.724644 272.653257 
C 135.724644 271.282898 135.180194 269.968481 134.211205 268.999491 
C 133.242215 268.030502 131.927798 267.486052 130.557439 267.486052 
C 129.187081 267.486052 127.872664 268.030502 126.903674 268.999491 
C 125.934684 269.968481 125.390235 271.282898 125.390235 272.653257 
C 125.390235 274.023615 125.934684 275.338032 126.903674 276.307022 
C 127.872664 277.276012 129.187081 277.820461 130.557439 277.820461 
z
" clip-path="url(#pb1932ff29a)" style="fill: #2563eb; fill-opacity: 0.7; stroke: #2563eb; stroke-opacity: 0.7"/>
    <path d="M 149.609975 246.715749 
C 150.97003 246.715749 152.274563 246.175393 153.236267 245.213689 
C 154.197971 244.251985 154.738327 242.947451 154.738327 241.587396 
C 154.738327 240.227341 154.197971 238.922807 153.236267 237.961103 
C 152.274563 236.999399 150.97003 236.459043 149.609975 236.459043 
C 148.24992 236.459043 146.945386 236.999399 145.983682 237.961103 
C 145.021978 238.922807 144.481622 240.227341 144.481622 241.587396 
C 144.481622 242.947451 145.021978 244.251985 145.983682 245.213689 
C 146.945386 246.175393 148.24992 246.715749 149.609975 246.715749 
z
" clip-path="url(#pb1932ff29a)" style="fill: #2563eb; fill-opacity: 0.7; stroke: #2563eb; stroke-opacity: 0.7"/>
    <path d="M 169.753613 226.225748 
C 171.118829 226.225748 172.428314 225.683342 173.393668 224.717988 
C 174.359022 223.752634 174.901428 222.44315 174.901428 221.077933 
C 174.901428 219.712717 174.359022 218.403232 173.393668 217.437878 
C 172.428314 216.472525 171.118829 215.930118 169.753613 215.930118 
C 168.388396 215.930118 167.078912 216.472525 166.113558 217.437878 
C 165.148204 218.403232 164.605798 219.712717 164.605798 221.077933 
C 164.605798 222.44315 165.148204 223.752634 166.113558 224.717988 
C 167.078912 225.683342 168.388396 226.225748 169.753613 226.225748 
z
" clip-path="url(#pb1932ff29a)" style="fill: #2563eb; fill-opacity: 0.7; stroke: #2563eb; stroke-opacity: 0.7"/>
    <path d="M 188.573264 219.154405 
C 189.938803 219.154405 191.248596 218.611871 192.214178 217.646289 
C 193.179759 216.680708 193.722294 215.370914 193.722294 214.005376 
C 193.722294 212.639837 193.179759 211.330044 192.214178 210.364463 
C 191.248596 209.398881 189.938803 208.856347 188.573264 208.856347 
C 187.207726 208.856347 185.897933 209.398881 184.932351 210.364463 
C 183.96677 211.330044 183.424235 212.639837 183.424235 214.005376 
C 183.424235 215.370914 183.96677 216.680708 184.932351 217.646289 
C 185.897933 218.611871 187.207726 219.154405 188.573264 219.154405 
z
" clip-path="url(#pb1932ff29a)" style="fill: #2563eb; fill-opacity: 0.7; stroke: #2563eb; stroke-opacity: 0.7"/>
    <path d="M 203.824541 195.487078 
C 205.19008 195.487078 206.499873 194.944544 207.465454 193.978963 
C 208.431036 193.013381 208.97357 191.703588 208.97357 190.338049 
C 208.97357 188.972511 208.431036 187.662717 207.465454 186.697136 
C 206.499873 185.731554 205.19008 185.18902 203.824541 185.18902 
C 202.459003 185.18902 201.149209 185.731554 200.183628 186.697136 
C 199.218046 187.662717 198.675512 188.972511 198.675512 190.338049 
C 198.675512 191.703588 199.218046 193.013381 200.183628 193.978963 
C 201.149209 194.944544 202.459003 195.487078 203.824541 195.487078 
z
" clip-path="url(#pb1932ff29a)" style="fill: #2563eb; fill-opacity: 0.7; stroke: #2563eb; stroke-opacity: 0.7"/>
    <path d="M 217.853942 184.710465 
C 219.226864 184.710465 220.54374 184.164998 221.514543 183.194195 
C 222.485345 182.223392 223.030813 180.906516 223.030813 179.533594 
C 223.030813 178.160671 222.485345 176.843795 221.514543 175.872993 
C 220.54374 174.90219 219.226864 174.356722 217.853942 174.356722 
C 216.481019 174.356722 215.164143 174.90219 214.193341 175.872993 
C 213.222538 176.843795 212.67707 178.160671 212.67707 179.533594 
C 212.67707 180.906516 213.222538 182.223392 214.193341 183.194195 
C 215.164143 184.164998 216.481019 184.710465 217.853942 184.710465 
z
" clip-path="url(#pb1932ff29a)" style="fill: #2563eb; fill-opacity: 0.7; stroke: #2563eb; stroke-opacity: 0.7"/>
    <path d="M 231.442088 178.584021 
C 232.799231 178.584021 234.100972 178.044822 235.060617 177.085177 
C 236.020262 176.125532 236.559461 174.823792 236.559461 173.466649 
C 236.559461 172.109506 236.020262 170.807765 235.060617 169.84812 
C 234.100972 168.888475 232.799231 168.349276 231.442088 168.349276 
C 230.084945 168.349276 228.783205 168.888475 227.82356 169.84812 
C 226.863914 170.807765 226.324716 172.109506 226.324716 173.466649 
C 226.324716 174.823792 226.863914 176.125532 227.82356 177.085177 
C 228.783205 178.044822 230.084945 178.584021 231.442088 178.584021 
z
" clip-path="url(#pb1932ff29a)" style="fill: #2563eb; fill-opacity: 0.7; stroke: #2563eb; stroke-opacity: 0.7"/>
    <path d="M 246.273204 163.247373 
C 247.652833 163.247373 248.976143 162.699241 249.951688 161.723695 
C 250.927234 160.74815 251.475367 159.42484 251.475367 158.04521 
C 251.475367 156.665581 250.927234 155.342271 249.951688 154.366726 
C 248.976143 153.39118 247.652833 152.843047 246.273204 152.843047 
C 244.893574 152.843047 243.570265 153.39118 242.594719 154.366726 
C 241.619173 155.342271 241.071041 156.665581 241.071041 158.04521 
C 241.071041 159.42484 241.619173 160.74815 242.594719 161.723695 
C 243.570265 162.699241 244.893574 163.247373 246.273204 163.247373 
z
" clip-path="url(#pb1932ff29a)" style="fill: #2563eb; fill-opacity: 0.7; stroke: #2563eb; stroke-opacity: 0.7"/>
    <path d="M 268.560485 145.57135 
C 269.91146 145.57135 271.207284 145.034602 272.162568 144.079318 
C 273.117851 143.124035 273.654599 141.82821 273.654599 140.477235 
C 273.654599 139.12626 273.117851 137.830436 272.162568 136.875153 
C 271.207284 135.919869 269.91146 135.383121 268.560485 135.383121 
C 267.20951 135.383121 265.913686 135.919869 264.958402 136.875153 
C 264.003119 137.830436 263.466371 139.12626 263.466371 140.477235 
C 263.466371 141.82821 264.003119 143.124035 264.958402 144.079318 
C 265.913686 145.034602 267.20951 145.57135 268.560485 145.57135 
z
" clip-path="url(#pb1932ff29a)" style="fill: #2563eb; fill-opacity: 0.7; stroke: #2563eb; stroke-opacity: 0.7"/>
   </g>
   <g id="legend_1">
    <g id="patch_5">
     <path d="M 52.318125 47.023437 
L 175.555937 47.023437 
Q 177.755937 47.023437 177.755937 44.823437 
L 177.755937 30.363594 
Q 177.755937 28.163594 175.555937 28.163594 
L 52.318125 28.163594 
Q 50.118125 28.163594 50.118125 30.363594 
L 50.118125 44.823437 
Q 50.118125 47.023437 52.318125 47.023437 
z
" style="fill: #ffffff; opacity: 0.8; stroke: #cccccc; stroke-linejoin: miter"/>
    </g>
    <g id="line2d_14">
     <path d="M 54.518125 36.587187 
L 65.518125 36.587187 
L 76.518125 36.587187 
" style="fill: none; stroke-dasharray: 5.55,2.4; stroke-dashoffset: 0; stroke: #000000; stroke-opacity: 0.3; stroke-width: 1.5"/>
    </g>
    <g id="text_16">
     <!-- Perfect calibration -->
     <g transform="translate(85.318125 40.437187) scale(0.11 -0.11)">
      <defs>
       <path id="ArialMT-66" d="M 556 0 
L 556 2881 
L 59 2881 
L 59 3319 
L 556 3319 
L 556 3672 
Q 556 4006 616 4169 
Q 697 4388 901 4523 
Q 1106 4659 1475 4659 
Q 1713 4659 2000 4603 
L 1916 4113 
Q 1741 4144 1584 4144 
Q 1328 4144 1222 4034 
Q 1116 3925 1116 3625 
L 1116 3319 
L 1763 3319 
L 1763 2881 
L 1116 2881 
L 1116 0 
L 556 0 
z
" transform="scale(0.015625)"/>
      </defs>
      <use xlink:href="#ArialMT-50"/>
      <use xlink:href="#ArialMT-65" transform="translate(66.699219 0)"/>
      <use xlink:href="#ArialMT-72" transform="translate(122.314453 0)"/>
      <use xlink:href="#ArialMT-66" transform="translate(155.615234 0)"/>
      <use xlink:href="#ArialMT-65" transform="translate(183.398438 0)"/>
      <use xlink:href="#ArialMT-63" transform="translate(239.013672 0)"/>
      <use xlink:href="#ArialMT-74" transform="translate(289.013672 0)"/>
      <use xlink:href="#ArialMT-20" transform="translate(316.796875 0)"/>
      <use xlink:href="#ArialMT-63" transform="translate(344.580078 0)"/>
      <use xlink:href="#ArialMT-61" transform="translate(394.580078 0)"/>
      <use xlink:href="#ArialMT-6c" transform="translate(450.195312 0)"/>
      <use xlink:href="#ArialMT-69" transform="translate(472.412109 0)"/>
      <use xlink:href="#ArialMT-62" transform="translate(494.628906 0)"/>
      <use xlink:href="#ArialMT-72" transform="translate(550.244141 0)"/>
      <use xlink:href="#ArialMT-61" transform="translate(583.544922 0)"/>
      <use xlink:href="#ArialMT-74" transform="translate(639.160156 0)"/>
      <use xlink:href="#ArialMT-69" transform="translate(666.943359 0)"/>
      <use xlink:href="#ArialMT-6f" transform="translate(689.160156 0)"/>
      <use xlink:href="#ArialMT-6e" transform="translate(744.775391 0)"/>
     </g>
    </g>
   </g>
  </g>
 </g>
 <defs>
  <clipPath id="pb1932ff29a">
   <rect x="44.618125" y="22.663594" width="334.8" height="332.64"/>
  </clipPath>
 </defs>
</svg>
