<?xml version="1.0" encoding="utf-8" standalone="no"?>
<!DOCTYPE svg PUBLIC "-//W3C//DTD SVG 1.1//EN"
  "http://www.w3.org/Graphics/SVG/1.1/DTD/svg11.dtd">
<svg xmlns:xlink="http://www.w3.org/1999/xlink" width="386.464375pt" height="394.545937pt" viewBox="0 0 386.464375 394.545937" xmlns="http://www.w3.org/2000/svg" version="1.1">
 <metadata>
  <rdf:RDF xmlns:dc="http://purl.org/dc/elements/1.1/" xmlns:cc="http://creativecommons.org/ns#" xmlns:rdf="http://www.w3.org/1999/02/22-rdf-syntax-ns#">
   <cc:Work>
    <dc:type rdf:resource="http://purl.org/dc/dcmitype/StillImage"/>
    <dc:date>2026-04-13T22:29:53.895654</dc:date>
    <dc:format>image/svg+xml</dc:format>
    <dc:creator>
     <cc:Agent>
      <dc:title>Matplotlib v3.10.8, https://matplotlib.org/</dc:title>
     </cc:Agent>
    </dc:creator>
   </cc:Work>
  </rdf:RDF>
 </metadata>
 <defs>
  <style type="text/css">*{stroke-linejoin: round; stroke-linecap: butt}</style>
 </defs>
 <g id="figure_1">
  <g id="patch_1">
   <path d="M 0 394.545937 
L 386.464375 394.545937 
L 386.464375 0 
L 0 0 
z
" style="fill: #ffffff"/>
  </g>
  <g id="axes_1">
   <g id="patch_2">
    <path d="M 44.464375 355.311719 
L 379.264375 355.311719 
L 379.264375 22.671719 
L 44.464375 22.671719 
z
" style="fill: #ffffff"/>
   </g>
   <g id="matplotlib.axis_1">
    <g id="xtick_1">
     <g id="line2d_1">
      <defs>
       <path id="mf2bb9c200a" d="M 0 0 
L 0 3.5 
" style="stroke: #000000; stroke-width: 0.8"/>
      </defs>
      <g>
       <use xlink:href="#mf2bb9c200a" x="59.682557" y="355.311719" style="stroke: #000000; stroke-width: 0.8"/>
      </g>
     </g>
     <g id="text_1">
      <!-- 0.0 -->
      <g transform="translate(52.037557 370.185312) scale(0.11 -0.11)">
       <defs>
        <path id="ArialMT-30" d="M 266 2259 
Q 266 3072 433 3567 
Q 600 4063 929 4331 
Q 1259 4600 1759 4600 
Q 2128 4600 2406 4451 
Q 2684 4303 2865 4023 
Q 3047 3744 3150 3342 
Q 3253 2941 3253 2259 
Q 3253 1453 3087 958 
Q 2922 463 2592 192 
Q 2263 -78 1759 -78 
Q 1097 -78 719 397 
Q 266 969 266 2259 
z
M 844 2259 
Q 844 1131 1108 757 
Q 1372 384 1759 384 
Q 2147 384 2411 759 
Q 2675 1134 2675 2259 
Q 2675 3391 2411 3762 
Q 2147 4134 1753 4134 
Q 1366 4134 1134 3806 
Q 844 3388 844 2259 
z
" transform="scale(0.015625)"/>
        <path id="ArialMT-2e" d="M 581 0 
L 581 641 
L 1222 641 
L 1222 0 
L 581 0 
z
" transform="scale(0.015625)"/>
       </defs>
       <use xlink:href="#ArialMT-30"/>
       <use xlink:href="#ArialMT-2e" transform="translate(55.615234 0)"/>
       <use xlink:href="#ArialMT-30" transform="translate(83.398438 0)"/>
      </g>
     </g>
    </g>
    <g id="xtick_2">
     <g id="line2d_2">
      <g>
       <use xlink:href="#mf2bb9c200a" x="120.555284" y="355.311719" style="stroke: #000000; stroke-width: 0.8"/>
      </g>
     </g>
     <g id="text_2">
      <!-- 0.2 -->
      <g transform="translate(112.910284 370.185312) scale(0.11 -0.11)">
       <defs>
        <path id="ArialMT-32" d="M 3222 541 
L 3222 0 
L 194 0 
Q 188 203 259 391 
Q 375 700 629 1000 
Q 884 1300 1366 1694 
Q 2113 2306 2375 2664 
Q 2638 3022 2638 3341 
Q 2638 3675 2398 3904 
Q 2159 4134 1775 4134 
Q 1369 4134 1125 3890 
Q 881 3647 878 3216 
L 300 3275 
Q 359 3922 746 4261 
Q 1134 4600 1788 4600 
Q 2447 4600 2831 4234 
Q 3216 3869 3216 3328 
Q 3216 3053 3103 2787 
Q 2991 2522 2730 2228 
Q 2469 1934 1863 1422 
Q 1356 997 1212 845 
Q 1069 694 975 541 
L 3222 541 
z
" transform="scale(0.015625)"/>
       </defs>
       <use xlink:href="#ArialMT-30"/>
       <use xlink:href="#ArialMT-2e" transform="translate(55.615234 0)"/>
       <use xlink:href="#ArialMT-32" transform="translate(83.398438 0)"/>
      </g>
     </g>
    </g>
    <g id="xtick_3">
     <g id="line2d_3">
      <g>
       <use xlink:href="#mf2bb9c200a" x="181.428011" y="355.311719" style="stroke: #000000; stroke-width: 0.8"/>
      </g>
     </g>
     <g id="text_3">
      <!-- 0.4 -->
      <g transform="translate(173.783011 370.185312) scale(0.11 -0.11)">
       <defs>
        <path id="ArialMT-34" d="M 2069 0 
L 2069 1097 
L 81 1097 
L 81 1613 
L 2172 4581 
L 2631 4581 
L 2631 1613 
L 3250 1613 
L 3250 1097 
L 2631 1097 
L 2631 0 
L 2069 0 
z
M 2069 1613 
L 2069 3678 
L 634 1613 
L 2069 1613 
z
" transform="scale(0.015625)"/>
       </defs>
       <use xlink:href="#ArialMT-30"/>
       <use xlink:href="#ArialMT-2e" transform="translate(55.615234 0)"/>
       <use xlink:href="#ArialMT-34" transform="translate(83.398438 0)"/>
      </g>
     </g>
    </g>
    <g id="xtick_4">
     <g id="line2d_4">
      <g>
       <use xlink:href="#mf2bb9c200a" x="242.300739" y="355.311719" style="stroke: #000000; stroke-width: 0.8"/>
      </g>
     </g>
     <g id="text_4">
      <!-- 0.6 -->
      <g transform="translate(234.655739 370.185312) scale(0.11 -0.11)">
       <defs>
        <path id="ArialMT-36" d="M 3184 3459 
L 2625 3416 
Q 2550 3747 2413 3897 
Q 2184 4138 1850 4138 
Q 1581 4138 1378 3988 
Q 1113 3794 959 3422 
Q 806 3050 800 2363 
Q 1003 2672 1297 2822 
Q 1591 2972 1913 2972 
Q 2475 2972 2870 2558 
Q 3266 2144 3266 1488 
Q 3266 1056 3080 686 
Q 2894 316 2569 119 
Q 2244 -78 1831 -78 
Q 1128 -78 684 439 
Q 241 956 241 2144 
Q 241 3472 731 4075 
Q 1159 4600 1884 4600 
Q 2425 4600 2770 4297 
Q 3116 3994 3184 3459 
z
M 888 1484 
Q 888 1194 1011 928 
Q 1134 663 1356 523 
Q 1578 384 1822 384 
Q 2178 384 2434 671 
Q 2691 959 2691 1453 
Q 2691 1928 2437 2201 
Q 2184 2475 1800 2475 
Q 1419 2475 1153 2201 
Q 888 1928 888 1484 
z
" transform="scale(0.015625)"/>
       </defs>
       <use xlink:href="#ArialMT-30"/>
       <use xlink:href="#ArialMT-2e" transform="translate(55.615234 0)"/>
       <use xlink:href="#ArialMT-36" transform="translate(83.398438 0)"/>
      </g>
     </g>
    </g>
    <g id="xtick_5">
     <g id="line2d_5">
      <g>
       <use xlink:href="#mf2bb9c200a" x="303.173466" y="355.311719" style="stroke: #000000; stroke-width: 0.8"/>
      </g>
     </g>
     <g id="text_5">
      <!-- 0.8 -->
      <g transform="translate(295.528466 370.185312) scale(0.11 -0.11)">
       <defs>
        <path id="ArialMT-38" d="M 1131 2484 
Q 781 2613 612 2850 
Q 444 3088 444 3419 
Q 444 3919 803 4259 
Q 1163 4600 1759 4600 
Q 2359 4600 2725 4251 
Q 3091 3903 3091 3403 
Q 3091 3084 2923 2848 
Q 2756 2613 2416 2484 
Q 2838 2347 3058 2040 
Q 3278 1734 3278 1309 
Q 3278 722 2862 322 
Q 2447 -78 1769 -78 
Q 1091 -78 675 323 
Q 259 725 259 1325 
Q 259 1772 486 2073 
Q 713 2375 1131 2484 
z
M 1019 3438 
Q 1019 3113 1228 2906 
Q 1438 2700 1772 2700 
Q 2097 2700 2305 2904 
Q 2513 3109 2513 3406 
Q 2513 3716 2298 3927 
Q 2084 4138 1766 4138 
Q 1444 4138 1231 3931 
Q 1019 3725 1019 3438 
z
M 838 1322 
Q 838 1081 952 856 
Q 1066 631 1291 507 
Q 1516 384 1775 384 
Q 2178 384 2440 643 
Q 2703 903 2703 1303 
Q 2703 1709 2433 1975 
Q 2163 2241 1756 2241 
Q 1359 2241 1098 1978 
Q 838 1716 838 1322 
z
" transform="scale(0.015625)"/>
       </defs>
       <use xlink:href="#ArialMT-30"/>
       <use xlink:href="#ArialMT-2e" transform="translate(55.615234 0)"/>
       <use xlink:href="#ArialMT-38" transform="translate(83.398438 0)"/>
      </g>
     </g>
    </g>
    <g id="xtick_6">
     <g id="line2d_6">
      <g>
       <use xlink:href="#mf2bb9c200a" x="364.046193" y="355.311719" style="stroke: #000000; stroke-width: 0.8"/>
      </g>
     </g>
     <g id="text_6">
      <!-- 1.0 -->
      <g transform="translate(356.401193 370.185312) scale(0.11 -0.11)">
       <defs>
        <path id="ArialMT-31" d="M 2384 0 
L 1822 0 
L 1822 3584 
Q 1619 3391 1289 3197 
Q 959 3003 697 2906 
L 697 3450 
Q 1169 3672 1522 3987 
Q 1875 4303 2022 4600 
L 2384 4600 
L 2384 0 
z
" transform="scale(0.015625)"/>
       </defs>
       <use xlink:href="#ArialMT-31"/>
       <use xlink:href="#ArialMT-2e" transform="translate(55.615234 0)"/>
       <use xlink:href="#ArialMT-30" transform="translate(83.398438 0)"/>
      </g>
     </g>
    </g>
    <g id="text_7">
     <!-- False Positive Rate -->
     <g transform="translate(160.178125 384.960937) scale(0.12 -0.12)">
      <defs>
       <path id="ArialMT-46" d="M 525 0 
L 525 4581 
L 3616 4581 
L 3616 4041 
L 1131 4041 
L 1131 2622 
L 3281 2622 
L 3281 2081 
L 1131 2081 
L 1131 0 
L 525 0 
z
" transform="scale(0.015625)"/>
       <path id="ArialMT-61" d="M 2588 409 
Q 2275 144 1986 34 
Q 1697 -75 1366 -75 
Q 819 -75 525 192 
Q 231 459 231 875 
Q 231 1119 342 1320 
Q 453 1522 633 1644 
Q 813 1766 1038 1828 
Q 1203 1872 1538 1913 
Q 2219 1994 2541 2106 
Q 2544 2222 2544 2253 
Q 2544 2597 2384 2738 
Q 2169 2928 1744 2928 
Q 1347 2928 1158 2789 
Q 969 2650 878 2297 
L 328 2372 
Q 403 2725 575 2942 
Q 747 3159 1072 3276 
Q 1397 3394 1825 3394 
Q 2250 3394 2515 3294 
Q 2781 3194 2906 3042 
Q 3031 2891 3081 2659 
Q 3109 2516 3109 2141 
L 3109 1391 
Q 3109 606 3145 398 
Q 3181 191 3288 0 
L 2700 0 
Q 2613 175 2588 409 
z
M 2541 1666 
Q 2234 1541 1622 1453 
Q 1275 1403 1131 1340 
Q 988 1278 909 1158 
Q 831 1038 831 891 
Q 831 666 1001 516 
Q 1172 366 1500 366 
Q 1825 366 2078 508 
Q 2331 650 2450 897 
Q 2541 1088 2541 1459 
L 2541 1666 
z
" transform="scale(0.015625)"/>
       <path id="ArialMT-6c" d="M 409 0 
L 409 4581 
L 972 4581 
L 972 0 
L 409 0 
z
" transform="scale(0.015625)"/>
       <path id="ArialMT-73" d="M 197 991 
L 753 1078 
Q 800 744 1014 566 
Q 1228 388 1613 388 
Q 2000 388 2187 545 
Q 2375 703 2375 916 
Q 2375 1106 2209 1216 
Q 2094 1291 1634 1406 
Q 1016 1563 777 1677 
Q 538 1791 414 1992 
Q 291 2194 291 2438 
Q 291 2659 392 2848 
Q 494 3038 669 3163 
Q 800 3259 1026 3326 
Q 1253 3394 1513 3394 
Q 1903 3394 2198 3281 
Q 2494 3169 2634 2976 
Q 2775 2784 2828 2463 
L 2278 2388 
Q 2241 2644 2061 2787 
Q 1881 2931 1553 2931 
Q 1166 2931 1000 2803 
Q 834 2675 834 2503 
Q 834 2394 903 2306 
Q 972 2216 1119 2156 
Q 1203 2125 1616 2013 
Q 2213 1853 2448 1751 
Q 2684 1650 2818 1456 
Q 2953 1263 2953 975 
Q 2953 694 2789 445 
Q 2625 197 2315 61 
Q 2006 -75 1616 -75 
Q 969 -75 630 194 
Q 291 463 197 991 
z
" transform="scale(0.015625)"/>
       <path id="ArialMT-65" d="M 2694 1069 
L 3275 997 
Q 3138 488 2766 206 
Q 2394 -75 1816 -75 
Q 1088 -75 661 373 
Q 234 822 234 1631 
Q 234 2469 665 2931 
Q 1097 3394 1784 3394 
Q 2450 3394 2872 2941 
Q 3294 2488 3294 1666 
Q 3294 1616 3291 1516 
L 816 1516 
Q 847 969 1125 678 
Q 1403 388 1819 388 
Q 2128 388 2347 550 
Q 2566 713 2694 1069 
z
M 847 1978 
L 2700 1978 
Q 2663 2397 2488 2606 
Q 2219 2931 1791 2931 
Q 1403 2931 1139 2672 
Q 875 2413 847 1978 
z
" transform="scale(0.015625)"/>
       <path id="ArialMT-20" transform="scale(0.015625)"/>
       <path id="ArialMT-50" d="M 494 0 
L 494 4581 
L 2222 4581 
Q 2678 4581 2919 4538 
Q 3256 4481 3484 4323 
Q 3713 4166 3852 3881 
Q 3991 3597 3991 3256 
Q 3991 2672 3619 2267 
Q 3247 1863 2275 1863 
L 1100 1863 
L 1100 0 
L 494 0 
z
M 1100 2403 
L 2284 2403 
Q 2872 2403 3119 2622 
Q 3366 2841 3366 3238 
Q 3366 3525 3220 3729 
Q 3075 3934 2838 4000 
Q 2684 4041 2272 4041 
L 1100 4041 
L 1100 2403 
z
" transform="scale(0.015625)"/>
       <path id="ArialMT-6f" d="M 213 1659 
Q 213 2581 725 3025 
Q 1153 3394 1769 3394 
Q 2453 3394 2887 2945 
Q 3322 2497 3322 1706 
Q 3322 1066 3130 698 
Q 2938 331 2570 128 
Q 2203 -75 1769 -75 
Q 1072 -75 642 372 
Q 213 819 213 1659 
z
M 791 1659 
Q 791 1022 1069 705 
Q 1347 388 1769 388 
Q 2188 388 2466 706 
Q 2744 1025 2744 1678 
Q 2744 2294 2464 2611 
Q 2184 2928 1769 2928 
Q 1347 2928 1069 2612 
Q 791 2297 791 1659 
z
" transform="scale(0.015625)"/>
       <path id="ArialMT-69" d="M 425 3934 
L 425 4581 
L 988 4581 
L 988 3934 
L 425 3934 
z
M 425 0 
L 425 3319 
L 988 3319 
L 988 0 
L 425 0 
z
" transform="scale(0.015625)"/>
       <path id="ArialMT-74" d="M 1650 503 
L 1731 6 
Q 1494 -44 1306 -44 
Q 1000 -44 831 53 
Q 663 150 594 308 
Q 525 466 525 972 
L 525 2881 
L 113 2881 
L 113 3319 
L 525 3319 
L 525 4141 
L 1084 4478 
L 1084 3319 
L 1650 3319 
L 1650 2881 
L 1084 2881 
L 1084 941 
Q 1084 700 1114 631 
Q 1144 563 1211 522 
Q 1278 481 1403 481 
Q 1497 481 1650 503 
z
" transform="scale(0.015625)"/>
       <path id="ArialMT-76" d="M 1344 0 
L 81 3319 
L 675 3319 
L 1388 1331 
Q 1503 1009 1600 663 
Q 1675 925 1809 1294 
L 2547 3319 
L 3125 3319 
L 1869 0 
L 1344 0 
z
" transform="scale(0.015625)"/>
       <path id="ArialMT-52" d="M 503 0 
L 503 4581 
L 2534 4581 
Q 3147 4581 3465 4457 
Q 3784 4334 3975 4021 
Q 4166 3709 4166 3331 
Q 4166 2844 3850 2509 
Q 3534 2175 2875 2084 
Q 3116 1969 3241 1856 
Q 3506 1613 3744 1247 
L 4541 0 
L 3778 0 
L 3172 953 
Q 2906 1366 2734 1584 
Q 2563 1803 2427 1890 
Q 2291 1978 2150 2013 
Q 2047 2034 1813 2034 
L 1109 2034 
L 1109 0 
L 503 0 
z
M 1109 2559 
L 2413 2559 
Q 2828 2559 3062 2645 
Q 3297 2731 3419 2920 
Q 3541 3109 3541 3331 
Q 3541 3656 3305 3865 
Q 3069 4075 2559 4075 
L 1109 4075 
L 1109 2559 
z
" transform="scale(0.015625)"/>
      </defs>
      <use xlink:href="#ArialMT-46"/>
      <use xlink:href="#ArialMT-61" transform="translate(61.083984 0)"/>
      <use xlink:href="#ArialMT-6c" transform="translate(116.699219 0)"/>
      <use xlink:href="#ArialMT-73" transform="translate(138.916016 0)"/>
      <use xlink:href="#ArialMT-65" transform="translate(188.916016 0)"/>
      <use xlink:href="#ArialMT-20" transform="translate(244.53125 0)"/>
      <use xlink:href="#ArialMT-50" transform="translate(272.314453 0)"/>
      <use xlink:href="#ArialMT-6f" transform="translate(339.013672 0)"/>
      <use xlink:href="#ArialMT-73" transform="translate(394.628906 0)"/>
      <use xlink:href="#ArialMT-69" transform="translate(444.628906 0)"/>
      <use xlink:href="#ArialMT-74" transform="translate(466.845703 0)"/>
      <use xlink:href="#ArialMT-69" transform="translate(494.628906 0)"/>
      <use xlink:href="#ArialMT-76" transform="translate(516.845703 0)"/>
      <use xlink:href="#ArialMT-65" transform="translate(566.845703 0)"/>
      <use xlink:href="#ArialMT-20" transform="translate(622.460938 0)"/>
      <use xlink:href="#ArialMT-52" transform="translate(650.244141 0)"/>
      <use xlink:href="#ArialMT-61" transform="translate(722.460938 0)"/>
      <use xlink:href="#ArialMT-74" transform="translate(778.076172 0)"/>
      <use xlink:href="#ArialMT-65" transform="translate(805.859375 0)"/>
     </g>
    </g>
   </g>
   <g id="matplotlib.axis_2">
    <g id="ytick_1">
     <g id="line2d_7">
      <defs>
       <path id="mcba72fc6b3" d="M 0 0 
L -3.5 0 
" style="stroke: #000000; stroke-width: 0.8"/>
      </defs>
      <g>
       <use xlink:href="#mcba72fc6b3" x="44.464375" y="340.191719" style="stroke: #000000; stroke-width: 0.8"/>
      </g>
     </g>
     <g id="text_8">
      <!-- 0.0 -->
      <g transform="translate(22.174375 344.128516) scale(0.11 -0.11)">
       <use xlink:href="#ArialMT-30"/>
       <use xlink:href="#ArialMT-2e" transform="translate(55.615234 0)"/>
       <use xlink:href="#ArialMT-30" transform="translate(83.398438 0)"/>
      </g>
     </g>
    </g>
    <g id="ytick_2">
     <g id="line2d_8">
      <g>
       <use xlink:href="#mcba72fc6b3" x="44.464375" y="279.711719" style="stroke: #000000; stroke-width: 0.8"/>
      </g>
     </g>
     <g id="text_9">
      <!-- 0.2 -->
      <g transform="translate(22.174375 283.648516) scale(0.11 -0.11)">
       <use xlink:href="#ArialMT-30"/>
       <use xlink:href="#ArialMT-2e" transform="translate(55.615234 0)"/>
       <use xlink:href="#ArialMT-32" transform="translate(83.398438 0)"/>
      </g>
     </g>
    </g>
    <g id="ytick_3">
     <g id="line2d_9">
      <g>
       <use xlink:href="#mcba72fc6b3" x="44.464375" y="219.231719" style="stroke: #000000; stroke-width: 0.8"/>
      </g>
     </g>
     <g id="text_10">
      <!-- 0.4 -->
      <g transform="translate(22.174375 223.168516) scale(0.11 -0.11)">
       <use xlink:href="#ArialMT-30"/>
       <use xlink:href="#ArialMT-2e" transform="translate(55.615234 0)"/>
       <use xlink:href="#ArialMT-34" transform="translate(83.398438 0)"/>
      </g>
     </g>
    </g>
    <g id="ytick_4">
     <g id="line2d_10">
      <g>
       <use xlink:href="#mcba72fc6b3" x="44.464375" y="158.751719" style="stroke: #000000; stroke-width: 0.8"/>
      </g>
     </g>
     <g id="text_11">
      <!-- 0.6 -->
      <g transform="translate(22.174375 162.688516) scale(0.11 -0.11)">
       <use xlink:href="#ArialMT-30"/>
       <use xlink:href="#ArialMT-2e" transform="translate(55.615234 0)"/>
       <use xlink:href="#ArialMT-36" transform="translate(83.398438 0)"/>
      </g>
     </g>
    </g>
    <g id="ytick_5">
     <g id="line2d_11">
      <g>
       <use xlink:href="#mcba72fc6b3" x="44.464375" y="98.271719" style="stroke: #000000; stroke-width: 0.8"/>
      </g>
     </g>
     <g id="text_12">
      <!-- 0.8 -->
      <g transform="translate(22.174375 102.208516) scale(0.11 -0.11)">
       <use xlink:href="#ArialMT-30"/>
       <use xlink:href="#ArialMT-2e" transform="translate(55.615234 0)"/>
       <use xlink:href="#ArialMT-38" transform="translate(83.398438 0)"/>
      </g>
     </g>
    </g>
    <g id="ytick_6">
     <g id="line2d_12">
      <g>
       <use xlink:href="#mcba72fc6b3" x="44.464375" y="37.791719" style="stroke: #000000; stroke-width: 0.8"/>
      </g>
     </g>
     <g id="text_13">
      <!-- 1.0 -->
      <g transform="translate(22.174375 41.728516) scale(0.11 -0.11)">
       <use xlink:href="#ArialMT-31"/>
       <use xlink:href="#ArialMT-2e" transform="translate(55.615234 0)"/>
       <use xlink:href="#ArialMT-30" transform="translate(83.398438 0)"/>
      </g>
     </g>
    </g>
    <g id="text_14">
     <!-- True Positive Rate -->
     <g transform="translate(15.789375 238.117656) rotate(-90) scale(0.12 -0.12)">
      <defs>
       <path id="ArialMT-54" d="M 1659 0 
L 1659 4041 
L 150 4041 
L 150 4581 
L 3781 4581 
L 3781 4041 
L 2266 4041 
L 2266 0 
L 1659 0 
z
" transform="scale(0.015625)"/>
       <path id="ArialMT-72" d="M 416 0 
L 416 3319 
L 922 3319 
L 922 2816 
Q 1116 3169 1280 3281 
Q 1444 3394 1641 3394 
Q 1925 3394 2219 3213 
L 2025 2691 
Q 1819 2813 1613 2813 
Q 1428 2813 1281 2702 
Q 1134 2591 1072 2394 
Q 978 2094 978 1738 
L 978 0 
L 416 0 
z
" transform="scale(0.015625)"/>
       <path id="ArialMT-75" d="M 2597 0 
L 2597 488 
Q 2209 -75 1544 -75 
Q 1250 -75 995 37 
Q 741 150 617 320 
Q 494 491 444 738 
Q 409 903 409 1263 
L 409 3319 
L 972 3319 
L 972 1478 
Q 972 1038 1006 884 
Q 1059 663 1231 536 
Q 1403 409 1656 409 
Q 1909 409 2131 539 
Q 2353 669 2445 892 
Q 2538 1116 2538 1541 
L 2538 3319 
L 3100 3319 
L 3100 0 
L 2597 0 
z
" transform="scale(0.015625)"/>
      </defs>
      <use xlink:href="#ArialMT-54"/>
      <use xlink:href="#ArialMT-72" transform="translate(57.333984 0)"/>
      <use xlink:href="#ArialMT-75" transform="translate(90.634766 0)"/>
      <use xlink:href="#ArialMT-65" transform="translate(146.25 0)"/>
      <use xlink:href="#ArialMT-20" transform="translate(201.865234 0)"/>
      <use xlink:href="#ArialMT-50" transform="translate(229.648438 0)"/>
      <use xlink:href="#ArialMT-6f" transform="translate(296.347656 0)"/>
      <use xlink:href="#ArialMT-73" transform="translate(351.962891 0)"/>
      <use xlink:href="#ArialMT-69" transform="translate(401.962891 0)"/>
      <use xlink:href="#ArialMT-74" transform="translate(424.179688 0)"/>
      <use xlink:href="#ArialMT-69" transform="translate(451.962891 0)"/>
      <use xlink:href="#ArialMT-76" transform="translate(474.179688 0)"/>
      <use xlink:href="#ArialMT-65" transform="translate(524.179688 0)"/>
      <use xlink:href="#ArialMT-20" transform="translate(579.794922 0)"/>
      <use xlink:href="#ArialMT-52" transform="translate(607.578125 0)"/>
      <use xlink:href="#ArialMT-61" transform="translate(679.794922 0)"/>
      <use xlink:href="#ArialMT-74" transform="translate(735.410156 0)"/>
      <use xlink:href="#ArialMT-65" transform="translate(763.193359 0)"/>
     </g>
    </g>
   </g>
   <g id="line2d_13">
    <path d="M 59.682557 340.191719 
L 59.731251 340.191719 
L 59.731251 340.087467 
L 60.242541 338.871195 
L 60.437318 338.419437 
L 60.51036 337.654923 
L 60.534707 337.654923 
L 61.19208 336.786157 
L 61.459898 336.021643 
L 61.971188 335.152877 
L 62.068577 334.423114 
L 62.458131 333.693351 
L 62.969421 332.060071 
L 63.06681 331.156554 
L 63.212893 330.739547 
L 63.821571 328.619758 
L 63.821571 328.480756 
L 63.845918 328.480756 
L 64.138084 327.438237 
L 64.25982 327.229733 
L 64.25982 327.160232 
L 64.503291 326.49997 
L 64.77111 326.291466 
L 64.94154 325.804957 
L 64.990234 325.596453 
L 65.45283 324.31068 
L 66.110203 322.885904 
L 66.158897 322.781652 
L 66.231938 322.434146 
L 66.256285 322.434146 
L 66.280633 322.399395 
L 68.082321 317.847062 
L 69.129248 316.63079 
L 69.445761 315.970528 
L 69.616191 315.623022 
L 70.56573 313.503233 
L 70.687466 313.364231 
L 70.784854 312.877722 
L 71.24745 312.078457 
L 71.490921 311.244442 
L 71.710046 310.653682 
L 71.783087 310.02817 
L 72.002211 309.576412 
L 72.635237 307.699878 
L 72.854361 307.352371 
L 73.195221 306.72686 
L 73.341304 306.692109 
L 73.341304 306.657359 
L 73.389998 306.414104 
L 73.63347 306.101349 
L 73.657817 305.892845 
L 73.730858 305.892845 
L 73.925636 305.336835 
L 74.339537 304.572321 
L 74.363884 304.363817 
L 75.33777 301.583767 
L 75.362117 301.375263 
L 75.581241 300.923505 
L 76.311656 299.950487 
L 76.384697 299.672482 
L 77.236847 297.622195 
L 77.236847 297.413691 
L 77.577707 297.170436 
L 77.869873 296.371172 
L 78.381163 295.676159 
L 78.478551 295.432905 
L 78.527246 295.432905 
L 78.527246 295.363403 
L 78.527246 295.224401 
L 79.184618 294.286134 
L 79.208966 294.147131 
L 79.866338 292.583353 
L 80.182851 292.027343 
L 80.864571 290.394063 
L 81.521944 289.6643 
L 81.546291 289.351544 
L 82.15497 288.135272 
L 82.252359 287.892018 
L 82.885384 287.370758 
L 83.542757 285.007715 
L 83.956659 284.521206 
L 84.0297 284.104199 
L 84.102741 283.895695 
L 84.248824 283.895695 
L 84.248824 283.791443 
L 84.565337 283.09643 
L 84.565337 282.853176 
L 85.39314 281.602153 
L 85.441834 281.602153 
L 85.56357 281.150395 
L 85.636611 280.768138 
L 86.026166 280.35113 
L 86.07486 280.31638 
L 86.391373 279.76037 
L 87.146134 278.161841 
L 87.170481 278.092339 
L 87.389606 278.092339 
L 87.706119 277.432077 
L 87.827854 277.397327 
L 87.827854 277.362576 
L 87.925243 276.980319 
L 87.94959 276.980319 
L 87.94959 276.876067 
L 88.753046 274.895281 
L 89.507807 273.887513 
L 90.579081 272.462737 
L 90.603429 272.393236 
L 90.773859 272.149981 
L 91.163413 271.315966 
L 91.212107 271.315966 
L 91.212107 271.281215 
L 91.212107 271.037961 
L 91.626009 270.273447 
L 92.648589 268.22316 
L 92.745977 267.806152 
L 92.89206 267.7019 
L 92.989449 267.458646 
L 93.038143 267.458646 
L 93.038143 267.423895 
L 93.038143 267.319643 
L 93.695516 266.207623 
L 93.841599 265.582112 
L 94.109417 264.887099 
L 94.182459 264.609094 
L 94.279847 264.36584 
L 94.279847 264.122585 
L 94.328542 264.122585 
L 94.718096 263.219069 
L 94.888526 263.149568 
L 95.302427 262.663059 
L 95.643287 261.933295 
L 95.667634 261.933295 
L 96.349354 260.230514 
L 97.128463 258.701487 
L 97.49367 258.110726 
L 97.566712 258.006474 
L 98.102349 256.790202 
L 98.808416 255.782434 
L 98.808416 255.712932 
L 99.003193 255.678182 
L 99.611872 254.878917 
L 99.830996 253.836398 
L 99.928384 253.627894 
L 100.780534 252.133617 
L 101.194436 251.681859 
L 101.24313 251.19535 
L 101.730073 250.430836 
L 101.75442 250.291834 
L 101.778767 250.291834 
L 104.189134 245.70475 
L 104.31087 245.600498 
L 104.408259 245.218241 
L 104.65173 244.731733 
L 104.724772 244.384226 
L 104.846507 244.175722 
L 104.943896 243.932468 
L 106.161253 241.743178 
L 106.258642 241.604176 
L 106.35603 241.187168 
L 107.646429 237.260347 
L 107.792512 237.190845 
L 107.865553 236.843339 
L 107.8899 236.843339 
L 108.06033 236.530583 
L 108.620315 236.183077 
L 108.766397 235.80082 
L 108.790745 235.80082 
L 109.959407 233.298775 
L 110.008102 232.916518 
L 110.129837 232.916518 
L 110.397656 232.534261 
L 110.543739 232.49951 
L 110.543739 232.430009 
L 110.568086 232.221505 
L 110.641127 232.221505 
L 111.249806 230.970482 
L 111.712402 230.588225 
L 112.540205 229.267701 
L 112.637593 228.850694 
L 112.783676 228.850694 
L 113.294966 227.703923 
L 113.489743 227.599671 
L 114.341893 226.626653 
L 115.437515 225.236628 
L 116.143582 224.020356 
L 116.265317 223.916104 
L 116.460095 223.255842 
L 116.533136 222.873585 
L 117.044426 222.317575 
L 117.141815 222.282824 
L 117.385286 221.48356 
L 118.1157 220.093534 
L 118.28613 219.989283 
L 118.334825 219.711277 
L 118.773073 218.946764 
L 119.065239 218.495005 
L 119.113933 218.495005 
L 119.64957 217.382985 
L 119.844348 216.375217 
L 120.379985 215.923459 
L 120.477373 215.784456 
L 120.599109 215.680204 
L 120.599109 215.645454 
L 121.18344 214.151176 
L 121.548648 213.24766 
L 121.719078 213.143408 
L 121.913855 212.795902 
L 122.157326 212.100889 
L 122.619922 211.232123 
L 123.131212 210.050602 
L 123.155559 210.050602 
L 123.155559 210.015851 
L 123.545113 209.320838 
L 123.642502 209.077584 
L 123.666849 209.077584 
L 123.666849 209.008083 
L 123.764238 208.86908 
L 124.032056 208.069816 
L 124.957248 206.64504 
L 125.176372 206.471287 
L 125.225066 206.332284 
L 125.882439 205.394017 
L 125.95548 205.289765 
L 125.95548 205.255015 
L 126.612853 204.247246 
L 126.831978 204.038742 
L 127.197185 202.857221 
L 127.270226 202.474964 
L 127.586739 202.301211 
L 127.854558 202.162208 
L 128.51193 201.328193 
L 128.658013 200.667931 
L 129.217998 200.07717 
L 129.631899 199.173654 
L 130.508396 197.887881 
L 130.605785 197.609875 
L 130.703173 197.540374 
L 131.701406 195.941845 
L 131.774448 195.872344 
L 131.798795 195.872344 
L 131.847489 195.872344 
L 132.042266 195.629089 
L 132.212696 195.177331 
L 132.991805 193.891558 
L 133.089193 193.822057 
L 133.089193 193.787306 
L 133.551789 193.578802 
L 133.843955 193.335548 
L 133.892649 192.953291 
L 134.160468 192.744787 
L 134.452633 192.223528 
L 134.525675 192.223528 
L 134.525675 192.154026 
L 134.817841 191.876021 
L 135.085659 191.007255 
L 135.304783 190.764001 
L 135.962156 189.547729 
L 136.278669 189.165472 
L 136.278669 189.026469 
L 136.327363 189.026469 
L 136.887348 188.053452 
L 136.887348 188.018701 
L 137.398638 187.184686 
L 137.715151 186.524424 
L 137.885581 186.420172 
L 138.104705 186.142167 
L 138.177746 185.933663 
L 139.200326 185.030147 
L 139.273368 184.925895 
L 139.468145 184.508887 
L 139.492492 184.508887 
L 140.052476 183.918126 
L 140.442031 183.57062 
L 140.782891 183.01461 
L 140.904626 182.806106 
L 141.002015 182.562852 
L 141.099403 182.493351 
L 141.099403 182.389099 
L 141.172445 182.389099 
L 141.488958 181.555083 
L 141.610693 181.450832 
L 141.708082 181.172827 
L 141.756776 181.172827 
L 142.365455 180.199809 
L 142.487191 180.060806 
L 142.706315 179.887053 
L 143.436729 179.296292 
L 144.264532 177.906267 
L 144.410615 177.628262 
L 144.434962 177.628262 
L 144.434962 177.593511 
L 144.994946 175.786479 
L 145.262765 175.682227 
L 145.262765 175.543224 
L 145.287112 175.543224 
L 145.457542 175.438972 
L 145.530584 175.265219 
L 146.382734 174.153199 
L 146.650552 174.048947 
L 146.747941 173.770942 
L 146.894024 173.597189 
L 147.064454 173.319184 
L 147.186189 173.214932 
L 147.307925 172.971677 
L 147.405314 172.936927 
L 147.405314 172.902176 
L 147.794868 172.172413 
L 147.867909 171.99866 
L 147.892256 171.99866 
L 148.306158 171.060393 
L 148.573976 170.504383 
L 149.401779 170.191627 
L 149.766986 169.739869 
L 149.864375 169.600866 
L 149.961764 169.531365 
L 149.961764 169.496614 
L 150.253929 169.218609 
L 151.033038 168.593098 
L 151.081732 168.384594 
L 151.106079 168.384594 
L 151.203468 168.315093 
L 151.568675 167.62008 
L 151.909535 167.411576 
L 152.250395 166.786065 
L 152.566908 166.577561 
L 152.712991 166.473309 
L 153.029504 165.882548 
L 153.126892 165.778297 
L 153.297322 165.39604 
L 153.394711 165.361289 
L 153.808612 164.735778 
L 153.832959 164.562024 
L 154.149472 164.31877 
L 154.612068 163.797511 
L 154.879886 163.693259 
L 154.879886 163.623757 
L 154.928581 163.623757 
L 155.245094 163.415254 
L 155.269441 163.345752 
L 155.488565 163.20675 
L 155.561606 163.102498 
L 155.585954 163.102498 
L 155.707689 162.928745 
L 155.902466 162.059979 
L 156.072897 161.642971 
L 156.584187 161.156462 
L 156.705922 161.052211 
L 156.754617 160.982709 
L 156.803311 160.982709 
L 156.900699 160.878457 
L 156.949394 160.739455 
L 156.973741 160.739455 
L 157.095477 160.635203 
L 158.264139 158.82817 
L 158.264139 158.758669 
L 158.678041 158.411163 
L 158.970207 158.167908 
L 159.091942 158.098407 
L 159.091942 158.063656 
L 159.968439 157.542397 
L 160.041481 157.472895 
L 160.065828 157.333893 
L 160.114522 157.333893 
L 160.236258 157.19489 
L 160.284952 157.021137 
L 160.309299 157.021137 
L 160.625812 156.673631 
L 161.477962 155.596361 
L 161.745781 155.492109 
L 162.184029 155.075102 
L 162.597931 154.901349 
L 162.646625 154.727596 
L 162.719667 154.519092 
L 163.571817 153.89358 
L 163.620511 153.754578 
L 163.669205 153.754578 
L 164.083107 153.233318 
L 164.204842 153.233318 
L 164.643091 152.851061 
L 164.764827 152.677308 
L 165.130034 152.538306 
L 165.836101 151.808542 
L 165.836101 151.66954 
L 165.933489 151.66954 
L 166.006531 151.565288 
L 166.103919 151.252532 
L 166.298697 151.217782 
L 166.931722 150.453268 
L 167.102152 150.383767 
L 167.443012 150.175263 
L 167.832567 149.48025 
L 168.051691 149.306497 
L 168.051691 149.271746 
L 168.100385 149.271746 
L 168.246468 149.167494 
L 168.343857 149.167494 
L 168.343857 149.132744 
L 169.390784 148.090225 
L 169.658602 147.464713 
L 169.999462 147.082457 
L 170.096851 146.873953 
L 170.121198 146.873953 
L 170.413364 146.387444 
L 170.583794 146.352693 
L 170.583794 146.317943 
L 170.87596 145.761932 
L 171.070737 145.692431 
L 171.143778 145.379676 
L 171.21682 145.310174 
L 171.484638 144.823665 
L 171.679415 144.719414 
L 172.093317 144.093902 
L 172.093317 144.024401 
L 172.190705 144.024401 
L 172.263747 143.98965 
L 173.213285 142.530124 
L 173.724575 142.113116 
L 173.895005 141.869862 
L 174.11413 141.661358 
L 174.357601 141.487605 
L 175.112362 140.723091 
L 175.112362 140.68834 
L 175.185404 140.68834 
L 175.98886 139.715323 
L 176.013207 139.715323 
L 176.013207 139.611071 
L 176.256678 139.159312 
L 176.524497 138.985559 
L 176.621885 138.950809 
L 176.767968 138.568552 
L 176.767968 138.533801 
L 176.792315 138.533801 
L 176.962745 138.4643 
L 176.962745 138.429549 
L 177.230564 138.082043 
L 177.400994 138.012542 
L 177.400994 137.977791 
L 177.69316 137.734536 
L 178.277491 137.109025 
L 178.496615 136.970023 
L 178.71574 136.518264 
L 178.740087 136.240259 
L 178.788781 136.240259 
L 180.541775 133.703463 
L 181.515661 133.077952 
L 181.564355 132.904199 
L 181.588703 132.904199 
L 181.832174 132.904199 
L 181.832174 132.869448 
L 182.002604 132.695695 
L 182.538241 132.070183 
L 182.684324 131.86168 
L 182.854754 131.792178 
L 182.927795 131.618425 
L 183.390391 130.958163 
L 184.145153 130.054647 
L 184.388624 129.950395 
L 184.461665 129.811392 
L 184.534707 129.776642 
L 185.8738 128.629871 
L 186.21466 127.969609 
L 186.531173 127.900108 
L 187.06681 127.413599 
L 187.115504 127.413599 
L 187.626794 126.92709 
L 187.724183 126.579584 
L 188.381555 126.301579 
L 188.819804 125.676067 
L 189.087623 125.571815 
L 189.087623 125.537065 
L 189.136317 125.537065 
L 189.2824 125.502314 
L 189.2824 125.467563 
L 190.938005 123.278274 
L 191.011047 123.208772 
L 191.035394 122.965518 
L 191.278865 122.826515 
L 191.278865 122.757014 
L 191.376254 122.757014 
L 191.936238 122.444258 
L 192.617958 121.644994 
L 192.764041 121.540742 
L 193.348373 120.845729 
L 193.640538 120.776228 
L 193.689233 120.567724 
L 193.957051 120.254969 
L 194.151828 119.976964 
L 194.297911 119.872712 
L 194.297911 119.837961 
L 194.3953 119.837961 
L 194.541383 119.76846 
L 194.73616 119.664208 
L 194.760507 119.559956 
L 194.784854 119.559956 
L 194.979631 119.420953 
L 195.003978 119.316702 
L 195.052673 119.316702 
L 195.271797 119.2472 
L 195.369186 119.108198 
L 195.539616 119.003946 
L 195.685698 118.795442 
L 195.880476 118.795442 
L 195.880476 118.725941 
L 196.27003 118.378434 
L 196.732626 118.274183 
L 196.830014 117.996177 
L 197.584776 117.335915 
L 197.584776 117.266414 
L 197.852594 117.092661 
L 198.802133 116.223895 
L 198.923868 116.189145 
L 198.923868 116.154394 
L 198.923868 116.084893 
L 199.362117 115.980641 
L 199.776018 115.633135 
L 200.214267 114.972873 
L 200.311656 114.938122 
L 200.433391 114.416862 
L 200.433391 114.382112 
L 202.40551 112.714081 
L 202.478551 112.470827 
L 202.9168 112.053819 
L 203.014188 111.880066 
L 203.08723 111.775814 
L 206.033234 109.169517 
L 206.130623 109.065265 
L 206.398441 108.752509 
L 206.544524 108.683008 
L 206.544524 108.613507 
L 206.568871 108.613507 
L 206.909731 108.509255 
L 208.443601 107.501487 
L 208.735767 107.431985 
L 209.076627 107.362484 
L 209.271404 107.292983 
L 209.320099 107.223482 
L 209.880083 107.15398 
L 210.342679 106.736973 
L 211.413953 106.04196 
L 211.462647 105.833456 
L 211.584383 105.798706 
L 211.584383 105.763955 
L 212.095673 105.207945 
L 212.363491 105.068942 
L 212.363491 104.92994 
L 212.509574 104.37393 
L 212.728699 104.37393 
L 212.728699 104.339179 
L 213.726931 103.435663 
L 213.751279 103.26191 
L 213.775626 103.26191 
L 213.99475 103.157658 
L 214.432999 102.844902 
L 214.725164 102.601648 
L 214.773859 102.601648 
L 215.236454 102.288892 
L 215.601661 102.219391 
L 215.601661 102.18464 
L 216.015563 101.66338 
L 216.624241 101.281123 
L 217.208573 100.655612 
L 217.330309 100.586111 
L 217.476391 100.308106 
L 218.328542 99.613093 
L 218.42593 99.335088 
L 218.620707 99.265587 
L 218.693749 99.057083 
L 218.718096 99.057083 
L 219.326774 98.292569 
L 219.667634 98.014564 
L 219.740676 97.910312 
L 219.862412 97.910312 
L 219.862412 97.840811 
L 219.911106 97.701808 
L 219.935453 97.701808 
L 220.032842 97.562806 
L 220.057189 97.319551 
L 220.13023 97.319551 
L 220.325007 97.284801 
L 220.738909 96.867793 
L 220.909339 96.763541 
L 221.031074 96.728791 
L 221.031074 96.69404 
L 222.102349 96.13803 
L 222.370167 96.033778 
L 222.735374 95.234514 
L 222.905804 95.130262 
L 222.905804 95.095511 
L 223.003193 95.095511 
L 223.271012 94.782755 
L 223.928384 94.539501 
L 224.098814 94.47 
L 224.683146 93.913989 
L 225.145742 93.740236 
L 225.24313 93.601234 
L 225.462254 93.288478 
L 225.75442 92.940972 
L 227.361332 91.411944 
L 227.45872 91.342443 
L 228.99259 90.369425 
L 229.016937 90.265173 
L 229.041284 90.265173 
L 229.528227 89.917667 
L 229.67431 89.917667 
L 230.331683 89.500659 
L 231.354263 89.118402 
L 231.354263 89.083652 
L 231.451652 89.083652 
L 231.646429 88.770896 
L 232.279455 88.249636 
L 232.328149 88.180135 
L 232.376843 88.180135 
L 232.790745 88.075883 
L 233.009869 87.936881 
L 233.131605 87.90213 
L 234.738516 86.720609 
L 234.835905 86.651107 
L 235.176765 86.338352 
L 235.2985 86.2341 
L 235.63936 85.747591 
L 236.637593 85.087329 
L 236.881065 84.983077 
L 236.881065 84.913576 
L 236.929759 84.913576 
L 237.197577 84.809324 
L 237.294966 84.774573 
L 237.368007 84.566069 
L 237.562785 84.496568 
L 237.562785 84.461818 
L 239.364473 83.523551 
L 239.461862 83.349797 
L 240.508789 82.724286 
L 241.43398 81.925021 
L 241.701799 81.82077 
L 241.799187 81.577515 
L 242.505255 81.160508 
L 242.700032 81.125757 
L 242.919156 80.882502 
L 243.454793 80.361243 
L 243.625223 80.256991 
L 243.771306 80.083238 
L 243.99043 80.013737 
L 243.99043 79.978986 
L 244.233902 79.805233 
L 245.597342 78.866966 
L 245.621689 78.727963 
L 246.108632 78.484709 
L 246.181673 78.345706 
L 246.449492 78.206704 
L 246.498186 78.032951 
L 247.106865 77.407439 
L 247.325989 77.303187 
L 247.325989 77.268437 
L 247.350336 77.268437 
L 248.372916 76.712427 
L 248.567693 76.608175 
L 248.567693 76.573424 
L 248.59204 76.573424 
L 249.054636 76.260668 
L 249.152025 76.191167 
L 249.176372 76.191167 
L 250.004175 75.704658 
L 250.077216 75.565656 
L 250.174605 75.461404 
L 250.247646 75.391903 
L 251.002408 74.905394 
L 251.221532 74.801142 
L 251.270226 74.69689 
L 251.294573 74.69689 
L 251.562392 74.488386 
L 251.854558 74.210381 
L 252.024988 74.106129 
L 252.17107 74.071379 
L 252.755402 73.723872 
L 253.144956 73.306865 
L 253.510163 73.202613 
L 253.558858 73.098361 
L 253.583205 73.098361 
L 253.997106 72.924608 
L 254.094495 72.889857 
L 255.092728 72.542351 
L 255.750101 72.264346 
L 255.823142 72.090593 
L 256.723986 71.360829 
L 256.870069 71.221827 
L 257.186582 71.117575 
L 257.381359 71.048074 
L 258.014385 70.561565 
L 259.280436 69.866552 
L 259.280436 69.797051 
L 259.499561 69.484295 
L 260.108239 69.067288 
L 260.254322 68.754532 
L 260.668223 68.476527 
L 261.496026 68.129021 
L 261.569068 68.059519 
L 261.593415 68.059519 
L 262.080358 67.885766 
L 262.348176 67.677262 
L 262.859466 67.434008 
L 262.932508 67.295005 
L 263.249021 67.190753 
L 263.516839 67.051751 
L 264.368989 66.495741 
L 264.442031 66.495741 
L 264.661155 66.252486 
L 265.172445 66.148234 
L 266.633273 65.453222 
L 266.657621 65.383721 
L 266.706315 65.383721 
L 267.047175 65.314219 
L 267.461076 65.140466 
L 267.923672 65.036214 
L 268.215838 64.79296 
L 268.508004 64.688708 
L 268.678434 64.306451 
L 269.116682 64.202199 
L 269.214071 64.028446 
L 269.384501 63.993695 
L 270.212304 63.541937 
L 270.918371 62.985927 
L 271.040106 62.881675 
L 271.673132 62.777423 
L 271.746174 62.673171 
L 272.062686 62.568919 
L 272.062686 62.534169 
L 272.135728 62.534169 
L 272.525282 62.429917 
L 272.720059 62.325665 
L 272.817448 62.325665 
L 273.109614 62.04766 
L 273.207002 61.908657 
L 273.328738 61.873907 
L 274.205235 61.456899 
L 274.546095 61.387398 
L 274.546095 61.352647 
L 274.984344 61.144143 
L 275.568675 60.831388 
L 275.739105 60.692385 
L 276.055618 60.622884 
L 276.810379 60.310128 
L 276.859074 60.275378 
L 276.859074 60.205876 
L 277.126892 59.927871 
L 277.297322 59.927871 
L 278.027736 59.615116 
L 279.025969 58.954854 
L 279.658995 58.850602 
L 280.608534 58.468345 
L 280.876352 58.364093 
L 280.925047 58.259841 
L 281.777197 57.947085 
L 282.093709 57.703831 
L 283.335414 57.460576 
L 283.724968 57.182571 
L 284.966672 56.835065 
L 285.039714 56.765564 
L 285.356227 56.696063 
L 285.356227 56.661312 
L 285.526657 56.626561 
L 286.110988 56.522309 
L 286.500542 56.348556 
L 287.937024 55.688294 
L 288.326578 55.44504 
L 288.764827 55.340788 
L 288.886562 55.062783 
L 289.227422 55.028032 
L 289.422199 54.88903 
L 289.665671 54.854279 
L 289.665671 54.784778 
L 289.665671 54.715277 
L 289.690018 54.715277 
L 290.907375 54.437271 
L 291.321277 54.298269 
L 291.491707 54.228768 
L 292.100385 54.055015 
L 292.173427 53.985513 
L 292.855147 53.672758 
L 292.976882 53.533755 
L 293.390784 53.464254 
L 293.634255 53.25575 
L 294.02381 53.186249 
L 294.291628 53.012496 
L 294.462058 52.977745 
L 294.900307 52.734491 
L 295.168125 52.664989 
L 295.241167 52.456485 
L 295.435944 52.421735 
L 296.848078 51.830974 
L 297.237632 51.552969 
L 297.895005 51.448717 
L 298.96628 51.101211 
L 299.039321 50.996959 
L 299.063668 50.996959 
L 299.209751 50.892707 
L 299.842777 50.788455 
L 300.086248 50.614702 
L 301.400994 49.989191 
L 301.620118 49.919689 
L 302.983558 49.328929 
L 303.689625 49.224677 
L 303.689625 49.189926 
L 303.762667 49.189926 
L 304.225262 49.085674 
L 304.24961 48.946672 
L 304.322651 48.946672 
L 304.7609 48.84242 
L 304.858288 48.772918 
L 305.10176 48.703417 
L 305.905215 48.390662 
L 305.929563 48.355911 
L 306.392158 48.216908 
L 306.708671 48.112656 
L 307.65821 47.938903 
L 307.779945 47.869402 
L 308.072111 47.799901 
L 309.338163 47.417644 
L 309.70337 47.278641 
L 310.458131 47.174389 
L 310.72595 46.965886 
L 311.212893 46.861634 
L 311.334628 46.792132 
L 311.992001 46.687881 
L 312.08939 46.583629 
L 312.235473 46.514127 
L 312.235473 46.479377 
L 314.889311 45.958117 
L 314.938005 45.888616 
L 315.595378 45.714863 
L 315.863197 45.610611 
L 316.106668 45.54111 
L 316.593611 45.436858 
L 316.812735 45.193603 
L 317.177943 45.158853 
L 317.37272 45.01985 
L 319.24745 44.290087 
L 319.344838 44.185835 
L 319.661351 44.116334 
L 320.416113 44.012082 
L 320.513501 43.942581 
L 321.024791 43.873079 
L 321.049138 43.768827 
L 321.073486 43.768827 
L 321.268263 43.664576 
L 321.998677 43.490822 
L 322.120413 43.421321 
L 322.339537 43.35182 
L 323.922101 43.004314 
L 324.749904 42.900062 
L 324.749904 42.83056 
L 325.115111 42.761059 
L 326.259427 42.656807 
L 326.57594 42.622057 
L 327.841991 42.517805 
L 327.93938 42.483054 
L 328.840224 42.378802 
L 328.96196 42.309301 
L 329.424556 42.205049 
L 329.47325 42.100797 
L 330.276706 41.996545 
L 330.349747 41.927044 
L 331.00712 41.857543 
L 331.00712 41.788041 
L 331.932311 41.68379 
L 332.054047 41.579538 
L 332.930544 41.475286 
L 332.930544 41.440535 
L 333.027933 41.440535 
L 333.149669 41.405784 
L 334.026166 41.301533 
L 334.026166 41.232031 
L 334.050513 41.232031 
L 335.340911 41.127779 
L 335.340911 41.093029 
L 335.4383 41.093029 
L 335.657424 41.058278 
L 335.657424 40.954026 
L 335.754813 40.954026 
L 336.80174 40.849774 
L 336.923476 40.815024 
L 337.580849 40.710772 
L 337.580849 40.676021 
L 337.629543 40.676021 
L 337.99475 40.60652 
L 337.99475 40.537019 
L 338.092139 40.537019 
L 339.18776 40.432767 
L 339.18776 40.398016 
L 339.212107 40.398016 
L 339.942521 40.293764 
L 340.03991 40.224263 
L 341.208573 40.120011 
L 341.208573 40.08526 
L 341.305961 40.08526 
L 343.351122 39.981009 
L 343.351122 39.946258 
L 343.424163 39.946258 
L 344.154577 39.842006 
L 344.227619 39.737754 
L 344.81195 39.633502 
L 344.81195 39.598752 
L 344.909339 39.598752 
L 347.124929 39.4945 
L 347.246664 39.424998 
L 347.782302 39.320747 
L 347.855343 39.216495 
L 348.780534 39.112243 
L 348.975312 39.077492 
L 350.679612 38.97324 
L 350.679612 38.903739 
L 350.752653 38.903739 
L 350.923083 38.799487 
L 352.627383 38.695235 
L 352.700424 38.625734 
L 352.895202 38.590983 
L 354.842973 38.486731 
L 354.842973 38.451981 
L 354.916015 38.451981 
L 356.669009 38.347729 
L 356.693356 38.278228 
L 357.496812 38.173976 
L 357.496812 38.139225 
L 359.371542 38.034973 
L 359.371542 38.000223 
L 359.444583 38.000223 
L 361.148883 37.895971 
L 363.21839 37.826469 
L 364.046193 37.826469 
L 364.046193 37.791719 
" clip-path="url(#ped26dc20a9)" style="fill: none; stroke: #2563eb; stroke-width: 2; stroke-linecap: square"/>
   </g>
   <g id="line2d_14">
    <path d="M 59.682557 340.191719 
L 364.046193 37.791719 
" clip-path="url(#ped26dc20a9)" style="fill: none; stroke-dasharray: 5.55,2.4; stroke-dashoffset: 0; stroke: #000000; stroke-opacity: 0.3; stroke-width: 1.5"/>
   </g>
   <g id="patch_3">
    <path d="M 44.464375 355.311719 
L 44.464375 22.671719 
" style="fill: none; stroke: #000000; stroke-width: 0.8; stroke-linejoin: miter; stroke-linecap: square"/>
   </g>
   <g id="patch_4">
    <path d="M 44.464375 355.311719 
L 379.264375 355.311719 
" style="fill: none; stroke: #000000; stroke-width: 0.8; stroke-linejoin: miter; stroke-linecap: square"/>
   </g>
   <g id="text_15">
    <!-- ROC Curve: Corresponding Authorship (supplementary) -->
    <g transform="translate(50.744609 16.671719) scale(0.13 -0.13)">
     <defs>
      <path id="ArialMT-4f" d="M 309 2231 
Q 309 3372 921 4017 
Q 1534 4663 2503 4663 
Q 3138 4663 3647 4359 
Q 4156 4056 4423 3514 
Q 4691 2972 4691 2284 
Q 4691 1588 4409 1038 
Q 4128 488 3612 205 
Q 3097 -78 2500 -78 
Q 1853 -78 1343 234 
Q 834 547 571 1087 
Q 309 1628 309 2231 
z
M 934 2222 
Q 934 1394 1379 917 
Q 1825 441 2497 441 
Q 3181 441 3623 922 
Q 4066 1403 4066 2288 
Q 4066 2847 3877 3264 
Q 3688 3681 3323 3911 
Q 2959 4141 2506 4141 
Q 1863 4141 1398 3698 
Q 934 3256 934 2222 
z
" transform="scale(0.015625)"/>
      <path id="ArialMT-43" d="M 3763 1606 
L 4369 1453 
Q 4178 706 3683 314 
Q 3188 -78 2472 -78 
Q 1731 -78 1267 223 
Q 803 525 561 1097 
Q 319 1669 319 2325 
Q 319 3041 592 3573 
Q 866 4106 1370 4382 
Q 1875 4659 2481 4659 
Q 3169 4659 3637 4309 
Q 4106 3959 4291 3325 
L 3694 3184 
Q 3534 3684 3231 3912 
Q 2928 4141 2469 4141 
Q 1941 4141 1586 3887 
Q 1231 3634 1087 3207 
Q 944 2781 944 2328 
Q 944 1744 1114 1308 
Q 1284 872 1643 656 
Q 2003 441 2422 441 
Q 2931 441 3284 734 
Q 3638 1028 3763 1606 
z
" transform="scale(0.015625)"/>
      <path id="ArialMT-3a" d="M 578 2678 
L 578 3319 
L 1219 3319 
L 1219 2678 
L 578 2678 
z
M 578 0 
L 578 641 
L 1219 641 
L 1219 0 
L 578 0 
z
" transform="scale(0.015625)"/>
      <path id="ArialMT-70" d="M 422 -1272 
L 422 3319 
L 934 3319 
L 934 2888 
Q 1116 3141 1344 3267 
Q 1572 3394 1897 3394 
Q 2322 3394 2647 3175 
Q 2972 2956 3137 2557 
Q 3303 2159 3303 1684 
Q 3303 1175 3120 767 
Q 2938 359 2589 142 
Q 2241 -75 1856 -75 
Q 1575 -75 1351 44 
Q 1128 163 984 344 
L 984 -1272 
L 422 -1272 
z
M 931 1641 
Q 931 1000 1190 694 
Q 1450 388 1819 388 
Q 2194 388 2461 705 
Q 2728 1022 2728 1688 
Q 2728 2322 2467 2637 
Q 2206 2953 1844 2953 
Q 1484 2953 1207 2617 
Q 931 2281 931 1641 
z
" transform="scale(0.015625)"/>
      <path id="ArialMT-6e" d="M 422 0 
L 422 3319 
L 928 3319 
L 928 2847 
Q 1294 3394 1984 3394 
Q 2284 3394 2536 3286 
Q 2788 3178 2913 3003 
Q 3038 2828 3088 2588 
Q 3119 2431 3119 2041 
L 3119 0 
L 2556 0 
L 2556 2019 
Q 2556 2363 2490 2533 
Q 2425 2703 2258 2804 
Q 2091 2906 1866 2906 
Q 1506 2906 1245 2678 
Q 984 2450 984 1813 
L 984 0 
L 422 0 
z
" transform="scale(0.015625)"/>
      <path id="ArialMT-64" d="M 2575 0 
L 2575 419 
Q 2259 -75 1647 -75 
Q 1250 -75 917 144 
Q 584 363 401 755 
Q 219 1147 219 1656 
Q 219 2153 384 2558 
Q 550 2963 881 3178 
Q 1213 3394 1622 3394 
Q 1922 3394 2156 3267 
Q 2391 3141 2538 2938 
L 2538 4581 
L 3097 4581 
L 3097 0 
L 2575 0 
z
M 797 1656 
Q 797 1019 1065 703 
Q 1334 388 1700 388 
Q 2069 388 2326 689 
Q 2584 991 2584 1609 
Q 2584 2291 2321 2609 
Q 2059 2928 1675 2928 
Q 1300 2928 1048 2622 
Q 797 2316 797 1656 
z
" transform="scale(0.015625)"/>
      <path id="ArialMT-67" d="M 319 -275 
L 866 -356 
Q 900 -609 1056 -725 
Q 1266 -881 1628 -881 
Q 2019 -881 2231 -725 
Q 2444 -569 2519 -288 
Q 2563 -116 2559 434 
Q 2191 0 1641 0 
Q 956 0 581 494 
Q 206 988 206 1678 
Q 206 2153 378 2554 
Q 550 2956 876 3175 
Q 1203 3394 1644 3394 
Q 2231 3394 2613 2919 
L 2613 3319 
L 3131 3319 
L 3131 450 
Q 3131 -325 2973 -648 
Q 2816 -972 2473 -1159 
Q 2131 -1347 1631 -1347 
Q 1038 -1347 672 -1080 
Q 306 -813 319 -275 
z
M 784 1719 
Q 784 1066 1043 766 
Q 1303 466 1694 466 
Q 2081 466 2343 764 
Q 2606 1063 2606 1700 
Q 2606 2309 2336 2618 
Q 2066 2928 1684 2928 
Q 1309 2928 1046 2623 
Q 784 2319 784 1719 
z
" transform="scale(0.015625)"/>
      <path id="ArialMT-41" d="M -9 0 
L 1750 4581 
L 2403 4581 
L 4278 0 
L 3588 0 
L 3053 1388 
L 1138 1388 
L 634 0 
L -9 0 
z
M 1313 1881 
L 2866 1881 
L 2388 3150 
Q 2169 3728 2063 4100 
Q 1975 3659 1816 3225 
L 1313 1881 
z
" transform="scale(0.015625)"/>
      <path id="ArialMT-68" d="M 422 0 
L 422 4581 
L 984 4581 
L 984 2938 
Q 1378 3394 1978 3394 
Q 2347 3394 2619 3248 
Q 2891 3103 3008 2847 
Q 3125 2591 3125 2103 
L 3125 0 
L 2563 0 
L 2563 2103 
Q 2563 2525 2380 2717 
Q 2197 2909 1863 2909 
Q 1613 2909 1392 2779 
Q 1172 2650 1078 2428 
Q 984 2206 984 1816 
L 984 0 
L 422 0 
z
" transform="scale(0.015625)"/>
      <path id="ArialMT-28" d="M 1497 -1347 
Q 1031 -759 709 28 
Q 388 816 388 1659 
Q 388 2403 628 3084 
Q 909 3875 1497 4659 
L 1900 4659 
Q 1522 4009 1400 3731 
Q 1209 3300 1100 2831 
Q 966 2247 966 1656 
Q 966 153 1900 -1347 
L 1497 -1347 
z
" transform="scale(0.015625)"/>
      <path id="ArialMT-6d" d="M 422 0 
L 422 3319 
L 925 3319 
L 925 2853 
Q 1081 3097 1340 3245 
Q 1600 3394 1931 3394 
Q 2300 3394 2536 3241 
Q 2772 3088 2869 2813 
Q 3263 3394 3894 3394 
Q 4388 3394 4653 3120 
Q 4919 2847 4919 2278 
L 4919 0 
L 4359 0 
L 4359 2091 
Q 4359 2428 4304 2576 
Q 4250 2725 4106 2815 
Q 3963 2906 3769 2906 
Q 3419 2906 3187 2673 
Q 2956 2441 2956 1928 
L 2956 0 
L 2394 0 
L 2394 2156 
Q 2394 2531 2256 2718 
Q 2119 2906 1806 2906 
Q 1569 2906 1367 2781 
Q 1166 2656 1075 2415 
Q 984 2175 984 1722 
L 984 0 
L 422 0 
z
" transform="scale(0.015625)"/>
      <path id="ArialMT-79" d="M 397 -1278 
L 334 -750 
Q 519 -800 656 -800 
Q 844 -800 956 -737 
Q 1069 -675 1141 -563 
Q 1194 -478 1313 -144 
Q 1328 -97 1363 -6 
L 103 3319 
L 709 3319 
L 1400 1397 
Q 1534 1031 1641 628 
Q 1738 1016 1872 1384 
L 2581 3319 
L 3144 3319 
L 1881 -56 
Q 1678 -603 1566 -809 
Q 1416 -1088 1222 -1217 
Q 1028 -1347 759 -1347 
Q 597 -1347 397 -1278 
z
" transform="scale(0.015625)"/>
      <path id="ArialMT-29" d="M 791 -1347 
L 388 -1347 
Q 1322 153 1322 1656 
Q 1322 2244 1188 2822 
Q 1081 3291 891 3722 
Q 769 4003 388 4659 
L 791 4659 
Q 1378 3875 1659 3084 
Q 1900 2403 1900 1659 
Q 1900 816 1576 28 
Q 1253 -759 791 -1347 
z
" transform="scale(0.015625)"/>
     </defs>
     <use xlink:href="#ArialMT-52"/>
     <use xlink:href="#ArialMT-4f" transform="translate(72.216797 0)"/>
     <use xlink:href="#ArialMT-43" transform="translate(150 0)"/>
     <use xlink:href="#ArialMT-20" transform="translate(222.216797 0)"/>
     <use xlink:href="#ArialMT-43" transform="translate(250 0)"/>
     <use xlink:href="#ArialMT-75" transform="translate(322.216797 0)"/>
     <use xlink:href="#ArialMT-72" transform="translate(377.832031 0)"/>
     <use xlink:href="#ArialMT-76" transform="translate(411.132812 0)"/>
     <use xlink:href="#ArialMT-65" transform="translate(461.132812 0)"/>
     <use xlink:href="#ArialMT-3a" transform="translate(516.748047 0)"/>
     <use xlink:href="#ArialMT-20" transform="translate(544.53125 0)"/>
     <use xlink:href="#ArialMT-43" transform="translate(572.314453 0)"/>
     <use xlink:href="#ArialMT-6f" transform="translate(644.53125 0)"/>
     <use xlink:href="#ArialMT-72" transform="translate(700.146484 0)"/>
     <use xlink:href="#ArialMT-72" transform="translate(733.447266 0)"/>
     <use xlink:href="#ArialMT-65" transform="translate(766.748047 0)"/>
     <use xlink:href="#ArialMT-73" transform="translate(822.363281 0)"/>
     <use xlink:href="#ArialMT-70" transform="translate(872.363281 0)"/>
     <use xlink:href="#ArialMT-6f" transform="translate(927.978516 0)"/>
     <use xlink:href="#ArialMT-6e" transform="translate(983.59375 0)"/>
     <use xlink:href="#ArialMT-64" transform="translate(1039.208984 0)"/>
     <use xlink:href="#ArialMT-69" transform="translate(1094.824219 0)"/>
     <use xlink:href="#ArialMT-6e" transform="translate(1117.041016 0)"/>
     <use xlink:href="#ArialMT-67" transform="translate(1172.65625 0)"/>
     <use xlink:href="#ArialMT-20" transform="translate(1228.271484 0)"/>
     <use xlink:href="#ArialMT-41" transform="translate(1250.554688 0)"/>
     <use xlink:href="#ArialMT-75" transform="translate(1317.253906 0)"/>
     <use xlink:href="#ArialMT-74" transform="translate(1372.869141 0)"/>
     <use xlink:href="#ArialMT-68" transform="translate(1400.652344 0)"/>
     <use xlink:href="#ArialMT-6f" transform="translate(1456.267578 0)"/>
     <use xlink:href="#ArialMT-72" transform="translate(1511.882812 0)"/>
     <use xlink:href="#ArialMT-73" transform="translate(1545.183594 0)"/>
     <use xlink:href="#ArialMT-68" transform="translate(1595.183594 0)"/>
     <use xlink:href="#ArialMT-69" transform="translate(1650.798828 0)"/>
     <use xlink:href="#ArialMT-70" transform="translate(1673.015625 0)"/>
     <use xlink:href="#ArialMT-20" transform="translate(1728.630859 0)"/>
     <use xlink:href="#ArialMT-28" transform="translate(1756.414062 0)"/>
     <use xlink:href="#ArialMT-73" transform="translate(1789.714844 0)"/>
     <use xlink:href="#ArialMT-75" transform="translate(1839.714844 0)"/>
     <use xlink:href="#ArialMT-70" transform="translate(1895.330078 0)"/>
     <use xlink:href="#ArialMT-70" transform="translate(1950.945312 0)"/>
     <use xlink:href="#ArialMT-6c" transform="translate(2006.560547 0)"/>
     <use xlink:href="#ArialMT-65" transform="translate(2028.777344 0)"/>
     <use xlink:href="#ArialMT-6d" transform="translate(2084.392578 0)"/>
     <use xlink:href="#ArialMT-65" transform="translate(2167.693359 0)"/>
     <use xlink:href="#ArialMT-6e" transform="translate(2223.308594 0)"/>
     <use xlink:href="#ArialMT-74" transform="translate(2278.923828 0)"/>
     <use xlink:href="#ArialMT-61" transform="translate(2306.707031 0)"/>
     <use xlink:href="#ArialMT-72" transform="translate(2362.322266 0)"/>
     <use xlink:href="#ArialMT-79" transform="translate(2395.623047 0)"/>
     <use xlink:href="#ArialMT-29" transform="translate(2445.623047 0)"/>
    </g>
   </g>
   <g id="legend_1">
    <g id="patch_5">
     <path d="M 273.078281 349.811719 
L 371.564375 349.811719 
Q 373.764375 349.811719 373.764375 347.611719 
L 373.764375 333.151875 
Q 373.764375 330.951875 371.564375 330.951875 
L 273.078281 330.951875 
Q 270.878281 330.951875 270.878281 333.151875 
L 270.878281 347.611719 
Q 270.878281 349.811719 273.078281 349.811719 
z
" style="fill: #ffffff; opacity: 0.8; stroke: #cccccc; stroke-linejoin: miter"/>
    </g>
    <g id="line2d_15">
     <path d="M 275.278281 339.375469 
L 286.278281 339.375469 
L 297.278281 339.375469 
" style="fill: none; stroke: #2563eb; stroke-width: 2; stroke-linecap: square"/>
    </g>
    <g id="text_16">
     <!-- AUC = 0.692 -->
     <g transform="translate(306.078281 343.225469) scale(0.11 -0.11)">
      <defs>
       <path id="ArialMT-55" d="M 3500 4581 
L 4106 4581 
L 4106 1934 
Q 4106 1244 3950 837 
Q 3794 431 3386 176 
Q 2978 -78 2316 -78 
Q 1672 -78 1262 144 
Q 853 366 678 786 
Q 503 1206 503 1934 
L 503 4581 
L 1109 4581 
L 1109 1938 
Q 1109 1341 1220 1058 
Q 1331 775 1601 622 
Q 1872 469 2263 469 
Q 2931 469 3215 772 
Q 3500 1075 3500 1938 
L 3500 4581 
z
" transform="scale(0.015625)"/>
       <path id="ArialMT-3d" d="M 3381 2694 
L 356 2694 
L 356 3219 
L 3381 3219 
L 3381 2694 
z
M 3381 1303 
L 356 1303 
L 356 1828 
L 3381 1828 
L 3381 1303 
z
" transform="scale(0.015625)"/>
       <path id="ArialMT-39" d="M 350 1059 
L 891 1109 
Q 959 728 1153 556 
Q 1347 384 1650 384 
Q 1909 384 2104 503 
Q 2300 622 2425 820 
Q 2550 1019 2634 1356 
Q 2719 1694 2719 2044 
Q 2719 2081 2716 2156 
Q 2547 1888 2255 1720 
Q 1963 1553 1622 1553 
Q 1053 1553 659 1965 
Q 266 2378 266 3053 
Q 266 3750 677 4175 
Q 1088 4600 1706 4600 
Q 2153 4600 2523 4359 
Q 2894 4119 3086 3673 
Q 3278 3228 3278 2384 
Q 3278 1506 3087 986 
Q 2897 466 2520 194 
Q 2144 -78 1638 -78 
Q 1100 -78 759 220 
Q 419 519 350 1059 
z
M 2653 3081 
Q 2653 3566 2395 3850 
Q 2138 4134 1775 4134 
Q 1400 4134 1122 3828 
Q 844 3522 844 3034 
Q 844 2597 1108 2323 
Q 1372 2050 1759 2050 
Q 2150 2050 2401 2323 
Q 2653 2597 2653 3081 
z
" transform="scale(0.015625)"/>
      </defs>
      <use xlink:href="#ArialMT-41"/>
      <use xlink:href="#ArialMT-55" transform="translate(66.699219 0)"/>
      <use xlink:href="#ArialMT-43" transform="translate(138.916016 0)"/>
      <use xlink:href="#ArialMT-20" transform="translate(211.132812 0)"/>
      <use xlink:href="#ArialMT-3d" transform="translate(238.916016 0)"/>
      <use xlink:href="#ArialMT-20" transform="translate(297.314453 0)"/>
      <use xlink:href="#ArialMT-30" transform="translate(325.097656 0)"/>
      <use xlink:href="#ArialMT-2e" transform="translate(380.712891 0)"/>
      <use xlink:href="#ArialMT-36" transform="translate(408.496094 0)"/>
      <use xlink:href="#ArialMT-39" transform="translate(464.111328 0)"/>
      <use xlink:href="#ArialMT-32" transform="translate(519.726562 0)"/>
     </g>
    </g>
   </g>
  </g>
 </g>
 <defs>
  <clipPath id="ped26dc20a9">
   <rect x="44.464375" y="22.671719" width="334.8" height="332.64"/>
  </clipPath>
 </defs>
</svg>
